G04*
G04 #@! TF.GenerationSoftware,Altium Limited,Altium Designer,21.3.2 (30)*
G04*
G04 Layer_Physical_Order=2*
G04 Layer_Color=32768*
%FSLAX43Y43*%
%MOMM*%
G71*
G04*
G04 #@! TF.SameCoordinates,AF92D2DE-8466-4D58-AFAE-29A769C4C8C3*
G04*
G04*
G04 #@! TF.FilePolarity,Negative*
G04*
G01*
G75*
%ADD16C,0.254*%
%ADD114C,0.381*%
%ADD126C,1.016*%
%ADD127R,1.384X1.236*%
%ADD128R,0.356X0.711*%
%ADD129C,0.813*%
%ADD130O,1.210X1.810*%
%ADD131C,1.110*%
%ADD132O,2.510X1.210*%
%ADD133O,2.210X1.210*%
%ADD134C,2.810*%
%ADD135C,1.245*%
G04:AMPARAMS|DCode=136|XSize=1.905mm|YSize=1.905mm|CornerRadius=0mm|HoleSize=0mm|Usage=FLASHONLY|Rotation=0.000|XOffset=0mm|YOffset=0mm|HoleType=Round|Shape=Relief|Width=0.381mm|Gap=0.254mm|Entries=4|*
%AMTHD136*
7,0,0,1.905,1.397,0.381,45*
%
%ADD136THD136*%
%ADD137C,1.410*%
%ADD138C,2.410*%
%ADD139C,1.260*%
G04:AMPARAMS|DCode=140|XSize=1.92mm|YSize=1.92mm|CornerRadius=0mm|HoleSize=0mm|Usage=FLASHONLY|Rotation=0.000|XOffset=0mm|YOffset=0mm|HoleType=Round|Shape=Relief|Width=0.381mm|Gap=0.254mm|Entries=4|*
%AMTHD140*
7,0,0,1.920,1.412,0.381,45*
%
%ADD140THD140*%
%ADD141C,0.508*%
D16*
X57260Y5500D02*
G03*
X58260Y4500I1000J0D01*
G01*
X59260Y3500D02*
G03*
X58260Y4500I-1000J0D01*
G01*
Y0D02*
G03*
X59260Y1000I0J1000D01*
G01*
Y25000D02*
G03*
X58260Y26000I-1000J0D01*
G01*
Y21500D02*
G03*
X59260Y22500I0J1000D01*
G01*
X58260Y21500D02*
G03*
X57260Y20500I0J-1000D01*
G01*
X-1000Y1000D02*
G03*
X0Y0I1000J0D01*
G01*
Y26000D02*
G03*
X-1000Y25000I0J-1000D01*
G01*
X59260Y1000D02*
Y3500D01*
X56260Y0D02*
X58260D01*
X56260Y26000D02*
X58260D01*
X59260Y22500D02*
Y25000D01*
X57260Y5500D02*
Y20500D01*
X0Y0D02*
X56260D01*
X-1000Y1000D02*
Y25000D01*
X0Y26000D02*
X56260D01*
D114*
X10592Y24557D02*
Y24836D01*
X42282Y5426D02*
X42282D01*
D126*
X0Y26000D02*
G03*
X-1000Y25000I0J-1000D01*
G01*
X59260D02*
G03*
X58260Y26000I-1000J0D01*
G01*
Y21500D02*
G03*
X59260Y22500I0J1000D01*
G01*
X58260Y21500D02*
G03*
X57260Y20500I0J-1000D01*
G01*
Y5500D02*
G03*
X58260Y4500I1000J0D01*
G01*
X59260Y3500D02*
G03*
X58260Y4500I-1000J0D01*
G01*
Y0D02*
G03*
X59260Y1000I0J1000D01*
G01*
X-1000D02*
G03*
X0Y0I1000J0D01*
G01*
Y26000D02*
X58260D01*
X59260Y22500D02*
Y25000D01*
X57260Y5500D02*
Y20500D01*
X59260Y1000D02*
Y3500D01*
X0Y0D02*
X58260D01*
X-1000Y1000D02*
Y25000D01*
D127*
X22768Y8644D02*
D03*
D128*
X4242Y19142D02*
D03*
D129*
X-268Y7780D02*
D03*
X506Y7971D02*
D03*
Y7488D02*
D03*
X1281Y7780D02*
D03*
X-268Y9533D02*
D03*
X506Y9825D02*
D03*
Y9342D02*
D03*
X1281Y9533D02*
D03*
X-268Y16391D02*
D03*
X506Y16581D02*
D03*
Y16099D02*
D03*
X1281Y16391D02*
D03*
X-272Y18245D02*
D03*
X503Y18537D02*
D03*
Y18055D02*
D03*
X1278Y18245D02*
D03*
D130*
X4556Y17020D02*
D03*
Y8980D02*
D03*
D131*
X3706Y9600D02*
D03*
Y16400D02*
D03*
D132*
X506Y8680D02*
D03*
Y17320D02*
D03*
D133*
X5056Y8680D02*
D03*
Y17320D02*
D03*
D134*
X2500Y2100D02*
D03*
Y23900D02*
D03*
D135*
X52588Y24557D02*
D03*
X55128D02*
D03*
X51318D02*
D03*
X52588Y23287D02*
D03*
X53858D02*
D03*
X51318D02*
D03*
X55128D02*
D03*
D136*
X53858Y24557D02*
D03*
D137*
X3353Y20760D02*
D03*
D138*
X57500Y2500D02*
D03*
Y23500D02*
D03*
D139*
X18050Y1232D02*
D03*
X15550D02*
D03*
X14300D02*
D03*
X6156Y1238D02*
D03*
X7406D02*
D03*
X8656D02*
D03*
X9906D02*
D03*
X8723Y24714D02*
D03*
X7473D02*
D03*
X6223D02*
D03*
D140*
X16800Y1232D02*
D03*
X11156Y1238D02*
D03*
X11223Y24714D02*
D03*
X9973D02*
D03*
D141*
X563Y5800D02*
D03*
X23556Y23702D02*
D03*
X23561Y24241D02*
D03*
X17652Y23951D02*
D03*
X17113Y23956D02*
D03*
X15951Y25157D02*
D03*
X12649Y25425D02*
D03*
X20117Y23026D02*
D03*
X20111Y22264D02*
D03*
X20495Y22642D02*
D03*
X19733Y22648D02*
D03*
X19304Y19800D02*
D03*
X19298Y19038D02*
D03*
X19682Y19416D02*
D03*
X18920Y19422D02*
D03*
X35636Y22200D02*
D03*
X18050Y22347D02*
D03*
X18496Y25425D02*
D03*
X23919Y25405D02*
D03*
X22991Y25411D02*
D03*
X21727Y20385D02*
D03*
X47160Y18867D02*
D03*
X41612Y11862D02*
D03*
X40962D02*
D03*
X47960Y18867D02*
D03*
X44212Y13812D02*
D03*
X53111Y18830D02*
D03*
X43562Y13812D02*
D03*
X53645Y18830D02*
D03*
X3666Y12613D02*
D03*
X6325Y13397D02*
D03*
X3666Y13147D02*
D03*
X6325Y12863D02*
D03*
X23292Y17348D02*
D03*
X22677Y16485D02*
D03*
X12065Y16739D02*
D03*
X13056Y13868D02*
D03*
X15316Y14147D02*
D03*
Y7080D02*
D03*
X14046Y15802D02*
D03*
X5199Y12360D02*
D03*
X50921Y20382D02*
D03*
X51871Y19878D02*
D03*
X52108Y20382D02*
D03*
X50393Y19819D02*
D03*
X55839Y8509D02*
D03*
X56556Y8484D02*
D03*
X56378Y7656D02*
D03*
Y6965D02*
D03*
X12836Y13164D02*
D03*
Y12580D02*
D03*
Y14630D02*
D03*
Y15164D02*
D03*
X53653Y16612D02*
D03*
X44212Y13162D02*
D03*
X53119Y16612D02*
D03*
X44862Y13162D02*
D03*
X31788Y23523D02*
D03*
X32248D02*
D03*
X31323D02*
D03*
X46203Y11811D02*
D03*
X41630Y12548D02*
D03*
X44806Y18872D02*
D03*
X43887Y17348D02*
D03*
X46162Y12512D02*
D03*
X38362Y4712D02*
D03*
X40962Y7962D02*
D03*
X37062Y13162D02*
D03*
X48571Y1454D02*
D03*
X52198Y3786D02*
D03*
X52216Y4362D02*
D03*
X54611Y1131D02*
D03*
X54598Y1776D02*
D03*
X54737Y2360D02*
D03*
X51125Y1559D02*
D03*
X51871Y962D02*
D03*
X41560Y18867D02*
D03*
X42360D02*
D03*
X40312Y13162D02*
D03*
X39662D02*
D03*
X45085Y21212D02*
D03*
X44285Y21212D02*
D03*
X49085Y19718D02*
D03*
Y20336D02*
D03*
X47859Y19878D02*
D03*
X47244Y20345D02*
D03*
X45885Y19878D02*
D03*
Y20382D02*
D03*
X43688D02*
D03*
X43693Y19883D02*
D03*
X42291Y19819D02*
D03*
X42316Y20437D02*
D03*
X40385Y19791D02*
D03*
Y20437D02*
D03*
X36927Y19757D02*
D03*
Y20382D02*
D03*
X39160Y19766D02*
D03*
Y20382D02*
D03*
X39160Y16617D02*
D03*
X43160D02*
D03*
X42210Y17417D02*
D03*
X52699Y3029D02*
D03*
X51958Y6662D02*
D03*
X25711Y19939D02*
D03*
X53055Y20992D02*
D03*
X20816Y14425D02*
D03*
X20184Y14452D02*
D03*
X33036Y4680D02*
D03*
X44775Y457D02*
D03*
X43238D02*
D03*
X41665D02*
D03*
X46551D02*
D03*
X45425D02*
D03*
X56368Y9977D02*
D03*
X56246Y9296D02*
D03*
X56769Y9449D02*
D03*
X9156Y18217D02*
D03*
X9160Y18756D02*
D03*
X8617Y18222D02*
D03*
X8622Y18760D02*
D03*
X10147Y22822D02*
D03*
X24379Y17085D02*
D03*
X21765Y16471D02*
D03*
X25786Y19101D02*
D03*
X22261Y19841D02*
D03*
X21722Y19846D02*
D03*
X22265Y20380D02*
D03*
X23089Y14430D02*
D03*
X33656Y25405D02*
D03*
X26432Y25512D02*
D03*
X32004Y25431D02*
D03*
X31373Y25458D02*
D03*
X32636Y25405D02*
D03*
X28327Y25431D02*
D03*
X27696Y25458D02*
D03*
X28959Y25405D02*
D03*
X30690Y16105D02*
D03*
X31322Y16078D02*
D03*
X30663Y15473D02*
D03*
X31295Y15446D02*
D03*
X28595Y16105D02*
D03*
X29226Y16078D02*
D03*
X28568Y15473D02*
D03*
X29199Y15446D02*
D03*
X28397Y13940D02*
D03*
X29016Y18288D02*
D03*
X31209Y18400D02*
D03*
X32085Y14321D02*
D03*
X29642Y14313D02*
D03*
X25836Y9480D02*
D03*
X18618Y6756D02*
D03*
X20345Y7010D02*
D03*
X23292Y6579D02*
D03*
X23093Y12178D02*
D03*
X11344Y10431D02*
D03*
X44114Y2500D02*
D03*
X43370D02*
D03*
X8179Y21184D02*
D03*
X36760Y25425D02*
D03*
X26364Y14901D02*
D03*
X16332Y22347D02*
D03*
X6712Y23068D02*
D03*
X15437D02*
D03*
X14453Y20868D02*
D03*
Y21800D02*
D03*
Y22732D02*
D03*
X17729Y3611D02*
D03*
Y4466D02*
D03*
Y5321D02*
D03*
Y6176D02*
D03*
X22822Y4033D02*
D03*
X22974Y3281D02*
D03*
X23139Y4706D02*
D03*
X11990Y3248D02*
D03*
X13421Y1839D02*
D03*
X11984Y2555D02*
D03*
X13420Y2525D02*
D03*
X11985Y1869D02*
D03*
X13426Y3218D02*
D03*
X7406Y4387D02*
D03*
Y5664D02*
D03*
X10352Y4479D02*
D03*
Y5715D02*
D03*
X15773Y5740D02*
D03*
X17907Y7080D02*
D03*
X18724Y9829D02*
D03*
Y11099D02*
D03*
Y12370D02*
D03*
X16637Y14880D02*
D03*
X11585Y7026D02*
D03*
X6698Y10030D02*
D03*
X6712Y10730D02*
D03*
X16840Y4466D02*
D03*
Y5321D02*
D03*
Y6176D02*
D03*
X21491Y12512D02*
D03*
X19888Y10280D02*
D03*
X20922Y4062D02*
D03*
X20244Y6213D02*
D03*
X20086Y5394D02*
D03*
Y4394D02*
D03*
X4623Y13640D02*
D03*
X3632Y14613D02*
D03*
X7188Y12055D02*
D03*
X3649Y11147D02*
D03*
X7188Y11521D02*
D03*
X3649Y10613D02*
D03*
X7214Y16257D02*
D03*
Y15723D02*
D03*
X3632Y15147D02*
D03*
X36043Y9912D02*
D03*
X37410Y641D02*
D03*
X24474Y21500D02*
D03*
X35576Y18901D02*
D03*
X35560Y20269D02*
D03*
X35535Y20980D02*
D03*
X35636Y21641D02*
D03*
X32416Y19221D02*
D03*
X27330Y19101D02*
D03*
X32477Y21553D02*
D03*
X27457Y20712D02*
D03*
X30121Y18400D02*
D03*
X30142Y17348D02*
D03*
X29642D02*
D03*
X34115Y23137D02*
D03*
X30642Y24714D02*
D03*
X30142Y23342D02*
D03*
X30642Y24218D02*
D03*
X30142Y24613D02*
D03*
X32505Y22530D02*
D03*
X28147Y23533D02*
D03*
X28662D02*
D03*
X27633D02*
D03*
X27407Y22530D02*
D03*
X25884Y22965D02*
D03*
X27436Y21553D02*
D03*
X32142Y17598D02*
D03*
X27642D02*
D03*
X50860Y9402D02*
D03*
X50735Y6715D02*
D03*
X40962Y4712D02*
D03*
X36556Y641D02*
D03*
X38362Y547D02*
D03*
X25511Y663D02*
D03*
X29036Y13480D02*
D03*
X31013Y1295D02*
D03*
X43562Y4712D02*
D03*
X46162Y5362D02*
D03*
X43562Y4062D02*
D03*
X45512Y5362D02*
D03*
X43562Y5362D02*
D03*
X50860Y22457D02*
D03*
X51958D02*
D03*
X53055D02*
D03*
X54153Y20992D02*
D03*
Y22457D02*
D03*
X21477Y3067D02*
D03*
X21523Y857D02*
D03*
X563Y3873D02*
D03*
Y4836D02*
D03*
X48053Y1017D02*
D03*
X48629Y503D02*
D03*
X25716Y1648D02*
D03*
Y3226D02*
D03*
X27905Y1163D02*
D03*
X28198Y1781D02*
D03*
X33622Y1163D02*
D03*
X33829Y1781D02*
D03*
X24636Y3412D02*
D03*
X40963Y2102D02*
D03*
X42262Y2762D02*
D03*
X45624Y2102D02*
D03*
X45085D02*
D03*
X46812Y1558D02*
D03*
X39012Y14462D02*
D03*
X38362D02*
D03*
X43744Y19126D02*
D03*
X40760Y17417D02*
D03*
X39960D02*
D03*
X39160D02*
D03*
X38360D02*
D03*
X37560D02*
D03*
X36760D02*
D03*
X41560Y23017D02*
D03*
X43810Y23017D02*
D03*
X45410D02*
D03*
X44610Y22217D02*
D03*
X45339Y19126D02*
D03*
X37560Y16617D02*
D03*
X41560D02*
D03*
X39960Y14905D02*
D03*
X39662Y14462D02*
D03*
X41612Y14905D02*
D03*
X41937Y14500D02*
D03*
X42912Y14462D02*
D03*
X47010Y18217D02*
D03*
X47810Y16617D02*
D03*
X47010D02*
D03*
X46210Y16617D02*
D03*
X48760Y18867D02*
D03*
X43160D02*
D03*
X40760D02*
D03*
X39960D02*
D03*
X39160D02*
D03*
X38360D02*
D03*
X37560D02*
D03*
X36760D02*
D03*
X31436Y7880D02*
D03*
X39012Y9262D02*
D03*
X36412Y4062D02*
D03*
Y5362D02*
D03*
Y6012D02*
D03*
Y6662D02*
D03*
X33036Y10280D02*
D03*
Y11880D02*
D03*
X28236Y5480D02*
D03*
X29036Y6280D02*
D03*
Y7080D02*
D03*
X28236D02*
D03*
Y7880D02*
D03*
X29036Y7880D02*
D03*
X29036Y10280D02*
D03*
Y11080D02*
D03*
Y11880D02*
D03*
X29036Y12680D02*
D03*
X33036D02*
D03*
X32236Y13480D02*
D03*
X36412Y9262D02*
D03*
X32236Y12680D02*
D03*
X39662Y9262D02*
D03*
X32236Y11880D02*
D03*
X39662Y7312D02*
D03*
X32236Y10280D02*
D03*
Y8680D02*
D03*
X33036Y7880D02*
D03*
X36412Y13162D02*
D03*
Y11862D02*
D03*
X37062Y12512D02*
D03*
X37712Y13162D02*
D03*
X36412Y11212D02*
D03*
Y10562D02*
D03*
X37062Y11862D02*
D03*
X38362Y13162D02*
D03*
X37712Y12512D02*
D03*
X36412Y7962D02*
D03*
X37062Y11212D02*
D03*
X39012Y13162D02*
D03*
X37712Y11862D02*
D03*
X37062Y10562D02*
D03*
Y7312D02*
D03*
Y9262D02*
D03*
Y7962D02*
D03*
X37712Y11212D02*
D03*
X39012Y12512D02*
D03*
X38362Y11862D02*
D03*
X37712Y10562D02*
D03*
Y7312D02*
D03*
X39662Y12512D02*
D03*
X38362Y11212D02*
D03*
X37712Y9262D02*
D03*
Y7962D02*
D03*
X39012Y11862D02*
D03*
X38362Y10562D02*
D03*
X39662Y11862D02*
D03*
X39012Y11212D02*
D03*
X38362Y7312D02*
D03*
Y9262D02*
D03*
X39662Y11212D02*
D03*
X39012Y9912D02*
D03*
Y7312D02*
D03*
Y7962D02*
D03*
X39662Y10562D02*
D03*
Y9912D02*
D03*
Y7962D02*
D03*
X37712Y2762D02*
D03*
X56183Y4378D02*
D03*
X56234Y3844D02*
D03*
X39485Y1638D02*
D03*
X51125Y978D02*
D03*
X50022Y2019D02*
D03*
X54761Y503D02*
D03*
X51871Y1544D02*
D03*
X50022Y519D02*
D03*
X52974Y503D02*
D03*
X47462Y4062D02*
D03*
X48112D02*
D03*
X47462Y4712D02*
D03*
X48112D02*
D03*
X47462Y5362D02*
D03*
X48112D02*
D03*
X47462Y6012D02*
D03*
X53033Y10272D02*
D03*
X48112Y6662D02*
D03*
Y6012D02*
D03*
X54009Y15102D02*
D03*
X45512Y12512D02*
D03*
X53476Y15102D02*
D03*
X53523Y15633D02*
D03*
X46162Y13162D02*
D03*
X53131Y15994D02*
D03*
X45512Y13162D02*
D03*
X53653Y17715D02*
D03*
X53119D02*
D03*
X44862Y14462D02*
D03*
X44212D02*
D03*
X51213Y13598D02*
D03*
X54000Y11213D02*
D03*
Y12995D02*
D03*
Y12395D02*
D03*
X52517Y10002D02*
D03*
Y9402D02*
D03*
X55541Y9702D02*
D03*
Y10302D02*
D03*
Y10902D02*
D03*
Y11502D02*
D03*
Y12102D02*
D03*
Y12702D02*
D03*
Y13302D02*
D03*
Y13902D02*
D03*
X48262Y12233D02*
D03*
X47455Y13812D02*
D03*
X31436Y8680D02*
D03*
X26636Y12680D02*
D03*
X29836Y11080D02*
D03*
X27436Y12680D02*
D03*
X30636Y13480D02*
D03*
X31436D02*
D03*
X27436Y11880D02*
D03*
X25036Y6280D02*
D03*
Y12680D02*
D03*
X25836Y11880D02*
D03*
X30636D02*
D03*
Y11080D02*
D03*
X31436D02*
D03*
X29836Y6280D02*
D03*
X28236Y4680D02*
D03*
X31436Y12680D02*
D03*
X25836Y13480D02*
D03*
Y10280D02*
D03*
X30636D02*
D03*
X29836Y11880D02*
D03*
Y12680D02*
D03*
X30636D02*
D03*
X25836Y5480D02*
D03*
X26636Y7080D02*
D03*
X31436Y11880D02*
D03*
Y5480D02*
D03*
X30636D02*
D03*
X26636Y11880D02*
D03*
X25036Y4680D02*
D03*
Y7880D02*
D03*
X29836Y8680D02*
D03*
X30636Y6280D02*
D03*
X32236Y4680D02*
D03*
X30636D02*
D03*
X24236Y10280D02*
D03*
X25836Y11080D02*
D03*
X27436Y6280D02*
D03*
X31436Y4680D02*
D03*
Y10280D02*
D03*
X29836D02*
D03*
X30636Y7880D02*
D03*
X26636D02*
D03*
X25836Y8680D02*
D03*
X25036D02*
D03*
X29836Y5480D02*
D03*
X25836Y7880D02*
D03*
Y4680D02*
D03*
X31436Y7080D02*
D03*
X25836Y6280D02*
D03*
X30636Y7080D02*
D03*
X31436Y6280D02*
D03*
X32236Y5480D02*
D03*
X29036Y8680D02*
D03*
X27457Y11049D02*
D03*
X49410Y17417D02*
D03*
X48610D02*
D03*
X47810D02*
D03*
X45410D02*
D03*
X49410Y22217D02*
D03*
Y23017D02*
D03*
X48610Y22217D02*
D03*
X47810Y22217D02*
D03*
Y23017D02*
D03*
X47010Y22217D02*
D03*
X45410Y22217D02*
D03*
X43810D02*
D03*
X42210Y22217D02*
D03*
X38210Y23017D02*
D03*
X39810D02*
D03*
X41410Y22217D02*
D03*
X40610D02*
D03*
X39810D02*
D03*
X39010D02*
D03*
X38210D02*
D03*
X37410D02*
D03*
X37085Y21212D02*
D03*
X38685D02*
D03*
X46685D02*
D03*
X40285D02*
D03*
X41885D02*
D03*
X43485D02*
D03*
X49085Y21212D02*
D03*
X47485D02*
D03*
X45885D02*
D03*
X42685D02*
D03*
X41085D02*
D03*
X39485D02*
D03*
X37885D02*
D03*
X37062Y14462D02*
D03*
X36412Y13812D02*
D03*
X37062Y2762D02*
D03*
X37712Y14462D02*
D03*
X37062Y13812D02*
D03*
Y3412D02*
D03*
X36412Y4712D02*
D03*
X38362Y2762D02*
D03*
X37712Y13812D02*
D03*
X37062Y4062D02*
D03*
X46812Y3412D02*
D03*
X37712D02*
D03*
X39012Y2762D02*
D03*
X37062Y4712D02*
D03*
X38362Y3412D02*
D03*
X46812Y4062D02*
D03*
X37712D02*
D03*
X44862Y2762D02*
D03*
X39662D02*
D03*
X39012Y13812D02*
D03*
X37062Y5362D02*
D03*
X39012Y3412D02*
D03*
X48112Y7312D02*
D03*
Y9262D02*
D03*
Y7962D02*
D03*
X37712Y4712D02*
D03*
X46162Y4062D02*
D03*
X38362D02*
D03*
X39662Y13812D02*
D03*
X37062Y6012D02*
D03*
X39662Y3412D02*
D03*
X47462Y6662D02*
D03*
X37062D02*
D03*
X46812Y5362D02*
D03*
X37712D02*
D03*
X39012Y4062D02*
D03*
X44212Y3412D02*
D03*
X40312D02*
D03*
X46162Y4712D02*
D03*
X40962Y13812D02*
D03*
X47462Y7312D02*
D03*
X43562Y3412D02*
D03*
X42912Y13812D02*
D03*
X41612D02*
D03*
X47462Y7962D02*
D03*
X46812Y11212D02*
D03*
Y6012D02*
D03*
X38362Y5362D02*
D03*
X45512Y4712D02*
D03*
X39012D02*
D03*
X37712Y6662D02*
D03*
X44212Y4062D02*
D03*
X43562Y13162D02*
D03*
X40962D02*
D03*
X46812Y7312D02*
D03*
X42912Y13162D02*
D03*
X41612D02*
D03*
X46812Y9262D02*
D03*
Y7962D02*
D03*
X38362Y6012D02*
D03*
X46162Y6012D02*
D03*
X44862Y4712D02*
D03*
X39662D02*
D03*
X39012Y5362D02*
D03*
X44212Y12512D02*
D03*
X40312D02*
D03*
X46162Y10562D02*
D03*
Y6662D02*
D03*
X38362D02*
D03*
X43562Y12512D02*
D03*
X40962D02*
D03*
X46162Y7312D02*
D03*
X45512Y6012D02*
D03*
X39012D02*
D03*
X39662Y5362D02*
D03*
X42912Y12512D02*
D03*
Y4712D02*
D03*
X45512Y6662D02*
D03*
X39012D02*
D03*
X40312Y5362D02*
D03*
X44862Y6012D02*
D03*
X39662D02*
D03*
X43562Y11862D02*
D03*
X42912D02*
D03*
X45512Y7962D02*
D03*
X42912Y5362D02*
D03*
X41612D02*
D03*
X40312Y11212D02*
D03*
X44862Y6662D02*
D03*
X39662D02*
D03*
X40312Y6012D02*
D03*
X40962Y11212D02*
D03*
X44862Y9912D02*
D03*
X40962Y6012D02*
D03*
X40312Y10562D02*
D03*
X42912Y11212D02*
D03*
X44862Y9262D02*
D03*
X44212Y6662D02*
D03*
X42912Y6012D02*
D03*
X41612D02*
D03*
X43562Y10562D02*
D03*
X44212Y9912D02*
D03*
X40312Y7312D02*
D03*
X40962Y6662D02*
D03*
X41612Y10562D02*
D03*
X40312Y9262D02*
D03*
X44212Y7962D02*
D03*
X42912Y6662D02*
D03*
X40962Y9912D02*
D03*
X43562Y7312D02*
D03*
X42912Y9912D02*
D03*
X43562Y9262D02*
D03*
X41612Y7312D02*
D03*
Y9262D02*
D03*
X42912Y7962D02*
D03*
M02*
