G04*
G04 #@! TF.GenerationSoftware,Altium Limited,Altium Designer,21.3.2 (30)*
G04*
G04 Layer_Physical_Order=10*
G04 Layer_Color=16737945*
%FSLAX43Y43*%
%MOMM*%
G71*
G04*
G04 #@! TF.SameCoordinates,AF92D2DE-8466-4D58-AFAE-29A769C4C8C3*
G04*
G04*
G04 #@! TF.FilePolarity,Positive*
G04*
G01*
G75*
%ADD16C,0.254*%
%ADD18C,0.127*%
%ADD97C,0.406*%
%ADD112C,0.091*%
%ADD115C,0.089*%
%ADD122C,1.016*%
%ADD125O,1.000X1.500*%
%ADD142C,0.091*%
G36*
X18509Y25223D02*
X18481Y25220D01*
X18432Y25213D01*
X18410Y25208D01*
X18390Y25203D01*
X18371Y25196D01*
X18354Y25188D01*
X18339Y25180D01*
X18326Y25170D01*
X18314Y25160D01*
X18247Y25218D01*
X18257Y25231D01*
X18267Y25244D01*
X18275Y25260D01*
X18282Y25276D01*
X18287Y25295D01*
X18291Y25315D01*
X18294Y25336D01*
X18295Y25359D01*
X18295Y25383D01*
X18293Y25409D01*
X18509Y25223D01*
D02*
G37*
G36*
X23179Y25328D02*
X23175Y25306D01*
X23172Y25285D01*
X23172Y25266D01*
X23174Y25247D01*
X23177Y25230D01*
X23183Y25214D01*
X23190Y25199D01*
X23200Y25185D01*
X23211Y25172D01*
X23129Y25128D01*
X23119Y25137D01*
X23107Y25146D01*
X23093Y25155D01*
X23076Y25164D01*
X23038Y25181D01*
X23015Y25190D01*
X22935Y25216D01*
X23185Y25351D01*
X23179Y25328D01*
D02*
G37*
G36*
X58260Y25765D02*
X58458Y25739D01*
X58643Y25663D01*
X58801Y25541D01*
X58923Y25383D01*
X58999Y25198D01*
X59025Y25000D01*
X59027D01*
Y22500D01*
X59025D01*
X58999Y22302D01*
X58923Y22117D01*
X58801Y21959D01*
X58643Y21837D01*
X58458Y21761D01*
X58264Y21735D01*
X58260Y21739D01*
Y21739D01*
X57939Y21697D01*
X57640Y21573D01*
X57384Y21376D01*
X57187Y21120D01*
X57063Y20821D01*
X57021Y20500D01*
X57027D01*
Y9788D01*
X56900Y9724D01*
X56830Y9754D01*
X56741D01*
X56671Y9829D01*
X56652Y9868D01*
X56672Y9916D01*
Y10038D01*
X56626Y10150D01*
X56540Y10236D01*
X56428Y10282D01*
X56307D01*
X56195Y10236D01*
X56109Y10150D01*
X56063Y10038D01*
Y9916D01*
X56109Y9804D01*
X56186Y9728D01*
X56185Y9676D01*
X56166Y9593D01*
X56073Y9555D01*
X55987Y9469D01*
X55941Y9357D01*
Y9236D01*
X55987Y9124D01*
X56073Y9038D01*
X56185Y8992D01*
X56306D01*
X56418Y9038D01*
X56504Y9124D01*
X56596Y9190D01*
X56650Y9168D01*
X56708Y9144D01*
X56830D01*
X56900Y9173D01*
X57027Y9110D01*
Y5500D01*
X57021D01*
X57063Y5179D01*
X57187Y4880D01*
X57384Y4624D01*
X57640Y4427D01*
X57939Y4303D01*
X58260Y4261D01*
Y4261D01*
X58264Y4265D01*
X58458Y4239D01*
X58643Y4163D01*
X58801Y4041D01*
X58923Y3883D01*
X58999Y3698D01*
X59025Y3500D01*
X59027D01*
Y1000D01*
X59025D01*
X58999Y802D01*
X58923Y617D01*
X58801Y459D01*
X58643Y337D01*
X58458Y261D01*
X58260Y235D01*
Y233D01*
X55101D01*
X55072Y267D01*
X55031Y360D01*
X55065Y442D01*
Y564D01*
X55019Y676D01*
X54933Y762D01*
X54876Y785D01*
X54838Y921D01*
X54839Y928D01*
X54870Y958D01*
X54916Y1070D01*
Y1191D01*
X54870Y1303D01*
X54784Y1389D01*
X54777Y1452D01*
X54780Y1528D01*
X54856Y1604D01*
X54903Y1716D01*
Y1837D01*
X54856Y1949D01*
X54891Y2094D01*
X54910Y2102D01*
X54996Y2188D01*
X55042Y2300D01*
Y2421D01*
X54996Y2533D01*
X54910Y2619D01*
X54798Y2665D01*
X54677D01*
X54565Y2619D01*
X54550Y2604D01*
X54535Y2599D01*
X54516Y2584D01*
X54482Y2559D01*
X54469Y2550D01*
X54456Y2544D01*
X54445Y2539D01*
X54438Y2536D01*
X51401D01*
X51289Y2490D01*
X50976Y2177D01*
X50327D01*
X50321Y2179D01*
X50312Y2184D01*
X50301Y2190D01*
X50290Y2198D01*
X50260Y2224D01*
X50244Y2240D01*
X50224Y2248D01*
X50194Y2277D01*
X50082Y2324D01*
X50041D01*
X50021Y2332D01*
X49997Y2332D01*
X49978Y2333D01*
X49960Y2335D01*
X49945Y2338D01*
X49933Y2341D01*
X49923Y2344D01*
X49918Y2346D01*
X49140Y3124D01*
X49028Y3171D01*
X48976D01*
X48909Y3143D01*
X47117D01*
X47081Y3201D01*
X47055Y3270D01*
X47091Y3357D01*
Y3468D01*
X47048Y3571D01*
X46970Y3649D01*
X46923Y3669D01*
Y3806D01*
X46970Y3826D01*
X47048Y3904D01*
X47068Y3951D01*
X47205D01*
X47225Y3904D01*
X47303Y3826D01*
X47406Y3783D01*
X47517D01*
X47620Y3826D01*
X47698Y3904D01*
X47718Y3951D01*
X47855D01*
X47875Y3904D01*
X47953Y3826D01*
X48056Y3783D01*
X48167D01*
X48270Y3826D01*
X48348Y3904D01*
X48391Y4007D01*
Y4118D01*
X48348Y4221D01*
X48270Y4299D01*
X48223Y4319D01*
Y4456D01*
X48270Y4476D01*
X48348Y4554D01*
X48391Y4657D01*
Y4768D01*
X48348Y4871D01*
X48270Y4949D01*
X48223Y4969D01*
Y5106D01*
X48270Y5126D01*
X48348Y5204D01*
X48391Y5307D01*
Y5418D01*
X48348Y5521D01*
X48270Y5599D01*
X48223Y5619D01*
Y5756D01*
X48270Y5776D01*
X48348Y5854D01*
X48391Y5957D01*
Y6068D01*
X48348Y6171D01*
X48270Y6249D01*
X48223Y6269D01*
Y6406D01*
X48270Y6426D01*
X48348Y6504D01*
X48391Y6607D01*
Y6718D01*
X48348Y6821D01*
X48270Y6899D01*
X48223Y6919D01*
Y7056D01*
X48270Y7076D01*
X48348Y7154D01*
X48391Y7257D01*
Y7368D01*
X48348Y7471D01*
X48270Y7549D01*
X48223Y7569D01*
Y7706D01*
X48270Y7726D01*
X48300Y7755D01*
X48314Y7761D01*
X48332Y7778D01*
X48348Y7792D01*
X48362Y7804D01*
X48363Y7804D01*
X49483D01*
X50097Y7190D01*
X50209Y7144D01*
X50576D01*
X50671Y7068D01*
X50671Y7068D01*
X50671D01*
X50674Y7020D01*
X50562Y6974D01*
X50477Y6888D01*
X50430Y6776D01*
Y6655D01*
X50477Y6543D01*
X50562Y6457D01*
X50674Y6410D01*
X50796D01*
X50908Y6457D01*
X50993Y6543D01*
X51040Y6655D01*
Y6776D01*
X50993Y6888D01*
X50908Y6974D01*
X50796Y7020D01*
X50799Y7068D01*
X50799D01*
X50799Y7068D01*
X50894Y7144D01*
X53574D01*
X55511Y5207D01*
Y4362D01*
X55557Y4250D01*
X55891Y3916D01*
X55895Y3908D01*
X55900Y3895D01*
X55905Y3883D01*
X55920Y3819D01*
X55925Y3794D01*
X55929Y3787D01*
Y3784D01*
X55975Y3672D01*
X56061Y3586D01*
X56173Y3540D01*
X56294D01*
X56406Y3586D01*
X56492Y3672D01*
X56539Y3784D01*
Y3905D01*
X56492Y4017D01*
X56462Y4047D01*
X56442Y4203D01*
X56449Y4223D01*
X56488Y4317D01*
Y4438D01*
X56441Y4550D01*
X56412Y4580D01*
X56404Y4600D01*
X56387Y4617D01*
X56374Y4632D01*
X56363Y4645D01*
X56355Y4657D01*
X56348Y4668D01*
X56343Y4677D01*
X56341Y4683D01*
Y5285D01*
X56295Y5397D01*
X53880Y7811D01*
X53769Y7857D01*
X50437D01*
X48920Y9374D01*
X48808Y9420D01*
X48742Y9393D01*
X48412D01*
X48410Y9394D01*
X48400Y9398D01*
X48389Y9403D01*
X48376Y9411D01*
X48363Y9420D01*
X48331Y9447D01*
X48314Y9464D01*
X48300Y9470D01*
X48270Y9499D01*
X48167Y9542D01*
X48056D01*
X47953Y9499D01*
X47875Y9421D01*
X47832Y9318D01*
Y9207D01*
X47875Y9104D01*
X47953Y9026D01*
X48056Y8983D01*
X48167D01*
X48270Y9026D01*
X48300Y9055D01*
X48314Y9061D01*
X48332Y9078D01*
X48348Y9092D01*
X48362Y9104D01*
X48376Y9114D01*
X48389Y9121D01*
X48400Y9127D01*
X48410Y9131D01*
X48412Y9132D01*
X48715D01*
X49618Y8229D01*
X49552Y8126D01*
X49547Y8120D01*
X48363D01*
X48331Y8147D01*
X48314Y8164D01*
X48300Y8170D01*
X48270Y8199D01*
X48167Y8242D01*
X48056D01*
X47953Y8199D01*
X47875Y8121D01*
X47855Y8074D01*
X47718D01*
X47698Y8121D01*
X47620Y8199D01*
X47517Y8242D01*
X47406D01*
X47303Y8199D01*
X47225Y8121D01*
X47205Y8074D01*
X47068D01*
X47048Y8121D01*
X46970Y8199D01*
X46867Y8242D01*
X46756D01*
X46704Y8220D01*
X46580Y8187D01*
X46062Y8705D01*
X45970Y8743D01*
X42774D01*
X42461Y9056D01*
Y9855D01*
X42423Y9947D01*
X42042Y10329D01*
X41967Y10359D01*
X41941Y10384D01*
X41886Y10494D01*
X41891Y10507D01*
Y10618D01*
X41848Y10721D01*
X41770Y10799D01*
X41667Y10842D01*
X41556D01*
X41453Y10799D01*
X41332Y10858D01*
Y11212D01*
X42081D01*
X42589Y11721D01*
X42675Y11704D01*
X42753Y11626D01*
X42800Y11606D01*
Y11469D01*
X42753Y11449D01*
X42675Y11371D01*
X42632Y11268D01*
Y11157D01*
X42675Y11054D01*
X42753Y10976D01*
X42856Y10933D01*
X42967D01*
X43070Y10976D01*
X43148Y11054D01*
X43191Y11157D01*
Y11268D01*
X43148Y11371D01*
X43070Y11449D01*
X43023Y11469D01*
Y11606D01*
X43070Y11626D01*
X43148Y11704D01*
X43168Y11751D01*
X43305D01*
X43325Y11704D01*
X43403Y11626D01*
X43506Y11583D01*
X43617D01*
X43720Y11626D01*
X43798Y11704D01*
X43841Y11807D01*
Y11918D01*
X43798Y12021D01*
X43720Y12099D01*
X43673Y12119D01*
Y12256D01*
X43720Y12276D01*
X43775Y12331D01*
X43998D01*
X44053Y12276D01*
X44156Y12233D01*
X44267D01*
X44370Y12276D01*
X44448Y12354D01*
X46003Y10799D01*
X45925Y10721D01*
X45882Y10618D01*
Y10507D01*
X45925Y10404D01*
X46003Y10326D01*
X46106Y10283D01*
X46217D01*
X46320Y10326D01*
X46398Y10404D01*
X46729Y10073D01*
X49449D01*
X50521Y9002D01*
X52812D01*
X54677Y10866D01*
Y19140D01*
X53532Y20284D01*
X52438D01*
X52413Y20322D01*
Y20443D01*
X52366Y20555D01*
X52281Y20641D01*
X52169Y20687D01*
X52047D01*
X51935Y20641D01*
X51849Y20555D01*
X51803Y20443D01*
Y20322D01*
X51778Y20284D01*
X51251D01*
X51226Y20322D01*
Y20443D01*
X51179Y20555D01*
X51094Y20641D01*
X50982Y20687D01*
X50860D01*
X50748Y20641D01*
X50663Y20555D01*
X50616Y20443D01*
Y20322D01*
X50591Y20284D01*
X49390D01*
Y20396D01*
X49343Y20508D01*
X49257Y20594D01*
X49145Y20641D01*
X49024D01*
X48912Y20594D01*
X48826Y20508D01*
X48797Y20438D01*
X48683Y20400D01*
X48655Y20401D01*
X47790Y21267D01*
Y21273D01*
X47743Y21385D01*
X47657Y21471D01*
X47545Y21517D01*
X47539D01*
X47219Y21837D01*
X47189Y21936D01*
X47188Y21964D01*
X47268Y22045D01*
X47315Y22157D01*
Y22278D01*
X47268Y22390D01*
X47182Y22476D01*
X47070Y22522D01*
X46949D01*
X46837Y22476D01*
X46751Y22390D01*
X46705Y22278D01*
Y22157D01*
X46751Y22045D01*
X46832Y21964D01*
X46830Y21937D01*
X46799Y21837D01*
X45621D01*
X45589Y21937D01*
X45588Y21964D01*
X45668Y22045D01*
X45715Y22157D01*
Y22278D01*
X45668Y22390D01*
X45582Y22476D01*
X45470Y22522D01*
X45349D01*
X45237Y22476D01*
X45151Y22390D01*
X45105Y22278D01*
Y22157D01*
X45151Y22045D01*
X45232Y21964D01*
X45230Y21937D01*
X45199Y21837D01*
X44821D01*
X44789Y21937D01*
X44788Y21964D01*
X44868Y22045D01*
X44915Y22157D01*
Y22278D01*
X44868Y22390D01*
X44782Y22476D01*
X44670Y22522D01*
X44549D01*
X44437Y22476D01*
X44351Y22390D01*
X44305Y22278D01*
Y22157D01*
X44351Y22045D01*
X44432Y21964D01*
X44430Y21937D01*
X44399Y21837D01*
X44021D01*
X43989Y21937D01*
X43988Y21964D01*
X44068Y22045D01*
X44115Y22157D01*
Y22278D01*
X44068Y22390D01*
X43982Y22476D01*
X43870Y22522D01*
X43749D01*
X43637Y22476D01*
X43551Y22390D01*
X43505Y22278D01*
Y22157D01*
X43551Y22045D01*
X43632Y21964D01*
X43630Y21937D01*
X43599Y21837D01*
X42421D01*
X42389Y21937D01*
X42388Y21964D01*
X42468Y22045D01*
X42515Y22157D01*
Y22278D01*
X42468Y22390D01*
X42382Y22476D01*
X42270Y22522D01*
X42149D01*
X42037Y22476D01*
X41951Y22390D01*
X41905Y22278D01*
Y22157D01*
X41951Y22045D01*
X42032Y21964D01*
X42030Y21937D01*
X41999Y21837D01*
X41621D01*
X41589Y21937D01*
X41588Y21964D01*
X41668Y22045D01*
X41715Y22157D01*
Y22278D01*
X41668Y22390D01*
X41582Y22476D01*
X41470Y22522D01*
X41349D01*
X41237Y22476D01*
X41151Y22390D01*
X41105Y22278D01*
Y22157D01*
X41151Y22045D01*
X41232Y21964D01*
X41230Y21937D01*
X41199Y21837D01*
X40821D01*
X40789Y21937D01*
X40788Y21964D01*
X40868Y22045D01*
X40915Y22157D01*
Y22278D01*
X40868Y22390D01*
X40782Y22476D01*
X40670Y22522D01*
X40549D01*
X40437Y22476D01*
X40351Y22390D01*
X40305Y22278D01*
Y22157D01*
X40351Y22045D01*
X40432Y21964D01*
X40430Y21937D01*
X40399Y21837D01*
X40190Y21837D01*
X40183Y21844D01*
X40185Y21837D01*
X39738Y21390D01*
X39657Y21471D01*
X39545Y21517D01*
X39424D01*
X39312Y21471D01*
X39226Y21385D01*
X39180Y21273D01*
Y21152D01*
X39226Y21040D01*
X39307Y20959D01*
X38989Y20641D01*
X38987Y20641D01*
X38901Y20555D01*
X38901Y20553D01*
X37568Y19220D01*
X37426Y19362D01*
X37103D01*
X37077Y19489D01*
X37100Y19498D01*
X37186Y19584D01*
X37232Y19696D01*
Y19817D01*
X37186Y19929D01*
X37120Y19995D01*
X37109Y20069D01*
X37120Y20144D01*
X37186Y20210D01*
X37232Y20322D01*
Y20443D01*
X37186Y20555D01*
X37100Y20641D01*
X36988Y20687D01*
X36867D01*
X36755Y20641D01*
X36669Y20555D01*
X36623Y20443D01*
Y20322D01*
X36669Y20210D01*
X36735Y20144D01*
X36746Y20069D01*
X36735Y19995D01*
X36669Y19929D01*
X36623Y19817D01*
Y19696D01*
X36669Y19584D01*
X36755Y19498D01*
X36778Y19489D01*
X36752Y19362D01*
X34914D01*
X32122Y16569D01*
X30749Y17942D01*
X30637Y17988D01*
X30255D01*
X30229Y18115D01*
X30293Y18142D01*
X30379Y18227D01*
X30426Y18339D01*
Y18461D01*
X30379Y18573D01*
X30293Y18658D01*
X30181Y18705D01*
X30060D01*
X29948Y18658D01*
X29862Y18573D01*
X29833Y18501D01*
X29722Y18463D01*
X29690Y18463D01*
X28301Y19852D01*
Y20681D01*
X28255Y20792D01*
X27808Y21240D01*
X27755Y21261D01*
X27703Y21365D01*
X27706Y21409D01*
X27741Y21493D01*
Y21614D01*
X27695Y21726D01*
X27609Y21812D01*
X27497Y21858D01*
X27376D01*
X27264Y21812D01*
X27178Y21726D01*
X27131Y21614D01*
Y21592D01*
X27004Y21539D01*
X25998Y22545D01*
X26028Y22695D01*
X26057Y22707D01*
X26142Y22793D01*
X26189Y22905D01*
Y23026D01*
X26142Y23138D01*
X26057Y23224D01*
X25945Y23270D01*
X25823D01*
X25711Y23224D01*
X25626Y23138D01*
X25614Y23109D01*
X25464Y23079D01*
X24339Y24204D01*
Y24435D01*
X24293Y24547D01*
X23912Y24928D01*
X23800Y24974D01*
X23569D01*
X23283Y25260D01*
X23283Y25263D01*
X23282Y25270D01*
X23282Y25278D01*
X23283Y25289D01*
X23286Y25303D01*
X23291Y25322D01*
X23290Y25335D01*
X23296Y25350D01*
Y25472D01*
X23250Y25584D01*
X23193Y25640D01*
X23235Y25767D01*
X23685D01*
X23696Y25748D01*
X23724Y25640D01*
X23661Y25577D01*
X23615Y25465D01*
Y25344D01*
X23661Y25232D01*
X23747Y25146D01*
X23859Y25100D01*
X23980D01*
X24092Y25146D01*
X24178Y25232D01*
X24224Y25344D01*
Y25465D01*
X24178Y25577D01*
X24115Y25640D01*
X24143Y25748D01*
X24154Y25767D01*
X26090D01*
X26155Y25640D01*
X26127Y25573D01*
Y25452D01*
X26174Y25340D01*
X26260Y25254D01*
X26372Y25207D01*
X26493D01*
X26605Y25254D01*
X26691Y25340D01*
X26737Y25452D01*
Y25573D01*
X26709Y25640D01*
X26774Y25767D01*
X27394D01*
X27446Y25640D01*
X27437Y25631D01*
X27391Y25519D01*
Y25398D01*
X27437Y25286D01*
X27523Y25200D01*
X27635Y25154D01*
X27756D01*
X27868Y25200D01*
X27930Y25262D01*
X28047Y25259D01*
X28077Y25251D01*
X28155Y25173D01*
X28267Y25127D01*
X28388D01*
X28500Y25173D01*
X28562Y25235D01*
X28679Y25232D01*
X28709Y25224D01*
X28786Y25146D01*
X28898Y25100D01*
X29020D01*
X29132Y25146D01*
X29217Y25232D01*
X29264Y25344D01*
Y25465D01*
X29217Y25577D01*
X29155Y25640D01*
X29182Y25748D01*
X29194Y25767D01*
X31071D01*
X31123Y25640D01*
X31114Y25631D01*
X31068Y25519D01*
Y25398D01*
X31114Y25286D01*
X31200Y25200D01*
X31312Y25154D01*
X31433D01*
X31545Y25200D01*
X31607Y25262D01*
X31724Y25259D01*
X31754Y25251D01*
X31832Y25173D01*
X31944Y25127D01*
X32065D01*
X32177Y25173D01*
X32239Y25235D01*
X32356Y25232D01*
X32386Y25224D01*
X32464Y25146D01*
X32576Y25100D01*
X32697D01*
X32809Y25146D01*
X32895Y25232D01*
X32941Y25344D01*
Y25465D01*
X32895Y25577D01*
X32832Y25640D01*
X32860Y25748D01*
X32871Y25767D01*
X33422D01*
X33433Y25748D01*
X33461Y25640D01*
X33398Y25577D01*
X33352Y25465D01*
Y25344D01*
X33398Y25232D01*
X33484Y25146D01*
X33596Y25100D01*
X33717D01*
X33829Y25146D01*
X33915Y25232D01*
X33961Y25344D01*
Y25465D01*
X33915Y25577D01*
X33852Y25640D01*
X33880Y25748D01*
X33891Y25767D01*
X36491D01*
X36543Y25640D01*
X36501Y25598D01*
X36455Y25486D01*
Y25365D01*
X36501Y25253D01*
X36587Y25167D01*
X36699Y25121D01*
X36820D01*
X36932Y25167D01*
X37018Y25253D01*
X37065Y25365D01*
Y25486D01*
X37018Y25598D01*
X36976Y25640D01*
X37029Y25767D01*
X58260D01*
Y25765D01*
D02*
G37*
G36*
X12773Y25261D02*
X12742Y25224D01*
X12729Y25206D01*
X12718Y25189D01*
X12709Y25171D01*
X12702Y25154D01*
X12698Y25138D01*
X12695Y25121D01*
X12694Y25105D01*
X12605D01*
X12604Y25121D01*
X12601Y25138D01*
X12596Y25154D01*
X12589Y25171D01*
X12580Y25189D01*
X12570Y25206D01*
X12557Y25224D01*
X12542Y25243D01*
X12526Y25261D01*
X12507Y25280D01*
X12791D01*
X12773Y25261D01*
D02*
G37*
G36*
X22789Y25640D02*
X22733Y25584D01*
X22686Y25472D01*
Y25350D01*
X22733Y25238D01*
X22819Y25153D01*
X22884Y25125D01*
X22901Y25111D01*
X22978Y25086D01*
X22995Y25080D01*
X23027Y25065D01*
X23036Y25060D01*
X23392Y24704D01*
X23484Y24666D01*
X23490Y24622D01*
X23488Y24564D01*
X23484Y24539D01*
X23388Y24499D01*
X23302Y24414D01*
X23256Y24302D01*
Y24180D01*
X23302Y24068D01*
X23314Y24057D01*
X23377Y23969D01*
X23314Y23891D01*
X23298Y23875D01*
X23251Y23763D01*
Y23642D01*
X23298Y23530D01*
X23384Y23444D01*
X23496Y23397D01*
X23617D01*
X23729Y23444D01*
X23815Y23530D01*
X23861Y23642D01*
Y23763D01*
X23815Y23875D01*
X23803Y23886D01*
X23740Y23974D01*
X23803Y24052D01*
X23819Y24068D01*
X23866Y24180D01*
Y24302D01*
X23851Y24336D01*
X23956Y24415D01*
X24023Y24361D01*
Y24139D01*
X24069Y24027D01*
X27080Y21016D01*
X27130Y20995D01*
X27187Y20904D01*
X27183Y20846D01*
X27152Y20773D01*
Y20652D01*
X27199Y20540D01*
X27285Y20454D01*
X27397Y20408D01*
X27518D01*
X27630Y20454D01*
X27716Y20540D01*
X27762Y20652D01*
Y20659D01*
X27889Y20711D01*
X27985Y20615D01*
Y19787D01*
X28031Y19675D01*
X28987Y18720D01*
X28970Y18652D01*
X28940Y18587D01*
X28843Y18546D01*
X28757Y18461D01*
X28711Y18349D01*
Y18227D01*
X28757Y18115D01*
X28843Y18030D01*
X28955Y17983D01*
X29076D01*
X29188Y18030D01*
X29274Y18115D01*
X29314Y18212D01*
X29379Y18242D01*
X29448Y18259D01*
X29955Y17751D01*
X29943Y17624D01*
X29840Y17581D01*
X29815Y17607D01*
X29703Y17653D01*
X29581D01*
X29469Y17607D01*
X29384Y17521D01*
X29337Y17409D01*
Y17288D01*
X29384Y17176D01*
X29469Y17090D01*
X29581Y17043D01*
X29703D01*
X29815Y17090D01*
X29892Y17167D01*
X29969Y17090D01*
X30081Y17043D01*
X30203D01*
X30315Y17090D01*
X30400Y17176D01*
X30447Y17288D01*
Y17409D01*
X30400Y17521D01*
X30376Y17545D01*
X30429Y17672D01*
X30571D01*
X31898Y16345D01*
X31743Y16190D01*
X31593Y16220D01*
X31580Y16251D01*
X31494Y16337D01*
X31382Y16383D01*
X31261D01*
X31149Y16337D01*
X31087Y16275D01*
X30970Y16277D01*
X30940Y16286D01*
X30863Y16364D01*
X30751Y16410D01*
X30629D01*
X30517Y16364D01*
X30432Y16278D01*
X30385Y16166D01*
Y16044D01*
X30432Y15932D01*
X30494Y15871D01*
X30491Y15754D01*
X30482Y15724D01*
X30405Y15646D01*
X30358Y15534D01*
Y15413D01*
X30405Y15301D01*
X30490Y15215D01*
X30560Y15186D01*
X30600Y15062D01*
X30521Y14968D01*
X28608D01*
X28540Y15053D01*
X28590Y15169D01*
X28628D01*
X28740Y15215D01*
X28802Y15277D01*
X28919Y15274D01*
X28949Y15266D01*
X29027Y15188D01*
X29139Y15142D01*
X29260D01*
X29372Y15188D01*
X29458Y15274D01*
X29504Y15386D01*
Y15507D01*
X29458Y15619D01*
X29396Y15681D01*
X29399Y15798D01*
X29407Y15828D01*
X29485Y15906D01*
X29531Y16018D01*
Y16139D01*
X29485Y16251D01*
X29399Y16337D01*
X29287Y16383D01*
X29166D01*
X29054Y16337D01*
X28992Y16275D01*
X28875Y16277D01*
X28845Y16286D01*
X28767Y16364D01*
X28655Y16410D01*
X28534D01*
X28422Y16364D01*
X28336Y16278D01*
X28290Y16166D01*
Y16044D01*
X28336Y15932D01*
X28398Y15871D01*
X28396Y15754D01*
X28387Y15724D01*
X28309Y15646D01*
X28263Y15534D01*
Y15474D01*
X28136Y15421D01*
X27471Y16086D01*
X27359Y16132D01*
X22928D01*
X22882Y16259D01*
X22935Y16312D01*
X22981Y16424D01*
Y16545D01*
X22935Y16657D01*
X22849Y16743D01*
X22737Y16789D01*
X22616D01*
X22504Y16743D01*
X22418Y16657D01*
X22372Y16545D01*
Y16424D01*
X22418Y16312D01*
X22471Y16259D01*
X22425Y16132D01*
X22037D01*
X21984Y16259D01*
X22023Y16298D01*
X22070Y16410D01*
Y16531D01*
X22023Y16643D01*
X21937Y16729D01*
X21825Y16775D01*
X21704D01*
X21592Y16729D01*
X21506Y16643D01*
X21460Y16531D01*
Y16410D01*
X21506Y16298D01*
X21545Y16259D01*
X21493Y16132D01*
X18319D01*
X16730Y17721D01*
X16618Y17767D01*
X11771D01*
X8487Y21051D01*
X8486Y21053D01*
X8485Y21060D01*
X8483Y21069D01*
X8483Y21080D01*
X8483Y21094D01*
X8484Y21110D01*
X8488Y21131D01*
X8484Y21147D01*
Y21244D01*
X8437Y21356D01*
X8351Y21442D01*
X8239Y21488D01*
X8118D01*
X8006Y21442D01*
X7920Y21356D01*
X7874Y21244D01*
Y21123D01*
X7920Y21011D01*
X8006Y20925D01*
X8118Y20879D01*
X8121D01*
X8128Y20875D01*
X8154Y20870D01*
X8176Y20866D01*
X8215Y20855D01*
X8229Y20850D01*
X8242Y20845D01*
X8250Y20841D01*
X11594Y17497D01*
X11705Y17451D01*
X16552D01*
X18141Y15862D01*
X18253Y15816D01*
X27294D01*
X28301Y14809D01*
X28285Y14794D01*
X28239Y14682D01*
Y14245D01*
X28237Y14240D01*
X28232Y14231D01*
X28226Y14220D01*
X28218Y14209D01*
X28192Y14178D01*
X28176Y14162D01*
X28168Y14142D01*
X28139Y14113D01*
X28092Y14001D01*
Y13880D01*
X28139Y13768D01*
X28225Y13682D01*
X28337Y13635D01*
X28458D01*
X28570Y13682D01*
X28656Y13768D01*
X28702Y13880D01*
Y14001D01*
X28656Y14113D01*
X28626Y14142D01*
X28618Y14162D01*
X28601Y14179D01*
X28588Y14194D01*
X28577Y14207D01*
X28569Y14220D01*
X28562Y14231D01*
X28558Y14240D01*
X28555Y14245D01*
Y14617D01*
X28591Y14652D01*
X29370D01*
X29423Y14525D01*
X29384Y14486D01*
X29337Y14374D01*
Y14252D01*
X29384Y14140D01*
X29448Y14075D01*
X29488Y13935D01*
X29250Y13697D01*
X29209Y13739D01*
X29097Y13785D01*
X28976D01*
X28864Y13739D01*
X28778Y13653D01*
X28731Y13541D01*
Y13420D01*
X28778Y13308D01*
X28819Y13266D01*
X28270Y12717D01*
Y12229D01*
X28153Y12181D01*
X27891Y12443D01*
X27779Y12489D01*
X27739Y12616D01*
X27741Y12620D01*
Y12741D01*
X27695Y12853D01*
X27609Y12939D01*
X27497Y12985D01*
X27376D01*
X27264Y12939D01*
X27178Y12853D01*
X27176Y12849D01*
X27163Y12837D01*
X27014Y12791D01*
X26973Y12808D01*
X26948D01*
X26945Y12809D01*
X26939Y12813D01*
X26931Y12818D01*
X26922Y12826D01*
X26912Y12836D01*
X26902Y12849D01*
X26888Y12866D01*
X26872Y12875D01*
X26809Y12939D01*
X26697Y12985D01*
X26576D01*
X26463Y12939D01*
X26378Y12853D01*
X26331Y12741D01*
Y12620D01*
X26378Y12508D01*
X26463Y12422D01*
X26576Y12375D01*
X26697D01*
X26809Y12422D01*
X26814Y12427D01*
X26823Y12429D01*
X26844Y12444D01*
X26862Y12456D01*
X26897Y12477D01*
X26910Y12484D01*
X26914Y12485D01*
X27172Y12227D01*
X27180Y12214D01*
X27199Y12074D01*
X27178Y12053D01*
X27131Y11941D01*
Y11820D01*
X27154Y11766D01*
X27051Y11697D01*
X26962Y11780D01*
X26961Y11782D01*
X26958Y11792D01*
X26955Y11804D01*
X26953Y11817D01*
X26950Y11857D01*
X26949Y11879D01*
X26941Y11899D01*
Y11941D01*
X26895Y12053D01*
X26809Y12139D01*
X26697Y12185D01*
X26576D01*
X26463Y12139D01*
X26378Y12053D01*
X26331Y11941D01*
Y11820D01*
X26378Y11708D01*
X26463Y11622D01*
X26576Y11575D01*
X26617D01*
X26637Y11567D01*
X26661Y11567D01*
X26680Y11566D01*
X26698Y11564D01*
X26712Y11561D01*
X26725Y11558D01*
X26735Y11555D01*
X26740Y11553D01*
X26930Y11363D01*
X27041Y11317D01*
X27114D01*
X27142Y11285D01*
X27186Y11190D01*
X27152Y11110D01*
Y10988D01*
X27199Y10876D01*
X27285Y10791D01*
X27397Y10744D01*
X27518D01*
X27585Y10772D01*
X27712Y10706D01*
Y6615D01*
X27670Y6584D01*
X27585Y6549D01*
X27497Y6585D01*
X27376D01*
X27264Y6539D01*
X27178Y6453D01*
X27131Y6341D01*
Y6220D01*
X27178Y6108D01*
X27264Y6022D01*
X27376Y5975D01*
X27497D01*
X27585Y6012D01*
X27670Y5976D01*
X27712Y5945D01*
Y4553D01*
X27758Y4441D01*
X28040Y4159D01*
Y2086D01*
X28038Y2080D01*
X28033Y2071D01*
X28027Y2060D01*
X28019Y2049D01*
X27993Y2019D01*
X27977Y2003D01*
X27970Y1983D01*
X27940Y1953D01*
X27893Y1841D01*
Y1720D01*
X27940Y1608D01*
X27953Y1595D01*
X27901Y1468D01*
X27845D01*
X27733Y1421D01*
X27647Y1336D01*
X27601Y1224D01*
Y1102D01*
X27647Y990D01*
X27690Y948D01*
X27637Y821D01*
X25816D01*
X25811Y823D01*
X25802Y828D01*
X25791Y834D01*
X25780Y842D01*
X25749Y868D01*
X25733Y883D01*
X25713Y891D01*
X25684Y921D01*
X25572Y967D01*
X25451D01*
X25339Y921D01*
X25253Y835D01*
X25206Y723D01*
Y602D01*
X25253Y490D01*
X25339Y404D01*
X25451Y358D01*
X25445Y233D01*
X0D01*
Y235D01*
X-198Y261D01*
X-383Y337D01*
X-541Y459D01*
X-663Y617D01*
X-739Y802D01*
X-765Y1000D01*
X-767D01*
Y8148D01*
X-711Y8183D01*
X-640Y8201D01*
X-537Y8122D01*
X-520Y8086D01*
X-511Y7969D01*
X-527Y7953D01*
X-573Y7841D01*
Y7720D01*
X-527Y7608D01*
X-441Y7522D01*
X-329Y7476D01*
X-208D01*
X-96Y7522D01*
X-10Y7608D01*
X36Y7720D01*
Y7841D01*
X14Y7896D01*
X74Y8002D01*
X201Y8000D01*
Y7910D01*
X248Y7798D01*
X316Y7729D01*
X248Y7661D01*
X201Y7549D01*
Y7428D01*
X248Y7316D01*
X334Y7230D01*
X446Y7183D01*
X567D01*
X679Y7230D01*
X765Y7316D01*
X811Y7428D01*
Y7549D01*
X765Y7661D01*
X696Y7729D01*
X765Y7798D01*
X811Y7910D01*
Y8000D01*
X938Y8002D01*
X999Y7896D01*
X976Y7841D01*
Y7720D01*
X1023Y7608D01*
X1108Y7522D01*
X1220Y7476D01*
X1342D01*
X1454Y7522D01*
X1539Y7608D01*
X1586Y7720D01*
Y7841D01*
X1539Y7953D01*
X1524Y7969D01*
X1533Y8086D01*
X1550Y8122D01*
X1671Y8215D01*
X1775Y8351D01*
X1841Y8510D01*
X1863Y8680D01*
X1841Y8850D01*
X1775Y9009D01*
X1671Y9145D01*
X1576Y9217D01*
X1539Y9360D01*
X1586Y9472D01*
Y9594D01*
X1539Y9706D01*
X1454Y9791D01*
X1342Y9838D01*
X1220D01*
X1108Y9791D01*
X1023Y9706D01*
X976Y9594D01*
Y9513D01*
X892Y9417D01*
X873Y9404D01*
X801Y9426D01*
X765Y9515D01*
X696Y9584D01*
X765Y9652D01*
X811Y9764D01*
Y9886D01*
X765Y9998D01*
X679Y10083D01*
X567Y10130D01*
X446D01*
X334Y10083D01*
X248Y9998D01*
X201Y9886D01*
Y9764D01*
X248Y9652D01*
X316Y9584D01*
X248Y9515D01*
X211Y9426D01*
X139Y9404D01*
X121Y9417D01*
X36Y9513D01*
Y9594D01*
X-10Y9706D01*
X-96Y9791D01*
X-208Y9838D01*
X-329D01*
X-441Y9791D01*
X-527Y9706D01*
X-573Y9594D01*
Y9472D01*
X-527Y9360D01*
X-564Y9217D01*
X-640Y9159D01*
X-711Y9177D01*
X-767Y9212D01*
Y16788D01*
X-711Y16823D01*
X-640Y16841D01*
X-522Y16751D01*
X-513Y16747D01*
X-490Y16600D01*
X-527Y16564D01*
X-573Y16452D01*
Y16330D01*
X-527Y16218D01*
X-441Y16132D01*
X-329Y16086D01*
X-208D01*
X-96Y16132D01*
X-10Y16218D01*
X36Y16330D01*
Y16452D01*
X1Y16536D01*
X41Y16626D01*
X68Y16660D01*
X191Y16657D01*
X201Y16642D01*
Y16521D01*
X248Y16409D01*
X316Y16340D01*
X248Y16271D01*
X201Y16159D01*
Y16038D01*
X248Y15926D01*
X334Y15840D01*
X446Y15794D01*
X567D01*
X679Y15840D01*
X765Y15926D01*
X811Y16038D01*
Y16159D01*
X765Y16271D01*
X696Y16340D01*
X765Y16409D01*
X811Y16521D01*
Y16642D01*
X821Y16657D01*
X944Y16660D01*
X972Y16626D01*
X1011Y16536D01*
X976Y16452D01*
Y16330D01*
X1023Y16218D01*
X1108Y16132D01*
X1220Y16086D01*
X1342D01*
X1454Y16132D01*
X1539Y16218D01*
X1586Y16330D01*
Y16452D01*
X1539Y16564D01*
X1503Y16600D01*
X1525Y16747D01*
X1535Y16751D01*
X1671Y16855D01*
X1775Y16991D01*
X1841Y17150D01*
X1863Y17320D01*
X1841Y17490D01*
X1775Y17649D01*
X1671Y17785D01*
X1535Y17889D01*
X1528Y17892D01*
X1503Y18040D01*
X1536Y18072D01*
X1582Y18184D01*
Y18306D01*
X1536Y18418D01*
X1450Y18503D01*
X1338Y18550D01*
X1217D01*
X1105Y18503D01*
X1019Y18418D01*
X973Y18306D01*
Y18184D01*
X1006Y18104D01*
X963Y18009D01*
X938Y17981D01*
X813Y17985D01*
X808Y17994D01*
Y18115D01*
X761Y18227D01*
X693Y18296D01*
X761Y18365D01*
X808Y18477D01*
Y18598D01*
X761Y18710D01*
X676Y18796D01*
X564Y18842D01*
X442D01*
X330Y18796D01*
X245Y18710D01*
X198Y18598D01*
Y18477D01*
X245Y18365D01*
X313Y18296D01*
X245Y18227D01*
X198Y18115D01*
Y17994D01*
X192Y17985D01*
X68Y17981D01*
X43Y18009D01*
X-0Y18104D01*
X33Y18184D01*
Y18306D01*
X-13Y18418D01*
X-99Y18503D01*
X-211Y18550D01*
X-332D01*
X-444Y18503D01*
X-530Y18418D01*
X-577Y18306D01*
Y18184D01*
X-530Y18072D01*
X-496Y18038D01*
X-519Y17891D01*
X-522Y17889D01*
X-640Y17799D01*
X-711Y17817D01*
X-767Y17852D01*
Y25000D01*
X-765D01*
X-739Y25198D01*
X-663Y25383D01*
X-541Y25541D01*
X-383Y25663D01*
X-198Y25739D01*
X0Y25765D01*
Y25767D01*
X12380D01*
X12433Y25640D01*
X12391Y25598D01*
X12344Y25486D01*
Y25365D01*
X12391Y25253D01*
X12420Y25223D01*
X12428Y25203D01*
X12445Y25186D01*
X12458Y25172D01*
X12469Y25158D01*
X12478Y25146D01*
X12484Y25135D01*
X12489Y25126D01*
X12491Y25120D01*
Y24398D01*
X11785Y23691D01*
X7776D01*
X7696Y23781D01*
X7720Y23906D01*
X7907Y24030D01*
X8030Y24215D01*
X8098Y24223D01*
X8166Y24215D01*
X8289Y24030D01*
X8488Y23898D01*
X8723Y23851D01*
X8958Y23898D01*
X9157Y24030D01*
X9290Y24229D01*
X9336Y24464D01*
Y24964D01*
X9290Y25199D01*
X9157Y25398D01*
X8958Y25531D01*
X8723Y25578D01*
X8488Y25531D01*
X8289Y25398D01*
X8166Y25214D01*
X8098Y25206D01*
X8030Y25214D01*
X7907Y25398D01*
X7708Y25531D01*
X7473Y25578D01*
X7238Y25531D01*
X7039Y25398D01*
X6916Y25214D01*
X6848Y25206D01*
X6780Y25214D01*
X6657Y25398D01*
X6458Y25531D01*
X6223Y25578D01*
X5988Y25531D01*
X5789Y25398D01*
X5656Y25199D01*
X5610Y24964D01*
Y24464D01*
X5656Y24229D01*
X5789Y24030D01*
X5988Y23898D01*
X6223Y23851D01*
X6458Y23898D01*
X6657Y24030D01*
X6780Y24215D01*
X6848Y24223D01*
X6916Y24215D01*
X7039Y24030D01*
X7238Y23898D01*
X7315Y23882D01*
Y23749D01*
X7361Y23637D01*
X7577Y23421D01*
X7689Y23375D01*
X11850D01*
X11962Y23421D01*
X12761Y24221D01*
X12807Y24332D01*
Y25120D01*
X12810Y25126D01*
X12814Y25135D01*
X12821Y25146D01*
X12829Y25157D01*
X12854Y25187D01*
X12870Y25203D01*
X12878Y25223D01*
X12908Y25253D01*
X12954Y25365D01*
Y25486D01*
X12908Y25598D01*
X12866Y25640D01*
X12918Y25767D01*
X18227D01*
X18279Y25640D01*
X18238Y25598D01*
X18191Y25486D01*
Y25424D01*
X18184Y25402D01*
X18185Y25380D01*
X18185Y25361D01*
X18184Y25346D01*
X18183Y25332D01*
X18180Y25321D01*
X18178Y25313D01*
X18176Y25309D01*
X17915Y25047D01*
X17869Y24936D01*
Y24329D01*
X17742Y24244D01*
X17713Y24256D01*
X17591D01*
X17479Y24209D01*
X17468Y24198D01*
X17380Y24134D01*
X17302Y24198D01*
X17286Y24214D01*
X17174Y24260D01*
X17053D01*
X16941Y24214D01*
X16855Y24128D01*
X16809Y24016D01*
Y23895D01*
X16855Y23783D01*
X16941Y23697D01*
X17053Y23651D01*
X17174D01*
X17286Y23697D01*
X17297Y23708D01*
X17385Y23772D01*
X17463Y23708D01*
X17479Y23693D01*
X17591Y23646D01*
X17713D01*
X17739Y23657D01*
X17866Y23572D01*
Y23164D01*
X17175Y22473D01*
X17141Y22459D01*
X15708Y21026D01*
X14758D01*
X14752Y21028D01*
X14743Y21033D01*
X14732Y21039D01*
X14721Y21047D01*
X14691Y21073D01*
X14675Y21089D01*
X14655Y21097D01*
X14625Y21126D01*
X14513Y21173D01*
X14392D01*
X14280Y21126D01*
X14194Y21040D01*
X14148Y20928D01*
Y20807D01*
X14194Y20695D01*
X14280Y20609D01*
X14392Y20563D01*
X14513D01*
X14625Y20609D01*
X14655Y20639D01*
X14675Y20647D01*
X14692Y20664D01*
X14706Y20677D01*
X14720Y20687D01*
X14732Y20696D01*
X14743Y20703D01*
X14752Y20707D01*
X14758Y20710D01*
X15773D01*
X15885Y20756D01*
X17350Y22221D01*
X17384Y22235D01*
X17644Y22495D01*
X17752Y22423D01*
X17745Y22407D01*
Y22286D01*
X17792Y22174D01*
X17878Y22088D01*
X17990Y22042D01*
X18111D01*
X18223Y22088D01*
X18309Y22174D01*
X18355Y22286D01*
Y22407D01*
X18309Y22519D01*
X18223Y22605D01*
X18111Y22652D01*
X17990D01*
X17974Y22645D01*
X17902Y22753D01*
X18136Y22987D01*
X18182Y23099D01*
Y23789D01*
X18185Y23796D01*
Y24870D01*
X18406Y25091D01*
X18412Y25094D01*
X18423Y25098D01*
X18437Y25102D01*
X18452Y25105D01*
X18494Y25111D01*
X18517Y25113D01*
X18532Y25121D01*
X18557D01*
X18669Y25167D01*
X18754Y25253D01*
X18801Y25365D01*
Y25486D01*
X18754Y25598D01*
X18713Y25640D01*
X18765Y25767D01*
X22747D01*
X22789Y25640D01*
D02*
G37*
G36*
X7553Y23977D02*
X7546Y23974D01*
X7539Y23969D01*
X7533Y23962D01*
X7528Y23953D01*
X7524Y23942D01*
X7521Y23930D01*
X7519Y23915D01*
X7518Y23898D01*
X7517Y23880D01*
X7429D01*
X7428Y23898D01*
X7427Y23915D01*
X7425Y23930D01*
X7422Y23942D01*
X7418Y23953D01*
X7413Y23962D01*
X7407Y23969D01*
X7400Y23974D01*
X7393Y23977D01*
X7385Y23978D01*
X7562D01*
X7553Y23977D01*
D02*
G37*
G36*
X44926Y21085D02*
X44923Y21088D01*
X44920Y21090D01*
X44917Y21091D01*
X44914Y21091D01*
X44910Y21091D01*
X44906Y21089D01*
X44902Y21087D01*
X44897Y21084D01*
X44892Y21080D01*
X44887Y21075D01*
X44823Y21140D01*
X44882Y21195D01*
X44926Y21085D01*
D02*
G37*
G36*
X44543Y21144D02*
X44478Y21080D01*
X44474Y21084D01*
X44466Y21090D01*
X44463Y21092D01*
X44459Y21094D01*
X44457Y21095D01*
X44454Y21095D01*
X44452Y21094D01*
X44450Y21093D01*
X44448Y21092D01*
X44487Y21189D01*
X44543Y21144D01*
D02*
G37*
G36*
X41157Y21021D02*
X41151Y21017D01*
X41146Y21011D01*
X41142Y21005D01*
X41138Y20997D01*
X41135Y20988D01*
X41132Y20978D01*
X41131Y20967D01*
X41130Y20955D01*
X41129Y20942D01*
X41040D01*
X41040Y20955D01*
X41039Y20967D01*
X41037Y20978D01*
X41035Y20988D01*
X41032Y20997D01*
X41028Y21005D01*
X41024Y21011D01*
X41018Y21017D01*
X41013Y21021D01*
X41006Y21025D01*
X41164D01*
X41157Y21021D01*
D02*
G37*
G36*
X41916Y21011D02*
X41888Y21007D01*
X41815Y20989D01*
X41795Y20982D01*
X41776Y20974D01*
X41759Y20966D01*
X41745Y20957D01*
X41732Y20948D01*
X41721Y20938D01*
X41647Y20991D01*
X41658Y21003D01*
X41668Y21017D01*
X41676Y21032D01*
X41682Y21049D01*
X41686Y21067D01*
X41689Y21086D01*
X41691Y21107D01*
X41690Y21129D01*
X41688Y21152D01*
X41685Y21177D01*
X41916Y21011D01*
D02*
G37*
G36*
X8375Y21123D02*
X8373Y21100D01*
X8373Y21078D01*
X8374Y21057D01*
X8377Y21038D01*
X8381Y21020D01*
X8387Y21003D01*
X8395Y20988D01*
X8405Y20974D01*
X8416Y20961D01*
X8342Y20909D01*
X8331Y20919D01*
X8318Y20929D01*
X8303Y20937D01*
X8287Y20945D01*
X8268Y20953D01*
X8248Y20960D01*
X8201Y20973D01*
X8175Y20978D01*
X8147Y20983D01*
X8379Y21148D01*
X8375Y21123D01*
D02*
G37*
G36*
X14617Y20991D02*
X14654Y20960D01*
X14672Y20947D01*
X14689Y20937D01*
X14707Y20928D01*
X14724Y20921D01*
X14740Y20916D01*
X14757Y20913D01*
X14773Y20912D01*
Y20823D01*
X14757Y20822D01*
X14740Y20819D01*
X14724Y20815D01*
X14707Y20808D01*
X14689Y20799D01*
X14672Y20788D01*
X14654Y20775D01*
X14635Y20761D01*
X14617Y20744D01*
X14598Y20726D01*
Y21010D01*
X14617Y20991D01*
D02*
G37*
G36*
X47409Y19052D02*
X47397Y19039D01*
X47387Y19026D01*
X47379Y19012D01*
X47372Y18998D01*
X47366Y18982D01*
X47362Y18967D01*
X47359Y18950D01*
X47358Y18933D01*
X47359Y18915D01*
X47361Y18897D01*
X47190Y19068D01*
X47208Y19066D01*
X47225Y19066D01*
X47243Y19067D01*
X47259Y19070D01*
X47275Y19074D01*
X47290Y19079D01*
X47304Y19086D01*
X47318Y19095D01*
X47332Y19105D01*
X47345Y19117D01*
X47409Y19052D01*
D02*
G37*
G36*
X53108Y19093D02*
X53114Y19086D01*
X53122Y19079D01*
X53144Y19060D01*
X53189Y19024D01*
X53229Y18996D01*
X52953Y18958D01*
X52968Y18976D01*
X52990Y19009D01*
X52997Y19023D01*
X53003Y19036D01*
X53006Y19048D01*
X53008Y19059D01*
X53007Y19068D01*
X53004Y19076D01*
X52999Y19083D01*
X53103Y19099D01*
X53108Y19093D01*
D02*
G37*
G36*
X53621Y19131D02*
X53631Y19117D01*
X53642Y19102D01*
X53654Y19088D01*
X53684Y19058D01*
X53701Y19043D01*
X53762Y18996D01*
X53481Y18950D01*
X53496Y18971D01*
X53508Y18992D01*
X53517Y19011D01*
X53525Y19030D01*
X53530Y19048D01*
X53532Y19066D01*
X53532Y19083D01*
X53530Y19099D01*
X53525Y19114D01*
X53518Y19129D01*
X53613Y19145D01*
X53621Y19131D01*
D02*
G37*
G36*
X47788Y19105D02*
X47801Y19095D01*
X47815Y19086D01*
X47830Y19079D01*
X47845Y19074D01*
X47861Y19070D01*
X47877Y19067D01*
X47894Y19066D01*
X47912Y19066D01*
X47930Y19068D01*
X47759Y18897D01*
X47761Y18916D01*
X47761Y18933D01*
X47760Y18950D01*
X47758Y18967D01*
X47754Y18982D01*
X47748Y18998D01*
X47741Y19012D01*
X47732Y19026D01*
X47722Y19039D01*
X47710Y19052D01*
X47775Y19117D01*
X47788Y19105D01*
D02*
G37*
G36*
X36643Y18701D02*
X36620Y18717D01*
X36555Y18755D01*
X36535Y18764D01*
X36516Y18772D01*
X36499Y18778D01*
X36482Y18782D01*
X36466Y18785D01*
X36452Y18786D01*
X36435Y18874D01*
X36452Y18876D01*
X36468Y18879D01*
X36485Y18884D01*
X36501Y18891D01*
X36516Y18901D01*
X36532Y18913D01*
X36547Y18926D01*
X36562Y18942D01*
X36577Y18960D01*
X36591Y18981D01*
X36643Y18701D01*
D02*
G37*
G36*
X41762Y18898D02*
X41776Y18852D01*
X41781Y18838D01*
X41792Y18813D01*
X41798Y18801D01*
X41811Y18781D01*
X41759Y18684D01*
X41754Y18694D01*
X41749Y18701D01*
X41742Y18707D01*
X41734Y18711D01*
X41725Y18712D01*
X41715Y18712D01*
X41703Y18710D01*
X41691Y18706D01*
X41677Y18700D01*
X41662Y18692D01*
X41757Y18915D01*
X41762Y18898D01*
D02*
G37*
G36*
X42278Y18681D02*
X42258Y18690D01*
X42222Y18701D01*
X42207Y18705D01*
X42193Y18706D01*
X42181Y18706D01*
X42172Y18703D01*
X42163Y18699D01*
X42157Y18694D01*
X42153Y18686D01*
X42106Y18786D01*
X42111Y18793D01*
X42116Y18802D01*
X42127Y18825D01*
X42139Y18854D01*
X42167Y18931D01*
X42278Y18681D01*
D02*
G37*
G36*
X37558Y18664D02*
X37531Y18664D01*
X37483Y18660D01*
X37461Y18656D01*
X37441Y18651D01*
X37423Y18645D01*
X37406Y18638D01*
X37390Y18630D01*
X37377Y18620D01*
X37365Y18610D01*
X37302Y18672D01*
X37313Y18684D01*
X37322Y18698D01*
X37330Y18713D01*
X37338Y18730D01*
X37344Y18749D01*
X37348Y18769D01*
X37352Y18791D01*
X37355Y18814D01*
X37356Y18839D01*
X37357Y18865D01*
X37558Y18664D01*
D02*
G37*
G36*
X39257Y18689D02*
X39246Y18682D01*
X39237Y18675D01*
X39229Y18667D01*
X39222Y18657D01*
X39216Y18647D01*
X39211Y18635D01*
X39207Y18623D01*
X39204Y18610D01*
X39203Y18595D01*
X39202Y18580D01*
X39113D01*
X39113Y18595D01*
X39111Y18610D01*
X39109Y18623D01*
X39105Y18636D01*
X39100Y18648D01*
X39094Y18658D01*
X39087Y18668D01*
X39079Y18676D01*
X39070Y18684D01*
X39059Y18691D01*
X39257Y18689D01*
D02*
G37*
G36*
X53243Y18021D02*
X53250Y18009D01*
X53240Y18005D01*
X53243Y17991D01*
X53275Y17888D01*
X53311Y17781D01*
X53102Y17918D01*
X53119Y17920D01*
X53134Y17922D01*
X53146Y17926D01*
X53156Y17930D01*
X53164Y17936D01*
X53169Y17941D01*
X53172Y17948D01*
X53172Y17956D01*
X53170Y17964D01*
X53165Y17973D01*
X53240Y18005D01*
X53239Y18010D01*
X53237Y18021D01*
X53238Y18025D01*
X53243Y18021D01*
D02*
G37*
G36*
X53545Y17999D02*
X53552Y17983D01*
X53561Y17969D01*
X53572Y17956D01*
X53584Y17946D01*
X53597Y17937D01*
X53612Y17929D01*
X53628Y17924D01*
X53646Y17920D01*
X53665Y17918D01*
X53451Y17742D01*
X53455Y17775D01*
X53463Y17906D01*
X53462Y17927D01*
X53458Y17962D01*
X53455Y17976D01*
X53538Y18017D01*
X53545Y17999D01*
D02*
G37*
G36*
X53098Y16841D02*
X53108Y16838D01*
X53121Y16833D01*
X53158Y16818D01*
X53208Y16794D01*
X52938Y16704D01*
X52948Y16724D01*
X52994Y16802D01*
X52996Y16803D01*
X53089Y16834D01*
X53086Y16839D01*
X53087Y16842D01*
X53091Y16843D01*
X53098Y16841D01*
D02*
G37*
G36*
X53471Y16859D02*
X53484Y16850D01*
X53500Y16841D01*
X53517Y16834D01*
X53535Y16828D01*
X53555Y16823D01*
X53576Y16819D01*
X53600Y16817D01*
X53624Y16815D01*
X53650Y16815D01*
X53449Y16614D01*
X53449Y16640D01*
X53445Y16688D01*
X53441Y16709D01*
X53436Y16729D01*
X53430Y16748D01*
X53423Y16764D01*
X53414Y16780D01*
X53405Y16793D01*
X53394Y16805D01*
X53459Y16870D01*
X53471Y16859D01*
D02*
G37*
G36*
X53368Y15502D02*
X53364Y15505D01*
X53360Y15508D01*
X53355Y15509D01*
X53350Y15510D01*
X53343Y15511D01*
X53336Y15510D01*
X53328Y15509D01*
X53319Y15507D01*
X53298Y15502D01*
X53271Y15589D01*
X53281Y15592D01*
X53303Y15601D01*
X53309Y15604D01*
X53313Y15606D01*
X53317Y15609D01*
X53319Y15611D01*
X53320Y15613D01*
X53321Y15615D01*
X53368Y15502D01*
D02*
G37*
G36*
X38810Y14438D02*
X38784Y14588D01*
X38867Y14653D01*
X38868Y14650D01*
X38871Y14648D01*
X38876Y14647D01*
X38883Y14646D01*
X38891Y14647D01*
X38902Y14648D01*
X38930Y14652D01*
X38965Y14660D01*
X38810Y14438D01*
D02*
G37*
G36*
X44409Y14641D02*
X44407Y14636D01*
X44406Y14629D01*
X44406Y14619D01*
X44405Y14607D01*
X44407Y14556D01*
X44414Y14483D01*
X44195Y14665D01*
X44220Y14667D01*
X44296Y14679D01*
X44309Y14683D01*
X44319Y14687D01*
X44327Y14691D01*
X44333Y14696D01*
X44336Y14701D01*
X44409Y14641D01*
D02*
G37*
G36*
X38427Y14656D02*
X38482Y14647D01*
X38491Y14646D01*
X38497Y14647D01*
X38502Y14648D01*
X38505Y14650D01*
X38506Y14653D01*
X38589Y14588D01*
X38586Y14579D01*
X38576Y14529D01*
X38566Y14459D01*
X38563Y14438D01*
X38408Y14660D01*
X38427Y14656D01*
D02*
G37*
G36*
X28443Y14244D02*
X28446Y14228D01*
X28450Y14211D01*
X28457Y14194D01*
X28466Y14177D01*
X28477Y14159D01*
X28490Y14141D01*
X28504Y14123D01*
X28521Y14104D01*
X28539Y14085D01*
X28255D01*
X28274Y14104D01*
X28305Y14141D01*
X28318Y14159D01*
X28328Y14177D01*
X28337Y14194D01*
X28344Y14211D01*
X28349Y14228D01*
X28352Y14244D01*
X28353Y14260D01*
X28442D01*
X28443Y14244D01*
D02*
G37*
G36*
X43532Y14118D02*
X43535Y14101D01*
X43540Y14085D01*
X43548Y14070D01*
X43557Y14056D01*
X43569Y14043D01*
X43583Y14031D01*
X43600Y14020D01*
X43618Y14010D01*
X43638Y14001D01*
X43375Y13893D01*
X43387Y13922D01*
X43423Y14024D01*
X43429Y14047D01*
X43437Y14087D01*
X43438Y14106D01*
X43439Y14122D01*
X43531Y14135D01*
X43532Y14118D01*
D02*
G37*
G36*
X44030Y14060D02*
X44044Y14051D01*
X44059Y14042D01*
X44076Y14035D01*
X44094Y14029D01*
X44114Y14024D01*
X44136Y14020D01*
X44159Y14017D01*
X44183Y14016D01*
X44210Y14016D01*
X44008Y13814D01*
X44008Y13841D01*
X44004Y13888D01*
X44000Y13910D01*
X43995Y13930D01*
X43989Y13948D01*
X43982Y13965D01*
X43973Y13980D01*
X43964Y13994D01*
X43953Y14006D01*
X44018Y14071D01*
X44030Y14060D01*
D02*
G37*
G36*
X36229Y14060D02*
X36242Y14050D01*
X36257Y14042D01*
X36274Y14035D01*
X36293Y14029D01*
X36313Y14024D01*
X36335Y14020D01*
X36358Y14017D01*
X36383Y14016D01*
X36410Y14016D01*
X36208Y13814D01*
X36208Y13841D01*
X36204Y13889D01*
X36200Y13911D01*
X36195Y13931D01*
X36189Y13950D01*
X36182Y13967D01*
X36174Y13982D01*
X36164Y13995D01*
X36154Y14007D01*
X36217Y14070D01*
X36229Y14060D01*
D02*
G37*
G36*
X44472Y13354D02*
X44461Y13342D01*
X44452Y13328D01*
X44443Y13313D01*
X44436Y13296D01*
X44429Y13277D01*
X44424Y13257D01*
X44420Y13236D01*
X44417Y13213D01*
X44416Y13188D01*
X44415Y13161D01*
X44217Y13366D01*
X44243Y13365D01*
X44290Y13369D01*
X44312Y13373D01*
X44332Y13377D01*
X44350Y13383D01*
X44367Y13390D01*
X44382Y13399D01*
X44396Y13408D01*
X44408Y13419D01*
X44472Y13354D01*
D02*
G37*
G36*
X40358Y13416D02*
X40360Y13394D01*
X40362Y13385D01*
X40364Y13376D01*
X40367Y13369D01*
X40371Y13363D01*
X40375Y13358D01*
X40380Y13355D01*
X40385Y13352D01*
X40238D01*
X40243Y13355D01*
X40248Y13358D01*
X40252Y13363D01*
X40256Y13369D01*
X40259Y13376D01*
X40261Y13385D01*
X40263Y13394D01*
X40265Y13405D01*
X40266Y13416D01*
X40266Y13429D01*
X40357D01*
X40358Y13416D01*
D02*
G37*
G36*
X46333Y13396D02*
X46324Y13386D01*
X46317Y13375D01*
X46312Y13364D01*
X46308Y13353D01*
X46307Y13341D01*
X46307Y13329D01*
X46310Y13317D01*
X46315Y13304D01*
X46321Y13291D01*
X46329Y13277D01*
X46098Y13356D01*
X46117Y13362D01*
X46154Y13378D01*
X46172Y13388D01*
X46206Y13409D01*
X46222Y13420D01*
X46254Y13447D01*
X46269Y13461D01*
X46333Y13396D01*
D02*
G37*
G36*
X45076Y13406D02*
X45065Y13393D01*
X45055Y13379D01*
X45048Y13364D01*
X45042Y13348D01*
X45039Y13331D01*
X45038Y13313D01*
X45038Y13294D01*
X45041Y13274D01*
X45046Y13253D01*
X45053Y13231D01*
X44797Y13355D01*
X44826Y13365D01*
X44919Y13403D01*
X44937Y13412D01*
X44967Y13430D01*
X44979Y13439D01*
X44989Y13448D01*
X45076Y13406D01*
D02*
G37*
G36*
X32234Y13277D02*
X32208Y13277D01*
X32159Y13273D01*
X32138Y13269D01*
X32117Y13264D01*
X32099Y13258D01*
X32082Y13251D01*
X32067Y13243D01*
X32053Y13233D01*
X32041Y13222D01*
X31978Y13285D01*
X31989Y13297D01*
X31998Y13311D01*
X32007Y13326D01*
X32014Y13343D01*
X32020Y13362D01*
X32025Y13382D01*
X32029Y13403D01*
X32031Y13427D01*
X32033Y13452D01*
X32033Y13478D01*
X32234Y13277D01*
D02*
G37*
G36*
X45770Y13356D02*
X45759Y13344D01*
X45750Y13330D01*
X45741Y13315D01*
X45734Y13298D01*
X45728Y13280D01*
X45723Y13260D01*
X45719Y13238D01*
X45717Y13215D01*
X45715Y13191D01*
X45715Y13164D01*
X45514Y13366D01*
X45540Y13366D01*
X45588Y13370D01*
X45609Y13374D01*
X45629Y13379D01*
X45648Y13385D01*
X45664Y13392D01*
X45680Y13401D01*
X45693Y13410D01*
X45706Y13421D01*
X45770Y13356D01*
D02*
G37*
G36*
X39784Y13327D02*
X39821Y13310D01*
X39838Y13305D01*
X39853Y13301D01*
X39866Y13300D01*
X39878Y13300D01*
X39889Y13303D01*
X39898Y13308D01*
X39906Y13314D01*
X39936Y13217D01*
X39931Y13212D01*
X39925Y13204D01*
X39918Y13195D01*
X39900Y13169D01*
X39854Y13090D01*
X39839Y13064D01*
X39763Y13338D01*
X39784Y13327D01*
D02*
G37*
G36*
X26816Y12779D02*
X26832Y12761D01*
X26847Y12746D01*
X26863Y12732D01*
X26879Y12720D01*
X26895Y12711D01*
X26911Y12704D01*
X26927Y12698D01*
X26944Y12695D01*
X26961Y12694D01*
X26947Y12605D01*
X26932Y12604D01*
X26916Y12602D01*
X26900Y12597D01*
X26882Y12591D01*
X26864Y12583D01*
X26844Y12574D01*
X26803Y12549D01*
X26781Y12534D01*
X26758Y12518D01*
X26801Y12799D01*
X26816Y12779D01*
D02*
G37*
G36*
X37319Y12707D02*
X37309Y12695D01*
X37299Y12682D01*
X37291Y12667D01*
X37284Y12650D01*
X37278Y12631D01*
X37273Y12611D01*
X37269Y12589D01*
X37267Y12566D01*
X37265Y12541D01*
X37265Y12514D01*
X37064Y12716D01*
X37090Y12716D01*
X37138Y12720D01*
X37160Y12724D01*
X37180Y12729D01*
X37199Y12735D01*
X37216Y12742D01*
X37231Y12750D01*
X37245Y12760D01*
X37257Y12770D01*
X37319Y12707D01*
D02*
G37*
G36*
X33241Y12699D02*
X33264Y12625D01*
X33272Y12605D01*
X33289Y12570D01*
X33298Y12555D01*
X33307Y12543D01*
X33316Y12533D01*
X33269Y12454D01*
X33256Y12465D01*
X33242Y12474D01*
X33227Y12482D01*
X33211Y12488D01*
X33193Y12492D01*
X33174Y12494D01*
X33154Y12494D01*
X33133Y12492D01*
X33111Y12489D01*
X33087Y12484D01*
X33234Y12727D01*
X33241Y12699D01*
D02*
G37*
G36*
X32440Y12652D02*
X32444Y12603D01*
X32447Y12582D01*
X32452Y12562D01*
X32458Y12543D01*
X32466Y12526D01*
X32474Y12511D01*
X32483Y12497D01*
X32494Y12485D01*
X32431Y12422D01*
X32419Y12433D01*
X32405Y12443D01*
X32390Y12451D01*
X32373Y12458D01*
X32355Y12464D01*
X32335Y12469D01*
X32313Y12473D01*
X32290Y12475D01*
X32265Y12477D01*
X32238Y12477D01*
X32439Y12678D01*
X32440Y12652D01*
D02*
G37*
G36*
X46326Y12636D02*
X46362Y12605D01*
X46380Y12593D01*
X46398Y12582D01*
X46415Y12574D01*
X46432Y12567D01*
X46449Y12562D01*
X46465Y12559D01*
X46482Y12558D01*
Y12467D01*
X46465Y12466D01*
X46449Y12463D01*
X46432Y12458D01*
X46415Y12451D01*
X46398Y12443D01*
X46380Y12432D01*
X46362Y12419D01*
X46344Y12405D01*
X46326Y12389D01*
X46307Y12370D01*
Y12655D01*
X46326Y12636D01*
D02*
G37*
G36*
X45715Y12484D02*
X45719Y12436D01*
X45723Y12415D01*
X45728Y12395D01*
X45734Y12376D01*
X45741Y12360D01*
X45750Y12344D01*
X45759Y12331D01*
X45770Y12319D01*
X45706Y12254D01*
X45693Y12265D01*
X45680Y12274D01*
X45664Y12283D01*
X45648Y12290D01*
X45629Y12296D01*
X45609Y12301D01*
X45588Y12305D01*
X45565Y12307D01*
X45540Y12309D01*
X45514Y12309D01*
X45715Y12510D01*
X45715Y12484D01*
D02*
G37*
G36*
X41209Y12045D02*
X41198Y12033D01*
X41188Y12020D01*
X41179Y12006D01*
X41172Y11992D01*
X41167Y11977D01*
X41163Y11962D01*
X41160Y11946D01*
X41159Y11930D01*
X41160Y11913D01*
X41162Y11896D01*
X40995Y12063D01*
X41012Y12061D01*
X41029Y12060D01*
X41045Y12061D01*
X41061Y12063D01*
X41076Y12067D01*
X41091Y12073D01*
X41105Y12080D01*
X41119Y12088D01*
X41132Y12098D01*
X41145Y12110D01*
X41209Y12045D01*
D02*
G37*
G36*
X41760Y12004D02*
X41780Y11991D01*
X41799Y11980D01*
X41818Y11971D01*
X41837Y11964D01*
X41854Y11960D01*
X41871Y11958D01*
X41888Y11958D01*
X41904Y11961D01*
X41920Y11965D01*
X41931Y11872D01*
X41916Y11866D01*
X41900Y11858D01*
X41885Y11849D01*
X41869Y11837D01*
X41854Y11825D01*
X41838Y11811D01*
X41805Y11777D01*
X41788Y11758D01*
X41772Y11737D01*
X41740Y12020D01*
X41760Y12004D01*
D02*
G37*
G36*
X31640Y11852D02*
X31644Y11803D01*
X31647Y11782D01*
X31652Y11762D01*
X31658Y11743D01*
X31666Y11726D01*
X31674Y11711D01*
X31683Y11697D01*
X31694Y11685D01*
X31631Y11622D01*
X31619Y11633D01*
X31605Y11643D01*
X31590Y11651D01*
X31573Y11658D01*
X31555Y11664D01*
X31535Y11669D01*
X31513Y11673D01*
X31490Y11675D01*
X31465Y11677D01*
X31438Y11677D01*
X31639Y11878D01*
X31640Y11852D01*
D02*
G37*
G36*
X26840D02*
X26844Y11803D01*
X26847Y11782D01*
X26852Y11762D01*
X26858Y11743D01*
X26866Y11726D01*
X26874Y11711D01*
X26883Y11697D01*
X26894Y11685D01*
X26831Y11622D01*
X26819Y11633D01*
X26805Y11643D01*
X26790Y11651D01*
X26773Y11658D01*
X26755Y11664D01*
X26735Y11669D01*
X26713Y11673D01*
X26690Y11675D01*
X26665Y11677D01*
X26638Y11677D01*
X26839Y11878D01*
X26840Y11852D01*
D02*
G37*
G36*
X37319Y11407D02*
X37309Y11395D01*
X37299Y11382D01*
X37291Y11367D01*
X37284Y11350D01*
X37278Y11331D01*
X37273Y11311D01*
X37269Y11289D01*
X37267Y11266D01*
X37265Y11241D01*
X37265Y11214D01*
X37064Y11416D01*
X37090Y11416D01*
X37138Y11420D01*
X37160Y11424D01*
X37180Y11429D01*
X37199Y11435D01*
X37216Y11442D01*
X37231Y11450D01*
X37245Y11460D01*
X37257Y11470D01*
X37319Y11407D01*
D02*
G37*
G36*
X36229Y11460D02*
X36242Y11450D01*
X36257Y11442D01*
X36274Y11435D01*
X36293Y11429D01*
X36313Y11424D01*
X36335Y11420D01*
X36358Y11417D01*
X36383Y11416D01*
X36410Y11416D01*
X36208Y11214D01*
X36208Y11241D01*
X36204Y11289D01*
X36200Y11311D01*
X36195Y11331D01*
X36189Y11350D01*
X36182Y11367D01*
X36174Y11382D01*
X36164Y11395D01*
X36154Y11407D01*
X36217Y11470D01*
X36229Y11460D01*
D02*
G37*
G36*
X31640Y11052D02*
X31644Y11003D01*
X31647Y10982D01*
X31652Y10962D01*
X31658Y10943D01*
X31666Y10926D01*
X31674Y10911D01*
X31683Y10897D01*
X31694Y10885D01*
X31631Y10822D01*
X31619Y10833D01*
X31605Y10843D01*
X31590Y10851D01*
X31573Y10858D01*
X31555Y10864D01*
X31535Y10869D01*
X31513Y10873D01*
X31490Y10875D01*
X31465Y10877D01*
X31438Y10877D01*
X31639Y11078D01*
X31640Y11052D01*
D02*
G37*
G36*
X30040D02*
X30044Y11003D01*
X30047Y10982D01*
X30052Y10962D01*
X30058Y10943D01*
X30066Y10926D01*
X30074Y10911D01*
X30083Y10897D01*
X30094Y10885D01*
X30031Y10822D01*
X30019Y10833D01*
X30005Y10843D01*
X29990Y10851D01*
X29973Y10858D01*
X29955Y10864D01*
X29935Y10869D01*
X29913Y10873D01*
X29890Y10875D01*
X29865Y10877D01*
X29838Y10877D01*
X30039Y11078D01*
X30040Y11052D01*
D02*
G37*
G36*
X37046Y10806D02*
X37046Y10798D01*
X37048Y10790D01*
X37049Y10784D01*
X37051Y10778D01*
X37054Y10774D01*
X37057Y10770D01*
X37061Y10768D01*
X37065Y10766D01*
X37070Y10765D01*
X36939Y10724D01*
X36942Y10728D01*
X36945Y10732D01*
X36948Y10738D01*
X36950Y10745D01*
X36952Y10754D01*
X36954Y10763D01*
X36956Y10787D01*
X36956Y10815D01*
X37045D01*
X37046Y10806D01*
D02*
G37*
G36*
X29240Y10252D02*
X29244Y10203D01*
X29247Y10182D01*
X29252Y10162D01*
X29258Y10143D01*
X29266Y10126D01*
X29274Y10111D01*
X29283Y10097D01*
X29294Y10085D01*
X29231Y10022D01*
X29219Y10033D01*
X29205Y10043D01*
X29190Y10051D01*
X29173Y10058D01*
X29155Y10064D01*
X29135Y10069D01*
X29113Y10073D01*
X29090Y10075D01*
X29065Y10077D01*
X29038Y10077D01*
X29239Y10278D01*
X29240Y10252D01*
D02*
G37*
G36*
X36879Y9510D02*
X36892Y9500D01*
X36908Y9492D01*
X36924Y9485D01*
X36943Y9479D01*
X36963Y9474D01*
X36985Y9470D01*
X37008Y9467D01*
X37033Y9466D01*
X37060Y9466D01*
X36858Y9264D01*
X36858Y9291D01*
X36854Y9339D01*
X36850Y9361D01*
X36845Y9381D01*
X36839Y9400D01*
X36832Y9417D01*
X36824Y9432D01*
X36814Y9445D01*
X36804Y9457D01*
X36867Y9520D01*
X36879Y9510D01*
D02*
G37*
G36*
X48276Y9386D02*
X48313Y9355D01*
X48331Y9342D01*
X48348Y9331D01*
X48366Y9323D01*
X48383Y9316D01*
X48399Y9311D01*
X48416Y9308D01*
X48432Y9307D01*
Y9218D01*
X48416Y9217D01*
X48399Y9214D01*
X48383Y9209D01*
X48366Y9202D01*
X48348Y9194D01*
X48331Y9183D01*
X48313Y9170D01*
X48294Y9155D01*
X48276Y9139D01*
X48257Y9120D01*
Y9405D01*
X48276Y9386D01*
D02*
G37*
G36*
X36266Y9120D02*
X36247Y9139D01*
X36210Y9170D01*
X36192Y9183D01*
X36175Y9194D01*
X36157Y9202D01*
X36140Y9209D01*
X36124Y9214D01*
X36107Y9217D01*
X36091Y9218D01*
Y9307D01*
X36107Y9308D01*
X36124Y9311D01*
X36140Y9316D01*
X36157Y9323D01*
X36175Y9331D01*
X36192Y9342D01*
X36210Y9355D01*
X36229Y9369D01*
X36247Y9386D01*
X36266Y9405D01*
Y9120D01*
D02*
G37*
G36*
X39010Y9059D02*
X38983Y9059D01*
X38935Y9055D01*
X38913Y9051D01*
X38893Y9046D01*
X38874Y9040D01*
X38857Y9033D01*
X38842Y9025D01*
X38829Y9015D01*
X38817Y9005D01*
X38754Y9067D01*
X38764Y9079D01*
X38774Y9093D01*
X38782Y9108D01*
X38789Y9125D01*
X38795Y9144D01*
X38800Y9164D01*
X38804Y9186D01*
X38807Y9209D01*
X38808Y9234D01*
X38808Y9260D01*
X39010Y9059D01*
D02*
G37*
G36*
X38360D02*
X38333Y9059D01*
X38285Y9055D01*
X38263Y9051D01*
X38243Y9046D01*
X38224Y9040D01*
X38208Y9033D01*
X38192Y9025D01*
X38179Y9015D01*
X38167Y9005D01*
X38104Y9067D01*
X38114Y9079D01*
X38124Y9093D01*
X38132Y9108D01*
X38139Y9125D01*
X38145Y9144D01*
X38150Y9164D01*
X38154Y9186D01*
X38157Y9209D01*
X38158Y9234D01*
X38158Y9260D01*
X38360Y9059D01*
D02*
G37*
G36*
X37710D02*
X37683Y9059D01*
X37635Y9055D01*
X37613Y9051D01*
X37593Y9046D01*
X37574Y9040D01*
X37557Y9033D01*
X37542Y9025D01*
X37529Y9015D01*
X37517Y9005D01*
X37454Y9067D01*
X37464Y9079D01*
X37474Y9093D01*
X37482Y9108D01*
X37489Y9125D01*
X37495Y9144D01*
X37500Y9164D01*
X37504Y9186D01*
X37507Y9209D01*
X37508Y9234D01*
X37508Y9260D01*
X37710Y9059D01*
D02*
G37*
G36*
X42200Y9801D02*
Y9002D01*
X42238Y8909D01*
X42628Y8520D01*
X42720Y8482D01*
X45915D01*
X46357Y8040D01*
Y7671D01*
X46280Y7599D01*
X46242Y7581D01*
X46217Y7592D01*
X46106D01*
X46003Y7549D01*
X45974Y7520D01*
X45959Y7514D01*
X45941Y7496D01*
X45926Y7482D01*
X45911Y7471D01*
X45897Y7461D01*
X45885Y7453D01*
X45873Y7448D01*
X45863Y7444D01*
X45861Y7443D01*
X44724D01*
X44438Y7729D01*
X44469Y7853D01*
X44491Y7907D01*
Y8018D01*
X44448Y8121D01*
X44370Y8199D01*
X44267Y8242D01*
X44156D01*
X44053Y8199D01*
X43975Y8121D01*
X43932Y8018D01*
Y7907D01*
X43938Y7894D01*
X43853Y7767D01*
X43271D01*
X43186Y7894D01*
X43191Y7907D01*
Y8018D01*
X43148Y8121D01*
X43070Y8199D01*
X42967Y8242D01*
X42856D01*
X42753Y8199D01*
X42675Y8121D01*
X42639Y8034D01*
X42571Y8003D01*
X42505Y7988D01*
X41836Y8657D01*
X41743Y8696D01*
X41332D01*
Y8967D01*
X41453Y9026D01*
X41556Y8983D01*
X41667D01*
X41770Y9026D01*
X41848Y9104D01*
X41891Y9207D01*
Y9318D01*
X41848Y9421D01*
X41770Y9499D01*
X41667Y9542D01*
X41556D01*
X41453Y9499D01*
X41332Y9558D01*
Y10106D01*
X41895D01*
X42200Y9801D01*
D02*
G37*
G36*
X31640Y8652D02*
X31644Y8603D01*
X31647Y8582D01*
X31652Y8562D01*
X31658Y8543D01*
X31666Y8526D01*
X31674Y8511D01*
X31683Y8497D01*
X31694Y8485D01*
X31631Y8422D01*
X31619Y8433D01*
X31605Y8443D01*
X31590Y8451D01*
X31573Y8458D01*
X31555Y8464D01*
X31535Y8469D01*
X31513Y8473D01*
X31490Y8475D01*
X31465Y8477D01*
X31438Y8477D01*
X31639Y8678D01*
X31640Y8652D01*
D02*
G37*
G36*
X48276Y8086D02*
X48313Y8055D01*
X48331Y8042D01*
X48348Y8031D01*
X48366Y8022D01*
X48383Y8016D01*
X48399Y8011D01*
X48416Y8008D01*
X48432Y8007D01*
Y7918D01*
X48416Y7917D01*
X48399Y7914D01*
X48383Y7909D01*
X48366Y7902D01*
X48348Y7893D01*
X48331Y7883D01*
X48313Y7870D01*
X48294Y7855D01*
X48276Y7839D01*
X48257Y7820D01*
Y8105D01*
X48276Y8086D01*
D02*
G37*
G36*
X39660Y7759D02*
X39633Y7759D01*
X39585Y7755D01*
X39563Y7751D01*
X39543Y7746D01*
X39524Y7740D01*
X39507Y7733D01*
X39492Y7725D01*
X39479Y7715D01*
X39467Y7705D01*
X39404Y7767D01*
X39414Y7779D01*
X39424Y7793D01*
X39432Y7808D01*
X39439Y7825D01*
X39445Y7844D01*
X39450Y7864D01*
X39454Y7885D01*
X39457Y7909D01*
X39458Y7934D01*
X39458Y7960D01*
X39660Y7759D01*
D02*
G37*
G36*
X46629Y7560D02*
X46642Y7550D01*
X46658Y7542D01*
X46674Y7535D01*
X46693Y7529D01*
X46713Y7524D01*
X46735Y7520D01*
X46758Y7517D01*
X46783Y7516D01*
X46810Y7516D01*
X46608Y7314D01*
X46608Y7341D01*
X46604Y7389D01*
X46600Y7411D01*
X46595Y7431D01*
X46589Y7450D01*
X46582Y7466D01*
X46574Y7482D01*
X46564Y7495D01*
X46554Y7507D01*
X46617Y7570D01*
X46629Y7560D01*
D02*
G37*
G36*
X46016Y7170D02*
X45998Y7189D01*
X45960Y7220D01*
X45942Y7233D01*
X45925Y7243D01*
X45907Y7252D01*
X45890Y7259D01*
X45874Y7264D01*
X45857Y7267D01*
X45841Y7268D01*
Y7357D01*
X45857Y7358D01*
X45874Y7361D01*
X45890Y7366D01*
X45907Y7372D01*
X45925Y7381D01*
X45942Y7392D01*
X45960Y7405D01*
X45979Y7419D01*
X45998Y7436D01*
X46016Y7455D01*
Y7170D01*
D02*
G37*
G36*
X36916D02*
X36897Y7189D01*
X36860Y7220D01*
X36842Y7233D01*
X36825Y7243D01*
X36807Y7252D01*
X36790Y7259D01*
X36774Y7264D01*
X36757Y7267D01*
X36741Y7268D01*
Y7357D01*
X36757Y7358D01*
X36774Y7361D01*
X36790Y7366D01*
X36807Y7372D01*
X36825Y7381D01*
X36842Y7392D01*
X36860Y7405D01*
X36879Y7419D01*
X36897Y7436D01*
X36916Y7455D01*
Y7170D01*
D02*
G37*
G36*
X42580Y7544D02*
X42672Y7506D01*
X43202D01*
X43287Y7379D01*
X43282Y7368D01*
Y7257D01*
X43325Y7154D01*
X43403Y7076D01*
X43506Y7033D01*
X43617D01*
X43720Y7076D01*
X43798Y7154D01*
X43841Y7257D01*
Y7368D01*
X43837Y7379D01*
X43921Y7506D01*
X44292D01*
X44577Y7220D01*
X44670Y7182D01*
X45861D01*
X45863Y7181D01*
X45873Y7177D01*
X45885Y7171D01*
X45897Y7164D01*
X45910Y7155D01*
X45942Y7128D01*
X45959Y7111D01*
X45974Y7105D01*
X46003Y7076D01*
X46050Y7056D01*
Y6919D01*
X46003Y6899D01*
X45925Y6821D01*
X45905Y6774D01*
X45768D01*
X45748Y6821D01*
X45670Y6899D01*
X45567Y6942D01*
X45456D01*
X45353Y6899D01*
X45275Y6821D01*
X45255Y6774D01*
X45118D01*
X45098Y6821D01*
X45020Y6899D01*
X44917Y6942D01*
X44806D01*
X44703Y6899D01*
X44625Y6821D01*
X44605Y6774D01*
X44468D01*
X44448Y6821D01*
X44370Y6899D01*
X44267Y6942D01*
X44156D01*
X44053Y6899D01*
X43975Y6821D01*
X43932Y6718D01*
Y6607D01*
X43975Y6504D01*
X44053Y6426D01*
X44156Y6383D01*
X44267D01*
X44370Y6426D01*
X44448Y6504D01*
X44468Y6551D01*
X44605D01*
X44625Y6504D01*
X44703Y6426D01*
X44750Y6406D01*
Y6269D01*
X44703Y6249D01*
X44625Y6171D01*
X44582Y6068D01*
Y5957D01*
X44625Y5854D01*
X44703Y5776D01*
X44806Y5733D01*
X44917D01*
X45020Y5776D01*
X45098Y5854D01*
X45118Y5901D01*
X45255D01*
X45275Y5854D01*
X45353Y5776D01*
X45400Y5756D01*
Y5619D01*
X45353Y5599D01*
X45275Y5521D01*
X45232Y5418D01*
Y5307D01*
X45275Y5204D01*
X45353Y5126D01*
X45400Y5106D01*
Y4969D01*
X45353Y4949D01*
X45275Y4871D01*
X45255Y4824D01*
X45118D01*
X45098Y4871D01*
X45020Y4949D01*
X44917Y4992D01*
X44806D01*
X44703Y4949D01*
X44625Y4871D01*
X44620Y4860D01*
X44471Y4830D01*
X44172Y5129D01*
X44080Y5167D01*
X43920D01*
X43836Y5294D01*
X43841Y5307D01*
Y5418D01*
X43798Y5521D01*
X43720Y5599D01*
X43617Y5642D01*
X43506D01*
X43403Y5599D01*
X43325Y5521D01*
X43305Y5474D01*
X43168D01*
X43148Y5521D01*
X43070Y5599D01*
X43023Y5619D01*
Y5756D01*
X43070Y5776D01*
X43148Y5854D01*
X43191Y5957D01*
Y6068D01*
X43148Y6171D01*
X43070Y6249D01*
X43023Y6269D01*
Y6406D01*
X43070Y6426D01*
X43148Y6504D01*
X43191Y6607D01*
Y6718D01*
X43148Y6821D01*
X43070Y6899D01*
X42967Y6942D01*
X42856D01*
X42753Y6899D01*
X42675Y6821D01*
X42632Y6718D01*
Y6607D01*
X42675Y6504D01*
X42753Y6426D01*
X42800Y6406D01*
Y6269D01*
X42753Y6249D01*
X42675Y6171D01*
X42632Y6068D01*
Y5957D01*
X42675Y5854D01*
X42753Y5776D01*
X42800Y5756D01*
Y5619D01*
X42753Y5599D01*
X42687Y5533D01*
X42628Y5542D01*
X42560Y5572D01*
Y5794D01*
X42522Y5887D01*
X41980Y6429D01*
X41888Y6467D01*
X41332D01*
Y7017D01*
X41453Y7076D01*
X41556Y7033D01*
X41667D01*
X41770Y7076D01*
X41848Y7154D01*
X41891Y7257D01*
Y7368D01*
X41848Y7471D01*
X41770Y7549D01*
X41667Y7592D01*
X41556D01*
X41453Y7549D01*
X41332Y7608D01*
Y8434D01*
X41689D01*
X42580Y7544D01*
D02*
G37*
G36*
X31640Y7052D02*
X31644Y7003D01*
X31647Y6982D01*
X31652Y6962D01*
X31658Y6943D01*
X31666Y6926D01*
X31674Y6911D01*
X31683Y6897D01*
X31694Y6885D01*
X31631Y6822D01*
X31619Y6833D01*
X31605Y6843D01*
X31590Y6851D01*
X31573Y6858D01*
X31555Y6864D01*
X31535Y6869D01*
X31513Y6873D01*
X31490Y6875D01*
X31465Y6877D01*
X31438Y6877D01*
X31639Y7078D01*
X31640Y7052D01*
D02*
G37*
G36*
X37319Y6857D02*
X37309Y6845D01*
X37299Y6832D01*
X37291Y6816D01*
X37284Y6800D01*
X37278Y6781D01*
X37273Y6761D01*
X37269Y6739D01*
X37267Y6716D01*
X37265Y6691D01*
X37265Y6664D01*
X37064Y6866D01*
X37090Y6866D01*
X37138Y6870D01*
X37160Y6874D01*
X37180Y6879D01*
X37199Y6885D01*
X37216Y6892D01*
X37231Y6900D01*
X37245Y6910D01*
X37257Y6920D01*
X37319Y6857D01*
D02*
G37*
G36*
X36266Y6520D02*
X36247Y6539D01*
X36210Y6570D01*
X36192Y6583D01*
X36175Y6593D01*
X36157Y6602D01*
X36140Y6609D01*
X36124Y6614D01*
X36107Y6617D01*
X36091Y6618D01*
Y6707D01*
X36107Y6708D01*
X36124Y6711D01*
X36140Y6716D01*
X36157Y6722D01*
X36175Y6731D01*
X36192Y6742D01*
X36210Y6755D01*
X36229Y6769D01*
X36247Y6786D01*
X36266Y6805D01*
Y6520D01*
D02*
G37*
G36*
X29882Y6584D02*
X29885Y6568D01*
X29889Y6551D01*
X29896Y6534D01*
X29905Y6517D01*
X29916Y6499D01*
X29929Y6481D01*
X29943Y6463D01*
X29960Y6444D01*
X29978Y6425D01*
X29694D01*
X29712Y6444D01*
X29744Y6481D01*
X29757Y6499D01*
X29767Y6517D01*
X29776Y6534D01*
X29783Y6551D01*
X29788Y6568D01*
X29791Y6584D01*
X29792Y6600D01*
X29881D01*
X29882Y6584D01*
D02*
G37*
G36*
X31253Y6527D02*
X31267Y6518D01*
X31282Y6510D01*
X31299Y6502D01*
X31317Y6496D01*
X31338Y6492D01*
X31359Y6488D01*
X31383Y6485D01*
X31408Y6484D01*
X31434Y6483D01*
X31233Y6282D01*
X31233Y6309D01*
X31229Y6357D01*
X31225Y6379D01*
X31220Y6399D01*
X31214Y6417D01*
X31207Y6434D01*
X31198Y6450D01*
X31189Y6463D01*
X31178Y6475D01*
X31241Y6538D01*
X31253Y6527D01*
D02*
G37*
G36*
X40569Y6207D02*
X40559Y6195D01*
X40549Y6182D01*
X40541Y6166D01*
X40534Y6150D01*
X40528Y6131D01*
X40523Y6111D01*
X40519Y6089D01*
X40517Y6066D01*
X40515Y6041D01*
X40515Y6014D01*
X40314Y6216D01*
X40340Y6216D01*
X40388Y6220D01*
X40410Y6224D01*
X40430Y6229D01*
X40449Y6235D01*
X40466Y6242D01*
X40481Y6250D01*
X40495Y6260D01*
X40507Y6270D01*
X40569Y6207D01*
D02*
G37*
G36*
X29160Y6116D02*
X29129Y6079D01*
X29116Y6061D01*
X29105Y6043D01*
X29096Y6026D01*
X29089Y6009D01*
X29085Y5992D01*
X29082Y5976D01*
X29081Y5960D01*
X28992D01*
X28991Y5976D01*
X28988Y5992D01*
X28983Y6009D01*
X28976Y6026D01*
X28967Y6043D01*
X28956Y6061D01*
X28944Y6079D01*
X28929Y6097D01*
X28912Y6116D01*
X28894Y6135D01*
X29178D01*
X29160Y6116D01*
D02*
G37*
G36*
X36266Y5870D02*
X36247Y5889D01*
X36210Y5920D01*
X36192Y5933D01*
X36175Y5943D01*
X36157Y5952D01*
X36140Y5959D01*
X36124Y5964D01*
X36107Y5967D01*
X36091Y5968D01*
Y6057D01*
X36107Y6058D01*
X36124Y6061D01*
X36140Y6066D01*
X36157Y6072D01*
X36175Y6081D01*
X36192Y6092D01*
X36210Y6105D01*
X36229Y6119D01*
X36247Y6136D01*
X36266Y6155D01*
Y5870D01*
D02*
G37*
G36*
X39865Y5984D02*
X39869Y5935D01*
X39873Y5914D01*
X39878Y5894D01*
X39884Y5875D01*
X39891Y5858D01*
X39899Y5843D01*
X39909Y5829D01*
X39919Y5817D01*
X39857Y5755D01*
X39845Y5765D01*
X39831Y5775D01*
X39816Y5783D01*
X39799Y5790D01*
X39780Y5796D01*
X39760Y5801D01*
X39738Y5805D01*
X39715Y5807D01*
X39690Y5809D01*
X39664Y5809D01*
X39865Y6010D01*
X39865Y5984D01*
D02*
G37*
G36*
X39010Y5809D02*
X38983Y5809D01*
X38935Y5805D01*
X38913Y5801D01*
X38893Y5796D01*
X38874Y5790D01*
X38857Y5783D01*
X38842Y5775D01*
X38829Y5765D01*
X38817Y5755D01*
X38754Y5817D01*
X38764Y5829D01*
X38774Y5843D01*
X38782Y5858D01*
X38789Y5875D01*
X38795Y5894D01*
X38800Y5914D01*
X38804Y5935D01*
X38807Y5959D01*
X38808Y5984D01*
X38808Y6010D01*
X39010Y5809D01*
D02*
G37*
G36*
X32234Y5277D02*
X32208Y5277D01*
X32159Y5273D01*
X32138Y5269D01*
X32117Y5264D01*
X32099Y5258D01*
X32082Y5251D01*
X32067Y5243D01*
X32053Y5233D01*
X32041Y5222D01*
X31978Y5285D01*
X31989Y5297D01*
X31998Y5311D01*
X32007Y5326D01*
X32014Y5343D01*
X32020Y5362D01*
X32025Y5382D01*
X32029Y5403D01*
X32031Y5427D01*
X32033Y5452D01*
X32033Y5478D01*
X32234Y5277D01*
D02*
G37*
G36*
X39865Y5334D02*
X39869Y5285D01*
X39873Y5264D01*
X39878Y5244D01*
X39884Y5225D01*
X39891Y5208D01*
X39899Y5193D01*
X39909Y5179D01*
X39919Y5167D01*
X39857Y5105D01*
X39845Y5115D01*
X39831Y5125D01*
X39816Y5133D01*
X39799Y5140D01*
X39780Y5146D01*
X39760Y5151D01*
X39738Y5155D01*
X39715Y5157D01*
X39690Y5159D01*
X39664Y5159D01*
X39865Y5360D01*
X39865Y5334D01*
D02*
G37*
G36*
X39010Y5159D02*
X38983Y5159D01*
X38935Y5155D01*
X38913Y5151D01*
X38893Y5146D01*
X38874Y5140D01*
X38857Y5133D01*
X38842Y5125D01*
X38829Y5115D01*
X38817Y5105D01*
X38754Y5167D01*
X38764Y5179D01*
X38774Y5193D01*
X38782Y5208D01*
X38789Y5225D01*
X38795Y5244D01*
X38800Y5264D01*
X38804Y5285D01*
X38807Y5309D01*
X38808Y5334D01*
X38808Y5360D01*
X39010Y5159D01*
D02*
G37*
G36*
X38360D02*
X38333Y5159D01*
X38285Y5155D01*
X38263Y5151D01*
X38243Y5146D01*
X38224Y5140D01*
X38208Y5133D01*
X38192Y5125D01*
X38179Y5115D01*
X38167Y5105D01*
X38104Y5167D01*
X38114Y5179D01*
X38124Y5193D01*
X38132Y5208D01*
X38139Y5225D01*
X38145Y5244D01*
X38150Y5264D01*
X38154Y5285D01*
X38157Y5309D01*
X38158Y5334D01*
X38158Y5360D01*
X38360Y5159D01*
D02*
G37*
G36*
X41735Y5198D02*
X41704Y5161D01*
X41691Y5143D01*
X41680Y5126D01*
X41672Y5108D01*
X41665Y5091D01*
X41660Y5075D01*
X41657Y5058D01*
X41656Y5042D01*
X41567D01*
X41566Y5058D01*
X41563Y5075D01*
X41558Y5091D01*
X41551Y5108D01*
X41543Y5126D01*
X41532Y5143D01*
X41519Y5161D01*
X41505Y5180D01*
X41488Y5198D01*
X41469Y5217D01*
X41754D01*
X41735Y5198D01*
D02*
G37*
G36*
X56228Y4682D02*
X56231Y4666D01*
X56236Y4649D01*
X56243Y4632D01*
X56252Y4615D01*
X56263Y4597D01*
X56275Y4579D01*
X56290Y4561D01*
X56307Y4542D01*
X56325Y4523D01*
X56041D01*
X56059Y4542D01*
X56091Y4579D01*
X56103Y4597D01*
X56114Y4615D01*
X56123Y4632D01*
X56130Y4649D01*
X56135Y4666D01*
X56137Y4682D01*
X56138Y4698D01*
X56227D01*
X56228Y4682D01*
D02*
G37*
G36*
X39215Y4684D02*
X39219Y4635D01*
X39223Y4614D01*
X39228Y4594D01*
X39234Y4575D01*
X39241Y4558D01*
X39249Y4543D01*
X39259Y4529D01*
X39269Y4517D01*
X39207Y4455D01*
X39195Y4465D01*
X39181Y4475D01*
X39166Y4483D01*
X39149Y4490D01*
X39130Y4496D01*
X39110Y4501D01*
X39088Y4505D01*
X39065Y4507D01*
X39040Y4509D01*
X39014Y4509D01*
X39215Y4710D01*
X39215Y4684D01*
D02*
G37*
G36*
X56024Y4071D02*
X56038Y4061D01*
X56054Y4053D01*
X56070Y4047D01*
X56088Y4043D01*
X56108Y4040D01*
X56128Y4038D01*
X56150Y4039D01*
X56174Y4041D01*
X56198Y4044D01*
X56033Y3813D01*
X56028Y3841D01*
X56010Y3914D01*
X56003Y3934D01*
X55996Y3953D01*
X55988Y3969D01*
X55979Y3984D01*
X55970Y3997D01*
X55960Y4008D01*
X56012Y4082D01*
X56024Y4071D01*
D02*
G37*
G36*
X44415Y4034D02*
X44419Y3985D01*
X44423Y3964D01*
X44428Y3944D01*
X44434Y3925D01*
X44441Y3908D01*
X44449Y3893D01*
X44459Y3879D01*
X44469Y3867D01*
X44407Y3805D01*
X44395Y3815D01*
X44381Y3825D01*
X44366Y3833D01*
X44349Y3840D01*
X44330Y3846D01*
X44310Y3851D01*
X44289Y3855D01*
X44265Y3857D01*
X44240Y3859D01*
X44214Y3859D01*
X44415Y4060D01*
X44415Y4034D01*
D02*
G37*
G36*
X37060Y3859D02*
X37033Y3859D01*
X36985Y3855D01*
X36963Y3851D01*
X36943Y3846D01*
X36924Y3840D01*
X36908Y3833D01*
X36892Y3825D01*
X36879Y3815D01*
X36867Y3805D01*
X36804Y3867D01*
X36814Y3879D01*
X36824Y3893D01*
X36832Y3908D01*
X36839Y3925D01*
X36845Y3944D01*
X36850Y3964D01*
X36854Y3985D01*
X36857Y4009D01*
X36858Y4034D01*
X36858Y4060D01*
X37060Y3859D01*
D02*
G37*
G36*
X42465Y2734D02*
X42469Y2685D01*
X42473Y2664D01*
X42478Y2644D01*
X42484Y2625D01*
X42491Y2608D01*
X42499Y2593D01*
X42509Y2579D01*
X42519Y2567D01*
X42457Y2505D01*
X42445Y2515D01*
X42431Y2525D01*
X42416Y2533D01*
X42399Y2540D01*
X42380Y2546D01*
X42360Y2551D01*
X42339Y2555D01*
X42315Y2557D01*
X42290Y2559D01*
X42264Y2559D01*
X42465Y2760D01*
X42465Y2734D01*
D02*
G37*
G36*
X41931Y5074D02*
Y4861D01*
X41969Y4768D01*
X42444Y4294D01*
X42536Y4256D01*
X43202D01*
X43287Y4129D01*
X43282Y4118D01*
Y4007D01*
X43325Y3904D01*
X43403Y3826D01*
X43450Y3806D01*
Y3669D01*
X43403Y3649D01*
X43325Y3571D01*
X43282Y3468D01*
Y3357D01*
X43325Y3254D01*
X43403Y3176D01*
X43506Y3133D01*
X43617D01*
X43720Y3176D01*
X43798Y3254D01*
X43818Y3301D01*
X43955D01*
X43975Y3254D01*
X44053Y3176D01*
X44156Y3133D01*
X44267D01*
X44320Y3155D01*
X44381Y3171D01*
X44503Y3129D01*
X44637Y2994D01*
X44604Y2870D01*
X44582Y2818D01*
Y2707D01*
X44625Y2604D01*
X44703Y2526D01*
X44806Y2483D01*
X44917D01*
X45016Y2413D01*
X44950Y2361D01*
X44940Y2354D01*
X44901Y2338D01*
X44863Y2323D01*
X44846Y2306D01*
X44831Y2293D01*
X44818Y2282D01*
X44805Y2273D01*
X44794Y2267D01*
X44785Y2262D01*
X44778Y2259D01*
X44772Y2257D01*
X44767Y2257D01*
X44758Y2256D01*
X44723Y2239D01*
X44707Y2232D01*
X44422D01*
X44387Y2286D01*
X44359Y2359D01*
X44394Y2444D01*
Y2556D01*
X44351Y2658D01*
X44273Y2737D01*
X44170Y2779D01*
X44059D01*
X43956Y2737D01*
X43878Y2658D01*
X43835Y2556D01*
Y2444D01*
X43870Y2359D01*
X43842Y2286D01*
X43807Y2232D01*
X43677D01*
X43643Y2286D01*
X43614Y2359D01*
X43649Y2444D01*
Y2556D01*
X43607Y2658D01*
X43528Y2737D01*
X43426Y2779D01*
X43314D01*
X43212Y2737D01*
X43133Y2658D01*
X43091Y2556D01*
Y2444D01*
X43115Y2385D01*
X43051Y2268D01*
X42949Y2260D01*
X42566Y2642D01*
X42565Y2644D01*
X42561Y2654D01*
X42557Y2666D01*
X42554Y2681D01*
X42551Y2696D01*
X42548Y2738D01*
X42547Y2761D01*
X42541Y2776D01*
Y2818D01*
X42498Y2921D01*
X42420Y2999D01*
X42317Y3042D01*
X42206D01*
X42103Y2999D01*
X42025Y2921D01*
X42005Y2873D01*
X41865Y2834D01*
X41742Y2957D01*
Y5050D01*
X41811Y5124D01*
X41931Y5074D01*
D02*
G37*
G36*
X54580Y2231D02*
X54564Y2250D01*
X54547Y2268D01*
X54530Y2283D01*
X54513Y2296D01*
X54497Y2308D01*
X54480Y2317D01*
X54463Y2324D01*
X54447Y2329D01*
X54430Y2332D01*
X54414Y2333D01*
X54422Y2422D01*
X54437Y2423D01*
X54453Y2426D01*
X54470Y2431D01*
X54487Y2437D01*
X54505Y2445D01*
X54524Y2455D01*
X54543Y2467D01*
X54584Y2497D01*
X54605Y2514D01*
X54580Y2231D01*
D02*
G37*
G36*
X45441Y2349D02*
X45455Y2340D01*
X45470Y2331D01*
X45487Y2324D01*
X45505Y2318D01*
X45526Y2313D01*
X45547Y2309D01*
X45571Y2307D01*
X45596Y2305D01*
X45622Y2305D01*
X45421Y2104D01*
X45421Y2130D01*
X45417Y2179D01*
X45413Y2200D01*
X45408Y2221D01*
X45402Y2239D01*
X45395Y2256D01*
X45386Y2271D01*
X45377Y2285D01*
X45366Y2297D01*
X45429Y2360D01*
X45441Y2349D01*
D02*
G37*
G36*
X49839Y2266D02*
X49852Y2256D01*
X49868Y2248D01*
X49885Y2241D01*
X49903Y2235D01*
X49923Y2230D01*
X49945Y2226D01*
X49968Y2224D01*
X49993Y2222D01*
X50020Y2222D01*
X49819Y2021D01*
X49818Y2047D01*
X49814Y2096D01*
X49811Y2117D01*
X49806Y2137D01*
X49800Y2156D01*
X49792Y2173D01*
X49784Y2188D01*
X49775Y2202D01*
X49764Y2214D01*
X49827Y2277D01*
X49839Y2266D01*
D02*
G37*
G36*
X44940Y1960D02*
X44921Y1978D01*
X44884Y2009D01*
X44866Y2022D01*
X44848Y2033D01*
X44831Y2042D01*
X44814Y2049D01*
X44797Y2053D01*
X44781Y2056D01*
X44765Y2057D01*
Y2146D01*
X44781Y2147D01*
X44797Y2150D01*
X44814Y2155D01*
X44831Y2162D01*
X44848Y2171D01*
X44866Y2181D01*
X44884Y2194D01*
X44902Y2209D01*
X44921Y2226D01*
X44940Y2244D01*
Y1960D01*
D02*
G37*
G36*
X28244Y2085D02*
X28247Y2069D01*
X28252Y2052D01*
X28258Y2035D01*
X28267Y2018D01*
X28278Y2000D01*
X28291Y1982D01*
X28305Y1964D01*
X28322Y1945D01*
X28341Y1926D01*
X28056D01*
X28075Y1945D01*
X28106Y1982D01*
X28119Y2000D01*
X28129Y2018D01*
X28138Y2035D01*
X28145Y2052D01*
X28150Y2069D01*
X28153Y2085D01*
X28154Y2101D01*
X28243D01*
X28244Y2085D01*
D02*
G37*
G36*
X50186Y2142D02*
X50223Y2111D01*
X50241Y2098D01*
X50259Y2088D01*
X50276Y2079D01*
X50293Y2072D01*
X50310Y2067D01*
X50326Y2064D01*
X50342Y2063D01*
Y1974D01*
X50326Y1973D01*
X50310Y1970D01*
X50293Y1965D01*
X50276Y1959D01*
X50259Y1950D01*
X50241Y1939D01*
X50223Y1926D01*
X50205Y1912D01*
X50186Y1895D01*
X50167Y1877D01*
Y2161D01*
X50186Y2142D01*
D02*
G37*
G36*
X45288Y2073D02*
X45292Y2025D01*
X45296Y2003D01*
X45301Y1983D01*
X45307Y1965D01*
X45314Y1948D01*
X45323Y1933D01*
X45332Y1919D01*
X45343Y1907D01*
X45280Y1844D01*
X45268Y1855D01*
X45254Y1864D01*
X45239Y1872D01*
X45222Y1880D01*
X45204Y1886D01*
X45183Y1891D01*
X45162Y1894D01*
X45138Y1897D01*
X45113Y1898D01*
X45087Y1899D01*
X45288Y2100D01*
X45288Y2073D01*
D02*
G37*
G36*
X51383Y1754D02*
X51372Y1742D01*
X51363Y1729D01*
X51354Y1713D01*
X51347Y1697D01*
X51341Y1678D01*
X51336Y1658D01*
X51333Y1636D01*
X51330Y1613D01*
X51328Y1588D01*
X51328Y1561D01*
X51127Y1763D01*
X51154Y1763D01*
X51202Y1767D01*
X51224Y1771D01*
X51244Y1776D01*
X51262Y1782D01*
X51279Y1789D01*
X51294Y1797D01*
X51308Y1807D01*
X51320Y1817D01*
X51383Y1754D01*
D02*
G37*
G36*
X54596Y1573D02*
X54569Y1573D01*
X54521Y1569D01*
X54499Y1565D01*
X54479Y1560D01*
X54461Y1554D01*
X54444Y1547D01*
X54429Y1539D01*
X54415Y1529D01*
X54403Y1519D01*
X54340Y1581D01*
X54351Y1593D01*
X54360Y1607D01*
X54369Y1622D01*
X54376Y1639D01*
X54382Y1658D01*
X54387Y1678D01*
X54390Y1700D01*
X54393Y1723D01*
X54394Y1748D01*
X54395Y1774D01*
X54596Y1573D01*
D02*
G37*
G36*
X39340Y1496D02*
X39321Y1514D01*
X39284Y1546D01*
X39266Y1558D01*
X39248Y1569D01*
X39231Y1578D01*
X39214Y1585D01*
X39197Y1590D01*
X39181Y1593D01*
X39165Y1594D01*
Y1682D01*
X39181Y1683D01*
X39197Y1686D01*
X39214Y1691D01*
X39231Y1698D01*
X39248Y1707D01*
X39266Y1718D01*
X39284Y1730D01*
X39302Y1745D01*
X39321Y1762D01*
X39340Y1780D01*
Y1496D01*
D02*
G37*
G36*
X51011Y1391D02*
X50987Y1407D01*
X50921Y1444D01*
X50901Y1453D01*
X50883Y1461D01*
X50865Y1467D01*
X50848Y1471D01*
X50833Y1473D01*
X50819Y1474D01*
X50800Y1563D01*
X50817Y1564D01*
X50833Y1567D01*
X50850Y1573D01*
X50866Y1580D01*
X50881Y1590D01*
X50897Y1602D01*
X50911Y1615D01*
X50926Y1631D01*
X50940Y1649D01*
X50954Y1670D01*
X51011Y1391D01*
D02*
G37*
G36*
X46697Y1390D02*
X46673Y1406D01*
X46607Y1444D01*
X46587Y1453D01*
X46569Y1461D01*
X46551Y1467D01*
X46535Y1471D01*
X46519Y1473D01*
X46505Y1474D01*
X46487Y1563D01*
X46503Y1564D01*
X46520Y1567D01*
X46536Y1573D01*
X46552Y1580D01*
X46568Y1590D01*
X46583Y1601D01*
X46598Y1615D01*
X46613Y1631D01*
X46628Y1649D01*
X46642Y1670D01*
X46697Y1390D01*
D02*
G37*
G36*
X47001Y1638D02*
X47014Y1619D01*
X47027Y1603D01*
X47041Y1589D01*
X47056Y1577D01*
X47071Y1567D01*
X47087Y1560D01*
X47103Y1555D01*
X47119Y1551D01*
X47137Y1550D01*
X47112Y1461D01*
X47099Y1461D01*
X47083Y1458D01*
X47067Y1454D01*
X47049Y1449D01*
X47030Y1442D01*
X46988Y1423D01*
X46941Y1398D01*
X46915Y1383D01*
X46988Y1658D01*
X47001Y1638D01*
D02*
G37*
G36*
X48394Y1353D02*
X48382Y1374D01*
X48369Y1392D01*
X48355Y1408D01*
X48341Y1422D01*
X48327Y1434D01*
X48311Y1444D01*
X48296Y1452D01*
X48280Y1457D01*
X48263Y1460D01*
X48246Y1461D01*
X48270Y1550D01*
X48284Y1551D01*
X48299Y1553D01*
X48315Y1557D01*
X48333Y1563D01*
X48352Y1570D01*
X48394Y1588D01*
X48442Y1613D01*
X48467Y1628D01*
X48394Y1353D01*
D02*
G37*
G36*
X29722Y3372D02*
X36782D01*
Y3357D01*
X36825Y3254D01*
X36903Y3176D01*
X36950Y3156D01*
Y3019D01*
X36903Y2999D01*
X36825Y2921D01*
X36782Y2818D01*
Y2707D01*
X36825Y2604D01*
X36903Y2526D01*
X37006Y2483D01*
X37117D01*
X37220Y2526D01*
X37298Y2604D01*
X37318Y2651D01*
X37455D01*
X37475Y2604D01*
X37553Y2526D01*
X37656Y2483D01*
X37767D01*
X37870Y2526D01*
X37948Y2604D01*
X37968Y2651D01*
X38105D01*
X38125Y2604D01*
X38203Y2526D01*
X38306Y2483D01*
X38417D01*
X38520Y2526D01*
X38598Y2604D01*
X38618Y2651D01*
X38755D01*
X38775Y2604D01*
X38853Y2526D01*
X38956Y2483D01*
X39067D01*
X39170Y2526D01*
X39248Y2604D01*
X39268Y2651D01*
X39405D01*
X39425Y2604D01*
X39503Y2526D01*
X39606Y2483D01*
X39717D01*
X39820Y2526D01*
X39898Y2604D01*
X39941Y2707D01*
Y2818D01*
X39898Y2921D01*
X39820Y2999D01*
X39773Y3019D01*
Y3156D01*
X39820Y3176D01*
X39898Y3254D01*
X39918Y3301D01*
X40055D01*
X40075Y3254D01*
X40153Y3176D01*
X40256Y3133D01*
X40367D01*
X40470Y3176D01*
X40535Y3240D01*
X40599Y3231D01*
X40662Y3202D01*
Y2878D01*
X40634Y2812D01*
X40681Y2700D01*
X40882Y2499D01*
X40845Y2356D01*
X40804Y2339D01*
X40726Y2260D01*
X40683Y2157D01*
Y2046D01*
X40726Y1944D01*
X40804Y1865D01*
X40907Y1822D01*
X41018D01*
X41121Y1865D01*
X41200Y1944D01*
X41217Y1985D01*
X41359Y2021D01*
X42635Y746D01*
X42747Y700D01*
X42883D01*
X42956Y573D01*
X42933Y518D01*
Y397D01*
X42948Y360D01*
X42865Y233D01*
X42038D01*
X41955Y360D01*
X41970Y397D01*
Y518D01*
X41924Y630D01*
X41838Y716D01*
X41726Y762D01*
X41605D01*
X41493Y716D01*
X41407Y630D01*
X41360Y518D01*
Y397D01*
X41376Y360D01*
X41292Y233D01*
X38659D01*
X38606Y360D01*
X38620Y374D01*
X38666Y486D01*
Y607D01*
X38620Y719D01*
X38534Y805D01*
X38422Y852D01*
X38301D01*
X38189Y805D01*
X38103Y719D01*
X38057Y607D01*
Y486D01*
X38103Y374D01*
X38117Y360D01*
X38065Y233D01*
X37553D01*
X37527Y360D01*
X37582Y383D01*
X37668Y469D01*
X37715Y581D01*
Y702D01*
X37668Y814D01*
X37582Y900D01*
X37470Y946D01*
X37349D01*
X37237Y900D01*
X37151Y814D01*
X37105Y702D01*
Y581D01*
X37151Y469D01*
X37237Y383D01*
X37292Y360D01*
X37267Y233D01*
X36698D01*
X36673Y360D01*
X36728Y383D01*
X36814Y469D01*
X36860Y581D01*
Y702D01*
X36814Y814D01*
X36728Y900D01*
X36616Y946D01*
X36495D01*
X36383Y900D01*
X36297Y814D01*
X36251Y702D01*
Y581D01*
X36297Y469D01*
X36383Y383D01*
X36438Y360D01*
X36413Y233D01*
X25577D01*
X25572Y358D01*
X25684Y404D01*
X25713Y434D01*
X25733Y442D01*
X25750Y458D01*
X25765Y472D01*
X25778Y482D01*
X25791Y491D01*
X25802Y498D01*
X25811Y502D01*
X25816Y504D01*
X35100D01*
X35212Y551D01*
X36141Y1480D01*
X39180D01*
X39185Y1478D01*
X39194Y1473D01*
X39205Y1466D01*
X39216Y1459D01*
X39247Y1433D01*
X39263Y1417D01*
X39283Y1409D01*
X39312Y1380D01*
X39424Y1333D01*
X39545D01*
X39657Y1380D01*
X39743Y1465D01*
X39790Y1577D01*
Y1699D01*
X39743Y1811D01*
X39657Y1896D01*
X39545Y1943D01*
X39424D01*
X39312Y1896D01*
X39283Y1867D01*
X39263Y1859D01*
X39246Y1842D01*
X39231Y1829D01*
X39218Y1818D01*
X39205Y1810D01*
X39194Y1803D01*
X39185Y1798D01*
X39180Y1796D01*
X36075D01*
X35963Y1750D01*
X35034Y821D01*
X33891D01*
X33838Y948D01*
X33881Y990D01*
X33927Y1102D01*
Y1224D01*
X33881Y1336D01*
X33868Y1349D01*
X33877Y1404D01*
X33911Y1485D01*
X34002Y1522D01*
X34087Y1608D01*
X34134Y1720D01*
Y1841D01*
X34087Y1953D01*
X34002Y2039D01*
X33890Y2086D01*
X33768D01*
X33656Y2039D01*
X33571Y1953D01*
X33524Y1841D01*
Y1720D01*
X33571Y1608D01*
X33584Y1595D01*
X33574Y1539D01*
X33540Y1459D01*
X33450Y1421D01*
X33364Y1336D01*
X33318Y1224D01*
Y1102D01*
X33364Y990D01*
X33407Y948D01*
X33354Y821D01*
X28223D01*
X28168Y945D01*
X28175Y953D01*
X28236Y1005D01*
X28528D01*
X28640Y1051D01*
X28874Y1285D01*
X28920Y1397D01*
Y4007D01*
X29038Y4056D01*
X29722Y3372D01*
D02*
G37*
G36*
X28070Y1287D02*
X28107Y1255D01*
X28125Y1243D01*
X28142Y1232D01*
X28160Y1223D01*
X28177Y1216D01*
X28193Y1211D01*
X28210Y1208D01*
X28226Y1207D01*
Y1119D01*
X28210Y1118D01*
X28193Y1115D01*
X28177Y1110D01*
X28160Y1103D01*
X28142Y1094D01*
X28125Y1083D01*
X28107Y1071D01*
X28088Y1056D01*
X28070Y1039D01*
X28051Y1021D01*
Y1305D01*
X28070Y1287D01*
D02*
G37*
G36*
X54466Y988D02*
X54447Y1007D01*
X54410Y1038D01*
X54392Y1051D01*
X54374Y1062D01*
X54357Y1071D01*
X54340Y1077D01*
X54323Y1082D01*
X54307Y1085D01*
X54291Y1086D01*
Y1175D01*
X54307Y1176D01*
X54323Y1179D01*
X54340Y1184D01*
X54357Y1191D01*
X54374Y1200D01*
X54392Y1210D01*
X54410Y1223D01*
X54428Y1238D01*
X54447Y1254D01*
X54466Y1273D01*
Y988D01*
D02*
G37*
G36*
X47853Y983D02*
X47850Y992D01*
X47847Y1001D01*
X47842Y1009D01*
X47837Y1015D01*
X47830Y1021D01*
X47822Y1025D01*
X47813Y1029D01*
X47803Y1032D01*
X47792Y1033D01*
X47779Y1034D01*
Y1123D01*
X47797Y1123D01*
X47830Y1126D01*
X47844Y1129D01*
X47858Y1132D01*
X47870Y1136D01*
X47881Y1141D01*
X47891Y1147D01*
X47900Y1153D01*
X47908Y1160D01*
X47853Y983D01*
D02*
G37*
G36*
X50954Y868D02*
X50940Y888D01*
X50926Y906D01*
X50911Y922D01*
X50897Y936D01*
X50881Y948D01*
X50866Y957D01*
X50850Y965D01*
X50833Y970D01*
X50817Y973D01*
X50800Y974D01*
X50819Y1063D01*
X50833Y1064D01*
X50848Y1067D01*
X50865Y1071D01*
X50883Y1077D01*
X50901Y1084D01*
X50921Y1093D01*
X50964Y1117D01*
X50987Y1131D01*
X51011Y1146D01*
X50954Y868D01*
D02*
G37*
G36*
X51331Y977D02*
X51341Y927D01*
X51347Y905D01*
X51361Y866D01*
X51369Y849D01*
X51378Y834D01*
X51387Y821D01*
X51397Y810D01*
X51343Y738D01*
X51331Y749D01*
X51317Y758D01*
X51302Y766D01*
X51285Y772D01*
X51267Y777D01*
X51247Y780D01*
X51226Y782D01*
X51204Y782D01*
X51181Y780D01*
X51156Y777D01*
X51326Y1005D01*
X51331Y977D01*
D02*
G37*
G36*
X25675Y786D02*
X25712Y755D01*
X25730Y742D01*
X25748Y731D01*
X25765Y723D01*
X25782Y716D01*
X25799Y711D01*
X25815Y708D01*
X25831Y707D01*
Y618D01*
X25815Y617D01*
X25799Y614D01*
X25782Y609D01*
X25765Y602D01*
X25748Y594D01*
X25730Y583D01*
X25712Y570D01*
X25694Y556D01*
X25675Y539D01*
X25656Y520D01*
Y805D01*
X25675Y786D01*
D02*
G37*
G36*
X52829Y361D02*
X52810Y379D01*
X52773Y411D01*
X52755Y423D01*
X52737Y434D01*
X52720Y443D01*
X52703Y450D01*
X52686Y455D01*
X52669Y458D01*
X52653Y459D01*
Y548D01*
X52669Y549D01*
X52686Y551D01*
X52703Y556D01*
X52720Y563D01*
X52737Y572D01*
X52755Y583D01*
X52773Y595D01*
X52791Y610D01*
X52810Y627D01*
X52829Y645D01*
Y361D01*
D02*
G37*
%LPC*%
G36*
X30703Y25019D02*
X30581D01*
X30469Y24973D01*
X30384Y24887D01*
X30265Y24891D01*
X30203Y24917D01*
X30081D01*
X29969Y24871D01*
X29884Y24785D01*
X29837Y24673D01*
Y24552D01*
X29884Y24440D01*
X29969Y24354D01*
X30081Y24308D01*
X30203D01*
X30220Y24315D01*
X30235Y24310D01*
X30337Y24226D01*
Y24158D01*
X30384Y24046D01*
X30469Y23960D01*
X30581Y23913D01*
X30703D01*
X30815Y23960D01*
X30900Y24046D01*
X30947Y24158D01*
Y24279D01*
X30900Y24391D01*
X30825Y24466D01*
X30900Y24542D01*
X30947Y24654D01*
Y24775D01*
X30900Y24887D01*
X30815Y24973D01*
X30703Y25019D01*
D02*
G37*
G36*
X32309Y23828D02*
X32188D01*
X32076Y23781D01*
X32018Y23724D01*
X31961Y23781D01*
X31849Y23828D01*
X31727D01*
X31615Y23781D01*
X31556Y23722D01*
X31496Y23781D01*
X31384Y23828D01*
X31263D01*
X31151Y23781D01*
X31065Y23696D01*
X31018Y23584D01*
Y23462D01*
X31065Y23350D01*
X31151Y23265D01*
X31263Y23218D01*
X31384D01*
X31496Y23265D01*
X31556Y23324D01*
X31615Y23265D01*
X31727Y23218D01*
X31849D01*
X31961Y23265D01*
X32018Y23322D01*
X32076Y23265D01*
X32188Y23218D01*
X32309D01*
X32421Y23265D01*
X32507Y23350D01*
X32553Y23462D01*
Y23584D01*
X32507Y23696D01*
X32421Y23781D01*
X32309Y23828D01*
D02*
G37*
G36*
X28722Y23838D02*
X28601D01*
X28489Y23792D01*
X28404Y23707D01*
X28320Y23792D01*
X28208Y23838D01*
X28087D01*
X27975Y23792D01*
X27890Y23707D01*
X27806Y23792D01*
X27694Y23838D01*
X27572D01*
X27460Y23792D01*
X27375Y23706D01*
X27328Y23594D01*
Y23473D01*
X27375Y23361D01*
X27460Y23275D01*
X27572Y23228D01*
X27694D01*
X27806Y23275D01*
X27890Y23359D01*
X27975Y23275D01*
X28087Y23228D01*
X28208D01*
X28320Y23275D01*
X28404Y23359D01*
X28489Y23275D01*
X28601Y23228D01*
X28722D01*
X28834Y23275D01*
X28920Y23361D01*
X28966Y23473D01*
Y23594D01*
X28920Y23706D01*
X28834Y23792D01*
X28722Y23838D01*
D02*
G37*
G36*
X55249Y25166D02*
X55007D01*
X54783Y25074D01*
X54611Y24902D01*
X54519Y24678D01*
Y24435D01*
X54611Y24211D01*
X54783Y24040D01*
X54902Y23990D01*
Y23853D01*
X54783Y23804D01*
X54611Y23632D01*
X54562Y23513D01*
X54424D01*
X54375Y23632D01*
X54203Y23804D01*
X53979Y23896D01*
X53737D01*
X53513Y23804D01*
X53341Y23632D01*
X53292Y23513D01*
X53154D01*
X53105Y23632D01*
X52933Y23804D01*
X52814Y23853D01*
Y23990D01*
X52933Y24040D01*
X53105Y24211D01*
X53198Y24435D01*
Y24678D01*
X53105Y24902D01*
X52933Y25074D01*
X52709Y25166D01*
X52467D01*
X52243Y25074D01*
X52071Y24902D01*
X52022Y24783D01*
X51884D01*
X51835Y24902D01*
X51663Y25074D01*
X51439Y25166D01*
X51197D01*
X50973Y25074D01*
X50801Y24902D01*
X50709Y24678D01*
Y24435D01*
X50801Y24211D01*
X50973Y24040D01*
X51013Y24023D01*
X51006Y23889D01*
X50709Y23592D01*
Y22982D01*
X50802Y22889D01*
X50801Y22850D01*
X50764Y22747D01*
X50688Y22715D01*
X50602Y22630D01*
X50555Y22518D01*
Y22396D01*
X50602Y22284D01*
X50688Y22199D01*
X50800Y22152D01*
X50921D01*
X51033Y22199D01*
X51119Y22284D01*
X51165Y22396D01*
Y22518D01*
X51152Y22550D01*
X51236Y22677D01*
X51582D01*
X51675Y22572D01*
X51653Y22518D01*
Y22396D01*
X51699Y22284D01*
X51785Y22199D01*
X51897Y22152D01*
X52018D01*
X52130Y22199D01*
X52216Y22284D01*
X52263Y22396D01*
Y22518D01*
X52216Y22630D01*
X52175Y22671D01*
X52243Y22770D01*
X52467Y22677D01*
X52679D01*
X52748Y22606D01*
X52770Y22565D01*
X52750Y22518D01*
Y22396D01*
X52797Y22284D01*
X52883Y22199D01*
X52995Y22152D01*
X53116D01*
X53228Y22199D01*
X53314Y22284D01*
X53360Y22396D01*
Y22518D01*
X53314Y22630D01*
X53228Y22715D01*
X53116Y22762D01*
X53105D01*
X53052Y22889D01*
X53105Y22941D01*
X53154Y23061D01*
X53292D01*
X53341Y22941D01*
X53513Y22770D01*
X53737Y22677D01*
X53777D01*
X53861Y22550D01*
X53848Y22518D01*
Y22396D01*
X53894Y22284D01*
X53980Y22199D01*
X54092Y22152D01*
X54213D01*
X54325Y22199D01*
X54411Y22284D01*
X54458Y22396D01*
Y22518D01*
X54411Y22630D01*
X54325Y22715D01*
X54298Y22864D01*
X54375Y22941D01*
X54424Y23061D01*
X54562D01*
X54611Y22941D01*
X54783Y22770D01*
X55007Y22677D01*
X55249D01*
X55473Y22770D01*
X55645Y22941D01*
X55738Y23165D01*
Y23408D01*
X55645Y23632D01*
X55473Y23804D01*
X55354Y23853D01*
Y23990D01*
X55473Y24040D01*
X55645Y24211D01*
X55738Y24435D01*
Y24678D01*
X55645Y24902D01*
X55473Y25074D01*
X55249Y25166D01*
D02*
G37*
G36*
X30203Y23647D02*
X30081D01*
X29969Y23601D01*
X29884Y23515D01*
X29837Y23403D01*
Y23282D01*
X29884Y23170D01*
X29969Y23084D01*
X30081Y23038D01*
X30203D01*
X30315Y23084D01*
X30400Y23170D01*
X30447Y23282D01*
Y23403D01*
X30400Y23515D01*
X30315Y23601D01*
X30203Y23647D01*
D02*
G37*
G36*
X34176Y23442D02*
X34054D01*
X33942Y23395D01*
X33857Y23310D01*
X33810Y23198D01*
Y23076D01*
X33857Y22964D01*
X33942Y22879D01*
X34054Y22832D01*
X34176D01*
X34288Y22879D01*
X34374Y22964D01*
X34420Y23076D01*
Y23198D01*
X34374Y23310D01*
X34288Y23395D01*
X34176Y23442D01*
D02*
G37*
G36*
X49470Y23322D02*
X49349D01*
X49237Y23276D01*
X49151Y23190D01*
X49105Y23078D01*
Y22957D01*
X49151Y22845D01*
X49237Y22759D01*
X49349Y22713D01*
X49470D01*
X49582Y22759D01*
X49668Y22845D01*
X49715Y22957D01*
Y23078D01*
X49668Y23190D01*
X49582Y23276D01*
X49470Y23322D01*
D02*
G37*
G36*
X45470D02*
X45349D01*
X45237Y23276D01*
X45151Y23190D01*
X45105Y23078D01*
Y22957D01*
X45151Y22845D01*
X45237Y22759D01*
X45349Y22713D01*
X45470D01*
X45582Y22759D01*
X45668Y22845D01*
X45715Y22957D01*
Y23078D01*
X45668Y23190D01*
X45582Y23276D01*
X45470Y23322D01*
D02*
G37*
G36*
X43870D02*
X43749D01*
X43637Y23276D01*
X43551Y23190D01*
X43505Y23078D01*
Y22957D01*
X43551Y22845D01*
X43637Y22759D01*
X43749Y22713D01*
X43870D01*
X43982Y22759D01*
X44068Y22845D01*
X44115Y22957D01*
Y23078D01*
X44068Y23190D01*
X43982Y23276D01*
X43870Y23322D01*
D02*
G37*
G36*
X39870D02*
X39749D01*
X39637Y23276D01*
X39551Y23190D01*
X39505Y23078D01*
Y22957D01*
X39551Y22845D01*
X39637Y22759D01*
X39749Y22713D01*
X39870D01*
X39982Y22759D01*
X40068Y22845D01*
X40115Y22957D01*
Y23078D01*
X40068Y23190D01*
X39982Y23276D01*
X39870Y23322D01*
D02*
G37*
G36*
X38270D02*
X38149D01*
X38037Y23276D01*
X37951Y23190D01*
X37905Y23078D01*
Y22957D01*
X37951Y22845D01*
X38037Y22759D01*
X38149Y22713D01*
X38270D01*
X38382Y22759D01*
X38468Y22845D01*
X38515Y22957D01*
Y23078D01*
X38468Y23190D01*
X38382Y23276D01*
X38270Y23322D01*
D02*
G37*
G36*
X47870Y23322D02*
X47749D01*
X47637Y23276D01*
X47551Y23190D01*
X47505Y23078D01*
Y22957D01*
X47551Y22845D01*
X47637Y22759D01*
X47749Y22713D01*
X47870D01*
X47982Y22759D01*
X48068Y22845D01*
X48115Y22957D01*
Y23078D01*
X48068Y23190D01*
X47982Y23276D01*
X47870Y23322D01*
D02*
G37*
G36*
X41620D02*
X41499D01*
X41387Y23276D01*
X41301Y23190D01*
X41255Y23078D01*
Y22957D01*
X41301Y22845D01*
X41387Y22759D01*
X41499Y22713D01*
X41620D01*
X41732Y22759D01*
X41818Y22845D01*
X41865Y22957D01*
Y23078D01*
X41818Y23190D01*
X41732Y23276D01*
X41620Y23322D01*
D02*
G37*
G36*
X57658Y24702D02*
X57342D01*
X57036Y24620D01*
X56762Y24462D01*
X56538Y24238D01*
X56380Y23964D01*
X56298Y23658D01*
Y23342D01*
X56380Y23036D01*
X56538Y22762D01*
X56762Y22538D01*
X57036Y22380D01*
X57342Y22298D01*
X57658D01*
X57964Y22380D01*
X58238Y22538D01*
X58462Y22762D01*
X58620Y23036D01*
X58702Y23342D01*
Y23658D01*
X58620Y23964D01*
X58462Y24238D01*
X58238Y24462D01*
X57964Y24620D01*
X57658Y24702D01*
D02*
G37*
G36*
X32566Y22835D02*
X32444D01*
X32332Y22788D01*
X32247Y22702D01*
X32200Y22590D01*
Y22469D01*
X32247Y22357D01*
X32332Y22271D01*
X32444Y22225D01*
X32566D01*
X32678Y22271D01*
X32763Y22357D01*
X32810Y22469D01*
Y22590D01*
X32763Y22702D01*
X32678Y22788D01*
X32566Y22835D01*
D02*
G37*
G36*
X27467D02*
X27346D01*
X27234Y22788D01*
X27148Y22702D01*
X27102Y22590D01*
Y22469D01*
X27148Y22357D01*
X27234Y22271D01*
X27346Y22225D01*
X27467D01*
X27579Y22271D01*
X27665Y22357D01*
X27711Y22469D01*
Y22590D01*
X27665Y22702D01*
X27579Y22788D01*
X27467Y22835D01*
D02*
G37*
G36*
X49470Y22522D02*
X49349D01*
X49237Y22476D01*
X49151Y22390D01*
X49105Y22278D01*
Y22157D01*
X49151Y22045D01*
X49237Y21959D01*
X49349Y21913D01*
X49470D01*
X49582Y21959D01*
X49668Y22045D01*
X49715Y22157D01*
Y22278D01*
X49668Y22390D01*
X49582Y22476D01*
X49470Y22522D01*
D02*
G37*
G36*
X48670D02*
X48549D01*
X48437Y22476D01*
X48351Y22390D01*
X48305Y22278D01*
Y22157D01*
X48351Y22045D01*
X48437Y21959D01*
X48549Y21913D01*
X48670D01*
X48782Y21959D01*
X48868Y22045D01*
X48915Y22157D01*
Y22278D01*
X48868Y22390D01*
X48782Y22476D01*
X48670Y22522D01*
D02*
G37*
G36*
X39870D02*
X39749D01*
X39637Y22476D01*
X39551Y22390D01*
X39505Y22278D01*
Y22157D01*
X39551Y22045D01*
X39637Y21959D01*
X39749Y21913D01*
X39870D01*
X39982Y21959D01*
X40068Y22045D01*
X40115Y22157D01*
Y22278D01*
X40068Y22390D01*
X39982Y22476D01*
X39870Y22522D01*
D02*
G37*
G36*
X39070D02*
X38949D01*
X38837Y22476D01*
X38751Y22390D01*
X38705Y22278D01*
Y22157D01*
X38751Y22045D01*
X38837Y21959D01*
X38949Y21913D01*
X39070D01*
X39182Y21959D01*
X39268Y22045D01*
X39315Y22157D01*
Y22278D01*
X39268Y22390D01*
X39182Y22476D01*
X39070Y22522D01*
D02*
G37*
G36*
X38270D02*
X38149D01*
X38037Y22476D01*
X37951Y22390D01*
X37905Y22278D01*
Y22157D01*
X37951Y22045D01*
X38037Y21959D01*
X38149Y21913D01*
X38270D01*
X38382Y21959D01*
X38468Y22045D01*
X38515Y22157D01*
Y22278D01*
X38468Y22390D01*
X38382Y22476D01*
X38270Y22522D01*
D02*
G37*
G36*
X37470D02*
X37349D01*
X37237Y22476D01*
X37151Y22390D01*
X37105Y22278D01*
Y22157D01*
X37151Y22045D01*
X37237Y21959D01*
X37349Y21913D01*
X37470D01*
X37582Y21959D01*
X37668Y22045D01*
X37715Y22157D01*
Y22278D01*
X37668Y22390D01*
X37582Y22476D01*
X37470Y22522D01*
D02*
G37*
G36*
X47870Y22522D02*
X47749D01*
X47637Y22476D01*
X47551Y22390D01*
X47505Y22278D01*
Y22157D01*
X47551Y22045D01*
X47637Y21959D01*
X47749Y21913D01*
X47870D01*
X47982Y21959D01*
X48068Y22045D01*
X48115Y22157D01*
Y22278D01*
X48068Y22390D01*
X47982Y22476D01*
X47870Y22522D01*
D02*
G37*
G36*
X32538Y21858D02*
X32417D01*
X32305Y21812D01*
X32219Y21726D01*
X32173Y21614D01*
Y21493D01*
X32219Y21381D01*
X32305Y21295D01*
X32417Y21249D01*
X32538D01*
X32650Y21295D01*
X32736Y21381D01*
X32782Y21493D01*
Y21614D01*
X32736Y21726D01*
X32650Y21812D01*
X32538Y21858D01*
D02*
G37*
G36*
X49145Y21517D02*
X49024D01*
X48912Y21471D01*
X48826Y21385D01*
X48780Y21273D01*
Y21152D01*
X48826Y21040D01*
X48912Y20954D01*
X49024Y20907D01*
X49145D01*
X49257Y20954D01*
X49343Y21040D01*
X49390Y21152D01*
Y21273D01*
X49343Y21385D01*
X49257Y21471D01*
X49145Y21517D01*
D02*
G37*
G36*
X37945D02*
X37824D01*
X37712Y21471D01*
X37626Y21385D01*
X37580Y21273D01*
Y21152D01*
X37626Y21040D01*
X37712Y20954D01*
X37824Y20907D01*
X37945D01*
X38057Y20954D01*
X38143Y21040D01*
X38190Y21152D01*
Y21273D01*
X38143Y21385D01*
X38057Y21471D01*
X37945Y21517D01*
D02*
G37*
G36*
X38745Y21517D02*
X38624D01*
X38512Y21471D01*
X38426Y21385D01*
X38380Y21273D01*
Y21152D01*
X38426Y21040D01*
X38512Y20954D01*
X38624Y20907D01*
X38745D01*
X38857Y20954D01*
X38943Y21040D01*
X38990Y21152D01*
Y21273D01*
X38943Y21385D01*
X38857Y21471D01*
X38745Y21517D01*
D02*
G37*
G36*
X37145D02*
X37024D01*
X36912Y21471D01*
X36826Y21385D01*
X36780Y21273D01*
Y21152D01*
X36826Y21040D01*
X36912Y20954D01*
X37024Y20907D01*
X37145D01*
X37257Y20954D01*
X37343Y21040D01*
X37390Y21152D01*
Y21273D01*
X37343Y21385D01*
X37257Y21471D01*
X37145Y21517D01*
D02*
G37*
G36*
X54213Y21297D02*
X54092D01*
X53980Y21250D01*
X53894Y21164D01*
X53848Y21052D01*
Y20931D01*
X53894Y20819D01*
X53980Y20733D01*
X54092Y20687D01*
X54213D01*
X54325Y20733D01*
X54411Y20819D01*
X54458Y20931D01*
Y21052D01*
X54411Y21164D01*
X54325Y21250D01*
X54213Y21297D01*
D02*
G37*
G36*
X53116D02*
X52995D01*
X52883Y21250D01*
X52797Y21164D01*
X52750Y21052D01*
Y20931D01*
X52797Y20819D01*
X52883Y20733D01*
X52995Y20687D01*
X53116D01*
X53228Y20733D01*
X53314Y20819D01*
X53360Y20931D01*
Y21052D01*
X53314Y21164D01*
X53228Y21250D01*
X53116Y21297D01*
D02*
G37*
G36*
X35697Y22504D02*
X35576D01*
X35464Y22458D01*
X35378Y22372D01*
X35331Y22260D01*
Y22139D01*
X35378Y22027D01*
X35402Y22003D01*
X35451Y21920D01*
X35402Y21837D01*
X35378Y21813D01*
X35331Y21701D01*
Y21580D01*
X35378Y21468D01*
X35443Y21403D01*
X35436Y21306D01*
X35420Y21263D01*
X35362Y21239D01*
X35276Y21153D01*
X35230Y21041D01*
Y20920D01*
X35276Y20808D01*
X35362Y20722D01*
X35443Y20688D01*
X35459Y20576D01*
X35456Y20556D01*
X35387Y20528D01*
X35302Y20442D01*
X35255Y20330D01*
Y20209D01*
X35302Y20097D01*
X35387Y20011D01*
X35499Y19964D01*
X35621D01*
X35733Y20011D01*
X35818Y20097D01*
X35865Y20209D01*
Y20330D01*
X35818Y20442D01*
X35733Y20528D01*
X35651Y20561D01*
X35636Y20674D01*
X35639Y20694D01*
X35707Y20722D01*
X35793Y20808D01*
X35839Y20920D01*
Y21041D01*
X35793Y21153D01*
X35727Y21219D01*
X35735Y21315D01*
X35751Y21358D01*
X35809Y21382D01*
X35895Y21468D01*
X35941Y21580D01*
Y21701D01*
X35895Y21813D01*
X35871Y21837D01*
X35821Y21920D01*
X35871Y22003D01*
X35895Y22027D01*
X35941Y22139D01*
Y22260D01*
X35895Y22372D01*
X35809Y22458D01*
X35697Y22504D01*
D02*
G37*
G36*
X32477Y19526D02*
X32356D01*
X32244Y19480D01*
X32158Y19394D01*
X32111Y19282D01*
Y19161D01*
X32158Y19049D01*
X32244Y18963D01*
X32356Y18917D01*
X32477D01*
X32589Y18963D01*
X32675Y19049D01*
X32721Y19161D01*
Y19282D01*
X32675Y19394D01*
X32589Y19480D01*
X32477Y19526D01*
D02*
G37*
G36*
X31269Y18705D02*
X31148D01*
X31036Y18658D01*
X30950Y18573D01*
X30904Y18461D01*
Y18339D01*
X30950Y18227D01*
X31036Y18142D01*
X31148Y18095D01*
X31269D01*
X31381Y18142D01*
X31467Y18227D01*
X31513Y18339D01*
Y18461D01*
X31467Y18573D01*
X31381Y18658D01*
X31269Y18705D01*
D02*
G37*
G36*
X32203Y17903D02*
X32081D01*
X31969Y17857D01*
X31884Y17771D01*
X31837Y17659D01*
Y17538D01*
X31884Y17426D01*
X31969Y17340D01*
X32081Y17294D01*
X32203D01*
X32315Y17340D01*
X32400Y17426D01*
X32447Y17538D01*
Y17659D01*
X32400Y17771D01*
X32315Y17857D01*
X32203Y17903D01*
D02*
G37*
G36*
X43617Y10842D02*
X43506D01*
X43403Y10799D01*
X43325Y10721D01*
X43282Y10618D01*
Y10507D01*
X43325Y10404D01*
X43403Y10326D01*
X43506Y10283D01*
X43617D01*
X43720Y10326D01*
X43798Y10404D01*
X43841Y10507D01*
Y10618D01*
X43798Y10721D01*
X43720Y10799D01*
X43617Y10842D01*
D02*
G37*
G36*
X44917Y10192D02*
X44806D01*
X44703Y10149D01*
X44625Y10071D01*
X44605Y10024D01*
X44468D01*
X44448Y10071D01*
X44370Y10149D01*
X44267Y10192D01*
X44156D01*
X44053Y10149D01*
X43975Y10071D01*
X43932Y9968D01*
Y9857D01*
X43975Y9754D01*
X44053Y9676D01*
X44156Y9633D01*
X44267D01*
X44370Y9676D01*
X44448Y9754D01*
X44468Y9801D01*
X44605D01*
X44625Y9754D01*
X44703Y9676D01*
X44750Y9656D01*
Y9519D01*
X44703Y9499D01*
X44625Y9421D01*
X44582Y9318D01*
Y9207D01*
X44625Y9104D01*
X44703Y9026D01*
X44806Y8983D01*
X44917D01*
X45020Y9026D01*
X45098Y9104D01*
X45141Y9207D01*
Y9318D01*
X45098Y9421D01*
X45020Y9499D01*
X44973Y9519D01*
Y9656D01*
X45020Y9676D01*
X45098Y9754D01*
X45141Y9857D01*
Y9968D01*
X45098Y10071D01*
X45020Y10149D01*
X44917Y10192D01*
D02*
G37*
G36*
X42967D02*
X42856D01*
X42753Y10149D01*
X42675Y10071D01*
X42632Y9968D01*
Y9857D01*
X42675Y9754D01*
X42753Y9676D01*
X42856Y9633D01*
X42967D01*
X43070Y9676D01*
X43148Y9754D01*
X43191Y9857D01*
Y9968D01*
X43148Y10071D01*
X43070Y10149D01*
X42967Y10192D01*
D02*
G37*
G36*
X55602Y14207D02*
X55481D01*
X55369Y14160D01*
X55283Y14075D01*
X55236Y13962D01*
Y13841D01*
X55283Y13729D01*
X55330Y13682D01*
X55355Y13602D01*
X55330Y13522D01*
X55283Y13475D01*
X55236Y13362D01*
Y13241D01*
X55283Y13129D01*
X55330Y13082D01*
X55355Y13002D01*
X55330Y12922D01*
X55283Y12875D01*
X55236Y12762D01*
Y12641D01*
X55283Y12529D01*
X55330Y12482D01*
X55355Y12402D01*
X55330Y12322D01*
X55283Y12275D01*
X55236Y12162D01*
Y12041D01*
X55283Y11929D01*
X55330Y11882D01*
X55355Y11802D01*
X55330Y11722D01*
X55283Y11675D01*
X55236Y11562D01*
Y11441D01*
X55283Y11329D01*
X55330Y11282D01*
X55355Y11202D01*
X55330Y11122D01*
X55283Y11075D01*
X55236Y10962D01*
Y10841D01*
X55283Y10729D01*
X55330Y10682D01*
X55355Y10602D01*
X55330Y10522D01*
X55283Y10475D01*
X55236Y10362D01*
Y10241D01*
X55283Y10129D01*
X55330Y10082D01*
X55355Y10002D01*
X55330Y9922D01*
X55283Y9875D01*
X55236Y9762D01*
Y9641D01*
X55283Y9529D01*
X55369Y9443D01*
X55481Y9397D01*
X55602D01*
X55714Y9443D01*
X55800Y9529D01*
X55846Y9641D01*
Y9762D01*
X55800Y9875D01*
X55752Y9922D01*
X55727Y10002D01*
X55752Y10082D01*
X55800Y10129D01*
X55846Y10241D01*
Y10362D01*
X55800Y10475D01*
X55752Y10522D01*
X55727Y10602D01*
X55752Y10682D01*
X55800Y10729D01*
X55846Y10841D01*
Y10962D01*
X55800Y11075D01*
X55752Y11122D01*
X55727Y11202D01*
X55752Y11282D01*
X55800Y11329D01*
X55846Y11441D01*
Y11562D01*
X55800Y11675D01*
X55752Y11722D01*
X55727Y11802D01*
X55752Y11882D01*
X55800Y11929D01*
X55846Y12041D01*
Y12162D01*
X55800Y12275D01*
X55752Y12322D01*
X55727Y12402D01*
X55752Y12482D01*
X55800Y12529D01*
X55846Y12641D01*
Y12762D01*
X55800Y12875D01*
X55752Y12922D01*
X55727Y13002D01*
X55752Y13082D01*
X55800Y13129D01*
X55846Y13241D01*
Y13362D01*
X55800Y13475D01*
X55752Y13522D01*
X55727Y13602D01*
X55752Y13682D01*
X55800Y13729D01*
X55846Y13841D01*
Y13962D01*
X55800Y14075D01*
X55714Y14160D01*
X55602Y14207D01*
D02*
G37*
G36*
X46867Y9542D02*
X46756D01*
X46653Y9499D01*
X46575Y9421D01*
X46532Y9318D01*
Y9207D01*
X46575Y9104D01*
X46653Y9026D01*
X46756Y8983D01*
X46867D01*
X46970Y9026D01*
X47048Y9104D01*
X47091Y9207D01*
Y9318D01*
X47048Y9421D01*
X46970Y9499D01*
X46867Y9542D01*
D02*
G37*
G36*
X43617D02*
X43506D01*
X43403Y9499D01*
X43325Y9421D01*
X43282Y9318D01*
Y9207D01*
X43325Y9104D01*
X43403Y9026D01*
X43506Y8983D01*
X43617D01*
X43720Y9026D01*
X43798Y9104D01*
X43841Y9207D01*
Y9318D01*
X43798Y9421D01*
X43720Y9499D01*
X43617Y9542D01*
D02*
G37*
G36*
X55900Y8814D02*
X55779D01*
X55667Y8767D01*
X55581Y8682D01*
X55535Y8570D01*
Y8448D01*
X55581Y8336D01*
X55667Y8251D01*
X55779Y8204D01*
X55900D01*
X56012Y8251D01*
X56098Y8336D01*
X56129Y8411D01*
X56172Y8415D01*
X56261Y8399D01*
X56297Y8311D01*
X56383Y8225D01*
X56495Y8179D01*
X56616D01*
X56728Y8225D01*
X56814Y8311D01*
X56860Y8423D01*
Y8544D01*
X56814Y8656D01*
X56728Y8742D01*
X56616Y8788D01*
X56495D01*
X56383Y8742D01*
X56297Y8656D01*
X56266Y8581D01*
X56223Y8577D01*
X56134Y8594D01*
X56098Y8682D01*
X56012Y8767D01*
X55900Y8814D01*
D02*
G37*
G36*
X56438Y7960D02*
X56317D01*
X56205Y7914D01*
X56119Y7828D01*
X56073Y7716D01*
Y7595D01*
X56119Y7483D01*
X56205Y7397D01*
X56249Y7379D01*
Y7241D01*
X56205Y7223D01*
X56119Y7137D01*
X56073Y7025D01*
Y6904D01*
X56119Y6792D01*
X56205Y6706D01*
X56317Y6660D01*
X56438D01*
X56550Y6706D01*
X56636Y6792D01*
X56683Y6904D01*
Y7025D01*
X56636Y7137D01*
X56550Y7223D01*
X56506Y7241D01*
Y7379D01*
X56550Y7397D01*
X56636Y7483D01*
X56683Y7595D01*
Y7716D01*
X56636Y7828D01*
X56550Y7914D01*
X56438Y7960D01*
D02*
G37*
G36*
X52018Y6967D02*
X51897D01*
X51785Y6921D01*
X51699Y6835D01*
X51653Y6723D01*
Y6602D01*
X51699Y6490D01*
X51785Y6404D01*
X51897Y6358D01*
X52018D01*
X52130Y6404D01*
X52216Y6490D01*
X52263Y6602D01*
Y6723D01*
X52216Y6835D01*
X52130Y6921D01*
X52018Y6967D01*
D02*
G37*
G36*
X52276Y4666D02*
X52155D01*
X52043Y4620D01*
X51957Y4534D01*
X51911Y4422D01*
Y4301D01*
X51957Y4189D01*
X51982Y4165D01*
X52018Y4063D01*
X51980Y4000D01*
X51939Y3959D01*
X51893Y3847D01*
Y3726D01*
X51939Y3614D01*
X52025Y3528D01*
X52137Y3482D01*
X52258D01*
X52370Y3528D01*
X52456Y3614D01*
X52502Y3726D01*
Y3847D01*
X52456Y3959D01*
X52431Y3984D01*
X52395Y4085D01*
X52433Y4148D01*
X52474Y4189D01*
X52521Y4301D01*
Y4422D01*
X52474Y4534D01*
X52388Y4620D01*
X52276Y4666D01*
D02*
G37*
G36*
X52760Y3334D02*
X52638D01*
X52526Y3287D01*
X52441Y3202D01*
X52394Y3090D01*
Y2968D01*
X52441Y2856D01*
X52526Y2771D01*
X52638Y2724D01*
X52760D01*
X52872Y2771D01*
X52957Y2856D01*
X53004Y2968D01*
Y3090D01*
X52957Y3202D01*
X52872Y3287D01*
X52760Y3334D01*
D02*
G37*
G36*
X57658Y3702D02*
X57342D01*
X57036Y3620D01*
X56762Y3462D01*
X56538Y3238D01*
X56380Y2964D01*
X56298Y2658D01*
Y2342D01*
X56380Y2036D01*
X56538Y1762D01*
X56762Y1538D01*
X57036Y1380D01*
X57342Y1298D01*
X57658D01*
X57964Y1380D01*
X58238Y1538D01*
X58462Y1762D01*
X58620Y2036D01*
X58702Y2342D01*
Y2658D01*
X58620Y2964D01*
X58462Y3238D01*
X58238Y3462D01*
X57964Y3620D01*
X57658Y3702D01*
D02*
G37*
G36*
X15498Y23373D02*
X15376D01*
X15264Y23327D01*
X15179Y23241D01*
X15132Y23129D01*
Y23008D01*
X15179Y22896D01*
X15264Y22810D01*
X15376Y22764D01*
X15498D01*
X15610Y22810D01*
X15695Y22896D01*
X15742Y23008D01*
Y23129D01*
X15695Y23241D01*
X15610Y23327D01*
X15498Y23373D01*
D02*
G37*
G36*
X2658Y25102D02*
X2342D01*
X2036Y25020D01*
X1762Y24862D01*
X1538Y24638D01*
X1380Y24364D01*
X1298Y24058D01*
Y23742D01*
X1380Y23436D01*
X1538Y23162D01*
X1762Y22938D01*
X2036Y22780D01*
X2342Y22698D01*
X2658D01*
X2964Y22780D01*
X3238Y22938D01*
X3462Y23162D01*
X3620Y23436D01*
X3702Y23742D01*
Y24058D01*
X3620Y24364D01*
X3462Y24638D01*
X3238Y24862D01*
X2964Y25020D01*
X2658Y25102D01*
D02*
G37*
G36*
X16012Y25462D02*
X15891D01*
X15779Y25416D01*
X15693Y25330D01*
X15646Y25218D01*
Y25176D01*
X15638Y25157D01*
X15638Y25133D01*
X15637Y25113D01*
X15635Y25096D01*
X15632Y25081D01*
X15629Y25069D01*
X15626Y25059D01*
X15624Y25053D01*
X14341Y23771D01*
X14295Y23659D01*
Y23037D01*
X14292Y23032D01*
X14288Y23023D01*
X14281Y23012D01*
X14273Y23001D01*
X14248Y22970D01*
X14232Y22954D01*
X14224Y22934D01*
X14194Y22905D01*
X14148Y22793D01*
Y22672D01*
X14164Y22632D01*
X14083Y22505D01*
X10441D01*
X10388Y22632D01*
X10405Y22649D01*
X10452Y22761D01*
Y22883D01*
X10405Y22995D01*
X10320Y23080D01*
X10208Y23127D01*
X10086D01*
X9974Y23080D01*
X9889Y22995D01*
X9842Y22883D01*
Y22761D01*
X9889Y22649D01*
X9906Y22632D01*
X9853Y22505D01*
X7499D01*
X7040Y22964D01*
X7037Y22970D01*
X7034Y22980D01*
X7031Y22992D01*
X7029Y23006D01*
X7025Y23045D01*
X7025Y23068D01*
X7017Y23087D01*
Y23129D01*
X6970Y23241D01*
X6885Y23327D01*
X6773Y23373D01*
X6651D01*
X6539Y23327D01*
X6454Y23241D01*
X6407Y23129D01*
Y23008D01*
X6454Y22896D01*
X6539Y22810D01*
X6651Y22764D01*
X6693D01*
X6713Y22755D01*
X6737Y22755D01*
X6756Y22754D01*
X6773Y22752D01*
X6788Y22749D01*
X6801Y22746D01*
X6810Y22743D01*
X6816Y22741D01*
X7322Y22235D01*
X7434Y22189D01*
X14263D01*
X14288Y22062D01*
X14280Y22058D01*
X14194Y21973D01*
X14148Y21861D01*
Y21739D01*
X14194Y21627D01*
X14280Y21542D01*
X14392Y21495D01*
X14513D01*
X14625Y21542D01*
X14711Y21627D01*
X14757Y21739D01*
Y21861D01*
X14711Y21973D01*
X14625Y22058D01*
X14617Y22062D01*
X14642Y22189D01*
X16027D01*
X16033Y22186D01*
X16042Y22182D01*
X16053Y22175D01*
X16064Y22167D01*
X16094Y22142D01*
X16110Y22126D01*
X16130Y22118D01*
X16160Y22088D01*
X16272Y22042D01*
X16393D01*
X16505Y22088D01*
X16591Y22174D01*
X16637Y22286D01*
Y22407D01*
X16591Y22519D01*
X16505Y22605D01*
X16393Y22652D01*
X16272D01*
X16160Y22605D01*
X16130Y22576D01*
X16110Y22568D01*
X16093Y22551D01*
X16078Y22538D01*
X16065Y22527D01*
X16053Y22518D01*
X16042Y22512D01*
X16033Y22507D01*
X16027Y22505D01*
X14822D01*
X14741Y22632D01*
X14757Y22672D01*
Y22793D01*
X14711Y22905D01*
X14681Y22934D01*
X14673Y22954D01*
X14657Y22971D01*
X14644Y22986D01*
X14633Y22999D01*
X14624Y23012D01*
X14618Y23023D01*
X14613Y23032D01*
X14611Y23037D01*
Y23593D01*
X15847Y24830D01*
X15853Y24832D01*
X15863Y24835D01*
X15875Y24838D01*
X15888Y24841D01*
X15928Y24844D01*
X15950Y24844D01*
X15970Y24853D01*
X16012D01*
X16124Y24899D01*
X16210Y24985D01*
X16256Y25097D01*
Y25218D01*
X16210Y25330D01*
X16124Y25416D01*
X16012Y25462D01*
D02*
G37*
G36*
X20178Y23331D02*
X20056D01*
X19944Y23284D01*
X19859Y23198D01*
X19812Y23086D01*
Y23070D01*
X19795Y22963D01*
X19695Y22953D01*
X19672D01*
X19560Y22907D01*
X19475Y22821D01*
X19428Y22709D01*
Y22588D01*
X19475Y22476D01*
X19560Y22390D01*
X19672Y22343D01*
X19688D01*
X19795Y22326D01*
X19806Y22226D01*
Y22203D01*
X19852Y22091D01*
X19938Y22006D01*
X20050Y21959D01*
X20171D01*
X20283Y22006D01*
X20369Y22091D01*
X20415Y22203D01*
Y22219D01*
X20432Y22326D01*
X20533Y22337D01*
X20555D01*
X20667Y22383D01*
X20753Y22469D01*
X20799Y22581D01*
Y22702D01*
X20753Y22814D01*
X20667Y22900D01*
X20555Y22946D01*
X20539D01*
X20432Y22963D01*
X20422Y23064D01*
Y23086D01*
X20375Y23198D01*
X20290Y23284D01*
X20178Y23331D01*
D02*
G37*
G36*
X24534Y21805D02*
X24413D01*
X24301Y21758D01*
X24215Y21672D01*
X24169Y21560D01*
Y21439D01*
X24215Y21327D01*
X24301Y21241D01*
X24413Y21195D01*
X24534D01*
X24646Y21241D01*
X24732Y21327D01*
X24778Y21439D01*
Y21560D01*
X24732Y21672D01*
X24646Y21758D01*
X24534Y21805D01*
D02*
G37*
G36*
X3452Y21511D02*
X3254D01*
X3063Y21460D01*
X2891Y21361D01*
X2751Y21221D01*
X2652Y21050D01*
X2601Y20859D01*
Y20661D01*
X2652Y20470D01*
X2751Y20298D01*
X2891Y20158D01*
X3063Y20059D01*
X3254Y20008D01*
X3452D01*
X3643Y20059D01*
X3814Y20158D01*
X3954Y20298D01*
X4053Y20470D01*
X4104Y20661D01*
Y20859D01*
X4053Y21050D01*
X3954Y21221D01*
X3814Y21361D01*
X3643Y21460D01*
X3452Y21511D01*
D02*
G37*
G36*
X25772Y20244D02*
X25651D01*
X25539Y20197D01*
X25453Y20112D01*
X25407Y20000D01*
Y19878D01*
X25453Y19766D01*
X25539Y19681D01*
X25651Y19634D01*
X25772D01*
X25884Y19681D01*
X25970Y19766D01*
X26016Y19878D01*
Y20000D01*
X25970Y20112D01*
X25884Y20197D01*
X25772Y20244D01*
D02*
G37*
G36*
X21787Y20689D02*
X21666D01*
X21554Y20643D01*
X21468Y20557D01*
X21422Y20445D01*
Y20324D01*
X21468Y20212D01*
X21480Y20201D01*
X21543Y20113D01*
X21480Y20035D01*
X21464Y20019D01*
X21417Y19907D01*
Y19785D01*
X21464Y19673D01*
X21550Y19588D01*
X21662Y19541D01*
X21783D01*
X21895Y19588D01*
X21906Y19599D01*
X21994Y19663D01*
X22072Y19599D01*
X22088Y19583D01*
X22200Y19537D01*
X22321D01*
X22433Y19583D01*
X22519Y19669D01*
X22566Y19781D01*
Y19902D01*
X22519Y20014D01*
X22508Y20025D01*
X22444Y20113D01*
X22508Y20191D01*
X22524Y20207D01*
X22570Y20319D01*
Y20441D01*
X22524Y20553D01*
X22438Y20638D01*
X22326Y20685D01*
X22205D01*
X22093Y20638D01*
X22081Y20627D01*
X21994Y20564D01*
X21915Y20627D01*
X21899Y20643D01*
X21787Y20689D01*
D02*
G37*
G36*
X27391Y19406D02*
X27270D01*
X27158Y19360D01*
X27072Y19274D01*
X27026Y19162D01*
Y19041D01*
X27072Y18929D01*
X27158Y18843D01*
X27270Y18797D01*
X27391D01*
X27503Y18843D01*
X27589Y18929D01*
X27635Y19041D01*
Y19162D01*
X27589Y19274D01*
X27503Y19360D01*
X27391Y19406D01*
D02*
G37*
G36*
X25846D02*
X25725D01*
X25613Y19360D01*
X25527Y19274D01*
X25481Y19162D01*
Y19041D01*
X25527Y18929D01*
X25613Y18843D01*
X25725Y18797D01*
X25846D01*
X25958Y18843D01*
X26044Y18929D01*
X26091Y19041D01*
Y19162D01*
X26044Y19274D01*
X25958Y19360D01*
X25846Y19406D01*
D02*
G37*
G36*
X19365Y20105D02*
X19244D01*
X19132Y20058D01*
X19046Y19973D01*
X18999Y19861D01*
Y19845D01*
X18982Y19738D01*
X18882Y19727D01*
X18860D01*
X18747Y19681D01*
X18662Y19595D01*
X18615Y19483D01*
Y19362D01*
X18662Y19250D01*
X18747Y19164D01*
X18860Y19118D01*
X18876D01*
X18983Y19101D01*
X18993Y19000D01*
Y18978D01*
X19039Y18866D01*
X19125Y18780D01*
X19237Y18733D01*
X19358D01*
X19470Y18780D01*
X19556Y18866D01*
X19603Y18978D01*
Y18994D01*
X19620Y19101D01*
X19720Y19111D01*
X19742D01*
X19854Y19157D01*
X19940Y19243D01*
X19987Y19355D01*
Y19476D01*
X19940Y19588D01*
X19854Y19674D01*
X19742Y19721D01*
X19726D01*
X19619Y19738D01*
X19609Y19838D01*
Y19861D01*
X19563Y19973D01*
X19477Y20058D01*
X19365Y20105D01*
D02*
G37*
G36*
X8682Y19065D02*
X8561D01*
X8449Y19019D01*
X8363Y18933D01*
X8317Y18821D01*
Y18700D01*
X8363Y18588D01*
X8375Y18576D01*
X8438Y18489D01*
X8375Y18410D01*
X8359Y18394D01*
X8312Y18282D01*
Y18161D01*
X8359Y18049D01*
X8444Y17963D01*
X8556Y17917D01*
X8678D01*
X8790Y17963D01*
X8801Y17975D01*
X8889Y18038D01*
X8967Y17975D01*
X8983Y17959D01*
X9095Y17912D01*
X9216D01*
X9328Y17959D01*
X9414Y18044D01*
X9460Y18157D01*
Y18278D01*
X9414Y18390D01*
X9403Y18401D01*
X9339Y18489D01*
X9403Y18567D01*
X9419Y18583D01*
X9465Y18695D01*
Y18816D01*
X9419Y18928D01*
X9333Y19014D01*
X9221Y19061D01*
X9100D01*
X8988Y19014D01*
X8976Y19003D01*
X8889Y18939D01*
X8810Y19003D01*
X8794Y19019D01*
X8682Y19065D01*
D02*
G37*
G36*
X27703Y17903D02*
X27581D01*
X27469Y17857D01*
X27384Y17771D01*
X27337Y17659D01*
Y17538D01*
X27384Y17426D01*
X27469Y17340D01*
X27581Y17294D01*
X27703D01*
X27815Y17340D01*
X27900Y17426D01*
X27947Y17538D01*
Y17659D01*
X27900Y17771D01*
X27815Y17857D01*
X27703Y17903D01*
D02*
G37*
G36*
X23352Y17653D02*
X23231D01*
X23119Y17607D01*
X23033Y17521D01*
X22987Y17409D01*
Y17288D01*
X23033Y17176D01*
X23119Y17090D01*
X23231Y17043D01*
X23352D01*
X23464Y17090D01*
X23550Y17176D01*
X23597Y17288D01*
Y17409D01*
X23550Y17521D01*
X23464Y17607D01*
X23352Y17653D01*
D02*
G37*
G36*
X24440Y17390D02*
X24319D01*
X24207Y17343D01*
X24121Y17258D01*
X24074Y17146D01*
Y17024D01*
X24121Y16912D01*
X24207Y16827D01*
X24319Y16780D01*
X24440D01*
X24552Y16827D01*
X24638Y16912D01*
X24684Y17024D01*
Y17146D01*
X24638Y17258D01*
X24552Y17343D01*
X24440Y17390D01*
D02*
G37*
G36*
X5556Y17977D02*
X4556D01*
X4386Y17955D01*
X4228Y17889D01*
X4091Y17785D01*
X3987Y17649D01*
X3921Y17490D01*
X3899Y17320D01*
X3906Y17270D01*
X3899Y17220D01*
Y16838D01*
X3860Y16797D01*
X3780Y16750D01*
X3776Y16752D01*
X3636D01*
X3507Y16698D01*
X3408Y16599D01*
X3355Y16470D01*
Y16330D01*
X3408Y16201D01*
X3507Y16102D01*
X3636Y16048D01*
X3776D01*
X3905Y16102D01*
X4004Y16201D01*
X4024Y16247D01*
X4175Y16291D01*
X4228Y16251D01*
X4386Y16185D01*
X4556Y16163D01*
X4726Y16185D01*
X4885Y16251D01*
X5021Y16355D01*
X5125Y16491D01*
X5191Y16650D01*
X5193Y16663D01*
X5556D01*
X5726Y16685D01*
X5885Y16751D01*
X6021Y16855D01*
X6125Y16991D01*
X6191Y17150D01*
X6213Y17320D01*
X6191Y17490D01*
X6125Y17649D01*
X6021Y17785D01*
X5885Y17889D01*
X5726Y17955D01*
X5556Y17977D01*
D02*
G37*
G36*
X12126Y17043D02*
X12004D01*
X11892Y16997D01*
X11807Y16911D01*
X11760Y16799D01*
Y16678D01*
X11807Y16566D01*
X11892Y16480D01*
X12004Y16434D01*
X12126D01*
X12238Y16480D01*
X12323Y16566D01*
X12370Y16678D01*
Y16799D01*
X12323Y16911D01*
X12238Y16997D01*
X12126Y17043D01*
D02*
G37*
G36*
X7274Y16562D02*
X7153D01*
X7041Y16515D01*
X6955Y16429D01*
X6909Y16317D01*
Y16196D01*
X6955Y16084D01*
X6966Y16073D01*
X7034Y15990D01*
X6966Y15907D01*
X6955Y15896D01*
X6909Y15784D01*
Y15663D01*
X6955Y15551D01*
X7041Y15465D01*
X7153Y15418D01*
X7274D01*
X7386Y15465D01*
X7472Y15551D01*
X7518Y15663D01*
Y15784D01*
X7472Y15896D01*
X7461Y15907D01*
X7393Y15990D01*
X7461Y16073D01*
X7472Y16084D01*
X7518Y16196D01*
Y16317D01*
X7472Y16429D01*
X7386Y16515D01*
X7274Y16562D01*
D02*
G37*
G36*
X26424Y15206D02*
X26303D01*
X26191Y15160D01*
X26105Y15074D01*
X26059Y14962D01*
Y14841D01*
X26105Y14728D01*
X26191Y14643D01*
X26303Y14596D01*
X26424D01*
X26536Y14643D01*
X26622Y14728D01*
X26668Y14841D01*
Y14962D01*
X26622Y15074D01*
X26536Y15160D01*
X26424Y15206D01*
D02*
G37*
G36*
X12896Y15469D02*
X12775D01*
X12663Y15422D01*
X12577Y15336D01*
X12531Y15224D01*
Y15103D01*
X12577Y14991D01*
X12588Y14980D01*
X12656Y14897D01*
X12588Y14814D01*
X12577Y14803D01*
X12531Y14691D01*
Y14570D01*
X12577Y14458D01*
X12663Y14372D01*
X12775Y14326D01*
X12896D01*
X13008Y14372D01*
X13094Y14458D01*
X13141Y14570D01*
Y14691D01*
X13094Y14803D01*
X13083Y14814D01*
X13015Y14897D01*
X13083Y14980D01*
X13094Y14991D01*
X13141Y15103D01*
Y15224D01*
X13094Y15336D01*
X13008Y15422D01*
X12896Y15469D01*
D02*
G37*
G36*
X3693Y15451D02*
X3572D01*
X3460Y15405D01*
X3374Y15319D01*
X3327Y15207D01*
Y15086D01*
X3374Y14974D01*
X3385Y14963D01*
X3453Y14880D01*
X3385Y14797D01*
X3374Y14786D01*
X3327Y14674D01*
Y14553D01*
X3374Y14441D01*
X3460Y14355D01*
X3572Y14308D01*
X3693D01*
X3805Y14355D01*
X3891Y14441D01*
X3937Y14553D01*
Y14674D01*
X3891Y14786D01*
X3880Y14797D01*
X3812Y14880D01*
X3880Y14963D01*
X3891Y14974D01*
X3937Y15086D01*
Y15207D01*
X3891Y15319D01*
X3805Y15405D01*
X3693Y15451D01*
D02*
G37*
G36*
X23149Y14735D02*
X23028D01*
X22916Y14689D01*
X22830Y14603D01*
X22784Y14491D01*
Y14370D01*
X22830Y14258D01*
X22916Y14172D01*
X23028Y14126D01*
X23149D01*
X23261Y14172D01*
X23347Y14258D01*
X23393Y14370D01*
Y14491D01*
X23347Y14603D01*
X23261Y14689D01*
X23149Y14735D01*
D02*
G37*
G36*
X20245Y14757D02*
X20124D01*
X20012Y14710D01*
X19926Y14624D01*
X19880Y14512D01*
Y14391D01*
X19926Y14279D01*
X20012Y14193D01*
X20124Y14147D01*
X20245D01*
X20357Y14193D01*
X20419Y14255D01*
X20536Y14253D01*
X20566Y14244D01*
X20643Y14166D01*
X20755Y14120D01*
X20877D01*
X20989Y14166D01*
X21074Y14252D01*
X21121Y14364D01*
Y14485D01*
X21074Y14598D01*
X20989Y14683D01*
X20877Y14730D01*
X20755D01*
X20643Y14683D01*
X20582Y14621D01*
X20465Y14624D01*
X20435Y14632D01*
X20357Y14710D01*
X20245Y14757D01*
D02*
G37*
G36*
X15376Y14452D02*
X15255D01*
X15143Y14405D01*
X15057Y14320D01*
X15011Y14208D01*
Y14086D01*
X15057Y13974D01*
X15143Y13889D01*
X15255Y13842D01*
X15376D01*
X15488Y13889D01*
X15574Y13974D01*
X15620Y14086D01*
Y14208D01*
X15574Y14320D01*
X15488Y14405D01*
X15376Y14452D01*
D02*
G37*
G36*
X25897Y13785D02*
X25776D01*
X25663Y13739D01*
X25578Y13653D01*
X25531Y13541D01*
Y13420D01*
X25578Y13308D01*
X25663Y13222D01*
X25776Y13175D01*
X25897D01*
X26009Y13222D01*
X26095Y13308D01*
X26141Y13420D01*
Y13541D01*
X26095Y13653D01*
X26009Y13739D01*
X25897Y13785D01*
D02*
G37*
G36*
X6385Y13701D02*
X6264D01*
X6152Y13655D01*
X6066Y13569D01*
X6020Y13457D01*
Y13336D01*
X6066Y13224D01*
X6077Y13213D01*
X6145Y13130D01*
X6077Y13047D01*
X6066Y13036D01*
X6020Y12924D01*
Y12803D01*
X6066Y12691D01*
X6152Y12605D01*
X6264Y12558D01*
X6385D01*
X6497Y12605D01*
X6583Y12691D01*
X6629Y12803D01*
Y12924D01*
X6583Y13036D01*
X6572Y13047D01*
X6504Y13130D01*
X6572Y13213D01*
X6583Y13224D01*
X6629Y13336D01*
Y13457D01*
X6583Y13569D01*
X6497Y13655D01*
X6385Y13701D01*
D02*
G37*
G36*
X25097Y12985D02*
X24976D01*
X24864Y12939D01*
X24778Y12853D01*
X24731Y12741D01*
Y12620D01*
X24778Y12508D01*
X24864Y12422D01*
X24976Y12375D01*
X25097D01*
X25209Y12422D01*
X25295Y12508D01*
X25341Y12620D01*
Y12741D01*
X25295Y12853D01*
X25209Y12939D01*
X25097Y12985D01*
D02*
G37*
G36*
X3726Y13451D02*
X3605D01*
X3493Y13405D01*
X3407Y13319D01*
X3361Y13207D01*
Y13086D01*
X3407Y12974D01*
X3418Y12963D01*
X3486Y12880D01*
X3418Y12797D01*
X3407Y12786D01*
X3361Y12674D01*
Y12553D01*
X3407Y12441D01*
X3493Y12355D01*
X3605Y12308D01*
X3726D01*
X3838Y12355D01*
X3924Y12441D01*
X3970Y12553D01*
Y12674D01*
X3924Y12786D01*
X3913Y12797D01*
X3845Y12880D01*
X3913Y12963D01*
X3924Y12974D01*
X3970Y13086D01*
Y13207D01*
X3924Y13319D01*
X3838Y13405D01*
X3726Y13451D01*
D02*
G37*
G36*
X13116Y14173D02*
X12995D01*
X12883Y14127D01*
X12797Y14041D01*
X12751Y13929D01*
Y13808D01*
X12797Y13696D01*
X12883Y13610D01*
X12941Y13586D01*
X12896Y13469D01*
X12775Y13469D01*
X12663Y13422D01*
X12577Y13336D01*
X12531Y13224D01*
Y13103D01*
X12577Y12991D01*
X12614Y12955D01*
X12649Y12872D01*
X12614Y12789D01*
X12577Y12752D01*
X12531Y12640D01*
Y12519D01*
X12577Y12407D01*
X12663Y12321D01*
X12775Y12275D01*
X12896D01*
X13008Y12321D01*
X13094Y12407D01*
X13141Y12519D01*
Y12640D01*
X13094Y12752D01*
X13058Y12789D01*
X13023Y12872D01*
X13058Y12955D01*
X13094Y12991D01*
X13141Y13103D01*
Y13224D01*
X13094Y13336D01*
X13008Y13422D01*
X12950Y13446D01*
X12995Y13564D01*
X13116Y13564D01*
X13228Y13610D01*
X13314Y13696D01*
X13360Y13808D01*
Y13929D01*
X13314Y14041D01*
X13228Y14127D01*
X13116Y14173D01*
D02*
G37*
G36*
X21551Y12817D02*
X21430D01*
X21318Y12771D01*
X21232Y12685D01*
X21186Y12573D01*
Y12452D01*
X21232Y12340D01*
X21318Y12254D01*
X21430Y12208D01*
X21551D01*
X21663Y12254D01*
X21749Y12340D01*
X21795Y12452D01*
Y12573D01*
X21749Y12685D01*
X21663Y12771D01*
X21551Y12817D01*
D02*
G37*
G36*
X18785Y12675D02*
X18664D01*
X18552Y12628D01*
X18522Y12599D01*
X18502Y12591D01*
X18485Y12574D01*
X18470Y12561D01*
X18457Y12550D01*
X18445Y12541D01*
X18434Y12535D01*
X18425Y12530D01*
X18419Y12528D01*
X17866D01*
X17754Y12482D01*
X11145Y5873D01*
X10657D01*
X10652Y5875D01*
X10642Y5880D01*
X10632Y5887D01*
X10621Y5894D01*
X10590Y5920D01*
X10574Y5936D01*
X10554Y5944D01*
X10525Y5973D01*
X10413Y6020D01*
X10291D01*
X10179Y5973D01*
X10094Y5888D01*
X10047Y5776D01*
Y5654D01*
X10094Y5542D01*
X10179Y5457D01*
X10291Y5410D01*
X10413D01*
X10525Y5457D01*
X10554Y5486D01*
X10574Y5494D01*
X10591Y5511D01*
X10606Y5524D01*
X10619Y5535D01*
X10632Y5543D01*
X10642Y5550D01*
X10652Y5555D01*
X10657Y5557D01*
X11211D01*
X11323Y5603D01*
X17931Y12212D01*
X18419D01*
X18425Y12209D01*
X18434Y12205D01*
X18445Y12198D01*
X18456Y12190D01*
X18486Y12165D01*
X18502Y12149D01*
X18522Y12141D01*
X18552Y12111D01*
X18664Y12065D01*
X18785D01*
X18897Y12111D01*
X18983Y12197D01*
X19029Y12309D01*
Y12430D01*
X18983Y12542D01*
X18897Y12628D01*
X18785Y12675D01*
D02*
G37*
G36*
X23153Y12483D02*
X23032D01*
X22920Y12437D01*
X22834Y12351D01*
X22788Y12239D01*
Y12118D01*
X22834Y12006D01*
X22920Y11920D01*
X23032Y11874D01*
X23153D01*
X23266Y11920D01*
X23351Y12006D01*
X23398Y12118D01*
Y12239D01*
X23351Y12351D01*
X23266Y12437D01*
X23153Y12483D01*
D02*
G37*
G36*
X25897Y12185D02*
X25776D01*
X25663Y12139D01*
X25578Y12053D01*
X25531Y11941D01*
Y11820D01*
X25578Y11708D01*
X25663Y11622D01*
X25776Y11575D01*
X25897D01*
X26009Y11622D01*
X26095Y11708D01*
X26141Y11820D01*
Y11941D01*
X26095Y12053D01*
X26009Y12139D01*
X25897Y12185D01*
D02*
G37*
G36*
X7249Y12360D02*
X7128D01*
X7016Y12313D01*
X6930Y12228D01*
X6883Y12116D01*
Y11994D01*
X6930Y11882D01*
X6941Y11871D01*
X7009Y11788D01*
X6941Y11705D01*
X6930Y11694D01*
X6883Y11582D01*
Y11461D01*
X6930Y11349D01*
X7016Y11263D01*
X7128Y11217D01*
X7249D01*
X7361Y11263D01*
X7447Y11349D01*
X7493Y11461D01*
Y11582D01*
X7447Y11694D01*
X7436Y11705D01*
X7368Y11788D01*
X7436Y11871D01*
X7447Y11882D01*
X7493Y11994D01*
Y12116D01*
X7447Y12228D01*
X7361Y12313D01*
X7249Y12360D01*
D02*
G37*
G36*
X14106Y16107D02*
X13985D01*
X13873Y16061D01*
X13787Y15975D01*
X13741Y15863D01*
Y15742D01*
X13787Y15630D01*
X13873Y15544D01*
X13985Y15498D01*
X14106D01*
X14218Y15544D01*
X14248Y15574D01*
X14268Y15582D01*
X14285Y15598D01*
X14299Y15611D01*
X14313Y15622D01*
X14325Y15631D01*
X14336Y15637D01*
X14345Y15642D01*
X14351Y15644D01*
X15649D01*
X16309Y14984D01*
X16312Y14979D01*
X16315Y14969D01*
X16318Y14956D01*
X16320Y14943D01*
X16324Y14903D01*
X16324Y14881D01*
X16332Y14861D01*
Y14819D01*
X16379Y14707D01*
X16408Y14678D01*
X16416Y14658D01*
X16433Y14641D01*
X16446Y14626D01*
X16457Y14613D01*
X16465Y14600D01*
X16472Y14590D01*
X16477Y14580D01*
X16479Y14575D01*
Y13705D01*
X9443Y6670D01*
X9439Y6667D01*
X9433Y6664D01*
X9426Y6662D01*
X9421Y6660D01*
X8244D01*
X8132Y6614D01*
X7510Y5992D01*
X7505Y5989D01*
X7495Y5986D01*
X7482Y5983D01*
X7469Y5981D01*
X7429Y5978D01*
X7407Y5977D01*
X7387Y5969D01*
X7345D01*
X7233Y5923D01*
X7148Y5837D01*
X7101Y5725D01*
Y5604D01*
X7148Y5492D01*
X7233Y5406D01*
X7345Y5359D01*
X7467D01*
X7579Y5406D01*
X7664Y5492D01*
X7711Y5604D01*
Y5645D01*
X7719Y5665D01*
X7719Y5689D01*
X7721Y5708D01*
X7722Y5726D01*
X7725Y5740D01*
X7728Y5753D01*
X7731Y5763D01*
X7734Y5768D01*
X8310Y6344D01*
X9342D01*
Y5332D01*
X9388Y5220D01*
X10024Y4583D01*
X10027Y4578D01*
X10030Y4568D01*
X10033Y4555D01*
X10035Y4542D01*
X10039Y4502D01*
X10039Y4480D01*
X10047Y4460D01*
Y4418D01*
X10059Y4389D01*
X9974Y4262D01*
X7754D01*
X7734Y4283D01*
X7731Y4289D01*
X7728Y4299D01*
X7725Y4311D01*
X7723Y4324D01*
X7719Y4364D01*
X7719Y4387D01*
X7711Y4406D01*
Y4448D01*
X7664Y4560D01*
X7579Y4646D01*
X7467Y4692D01*
X7345D01*
X7233Y4646D01*
X7148Y4560D01*
X7101Y4448D01*
Y4327D01*
X7148Y4215D01*
X7233Y4129D01*
X7289Y4106D01*
X7264Y3979D01*
X6252D01*
X4978Y5253D01*
X4866Y5300D01*
X3213D01*
X2601Y5912D01*
X2489Y5958D01*
X868D01*
X862Y5960D01*
X853Y5965D01*
X842Y5972D01*
X831Y5979D01*
X801Y6005D01*
X785Y6021D01*
X765Y6029D01*
X735Y6058D01*
X623Y6105D01*
X502D01*
X390Y6058D01*
X304Y5973D01*
X258Y5861D01*
Y5739D01*
X304Y5627D01*
X390Y5542D01*
X502Y5495D01*
X623D01*
X735Y5542D01*
X765Y5571D01*
X785Y5579D01*
X802Y5596D01*
X816Y5609D01*
X830Y5620D01*
X842Y5628D01*
X853Y5635D01*
X862Y5640D01*
X868Y5642D01*
X2424D01*
X3036Y5030D01*
X3147Y4984D01*
X4800D01*
X6075Y3709D01*
X6187Y3663D01*
X11351D01*
X11662Y3352D01*
X11665Y3346D01*
X11668Y3336D01*
X11671Y3324D01*
X11673Y3311D01*
X11677Y3271D01*
X11677Y3249D01*
X11685Y3229D01*
Y3187D01*
X11713Y3120D01*
X11646Y3007D01*
X11636Y2999D01*
X4500D01*
X2552Y4948D01*
X2440Y4994D01*
X868D01*
X862Y4997D01*
X853Y5001D01*
X842Y5008D01*
X831Y5016D01*
X801Y5041D01*
X785Y5057D01*
X765Y5065D01*
X735Y5095D01*
X623Y5141D01*
X502D01*
X390Y5095D01*
X304Y5009D01*
X258Y4897D01*
Y4776D01*
X304Y4664D01*
X390Y4578D01*
X502Y4531D01*
X623D01*
X735Y4578D01*
X765Y4608D01*
X785Y4615D01*
X802Y4632D01*
X816Y4645D01*
X830Y4656D01*
X842Y4665D01*
X853Y4671D01*
X862Y4676D01*
X868Y4678D01*
X2374D01*
X2895Y4158D01*
X2842Y4031D01*
X868D01*
X862Y4033D01*
X853Y4038D01*
X842Y4044D01*
X831Y4052D01*
X801Y4078D01*
X785Y4093D01*
X765Y4101D01*
X735Y4131D01*
X623Y4177D01*
X502D01*
X390Y4131D01*
X304Y4045D01*
X258Y3933D01*
Y3812D01*
X304Y3700D01*
X390Y3614D01*
X502Y3568D01*
X623D01*
X735Y3614D01*
X765Y3644D01*
X785Y3652D01*
X802Y3668D01*
X816Y3681D01*
X830Y3692D01*
X842Y3701D01*
X853Y3708D01*
X862Y3712D01*
X868Y3714D01*
X2830D01*
X4317Y2227D01*
X4429Y2181D01*
X5903D01*
X5921Y2055D01*
X5722Y1922D01*
X5589Y1723D01*
X5543Y1488D01*
Y988D01*
X5589Y753D01*
X5722Y554D01*
X5921Y421D01*
X6156Y375D01*
X6391Y421D01*
X6590Y554D01*
X6713Y738D01*
X6781Y746D01*
X6849Y738D01*
X6972Y554D01*
X7171Y421D01*
X7406Y375D01*
X7641Y421D01*
X7840Y554D01*
X7963Y738D01*
X8031Y746D01*
X8099Y738D01*
X8222Y554D01*
X8421Y421D01*
X8656Y375D01*
X8891Y421D01*
X9090Y554D01*
X9213Y738D01*
X9281Y746D01*
X9349Y738D01*
X9472Y554D01*
X9671Y421D01*
X9906Y375D01*
X10141Y421D01*
X10340Y554D01*
X10473Y753D01*
X10519Y988D01*
Y1488D01*
X10473Y1723D01*
X10340Y1922D01*
X10141Y2055D01*
X10159Y2181D01*
X11449D01*
X11657Y1973D01*
X11659Y1967D01*
X11663Y1957D01*
X11666Y1945D01*
X11668Y1932D01*
X11671Y1892D01*
X11672Y1870D01*
X11680Y1850D01*
Y1808D01*
X11726Y1696D01*
X11812Y1610D01*
X11924Y1564D01*
X12045D01*
X12157Y1610D01*
X12243Y1696D01*
X12290Y1808D01*
Y1929D01*
X12243Y2041D01*
X12157Y2127D01*
X12119Y2143D01*
Y2281D01*
X12157Y2296D01*
X12242Y2382D01*
X12289Y2494D01*
Y2615D01*
X12242Y2727D01*
X12157Y2813D01*
X12113Y2831D01*
Y2969D01*
X12163Y2989D01*
X12248Y3075D01*
X12295Y3187D01*
Y3308D01*
X12248Y3420D01*
X12163Y3506D01*
X12051Y3553D01*
X12009D01*
X11989Y3561D01*
X11965Y3561D01*
X11946Y3562D01*
X11928Y3564D01*
X11914Y3567D01*
X11901Y3570D01*
X11891Y3573D01*
X11886Y3575D01*
X11642Y3819D01*
X11694Y3946D01*
X11920D01*
X12032Y3993D01*
X14879Y6840D01*
X14914Y6923D01*
X15021Y6939D01*
X15046Y6935D01*
X15057Y6908D01*
X15143Y6822D01*
X15255Y6775D01*
X15376D01*
X15488Y6822D01*
X15574Y6908D01*
X15620Y7020D01*
Y7141D01*
X15574Y7253D01*
X15488Y7339D01*
X15376Y7385D01*
X15255D01*
X15143Y7339D01*
X15057Y7253D01*
X15053Y7242D01*
X14926Y7267D01*
Y8063D01*
X17804Y10941D01*
X18419D01*
X18425Y10939D01*
X18434Y10934D01*
X18445Y10928D01*
X18456Y10920D01*
X18486Y10894D01*
X18502Y10878D01*
X18522Y10871D01*
X18552Y10841D01*
X18664Y10795D01*
X18785D01*
X18897Y10841D01*
X18983Y10927D01*
X19029Y11039D01*
Y11160D01*
X18983Y11272D01*
X18897Y11358D01*
X18785Y11404D01*
X18664D01*
X18552Y11358D01*
X18522Y11328D01*
X18502Y11320D01*
X18485Y11303D01*
X18470Y11290D01*
X18457Y11280D01*
X18445Y11271D01*
X18434Y11264D01*
X18425Y11260D01*
X18419Y11257D01*
X17739D01*
X17627Y11211D01*
X14656Y8240D01*
X14609Y8128D01*
Y7017D01*
X11855Y4262D01*
X10730D01*
X10645Y4389D01*
X10657Y4418D01*
Y4540D01*
X10610Y4652D01*
X10525Y4737D01*
X10413Y4784D01*
X10371D01*
X10351Y4792D01*
X10327Y4792D01*
X10308Y4794D01*
X10291Y4796D01*
X10276Y4798D01*
X10263Y4801D01*
X10254Y4804D01*
X10248Y4807D01*
X9658Y5397D01*
Y6424D01*
X9659Y6428D01*
X9661Y6435D01*
X9665Y6442D01*
X9667Y6446D01*
X16749Y13528D01*
X16795Y13640D01*
Y14575D01*
X16797Y14580D01*
X16802Y14590D01*
X16809Y14600D01*
X16816Y14612D01*
X16842Y14642D01*
X16858Y14658D01*
X16866Y14678D01*
X16895Y14707D01*
X16942Y14819D01*
Y14941D01*
X16895Y15053D01*
X16810Y15138D01*
X16698Y15185D01*
X16656D01*
X16636Y15193D01*
X16612Y15193D01*
X16593Y15195D01*
X16576Y15196D01*
X16561Y15199D01*
X16548Y15202D01*
X16538Y15205D01*
X16533Y15208D01*
X15826Y15914D01*
X15715Y15960D01*
X14351D01*
X14345Y15963D01*
X14336Y15967D01*
X14325Y15974D01*
X14314Y15982D01*
X14284Y16007D01*
X14268Y16023D01*
X14248Y16031D01*
X14218Y16061D01*
X14106Y16107D01*
D02*
G37*
G36*
X25897Y11385D02*
X25776D01*
X25663Y11339D01*
X25578Y11253D01*
X25531Y11141D01*
Y11020D01*
X25578Y10908D01*
X25663Y10822D01*
X25776Y10775D01*
X25897D01*
X26009Y10822D01*
X26095Y10908D01*
X26141Y11020D01*
Y11141D01*
X26095Y11253D01*
X26009Y11339D01*
X25897Y11385D01*
D02*
G37*
G36*
X3710Y11451D02*
X3588D01*
X3476Y11405D01*
X3391Y11319D01*
X3344Y11207D01*
Y11086D01*
X3391Y10974D01*
X3402Y10963D01*
X3469Y10880D01*
X3402Y10797D01*
X3391Y10786D01*
X3344Y10674D01*
Y10553D01*
X3391Y10441D01*
X3476Y10355D01*
X3588Y10309D01*
X3710D01*
X3822Y10355D01*
X3907Y10441D01*
X3954Y10553D01*
Y10674D01*
X3907Y10786D01*
X3896Y10797D01*
X3828Y10880D01*
X3896Y10963D01*
X3907Y10974D01*
X3954Y11086D01*
Y11207D01*
X3907Y11319D01*
X3822Y11405D01*
X3710Y11451D01*
D02*
G37*
G36*
X11404Y10735D02*
X11283D01*
X11171Y10689D01*
X11085Y10603D01*
X11039Y10491D01*
Y10370D01*
X11085Y10258D01*
X11171Y10172D01*
X11283Y10126D01*
X11404D01*
X11516Y10172D01*
X11602Y10258D01*
X11648Y10370D01*
Y10491D01*
X11602Y10603D01*
X11516Y10689D01*
X11404Y10735D01*
D02*
G37*
G36*
X25897Y10585D02*
X25776D01*
X25663Y10539D01*
X25578Y10453D01*
X25531Y10341D01*
Y10220D01*
X25578Y10108D01*
X25663Y10022D01*
X25776Y9975D01*
X25897D01*
X26009Y10022D01*
X26095Y10108D01*
X26141Y10220D01*
Y10341D01*
X26095Y10453D01*
X26009Y10539D01*
X25897Y10585D01*
D02*
G37*
G36*
X24297D02*
X24176D01*
X24063Y10539D01*
X23978Y10453D01*
X23931Y10341D01*
Y10220D01*
X23978Y10108D01*
X24063Y10022D01*
X24176Y9975D01*
X24297D01*
X24409Y10022D01*
X24495Y10108D01*
X24541Y10220D01*
Y10341D01*
X24495Y10453D01*
X24409Y10539D01*
X24297Y10585D01*
D02*
G37*
G36*
X19949D02*
X19828D01*
X19716Y10539D01*
X19630Y10453D01*
X19583Y10341D01*
Y10220D01*
X19630Y10108D01*
X19716Y10022D01*
X19828Y9975D01*
X19949D01*
X20061Y10022D01*
X20147Y10108D01*
X20193Y10220D01*
Y10341D01*
X20147Y10453D01*
X20061Y10539D01*
X19949Y10585D01*
D02*
G37*
G36*
X4683Y13945D02*
X4562D01*
X4450Y13898D01*
X4364Y13812D01*
X4318Y13700D01*
Y13579D01*
X4364Y13467D01*
X4450Y13381D01*
X4562Y13335D01*
X4604D01*
X4624Y13327D01*
X4648Y13326D01*
X4667Y13325D01*
X4684Y13323D01*
X4699Y13321D01*
X4711Y13318D01*
X4721Y13315D01*
X4727Y13312D01*
X5247Y12792D01*
X5195Y12665D01*
X5139D01*
X5027Y12619D01*
X4941Y12533D01*
X4894Y12421D01*
Y12299D01*
X4934Y12205D01*
X4936Y12190D01*
X4964Y12145D01*
X4974Y12128D01*
X4990Y12093D01*
X4995Y12082D01*
X4998Y12072D01*
Y11572D01*
X5044Y11460D01*
X6371Y10134D01*
X6373Y10129D01*
X6376Y10119D01*
X6379Y10106D01*
X6382Y10093D01*
X6385Y10053D01*
X6385Y10031D01*
X6394Y10011D01*
Y9969D01*
X6440Y9857D01*
X6526Y9772D01*
X6638Y9725D01*
X6759D01*
X6871Y9772D01*
X6957Y9857D01*
X7003Y9969D01*
Y10091D01*
X6957Y10203D01*
X6871Y10288D01*
X6823Y10308D01*
Y10446D01*
X6885Y10472D01*
X6970Y10557D01*
X7017Y10669D01*
Y10791D01*
X6970Y10903D01*
X6885Y10988D01*
X6773Y11035D01*
X6731D01*
X6711Y11043D01*
X6687Y11043D01*
X6668Y11045D01*
X6650Y11046D01*
X6636Y11049D01*
X6623Y11052D01*
X6613Y11055D01*
X6608Y11058D01*
X5825Y11840D01*
Y12595D01*
X5779Y12707D01*
X4950Y13536D01*
X4948Y13541D01*
X4945Y13551D01*
X4942Y13564D01*
X4940Y13577D01*
X4936Y13616D01*
X4936Y13639D01*
X4928Y13659D01*
Y13700D01*
X4881Y13812D01*
X4795Y13898D01*
X4683Y13945D01*
D02*
G37*
G36*
X18785Y10134D02*
X18664D01*
X18552Y10088D01*
X18466Y10002D01*
X18419Y9890D01*
Y9769D01*
X18466Y9657D01*
X18552Y9571D01*
X18664Y9525D01*
X18785D01*
X18897Y9571D01*
X18983Y9657D01*
X19029Y9769D01*
Y9890D01*
X18983Y10002D01*
X18897Y10088D01*
X18785Y10134D01*
D02*
G37*
G36*
X25897Y9785D02*
X25776D01*
X25663Y9739D01*
X25578Y9653D01*
X25531Y9541D01*
Y9420D01*
X25578Y9308D01*
X25663Y9222D01*
X25776Y9175D01*
X25897D01*
X26009Y9222D01*
X26095Y9308D01*
X26141Y9420D01*
Y9541D01*
X26095Y9653D01*
X26009Y9739D01*
X25897Y9785D01*
D02*
G37*
G36*
X25897Y8985D02*
X25776D01*
X25663Y8939D01*
X25578Y8853D01*
X25531Y8741D01*
Y8620D01*
X25578Y8508D01*
X25663Y8422D01*
X25776Y8375D01*
X25897D01*
X26009Y8422D01*
X26095Y8508D01*
X26141Y8620D01*
Y8741D01*
X26095Y8853D01*
X26009Y8939D01*
X25897Y8985D01*
D02*
G37*
G36*
X25097D02*
X24976D01*
X24864Y8939D01*
X24778Y8853D01*
X24731Y8741D01*
Y8620D01*
X24778Y8508D01*
X24864Y8422D01*
X24976Y8375D01*
X25097D01*
X25209Y8422D01*
X25295Y8508D01*
X25341Y8620D01*
Y8741D01*
X25295Y8853D01*
X25209Y8939D01*
X25097Y8985D01*
D02*
G37*
G36*
X3776Y9952D02*
X3636D01*
X3507Y9898D01*
X3408Y9799D01*
X3355Y9670D01*
Y9530D01*
X3408Y9401D01*
X3507Y9302D01*
X3636Y9248D01*
X3776D01*
X3780Y9250D01*
X3860Y9203D01*
X3899Y9162D01*
Y8780D01*
X3906Y8730D01*
X3899Y8680D01*
X3921Y8510D01*
X3987Y8351D01*
X4091Y8215D01*
X4228Y8111D01*
X4386Y8045D01*
X4556Y8023D01*
X5556D01*
X5726Y8045D01*
X5885Y8111D01*
X6021Y8215D01*
X6125Y8351D01*
X6191Y8510D01*
X6213Y8680D01*
X6191Y8850D01*
X6125Y9009D01*
X6021Y9145D01*
X5885Y9249D01*
X5726Y9315D01*
X5556Y9337D01*
X5193D01*
X5191Y9350D01*
X5125Y9509D01*
X5021Y9645D01*
X4885Y9749D01*
X4726Y9815D01*
X4556Y9837D01*
X4386Y9815D01*
X4228Y9749D01*
X4175Y9709D01*
X4024Y9753D01*
X4004Y9799D01*
X3905Y9898D01*
X3776Y9952D01*
D02*
G37*
G36*
X26697Y8185D02*
X26576D01*
X26463Y8139D01*
X26378Y8053D01*
X26331Y7941D01*
Y7820D01*
X26378Y7708D01*
X26463Y7622D01*
X26576Y7575D01*
X26697D01*
X26809Y7622D01*
X26895Y7708D01*
X26941Y7820D01*
Y7941D01*
X26895Y8053D01*
X26809Y8139D01*
X26697Y8185D01*
D02*
G37*
G36*
X25897D02*
X25776D01*
X25663Y8139D01*
X25578Y8053D01*
X25531Y7941D01*
Y7820D01*
X25578Y7708D01*
X25663Y7622D01*
X25776Y7575D01*
X25897D01*
X26009Y7622D01*
X26095Y7708D01*
X26141Y7820D01*
Y7941D01*
X26095Y8053D01*
X26009Y8139D01*
X25897Y8185D01*
D02*
G37*
G36*
X25097D02*
X24976D01*
X24864Y8139D01*
X24778Y8053D01*
X24731Y7941D01*
Y7820D01*
X24778Y7708D01*
X24864Y7622D01*
X24976Y7575D01*
X25097D01*
X25209Y7622D01*
X25295Y7708D01*
X25341Y7820D01*
Y7941D01*
X25295Y8053D01*
X25209Y8139D01*
X25097Y8185D01*
D02*
G37*
G36*
X26697Y7385D02*
X26576D01*
X26463Y7339D01*
X26378Y7253D01*
X26331Y7141D01*
Y7020D01*
X26378Y6908D01*
X26463Y6822D01*
X26576Y6775D01*
X26697D01*
X26809Y6822D01*
X26895Y6908D01*
X26941Y7020D01*
Y7141D01*
X26895Y7253D01*
X26809Y7339D01*
X26697Y7385D01*
D02*
G37*
G36*
X17968D02*
X17846D01*
X17734Y7339D01*
X17649Y7253D01*
X17602Y7141D01*
Y7020D01*
X17649Y6908D01*
X17734Y6822D01*
X17846Y6775D01*
X17968D01*
X18080Y6822D01*
X18165Y6908D01*
X18212Y7020D01*
Y7141D01*
X18165Y7253D01*
X18080Y7339D01*
X17968Y7385D01*
D02*
G37*
G36*
X11646Y7331D02*
X11525D01*
X11413Y7284D01*
X11327Y7199D01*
X11280Y7087D01*
Y6965D01*
X11327Y6853D01*
X11413Y6768D01*
X11525Y6721D01*
X11646D01*
X11758Y6768D01*
X11844Y6853D01*
X11890Y6965D01*
Y7087D01*
X11844Y7199D01*
X11758Y7284D01*
X11646Y7331D01*
D02*
G37*
G36*
X20406Y7315D02*
X20285D01*
X20173Y7269D01*
X20087Y7183D01*
X20041Y7071D01*
Y6950D01*
X20087Y6838D01*
X20173Y6752D01*
X20285Y6706D01*
X20406D01*
X20518Y6752D01*
X20604Y6838D01*
X20650Y6950D01*
Y7071D01*
X20604Y7183D01*
X20518Y7269D01*
X20406Y7315D01*
D02*
G37*
G36*
X18679Y7061D02*
X18558D01*
X18446Y7015D01*
X18360Y6929D01*
X18313Y6817D01*
Y6696D01*
X18360Y6584D01*
X18446Y6498D01*
X18558Y6452D01*
X18679D01*
X18791Y6498D01*
X18877Y6584D01*
X18923Y6696D01*
Y6817D01*
X18877Y6929D01*
X18791Y7015D01*
X18679Y7061D01*
D02*
G37*
G36*
X23352Y6883D02*
X23231D01*
X23119Y6837D01*
X23033Y6751D01*
X22987Y6639D01*
Y6518D01*
X23033Y6406D01*
X23119Y6320D01*
X23231Y6274D01*
X23352D01*
X23464Y6320D01*
X23550Y6406D01*
X23597Y6518D01*
Y6639D01*
X23550Y6751D01*
X23464Y6837D01*
X23352Y6883D01*
D02*
G37*
G36*
X25897Y6585D02*
X25776D01*
X25663Y6539D01*
X25578Y6453D01*
X25531Y6341D01*
Y6220D01*
X25578Y6108D01*
X25663Y6022D01*
X25776Y5975D01*
X25897D01*
X26009Y6022D01*
X26095Y6108D01*
X26141Y6220D01*
Y6341D01*
X26095Y6453D01*
X26009Y6539D01*
X25897Y6585D01*
D02*
G37*
G36*
X25097D02*
X24976D01*
X24864Y6539D01*
X24778Y6453D01*
X24731Y6341D01*
Y6220D01*
X24778Y6108D01*
X24864Y6022D01*
X24976Y5975D01*
X25097D01*
X25209Y6022D01*
X25295Y6108D01*
X25341Y6220D01*
Y6341D01*
X25295Y6453D01*
X25209Y6539D01*
X25097Y6585D01*
D02*
G37*
G36*
X20304Y6518D02*
X20183D01*
X20071Y6472D01*
X19985Y6386D01*
X19939Y6274D01*
Y6153D01*
X19985Y6040D01*
X20071Y5955D01*
X20183Y5908D01*
X20304D01*
X20416Y5955D01*
X20502Y6040D01*
X20549Y6153D01*
Y6274D01*
X20502Y6386D01*
X20416Y6472D01*
X20304Y6518D01*
D02*
G37*
G36*
X17790Y6481D02*
X17669D01*
X17557Y6434D01*
X17471Y6349D01*
X17424Y6237D01*
Y6115D01*
X17471Y6003D01*
X17557Y5918D01*
X17669Y5871D01*
X17790D01*
X17902Y5918D01*
X17988Y6003D01*
X18034Y6115D01*
Y6237D01*
X17988Y6349D01*
X17902Y6434D01*
X17790Y6481D01*
D02*
G37*
G36*
X16901D02*
X16780D01*
X16668Y6434D01*
X16582Y6349D01*
X16535Y6237D01*
Y6115D01*
X16582Y6003D01*
X16668Y5918D01*
X16780Y5871D01*
X16901D01*
X17013Y5918D01*
X17099Y6003D01*
X17145Y6115D01*
Y6237D01*
X17099Y6349D01*
X17013Y6434D01*
X16901Y6481D01*
D02*
G37*
G36*
X15834Y6045D02*
X15713D01*
X15601Y5999D01*
X15515Y5913D01*
X15469Y5801D01*
Y5680D01*
X15515Y5568D01*
X15601Y5482D01*
X15713Y5436D01*
X15834D01*
X15946Y5482D01*
X16032Y5568D01*
X16078Y5680D01*
Y5801D01*
X16032Y5913D01*
X15946Y5999D01*
X15834Y6045D01*
D02*
G37*
G36*
X25897Y5785D02*
X25776D01*
X25663Y5739D01*
X25578Y5653D01*
X25531Y5541D01*
Y5420D01*
X25578Y5308D01*
X25663Y5222D01*
X25776Y5175D01*
X25897D01*
X26009Y5222D01*
X26095Y5308D01*
X26141Y5420D01*
Y5541D01*
X26095Y5653D01*
X26009Y5739D01*
X25897Y5785D01*
D02*
G37*
G36*
X20146Y5699D02*
X20025D01*
X19913Y5652D01*
X19827Y5567D01*
X19781Y5455D01*
Y5333D01*
X19827Y5221D01*
X19913Y5136D01*
X20025Y5089D01*
X20146D01*
X20258Y5136D01*
X20344Y5221D01*
X20391Y5333D01*
Y5455D01*
X20344Y5567D01*
X20258Y5652D01*
X20146Y5699D01*
D02*
G37*
G36*
X17790Y5626D02*
X17669D01*
X17557Y5579D01*
X17471Y5493D01*
X17424Y5381D01*
Y5260D01*
X17471Y5148D01*
X17557Y5062D01*
X17669Y5016D01*
X17790D01*
X17902Y5062D01*
X17988Y5148D01*
X18034Y5260D01*
Y5381D01*
X17988Y5493D01*
X17902Y5579D01*
X17790Y5626D01*
D02*
G37*
G36*
X16901D02*
X16780D01*
X16668Y5579D01*
X16582Y5493D01*
X16535Y5381D01*
Y5260D01*
X16582Y5148D01*
X16668Y5062D01*
X16780Y5016D01*
X16901D01*
X17013Y5062D01*
X17099Y5148D01*
X17145Y5260D01*
Y5381D01*
X17099Y5493D01*
X17013Y5579D01*
X16901Y5626D01*
D02*
G37*
G36*
X23200Y5010D02*
X23079D01*
X22967Y4964D01*
X22937Y4934D01*
X22917Y4927D01*
X22900Y4910D01*
X22886Y4897D01*
X22872Y4886D01*
X22860Y4877D01*
X22849Y4871D01*
X22840Y4866D01*
X22834Y4864D01*
X22404D01*
X22292Y4817D01*
X20851Y3377D01*
X18092D01*
X18015Y3504D01*
X18034Y3550D01*
Y3671D01*
X17988Y3783D01*
X17902Y3869D01*
X17790Y3915D01*
X17669D01*
X17557Y3869D01*
X17471Y3783D01*
X17424Y3671D01*
Y3550D01*
X17444Y3504D01*
X17366Y3377D01*
X13731D01*
X13726Y3379D01*
X13716Y3384D01*
X13705Y3390D01*
X13694Y3398D01*
X13664Y3424D01*
X13648Y3439D01*
X13628Y3447D01*
X13599Y3477D01*
X13487Y3523D01*
X13365D01*
X13253Y3477D01*
X13168Y3391D01*
X13121Y3279D01*
Y3158D01*
X13168Y3046D01*
X13253Y2960D01*
X13297Y2942D01*
Y2804D01*
X13247Y2784D01*
X13161Y2698D01*
X13115Y2586D01*
Y2465D01*
X13161Y2353D01*
X13247Y2267D01*
X13286Y2251D01*
Y2113D01*
X13248Y2098D01*
X13162Y2012D01*
X13116Y1900D01*
Y1779D01*
X13162Y1667D01*
X13248Y1581D01*
X13360Y1535D01*
X13481D01*
X13576Y1574D01*
X13638Y1543D01*
X13690Y1498D01*
X13687Y1482D01*
Y982D01*
X13734Y747D01*
X13866Y548D01*
X14065Y415D01*
X14300Y369D01*
X14535Y415D01*
X14734Y548D01*
X14857Y732D01*
X14925Y740D01*
X14993Y732D01*
X15116Y548D01*
X15315Y415D01*
X15550Y369D01*
X15785Y415D01*
X15984Y548D01*
X16117Y747D01*
X16164Y982D01*
Y1482D01*
X16117Y1717D01*
X15984Y1916D01*
X15785Y2049D01*
X15760Y2054D01*
X15773Y2181D01*
X17828D01*
X17840Y2054D01*
X17815Y2049D01*
X17616Y1916D01*
X17484Y1717D01*
X17437Y1482D01*
Y982D01*
X17484Y747D01*
X17616Y548D01*
X17815Y415D01*
X18050Y369D01*
X18285Y415D01*
X18484Y548D01*
X18617Y747D01*
X18664Y982D01*
Y1482D01*
X18617Y1717D01*
X18484Y1916D01*
X18285Y2049D01*
X18260Y2054D01*
X18273Y2181D01*
X22032D01*
X22144Y2227D01*
X22870Y2953D01*
X22876Y2955D01*
X22886Y2959D01*
X22898Y2962D01*
X22911Y2964D01*
X22951Y2967D01*
X22974Y2967D01*
X22993Y2976D01*
X23035D01*
X23147Y3022D01*
X23233Y3108D01*
X23279Y3220D01*
Y3341D01*
X23233Y3453D01*
X23147Y3539D01*
X23035Y3585D01*
X23029D01*
X22919Y3708D01*
X22923Y3745D01*
X22994Y3774D01*
X23080Y3860D01*
X23127Y3972D01*
Y4093D01*
X23080Y4205D01*
X22994Y4291D01*
X22882Y4337D01*
X22761D01*
X22649Y4291D01*
X22563Y4205D01*
X22517Y4093D01*
Y3972D01*
X22563Y3860D01*
X22570Y3853D01*
X21898Y3181D01*
X21748Y3211D01*
X21736Y3240D01*
X21650Y3325D01*
X21538Y3372D01*
X21473D01*
X21420Y3499D01*
X22469Y4548D01*
X22834D01*
X22840Y4545D01*
X22849Y4541D01*
X22860Y4534D01*
X22871Y4526D01*
X22901Y4501D01*
X22917Y4485D01*
X22937Y4477D01*
X22967Y4447D01*
X23079Y4401D01*
X23200D01*
X23312Y4447D01*
X23398Y4533D01*
X23444Y4645D01*
Y4766D01*
X23398Y4878D01*
X23312Y4964D01*
X23200Y5010D01*
D02*
G37*
G36*
X25897Y4985D02*
X25776D01*
X25663Y4939D01*
X25578Y4853D01*
X25531Y4741D01*
Y4620D01*
X25578Y4508D01*
X25663Y4422D01*
X25776Y4375D01*
X25897D01*
X26009Y4422D01*
X26095Y4508D01*
X26141Y4620D01*
Y4741D01*
X26095Y4853D01*
X26009Y4939D01*
X25897Y4985D01*
D02*
G37*
G36*
X25097D02*
X24976D01*
X24864Y4939D01*
X24778Y4853D01*
X24731Y4741D01*
Y4620D01*
X24778Y4508D01*
X24864Y4422D01*
X24976Y4375D01*
X25097D01*
X25209Y4422D01*
X25295Y4508D01*
X25341Y4620D01*
Y4741D01*
X25295Y4853D01*
X25209Y4939D01*
X25097Y4985D01*
D02*
G37*
G36*
X17790Y4770D02*
X17669D01*
X17557Y4724D01*
X17471Y4638D01*
X17424Y4526D01*
Y4405D01*
X17471Y4293D01*
X17557Y4207D01*
X17669Y4161D01*
X17790D01*
X17902Y4207D01*
X17988Y4293D01*
X18034Y4405D01*
Y4526D01*
X17988Y4638D01*
X17902Y4724D01*
X17790Y4770D01*
D02*
G37*
G36*
X16901D02*
X16780D01*
X16668Y4724D01*
X16582Y4638D01*
X16535Y4526D01*
Y4405D01*
X16582Y4293D01*
X16668Y4207D01*
X16780Y4161D01*
X16901D01*
X17013Y4207D01*
X17099Y4293D01*
X17145Y4405D01*
Y4526D01*
X17099Y4638D01*
X17013Y4724D01*
X16901Y4770D01*
D02*
G37*
G36*
X20146Y4699D02*
X20025D01*
X19913Y4652D01*
X19827Y4567D01*
X19781Y4455D01*
Y4333D01*
X19827Y4221D01*
X19913Y4136D01*
X20025Y4089D01*
X20146D01*
X20258Y4136D01*
X20344Y4221D01*
X20391Y4333D01*
Y4455D01*
X20344Y4567D01*
X20258Y4652D01*
X20146Y4699D01*
D02*
G37*
G36*
X20983Y4367D02*
X20862D01*
X20749Y4321D01*
X20664Y4235D01*
X20617Y4123D01*
Y4002D01*
X20664Y3890D01*
X20749Y3804D01*
X20862Y3758D01*
X20983D01*
X21095Y3804D01*
X21181Y3890D01*
X21227Y4002D01*
Y4123D01*
X21181Y4235D01*
X21095Y4321D01*
X20983Y4367D01*
D02*
G37*
G36*
X24697Y3717D02*
X24576D01*
X24463Y3671D01*
X24378Y3585D01*
X24331Y3473D01*
Y3352D01*
X24378Y3240D01*
X24463Y3154D01*
X24576Y3108D01*
X24697D01*
X24809Y3154D01*
X24895Y3240D01*
X24941Y3352D01*
Y3473D01*
X24895Y3585D01*
X24809Y3671D01*
X24697Y3717D01*
D02*
G37*
G36*
X25776Y3531D02*
X25655D01*
X25543Y3484D01*
X25457Y3398D01*
X25411Y3286D01*
Y3165D01*
X25457Y3053D01*
X25543Y2967D01*
X25655Y2921D01*
X25776D01*
X25888Y2967D01*
X25974Y3053D01*
X26021Y3165D01*
Y3286D01*
X25974Y3398D01*
X25888Y3484D01*
X25776Y3531D01*
D02*
G37*
G36*
Y1953D02*
X25655D01*
X25543Y1906D01*
X25457Y1821D01*
X25411Y1709D01*
Y1587D01*
X25457Y1475D01*
X25543Y1390D01*
X25655Y1343D01*
X25776D01*
X25888Y1390D01*
X25974Y1475D01*
X26021Y1587D01*
Y1709D01*
X25974Y1821D01*
X25888Y1906D01*
X25776Y1953D01*
D02*
G37*
G36*
X2658Y3302D02*
X2342D01*
X2036Y3220D01*
X1762Y3062D01*
X1538Y2838D01*
X1380Y2564D01*
X1298Y2258D01*
Y1942D01*
X1380Y1636D01*
X1538Y1362D01*
X1762Y1138D01*
X2036Y980D01*
X2342Y898D01*
X2658D01*
X2964Y980D01*
X3238Y1138D01*
X3462Y1362D01*
X3620Y1636D01*
X3702Y1942D01*
Y2258D01*
X3620Y2564D01*
X3462Y2838D01*
X3238Y3062D01*
X2964Y3220D01*
X2658Y3302D01*
D02*
G37*
G36*
X21584Y1162D02*
X21463D01*
X21351Y1116D01*
X21265Y1030D01*
X21219Y918D01*
Y797D01*
X21265Y685D01*
X21351Y599D01*
X21463Y552D01*
X21584D01*
X21696Y599D01*
X21782Y685D01*
X21828Y797D01*
Y918D01*
X21782Y1030D01*
X21696Y1116D01*
X21584Y1162D01*
D02*
G37*
%LPD*%
G36*
X15949Y24954D02*
X15923Y24954D01*
X15874Y24950D01*
X15853Y24946D01*
X15832Y24941D01*
X15814Y24935D01*
X15797Y24928D01*
X15782Y24920D01*
X15768Y24910D01*
X15756Y24900D01*
X15693Y24962D01*
X15704Y24974D01*
X15713Y24988D01*
X15722Y25003D01*
X15729Y25020D01*
X15735Y25039D01*
X15740Y25059D01*
X15744Y25080D01*
X15746Y25104D01*
X15748Y25129D01*
X15748Y25155D01*
X15949Y24954D01*
D02*
G37*
G36*
X14498Y23036D02*
X14501Y23020D01*
X14506Y23003D01*
X14513Y22986D01*
X14521Y22969D01*
X14532Y22951D01*
X14545Y22933D01*
X14560Y22915D01*
X14576Y22896D01*
X14595Y22877D01*
X14310D01*
X14329Y22896D01*
X14360Y22933D01*
X14373Y22951D01*
X14384Y22969D01*
X14392Y22986D01*
X14399Y23003D01*
X14404Y23020D01*
X14407Y23036D01*
X14408Y23052D01*
X14497D01*
X14498Y23036D01*
D02*
G37*
G36*
X6915Y23040D02*
X6919Y22992D01*
X6923Y22970D01*
X6928Y22950D01*
X6934Y22931D01*
X6941Y22914D01*
X6950Y22899D01*
X6959Y22886D01*
X6970Y22873D01*
X6907Y22811D01*
X6895Y22821D01*
X6881Y22831D01*
X6866Y22839D01*
X6849Y22846D01*
X6831Y22852D01*
X6811Y22857D01*
X6789Y22861D01*
X6766Y22864D01*
X6741Y22865D01*
X6714Y22865D01*
X6915Y23066D01*
X6915Y23040D01*
D02*
G37*
G36*
X16187Y22205D02*
X16168Y22223D01*
X16131Y22254D01*
X16113Y22267D01*
X16095Y22278D01*
X16078Y22287D01*
X16061Y22294D01*
X16044Y22298D01*
X16028Y22301D01*
X16012Y22302D01*
Y22391D01*
X16028Y22392D01*
X16044Y22395D01*
X16061Y22400D01*
X16078Y22407D01*
X16095Y22416D01*
X16113Y22426D01*
X16131Y22439D01*
X16149Y22454D01*
X16168Y22470D01*
X16187Y22489D01*
Y22205D01*
D02*
G37*
G36*
X18579Y12228D02*
X18560Y12246D01*
X18523Y12277D01*
X18505Y12290D01*
X18487Y12301D01*
X18470Y12310D01*
X18453Y12317D01*
X18436Y12321D01*
X18420Y12324D01*
X18404Y12325D01*
Y12414D01*
X18420Y12415D01*
X18436Y12418D01*
X18453Y12423D01*
X18470Y12430D01*
X18487Y12439D01*
X18505Y12449D01*
X18523Y12462D01*
X18541Y12477D01*
X18560Y12493D01*
X18579Y12512D01*
Y12228D01*
D02*
G37*
G36*
X10516Y5839D02*
X10553Y5807D01*
X10571Y5795D01*
X10589Y5784D01*
X10606Y5775D01*
X10623Y5768D01*
X10640Y5763D01*
X10656Y5760D01*
X10672Y5759D01*
Y5671D01*
X10656Y5670D01*
X10640Y5667D01*
X10623Y5662D01*
X10606Y5655D01*
X10589Y5646D01*
X10571Y5635D01*
X10553Y5623D01*
X10535Y5608D01*
X10516Y5591D01*
X10497Y5573D01*
Y5857D01*
X10516Y5839D01*
D02*
G37*
G36*
X14210Y15926D02*
X14247Y15895D01*
X14265Y15882D01*
X14282Y15871D01*
X14300Y15862D01*
X14317Y15856D01*
X14333Y15851D01*
X14350Y15848D01*
X14366Y15847D01*
Y15758D01*
X14350Y15757D01*
X14333Y15754D01*
X14317Y15749D01*
X14300Y15742D01*
X14282Y15733D01*
X14265Y15723D01*
X14247Y15710D01*
X14228Y15695D01*
X14210Y15679D01*
X14191Y15660D01*
Y15945D01*
X14210Y15926D01*
D02*
G37*
G36*
X16454Y15127D02*
X16468Y15118D01*
X16483Y15109D01*
X16500Y15102D01*
X16518Y15096D01*
X16538Y15091D01*
X16560Y15088D01*
X16583Y15085D01*
X16608Y15083D01*
X16635Y15083D01*
X16434Y14882D01*
X16434Y14909D01*
X16429Y14957D01*
X16426Y14979D01*
X16421Y14999D01*
X16415Y15017D01*
X16408Y15034D01*
X16399Y15049D01*
X16390Y15063D01*
X16379Y15075D01*
X16442Y15138D01*
X16454Y15127D01*
D02*
G37*
G36*
X16761Y14716D02*
X16729Y14679D01*
X16717Y14661D01*
X16706Y14643D01*
X16697Y14626D01*
X16690Y14609D01*
X16685Y14592D01*
X16682Y14576D01*
X16681Y14560D01*
X16593D01*
X16592Y14576D01*
X16589Y14592D01*
X16584Y14609D01*
X16577Y14626D01*
X16568Y14643D01*
X16557Y14661D01*
X16545Y14679D01*
X16530Y14697D01*
X16513Y14716D01*
X16495Y14735D01*
X16779D01*
X16761Y14716D01*
D02*
G37*
G36*
X18579Y10957D02*
X18560Y10976D01*
X18523Y11007D01*
X18505Y11020D01*
X18487Y11030D01*
X18470Y11039D01*
X18453Y11046D01*
X18436Y11051D01*
X18420Y11054D01*
X18404Y11055D01*
Y11144D01*
X18420Y11145D01*
X18436Y11148D01*
X18453Y11153D01*
X18470Y11159D01*
X18487Y11168D01*
X18505Y11179D01*
X18523Y11192D01*
X18541Y11206D01*
X18560Y11223D01*
X18579Y11242D01*
Y10957D01*
D02*
G37*
G36*
X9607Y6547D02*
X9595Y6534D01*
X9584Y6521D01*
X9575Y6507D01*
X9567Y6492D01*
X9560Y6477D01*
X9554Y6462D01*
X9550Y6446D01*
X9547Y6430D01*
X9545Y6413D01*
X9544Y6395D01*
X9455Y6369D01*
X9454Y6386D01*
X9452Y6401D01*
X9447Y6414D01*
X9441Y6426D01*
X9433Y6436D01*
X9423Y6444D01*
X9412Y6450D01*
X9398Y6454D01*
X9383Y6457D01*
X9366Y6458D01*
X9392Y6547D01*
X9410Y6547D01*
X9427Y6549D01*
X9443Y6553D01*
X9459Y6557D01*
X9475Y6563D01*
X9490Y6569D01*
X9504Y6578D01*
X9518Y6587D01*
X9531Y6598D01*
X9544Y6610D01*
X9607Y6547D01*
D02*
G37*
G36*
X7664Y5859D02*
X7653Y5847D01*
X7644Y5834D01*
X7635Y5818D01*
X7628Y5801D01*
X7622Y5783D01*
X7617Y5763D01*
X7614Y5741D01*
X7611Y5718D01*
X7609Y5693D01*
X7609Y5666D01*
X7408Y5867D01*
X7435Y5868D01*
X7483Y5872D01*
X7505Y5875D01*
X7525Y5880D01*
X7543Y5886D01*
X7560Y5894D01*
X7575Y5902D01*
X7589Y5911D01*
X7601Y5922D01*
X7664Y5859D01*
D02*
G37*
G36*
X727Y5924D02*
X764Y5892D01*
X782Y5880D01*
X799Y5869D01*
X817Y5860D01*
X834Y5853D01*
X850Y5848D01*
X867Y5845D01*
X883Y5844D01*
Y5756D01*
X867Y5755D01*
X850Y5752D01*
X834Y5747D01*
X817Y5740D01*
X799Y5731D01*
X782Y5720D01*
X764Y5708D01*
X745Y5693D01*
X727Y5676D01*
X708Y5658D01*
Y5942D01*
X727Y5924D01*
D02*
G37*
G36*
Y4960D02*
X764Y4929D01*
X782Y4916D01*
X799Y4905D01*
X817Y4896D01*
X834Y4890D01*
X850Y4885D01*
X867Y4882D01*
X883Y4881D01*
Y4792D01*
X867Y4791D01*
X850Y4788D01*
X834Y4783D01*
X817Y4776D01*
X799Y4767D01*
X782Y4757D01*
X764Y4744D01*
X745Y4729D01*
X727Y4713D01*
X708Y4694D01*
Y4979D01*
X727Y4960D01*
D02*
G37*
G36*
X10169Y4726D02*
X10183Y4717D01*
X10198Y4708D01*
X10215Y4701D01*
X10233Y4695D01*
X10253Y4690D01*
X10275Y4687D01*
X10298Y4684D01*
X10323Y4683D01*
X10350Y4682D01*
X10149Y4481D01*
X10149Y4508D01*
X10145Y4556D01*
X10141Y4578D01*
X10136Y4598D01*
X10130Y4616D01*
X10123Y4633D01*
X10114Y4648D01*
X10105Y4662D01*
X10094Y4674D01*
X10157Y4737D01*
X10169Y4726D01*
D02*
G37*
G36*
X7609Y4359D02*
X7614Y4310D01*
X7617Y4289D01*
X7622Y4269D01*
X7628Y4250D01*
X7635Y4233D01*
X7644Y4218D01*
X7653Y4204D01*
X7664Y4192D01*
X7601Y4130D01*
X7589Y4140D01*
X7575Y4150D01*
X7560Y4158D01*
X7543Y4165D01*
X7525Y4171D01*
X7505Y4176D01*
X7483Y4180D01*
X7460Y4182D01*
X7435Y4184D01*
X7408Y4184D01*
X7609Y4385D01*
X7609Y4359D01*
D02*
G37*
G36*
X727Y3996D02*
X764Y3965D01*
X782Y3952D01*
X799Y3941D01*
X817Y3933D01*
X834Y3926D01*
X850Y3921D01*
X867Y3918D01*
X883Y3917D01*
Y3828D01*
X867Y3827D01*
X850Y3824D01*
X834Y3819D01*
X817Y3812D01*
X799Y3804D01*
X782Y3793D01*
X764Y3780D01*
X745Y3766D01*
X727Y3749D01*
X708Y3730D01*
Y4015D01*
X727Y3996D01*
D02*
G37*
G36*
X11807Y3495D02*
X11821Y3485D01*
X11836Y3477D01*
X11853Y3470D01*
X11871Y3464D01*
X11891Y3459D01*
X11913Y3455D01*
X11936Y3453D01*
X11961Y3451D01*
X11988Y3451D01*
X11787Y3250D01*
X11786Y3276D01*
X11782Y3325D01*
X11779Y3346D01*
X11774Y3366D01*
X11768Y3385D01*
X11761Y3402D01*
X11752Y3417D01*
X11743Y3431D01*
X11732Y3443D01*
X11795Y3506D01*
X11807Y3495D01*
D02*
G37*
G36*
X11801Y2802D02*
X11815Y2792D01*
X11830Y2784D01*
X11847Y2777D01*
X11865Y2771D01*
X11885Y2766D01*
X11907Y2762D01*
X11930Y2759D01*
X11955Y2758D01*
X11982Y2758D01*
X11781Y2557D01*
X11780Y2583D01*
X11776Y2631D01*
X11773Y2653D01*
X11768Y2673D01*
X11762Y2692D01*
X11754Y2709D01*
X11746Y2724D01*
X11737Y2737D01*
X11726Y2750D01*
X11789Y2812D01*
X11801Y2802D01*
D02*
G37*
G36*
X11802Y2116D02*
X11815Y2106D01*
X11831Y2098D01*
X11848Y2091D01*
X11866Y2085D01*
X11886Y2080D01*
X11908Y2076D01*
X11931Y2074D01*
X11956Y2072D01*
X11983Y2072D01*
X11782Y1871D01*
X11781Y1897D01*
X11777Y1946D01*
X11773Y1967D01*
X11769Y1987D01*
X11763Y2006D01*
X11755Y2023D01*
X11747Y2038D01*
X11738Y2052D01*
X11727Y2064D01*
X11790Y2127D01*
X11802Y2116D01*
D02*
G37*
G36*
X4826Y13611D02*
X4830Y13563D01*
X4834Y13541D01*
X4839Y13521D01*
X4845Y13503D01*
X4852Y13486D01*
X4861Y13470D01*
X4870Y13457D01*
X4881Y13445D01*
X4818Y13382D01*
X4806Y13393D01*
X4792Y13402D01*
X4777Y13410D01*
X4760Y13418D01*
X4742Y13424D01*
X4721Y13429D01*
X4700Y13432D01*
X4676Y13435D01*
X4651Y13436D01*
X4625Y13437D01*
X4826Y13638D01*
X4826Y13611D01*
D02*
G37*
G36*
X5308Y12188D02*
X5287Y12175D01*
X5269Y12161D01*
X5253Y12146D01*
X5239Y12131D01*
X5227Y12116D01*
X5218Y12101D01*
X5210Y12085D01*
X5205Y12069D01*
X5202Y12052D01*
X5201Y12035D01*
X5112Y12055D01*
X5111Y12069D01*
X5108Y12084D01*
X5104Y12101D01*
X5099Y12119D01*
X5091Y12138D01*
X5071Y12178D01*
X5059Y12201D01*
X5029Y12248D01*
X5308Y12188D01*
D02*
G37*
G36*
X6529Y10977D02*
X6543Y10968D01*
X6558Y10959D01*
X6575Y10952D01*
X6593Y10946D01*
X6613Y10941D01*
X6635Y10938D01*
X6658Y10935D01*
X6683Y10933D01*
X6710Y10933D01*
X6509Y10732D01*
X6508Y10759D01*
X6504Y10807D01*
X6501Y10829D01*
X6496Y10849D01*
X6490Y10867D01*
X6483Y10884D01*
X6474Y10899D01*
X6465Y10913D01*
X6454Y10925D01*
X6517Y10988D01*
X6529Y10977D01*
D02*
G37*
G36*
X6515Y10277D02*
X6529Y10268D01*
X6544Y10259D01*
X6561Y10252D01*
X6580Y10246D01*
X6600Y10241D01*
X6622Y10238D01*
X6645Y10235D01*
X6670Y10233D01*
X6696Y10233D01*
X6495Y10032D01*
X6495Y10059D01*
X6491Y10107D01*
X6487Y10129D01*
X6482Y10149D01*
X6476Y10167D01*
X6469Y10184D01*
X6461Y10199D01*
X6451Y10213D01*
X6441Y10225D01*
X6503Y10288D01*
X6515Y10277D01*
D02*
G37*
G36*
X22994Y4563D02*
X22975Y4582D01*
X22938Y4613D01*
X22920Y4626D01*
X22903Y4637D01*
X22885Y4646D01*
X22868Y4652D01*
X22852Y4657D01*
X22835Y4660D01*
X22819Y4661D01*
Y4750D01*
X22835Y4751D01*
X22852Y4754D01*
X22868Y4759D01*
X22885Y4766D01*
X22903Y4775D01*
X22920Y4785D01*
X22938Y4798D01*
X22957Y4813D01*
X22975Y4829D01*
X22994Y4848D01*
Y4563D01*
D02*
G37*
G36*
X13590Y3342D02*
X13627Y3311D01*
X13645Y3298D01*
X13663Y3287D01*
X13680Y3279D01*
X13697Y3272D01*
X13714Y3267D01*
X13730Y3264D01*
X13746Y3263D01*
Y3174D01*
X13730Y3173D01*
X13714Y3170D01*
X13697Y3165D01*
X13680Y3158D01*
X13663Y3150D01*
X13645Y3139D01*
X13627Y3126D01*
X13609Y3111D01*
X13590Y3095D01*
X13571Y3076D01*
Y3361D01*
X13590Y3342D01*
D02*
G37*
G36*
X22972Y3077D02*
X22946Y3077D01*
X22897Y3073D01*
X22876Y3069D01*
X22856Y3064D01*
X22837Y3058D01*
X22820Y3051D01*
X22805Y3043D01*
X22791Y3033D01*
X22779Y3023D01*
X22717Y3086D01*
X22727Y3098D01*
X22737Y3111D01*
X22745Y3126D01*
X22752Y3143D01*
X22758Y3162D01*
X22763Y3182D01*
X22767Y3204D01*
X22769Y3227D01*
X22771Y3252D01*
X22771Y3279D01*
X22972Y3077D01*
D02*
G37*
G36*
X13671Y2661D02*
X13660Y2649D01*
X13642Y2627D01*
X13635Y2617D01*
X13629Y2606D01*
X13625Y2596D01*
X13622Y2586D01*
X13620Y2577D01*
X13620Y2567D01*
X13620Y2558D01*
X13523Y2700D01*
X13531Y2697D01*
X13539Y2694D01*
X13547Y2693D01*
X13555Y2693D01*
X13564Y2695D01*
X13572Y2698D01*
X13581Y2702D01*
X13590Y2708D01*
X13599Y2715D01*
X13608Y2724D01*
X13671Y2661D01*
D02*
G37*
G36*
X13679Y2034D02*
X13668Y2022D01*
X13658Y2009D01*
X13650Y1994D01*
X13643Y1977D01*
X13637Y1958D01*
X13632Y1938D01*
X13628Y1916D01*
X13626Y1893D01*
X13624Y1868D01*
X13624Y1842D01*
X13423Y2043D01*
X13449Y2043D01*
X13498Y2047D01*
X13519Y2051D01*
X13539Y2056D01*
X13558Y2062D01*
X13575Y2069D01*
X13590Y2077D01*
X13604Y2087D01*
X13616Y2097D01*
X13679Y2034D01*
D02*
G37*
%LPC*%
G36*
X45567Y8242D02*
X45456D01*
X45353Y8199D01*
X45275Y8121D01*
X45232Y8018D01*
Y7907D01*
X45275Y7804D01*
X45353Y7726D01*
X45456Y7683D01*
X45567D01*
X45670Y7726D01*
X45748Y7804D01*
X45791Y7907D01*
Y8018D01*
X45748Y8121D01*
X45670Y8199D01*
X45567Y8242D01*
D02*
G37*
G36*
X31074Y1600D02*
X30953D01*
X30841Y1554D01*
X30755Y1468D01*
X30709Y1356D01*
Y1235D01*
X30755Y1123D01*
X30841Y1037D01*
X30953Y991D01*
X31074D01*
X31186Y1037D01*
X31272Y1123D01*
X31318Y1235D01*
Y1356D01*
X31272Y1468D01*
X31186Y1554D01*
X31074Y1600D01*
D02*
G37*
%LPD*%
D16*
X57260Y5500D02*
G03*
X58260Y4500I1000J0D01*
G01*
X59260Y3500D02*
G03*
X58260Y4500I-1000J0D01*
G01*
Y0D02*
G03*
X59260Y1000I0J1000D01*
G01*
Y25000D02*
G03*
X58260Y26000I-1000J0D01*
G01*
Y21500D02*
G03*
X59260Y22500I0J1000D01*
G01*
X58260Y21500D02*
G03*
X57260Y20500I0J-1000D01*
G01*
X-1000Y1000D02*
G03*
X0Y0I1000J0D01*
G01*
Y26000D02*
G03*
X-1000Y25000I0J-1000D01*
G01*
X59260Y1000D02*
Y3500D01*
X56260Y0D02*
X58260D01*
X56260Y26000D02*
X58260D01*
X59260Y22500D02*
Y25000D01*
X57260Y5500D02*
Y20500D01*
X0Y0D02*
X56260D01*
X-1000Y1000D02*
Y25000D01*
X0Y26000D02*
X56260D01*
D18*
X36360Y4062D02*
X36412D01*
D97*
X22534Y13287D02*
D03*
X563Y5800D02*
D03*
X21920Y22733D02*
D03*
X18542Y23393D02*
D03*
X18313Y17907D02*
D03*
X53964Y5753D02*
D03*
X15951Y25157D02*
D03*
X12649Y25425D02*
D03*
X19444Y24289D02*
D03*
X18496Y25425D02*
D03*
X16332Y19685D02*
D03*
X17607Y20437D02*
D03*
X23380Y18761D02*
D03*
X20831Y18756D02*
D03*
X22991Y25411D02*
D03*
X47160Y18867D02*
D03*
X41612Y11862D02*
D03*
X40962D02*
D03*
X47960Y18867D02*
D03*
X44212Y13812D02*
D03*
X53111Y18830D02*
D03*
X43562Y13812D02*
D03*
X53645Y18830D02*
D03*
X14453Y18567D02*
D03*
X15140Y18383D02*
D03*
X13233Y15691D02*
D03*
X14453Y19101D02*
D03*
X14046Y7473D02*
D03*
X14046Y15802D02*
D03*
X5199Y12360D02*
D03*
X53653Y16612D02*
D03*
X44212Y13162D02*
D03*
X53119Y16612D02*
D03*
X44862Y13162D02*
D03*
X13388Y7082D02*
D03*
X46162Y12512D02*
D03*
X43060Y22940D02*
D03*
X48571Y1454D02*
D03*
X54611Y1131D02*
D03*
X54598Y1776D02*
D03*
X54737Y2360D02*
D03*
X51125Y1559D02*
D03*
X41560Y18867D02*
D03*
X42360D02*
D03*
X40312Y13162D02*
D03*
X39662D02*
D03*
X45085Y21212D02*
D03*
X44285Y21212D02*
D03*
X4953Y15869D02*
D03*
X5097Y10105D02*
D03*
X16332Y7080D02*
D03*
X3589Y21984D02*
D03*
X33914Y2947D02*
D03*
X42525Y457D02*
D03*
X40963D02*
D03*
X7656Y17037D02*
D03*
X28397Y13940D02*
D03*
X27436Y10188D02*
D03*
X20523Y4877D02*
D03*
X45822Y24308D02*
D03*
X49128Y24353D02*
D03*
X24704Y13880D02*
D03*
X12472Y11009D02*
D03*
X55677Y20533D02*
D03*
X31677Y21525D02*
D03*
X50972Y8198D02*
D03*
X8179Y21184D02*
D03*
X36760Y25425D02*
D03*
X8977Y20868D02*
D03*
X16332Y22347D02*
D03*
X12226Y21782D02*
D03*
X6712Y23068D02*
D03*
X4953Y457D02*
D03*
X4991Y25543D02*
D03*
X14453Y20868D02*
D03*
Y22732D02*
D03*
X22822Y4033D02*
D03*
X22974Y3281D02*
D03*
X23139Y4706D02*
D03*
X11990Y3248D02*
D03*
X13421Y1839D02*
D03*
X11984Y2555D02*
D03*
X13420Y2525D02*
D03*
X11985Y1869D02*
D03*
X13426Y3218D02*
D03*
X7406Y4387D02*
D03*
Y5664D02*
D03*
X10352Y4479D02*
D03*
Y5715D02*
D03*
X12950Y5664D02*
D03*
X15773Y4441D02*
D03*
X18724Y11099D02*
D03*
Y12370D02*
D03*
X16637Y14880D02*
D03*
X19437Y4907D02*
D03*
X18592Y4902D02*
D03*
X8528Y15240D02*
D03*
X7678D02*
D03*
X8528Y12538D02*
D03*
X7678D02*
D03*
X8534Y8026D02*
D03*
X11070Y12830D02*
D03*
Y14964D02*
D03*
Y14430D02*
D03*
Y13364D02*
D03*
Y13897D02*
D03*
X10147Y10030D02*
D03*
Y10730D02*
D03*
X7849Y10389D02*
D03*
X6698Y10030D02*
D03*
X6712Y10730D02*
D03*
X21491Y11320D02*
D03*
X19888Y11480D02*
D03*
X25324Y16485D02*
D03*
X26111Y15494D02*
D03*
X4623Y13640D02*
D03*
X24827Y24353D02*
D03*
X24342Y19003D02*
D03*
X24068Y19798D02*
D03*
Y20712D02*
D03*
X24334Y22200D02*
D03*
X36617Y24308D02*
D03*
X36017Y25208D02*
D03*
X35864Y24218D02*
D03*
X35576Y19587D02*
D03*
X25146Y17094D02*
D03*
X29032Y19685D02*
D03*
X29016Y21954D02*
D03*
X30142Y25405D02*
D03*
X31579Y20760D02*
D03*
X30946D02*
D03*
Y19939D02*
D03*
Y21801D02*
D03*
X30121Y21494D02*
D03*
X30133Y20077D02*
D03*
X28762Y20760D02*
D03*
X28143Y21525D02*
D03*
X47462Y8612D02*
D03*
X50860Y4216D02*
D03*
X50022D02*
D03*
X55461Y6715D02*
D03*
X55982Y2981D02*
D03*
X50972Y8798D02*
D03*
X55541Y7302D02*
D03*
X25511Y663D02*
D03*
X35097Y1638D02*
D03*
X22949Y857D02*
D03*
X19609Y1781D02*
D03*
X4966Y3873D02*
D03*
X3429Y4479D02*
D03*
X3429Y5774D02*
D03*
X563Y3873D02*
D03*
Y4836D02*
D03*
X-390Y3873D02*
D03*
Y4836D02*
D03*
Y5800D02*
D03*
X9928Y3412D02*
D03*
X8678Y3412D02*
D03*
X7428D02*
D03*
X6178D02*
D03*
X48053Y1017D02*
D03*
X29836Y1397D02*
D03*
X27905Y1163D02*
D03*
X28198Y1781D02*
D03*
X42262Y2762D02*
D03*
X45624Y2102D02*
D03*
X45085D02*
D03*
X46812Y1558D02*
D03*
X39012Y14462D02*
D03*
X38362D02*
D03*
X37410Y23017D02*
D03*
X39010D02*
D03*
X40610D02*
D03*
X47010Y23017D02*
D03*
X48610Y23017D02*
D03*
X39160Y18867D02*
D03*
X37560D02*
D03*
X36760D02*
D03*
X39012Y9262D02*
D03*
X36412Y4062D02*
D03*
Y6012D02*
D03*
Y6662D02*
D03*
X29036Y6280D02*
D03*
Y10280D02*
D03*
X33036Y12680D02*
D03*
X32236Y13480D02*
D03*
X36412Y9262D02*
D03*
X32236Y12680D02*
D03*
Y11880D02*
D03*
X37062Y12512D02*
D03*
X36412Y11212D02*
D03*
X37062D02*
D03*
Y10562D02*
D03*
Y7312D02*
D03*
Y9262D02*
D03*
X37712D02*
D03*
X38362D02*
D03*
X39662Y7962D02*
D03*
X56183Y4378D02*
D03*
X56234Y3844D02*
D03*
X39485Y1638D02*
D03*
X51125Y978D02*
D03*
X50022Y2019D02*
D03*
X52974Y503D02*
D03*
X54009Y15102D02*
D03*
X45512Y12512D02*
D03*
X53476Y15102D02*
D03*
X53523Y15633D02*
D03*
X46162Y13162D02*
D03*
X53131Y15994D02*
D03*
X45512Y13162D02*
D03*
X53653Y17715D02*
D03*
X53119D02*
D03*
X44862Y14462D02*
D03*
X44212D02*
D03*
X55541Y15102D02*
D03*
Y16902D02*
D03*
Y18702D02*
D03*
X31436Y8680D02*
D03*
X26636Y12680D02*
D03*
X29836Y11080D02*
D03*
X26636D02*
D03*
X31436D02*
D03*
X29836Y6280D02*
D03*
X25036Y7080D02*
D03*
X24236Y4680D02*
D03*
X31436Y11880D02*
D03*
X26636D02*
D03*
X25036Y11080D02*
D03*
Y11880D02*
D03*
X32236Y4680D02*
D03*
X24236Y11080D02*
D03*
X25036Y10280D02*
D03*
X27436Y8680D02*
D03*
X31436Y7080D02*
D03*
Y6280D02*
D03*
X27436Y5480D02*
D03*
X32236D02*
D03*
X25036D02*
D03*
X44862Y11212D02*
D03*
X41612D02*
D03*
X45512Y9262D02*
D03*
X44212Y5362D02*
D03*
X47462Y3412D02*
D03*
X46210Y22217D02*
D03*
X46210Y23017D02*
D03*
X44610D02*
D03*
X43010Y22217D02*
D03*
X48285Y21212D02*
D03*
X41885D02*
D03*
X41085Y21212D02*
D03*
X36412Y2762D02*
D03*
Y13812D02*
D03*
X37062Y4062D02*
D03*
X48112Y9262D02*
D03*
Y7962D02*
D03*
X37062Y6662D02*
D03*
X38362Y5362D02*
D03*
X39012Y4712D02*
D03*
X44212Y4062D02*
D03*
X46812Y9912D02*
D03*
Y7312D02*
D03*
X42912Y4062D02*
D03*
X39012Y5362D02*
D03*
X46162Y7312D02*
D03*
X39012Y6012D02*
D03*
X39662Y5362D02*
D03*
X46162Y7962D02*
D03*
X39662Y6012D02*
D03*
X41612Y5362D02*
D03*
X40312Y6012D02*
D03*
X44212Y10562D02*
D03*
Y7312D02*
D03*
X43562Y6662D02*
D03*
X42912Y10562D02*
D03*
X44212Y9262D02*
D03*
X41612Y6662D02*
D03*
X43562Y9912D02*
D03*
X41612D02*
D03*
X43562Y7962D02*
D03*
X42912Y7312D02*
D03*
Y9262D02*
D03*
X41612Y7962D02*
D03*
D112*
X51280Y18391D02*
G03*
X51235Y18364I123J-256D01*
G01*
Y18364D02*
G03*
X51119Y18135I169J-229D01*
G01*
X52059Y18400D02*
G03*
X52013Y18419I-47J-47D01*
G01*
X40312Y14164D02*
G03*
X40312Y14161I559J-3D01*
G01*
X40501Y14619D02*
G03*
X40312Y14164I458J-458D01*
G01*
X50912Y19093D02*
G03*
X50867Y19073I501J-1166D01*
G01*
D02*
G03*
X50144Y17927I546J-1145D01*
G01*
X51177Y14427D02*
G03*
X51223Y14438I-310J1320D01*
G01*
D02*
G03*
X52222Y15747I-356J1308D01*
G01*
X53180Y11454D02*
G03*
X53260Y11648I-194J194D01*
G01*
X41612Y11862D02*
G03*
X42251Y12126I0J906D01*
G01*
D02*
G03*
X42252Y12128I-639J642D01*
G01*
X42252D02*
G03*
X42331Y12318I-190J190D01*
G01*
X42480Y13630D02*
G03*
X42331Y13269I361J-361D01*
G01*
X42482Y13632D02*
G03*
X42560Y13821I-189J189D01*
G01*
X42863Y15406D02*
G03*
X42560Y14675I731J-731D01*
G01*
X47143Y19465D02*
G03*
X46766Y19309I0J-533D01*
G01*
X47377Y19084D02*
G03*
X47425Y19201I-117J117D01*
G01*
Y19292D02*
G03*
X47252Y19465I-173J0D01*
G01*
X42673Y15596D02*
G03*
X42672Y15596I922J-922D01*
G01*
X41961Y12268D02*
G03*
X42062Y12511I-243J243D01*
G01*
X42672Y15596D02*
G03*
X42291Y14675I922J-921D01*
G01*
X47694Y19292D02*
G03*
X47252Y19734I-442J0D01*
G01*
X47031D02*
G03*
X46655Y19578I0J-533D01*
G01*
X47743Y19085D02*
G03*
X47743Y19084I117J116D01*
G01*
X47694Y19201D02*
G03*
X47743Y19085I165J0D01*
G01*
X42129Y13587D02*
G03*
X42132Y13593I-79J45D01*
G01*
X42262Y13801D02*
G03*
X42291Y13979I-525J177D01*
G01*
X42246Y13772D02*
G03*
X42132Y13593I596J-503D01*
G01*
X42246Y13772D02*
G03*
X42248Y13776I-70J59D01*
G01*
D02*
G03*
X42262Y13801I-73J55D01*
G01*
X42248Y13776D02*
G03*
X42062Y13271I588J-505D01*
G01*
X41777Y12192D02*
G03*
X41961Y12268I0J260D01*
G01*
X41453Y12192D02*
G03*
X41177Y12078I0J-390D01*
G01*
X44113Y15129D02*
G03*
X44011Y14883I246J-246D01*
G01*
X43932Y14692D02*
G03*
X44011Y14883I-190J190D01*
G01*
X44857Y15621D02*
G03*
X44427Y15443I0J-608D01*
G01*
X48907Y15621D02*
G03*
X50144Y16858I0J1237D01*
G01*
X53111Y18921D02*
G03*
X52837Y19196I-275J0D01*
G01*
X43806Y14388D02*
G03*
X43926Y14098I411J0D01*
G01*
D02*
G03*
X43927Y14098I290J290D01*
G01*
X43932Y14692D02*
G03*
X43806Y14388I304J-304D01*
G01*
X44857Y15890D02*
G03*
X44237Y15633I0J-878D01*
G01*
X43485Y13998D02*
G03*
X43562Y13812I262J0D01*
G01*
X48795Y15890D02*
G03*
X49875Y16970I0J1080D01*
G01*
X49875Y17930D02*
G03*
X49875Y17927I1538J-3D01*
G01*
X49875Y18039D02*
G03*
X49881Y18064I-85J34D01*
G01*
X51235Y19455D02*
G03*
X49881Y18064I178J-1528D01*
G01*
X51235Y19455D02*
G03*
X51265Y19465I-12J91D01*
G01*
X53645Y18830D02*
G03*
X53010Y19465I-635J0D01*
G01*
X43923Y15319D02*
G03*
X43743Y14921I437J-437D01*
G01*
X43654Y14780D02*
G03*
X43485Y14262I709J-518D01*
G01*
X43684Y14810D02*
G03*
X43723Y14863I-152J152D01*
G01*
D02*
G03*
X43743Y14921I-191J99D01*
G01*
D02*
G03*
X43747Y14962I-211J41D01*
G01*
X49844Y14660D02*
G03*
X49410Y14226I0J-434D01*
G01*
X49014D02*
G03*
X48580Y14660I-434J0D01*
G01*
X49014Y13292D02*
G03*
X49410Y13292I198J0D01*
G01*
X48744Y14226D02*
G03*
X48580Y14391I-164J0D01*
G01*
X49844D02*
G03*
X49679Y14226I0J-164D01*
G01*
X48744Y13292D02*
G03*
X49679Y13292I467J0D01*
G01*
X45444Y13641D02*
G03*
X45106Y13501I0J-478D01*
G01*
X45444Y13641D02*
G03*
X45782Y13780I0J478D01*
G01*
X46261Y14259D02*
G03*
X46260Y14259I316J-315D01*
G01*
X46577Y14391D02*
G03*
X46261Y14259I0J-446D01*
G01*
X52770Y16931D02*
G03*
X52222Y16383I0J-548D01*
G01*
X53119Y16612D02*
G03*
X52800Y16931I-319J0D01*
G01*
X44666Y13527D02*
G03*
X44520Y13467I0J-207D01*
G01*
X44666Y13527D02*
G03*
X44812Y13587I0J207D01*
G01*
X45332Y13910D02*
G03*
X44994Y13770I0J-478D01*
G01*
X45332Y13910D02*
G03*
X45670Y14049I0J478D01*
G01*
X46072Y14452D02*
G03*
X46070Y14449I504J-507D01*
G01*
X46577Y14660D02*
G03*
X46183Y14542I0J-715D01*
G01*
X50867Y14660D02*
G03*
X51953Y15747I0J1087D01*
G01*
X53207Y17057D02*
G03*
X52861Y17200I-346J-346D01*
G01*
X52659D02*
G03*
X51953Y16495I0J-705D01*
G01*
X46183Y14542D02*
G03*
X46072Y14452I394J-597D01*
G01*
X43926Y18425D02*
G03*
X44120Y18892I-469J468D01*
G01*
X40297Y14796D02*
G03*
X40042Y14180I616J-616D01*
G01*
X44121Y18238D02*
G03*
X44389Y19017I-665J665D01*
G01*
X44962Y21152D02*
G03*
X45069Y21196I0J151D01*
G01*
X44962Y21152D02*
G03*
X44855Y21108I0J-151D01*
G01*
X45251Y20322D02*
G03*
X45080Y20736I-585J0D01*
G01*
X45053Y19841D02*
G03*
X45251Y20318I-477J477D01*
G01*
X44502Y19290D02*
G03*
X44389Y19017I273J-273D01*
G01*
X44297Y21200D02*
G03*
X44414Y21152I117J117D01*
G01*
X44510Y21112D02*
G03*
X44414Y21152I-97J-97D01*
G01*
X44550Y21015D02*
G03*
X44510Y21112I-137J0D01*
G01*
X44550Y20978D02*
G03*
X44616Y20818I226J0D01*
G01*
X44982Y20320D02*
G03*
X44888Y20547I-321J0D01*
G01*
X44862Y20030D02*
G03*
X44982Y20320I-290J290D01*
G01*
X44310Y19479D02*
G03*
X44120Y19019I460J-460D01*
G01*
X39662Y13162D02*
G03*
X40042Y13543I0J381D01*
G01*
X44846Y21099D02*
G03*
X44819Y21034I65J-65D01*
G01*
D02*
G03*
X44846Y20969I91J0D01*
G01*
X51192Y9999D02*
G03*
X51975Y9999I391J0D01*
G01*
X51462Y10822D02*
G03*
X51070Y11213I-391J0D01*
G01*
X51462Y9999D02*
G03*
X51705Y9999I122J0D01*
G01*
X51192Y10822D02*
G03*
X51070Y10944I-122J0D01*
G01*
X52097Y11213D02*
G03*
X51705Y10822I0J-391D01*
G01*
X52097Y10944D02*
G03*
X51975Y10822I0J-122D01*
G01*
X38969Y15556D02*
G03*
X38510Y15747I-460J-460D01*
G01*
X38971Y15555D02*
G03*
X39618Y15287I647J647D01*
G01*
X38821Y14660D02*
G03*
X38340Y15141I-481J0D01*
G01*
X39160Y15747D02*
G03*
X39620Y15556I460J460D01*
G01*
X36522Y15389D02*
G03*
X36770Y15141I248J0D01*
G01*
X39158Y15749D02*
G03*
X38513Y16016I-645J-645D01*
G01*
X36879Y15747D02*
G03*
X36522Y15389I0J-357D01*
G01*
X39993Y15287D02*
G03*
X40109Y15295I-2J837D01*
G01*
X40587Y15535D02*
G03*
X41072Y16711I-1177J1175D01*
G01*
X40394Y15724D02*
G03*
X40803Y16713I-991J989D01*
G01*
X40120Y15297D02*
G03*
X40245Y15326I-130J828D01*
G01*
D02*
G03*
X40577Y15526I-255J799D01*
G01*
X39989Y15556D02*
G03*
X40394Y15724I2J569D01*
G01*
X41826Y17569D02*
G03*
X42088Y18201I-633J633D01*
G01*
X38821Y14653D02*
G03*
X39012Y14462I190J0D01*
G01*
X42360Y18867D02*
G03*
X42088Y18595I0J-272D01*
G01*
X36879Y16016D02*
G03*
X36253Y15389I0J-627D01*
G01*
D02*
G03*
X36770Y14872I518J0D01*
G01*
X38552Y14660D02*
G03*
X38340Y14872I-212J0D01*
G01*
X41651Y18851D02*
G03*
X41560Y18867I-92J-242D01*
G01*
X41802Y18700D02*
G03*
X41651Y18851I-242J-92D01*
G01*
X41819Y18609D02*
G03*
X41802Y18700I-259J0D01*
G01*
X41147Y16890D02*
G03*
X41072Y16711I181J-180D01*
G01*
X41560Y17684D02*
G03*
X41819Y18308I-625J624D01*
G01*
X40955Y17079D02*
G03*
X40954Y17078I366J-366D01*
G01*
D02*
G03*
X40803Y16713I366J-365D01*
G01*
X38362Y14462D02*
G03*
X38552Y14653I0J190D01*
G01*
X52707Y15003D02*
G03*
X52492Y14483I520J-520D01*
G01*
X52317Y12608D02*
G03*
X52486Y13083I-583J475D01*
G01*
X52491Y13083D02*
G03*
X52492Y13099I-777J16D01*
G01*
X53953Y14967D02*
G03*
X54009Y15102I-135J135D01*
G01*
X53943Y14957D02*
G03*
X53877Y14797I159J-159D01*
G01*
X53703Y13860D02*
G03*
X53529Y13440I420J-420D01*
G01*
X53371Y11265D02*
G03*
X53529Y11647I-382J382D01*
G01*
X52823Y10944D02*
G03*
X53211Y11105I0J549D01*
G01*
X53508Y15618D02*
G03*
X53506Y15616I65J-64D01*
G01*
X53495Y15605D02*
G03*
X53499Y15609I-61J68D01*
G01*
X53368Y15556D02*
G03*
X53495Y15605I0J191D01*
G01*
X53353Y15556D02*
G03*
X53194Y15490I0J-225D01*
G01*
X52317Y12608D02*
G03*
X52307Y12592I71J-57D01*
G01*
X51432Y12631D02*
G03*
X52078Y12363I378J0D01*
G01*
X50456Y12911D02*
G03*
X50238Y12911I-109J0D01*
G01*
X51432Y12631D02*
G03*
X51213Y12631I-109J0D01*
G01*
X49859Y11930D02*
G03*
X50238Y12309I0J378D01*
G01*
X50456Y12051D02*
G03*
X51213Y12051I378J0D01*
G01*
X52349Y18149D02*
G03*
X52436Y18135I87J255D01*
G01*
X52246Y18213D02*
G03*
X52349Y18149I190J191D01*
G01*
X53251Y17830D02*
G03*
X53194Y18013I-320J0D01*
G01*
D02*
G03*
X52899Y18135I-294J-294D01*
G01*
X53136Y17715D02*
G03*
X53251Y17830I0J115D01*
G01*
X50450Y15037D02*
G03*
X51119Y15706I0J670D01*
G01*
X45031Y15037D02*
G03*
X44787Y14936I0J-345D01*
G01*
X44723Y14872D02*
G03*
X44671Y14747I125J-125D01*
G01*
D02*
G03*
X44723Y14622I177J0D01*
G01*
X53476Y15102D02*
G03*
X53532Y14967I191J0D01*
G01*
X53608Y14797D02*
G03*
X53542Y14957I-225J0D01*
G01*
X53434Y13971D02*
G03*
X53260Y13551I420J-420D01*
G01*
X52711Y11213D02*
G03*
X53099Y11374I0J549D01*
G01*
X53076Y18401D02*
G03*
X53029Y18404I-47J-371D01*
G01*
X53294Y18295D02*
G03*
X53076Y18401I-264J-264D01*
G01*
X53520Y17830D02*
G03*
X53635Y17715I115J0D01*
G01*
X53520Y17830D02*
G03*
X53294Y18295I-589J0D01*
G01*
X52249Y18591D02*
G03*
X52014Y18689I-235J-235D01*
G01*
X51404D02*
G03*
X50850Y18135I0J-554D01*
G01*
X50450Y15306D02*
G03*
X50850Y15706I0J400D01*
G01*
X45031Y15306D02*
G03*
X44800Y15271I0J-775D01*
G01*
X44493Y15023D02*
G03*
X44402Y14802I220J-220D01*
G01*
X44311Y14582D02*
G03*
X44402Y14802I-220J220D01*
G01*
X44226Y14498D02*
G03*
X44212Y14462I35J-35D01*
G01*
X53125Y15989D02*
G03*
X53069Y15854I135J-135D01*
G01*
X52515Y15192D02*
G03*
X52222Y14486I706J-706D01*
G01*
X51701Y12631D02*
G03*
X51888Y12554I109J0D01*
G01*
X50726Y12911D02*
G03*
X49969Y12911I-378J0D01*
G01*
X51701Y12631D02*
G03*
X50944Y12631I-378J0D01*
G01*
X50726Y12051D02*
G03*
X50944Y12051I109J0D01*
G01*
X49859Y12200D02*
G03*
X49969Y12309I0J109D01*
G01*
X53703Y13860D02*
G03*
X53877Y14280I-420J420D01*
G01*
X53434Y13971D02*
G03*
X53608Y14391I-420J420D01*
G01*
X52074Y12740D02*
G03*
X52222Y13099I-360J359D01*
G01*
X53003Y15680D02*
G03*
X53069Y15840I-159J159D01*
G01*
X44654Y15183D02*
G03*
X44652Y15181I253J-257D01*
G01*
X44799Y15271D02*
G03*
X44654Y15183I108J-344D01*
G01*
X44800Y15271D02*
G03*
X44799Y15271I108J-344D01*
G01*
X44862Y14462D02*
G03*
X44847Y14498I-50J0D01*
G01*
X50850Y17350D02*
G03*
X51229Y16971I378J0D01*
G01*
X51229Y16753D02*
G03*
X51229Y16971I0J109D01*
G01*
X50732Y16753D02*
G03*
X50732Y15996I0J-378D01*
G01*
X50850Y15887D02*
G03*
X50741Y15996I-109J0D01*
G01*
X51119Y17350D02*
G03*
X51229Y17241I109J0D01*
G01*
X51229Y16484D02*
G03*
X51229Y17241I0J378D01*
G01*
X50732Y16484D02*
G03*
X50732Y16265I0J-109D01*
G01*
X51119Y15887D02*
G03*
X50741Y16265I-378J0D01*
G01*
X51827Y18419D02*
X52013D01*
X51772Y18365D02*
X51827Y18419D01*
X51772Y18066D02*
Y18365D01*
X51717Y18011D02*
X51772Y18066D01*
X51608Y18011D02*
X51717D01*
X51554Y18066D02*
X51608Y18011D01*
X51554Y18066D02*
Y18365D01*
X51499Y18419D02*
X51554Y18365D01*
X51404Y18419D02*
X51499D01*
X51280Y18391D02*
X51404Y18419D01*
X51235Y18364D02*
Y18364D01*
X52059Y18400D02*
X52059Y18400D01*
X52246Y18213D01*
X40312Y13162D02*
Y13429D01*
Y14084D02*
Y14161D01*
Y14084D02*
X40373Y14023D01*
X40434D01*
X40495Y13962D01*
Y13840D02*
Y13962D01*
X40434Y13779D02*
X40495Y13840D01*
X40373Y13779D02*
X40434D01*
X40312Y13718D02*
X40373Y13779D01*
X40312Y13429D02*
Y13718D01*
Y14161D02*
Y14161D01*
X40501Y14619D02*
X44121Y18238D01*
X46443Y18986D02*
X46530Y19073D01*
X46443Y18899D02*
Y18986D01*
Y18899D02*
X46520Y18822D01*
Y18736D02*
Y18822D01*
X46434Y18650D02*
X46520Y18736D01*
X46348Y18650D02*
X46434D01*
X46270Y18727D02*
X46348Y18650D01*
X46184Y18727D02*
X46270D01*
X46098Y18641D02*
X46184Y18727D01*
X46098Y18555D02*
Y18641D01*
Y18555D02*
X46353Y18300D01*
Y18213D02*
Y18300D01*
X46267Y18127D02*
X46353Y18213D01*
X46181Y18127D02*
X46267D01*
X45926Y18382D02*
X46181Y18127D01*
X45839Y18382D02*
X45926D01*
X45635Y18177D02*
X45839Y18382D01*
X46530Y19073D02*
X46766Y19309D01*
X45612Y18154D02*
X45635Y18177D01*
X42863Y15406D02*
X45612Y18154D01*
X50912Y19093D02*
X51223Y19182D01*
X51377Y19196D01*
X51377Y19196D01*
X51449D01*
X51499Y19193D01*
X51499Y19193D01*
X51499Y19196D01*
X51831D01*
X51892Y19135D01*
Y19000D02*
Y19135D01*
Y19000D02*
X51953Y18939D01*
X52075D01*
X52136Y19000D01*
Y19135D01*
X52197Y19196D01*
X52319D01*
X52380Y19135D01*
Y18830D02*
Y19135D01*
Y18830D02*
X52441Y18769D01*
X52563D01*
X52624Y18830D01*
Y19135D01*
X52685Y19196D01*
X52731D01*
X52837D01*
X51165Y14425D02*
X51177Y14427D01*
X51104Y14364D02*
X51165Y14425D01*
X51104Y14066D02*
Y14364D01*
X51043Y14005D02*
X51104Y14066D01*
X50921Y14005D02*
X51043D01*
X50860Y14066D02*
X50921Y14005D01*
X50860Y14066D02*
Y14330D01*
X50799Y14391D02*
X50860Y14330D01*
X50677Y14391D02*
X50799D01*
X50616Y14330D02*
X50677Y14391D01*
X50616Y13969D02*
Y14330D01*
X50555Y13908D02*
X50616Y13969D01*
X50433Y13908D02*
X50555D01*
X50372Y13969D02*
X50433Y13908D01*
X50372Y13969D02*
Y14330D01*
X50311Y14391D02*
X50372Y14330D01*
X50022Y14391D02*
X50311D01*
X49844D02*
X50022D01*
X52492Y13754D02*
Y13942D01*
Y13754D02*
X52553Y13693D01*
X52791D01*
X52852Y13632D01*
Y13511D02*
Y13632D01*
X52791Y13450D02*
X52852Y13511D01*
X52553Y13450D02*
X52791D01*
X52492Y13389D02*
X52553Y13450D01*
X52492Y13099D02*
Y13389D01*
X53260Y12292D02*
Y12786D01*
X53199Y12231D02*
X53260Y12292D01*
X52934Y12231D02*
X53199D01*
X52873Y12170D02*
X52934Y12231D01*
X52873Y12048D02*
Y12170D01*
Y12048D02*
X52934Y11987D01*
X53199D01*
X53260Y11926D01*
Y11880D02*
Y11926D01*
Y12786D02*
Y13302D01*
Y11796D02*
Y11880D01*
Y11648D02*
Y11796D01*
X42331Y12318D02*
Y13269D01*
X42480Y13630D02*
X42482Y13632D01*
X42560Y13821D02*
Y14675D01*
X47160Y18867D02*
X47377Y19084D01*
X47143Y19465D02*
X47252D01*
X47425Y19201D02*
Y19292D01*
X42062Y12511D02*
Y13271D01*
X42673Y15596D02*
X46655Y19578D01*
X47743Y19085D02*
X47743Y19084D01*
X47960Y18867D01*
X47031Y19734D02*
X47252D01*
X47694Y19201D02*
Y19292D01*
X42291Y13979D02*
Y14675D01*
X40962Y11862D02*
X41177Y12078D01*
X41453Y12192D02*
X41777D01*
X44207Y13812D02*
X44212D01*
X50144Y16858D02*
Y17927D01*
X44113Y15129D02*
X44427Y15443D01*
X44857Y15621D02*
X48907D01*
X53111Y18830D02*
Y18921D01*
X43926Y14098D02*
X43927Y14098D01*
X44212Y13812D01*
X43923Y15319D02*
X44237Y15633D01*
X43485Y13998D02*
Y14262D01*
X44857Y15890D02*
X48795D01*
X49875Y16970D02*
Y17927D01*
X49875Y17930D02*
Y18039D01*
X51235Y19455D02*
X51235Y19455D01*
X51265Y19465D02*
X51428Y19465D01*
X53010D01*
X43654Y14780D02*
X43654Y14780D01*
X43684Y14810D01*
X49014Y13292D02*
Y14226D01*
X49410Y13292D02*
Y14226D01*
X49679Y13292D02*
Y14226D01*
X48744Y13292D02*
Y14226D01*
X44862Y13256D02*
X45106Y13501D01*
X45782Y13780D02*
X46260Y14259D01*
X46261Y14259D01*
X46577Y14391D02*
X48580D01*
X52222Y15747D02*
Y16383D01*
X52770Y16931D02*
X52800D01*
X44216Y13162D02*
X44520Y13467D01*
X44812Y13587D02*
X44994Y13770D01*
X45670Y14049D02*
X46070Y14449D01*
X46070Y14449D01*
X46577Y14660D02*
X48580D01*
X49844D02*
X50867D01*
X51953Y15747D02*
Y16495D01*
X53207Y17057D02*
X53653Y16612D01*
X52659Y17200D02*
X52861D01*
X44212Y13162D02*
X44216D01*
X44862Y13248D02*
Y13256D01*
X53260Y13302D02*
Y13551D01*
X53099Y11374D02*
X53180Y11454D01*
X52492Y13942D02*
Y14483D01*
X45857Y12167D02*
X46518D01*
X45512Y12512D02*
X45857Y12167D01*
X46518D02*
X46822Y11862D01*
X40297Y14796D02*
X40828Y15326D01*
X43926Y18425D01*
X45069Y21196D02*
X45085Y21212D01*
X44846Y21099D02*
X44855Y21108D01*
X44846Y20969D02*
X45080Y20736D01*
X44502Y19290D02*
X45053Y19841D01*
X40042Y13543D02*
Y14180D01*
X44120Y18892D02*
Y19019D01*
X44297Y21200D02*
X44297Y21200D01*
X44285Y21212D02*
X44297Y21200D01*
X44550Y20978D02*
Y21015D01*
X44616Y20818D02*
X44888Y20547D01*
X44862Y20030D02*
X44862Y20030D01*
X44310Y19479D02*
X44862Y20030D01*
X45251Y20318D02*
Y20322D01*
X50377Y10944D02*
X51070D01*
X52097D02*
X52624D01*
X51705Y9999D02*
Y10822D01*
X51462Y9999D02*
Y10822D01*
X52097Y11213D02*
X52624D01*
X51975Y9999D02*
Y10822D01*
X50377Y11213D02*
X51070D01*
X51192Y9999D02*
Y10822D01*
X38969Y15556D02*
X38971Y15555D01*
X39158Y15749D02*
X39160Y15747D01*
X39620Y15556D02*
X39989D01*
X39618Y15287D02*
X39993D01*
X36879Y15747D02*
X38510D01*
X36770Y15141D02*
X38340D01*
X40109Y15295D02*
X40120Y15297D01*
X40577Y15526D02*
X40587Y15535D01*
X41147Y16890D02*
X41826Y17569D01*
X38821Y14653D02*
Y14660D01*
X42088Y18201D02*
Y18595D01*
X41819Y18308D02*
Y18609D01*
X36879Y16016D02*
X38513D01*
X36770Y14872D02*
X38340D01*
X38552Y14653D02*
Y14660D01*
X40955Y17079D02*
X41560Y17684D01*
X53943Y14957D02*
X53953Y14967D01*
X53877Y14280D02*
Y14797D01*
X53529Y11647D02*
Y13440D01*
X53211Y11105D02*
X53371Y11265D01*
X52624Y10944D02*
X52823D01*
X53508Y15618D02*
X53523Y15633D01*
X53499Y15609D02*
X53506Y15616D01*
X53353Y15556D02*
X53368D01*
X52707Y15003D02*
X53194Y15490D01*
X52317Y12608D02*
X52317Y12608D01*
X51432Y12631D02*
Y12631D01*
X52307Y12592D02*
Y12592D01*
X52078Y12363D02*
X52307Y12592D01*
X50456Y12051D02*
Y12911D01*
X51213Y12051D02*
Y12631D01*
X50238Y12309D02*
Y12911D01*
X49108Y11930D02*
X49859D01*
X52436Y18135D02*
X52899D01*
X53119Y17715D02*
X53136D01*
X51119Y17830D02*
Y18135D01*
X45031Y15037D02*
X50450D01*
X44723Y14622D02*
X44847Y14498D01*
X44787Y14936D02*
X44787Y14936D01*
X44723Y14872D02*
X44787Y14936D01*
X53532Y14967D02*
X53542Y14957D01*
X53608Y14391D02*
Y14797D01*
X52624Y11213D02*
X52711D01*
X52436Y18404D02*
X53029D01*
X51404Y18689D02*
X52014D01*
X50850Y17830D02*
Y18135D01*
X53635Y17715D02*
X53653D01*
X45031Y15306D02*
X50450D01*
X44493Y15023D02*
X44613Y15142D01*
X44226Y14498D02*
X44311Y14582D01*
X53125Y15989D02*
X53131Y15994D01*
X53069Y15840D02*
Y15854D01*
X52515Y15192D02*
X53003Y15680D01*
X52222Y13099D02*
Y14486D01*
X51888Y12554D02*
X52074Y12740D01*
X51701Y12631D02*
Y12631D01*
X50944Y12051D02*
Y12631D01*
X50726Y12051D02*
Y12911D01*
X49969Y12309D02*
Y12911D01*
X49220Y12200D02*
X49859D01*
X48424Y12995D02*
X49220Y12200D01*
X47942Y12995D02*
X48424D01*
X48053Y12726D02*
X48312D01*
X49108Y11930D01*
X48517Y10944D02*
X50377D01*
X48629Y11213D02*
X50377D01*
X47599Y11862D02*
X48517Y10944D01*
X46822Y11862D02*
X47599D01*
X46552Y12512D02*
X46933Y12132D01*
X46162Y12512D02*
X46552D01*
X47710Y12132D02*
X48629Y11213D01*
X46933Y12132D02*
X47710D01*
X47845Y12517D02*
X48053Y12726D01*
X47163Y12517D02*
X47845D01*
X46685Y12995D02*
Y13283D01*
X46539Y13429D02*
X46685Y13283D01*
X46301Y13429D02*
X46539D01*
X46685Y12995D02*
X47163Y12517D01*
X46222Y13350D02*
X46301Y13429D01*
X46222Y13223D02*
Y13350D01*
X46162Y13162D02*
X46222Y13223D01*
X47733Y12786D02*
X47942Y12995D01*
X47274Y12786D02*
X47733D01*
X46954Y13107D02*
Y13394D01*
X46047Y13698D02*
X46651D01*
X46954Y13394D01*
X53131Y15994D02*
X53131D01*
X45512Y13162D02*
X46047Y13698D01*
X46954Y13107D02*
X47274Y12786D01*
X44613Y15142D02*
X44652Y15181D01*
X50850Y17350D02*
Y17830D01*
X51229Y16971D02*
X51229D01*
X50732Y16753D02*
X51229D01*
X50732Y15996D02*
X50741D01*
X50850Y15706D02*
Y15887D01*
X52249Y18591D02*
X52436Y18404D01*
X51119Y17350D02*
Y17830D01*
X51229Y17241D02*
X51229D01*
X50732Y16484D02*
X51229D01*
X50732Y16265D02*
X50741D01*
X51119Y15706D02*
Y15887D01*
D115*
X33254Y15961D02*
X33763Y16471D01*
X33254Y15789D02*
Y15961D01*
Y15789D02*
X33314Y15728D01*
X33317D01*
X33377Y15668D01*
Y15547D02*
Y15668D01*
X33317Y15487D02*
X33377Y15547D01*
X32831Y15487D02*
X33317D01*
X32771Y15427D02*
X32831Y15487D01*
X32771Y15306D02*
Y15427D01*
Y15306D02*
X32831Y15246D01*
X33193D01*
X33254Y15185D01*
Y15141D02*
Y15185D01*
X33763Y16471D02*
X33805Y16513D01*
X33254Y14956D02*
Y15141D01*
X34789Y10783D02*
X34849Y10724D01*
X34704Y10783D02*
X34789D01*
X34594Y10673D02*
X34704Y10783D01*
X34509Y10673D02*
X34594D01*
X34423Y10758D02*
X34509Y10673D01*
X34423Y10758D02*
Y10844D01*
X34708Y11129D01*
Y11214D01*
X34623Y11300D02*
X34708Y11214D01*
X34538Y11300D02*
X34623D01*
X34253Y11014D02*
X34538Y11300D01*
X34167Y11014D02*
X34253D01*
X34082Y11100D02*
X34167Y11014D01*
X34082Y11100D02*
Y11185D01*
X34367Y11470D01*
Y11555D01*
X34282Y11641D02*
X34367Y11555D01*
X34197Y11641D02*
X34282D01*
X34107Y11551D02*
X34197Y11641D01*
X34022Y11551D02*
X34107D01*
X33990Y11583D02*
X34022Y11551D01*
X33807Y11765D02*
X33990Y11583D01*
X33807Y11765D02*
Y11978D01*
X34849Y10135D02*
Y10724D01*
X33106Y12680D02*
X33807Y11978D01*
X34953Y10030D02*
X35085Y9898D01*
Y9824D02*
Y9898D01*
X34914Y9653D02*
X35085Y9824D01*
X34914Y9602D02*
Y9653D01*
Y9602D02*
X35034Y9483D01*
X35085D01*
X35330Y9728D01*
X35382D01*
X35501Y9609D01*
Y9558D02*
Y9609D01*
X35258Y9315D02*
X35501Y9558D01*
X35258Y9263D02*
Y9315D01*
Y9263D02*
X35377Y9144D01*
X35429D01*
X35597Y9313D01*
X35671D01*
X35702Y9281D01*
X30226Y6059D02*
Y6502D01*
Y6059D02*
X30405Y5880D01*
X30226Y6502D02*
X30386Y6662D01*
X31054D01*
X30405Y5880D02*
X33201D01*
X31054Y6662D02*
X31436Y6280D01*
X37845Y6337D02*
X38035Y6528D01*
X35073Y6337D02*
X37845D01*
X37846Y6986D02*
X38035Y6797D01*
Y6528D02*
Y6797D01*
X37385Y6986D02*
X37846D01*
X37062Y6662D02*
X37385Y6986D01*
X31794Y8322D02*
X33088D01*
X17272Y22347D02*
X18024Y23099D01*
X18506Y25415D02*
X18506D01*
X18496Y25425D02*
X18506Y25415D01*
X18027Y24936D02*
X18517Y25425D01*
X18027Y23796D02*
Y24936D01*
X18024Y23793D02*
X18027Y23796D01*
X18024Y23099D02*
Y23793D01*
X27696Y21128D02*
X28143Y20681D01*
Y19787D02*
Y20681D01*
Y19787D02*
X30100Y17830D01*
X24181Y24139D02*
Y24435D01*
Y24139D02*
X27192Y21128D01*
X23800Y24816D02*
X24181Y24435D01*
X22991Y25329D02*
X23504Y24816D01*
X23800D01*
X14453Y23659D02*
X15951Y25157D01*
X50209Y7302D02*
X53640D01*
X55669Y4362D02*
X56186Y3844D01*
X55669Y4362D02*
Y5272D01*
X53640Y7302D02*
X55669Y5272D01*
X56186Y3844D02*
X56234D01*
X50371Y7699D02*
X53769D01*
X56183Y4378D02*
Y5285D01*
X53769Y7699D02*
X56183Y5285D01*
X22991Y25329D02*
Y25411D01*
X27192Y21128D02*
X27696D01*
X27359Y15974D02*
X28524Y14809D01*
X11705Y17609D02*
X16618D01*
X18253Y15974D01*
X27359D01*
X5156Y11572D02*
Y12317D01*
X5199Y12360D01*
X5156Y11572D02*
X6698Y10030D01*
X17739Y11099D02*
X18724D01*
X14768Y6952D02*
Y8128D01*
X17739Y11099D01*
X32612Y13360D02*
X32892Y13080D01*
X30236Y13305D02*
Y13691D01*
Y13305D02*
X30410Y13131D01*
X31887D01*
X30236Y13691D02*
X30405Y13860D01*
X32333D02*
X32612Y13580D01*
X30405Y13860D02*
X32333D01*
X30100Y17830D02*
X30637D01*
X32085Y16382D01*
Y15592D02*
Y16382D01*
X7689Y23533D02*
X11850D01*
X12649Y24332D02*
Y25425D01*
X11850Y23533D02*
X12649Y24332D01*
X17252Y22347D02*
X17272D01*
X14453Y20868D02*
X15773D01*
X17252Y22347D01*
X28397Y14682D02*
X28525Y14810D01*
X32306D02*
X34023Y13093D01*
X28525Y14810D02*
X32306D01*
X28397Y13940D02*
Y14682D01*
X32085Y15592D02*
X34412Y13264D01*
X42331Y9002D02*
X42720Y8612D01*
X45970D02*
X46488Y8094D01*
X42720Y8612D02*
X45970D01*
X39337Y8937D02*
Y9395D01*
X42672Y7636D02*
X44346D01*
X39337Y8937D02*
X39709Y8565D01*
X41743D01*
X42672Y7636D01*
X36930Y10236D02*
X41949D01*
X42331Y9855D01*
Y9002D02*
Y9855D01*
X48770Y2723D02*
X48976Y2518D01*
X44346Y4386D02*
X46009Y2723D01*
X48770D01*
X46685Y2083D02*
X47030Y2428D01*
X48534D02*
X48879Y2083D01*
X49743Y1219D01*
X46380Y1778D02*
X46685Y2083D01*
X47030Y2428D02*
X48534D01*
X48976Y2518D02*
X49974Y1519D01*
X46104Y3012D02*
X48976D01*
X49028D01*
X44080Y5036D02*
X46104Y3012D01*
X49028D02*
X50022Y2019D01*
X47818Y588D02*
X48153D01*
X47548Y858D02*
X47818Y588D01*
X42747Y858D02*
X47548D01*
X48153Y588D02*
X48459Y893D01*
X20916Y3218D02*
X22404Y4706D01*
X13426Y3218D02*
X20916D01*
X22404Y4706D02*
X23139D01*
X48112Y7962D02*
X49549D01*
X50209Y7302D01*
X48112Y9262D02*
X48808D01*
X50371Y7699D01*
X52561Y503D02*
X52974D01*
X50932Y298D02*
X52356D01*
X52561Y503D01*
X42922Y2102D02*
X45085D01*
X42262Y2762D02*
X42922Y2102D01*
X42957Y1519D02*
X46812D01*
X41612Y2864D02*
X42957Y1519D01*
X41904Y2083D02*
X42825Y1163D01*
X47694D01*
X40792Y2812D02*
X42747Y858D01*
X30353Y4216D02*
X34563D01*
X30226Y4343D02*
X30353Y4216D01*
X30226Y4343D02*
Y4846D01*
X30472Y5091D02*
X31847D01*
X30226Y4846D02*
X30472Y5091D01*
X31847D02*
X32236Y5480D01*
X34563Y4216D02*
X34735Y4389D01*
X38552D01*
X32892Y13080D02*
X33148D01*
X32612Y13360D02*
Y13580D01*
X31887Y13131D02*
X32236Y13480D01*
X33088Y8322D02*
X35073Y6337D01*
X33201Y5880D02*
X34043Y5039D01*
X34849Y10135D02*
X34953Y10030D01*
X35702Y9281D02*
X35721Y9262D01*
X33148Y13080D02*
X35438Y10790D01*
Y9977D02*
X35827Y9589D01*
X35438Y9977D02*
Y10790D01*
X35156Y8902D02*
X35733D01*
X37352D01*
X34493Y9566D02*
Y10383D01*
Y9566D02*
X35156Y8902D01*
X35065Y8618D02*
X35733D01*
X34163Y9520D02*
X35065Y8618D01*
X34163Y9520D02*
Y10394D01*
X34981Y8306D02*
X35733D01*
X33858Y9428D02*
X33990Y9297D01*
X35733Y8306D02*
X38055D01*
X33990Y9297D02*
X34981Y8306D01*
X33858Y9428D02*
Y10308D01*
X35733Y7637D02*
X39337D01*
X33545Y9396D02*
X33990Y8951D01*
X35304Y7637D02*
X35733D01*
X33990Y8951D02*
X35304Y7637D01*
X33545Y9396D02*
Y10279D01*
X35733Y7312D02*
X37062D01*
X32908Y9647D02*
X33990Y8565D01*
X35243Y7312D02*
X35733D01*
X33990Y8565D02*
X35243Y7312D01*
X30701Y9647D02*
X32908D01*
X33005Y9220D02*
X33990Y8235D01*
X30096Y9220D02*
X33005D01*
X29036Y10280D02*
X30096Y9220D01*
X30236Y10112D02*
X30701Y9647D01*
X35733Y6662D02*
X36412D01*
X35563D02*
X35733D01*
X33990Y8235D02*
X35563Y6662D01*
X31436Y8680D02*
X31794Y8322D01*
X35733Y6012D02*
X36412D01*
X32728Y7470D02*
X33990Y6208D01*
X30226Y7470D02*
X32728D01*
X34186Y6012D02*
X35733D01*
X33990Y6208D02*
X34186Y6012D01*
X35733Y5689D02*
X38688D01*
X33198Y6680D02*
X33990Y5888D01*
X31836Y6680D02*
X33198D01*
X34189Y5689D02*
X35733D01*
X33990Y5888D02*
X34189Y5689D01*
X29836Y7080D02*
X30226Y7470D01*
X29836Y6280D02*
Y7080D01*
X31436D02*
X31836Y6680D01*
X34043Y5039D02*
X38038D01*
X32236Y5480D02*
X32236D01*
X29036Y4710D02*
X30027Y3719D01*
X29036Y4710D02*
Y6280D01*
X33503Y11374D02*
Y11938D01*
X33160Y12280D02*
X33503Y11938D01*
X32636Y12280D02*
X33160D01*
X33503Y11374D02*
X34493Y10383D01*
X37185Y16773D02*
X37431Y17018D01*
X40090D02*
X40375Y17303D01*
X37431Y17018D02*
X40090D01*
X36401Y16992D02*
X36936D01*
X37185Y17242D02*
Y17573D01*
X36936Y16992D02*
X37185Y17242D01*
X35745Y16336D02*
X36401Y16992D01*
X38685Y4578D02*
Y5035D01*
X38685Y5036D02*
X38685Y5035D01*
X38684Y4521D02*
Y4577D01*
X38685Y4578D01*
X38552Y4389D02*
X38684Y4521D01*
X37306Y13489D02*
X37385Y13409D01*
X37062Y12512D02*
X37385Y12836D01*
Y13409D01*
X36199Y13489D02*
X37306D01*
X42569Y5036D02*
X44080D01*
X42430Y5176D02*
Y5794D01*
Y5176D02*
X42569Y5036D01*
X42062Y4861D02*
X42536Y4386D01*
X42062Y4861D02*
Y5462D01*
X42536Y4386D02*
X44346D01*
X39662Y5362D02*
X41327Y3697D01*
Y2661D02*
Y3697D01*
X39335Y4389D02*
X39976D01*
X40792Y2812D02*
Y3572D01*
X39976Y4389D02*
X40792Y3572D01*
X46812Y1519D02*
X46825Y1506D01*
X48519D02*
X48571Y1454D01*
X46825Y1506D02*
X48519D01*
X52201Y588D02*
X52743Y1131D01*
X54611D01*
X52624Y1503D02*
X54325D01*
X54598Y1776D01*
X51401Y2378D02*
X54720D01*
X54737Y2360D01*
X49974Y1519D02*
X51125D01*
X51145Y1539D01*
X52209Y1918D02*
X52624Y1503D01*
X51125Y1559D02*
X51484Y1918D01*
X52209D01*
X51556Y588D02*
X52201D01*
X51125Y1019D02*
X51556Y588D01*
X33914Y14856D02*
X35190Y13580D01*
X33914Y16004D02*
X36403Y18493D01*
X33914Y14856D02*
Y16004D01*
X36735Y11081D02*
X37001Y10815D01*
Y10623D02*
X37062Y10562D01*
X37001Y10623D02*
Y10815D01*
X36735Y11081D02*
Y11997D01*
X35983Y12186D02*
X36546D01*
X36403Y18493D02*
X37185D01*
X35190Y12979D02*
Y13580D01*
X37185Y18493D02*
X37560Y18867D01*
X35479Y16746D02*
X36868Y18135D01*
X38713D02*
X39158Y18580D01*
X36868Y18135D02*
X38713D01*
X33805Y16513D02*
X36122Y18830D01*
X36749Y18857D02*
X36820D01*
X36749D02*
X36760Y18867D01*
X36722Y18830D02*
X36749Y18857D01*
X36122Y18830D02*
X36722D01*
X34849Y12775D02*
Y13360D01*
X33254Y14956D02*
X34849Y13360D01*
X36546Y12186D02*
X36735Y11997D01*
X35190Y12979D02*
X35983Y12186D01*
X41085Y20942D02*
Y21212D01*
X40963Y20819D02*
X41085Y20942D01*
X40963Y19619D02*
Y20819D01*
X41885Y21165D02*
Y21212D01*
X41185Y20466D02*
X41885Y21165D01*
X41185Y18622D02*
Y20466D01*
X40360Y18506D02*
Y19017D01*
X40963Y19619D01*
X11920Y4104D02*
X14768Y6952D01*
X47992Y1078D02*
X48053Y1017D01*
X47779Y1078D02*
X47992D01*
X47694Y1163D02*
X47779Y1078D01*
X48459Y893D02*
X50337D01*
X44212Y4062D02*
X44535Y3739D01*
Y3281D02*
Y3739D01*
Y3281D02*
X44730Y3086D01*
X44996D01*
X45280Y2802D01*
Y2446D02*
Y2802D01*
Y2446D02*
X45624Y2102D01*
X6712Y23068D02*
X7434Y22347D01*
X16332D01*
X34023Y12687D02*
Y13093D01*
X36000Y12836D02*
X36546D01*
X35479Y13357D02*
X36000Y12836D01*
X35479Y13357D02*
Y16746D01*
X35745Y13942D02*
X36199Y13489D01*
X35745Y13942D02*
Y16336D01*
X34849Y12775D02*
X36412Y11212D01*
X36871Y12186D02*
X37196D01*
X36546Y12836D02*
X36735Y12647D01*
Y12322D02*
Y12647D01*
Y12322D02*
X36871Y12186D01*
X37196D02*
X37385Y11997D01*
X37062Y11212D02*
X37385Y11536D01*
Y11997D01*
X36738Y10428D02*
X36930Y10236D01*
X36738Y10428D02*
Y10694D01*
X36546Y10886D02*
X36738Y10694D01*
X36280Y10886D02*
X36546D01*
X37253Y9588D02*
X39144D01*
X36602Y10239D02*
X37253Y9588D01*
X36277Y10239D02*
X36602D01*
X42262Y2762D02*
X42262D01*
X7406Y5664D02*
X8244Y6502D01*
X9500D01*
X16637Y13640D01*
Y14880D01*
X9500Y5332D02*
Y6502D01*
Y5332D02*
X10352Y4479D01*
X15715Y15802D02*
X16637Y14880D01*
X14046Y15802D02*
X15715D01*
X26667Y12650D02*
X26973D01*
X27291Y12331D01*
X26636Y12680D02*
X26667Y12650D01*
X27291Y12331D02*
X27779D01*
X28585Y11525D01*
Y6237D02*
Y11525D01*
Y6237D02*
X28762Y6060D01*
Y1397D02*
Y6060D01*
X28528Y1163D02*
X28762Y1397D01*
X27905Y1163D02*
X28528D01*
X26636Y11880D02*
X27041Y11475D01*
X27525D01*
X27870Y11130D01*
Y4553D02*
Y11130D01*
Y4553D02*
X28198Y4224D01*
Y1781D02*
Y4224D01*
X8179Y21136D02*
Y21184D01*
Y21136D02*
X11705Y17609D01*
X36760Y25421D02*
Y25425D01*
X14453Y22732D02*
Y23659D01*
X7473Y23749D02*
X7689Y23533D01*
X7473Y23749D02*
Y24714D01*
X13640Y2692D02*
X21633D01*
X13473Y2525D02*
X13640Y2692D01*
X13420Y2525D02*
X13473D01*
X13920Y2339D02*
X22032D01*
X13421Y1839D02*
X13920Y2339D01*
X22032D02*
X22974Y3281D01*
X2440Y4836D02*
X4435Y2841D01*
X11697D01*
X11984Y2555D01*
X476Y4836D02*
X2440D01*
X2489Y5800D02*
X3147Y5142D01*
X476Y5800D02*
X2489D01*
X3147Y5142D02*
X4866D01*
X11417Y3821D02*
X11990Y3248D01*
X4866Y5142D02*
X6187Y3821D01*
X11417D01*
X7689Y4104D02*
X11920D01*
X7406Y4387D02*
X7689Y4104D01*
X11211Y5715D02*
X17866Y12370D01*
X10352Y5715D02*
X11211D01*
X17866Y12370D02*
X18724D01*
X2895Y3873D02*
X4429Y2339D01*
X11515D01*
X476Y3873D02*
X2895D01*
X11515Y2339D02*
X11985Y1869D01*
X21633Y2692D02*
X22761Y3821D01*
X4623Y13640D02*
X5667Y12595D01*
Y11775D02*
Y12595D01*
Y11775D02*
X6712Y10730D01*
X35827Y9589D02*
X36546D01*
X35721Y9262D02*
X36412D01*
X35733Y8618D02*
X37717D01*
X33990Y10567D02*
X34163Y10394D01*
X33038Y11128D02*
X33858Y10308D01*
X33065Y11492D02*
X33990Y10567D01*
X33144Y10680D02*
X33545Y10279D01*
X39985Y5689D02*
X41835D01*
X42062Y5462D01*
X41327Y2661D02*
X41904Y2083D01*
X25511Y663D02*
X35100D01*
X36075Y1638D02*
X39485D01*
X35100Y663D02*
X36075Y1638D01*
X34412Y12754D02*
X36280Y10886D01*
X34412Y12754D02*
Y13264D01*
X46488Y7636D02*
Y8094D01*
Y7636D02*
X46812Y7312D01*
X34023Y12687D02*
X35733Y10978D01*
Y10783D02*
X36277Y10239D01*
X35733Y10783D02*
Y10978D01*
X39144Y9588D02*
X39337Y9395D01*
X44346Y7636D02*
X44670Y7312D01*
X46162D01*
X39158Y18580D02*
Y18865D01*
X39160Y18867D01*
X41612Y2864D02*
Y5362D01*
X49743Y1219D02*
X50420D01*
X50621Y1019D01*
X50337Y893D02*
X50932Y298D01*
X50621Y1019D02*
X51125D01*
X39012Y4712D02*
X39335Y4389D01*
X50022Y2019D02*
X51042D01*
X51401Y2378D01*
X45409Y1778D02*
X46380D01*
X41904Y2083D02*
X41904D01*
X40635Y6336D02*
X41888D01*
X42430Y5794D01*
X45085Y2102D02*
X45409Y1778D01*
X37185Y17573D02*
X37443Y17830D01*
X39684D01*
X40360Y18506D01*
X40375Y17812D02*
X41185Y18622D01*
X40375Y17303D02*
Y17812D01*
X40312Y6012D02*
X40635Y6336D01*
X39662Y6012D02*
X39985Y5689D01*
X36915Y16243D02*
X37185Y16513D01*
Y16773D01*
X35972Y15763D02*
X36452Y16243D01*
X36915D01*
X35972Y14252D02*
Y15763D01*
Y14252D02*
X36412Y13812D01*
X32718Y11128D02*
X33038D01*
X31785Y11531D02*
X32316D01*
X32718Y11128D01*
X32625Y11492D02*
X33065D01*
X32236Y11880D02*
X32625Y11492D01*
X36621Y9590D02*
X36623Y9587D01*
X36547Y9590D02*
X36621D01*
X36546Y9589D02*
X36547Y9590D01*
X36623Y9587D02*
X36737D01*
X30027Y3719D02*
X36719D01*
X31836Y10680D02*
X33144D01*
X33036Y12680D02*
X33106D01*
X38055Y8306D02*
X39012Y9262D01*
X31436Y11080D02*
X31836Y10680D01*
X32236Y12680D02*
X32636Y12280D01*
X30236Y10112D02*
Y10680D01*
X38685Y5036D02*
X39012Y5362D01*
X38688Y5689D02*
X39012Y6012D01*
X36719Y3719D02*
X37062Y4062D01*
X38038Y5039D02*
X38362Y5362D01*
X39337Y7637D02*
X39662Y7962D01*
X37717Y8618D02*
X38362Y9262D01*
X37352Y8902D02*
X37712Y9262D01*
X36737Y9587D02*
X37062Y9262D01*
X31436Y7080D02*
X31436D01*
X32236Y4680D02*
X32236D01*
X30194Y10722D02*
X30236Y10680D01*
X30194Y10722D02*
X30194D01*
X31436Y11880D02*
X31785Y11531D01*
X32236Y12680D02*
X32236D01*
X32236Y4680D02*
X32267Y4711D01*
X29836Y11080D02*
X30194Y10722D01*
D122*
X53858Y24557D02*
D03*
D125*
X16800Y1232D02*
D03*
X11156Y1238D02*
D03*
X11223Y24714D02*
D03*
X9973D02*
D03*
X7473D02*
D03*
D142*
X44812Y13587D02*
D03*
X44888Y20547D02*
D03*
X41147Y16890D02*
D03*
X41560Y17684D02*
D03*
X44787Y14936D02*
D03*
X52074Y12740D02*
D03*
X51888Y12554D02*
D03*
X52074Y12740D02*
D03*
M02*
