G04*
G04 #@! TF.GenerationSoftware,Altium Limited,Altium Designer,21.3.2 (30)*
G04*
G04 Layer_Physical_Order=7*
G04 Layer_Color=128*
%FSLAX43Y43*%
%MOMM*%
G71*
G04*
G04 #@! TF.SameCoordinates,AF92D2DE-8466-4D58-AFAE-29A769C4C8C3*
G04*
G04*
G04 #@! TF.FilePolarity,Negative*
G04*
G01*
G75*
%ADD16C,0.254*%
%ADD114C,0.381*%
%ADD126C,1.016*%
%ADD129C,0.813*%
%ADD130O,1.210X1.810*%
%ADD131C,1.110*%
%ADD132O,2.510X1.210*%
%ADD133O,2.210X1.210*%
%ADD134C,2.810*%
%ADD135C,1.245*%
%ADD137C,1.410*%
%ADD138C,2.410*%
%ADD139C,1.260*%
%ADD141C,0.508*%
D16*
X57260Y5500D02*
G03*
X58260Y4500I1000J0D01*
G01*
X59260Y3500D02*
G03*
X58260Y4500I-1000J0D01*
G01*
Y0D02*
G03*
X59260Y1000I0J1000D01*
G01*
Y25000D02*
G03*
X58260Y26000I-1000J0D01*
G01*
Y21500D02*
G03*
X59260Y22500I0J1000D01*
G01*
X58260Y21500D02*
G03*
X57260Y20500I0J-1000D01*
G01*
X-1000Y1000D02*
G03*
X0Y0I1000J0D01*
G01*
Y26000D02*
G03*
X-1000Y25000I0J-1000D01*
G01*
X59260Y1000D02*
Y3500D01*
X56260Y0D02*
X58260D01*
X56260Y26000D02*
X58260D01*
X59260Y22500D02*
Y25000D01*
X57260Y5500D02*
Y20500D01*
X0Y0D02*
X56260D01*
X-1000Y1000D02*
Y25000D01*
X0Y26000D02*
X56260D01*
D114*
X19609Y8026D02*
Y14500D01*
X48455Y16246D02*
X49566D01*
X43010Y19502D02*
Y19587D01*
X42102Y18594D02*
X43010Y19502D01*
X43810Y17417D02*
X45339Y18947D01*
Y20958D01*
X44137Y22160D02*
X45339Y20958D01*
X44137Y22160D02*
Y22217D01*
X44754Y11970D02*
X45848Y10875D01*
X43744Y11970D02*
X44754D01*
X42102Y10431D02*
X43824Y8708D01*
X42102Y10431D02*
Y18594D01*
X49566Y16246D02*
Y25832D01*
X45885Y10875D02*
X47565Y12555D01*
X46685Y14476D02*
X48455Y16246D01*
X46685Y13435D02*
Y14476D01*
Y13435D02*
X47553Y12566D01*
X47576D01*
X43010Y12704D02*
X43744Y11970D01*
X40651Y14556D02*
X40760Y14664D01*
Y21703D01*
X41274Y22217D01*
X40036Y12604D02*
X40760Y11880D01*
X40036Y12604D02*
Y13940D01*
X40760Y14664D01*
Y15246D01*
X45885Y8502D02*
Y10875D01*
X43744Y14222D02*
Y17417D01*
X43010Y12704D02*
Y13487D01*
X43744Y14222D01*
Y14800D01*
X43010Y19587D02*
Y22217D01*
X43744Y8789D02*
X44325Y8208D01*
X44862D01*
X45135D02*
X45429Y8502D01*
X45109Y8208D02*
X45135D01*
X45403Y8502D02*
X45429D01*
X57255D01*
X45109Y7428D02*
Y8208D01*
Y7428D02*
X45822Y6716D01*
Y6427D02*
Y6716D01*
X45109Y5715D02*
X45822Y6427D01*
X44212Y5715D02*
X45109D01*
X43436Y6490D02*
X44212Y5715D01*
X43436Y6490D02*
Y6537D01*
X33829D02*
X43436D01*
X40285Y10188D02*
X40760Y10663D01*
Y11880D01*
X41274Y22217D02*
X44137D01*
X44808Y22888D01*
Y26000D01*
X40760Y6537D02*
Y9464D01*
X39793Y10431D02*
X40760Y9464D01*
X38816Y10431D02*
X39793D01*
X37760Y11488D02*
X38816Y10431D01*
X37760Y11488D02*
Y25832D01*
X30920Y15026D02*
Y26102D01*
X35636Y26177D02*
X35646Y26187D01*
X19609Y6727D02*
Y8401D01*
Y6727D02*
X22119Y4216D01*
X30023D01*
X31295D01*
X30480D02*
X31508D01*
X33829Y6537D01*
Y11970D01*
X31455Y14344D02*
X33829Y11970D01*
X30894Y14905D02*
X31455Y14344D01*
X28703Y14905D02*
X30894D01*
X22987D02*
X28703D01*
X22168Y15723D02*
X22987Y14905D01*
X20086Y15723D02*
X22168D01*
X19609Y15246D02*
X20086Y15723D01*
X19609Y14149D02*
Y15246D01*
X43933Y0D02*
X46832D01*
X39032Y226D02*
X40982D01*
D126*
X0Y26000D02*
G03*
X-1000Y25000I0J-1000D01*
G01*
X59260D02*
G03*
X58260Y26000I-1000J0D01*
G01*
Y21500D02*
G03*
X59260Y22500I0J1000D01*
G01*
X58260Y21500D02*
G03*
X57260Y20500I0J-1000D01*
G01*
Y5500D02*
G03*
X58260Y4500I1000J0D01*
G01*
X59260Y3500D02*
G03*
X58260Y4500I-1000J0D01*
G01*
Y0D02*
G03*
X59260Y1000I0J1000D01*
G01*
X-1000D02*
G03*
X0Y0I1000J0D01*
G01*
Y26000D02*
X58260D01*
X59260Y22500D02*
Y25000D01*
X57260Y5500D02*
Y20500D01*
X59260Y1000D02*
Y3500D01*
X0Y0D02*
X58260D01*
X-1000Y1000D02*
Y25000D01*
D129*
X-268Y7780D02*
D03*
X506Y7971D02*
D03*
Y7488D02*
D03*
X1281Y7780D02*
D03*
X-268Y9533D02*
D03*
X506Y9825D02*
D03*
Y9342D02*
D03*
X1281Y9533D02*
D03*
X-268Y16391D02*
D03*
X506Y16581D02*
D03*
Y16099D02*
D03*
X1281Y16391D02*
D03*
X-272Y18245D02*
D03*
X503Y18537D02*
D03*
Y18055D02*
D03*
X1278Y18245D02*
D03*
D130*
X4556Y17020D02*
D03*
Y8980D02*
D03*
D131*
X3706Y9600D02*
D03*
Y16400D02*
D03*
D132*
X506Y8680D02*
D03*
Y17320D02*
D03*
D133*
X5056Y8680D02*
D03*
Y17320D02*
D03*
D134*
X2500Y2100D02*
D03*
Y23900D02*
D03*
D135*
X52588Y24557D02*
D03*
X55128D02*
D03*
X53858D02*
D03*
X51318D02*
D03*
X52588Y23287D02*
D03*
X53858D02*
D03*
X51318D02*
D03*
X55128D02*
D03*
D137*
X3353Y20760D02*
D03*
D138*
X57500Y2500D02*
D03*
Y23500D02*
D03*
D139*
X18050Y1232D02*
D03*
X16800D02*
D03*
X15550D02*
D03*
X14300D02*
D03*
X6156Y1238D02*
D03*
X7406D02*
D03*
X8656D02*
D03*
X9906D02*
D03*
X11156D02*
D03*
X11223Y24714D02*
D03*
X9973D02*
D03*
X8723D02*
D03*
X7473D02*
D03*
X6223D02*
D03*
D141*
X22534Y13287D02*
D03*
X563Y5800D02*
D03*
X21920Y22733D02*
D03*
X18542Y23393D02*
D03*
X18313Y17907D02*
D03*
X23556Y23702D02*
D03*
X53964Y5753D02*
D03*
X23561Y24241D02*
D03*
X17652Y23951D02*
D03*
X17113Y23956D02*
D03*
X15951Y25157D02*
D03*
X12649Y25425D02*
D03*
X19444Y24289D02*
D03*
X20117Y23026D02*
D03*
X20111Y22264D02*
D03*
X20495Y22642D02*
D03*
X19733Y22648D02*
D03*
X19304Y19800D02*
D03*
X19298Y19038D02*
D03*
X19682Y19416D02*
D03*
X18920Y19422D02*
D03*
X35636Y22200D02*
D03*
X18050Y22347D02*
D03*
X18496Y25425D02*
D03*
X16332Y19685D02*
D03*
X17607Y20437D02*
D03*
X23380Y18761D02*
D03*
X20831Y18756D02*
D03*
X23919Y25405D02*
D03*
X22991Y25411D02*
D03*
X21727Y20385D02*
D03*
X47160Y18867D02*
D03*
X41612Y11862D02*
D03*
X40962D02*
D03*
X47960Y18867D02*
D03*
X44212Y13812D02*
D03*
X53111Y18830D02*
D03*
X43562Y13812D02*
D03*
X53645Y18830D02*
D03*
X3666Y12613D02*
D03*
X6325Y13397D02*
D03*
X3666Y13147D02*
D03*
X6325Y12863D02*
D03*
X23292Y17348D02*
D03*
X22677Y16485D02*
D03*
X12065Y16739D02*
D03*
X14453Y18567D02*
D03*
X15140Y18383D02*
D03*
X13233Y15691D02*
D03*
X14453Y19101D02*
D03*
X13056Y13868D02*
D03*
X15316Y14147D02*
D03*
Y7080D02*
D03*
X14046Y7473D02*
D03*
X14046Y15802D02*
D03*
X5199Y12360D02*
D03*
X35022Y16553D02*
D03*
X50921Y20382D02*
D03*
X50393Y19819D02*
D03*
X55839Y8509D02*
D03*
X56556Y8484D02*
D03*
X12836Y13164D02*
D03*
Y12580D02*
D03*
Y14630D02*
D03*
Y15164D02*
D03*
X53653Y16612D02*
D03*
X44212Y13162D02*
D03*
X53119Y16612D02*
D03*
X44862Y13162D02*
D03*
X52516Y11801D02*
D03*
X13388Y7082D02*
D03*
X31788Y23523D02*
D03*
X32248D02*
D03*
X31323D02*
D03*
X49410Y16773D02*
D03*
X44579Y18034D02*
D03*
X43010Y18081D02*
D03*
X43238Y14964D02*
D03*
X41630Y12548D02*
D03*
X44806Y18872D02*
D03*
X43887Y17348D02*
D03*
X46162Y12512D02*
D03*
X38362Y4712D02*
D03*
X40962Y7962D02*
D03*
X37062Y13162D02*
D03*
X53055Y14321D02*
D03*
X43060Y22940D02*
D03*
X48571Y1454D02*
D03*
X52198Y3786D02*
D03*
X52216Y4362D02*
D03*
X54611Y1131D02*
D03*
X54598Y1776D02*
D03*
X54737Y2360D02*
D03*
X51125Y1559D02*
D03*
X51871Y962D02*
D03*
X41560Y18867D02*
D03*
X42360D02*
D03*
X40312Y13162D02*
D03*
X39662D02*
D03*
X45085Y21212D02*
D03*
X44285Y21212D02*
D03*
X49085Y19718D02*
D03*
Y20336D02*
D03*
X45885Y19878D02*
D03*
Y20382D02*
D03*
X40385Y19791D02*
D03*
Y20437D02*
D03*
X39160Y19766D02*
D03*
Y20382D02*
D03*
X4953Y15869D02*
D03*
X5097Y10105D02*
D03*
X16332Y7080D02*
D03*
X39160Y16617D02*
D03*
X39960D02*
D03*
X43160D02*
D03*
X42210Y17417D02*
D03*
X51958Y6662D02*
D03*
X25711Y19939D02*
D03*
X3589Y21984D02*
D03*
X53055Y20992D02*
D03*
X33914Y2947D02*
D03*
X33036Y4680D02*
D03*
X44775Y457D02*
D03*
X44114D02*
D03*
X43238D02*
D03*
X42525D02*
D03*
X40963D02*
D03*
X41665D02*
D03*
X46551D02*
D03*
X45425D02*
D03*
X56368Y9977D02*
D03*
X56246Y9296D02*
D03*
X56769Y9449D02*
D03*
X9156Y18217D02*
D03*
X9160Y18756D02*
D03*
X8617Y18222D02*
D03*
X8622Y18760D02*
D03*
X7656Y17037D02*
D03*
X10147Y22822D02*
D03*
X24379Y17085D02*
D03*
X21765Y16471D02*
D03*
X25786Y19101D02*
D03*
X22261Y19841D02*
D03*
X21722Y19846D02*
D03*
X22265Y20380D02*
D03*
X23089Y14430D02*
D03*
X33656Y25405D02*
D03*
X26432Y25512D02*
D03*
X32004Y25431D02*
D03*
X31373Y25458D02*
D03*
X32636Y25405D02*
D03*
X28327Y25431D02*
D03*
X27696Y25458D02*
D03*
X28959Y25405D02*
D03*
X30690Y16105D02*
D03*
X31322Y16078D02*
D03*
X30663Y15473D02*
D03*
X31295Y15446D02*
D03*
X28397Y13940D02*
D03*
X29016Y18288D02*
D03*
X31209Y18400D02*
D03*
X32085Y14321D02*
D03*
X27436Y10188D02*
D03*
X25836Y9480D02*
D03*
X20523Y4877D02*
D03*
X18618Y6756D02*
D03*
X23292Y6579D02*
D03*
X23093Y12178D02*
D03*
X45822Y24308D02*
D03*
X49128Y24353D02*
D03*
X24704Y13880D02*
D03*
X12472Y11009D02*
D03*
X11344Y10431D02*
D03*
X55677Y20533D02*
D03*
X31677Y21525D02*
D03*
X50972Y8198D02*
D03*
X44114Y2500D02*
D03*
X43370D02*
D03*
X8179Y21184D02*
D03*
X36760Y25425D02*
D03*
X26364Y14901D02*
D03*
X8977Y20868D02*
D03*
X16332Y22347D02*
D03*
X12226Y21782D02*
D03*
X6712Y23068D02*
D03*
X4953Y457D02*
D03*
X4991Y25543D02*
D03*
X15437Y23068D02*
D03*
X14453Y20868D02*
D03*
Y21800D02*
D03*
Y22732D02*
D03*
X17729Y3611D02*
D03*
Y4466D02*
D03*
Y5321D02*
D03*
Y6176D02*
D03*
X22822Y4033D02*
D03*
X22974Y3281D02*
D03*
X23139Y4706D02*
D03*
X11990Y3248D02*
D03*
X13421Y1839D02*
D03*
X11984Y2555D02*
D03*
X13420Y2525D02*
D03*
X11985Y1869D02*
D03*
X13426Y3218D02*
D03*
X7406Y4387D02*
D03*
Y5664D02*
D03*
X10352Y4479D02*
D03*
Y5715D02*
D03*
X12950Y5664D02*
D03*
X15773Y4441D02*
D03*
Y5740D02*
D03*
X17907Y7080D02*
D03*
X18724Y9829D02*
D03*
Y11099D02*
D03*
Y12370D02*
D03*
X16637Y14880D02*
D03*
X19437Y4907D02*
D03*
X18592Y4902D02*
D03*
X8528Y15240D02*
D03*
X7678D02*
D03*
X8528Y12538D02*
D03*
X7678D02*
D03*
X11585Y7026D02*
D03*
X8534Y8026D02*
D03*
X11070Y12830D02*
D03*
Y14964D02*
D03*
Y14430D02*
D03*
Y13364D02*
D03*
Y13897D02*
D03*
X10147Y10030D02*
D03*
Y10730D02*
D03*
X7849Y10389D02*
D03*
X6698Y10030D02*
D03*
X6712Y10730D02*
D03*
X16840Y4466D02*
D03*
Y5321D02*
D03*
Y6176D02*
D03*
X21491Y12512D02*
D03*
X19888Y10280D02*
D03*
X21491Y11320D02*
D03*
X19888Y11480D02*
D03*
X20922Y4062D02*
D03*
X20244Y6213D02*
D03*
X20086Y5394D02*
D03*
Y4394D02*
D03*
X34327Y15418D02*
D03*
X34468Y16027D02*
D03*
X25324Y16485D02*
D03*
X26111Y15494D02*
D03*
X4623Y13640D02*
D03*
X3632Y14613D02*
D03*
X7188Y12055D02*
D03*
X3649Y11147D02*
D03*
X7188Y11521D02*
D03*
X3649Y10613D02*
D03*
X7214Y16257D02*
D03*
Y15723D02*
D03*
X3632Y15147D02*
D03*
X36043Y9912D02*
D03*
X37410Y641D02*
D03*
X24827Y24353D02*
D03*
X24342Y19003D02*
D03*
X24068Y19798D02*
D03*
Y20712D02*
D03*
X24474Y21500D02*
D03*
X24334Y22200D02*
D03*
X36617Y24308D02*
D03*
X36017Y25208D02*
D03*
X35864Y24218D02*
D03*
X35576Y18901D02*
D03*
Y19587D02*
D03*
X35560Y20269D02*
D03*
X35535Y20980D02*
D03*
X35636Y21641D02*
D03*
X25146Y17094D02*
D03*
X31017Y14344D02*
D03*
X29032Y19685D02*
D03*
X29016Y21954D02*
D03*
X32416Y19221D02*
D03*
X27330Y19101D02*
D03*
X32477Y21553D02*
D03*
X27457Y20712D02*
D03*
X30121Y18400D02*
D03*
X30142Y17348D02*
D03*
X29642D02*
D03*
X34115Y23137D02*
D03*
X30642Y24714D02*
D03*
X30142Y23342D02*
D03*
X30642Y24218D02*
D03*
X30142Y24613D02*
D03*
Y25405D02*
D03*
X32505Y22530D02*
D03*
X28147Y23533D02*
D03*
X28662D02*
D03*
X27633D02*
D03*
X31579Y20760D02*
D03*
X30946D02*
D03*
Y19939D02*
D03*
Y21801D02*
D03*
X30121Y21494D02*
D03*
X30133Y20077D02*
D03*
X28762Y20760D02*
D03*
X28143Y21525D02*
D03*
X27407Y22530D02*
D03*
X25884Y22965D02*
D03*
X27436Y21553D02*
D03*
X32142Y17598D02*
D03*
X27642D02*
D03*
X50860Y9402D02*
D03*
X50735Y6715D02*
D03*
X47462Y8612D02*
D03*
X53868Y1995D02*
D03*
X50860Y4216D02*
D03*
X50022D02*
D03*
X55461Y6715D02*
D03*
X55982Y2981D02*
D03*
X50972Y8798D02*
D03*
X55541Y7302D02*
D03*
X40962Y4712D02*
D03*
X36556Y641D02*
D03*
X38362Y547D02*
D03*
X25511Y663D02*
D03*
X35097Y1638D02*
D03*
X31013Y1295D02*
D03*
X43562Y4712D02*
D03*
X46162Y5362D02*
D03*
X43562Y4062D02*
D03*
X45512Y5362D02*
D03*
X43562Y5362D02*
D03*
X50860Y22457D02*
D03*
X51958D02*
D03*
X53055D02*
D03*
X54153Y20992D02*
D03*
Y22457D02*
D03*
X22949Y857D02*
D03*
X21477Y3067D02*
D03*
X19609Y1781D02*
D03*
X21523Y857D02*
D03*
X4966Y3873D02*
D03*
X3429Y4479D02*
D03*
X3429Y5774D02*
D03*
X563Y3873D02*
D03*
Y4836D02*
D03*
X-390Y3873D02*
D03*
Y4836D02*
D03*
Y5800D02*
D03*
X9928Y3412D02*
D03*
X8678Y3412D02*
D03*
X7428D02*
D03*
X6178D02*
D03*
X48053Y1017D02*
D03*
X48629Y503D02*
D03*
X29836Y1397D02*
D03*
X27905Y1163D02*
D03*
X28198Y1781D02*
D03*
X33622Y1163D02*
D03*
X33829Y1781D02*
D03*
X24636Y3412D02*
D03*
X40963Y2102D02*
D03*
X42262Y2762D02*
D03*
X45624Y2102D02*
D03*
X45085D02*
D03*
X46812Y1558D02*
D03*
X39012Y14462D02*
D03*
X38362D02*
D03*
X43744Y19126D02*
D03*
X40760Y17417D02*
D03*
X39160D02*
D03*
X38360D02*
D03*
X37560D02*
D03*
X36760D02*
D03*
X41560Y23017D02*
D03*
X37410Y23017D02*
D03*
X39010D02*
D03*
X40610D02*
D03*
X45410D02*
D03*
X47010Y23017D02*
D03*
X48610Y23017D02*
D03*
X44610Y22217D02*
D03*
X45339Y19126D02*
D03*
X38360Y16617D02*
D03*
X37560D02*
D03*
X36760D02*
D03*
X41560D02*
D03*
X39960Y14905D02*
D03*
X40962Y14462D02*
D03*
X39662D02*
D03*
X41612Y14905D02*
D03*
X41937Y14500D02*
D03*
X42912Y14462D02*
D03*
X47010Y18217D02*
D03*
X48610Y16617D02*
D03*
X47810D02*
D03*
X47010D02*
D03*
X46210Y16617D02*
D03*
X45410Y16617D02*
D03*
X44610D02*
D03*
X48760Y18867D02*
D03*
X43160D02*
D03*
X40760D02*
D03*
X39960D02*
D03*
X39160D02*
D03*
X38360D02*
D03*
X37560D02*
D03*
X36760D02*
D03*
X31436Y7880D02*
D03*
X39012Y9262D02*
D03*
X36412Y4062D02*
D03*
Y5362D02*
D03*
Y6012D02*
D03*
Y6662D02*
D03*
X32236Y11080D02*
D03*
X33036Y11880D02*
D03*
X28236Y5480D02*
D03*
X29036Y6280D02*
D03*
Y7080D02*
D03*
X28236D02*
D03*
Y7880D02*
D03*
X29036Y7880D02*
D03*
X29036Y10280D02*
D03*
Y11080D02*
D03*
Y11880D02*
D03*
X29036Y12680D02*
D03*
X33036D02*
D03*
X32236Y13480D02*
D03*
X36412Y9262D02*
D03*
X32236Y12680D02*
D03*
X39662Y9262D02*
D03*
X32236Y11880D02*
D03*
X39662Y7312D02*
D03*
X32236Y10280D02*
D03*
X33036Y13480D02*
D03*
X32236Y8680D02*
D03*
X33036D02*
D03*
X37712Y9912D02*
D03*
X38362D02*
D03*
X36412Y13162D02*
D03*
Y12512D02*
D03*
Y11862D02*
D03*
X37062Y12512D02*
D03*
X37712Y13162D02*
D03*
X36412Y11212D02*
D03*
Y10562D02*
D03*
X37062Y11862D02*
D03*
X38362Y13162D02*
D03*
X37712Y12512D02*
D03*
X36412Y7962D02*
D03*
X37062Y11212D02*
D03*
X39012Y13162D02*
D03*
X37712Y11862D02*
D03*
X37062Y10562D02*
D03*
X38362Y12512D02*
D03*
X37062Y7312D02*
D03*
Y9262D02*
D03*
Y7962D02*
D03*
X37712Y11212D02*
D03*
X39012Y12512D02*
D03*
X38362Y11862D02*
D03*
X37712Y10562D02*
D03*
Y7312D02*
D03*
X39662Y12512D02*
D03*
X38362Y11212D02*
D03*
X37712Y9262D02*
D03*
Y7962D02*
D03*
X39012Y11862D02*
D03*
X38362Y10562D02*
D03*
X39662Y11862D02*
D03*
X39012Y11212D02*
D03*
X38362Y7312D02*
D03*
Y9262D02*
D03*
Y7962D02*
D03*
X39012Y10562D02*
D03*
X39662Y11212D02*
D03*
X39012Y7312D02*
D03*
Y7962D02*
D03*
X39662Y10562D02*
D03*
Y7962D02*
D03*
X37712Y2762D02*
D03*
X56183Y4378D02*
D03*
X56234Y3844D02*
D03*
X39485Y1638D02*
D03*
X48247Y2031D02*
D03*
X51125Y978D02*
D03*
X50022Y2019D02*
D03*
X54761Y503D02*
D03*
X52974Y2003D02*
D03*
X51871Y1544D02*
D03*
X50022Y519D02*
D03*
X52974Y503D02*
D03*
X47462Y4062D02*
D03*
X48112D02*
D03*
X47462Y4712D02*
D03*
X48112D02*
D03*
X47462Y5362D02*
D03*
X48112D02*
D03*
X47462Y6012D02*
D03*
X53033Y10272D02*
D03*
X48112Y6662D02*
D03*
Y6012D02*
D03*
X54009Y15102D02*
D03*
X45512Y12512D02*
D03*
X53476Y15102D02*
D03*
X53523Y15633D02*
D03*
X46162Y13162D02*
D03*
X53131Y15994D02*
D03*
X45512Y13162D02*
D03*
X53653Y17715D02*
D03*
X53119D02*
D03*
X44862Y14462D02*
D03*
X44212D02*
D03*
X52425Y17715D02*
D03*
X51213Y13598D02*
D03*
X54000Y11213D02*
D03*
Y12995D02*
D03*
Y12395D02*
D03*
X52517Y10002D02*
D03*
Y9402D02*
D03*
X55541Y9702D02*
D03*
Y10302D02*
D03*
Y10902D02*
D03*
Y11502D02*
D03*
Y12102D02*
D03*
Y12702D02*
D03*
Y13302D02*
D03*
Y13902D02*
D03*
Y15102D02*
D03*
Y16902D02*
D03*
Y18702D02*
D03*
X52598Y16027D02*
D03*
X47462Y11212D02*
D03*
X48262Y12233D02*
D03*
X48112Y13812D02*
D03*
X47462Y13162D02*
D03*
X45512Y11862D02*
D03*
X45513Y14462D02*
D03*
X31436Y8680D02*
D03*
X33036Y6280D02*
D03*
X26636Y12680D02*
D03*
X29836Y13480D02*
D03*
Y11080D02*
D03*
X27436Y12680D02*
D03*
X30636Y13480D02*
D03*
X25036Y6280D02*
D03*
X26636Y11080D02*
D03*
X25836Y11880D02*
D03*
X30636D02*
D03*
Y11080D02*
D03*
X31436D02*
D03*
X29836Y6280D02*
D03*
X28236Y4680D02*
D03*
X25036Y7080D02*
D03*
X31436Y12680D02*
D03*
X25836Y13480D02*
D03*
Y10280D02*
D03*
X30636D02*
D03*
X29836Y11880D02*
D03*
Y12680D02*
D03*
X24236Y4680D02*
D03*
X30636Y12680D02*
D03*
X25836Y5480D02*
D03*
X26636Y7080D02*
D03*
X31436Y11880D02*
D03*
Y5480D02*
D03*
X30636D02*
D03*
X32236Y6280D02*
D03*
X26636Y11880D02*
D03*
X25036Y4680D02*
D03*
Y11080D02*
D03*
X29836Y4680D02*
D03*
X25036Y11880D02*
D03*
Y7880D02*
D03*
X32236Y7080D02*
D03*
X29836Y8680D02*
D03*
X30636Y6280D02*
D03*
X32236Y4680D02*
D03*
X24236Y10280D02*
D03*
X25836Y11080D02*
D03*
X24236D02*
D03*
X27436Y6280D02*
D03*
X31436Y4680D02*
D03*
Y10280D02*
D03*
X29836D02*
D03*
X25036D02*
D03*
X30636Y7880D02*
D03*
X26636D02*
D03*
X27436Y8680D02*
D03*
X25836D02*
D03*
X25036D02*
D03*
X29836Y5480D02*
D03*
X25836Y7880D02*
D03*
Y4680D02*
D03*
X31436Y7080D02*
D03*
X33036Y5480D02*
D03*
X30636Y7080D02*
D03*
X31436Y6280D02*
D03*
X27436Y5480D02*
D03*
X32236D02*
D03*
X25036D02*
D03*
X29036Y8680D02*
D03*
X27457Y11049D02*
D03*
X44862Y11212D02*
D03*
X41612D02*
D03*
X45512Y9262D02*
D03*
X44212Y5362D02*
D03*
X46162Y3412D02*
D03*
X40962Y5362D02*
D03*
X47462Y3412D02*
D03*
X49410Y17417D02*
D03*
X48610D02*
D03*
X47810D02*
D03*
X47010D02*
D03*
X46210D02*
D03*
X45410D02*
D03*
X49410Y22217D02*
D03*
Y23017D02*
D03*
X48610Y22217D02*
D03*
X47810Y22217D02*
D03*
Y23017D02*
D03*
X47010Y22217D02*
D03*
X46210D02*
D03*
X46210Y23017D02*
D03*
X45410Y22217D02*
D03*
X44610Y23017D02*
D03*
X43010Y22217D02*
D03*
X43810Y22217D02*
D03*
X42210Y22217D02*
D03*
X38210Y23017D02*
D03*
X39810D02*
D03*
X41410Y22217D02*
D03*
X40610D02*
D03*
X39810D02*
D03*
X39010D02*
D03*
X38210D02*
D03*
X37410D02*
D03*
X37085Y21212D02*
D03*
X48285D02*
D03*
X38685D02*
D03*
X46685D02*
D03*
X40285D02*
D03*
X41885D02*
D03*
X43485D02*
D03*
X49085Y21212D02*
D03*
X47485D02*
D03*
X45885D02*
D03*
X42685D02*
D03*
X41085D02*
D03*
X39485D02*
D03*
X37885D02*
D03*
X36412Y14462D02*
D03*
Y2762D02*
D03*
X37062Y14462D02*
D03*
X36412Y13812D02*
D03*
X37062Y2762D02*
D03*
X37712Y14462D02*
D03*
X37062Y13812D02*
D03*
Y3412D02*
D03*
X36412Y4712D02*
D03*
X38362Y2762D02*
D03*
X37712Y13812D02*
D03*
X37062Y4062D02*
D03*
X46812Y3412D02*
D03*
X37712D02*
D03*
X39012Y2762D02*
D03*
X38362Y13812D02*
D03*
X37062Y4712D02*
D03*
X38362Y3412D02*
D03*
X46812Y4062D02*
D03*
X37712D02*
D03*
X44862Y2762D02*
D03*
X39662D02*
D03*
X39012Y13812D02*
D03*
X37062Y5362D02*
D03*
X39012Y3412D02*
D03*
X48112Y7312D02*
D03*
Y9262D02*
D03*
Y7962D02*
D03*
X46812Y4712D02*
D03*
X37712D02*
D03*
X46162Y4062D02*
D03*
X38362D02*
D03*
X39662Y13812D02*
D03*
X37062Y6012D02*
D03*
X44862Y3412D02*
D03*
X39662D02*
D03*
X47462Y6662D02*
D03*
X37062D02*
D03*
X37712Y5362D02*
D03*
X39012Y4062D02*
D03*
X44212Y3412D02*
D03*
X40312D02*
D03*
X46162Y4712D02*
D03*
X40962Y13812D02*
D03*
X47462Y7312D02*
D03*
X43562Y3412D02*
D03*
X42912Y13812D02*
D03*
X41612D02*
D03*
X47462Y7962D02*
D03*
X46812Y6012D02*
D03*
X37712D02*
D03*
X39662Y4062D02*
D03*
X38362Y5362D02*
D03*
X45512Y4712D02*
D03*
X39012D02*
D03*
X46812Y10562D02*
D03*
Y6662D02*
D03*
X37712D02*
D03*
X44212Y4062D02*
D03*
X40962Y13162D02*
D03*
X46812Y9912D02*
D03*
Y7312D02*
D03*
X42912Y13162D02*
D03*
X41612D02*
D03*
X44862Y12512D02*
D03*
X46812Y9262D02*
D03*
X38362Y6012D02*
D03*
X46162Y6012D02*
D03*
X39662Y4712D02*
D03*
X42912Y4062D02*
D03*
X39012Y5362D02*
D03*
X44212Y12512D02*
D03*
X40312D02*
D03*
X46162Y10562D02*
D03*
Y6662D02*
D03*
X38362D02*
D03*
X43562Y12512D02*
D03*
X40962D02*
D03*
X46162Y7312D02*
D03*
X45512Y6012D02*
D03*
X39012D02*
D03*
X39662Y5362D02*
D03*
X42912Y12512D02*
D03*
X46162Y7962D02*
D03*
X42912Y4712D02*
D03*
X40312Y11862D02*
D03*
X45512Y6662D02*
D03*
X39012D02*
D03*
X40312Y5362D02*
D03*
X44862Y6012D02*
D03*
X39662D02*
D03*
X43562Y11862D02*
D03*
X42912D02*
D03*
Y5362D02*
D03*
X41612D02*
D03*
X39662Y6662D02*
D03*
X40312Y6012D02*
D03*
X40962Y11212D02*
D03*
Y6012D02*
D03*
X44212Y10562D02*
D03*
X40312D02*
D03*
X42912Y11212D02*
D03*
X44212Y6662D02*
D03*
X40312D02*
D03*
X42912Y6012D02*
D03*
X41612D02*
D03*
X43562Y10562D02*
D03*
X40962D02*
D03*
X44212Y9912D02*
D03*
X40312D02*
D03*
X44212Y7312D02*
D03*
X40312D02*
D03*
X43562Y6662D02*
D03*
X40962D02*
D03*
X42912Y10562D02*
D03*
X41612D02*
D03*
X44212Y9262D02*
D03*
X40312D02*
D03*
X44212Y7962D02*
D03*
X40312D02*
D03*
X42912Y6662D02*
D03*
X41612D02*
D03*
X43562Y9912D02*
D03*
X40962D02*
D03*
X43562Y7312D02*
D03*
X40962D02*
D03*
X42912Y9912D02*
D03*
X41612D02*
D03*
X43562Y9262D02*
D03*
X40962D02*
D03*
X43562Y7962D02*
D03*
X42912Y7312D02*
D03*
X41612D02*
D03*
X42912Y9262D02*
D03*
X41612D02*
D03*
X42912Y7962D02*
D03*
X41612D02*
D03*
M02*
