G04*
G04 #@! TF.GenerationSoftware,Altium Limited,Altium Designer,21.3.2 (30)*
G04*
G04 Layer_Color=2752767*
%FSLAX43Y43*%
%MOMM*%
G71*
G04*
G04 #@! TF.SameCoordinates,AF92D2DE-8466-4D58-AFAE-29A769C4C8C3*
G04*
G04*
G04 #@! TF.FilePolarity,Positive*
G04*
G01*
G75*
%ADD16C,0.254*%
%ADD19C,0.051*%
%ADD191C,0.068*%
%ADD192C,0.034*%
D16*
X57260Y5500D02*
G03*
X58260Y4500I1000J0D01*
G01*
X59260Y3500D02*
G03*
X58260Y4500I-1000J0D01*
G01*
Y0D02*
G03*
X59260Y1000I0J1000D01*
G01*
Y25000D02*
G03*
X58260Y26000I-1000J0D01*
G01*
Y21500D02*
G03*
X59260Y22500I0J1000D01*
G01*
X58260Y21500D02*
G03*
X57260Y20500I0J-1000D01*
G01*
X-1000Y1000D02*
G03*
X0Y0I1000J0D01*
G01*
Y26000D02*
G03*
X-1000Y25000I0J-1000D01*
G01*
X59260Y1000D02*
Y3500D01*
X56260Y0D02*
X58260D01*
X56260Y26000D02*
X58260D01*
X59260Y22500D02*
Y25000D01*
X57260Y5500D02*
Y20500D01*
X0Y0D02*
X56260D01*
X-1000Y1000D02*
Y25000D01*
X0Y26000D02*
X56260D01*
D19*
X-472Y7577D02*
Y7984D01*
X-65D01*
Y7577D01*
X-472D01*
X303Y7768D02*
Y8174D01*
X709D01*
Y7768D01*
X303D01*
Y7285D02*
Y7691D01*
X709D01*
Y7285D01*
X303D01*
X1078Y7577D02*
Y7984D01*
X1484D01*
Y7577D01*
X1078D01*
X3706Y9397D02*
X3503Y9803D01*
X3909D01*
X3706Y9397D01*
X506Y8477D02*
X608Y8578D01*
X709D01*
X608Y8680D01*
X709Y8782D01*
X608D01*
X506Y8883D01*
X405Y8782D01*
X303D01*
X405Y8680D01*
X303Y8578D01*
X405D01*
X506Y8477D01*
X4853D02*
X4955Y8680D01*
X4853Y8883D01*
X5056Y8782D01*
X5259Y8883D01*
X5158Y8680D01*
X5259Y8477D01*
X5056Y8578D01*
X4853Y8477D01*
X3706Y16197D02*
X3503Y16603D01*
X3909D01*
X3706Y16197D01*
X4853Y17117D02*
X4955Y17320D01*
X4853Y17523D01*
X5056Y17422D01*
X5259Y17523D01*
X5158Y17320D01*
X5259Y17117D01*
X5056Y17218D01*
X4853Y17117D01*
X506D02*
X608Y17218D01*
X709D01*
X608Y17320D01*
X709Y17422D01*
X608D01*
X506Y17523D01*
X405Y17422D01*
X303D01*
X405Y17320D01*
X303Y17218D01*
X405D01*
X506Y17117D01*
X-472Y9330D02*
Y9736D01*
X-65D01*
Y9330D01*
X-472D01*
X303Y9622D02*
Y10028D01*
X709D01*
Y9622D01*
X303D01*
Y9139D02*
Y9546D01*
X709D01*
Y9139D01*
X303D01*
X1078Y9330D02*
Y9736D01*
X1484D01*
Y9330D01*
X1078D01*
X-472Y16188D02*
Y16594D01*
X-65D01*
Y16188D01*
X-472D01*
X303Y16378D02*
Y16785D01*
X709D01*
Y16378D01*
X303D01*
Y15896D02*
Y16302D01*
X709D01*
Y15896D01*
X303D01*
X1078Y16188D02*
Y16594D01*
X1484D01*
Y16188D01*
X1078D01*
X-475Y18042D02*
Y18448D01*
X-69D01*
Y18042D01*
X-475D01*
X300Y18334D02*
Y18740D01*
X706D01*
Y18334D01*
X300D01*
Y17851D02*
Y18258D01*
X706D01*
Y17851D01*
X300D01*
X1074Y18042D02*
Y18448D01*
X1481D01*
Y18042D01*
X1074D01*
X2398Y1998D02*
Y1897D01*
X2602D01*
Y1998D01*
X2703D01*
Y2202D01*
X2602D01*
Y2303D01*
X2398D01*
Y2202D01*
X2297D01*
Y1998D01*
X2398D01*
X52385Y24354D02*
X52487D01*
X52588Y24455D01*
X52690Y24354D01*
X52791D01*
Y24455D01*
X52690Y24557D01*
X52791Y24658D01*
Y24760D01*
X52690D01*
X52588Y24658D01*
X52487Y24760D01*
X52385D01*
Y24658D01*
X52487Y24557D01*
X52385Y24455D01*
Y24354D01*
X54925D02*
X55027D01*
X55128Y24455D01*
X55230Y24354D01*
X55331D01*
Y24455D01*
X55230Y24557D01*
X55331Y24658D01*
Y24760D01*
X55230D01*
X55128Y24658D01*
X55027Y24760D01*
X54925D01*
Y24658D01*
X55027Y24557D01*
X54925Y24455D01*
Y24354D01*
X53655D02*
X53757D01*
X53858Y24455D01*
X53960Y24354D01*
X54061D01*
Y24455D01*
X53960Y24557D01*
X54061Y24658D01*
Y24760D01*
X53960D01*
X53858Y24658D01*
X53757Y24760D01*
X53655D01*
Y24658D01*
X53757Y24557D01*
X53655Y24455D01*
Y24354D01*
X51115D02*
X51217D01*
X51318Y24455D01*
X51420Y24354D01*
X51521D01*
Y24455D01*
X51420Y24557D01*
X51521Y24658D01*
Y24760D01*
X51420D01*
X51318Y24658D01*
X51217Y24760D01*
X51115D01*
Y24658D01*
X51217Y24557D01*
X51115Y24455D01*
Y24354D01*
X52385Y23084D02*
X52487D01*
X52588Y23185D01*
X52690Y23084D01*
X52791D01*
Y23185D01*
X52690Y23287D01*
X52791Y23388D01*
Y23490D01*
X52690D01*
X52588Y23388D01*
X52487Y23490D01*
X52385D01*
Y23388D01*
X52487Y23287D01*
X52385Y23185D01*
Y23084D01*
X53655D02*
X53757D01*
X53858Y23185D01*
X53960Y23084D01*
X54061D01*
Y23185D01*
X53960Y23287D01*
X54061Y23388D01*
Y23490D01*
X53960D01*
X53858Y23388D01*
X53757Y23490D01*
X53655D01*
Y23388D01*
X53757Y23287D01*
X53655Y23185D01*
Y23084D01*
X51115D02*
X51217D01*
X51318Y23185D01*
X51420Y23084D01*
X51521D01*
Y23185D01*
X51420Y23287D01*
X51521Y23388D01*
Y23490D01*
X51420D01*
X51318Y23388D01*
X51217Y23490D01*
X51115D01*
Y23388D01*
X51217Y23287D01*
X51115Y23185D01*
Y23084D01*
X54925D02*
X55027D01*
X55128Y23185D01*
X55230Y23084D01*
X55331D01*
Y23185D01*
X55230Y23287D01*
X55331Y23388D01*
Y23490D01*
X55230D01*
X55128Y23388D01*
X55027Y23490D01*
X54925D01*
Y23388D01*
X55027Y23287D01*
X54925Y23185D01*
Y23084D01*
X3150Y20760D02*
X3353Y20963D01*
X3556Y20760D01*
X3353Y20557D01*
X3150Y20760D01*
X57297Y2297D02*
Y2703D01*
X57703D01*
Y2297D01*
X57297D01*
X57398Y2398D02*
Y2602D01*
X57602D01*
Y2398D01*
X57398D01*
X57297Y23297D02*
Y23703D01*
X57703D01*
Y23297D01*
X57297D01*
X57398Y23398D02*
Y23602D01*
X57602D01*
Y23398D01*
X57398D01*
X2398Y23798D02*
Y23697D01*
X2602D01*
Y23798D01*
X2703D01*
Y24002D01*
X2602D01*
Y24103D01*
X2398D01*
Y24002D01*
X2297D01*
Y23798D01*
X2398D01*
X22331Y13084D02*
Y13491D01*
X22737D01*
Y13084D01*
X22331D01*
X359Y5597D02*
Y6003D01*
X766D01*
Y5597D01*
X359D01*
X21717Y22530D02*
Y22936D01*
X22123D01*
Y22530D01*
X21717D01*
X18339Y23190D02*
Y23597D01*
X18745D01*
Y23190D01*
X18339D01*
X18110Y17704D02*
Y18110D01*
X18517D01*
Y17704D01*
X18110D01*
X23353Y23499D02*
Y23905D01*
X23759D01*
Y23499D01*
X23353D01*
X53761Y5550D02*
Y5956D01*
X54167D01*
Y5550D01*
X53761D01*
X23358Y24038D02*
Y24444D01*
X23764D01*
Y24038D01*
X23358D01*
X17449Y23748D02*
Y24154D01*
X17855D01*
Y23748D01*
X17449D01*
X16910Y23752D02*
Y24159D01*
X17317D01*
Y23752D01*
X16910D01*
X15748Y24954D02*
Y25361D01*
X16154D01*
Y24954D01*
X15748D01*
X12446Y25222D02*
Y25629D01*
X12852D01*
Y25222D01*
X12446D01*
X19241Y24086D02*
Y24492D01*
X19647D01*
Y24086D01*
X19241D01*
X19914Y22823D02*
Y23229D01*
X20320D01*
Y22823D01*
X19914D01*
X19907Y22061D02*
Y22467D01*
X20314D01*
Y22061D01*
X19907D01*
X20291Y22438D02*
Y22845D01*
X20698D01*
Y22438D01*
X20291D01*
X19530Y22445D02*
Y22851D01*
X19936D01*
Y22445D01*
X19530D01*
X19101Y19597D02*
Y20003D01*
X19507D01*
Y19597D01*
X19101D01*
X19095Y18835D02*
Y19241D01*
X19501D01*
Y18835D01*
X19095D01*
X19479Y19213D02*
Y19619D01*
X19885D01*
Y19213D01*
X19479D01*
X18717Y19219D02*
Y19626D01*
X19123D01*
Y19219D01*
X18717D01*
X35433Y21996D02*
Y22403D01*
X35839D01*
Y21996D01*
X35433D01*
X17847Y22144D02*
Y22550D01*
X18253D01*
Y22144D01*
X17847D01*
X18293Y25222D02*
Y25629D01*
X18699D01*
Y25222D01*
X18293D01*
X16129Y19482D02*
Y19888D01*
X16535D01*
Y19482D01*
X16129D01*
X17404Y20234D02*
Y20640D01*
X17810D01*
Y20234D01*
X17404D01*
X23177Y18558D02*
Y18964D01*
X23583D01*
Y18558D01*
X23177D01*
X20628Y18553D02*
Y18959D01*
X21035D01*
Y18553D01*
X20628D01*
X23716Y25201D02*
Y25608D01*
X24123D01*
Y25201D01*
X23716D01*
X22788Y25208D02*
Y25614D01*
X23194D01*
Y25208D01*
X22788D01*
X21524Y20181D02*
Y20588D01*
X21930D01*
Y20181D01*
X21524D01*
X46957Y18664D02*
Y19071D01*
X47363D01*
Y18664D01*
X46957D01*
X41408Y11659D02*
Y12066D01*
X41815D01*
Y11659D01*
X41408D01*
X40758D02*
Y12066D01*
X41165D01*
Y11659D01*
X40758D01*
X47757Y18664D02*
Y19071D01*
X48163D01*
Y18664D01*
X47757D01*
X44008Y13609D02*
Y14016D01*
X44415D01*
Y13609D01*
X44008D01*
X52908Y18627D02*
Y19033D01*
X53315D01*
Y18627D01*
X52908D01*
X43358Y13609D02*
Y14016D01*
X43765D01*
Y13609D01*
X43358D01*
X53442Y18627D02*
Y19033D01*
X53848D01*
Y18627D01*
X53442D01*
X3462Y12410D02*
Y12816D01*
X3869D01*
Y12410D01*
X3462D01*
X6121Y13193D02*
Y13600D01*
X6528D01*
Y13193D01*
X6121D01*
X3462Y12943D02*
Y13350D01*
X3869D01*
Y12943D01*
X3462D01*
X6121Y12660D02*
Y13066D01*
X6528D01*
Y12660D01*
X6121D01*
X23089Y17145D02*
Y17551D01*
X23495D01*
Y17145D01*
X23089D01*
X22473Y16281D02*
Y16688D01*
X22880D01*
Y16281D01*
X22473D01*
X11862Y16535D02*
Y16942D01*
X12268D01*
Y16535D01*
X11862D01*
X14249Y18364D02*
Y18771D01*
X14656D01*
Y18364D01*
X14249D01*
X14937Y18180D02*
Y18586D01*
X15343D01*
Y18180D01*
X14937D01*
X13030Y15488D02*
Y15894D01*
X13437D01*
Y15488D01*
X13030D01*
X14249Y18898D02*
Y19305D01*
X14656D01*
Y18898D01*
X14249D01*
X12852Y13665D02*
Y14072D01*
X13259D01*
Y13665D01*
X12852D01*
X15112Y13944D02*
Y14350D01*
X15519D01*
Y13944D01*
X15112D01*
Y6877D02*
Y7283D01*
X15519D01*
Y6877D01*
X15112D01*
X13842Y7270D02*
Y7676D01*
X14249D01*
Y7270D01*
X13842D01*
X13842Y15599D02*
Y16006D01*
X14249D01*
Y15599D01*
X13842D01*
X4996Y12157D02*
Y12563D01*
X5402D01*
Y12157D01*
X4996D01*
X34819Y16350D02*
Y16756D01*
X35225D01*
Y16350D01*
X34819D01*
X50718Y20179D02*
Y20585D01*
X51124D01*
Y20179D01*
X50718D01*
X51667Y19675D02*
Y20082D01*
X52074D01*
Y19675D01*
X51667D01*
X51905Y20179D02*
Y20585D01*
X52311D01*
Y20179D01*
X51905D01*
X50190Y19616D02*
Y20022D01*
X50596D01*
Y19616D01*
X50190D01*
X55636Y8306D02*
Y8712D01*
X56043D01*
Y8306D01*
X55636D01*
X56352Y8280D02*
Y8687D01*
X56759D01*
Y8280D01*
X56352D01*
X56175Y7452D02*
Y7859D01*
X56581D01*
Y7452D01*
X56175D01*
Y6761D02*
Y7168D01*
X56581D01*
Y6761D01*
X56175D01*
X12632Y12961D02*
Y13367D01*
X13039D01*
Y12961D01*
X12632D01*
Y12376D02*
Y12783D01*
X13039D01*
Y12376D01*
X12632D01*
Y14427D02*
Y14834D01*
X13039D01*
Y14427D01*
X12632D01*
Y14961D02*
Y15367D01*
X13039D01*
Y14961D01*
X12632D01*
X53449Y16408D02*
Y16815D01*
X53856D01*
Y16408D01*
X53449D01*
X44008Y12959D02*
Y13366D01*
X44415D01*
Y12959D01*
X44008D01*
X52916Y16408D02*
Y16815D01*
X53322D01*
Y16408D01*
X52916D01*
X44658Y12959D02*
Y13366D01*
X45065D01*
Y12959D01*
X44658D01*
X52312Y11598D02*
Y12004D01*
X52719D01*
Y11598D01*
X52312D01*
X13185Y6878D02*
Y7285D01*
X13592D01*
Y6878D01*
X13185D01*
X31585Y23320D02*
Y23726D01*
X31991D01*
Y23320D01*
X31585D01*
X32045D02*
Y23726D01*
X32452D01*
Y23320D01*
X32045D01*
X31120D02*
Y23726D01*
X31526D01*
Y23320D01*
X31120D01*
X49207Y16569D02*
Y16976D01*
X49613D01*
Y16569D01*
X49207D01*
X44376Y17831D02*
Y18237D01*
X44782D01*
Y17831D01*
X44376D01*
X42807Y17878D02*
Y18284D01*
X43213D01*
Y17878D01*
X42807D01*
X45999Y11608D02*
Y12014D01*
X46406D01*
Y11608D01*
X45999D01*
X43035Y14761D02*
Y15167D01*
X43441D01*
Y14761D01*
X43035D01*
X41427Y12344D02*
Y12751D01*
X41834D01*
Y12344D01*
X41427D01*
X44602Y18669D02*
Y19075D01*
X45009D01*
Y18669D01*
X44602D01*
X43684Y17145D02*
Y17551D01*
X44091D01*
Y17145D01*
X43684D01*
X45958Y12309D02*
Y12716D01*
X46365D01*
Y12309D01*
X45958D01*
X38158Y4509D02*
Y4916D01*
X38565D01*
Y4509D01*
X38158D01*
X40758Y7759D02*
Y8166D01*
X41165D01*
Y7759D01*
X40758D01*
X36858Y12959D02*
Y13366D01*
X37265D01*
Y12959D01*
X36858D01*
X52852Y14118D02*
Y14524D01*
X53258D01*
Y14118D01*
X52852D01*
X42857Y22737D02*
Y23143D01*
X43263D01*
Y22737D01*
X42857D01*
X48368Y1250D02*
Y1657D01*
X48774D01*
Y1250D01*
X48368D01*
X51994Y3583D02*
Y3990D01*
X52401D01*
Y3583D01*
X51994D01*
X52013Y4158D02*
Y4565D01*
X52419D01*
Y4158D01*
X52013D01*
X54408Y928D02*
Y1334D01*
X54814D01*
Y928D01*
X54408D01*
X54395Y1573D02*
Y1980D01*
X54801D01*
Y1573D01*
X54395D01*
X54534Y2157D02*
Y2563D01*
X54940D01*
Y2157D01*
X54534D01*
X50922Y1356D02*
Y1763D01*
X51328D01*
Y1356D01*
X50922D01*
X51667Y759D02*
Y1166D01*
X52074D01*
Y759D01*
X51667D01*
X41357Y18664D02*
Y19071D01*
X41763D01*
Y18664D01*
X41357D01*
X42157D02*
Y19071D01*
X42563D01*
Y18664D01*
X42157D01*
X40108Y12959D02*
Y13366D01*
X40515D01*
Y12959D01*
X40108D01*
X39458D02*
Y13366D01*
X39865D01*
Y12959D01*
X39458D01*
X44882Y21009D02*
Y21415D01*
X45288D01*
Y21009D01*
X44882D01*
X44082Y21009D02*
Y21415D01*
X44488D01*
Y21009D01*
X44082D01*
X48882Y19514D02*
Y19921D01*
X49288D01*
Y19514D01*
X48882D01*
Y20133D02*
Y20539D01*
X49288D01*
Y20133D01*
X48882D01*
X47656Y19675D02*
Y20082D01*
X48063D01*
Y19675D01*
X47656D01*
X47041Y20142D02*
Y20548D01*
X47447D01*
Y20142D01*
X47041D01*
X45682Y19675D02*
Y20082D01*
X46088D01*
Y19675D01*
X45682D01*
Y20179D02*
Y20585D01*
X46088D01*
Y20179D01*
X45682D01*
X43485D02*
Y20585D01*
X43891D01*
Y20179D01*
X43485D01*
X43490Y19680D02*
Y20086D01*
X43897D01*
Y19680D01*
X43490D01*
X42088Y19616D02*
Y20022D01*
X42494D01*
Y19616D01*
X42088D01*
X42113Y20234D02*
Y20640D01*
X42520D01*
Y20234D01*
X42113D01*
X40182Y19588D02*
Y19994D01*
X40588D01*
Y19588D01*
X40182D01*
Y20234D02*
Y20640D01*
X40588D01*
Y20234D01*
X40182D01*
X36724Y19553D02*
Y19960D01*
X37131D01*
Y19553D01*
X36724D01*
Y20179D02*
Y20585D01*
X37131D01*
Y20179D01*
X36724D01*
X38957Y19563D02*
Y19970D01*
X39363D01*
Y19563D01*
X38957D01*
Y20179D02*
Y20585D01*
X39363D01*
Y20179D01*
X38957D01*
X4750Y15666D02*
Y16073D01*
X5156D01*
Y15666D01*
X4750D01*
X4894Y9902D02*
Y10309D01*
X5300D01*
Y9902D01*
X4894D01*
X16129Y6877D02*
Y7283D01*
X16535D01*
Y6877D01*
X16129D01*
X38957Y16414D02*
Y16821D01*
X39363D01*
Y16414D01*
X38957D01*
X39757D02*
Y16821D01*
X40163D01*
Y16414D01*
X39757D01*
X42957D02*
Y16821D01*
X43363D01*
Y16414D01*
X42957D01*
X42007Y17214D02*
Y17621D01*
X42413D01*
Y17214D01*
X42007D01*
X52496Y2826D02*
Y3232D01*
X52902D01*
Y2826D01*
X52496D01*
X51755Y6459D02*
Y6866D01*
X52161D01*
Y6459D01*
X51755D01*
X25508Y19736D02*
Y20142D01*
X25915D01*
Y19736D01*
X25508D01*
X3386Y21781D02*
Y22188D01*
X3792D01*
Y21781D01*
X3386D01*
X52852Y20789D02*
Y21195D01*
X53258D01*
Y20789D01*
X52852D01*
X20613Y14222D02*
Y14628D01*
X21019D01*
Y14222D01*
X20613D01*
X19981Y14249D02*
Y14655D01*
X20388D01*
Y14249D01*
X19981D01*
X33711Y2744D02*
Y3150D01*
X34118D01*
Y2744D01*
X33711D01*
X32833Y4477D02*
Y4883D01*
X33239D01*
Y4477D01*
X32833D01*
X44572Y254D02*
Y660D01*
X44978D01*
Y254D01*
X44572D01*
X43911D02*
Y660D01*
X44318D01*
Y254D01*
X43911D01*
X43035D02*
Y660D01*
X43441D01*
Y254D01*
X43035D01*
X42322D02*
Y660D01*
X42729D01*
Y254D01*
X42322D01*
X40760D02*
Y660D01*
X41166D01*
Y254D01*
X40760D01*
X41462D02*
Y660D01*
X41868D01*
Y254D01*
X41462D01*
X46348D02*
Y660D01*
X46755D01*
Y254D01*
X46348D01*
X45222D02*
Y660D01*
X45629D01*
Y254D01*
X45222D01*
X56164Y9774D02*
Y10180D01*
X56571D01*
Y9774D01*
X56164D01*
X56043Y9093D02*
Y9500D01*
X56449D01*
Y9093D01*
X56043D01*
X56566Y9246D02*
Y9652D01*
X56972D01*
Y9246D01*
X56566D01*
X8952Y18014D02*
Y18420D01*
X9359D01*
Y18014D01*
X8952D01*
X8957Y18553D02*
Y18959D01*
X9363D01*
Y18553D01*
X8957D01*
X8414Y18019D02*
Y18425D01*
X8820D01*
Y18019D01*
X8414D01*
X8418Y18557D02*
Y18964D01*
X8825D01*
Y18557D01*
X8418D01*
X7453Y16833D02*
Y17240D01*
X7860D01*
Y16833D01*
X7453D01*
X9944Y22619D02*
Y23025D01*
X10350D01*
Y22619D01*
X9944D01*
X24176Y16882D02*
Y17288D01*
X24582D01*
Y16882D01*
X24176D01*
X21562Y16267D02*
Y16674D01*
X21968D01*
Y16267D01*
X21562D01*
X25583Y18898D02*
Y19305D01*
X25989D01*
Y18898D01*
X25583D01*
X22058Y19638D02*
Y20045D01*
X22464D01*
Y19638D01*
X22058D01*
X21519Y19643D02*
Y20049D01*
X21925D01*
Y19643D01*
X21519D01*
X22062Y20177D02*
Y20583D01*
X22469D01*
Y20177D01*
X22062D01*
X22885Y14227D02*
Y14634D01*
X23292D01*
Y14227D01*
X22885D01*
X33453Y25201D02*
Y25608D01*
X33860D01*
Y25201D01*
X33453D01*
X26229Y25309D02*
Y25715D01*
X26635D01*
Y25309D01*
X26229D01*
X31801Y25228D02*
Y25635D01*
X32208D01*
Y25228D01*
X31801D01*
X31170Y25255D02*
Y25662D01*
X31576D01*
Y25255D01*
X31170D01*
X32433Y25201D02*
Y25608D01*
X32839D01*
Y25201D01*
X32433D01*
X28124Y25228D02*
Y25635D01*
X28531D01*
Y25228D01*
X28124D01*
X27492Y25255D02*
Y25662D01*
X27899D01*
Y25255D01*
X27492D01*
X28756Y25201D02*
Y25608D01*
X29162D01*
Y25201D01*
X28756D01*
X30487Y15902D02*
Y16308D01*
X30893D01*
Y15902D01*
X30487D01*
X31119Y15875D02*
Y16281D01*
X31525D01*
Y15875D01*
X31119D01*
X30460Y15270D02*
Y15677D01*
X30866D01*
Y15270D01*
X30460D01*
X31092Y15243D02*
Y15650D01*
X31498D01*
Y15243D01*
X31092D01*
X28391Y15902D02*
Y16308D01*
X28798D01*
Y15902D01*
X28391D01*
X29023Y15875D02*
Y16281D01*
X29430D01*
Y15875D01*
X29023D01*
X28365Y15270D02*
Y15677D01*
X28771D01*
Y15270D01*
X28365D01*
X28996Y15243D02*
Y15650D01*
X29403D01*
Y15243D01*
X28996D01*
X28194Y13737D02*
Y14143D01*
X28600D01*
Y13737D01*
X28194D01*
X28813Y18085D02*
Y18491D01*
X29219D01*
Y18085D01*
X28813D01*
X31005Y18197D02*
Y18603D01*
X31412D01*
Y18197D01*
X31005D01*
X31881Y14118D02*
Y14524D01*
X32288D01*
Y14118D01*
X31881D01*
X29439Y14110D02*
Y14516D01*
X29845D01*
Y14110D01*
X29439D01*
X27233Y9985D02*
Y10391D01*
X27639D01*
Y9985D01*
X27233D01*
X25633Y9277D02*
Y9683D01*
X26039D01*
Y9277D01*
X25633D01*
X20320Y4674D02*
Y5080D01*
X20726D01*
Y4674D01*
X20320D01*
X18415Y6553D02*
Y6960D01*
X18821D01*
Y6553D01*
X18415D01*
X20142Y6807D02*
Y7214D01*
X20549D01*
Y6807D01*
X20142D01*
X23089Y6375D02*
Y6782D01*
X23495D01*
Y6375D01*
X23089D01*
X22890Y11975D02*
Y12382D01*
X23296D01*
Y11975D01*
X22890D01*
X45618Y24105D02*
Y24511D01*
X46025D01*
Y24105D01*
X45618D01*
X48925Y24150D02*
Y24556D01*
X49332D01*
Y24150D01*
X48925D01*
X24501Y13677D02*
Y14083D01*
X24907D01*
Y13677D01*
X24501D01*
X12269Y10806D02*
Y11213D01*
X12675D01*
Y10806D01*
X12269D01*
X11140Y10227D02*
Y10634D01*
X11547D01*
Y10227D01*
X11140D01*
X55474Y20330D02*
Y20736D01*
X55880D01*
Y20330D01*
X55474D01*
X31474Y21322D02*
Y21728D01*
X31881D01*
Y21322D01*
X31474D01*
X50769Y7995D02*
Y8401D01*
X51175D01*
Y7995D01*
X50769D01*
X43911Y2297D02*
Y2703D01*
X44318D01*
Y2297D01*
X43911D01*
X43167D02*
Y2703D01*
X43573D01*
Y2297D01*
X43167D01*
X7976Y20980D02*
Y21387D01*
X8382D01*
Y20980D01*
X7976D01*
X36557Y25222D02*
Y25629D01*
X36963D01*
Y25222D01*
X36557D01*
X26160Y14698D02*
Y15104D01*
X26567D01*
Y14698D01*
X26160D01*
X8773Y20665D02*
Y21071D01*
X9180D01*
Y20665D01*
X8773D01*
X16129Y22144D02*
Y22550D01*
X16535D01*
Y22144D01*
X16129D01*
X12023Y21579D02*
Y21985D01*
X12429D01*
Y21579D01*
X12023D01*
X6509Y22865D02*
Y23272D01*
X6915D01*
Y22865D01*
X6509D01*
X4750Y254D02*
Y660D01*
X5156D01*
Y254D01*
X4750D01*
X4788Y25340D02*
Y25746D01*
X5194D01*
Y25340D01*
X4788D01*
X15234Y22865D02*
Y23272D01*
X15640D01*
Y22865D01*
X15234D01*
X14249Y20665D02*
Y21071D01*
X14656D01*
Y20665D01*
X14249D01*
Y21597D02*
Y22003D01*
X14656D01*
Y21597D01*
X14249D01*
Y22529D02*
Y22935D01*
X14656D01*
Y22529D01*
X14249D01*
X17526Y3407D02*
Y3814D01*
X17932D01*
Y3407D01*
X17526D01*
Y4262D02*
Y4669D01*
X17932D01*
Y4262D01*
X17526D01*
Y5118D02*
Y5524D01*
X17932D01*
Y5118D01*
X17526D01*
Y5973D02*
Y6379D01*
X17932D01*
Y5973D01*
X17526D01*
X22619Y3829D02*
Y4236D01*
X23025D01*
Y3829D01*
X22619D01*
X22771Y3077D02*
Y3484D01*
X23178D01*
Y3077D01*
X22771D01*
X22936Y4502D02*
Y4909D01*
X23343D01*
Y4502D01*
X22936D01*
X11787Y3045D02*
Y3451D01*
X12193D01*
Y3045D01*
X11787D01*
X13218Y1636D02*
Y2043D01*
X13624D01*
Y1636D01*
X13218D01*
X11781Y2351D02*
Y2758D01*
X12187D01*
Y2351D01*
X11781D01*
X13217Y2322D02*
Y2728D01*
X13623D01*
Y2322D01*
X13217D01*
X11782Y1666D02*
Y2072D01*
X12188D01*
Y1666D01*
X11782D01*
X13223Y3015D02*
Y3422D01*
X13629D01*
Y3015D01*
X13223D01*
X7203Y4184D02*
Y4591D01*
X7609D01*
Y4184D01*
X7203D01*
Y5461D02*
Y5867D01*
X7609D01*
Y5461D01*
X7203D01*
X10149Y4276D02*
Y4682D01*
X10555D01*
Y4276D01*
X10149D01*
Y5512D02*
Y5918D01*
X10555D01*
Y5512D01*
X10149D01*
X12747Y5461D02*
Y5867D01*
X13153D01*
Y5461D01*
X12747D01*
X15570Y4238D02*
Y4645D01*
X15977D01*
Y4238D01*
X15570D01*
Y5537D02*
Y5944D01*
X15977D01*
Y5537D01*
X15570D01*
X17704Y6877D02*
Y7283D01*
X18110D01*
Y6877D01*
X17704D01*
X18521Y9626D02*
Y10033D01*
X18927D01*
Y9626D01*
X18521D01*
Y10896D02*
Y11303D01*
X18927D01*
Y10896D01*
X18521D01*
Y12167D02*
Y12573D01*
X18927D01*
Y12167D01*
X18521D01*
X16434Y14677D02*
Y15083D01*
X16840D01*
Y14677D01*
X16434D01*
X19234Y4704D02*
Y5111D01*
X19640D01*
Y4704D01*
X19234D01*
X18389Y4699D02*
Y5105D01*
X18796D01*
Y4699D01*
X18389D01*
X8324Y15037D02*
Y15443D01*
X8731D01*
Y15037D01*
X8324D01*
X7474D02*
Y15443D01*
X7881D01*
Y15037D01*
X7474D01*
X8324Y12335D02*
Y12741D01*
X8731D01*
Y12335D01*
X8324D01*
X7474D02*
Y12741D01*
X7881D01*
Y12335D01*
X7474D01*
X11382Y6823D02*
Y7229D01*
X11788D01*
Y6823D01*
X11382D01*
X8331Y7823D02*
Y8230D01*
X8738D01*
Y7823D01*
X8331D01*
X10867Y12627D02*
Y13033D01*
X11274D01*
Y12627D01*
X10867D01*
Y14761D02*
Y15167D01*
X11274D01*
Y14761D01*
X10867D01*
Y14227D02*
Y14634D01*
X11274D01*
Y14227D01*
X10867D01*
Y13160D02*
Y13567D01*
X11274D01*
Y13160D01*
X10867D01*
Y13694D02*
Y14100D01*
X11274D01*
Y13694D01*
X10867D01*
X9944Y9827D02*
Y10233D01*
X10350D01*
Y9827D01*
X9944D01*
Y10527D02*
Y10933D01*
X10350D01*
Y10527D01*
X9944D01*
X7645Y10185D02*
Y10592D01*
X8052D01*
Y10185D01*
X7645D01*
X6495Y9827D02*
Y10233D01*
X6902D01*
Y9827D01*
X6495D01*
X6509Y10527D02*
Y10933D01*
X6915D01*
Y10527D01*
X6509D01*
X16637Y4262D02*
Y4669D01*
X17043D01*
Y4262D01*
X16637D01*
Y5118D02*
Y5524D01*
X17043D01*
Y5118D01*
X16637D01*
Y5973D02*
Y6379D01*
X17043D01*
Y5973D01*
X16637D01*
X21287Y12309D02*
Y12716D01*
X21694D01*
Y12309D01*
X21287D01*
X19685Y10077D02*
Y10483D01*
X20091D01*
Y10077D01*
X19685D01*
X21287Y11117D02*
Y11524D01*
X21694D01*
Y11117D01*
X21287D01*
X19685Y11277D02*
Y11683D01*
X20091D01*
Y11277D01*
X19685D01*
X20719Y3859D02*
Y4266D01*
X21125D01*
Y3859D01*
X20719D01*
X20041Y6010D02*
Y6416D01*
X20447D01*
Y6010D01*
X20041D01*
X19883Y5191D02*
Y5597D01*
X20289D01*
Y5191D01*
X19883D01*
Y4191D02*
Y4597D01*
X20289D01*
Y4191D01*
X19883D01*
X34124Y15215D02*
Y15621D01*
X34530D01*
Y15215D01*
X34124D01*
X34265Y15824D02*
Y16231D01*
X34671D01*
Y15824D01*
X34265D01*
X25121Y16281D02*
Y16688D01*
X25527D01*
Y16281D01*
X25121D01*
X25908Y15291D02*
Y15697D01*
X26314D01*
Y15291D01*
X25908D01*
X4420Y13437D02*
Y13843D01*
X4826D01*
Y13437D01*
X4420D01*
X3429Y14410D02*
Y14816D01*
X3835D01*
Y14410D01*
X3429D01*
X6985Y11852D02*
Y12258D01*
X7391D01*
Y11852D01*
X6985D01*
X3446Y10943D02*
Y11350D01*
X3852D01*
Y10943D01*
X3446D01*
X6985Y11318D02*
Y11725D01*
X7391D01*
Y11318D01*
X6985D01*
X3446Y10410D02*
Y10816D01*
X3852D01*
Y10410D01*
X3446D01*
X7010Y16053D02*
Y16460D01*
X7417D01*
Y16053D01*
X7010D01*
Y15520D02*
Y15927D01*
X7417D01*
Y15520D01*
X7010D01*
X3429Y14943D02*
Y15350D01*
X3835D01*
Y14943D01*
X3429D01*
X35839Y9709D02*
Y10116D01*
X36246D01*
Y9709D01*
X35839D01*
X37207Y438D02*
Y845D01*
X37613D01*
Y438D01*
X37207D01*
X24624Y24150D02*
Y24556D01*
X25030D01*
Y24150D01*
X24624D01*
X24139Y18800D02*
Y19206D01*
X24545D01*
Y18800D01*
X24139D01*
X23865Y19595D02*
Y20001D01*
X24271D01*
Y19595D01*
X23865D01*
Y20509D02*
Y20916D01*
X24271D01*
Y20509D01*
X23865D01*
X24270Y21297D02*
Y21703D01*
X24677D01*
Y21297D01*
X24270D01*
X24131Y21996D02*
Y22403D01*
X24538D01*
Y21996D01*
X24131D01*
X36414Y24105D02*
Y24511D01*
X36820D01*
Y24105D01*
X36414D01*
X35814Y25005D02*
Y25411D01*
X36220D01*
Y25005D01*
X35814D01*
X35661Y24015D02*
Y24421D01*
X36067D01*
Y24015D01*
X35661D01*
X35372Y18698D02*
Y19105D01*
X35779D01*
Y18698D01*
X35372D01*
Y19384D02*
Y19790D01*
X35779D01*
Y19384D01*
X35372D01*
X35357Y20066D02*
Y20472D01*
X35763D01*
Y20066D01*
X35357D01*
X35331Y20777D02*
Y21184D01*
X35738D01*
Y20777D01*
X35331D01*
X35433Y21438D02*
Y21844D01*
X35839D01*
Y21438D01*
X35433D01*
X24943Y16891D02*
Y17297D01*
X25349D01*
Y16891D01*
X24943D01*
X30814Y14141D02*
Y14547D01*
X31220D01*
Y14141D01*
X30814D01*
X28829Y19482D02*
Y19888D01*
X29235D01*
Y19482D01*
X28829D01*
X28813Y21750D02*
Y22157D01*
X29219D01*
Y21750D01*
X28813D01*
X32213Y19018D02*
Y19425D01*
X32619D01*
Y19018D01*
X32213D01*
X27127Y18898D02*
Y19305D01*
X27534D01*
Y18898D01*
X27127D01*
X32274Y21350D02*
Y21757D01*
X32681D01*
Y21350D01*
X32274D01*
X27254Y20509D02*
Y20916D01*
X27660D01*
Y20509D01*
X27254D01*
X29918Y18197D02*
Y18603D01*
X30324D01*
Y18197D01*
X29918D01*
X29939Y17145D02*
Y17551D01*
X30345D01*
Y17145D01*
X29939D01*
X29439D02*
Y17551D01*
X29845D01*
Y17145D01*
X29439D01*
X33912Y22934D02*
Y23340D01*
X34318D01*
Y22934D01*
X33912D01*
X30439Y24511D02*
Y24917D01*
X30845D01*
Y24511D01*
X30439D01*
X29939Y23139D02*
Y23546D01*
X30345D01*
Y23139D01*
X29939D01*
X30439Y24015D02*
Y24421D01*
X30845D01*
Y24015D01*
X30439D01*
X29939Y24409D02*
Y24816D01*
X30345D01*
Y24409D01*
X29939D01*
Y25201D02*
Y25608D01*
X30345D01*
Y25201D01*
X29939D01*
X32302Y22327D02*
Y22733D01*
X32708D01*
Y22327D01*
X32302D01*
X27944Y23330D02*
Y23736D01*
X28350D01*
Y23330D01*
X27944D01*
X28458D02*
Y23736D01*
X28865D01*
Y23330D01*
X28458D01*
X27430D02*
Y23736D01*
X27836D01*
Y23330D01*
X27430D01*
X31376Y20557D02*
Y20963D01*
X31782D01*
Y20557D01*
X31376D01*
X30743D02*
Y20963D01*
X31149D01*
Y20557D01*
X30743D01*
Y19736D02*
Y20142D01*
X31149D01*
Y19736D01*
X30743D01*
Y21598D02*
Y22004D01*
X31149D01*
Y21598D01*
X30743D01*
X29918Y21290D02*
Y21697D01*
X30324D01*
Y21290D01*
X29918D01*
X29930Y19874D02*
Y20281D01*
X30336D01*
Y19874D01*
X29930D01*
X28559Y20557D02*
Y20963D01*
X28965D01*
Y20557D01*
X28559D01*
X27940Y21322D02*
Y21728D01*
X28346D01*
Y21322D01*
X27940D01*
X27203Y22327D02*
Y22733D01*
X27610D01*
Y22327D01*
X27203D01*
X25681Y22762D02*
Y23169D01*
X26087D01*
Y22762D01*
X25681D01*
X27233Y21350D02*
Y21757D01*
X27639D01*
Y21350D01*
X27233D01*
X31939Y17395D02*
Y17802D01*
X32345D01*
Y17395D01*
X31939D01*
X27439D02*
Y17802D01*
X27845D01*
Y17395D01*
X27439D01*
X50657Y9199D02*
Y9605D01*
X51063D01*
Y9199D01*
X50657D01*
X50532Y6512D02*
Y6918D01*
X50938D01*
Y6512D01*
X50532D01*
X47258Y8409D02*
Y8816D01*
X47665D01*
Y8409D01*
X47258D01*
X53665Y1792D02*
Y2198D01*
X54071D01*
Y1792D01*
X53665D01*
X50657Y4013D02*
Y4420D01*
X51063D01*
Y4013D01*
X50657D01*
X49819D02*
Y4420D01*
X50225D01*
Y4013D01*
X49819D01*
X55258Y6512D02*
Y6918D01*
X55664D01*
Y6512D01*
X55258D01*
X55778Y2778D02*
Y3184D01*
X56185D01*
Y2778D01*
X55778D01*
X50769Y8595D02*
Y9001D01*
X51175D01*
Y8595D01*
X50769D01*
X55338Y7099D02*
Y7505D01*
X55744D01*
Y7099D01*
X55338D01*
X40758Y4509D02*
Y4916D01*
X41165D01*
Y4509D01*
X40758D01*
X36352Y438D02*
Y845D01*
X36759D01*
Y438D01*
X36352D01*
X38158Y344D02*
Y750D01*
X38565D01*
Y344D01*
X38158D01*
X25308Y459D02*
Y866D01*
X25714D01*
Y459D01*
X25308D01*
X28833Y13277D02*
Y13683D01*
X29239D01*
Y13277D01*
X28833D01*
X34894Y1435D02*
Y1841D01*
X35300D01*
Y1435D01*
X34894D01*
X30810Y1092D02*
Y1499D01*
X31217D01*
Y1092D01*
X30810D01*
X43358Y4509D02*
Y4916D01*
X43765D01*
Y4509D01*
X43358D01*
X45958Y5159D02*
Y5566D01*
X46365D01*
Y5159D01*
X45958D01*
X43358Y3859D02*
Y4266D01*
X43765D01*
Y3859D01*
X43358D01*
X45308Y5159D02*
Y5566D01*
X45715D01*
Y5159D01*
X45308D01*
X43358Y5159D02*
Y5566D01*
X43765D01*
Y5159D01*
X43358D01*
X50657Y22254D02*
Y22660D01*
X51063D01*
Y22254D01*
X50657D01*
X51755D02*
Y22660D01*
X52161D01*
Y22254D01*
X51755D01*
X52852D02*
Y22660D01*
X53258D01*
Y22254D01*
X52852D01*
X53950Y20789D02*
Y21195D01*
X54356D01*
Y20789D01*
X53950D01*
Y22254D02*
Y22660D01*
X54356D01*
Y22254D01*
X53950D01*
X22746Y654D02*
Y1060D01*
X23152D01*
Y654D01*
X22746D01*
X21274Y2864D02*
Y3270D01*
X21681D01*
Y2864D01*
X21274D01*
X19406Y1578D02*
Y1984D01*
X19812D01*
Y1578D01*
X19406D01*
X21320Y654D02*
Y1060D01*
X21727D01*
Y654D01*
X21320D01*
X4762Y3669D02*
Y4076D01*
X5169D01*
Y3669D01*
X4762D01*
X3226Y4276D02*
Y4682D01*
X3632D01*
Y4276D01*
X3226D01*
X3226Y5571D02*
Y5978D01*
X3632D01*
Y5571D01*
X3226D01*
X359Y3669D02*
Y4076D01*
X766D01*
Y3669D01*
X359D01*
Y4633D02*
Y5039D01*
X766D01*
Y4633D01*
X359D01*
X-593Y3669D02*
Y4076D01*
X-187D01*
Y3669D01*
X-593D01*
Y4633D02*
Y5039D01*
X-187D01*
Y4633D01*
X-593D01*
Y5597D02*
Y6003D01*
X-187D01*
Y5597D01*
X-593D01*
X9724Y3209D02*
Y3616D01*
X10131D01*
Y3209D01*
X9724D01*
X8474Y3209D02*
Y3616D01*
X8881D01*
Y3209D01*
X8474D01*
X7224D02*
Y3616D01*
X7631D01*
Y3209D01*
X7224D01*
X5974D02*
Y3616D01*
X6381D01*
Y3209D01*
X5974D01*
X47850Y814D02*
Y1221D01*
X48256D01*
Y814D01*
X47850D01*
X48426Y300D02*
Y706D01*
X48832D01*
Y300D01*
X48426D01*
X25513Y1445D02*
Y1851D01*
X25919D01*
Y1445D01*
X25513D01*
Y3023D02*
Y3429D01*
X25919D01*
Y3023D01*
X25513D01*
X29633Y1194D02*
Y1600D01*
X30039D01*
Y1194D01*
X29633D01*
X27702Y960D02*
Y1366D01*
X28109D01*
Y960D01*
X27702D01*
X27995Y1578D02*
Y1984D01*
X28401D01*
Y1578D01*
X27995D01*
X33419Y960D02*
Y1366D01*
X33826D01*
Y960D01*
X33419D01*
X33626Y1578D02*
Y1984D01*
X34032D01*
Y1578D01*
X33626D01*
X24433Y3209D02*
Y3616D01*
X24839D01*
Y3209D01*
X24433D01*
X40760Y1899D02*
Y2305D01*
X41166D01*
Y1899D01*
X40760D01*
X42058Y2559D02*
Y2966D01*
X42465D01*
Y2559D01*
X42058D01*
X45421Y1899D02*
Y2305D01*
X45827D01*
Y1899D01*
X45421D01*
X44882D02*
Y2305D01*
X45288D01*
Y1899D01*
X44882D01*
X46608Y1355D02*
Y1761D01*
X47015D01*
Y1355D01*
X46608D01*
X38808Y14259D02*
Y14666D01*
X39215D01*
Y14259D01*
X38808D01*
X38158D02*
Y14666D01*
X38565D01*
Y14259D01*
X38158D01*
X43541Y18923D02*
Y19329D01*
X43947D01*
Y18923D01*
X43541D01*
X40557Y17214D02*
Y17621D01*
X40963D01*
Y17214D01*
X40557D01*
X39757D02*
Y17621D01*
X40163D01*
Y17214D01*
X39757D01*
X38957D02*
Y17621D01*
X39363D01*
Y17214D01*
X38957D01*
X38157D02*
Y17621D01*
X38563D01*
Y17214D01*
X38157D01*
X37357D02*
Y17621D01*
X37763D01*
Y17214D01*
X37357D01*
X36557D02*
Y17621D01*
X36963D01*
Y17214D01*
X36557D01*
X41357Y22814D02*
Y23221D01*
X41763D01*
Y22814D01*
X41357D01*
X37207Y22814D02*
Y23221D01*
X37613D01*
Y22814D01*
X37207D01*
X38807D02*
Y23221D01*
X39213D01*
Y22814D01*
X38807D01*
X40407D02*
Y23221D01*
X40813D01*
Y22814D01*
X40407D01*
X43607D02*
Y23221D01*
X44013D01*
Y22814D01*
X43607D01*
X45207D02*
Y23221D01*
X45613D01*
Y22814D01*
X45207D01*
X46807Y22814D02*
Y23221D01*
X47213D01*
Y22814D01*
X46807D01*
X48407Y22814D02*
Y23221D01*
X48813D01*
Y22814D01*
X48407D01*
X44407Y22014D02*
Y22421D01*
X44813D01*
Y22014D01*
X44407D01*
X45136Y18923D02*
Y19329D01*
X45542D01*
Y18923D01*
X45136D01*
X38157Y16414D02*
Y16821D01*
X38563D01*
Y16414D01*
X38157D01*
X37357D02*
Y16821D01*
X37763D01*
Y16414D01*
X37357D01*
X36557D02*
Y16821D01*
X36963D01*
Y16414D01*
X36557D01*
X41357D02*
Y16821D01*
X41763D01*
Y16414D01*
X41357D01*
X39757Y14702D02*
Y15108D01*
X40163D01*
Y14702D01*
X39757D01*
X40758Y14259D02*
Y14666D01*
X41165D01*
Y14259D01*
X40758D01*
X39458D02*
Y14666D01*
X39865D01*
Y14259D01*
X39458D01*
X41408Y14702D02*
Y15108D01*
X41815D01*
Y14702D01*
X41408D01*
X41733Y14297D02*
Y14703D01*
X42140D01*
Y14297D01*
X41733D01*
X42708Y14259D02*
Y14666D01*
X43115D01*
Y14259D01*
X42708D01*
X46807Y18014D02*
Y18421D01*
X47213D01*
Y18014D01*
X46807D01*
X48407Y16414D02*
Y16821D01*
X48813D01*
Y16414D01*
X48407D01*
X47607D02*
Y16821D01*
X48013D01*
Y16414D01*
X47607D01*
X46807D02*
Y16821D01*
X47213D01*
Y16414D01*
X46807D01*
X46007Y16414D02*
Y16821D01*
X46413D01*
Y16414D01*
X46007D01*
X45207Y16414D02*
Y16821D01*
X45613D01*
Y16414D01*
X45207D01*
X44407D02*
Y16821D01*
X44813D01*
Y16414D01*
X44407D01*
X48557Y18664D02*
Y19071D01*
X48963D01*
Y18664D01*
X48557D01*
X42957D02*
Y19071D01*
X43363D01*
Y18664D01*
X42957D01*
X40557D02*
Y19071D01*
X40963D01*
Y18664D01*
X40557D01*
X39757D02*
Y19071D01*
X40163D01*
Y18664D01*
X39757D01*
X38957D02*
Y19071D01*
X39363D01*
Y18664D01*
X38957D01*
X38157D02*
Y19071D01*
X38563D01*
Y18664D01*
X38157D01*
X37357D02*
Y19071D01*
X37763D01*
Y18664D01*
X37357D01*
X36557D02*
Y19071D01*
X36963D01*
Y18664D01*
X36557D01*
X31233Y7677D02*
Y8083D01*
X31639D01*
Y7677D01*
X31233D01*
X38808Y9059D02*
Y9466D01*
X39215D01*
Y9059D01*
X38808D01*
X36208Y3859D02*
Y4266D01*
X36615D01*
Y3859D01*
X36208D01*
Y5159D02*
Y5566D01*
X36615D01*
Y5159D01*
X36208D01*
Y5809D02*
Y6216D01*
X36615D01*
Y5809D01*
X36208D01*
Y6459D02*
Y6866D01*
X36615D01*
Y6459D01*
X36208D01*
X32833Y10077D02*
Y10483D01*
X33239D01*
Y10077D01*
X32833D01*
X32033Y10877D02*
Y11283D01*
X32439D01*
Y10877D01*
X32033D01*
X32833Y11677D02*
Y12083D01*
X33239D01*
Y11677D01*
X32833D01*
X28033Y5277D02*
Y5683D01*
X28439D01*
Y5277D01*
X28033D01*
X28833Y6077D02*
Y6483D01*
X29239D01*
Y6077D01*
X28833D01*
Y6877D02*
Y7283D01*
X29239D01*
Y6877D01*
X28833D01*
X28033D02*
Y7283D01*
X28439D01*
Y6877D01*
X28033D01*
Y7677D02*
Y8083D01*
X28439D01*
Y7677D01*
X28033D01*
X28833Y7677D02*
Y8083D01*
X29239D01*
Y7677D01*
X28833D01*
X28833Y10077D02*
Y10483D01*
X29239D01*
Y10077D01*
X28833D01*
Y10877D02*
Y11283D01*
X29239D01*
Y10877D01*
X28833D01*
Y11677D02*
Y12083D01*
X29239D01*
Y11677D01*
X28833D01*
X28833Y12477D02*
Y12883D01*
X29239D01*
Y12477D01*
X28833D01*
X32833D02*
Y12883D01*
X33239D01*
Y12477D01*
X32833D01*
X32033Y13277D02*
Y13683D01*
X32439D01*
Y13277D01*
X32033D01*
X36208Y9059D02*
Y9466D01*
X36615D01*
Y9059D01*
X36208D01*
X32033Y12477D02*
Y12883D01*
X32439D01*
Y12477D01*
X32033D01*
X39458Y9059D02*
Y9466D01*
X39865D01*
Y9059D01*
X39458D01*
X32033Y11677D02*
Y12083D01*
X32439D01*
Y11677D01*
X32033D01*
X39458Y7109D02*
Y7516D01*
X39865D01*
Y7109D01*
X39458D01*
X32033Y10077D02*
Y10483D01*
X32439D01*
Y10077D01*
X32033D01*
X32833Y13277D02*
Y13683D01*
X33239D01*
Y13277D01*
X32833D01*
X32033Y8477D02*
Y8883D01*
X32439D01*
Y8477D01*
X32033D01*
X32833D02*
Y8883D01*
X33239D01*
Y8477D01*
X32833D01*
Y7677D02*
Y8083D01*
X33239D01*
Y7677D01*
X32833D01*
X37508Y9709D02*
Y10116D01*
X37915D01*
Y9709D01*
X37508D01*
X38158D02*
Y10116D01*
X38565D01*
Y9709D01*
X38158D01*
X36208Y12959D02*
Y13366D01*
X36615D01*
Y12959D01*
X36208D01*
Y12309D02*
Y12716D01*
X36615D01*
Y12309D01*
X36208D01*
Y11659D02*
Y12066D01*
X36615D01*
Y11659D01*
X36208D01*
X36858Y12309D02*
Y12716D01*
X37265D01*
Y12309D01*
X36858D01*
X37508Y12959D02*
Y13366D01*
X37915D01*
Y12959D01*
X37508D01*
X36208Y11009D02*
Y11416D01*
X36615D01*
Y11009D01*
X36208D01*
Y10359D02*
Y10766D01*
X36615D01*
Y10359D01*
X36208D01*
X36858Y11659D02*
Y12066D01*
X37265D01*
Y11659D01*
X36858D01*
X38158Y12959D02*
Y13366D01*
X38565D01*
Y12959D01*
X38158D01*
X37508Y12309D02*
Y12716D01*
X37915D01*
Y12309D01*
X37508D01*
X36208Y7759D02*
Y8166D01*
X36615D01*
Y7759D01*
X36208D01*
X36858Y11009D02*
Y11416D01*
X37265D01*
Y11009D01*
X36858D01*
X38808Y12959D02*
Y13366D01*
X39215D01*
Y12959D01*
X38808D01*
X37508Y11659D02*
Y12066D01*
X37915D01*
Y11659D01*
X37508D01*
X36858Y10359D02*
Y10766D01*
X37265D01*
Y10359D01*
X36858D01*
X38158Y12309D02*
Y12716D01*
X38565D01*
Y12309D01*
X38158D01*
X36858Y7109D02*
Y7516D01*
X37265D01*
Y7109D01*
X36858D01*
Y9059D02*
Y9466D01*
X37265D01*
Y9059D01*
X36858D01*
Y7759D02*
Y8166D01*
X37265D01*
Y7759D01*
X36858D01*
X37508Y11009D02*
Y11416D01*
X37915D01*
Y11009D01*
X37508D01*
X38808Y12309D02*
Y12716D01*
X39215D01*
Y12309D01*
X38808D01*
X38158Y11659D02*
Y12066D01*
X38565D01*
Y11659D01*
X38158D01*
X37508Y10359D02*
Y10766D01*
X37915D01*
Y10359D01*
X37508D01*
Y7109D02*
Y7516D01*
X37915D01*
Y7109D01*
X37508D01*
X39458Y12309D02*
Y12716D01*
X39865D01*
Y12309D01*
X39458D01*
X38158Y11009D02*
Y11416D01*
X38565D01*
Y11009D01*
X38158D01*
X37508Y9059D02*
Y9466D01*
X37915D01*
Y9059D01*
X37508D01*
Y7759D02*
Y8166D01*
X37915D01*
Y7759D01*
X37508D01*
X38808Y11659D02*
Y12066D01*
X39215D01*
Y11659D01*
X38808D01*
X38158Y10359D02*
Y10766D01*
X38565D01*
Y10359D01*
X38158D01*
X39458Y11659D02*
Y12066D01*
X39865D01*
Y11659D01*
X39458D01*
X38808Y11009D02*
Y11416D01*
X39215D01*
Y11009D01*
X38808D01*
X38158Y7109D02*
Y7516D01*
X38565D01*
Y7109D01*
X38158D01*
Y9059D02*
Y9466D01*
X38565D01*
Y9059D01*
X38158D01*
Y7759D02*
Y8166D01*
X38565D01*
Y7759D01*
X38158D01*
X38808Y10359D02*
Y10766D01*
X39215D01*
Y10359D01*
X38808D01*
X39458Y11009D02*
Y11416D01*
X39865D01*
Y11009D01*
X39458D01*
X38808Y9709D02*
Y10116D01*
X39215D01*
Y9709D01*
X38808D01*
Y7109D02*
Y7516D01*
X39215D01*
Y7109D01*
X38808D01*
Y7759D02*
Y8166D01*
X39215D01*
Y7759D01*
X38808D01*
X39458Y10359D02*
Y10766D01*
X39865D01*
Y10359D01*
X39458D01*
Y9709D02*
Y10116D01*
X39865D01*
Y9709D01*
X39458D01*
Y7759D02*
Y8166D01*
X39865D01*
Y7759D01*
X39458D01*
X37508Y2559D02*
Y2966D01*
X37915D01*
Y2559D01*
X37508D01*
X55980Y4175D02*
Y4581D01*
X56386D01*
Y4175D01*
X55980D01*
X56031Y3641D02*
Y4048D01*
X56437D01*
Y3641D01*
X56031D01*
X39282Y1435D02*
Y1841D01*
X39688D01*
Y1435D01*
X39282D01*
X48044Y1828D02*
Y2234D01*
X48450D01*
Y1828D01*
X48044D01*
X50922Y775D02*
Y1181D01*
X51328D01*
Y775D01*
X50922D01*
X49819Y1816D02*
Y2222D01*
X50225D01*
Y1816D01*
X49819D01*
X54557Y300D02*
Y706D01*
X54964D01*
Y300D01*
X54557D01*
X52770Y1800D02*
Y2206D01*
X53177D01*
Y1800D01*
X52770D01*
X51667Y1341D02*
Y1747D01*
X52074D01*
Y1341D01*
X51667D01*
X49819Y316D02*
Y722D01*
X50225D01*
Y316D01*
X49819D01*
X52770Y300D02*
Y706D01*
X53177D01*
Y300D01*
X52770D01*
X47258Y3859D02*
Y4266D01*
X47665D01*
Y3859D01*
X47258D01*
X47908D02*
Y4266D01*
X48315D01*
Y3859D01*
X47908D01*
X47258Y4509D02*
Y4916D01*
X47665D01*
Y4509D01*
X47258D01*
X47908D02*
Y4916D01*
X48315D01*
Y4509D01*
X47908D01*
X47258Y5159D02*
Y5566D01*
X47665D01*
Y5159D01*
X47258D01*
X47908D02*
Y5566D01*
X48315D01*
Y5159D01*
X47908D01*
X47258Y5809D02*
Y6216D01*
X47665D01*
Y5809D01*
X47258D01*
X52830Y10069D02*
Y10476D01*
X53236D01*
Y10069D01*
X52830D01*
X47908Y6459D02*
Y6866D01*
X48315D01*
Y6459D01*
X47908D01*
Y5809D02*
Y6216D01*
X48315D01*
Y5809D01*
X47908D01*
X53806Y14899D02*
Y15305D01*
X54212D01*
Y14899D01*
X53806D01*
X45308Y12309D02*
Y12716D01*
X45715D01*
Y12309D01*
X45308D01*
X53273Y14899D02*
Y15305D01*
X53679D01*
Y14899D01*
X53273D01*
X53320Y15430D02*
Y15836D01*
X53726D01*
Y15430D01*
X53320D01*
X45958Y12959D02*
Y13366D01*
X46365D01*
Y12959D01*
X45958D01*
X52928Y15791D02*
Y16198D01*
X53334D01*
Y15791D01*
X52928D01*
X45308Y12959D02*
Y13366D01*
X45715D01*
Y12959D01*
X45308D01*
X53449Y17512D02*
Y17918D01*
X53856D01*
Y17512D01*
X53449D01*
X52916D02*
Y17918D01*
X53322D01*
Y17512D01*
X52916D01*
X44658Y14259D02*
Y14666D01*
X45065D01*
Y14259D01*
X44658D01*
X44008D02*
Y14666D01*
X44415D01*
Y14259D01*
X44008D01*
X52222Y17512D02*
Y17918D01*
X52629D01*
Y17512D01*
X52222D01*
X51010Y13395D02*
Y13801D01*
X51416D01*
Y13395D01*
X51010D01*
X53797Y11010D02*
Y11416D01*
X54204D01*
Y11010D01*
X53797D01*
Y12792D02*
Y13198D01*
X54204D01*
Y12792D01*
X53797D01*
Y12192D02*
Y12598D01*
X54204D01*
Y12192D01*
X53797D01*
X52313Y9799D02*
Y10205D01*
X52720D01*
Y9799D01*
X52313D01*
Y9199D02*
Y9605D01*
X52720D01*
Y9199D01*
X52313D01*
X55338Y9499D02*
Y9905D01*
X55744D01*
Y9499D01*
X55338D01*
Y10099D02*
Y10505D01*
X55744D01*
Y10099D01*
X55338D01*
Y10699D02*
Y11105D01*
X55744D01*
Y10699D01*
X55338D01*
Y11299D02*
Y11705D01*
X55744D01*
Y11299D01*
X55338D01*
Y11899D02*
Y12305D01*
X55744D01*
Y11899D01*
X55338D01*
Y12499D02*
Y12905D01*
X55744D01*
Y12499D01*
X55338D01*
Y13099D02*
Y13505D01*
X55744D01*
Y13099D01*
X55338D01*
Y13699D02*
Y14105D01*
X55744D01*
Y13699D01*
X55338D01*
Y14899D02*
Y15305D01*
X55744D01*
Y14899D01*
X55338D01*
Y16699D02*
Y17105D01*
X55744D01*
Y16699D01*
X55338D01*
Y18499D02*
Y18905D01*
X55744D01*
Y18499D01*
X55338D01*
X52395Y15824D02*
Y16230D01*
X52802D01*
Y15824D01*
X52395D01*
X47258Y11009D02*
Y11416D01*
X47665D01*
Y11009D01*
X47258D01*
X48058Y12030D02*
Y12436D01*
X48465D01*
Y12030D01*
X48058D01*
X47908Y13609D02*
Y14016D01*
X48315D01*
Y13609D01*
X47908D01*
X47252Y13609D02*
Y14016D01*
X47659D01*
Y13609D01*
X47252D01*
X47258Y12959D02*
Y13366D01*
X47665D01*
Y12959D01*
X47258D01*
X45308Y11659D02*
Y12066D01*
X45715D01*
Y11659D01*
X45308D01*
X45310Y14259D02*
Y14666D01*
X45716D01*
Y14259D01*
X45310D01*
X31233Y8477D02*
Y8883D01*
X31639D01*
Y8477D01*
X31233D01*
X32833Y6077D02*
Y6483D01*
X33239D01*
Y6077D01*
X32833D01*
X26433Y12477D02*
Y12883D01*
X26839D01*
Y12477D01*
X26433D01*
X29633Y13277D02*
Y13683D01*
X30039D01*
Y13277D01*
X29633D01*
Y10877D02*
Y11283D01*
X30039D01*
Y10877D01*
X29633D01*
X27233Y12477D02*
Y12883D01*
X27639D01*
Y12477D01*
X27233D01*
X30433Y13277D02*
Y13683D01*
X30839D01*
Y13277D01*
X30433D01*
X31233D02*
Y13683D01*
X31639D01*
Y13277D01*
X31233D01*
X27233Y11677D02*
Y12083D01*
X27639D01*
Y11677D01*
X27233D01*
X24833Y6077D02*
Y6483D01*
X25239D01*
Y6077D01*
X24833D01*
Y12477D02*
Y12883D01*
X25239D01*
Y12477D01*
X24833D01*
X26433Y10877D02*
Y11283D01*
X26839D01*
Y10877D01*
X26433D01*
X25633Y11677D02*
Y12083D01*
X26039D01*
Y11677D01*
X25633D01*
X30433D02*
Y12083D01*
X30839D01*
Y11677D01*
X30433D01*
Y10877D02*
Y11283D01*
X30839D01*
Y10877D01*
X30433D01*
X31233D02*
Y11283D01*
X31639D01*
Y10877D01*
X31233D01*
X29633Y6077D02*
Y6483D01*
X30039D01*
Y6077D01*
X29633D01*
X28033Y4477D02*
Y4883D01*
X28439D01*
Y4477D01*
X28033D01*
X24833Y6877D02*
Y7283D01*
X25239D01*
Y6877D01*
X24833D01*
X31233Y12477D02*
Y12883D01*
X31639D01*
Y12477D01*
X31233D01*
X25633Y13277D02*
Y13683D01*
X26039D01*
Y13277D01*
X25633D01*
Y10077D02*
Y10483D01*
X26039D01*
Y10077D01*
X25633D01*
X30433D02*
Y10483D01*
X30839D01*
Y10077D01*
X30433D01*
X29633Y11677D02*
Y12083D01*
X30039D01*
Y11677D01*
X29633D01*
Y12477D02*
Y12883D01*
X30039D01*
Y12477D01*
X29633D01*
X24033Y4477D02*
Y4883D01*
X24439D01*
Y4477D01*
X24033D01*
X30433Y12477D02*
Y12883D01*
X30839D01*
Y12477D01*
X30433D01*
X25633Y5277D02*
Y5683D01*
X26039D01*
Y5277D01*
X25633D01*
X26433Y6877D02*
Y7283D01*
X26839D01*
Y6877D01*
X26433D01*
X31233Y11677D02*
Y12083D01*
X31639D01*
Y11677D01*
X31233D01*
Y5277D02*
Y5683D01*
X31639D01*
Y5277D01*
X31233D01*
X30433D02*
Y5683D01*
X30839D01*
Y5277D01*
X30433D01*
X32033Y6077D02*
Y6483D01*
X32439D01*
Y6077D01*
X32033D01*
X26433Y11677D02*
Y12083D01*
X26839D01*
Y11677D01*
X26433D01*
X24833Y4477D02*
Y4883D01*
X25239D01*
Y4477D01*
X24833D01*
Y10877D02*
Y11283D01*
X25239D01*
Y10877D01*
X24833D01*
X29633Y4477D02*
Y4883D01*
X30039D01*
Y4477D01*
X29633D01*
X24833Y11677D02*
Y12083D01*
X25239D01*
Y11677D01*
X24833D01*
Y7677D02*
Y8083D01*
X25239D01*
Y7677D01*
X24833D01*
X32033Y6877D02*
Y7283D01*
X32439D01*
Y6877D01*
X32033D01*
X29633Y8477D02*
Y8883D01*
X30039D01*
Y8477D01*
X29633D01*
X30433Y6077D02*
Y6483D01*
X30839D01*
Y6077D01*
X30433D01*
X32033Y4477D02*
Y4883D01*
X32439D01*
Y4477D01*
X32033D01*
X30433D02*
Y4883D01*
X30839D01*
Y4477D01*
X30433D01*
X24033Y10077D02*
Y10483D01*
X24439D01*
Y10077D01*
X24033D01*
X25633Y10877D02*
Y11283D01*
X26039D01*
Y10877D01*
X25633D01*
X24033D02*
Y11283D01*
X24439D01*
Y10877D01*
X24033D01*
X27233Y6077D02*
Y6483D01*
X27639D01*
Y6077D01*
X27233D01*
X31233Y4477D02*
Y4883D01*
X31639D01*
Y4477D01*
X31233D01*
Y10077D02*
Y10483D01*
X31639D01*
Y10077D01*
X31233D01*
X29633D02*
Y10483D01*
X30039D01*
Y10077D01*
X29633D01*
X24833D02*
Y10483D01*
X25239D01*
Y10077D01*
X24833D01*
X30433Y7677D02*
Y8083D01*
X30839D01*
Y7677D01*
X30433D01*
X26433D02*
Y8083D01*
X26839D01*
Y7677D01*
X26433D01*
X27233Y8477D02*
Y8883D01*
X27639D01*
Y8477D01*
X27233D01*
X25633D02*
Y8883D01*
X26039D01*
Y8477D01*
X25633D01*
X24833D02*
Y8883D01*
X25239D01*
Y8477D01*
X24833D01*
X29633Y5277D02*
Y5683D01*
X30039D01*
Y5277D01*
X29633D01*
X25633Y7677D02*
Y8083D01*
X26039D01*
Y7677D01*
X25633D01*
Y4477D02*
Y4883D01*
X26039D01*
Y4477D01*
X25633D01*
X31233Y6877D02*
Y7283D01*
X31639D01*
Y6877D01*
X31233D01*
X32833Y5277D02*
Y5683D01*
X33239D01*
Y5277D01*
X32833D01*
X25633Y6077D02*
Y6483D01*
X26039D01*
Y6077D01*
X25633D01*
X30433Y6877D02*
Y7283D01*
X30839D01*
Y6877D01*
X30433D01*
X31233Y6077D02*
Y6483D01*
X31639D01*
Y6077D01*
X31233D01*
X27233Y5277D02*
Y5683D01*
X27639D01*
Y5277D01*
X27233D01*
X32033D02*
Y5683D01*
X32439D01*
Y5277D01*
X32033D01*
X24833D02*
Y5683D01*
X25239D01*
Y5277D01*
X24833D01*
X28833Y8477D02*
Y8883D01*
X29239D01*
Y8477D01*
X28833D01*
X27254Y10846D02*
Y11252D01*
X27660D01*
Y10846D01*
X27254D01*
X44658Y11009D02*
Y11416D01*
X45065D01*
Y11009D01*
X44658D01*
X41408D02*
Y11416D01*
X41815D01*
Y11009D01*
X41408D01*
X45308Y9059D02*
Y9466D01*
X45715D01*
Y9059D01*
X45308D01*
X44008Y5159D02*
Y5566D01*
X44415D01*
Y5159D01*
X44008D01*
X45958Y3209D02*
Y3616D01*
X46365D01*
Y3209D01*
X45958D01*
X40758Y5159D02*
Y5566D01*
X41165D01*
Y5159D01*
X40758D01*
X47258Y3209D02*
Y3616D01*
X47665D01*
Y3209D01*
X47258D01*
X49207Y17214D02*
Y17621D01*
X49613D01*
Y17214D01*
X49207D01*
X48407D02*
Y17621D01*
X48813D01*
Y17214D01*
X48407D01*
X47607D02*
Y17621D01*
X48013D01*
Y17214D01*
X47607D01*
X46807D02*
Y17621D01*
X47213D01*
Y17214D01*
X46807D01*
X46007D02*
Y17621D01*
X46413D01*
Y17214D01*
X46007D01*
X45207D02*
Y17621D01*
X45613D01*
Y17214D01*
X45207D01*
X49207Y22014D02*
Y22421D01*
X49613D01*
Y22014D01*
X49207D01*
Y22814D02*
Y23221D01*
X49613D01*
Y22814D01*
X49207D01*
X48407Y22014D02*
Y22421D01*
X48813D01*
Y22014D01*
X48407D01*
X47607Y22014D02*
Y22421D01*
X48013D01*
Y22014D01*
X47607D01*
Y22814D02*
Y23221D01*
X48013D01*
Y22814D01*
X47607D01*
X46807Y22014D02*
Y22421D01*
X47213D01*
Y22014D01*
X46807D01*
X46007D02*
Y22421D01*
X46413D01*
Y22014D01*
X46007D01*
X46007Y22814D02*
Y23221D01*
X46413D01*
Y22814D01*
X46007D01*
X45207Y22014D02*
Y22421D01*
X45613D01*
Y22014D01*
X45207D01*
X44407Y22814D02*
Y23221D01*
X44813D01*
Y22814D01*
X44407D01*
X42807Y22014D02*
Y22421D01*
X43213D01*
Y22014D01*
X42807D01*
X43607Y22014D02*
Y22421D01*
X44013D01*
Y22014D01*
X43607D01*
X42007Y22014D02*
Y22421D01*
X42413D01*
Y22014D01*
X42007D01*
X38007Y22814D02*
Y23221D01*
X38413D01*
Y22814D01*
X38007D01*
X39607D02*
Y23221D01*
X40013D01*
Y22814D01*
X39607D01*
X41207Y22014D02*
Y22421D01*
X41613D01*
Y22014D01*
X41207D01*
X40407D02*
Y22421D01*
X40813D01*
Y22014D01*
X40407D01*
X39607D02*
Y22421D01*
X40013D01*
Y22014D01*
X39607D01*
X38807D02*
Y22421D01*
X39213D01*
Y22014D01*
X38807D01*
X38007D02*
Y22421D01*
X38413D01*
Y22014D01*
X38007D01*
X37207D02*
Y22421D01*
X37613D01*
Y22014D01*
X37207D01*
X36882Y21009D02*
Y21415D01*
X37288D01*
Y21009D01*
X36882D01*
X48082D02*
Y21415D01*
X48488D01*
Y21009D01*
X48082D01*
X38482D02*
Y21415D01*
X38888D01*
Y21009D01*
X38482D01*
X46482D02*
Y21415D01*
X46888D01*
Y21009D01*
X46482D01*
X40082D02*
Y21415D01*
X40488D01*
Y21009D01*
X40082D01*
X41682D02*
Y21415D01*
X42088D01*
Y21009D01*
X41682D01*
X43282D02*
Y21415D01*
X43688D01*
Y21009D01*
X43282D01*
X48882Y21009D02*
Y21415D01*
X49288D01*
Y21009D01*
X48882D01*
X47282D02*
Y21415D01*
X47688D01*
Y21009D01*
X47282D01*
X45682D02*
Y21415D01*
X46088D01*
Y21009D01*
X45682D01*
X42482D02*
Y21415D01*
X42888D01*
Y21009D01*
X42482D01*
X40882D02*
Y21415D01*
X41288D01*
Y21009D01*
X40882D01*
X39282D02*
Y21415D01*
X39688D01*
Y21009D01*
X39282D01*
X37682D02*
Y21415D01*
X38088D01*
Y21009D01*
X37682D01*
X36208Y14259D02*
Y14666D01*
X36615D01*
Y14259D01*
X36208D01*
Y2559D02*
Y2966D01*
X36615D01*
Y2559D01*
X36208D01*
X36858Y14259D02*
Y14666D01*
X37265D01*
Y14259D01*
X36858D01*
X36208Y13609D02*
Y14016D01*
X36615D01*
Y13609D01*
X36208D01*
X36858Y2559D02*
Y2966D01*
X37265D01*
Y2559D01*
X36858D01*
X37508Y14259D02*
Y14666D01*
X37915D01*
Y14259D01*
X37508D01*
X36858Y13609D02*
Y14016D01*
X37265D01*
Y13609D01*
X36858D01*
Y3209D02*
Y3616D01*
X37265D01*
Y3209D01*
X36858D01*
X36208Y4509D02*
Y4916D01*
X36615D01*
Y4509D01*
X36208D01*
X38158Y2559D02*
Y2966D01*
X38565D01*
Y2559D01*
X38158D01*
X37508Y13609D02*
Y14016D01*
X37915D01*
Y13609D01*
X37508D01*
X36858Y3859D02*
Y4266D01*
X37265D01*
Y3859D01*
X36858D01*
X46608Y3209D02*
Y3616D01*
X47015D01*
Y3209D01*
X46608D01*
X37508D02*
Y3616D01*
X37915D01*
Y3209D01*
X37508D01*
X38808Y2559D02*
Y2966D01*
X39215D01*
Y2559D01*
X38808D01*
X38158Y13609D02*
Y14016D01*
X38565D01*
Y13609D01*
X38158D01*
X36858Y4509D02*
Y4916D01*
X37265D01*
Y4509D01*
X36858D01*
X38158Y3209D02*
Y3616D01*
X38565D01*
Y3209D01*
X38158D01*
X46608Y3859D02*
Y4266D01*
X47015D01*
Y3859D01*
X46608D01*
X37508D02*
Y4266D01*
X37915D01*
Y3859D01*
X37508D01*
X44658Y2559D02*
Y2966D01*
X45065D01*
Y2559D01*
X44658D01*
X39458D02*
Y2966D01*
X39865D01*
Y2559D01*
X39458D01*
X38808Y13609D02*
Y14016D01*
X39215D01*
Y13609D01*
X38808D01*
X36858Y5159D02*
Y5566D01*
X37265D01*
Y5159D01*
X36858D01*
X38808Y3209D02*
Y3616D01*
X39215D01*
Y3209D01*
X38808D01*
X47908Y7109D02*
Y7516D01*
X48315D01*
Y7109D01*
X47908D01*
Y9059D02*
Y9466D01*
X48315D01*
Y9059D01*
X47908D01*
Y7759D02*
Y8166D01*
X48315D01*
Y7759D01*
X47908D01*
X46608Y4509D02*
Y4916D01*
X47015D01*
Y4509D01*
X46608D01*
X37508D02*
Y4916D01*
X37915D01*
Y4509D01*
X37508D01*
X45958Y3859D02*
Y4266D01*
X46365D01*
Y3859D01*
X45958D01*
X38158D02*
Y4266D01*
X38565D01*
Y3859D01*
X38158D01*
X39458Y13609D02*
Y14016D01*
X39865D01*
Y13609D01*
X39458D01*
X36858Y5809D02*
Y6216D01*
X37265D01*
Y5809D01*
X36858D01*
X44658Y3209D02*
Y3616D01*
X45065D01*
Y3209D01*
X44658D01*
X39458D02*
Y3616D01*
X39865D01*
Y3209D01*
X39458D01*
X47258Y6459D02*
Y6866D01*
X47665D01*
Y6459D01*
X47258D01*
X36858D02*
Y6866D01*
X37265D01*
Y6459D01*
X36858D01*
X46608Y5159D02*
Y5566D01*
X47015D01*
Y5159D01*
X46608D01*
X37508D02*
Y5566D01*
X37915D01*
Y5159D01*
X37508D01*
X38808Y3859D02*
Y4266D01*
X39215D01*
Y3859D01*
X38808D01*
X44008Y3209D02*
Y3616D01*
X44415D01*
Y3209D01*
X44008D01*
X40108D02*
Y3616D01*
X40515D01*
Y3209D01*
X40108D01*
X45958Y4509D02*
Y4916D01*
X46365D01*
Y4509D01*
X45958D01*
X40758Y13609D02*
Y14016D01*
X41165D01*
Y13609D01*
X40758D01*
X47258Y7109D02*
Y7516D01*
X47665D01*
Y7109D01*
X47258D01*
X43358Y3209D02*
Y3616D01*
X43765D01*
Y3209D01*
X43358D01*
X42708Y13609D02*
Y14016D01*
X43115D01*
Y13609D01*
X42708D01*
X41408D02*
Y14016D01*
X41815D01*
Y13609D01*
X41408D01*
X47258Y7759D02*
Y8166D01*
X47665D01*
Y7759D01*
X47258D01*
X46608Y11009D02*
Y11416D01*
X47015D01*
Y11009D01*
X46608D01*
Y5809D02*
Y6216D01*
X47015D01*
Y5809D01*
X46608D01*
X37508D02*
Y6216D01*
X37915D01*
Y5809D01*
X37508D01*
X39458Y3859D02*
Y4266D01*
X39865D01*
Y3859D01*
X39458D01*
X38158Y5159D02*
Y5566D01*
X38565D01*
Y5159D01*
X38158D01*
X45308Y4509D02*
Y4916D01*
X45715D01*
Y4509D01*
X45308D01*
X38808D02*
Y4916D01*
X39215D01*
Y4509D01*
X38808D01*
X46608Y10359D02*
Y10766D01*
X47015D01*
Y10359D01*
X46608D01*
Y6459D02*
Y6866D01*
X47015D01*
Y6459D01*
X46608D01*
X37508D02*
Y6866D01*
X37915D01*
Y6459D01*
X37508D01*
X44008Y3859D02*
Y4266D01*
X44415D01*
Y3859D01*
X44008D01*
X43358Y12959D02*
Y13366D01*
X43765D01*
Y12959D01*
X43358D01*
X40758D02*
Y13366D01*
X41165D01*
Y12959D01*
X40758D01*
X46608Y9709D02*
Y10116D01*
X47015D01*
Y9709D01*
X46608D01*
Y7109D02*
Y7516D01*
X47015D01*
Y7109D01*
X46608D01*
X42708Y12959D02*
Y13366D01*
X43115D01*
Y12959D01*
X42708D01*
X41408D02*
Y13366D01*
X41815D01*
Y12959D01*
X41408D01*
X44658Y12309D02*
Y12716D01*
X45065D01*
Y12309D01*
X44658D01*
X46608Y9059D02*
Y9466D01*
X47015D01*
Y9059D01*
X46608D01*
Y7759D02*
Y8166D01*
X47015D01*
Y7759D01*
X46608D01*
X38158Y5809D02*
Y6216D01*
X38565D01*
Y5809D01*
X38158D01*
X45958Y5809D02*
Y6216D01*
X46365D01*
Y5809D01*
X45958D01*
X44658Y4509D02*
Y4916D01*
X45065D01*
Y4509D01*
X44658D01*
X39458D02*
Y4916D01*
X39865D01*
Y4509D01*
X39458D01*
X42708Y3859D02*
Y4266D01*
X43115D01*
Y3859D01*
X42708D01*
X38808Y5159D02*
Y5566D01*
X39215D01*
Y5159D01*
X38808D01*
X44008Y12309D02*
Y12716D01*
X44415D01*
Y12309D01*
X44008D01*
X40108D02*
Y12716D01*
X40515D01*
Y12309D01*
X40108D01*
X45958Y10359D02*
Y10766D01*
X46365D01*
Y10359D01*
X45958D01*
Y6459D02*
Y6866D01*
X46365D01*
Y6459D01*
X45958D01*
X38158D02*
Y6866D01*
X38565D01*
Y6459D01*
X38158D01*
X43358Y12309D02*
Y12716D01*
X43765D01*
Y12309D01*
X43358D01*
X40758D02*
Y12716D01*
X41165D01*
Y12309D01*
X40758D01*
X45958Y7109D02*
Y7516D01*
X46365D01*
Y7109D01*
X45958D01*
X45308Y5809D02*
Y6216D01*
X45715D01*
Y5809D01*
X45308D01*
X38808D02*
Y6216D01*
X39215D01*
Y5809D01*
X38808D01*
X39458Y5159D02*
Y5566D01*
X39865D01*
Y5159D01*
X39458D01*
X42708Y12309D02*
Y12716D01*
X43115D01*
Y12309D01*
X42708D01*
X45958Y7759D02*
Y8166D01*
X46365D01*
Y7759D01*
X45958D01*
X42708Y4509D02*
Y4916D01*
X43115D01*
Y4509D01*
X42708D01*
X40108Y11659D02*
Y12066D01*
X40515D01*
Y11659D01*
X40108D01*
X45308Y6459D02*
Y6866D01*
X45715D01*
Y6459D01*
X45308D01*
X38808D02*
Y6866D01*
X39215D01*
Y6459D01*
X38808D01*
X40108Y5159D02*
Y5566D01*
X40515D01*
Y5159D01*
X40108D01*
X44658Y5809D02*
Y6216D01*
X45065D01*
Y5809D01*
X44658D01*
X39458D02*
Y6216D01*
X39865D01*
Y5809D01*
X39458D01*
X43358Y11659D02*
Y12066D01*
X43765D01*
Y11659D01*
X43358D01*
X42708D02*
Y12066D01*
X43115D01*
Y11659D01*
X42708D01*
X45308Y7759D02*
Y8166D01*
X45715D01*
Y7759D01*
X45308D01*
X42708Y5159D02*
Y5566D01*
X43115D01*
Y5159D01*
X42708D01*
X41408D02*
Y5566D01*
X41815D01*
Y5159D01*
X41408D01*
X40108Y11009D02*
Y11416D01*
X40515D01*
Y11009D01*
X40108D01*
X44658Y6459D02*
Y6866D01*
X45065D01*
Y6459D01*
X44658D01*
X39458D02*
Y6866D01*
X39865D01*
Y6459D01*
X39458D01*
X40108Y5809D02*
Y6216D01*
X40515D01*
Y5809D01*
X40108D01*
X40758Y11009D02*
Y11416D01*
X41165D01*
Y11009D01*
X40758D01*
X44658Y9709D02*
Y10116D01*
X45065D01*
Y9709D01*
X44658D01*
X40758Y5809D02*
Y6216D01*
X41165D01*
Y5809D01*
X40758D01*
X44008Y10359D02*
Y10766D01*
X44415D01*
Y10359D01*
X44008D01*
X40108D02*
Y10766D01*
X40515D01*
Y10359D01*
X40108D01*
X42708Y11009D02*
Y11416D01*
X43115D01*
Y11009D01*
X42708D01*
X44658Y9059D02*
Y9466D01*
X45065D01*
Y9059D01*
X44658D01*
X44008Y6459D02*
Y6866D01*
X44415D01*
Y6459D01*
X44008D01*
X40108D02*
Y6866D01*
X40515D01*
Y6459D01*
X40108D01*
X42708Y5809D02*
Y6216D01*
X43115D01*
Y5809D01*
X42708D01*
X41408D02*
Y6216D01*
X41815D01*
Y5809D01*
X41408D01*
X43358Y10359D02*
Y10766D01*
X43765D01*
Y10359D01*
X43358D01*
X40758D02*
Y10766D01*
X41165D01*
Y10359D01*
X40758D01*
X44008Y9709D02*
Y10116D01*
X44415D01*
Y9709D01*
X44008D01*
X40108D02*
Y10116D01*
X40515D01*
Y9709D01*
X40108D01*
X44008Y7109D02*
Y7516D01*
X44415D01*
Y7109D01*
X44008D01*
X40108D02*
Y7516D01*
X40515D01*
Y7109D01*
X40108D01*
X43358Y6459D02*
Y6866D01*
X43765D01*
Y6459D01*
X43358D01*
X40758D02*
Y6866D01*
X41165D01*
Y6459D01*
X40758D01*
X42708Y10359D02*
Y10766D01*
X43115D01*
Y10359D01*
X42708D01*
X41408D02*
Y10766D01*
X41815D01*
Y10359D01*
X41408D01*
X44008Y9059D02*
Y9466D01*
X44415D01*
Y9059D01*
X44008D01*
X40108D02*
Y9466D01*
X40515D01*
Y9059D01*
X40108D01*
X44008Y7759D02*
Y8166D01*
X44415D01*
Y7759D01*
X44008D01*
X40108D02*
Y8166D01*
X40515D01*
Y7759D01*
X40108D01*
X42708Y6459D02*
Y6866D01*
X43115D01*
Y6459D01*
X42708D01*
X41408D02*
Y6866D01*
X41815D01*
Y6459D01*
X41408D01*
X43358Y9709D02*
Y10116D01*
X43765D01*
Y9709D01*
X43358D01*
X40758D02*
Y10116D01*
X41165D01*
Y9709D01*
X40758D01*
X43358Y7109D02*
Y7516D01*
X43765D01*
Y7109D01*
X43358D01*
X40758D02*
Y7516D01*
X41165D01*
Y7109D01*
X40758D01*
X42708Y9709D02*
Y10116D01*
X43115D01*
Y9709D01*
X42708D01*
X41408D02*
Y10116D01*
X41815D01*
Y9709D01*
X41408D01*
X43358Y9059D02*
Y9466D01*
X43765D01*
Y9059D01*
X43358D01*
X40758D02*
Y9466D01*
X41165D01*
Y9059D01*
X40758D01*
X43358Y7759D02*
Y8166D01*
X43765D01*
Y7759D01*
X43358D01*
X42708Y7109D02*
Y7516D01*
X43115D01*
Y7109D01*
X42708D01*
X41408D02*
Y7516D01*
X41815D01*
Y7109D01*
X41408D01*
X42708Y9059D02*
Y9466D01*
X43115D01*
Y9059D01*
X42708D01*
X41408D02*
Y9466D01*
X41815D01*
Y9059D01*
X41408D01*
X42708Y7759D02*
Y8166D01*
X43115D01*
Y7759D01*
X42708D01*
X41408D02*
Y8166D01*
X41815D01*
Y7759D01*
X41408D01*
D191*
X4759Y17020D02*
G03*
X4759Y17020I-203J0D01*
G01*
Y8980D02*
G03*
X4759Y8980I-203J0D01*
G01*
X18253Y1232D02*
G03*
X18253Y1232I-203J0D01*
G01*
X17003D02*
G03*
X17003Y1232I-203J0D01*
G01*
X15753D02*
G03*
X15753Y1232I-203J0D01*
G01*
X14503D02*
G03*
X14503Y1232I-203J0D01*
G01*
X6359Y1238D02*
G03*
X6359Y1238I-203J0D01*
G01*
X7609D02*
G03*
X7609Y1238I-203J0D01*
G01*
X8859D02*
G03*
X8859Y1238I-203J0D01*
G01*
X10109D02*
G03*
X10109Y1238I-203J0D01*
G01*
X11359D02*
G03*
X11359Y1238I-203J0D01*
G01*
X11426Y24714D02*
G03*
X11426Y24714I-203J0D01*
G01*
X10176D02*
G03*
X10176Y24714I-203J0D01*
G01*
X8926D02*
G03*
X8926Y24714I-203J0D01*
G01*
X7676D02*
G03*
X7676Y24714I-203J0D01*
G01*
X6426D02*
G03*
X6426Y24714I-203J0D01*
G01*
D192*
X18152Y1232D02*
G03*
X18152Y1232I-102J0D01*
G01*
X16902D02*
G03*
X16902Y1232I-102J0D01*
G01*
X15652D02*
G03*
X15652Y1232I-102J0D01*
G01*
X14402D02*
G03*
X14402Y1232I-102J0D01*
G01*
X6258Y1238D02*
G03*
X6258Y1238I-102J0D01*
G01*
X7508D02*
G03*
X7508Y1238I-102J0D01*
G01*
X8758D02*
G03*
X8758Y1238I-102J0D01*
G01*
X10008D02*
G03*
X10008Y1238I-102J0D01*
G01*
X11258D02*
G03*
X11258Y1238I-102J0D01*
G01*
X11325Y24714D02*
G03*
X11325Y24714I-102J0D01*
G01*
X10075D02*
G03*
X10075Y24714I-102J0D01*
G01*
X8825D02*
G03*
X8825Y24714I-102J0D01*
G01*
X7575D02*
G03*
X7575Y24714I-102J0D01*
G01*
X6325D02*
G03*
X6325Y24714I-102J0D01*
G01*
M02*
