G04*
G04 #@! TF.GenerationSoftware,Altium Limited,Altium Designer,21.3.2 (30)*
G04*
G04 Layer_Color=65535*
%FSLAX43Y43*%
%MOMM*%
G71*
G04*
G04 #@! TF.SameCoordinates,AF92D2DE-8466-4D58-AFAE-29A769C4C8C3*
G04*
G04*
G04 #@! TF.FilePolarity,Positive*
G04*
G01*
G75*
%ADD10C,0.076*%
%ADD11C,0.070*%
%ADD12C,0.070*%
%ADD13C,0.152*%
%ADD14C,0.100*%
%ADD15C,0.250*%
%ADD16C,0.254*%
%ADD17C,0.200*%
%ADD18C,0.127*%
%ADD19C,0.051*%
%ADD20C,0.076*%
%ADD21C,0.070*%
%ADD22C,0.203*%
%ADD23C,0.050*%
%ADD24C,0.305*%
G36*
X50085Y24142D02*
X49085Y25142D01*
X50085D01*
Y24142D01*
D02*
G37*
G36*
X49627Y2609D02*
X49632Y2609D01*
X49632D01*
X49634Y2608D01*
X49637Y2607D01*
X49639Y2606D01*
Y2605D01*
X49640Y2604D01*
X49641Y2602D01*
X49640Y2599D01*
Y2599D01*
X49639Y2597D01*
X49639Y2594D01*
X49637Y2589D01*
X49460Y2225D01*
Y2224D01*
X49458Y2223D01*
X49455Y2218D01*
X49454D01*
X49453Y2217D01*
X49451Y2216D01*
X49447Y2215D01*
X49447D01*
X49444Y2214D01*
X49441D01*
X49436Y2213D01*
X49432D01*
X49427Y2213D01*
X49410D01*
X49405Y2213D01*
X49404D01*
X49402Y2214D01*
X49399D01*
X49395Y2215D01*
X49394D01*
X49393Y2215D01*
X49390Y2218D01*
Y2219D01*
X49389Y2220D01*
X49388Y2222D01*
X49387Y2224D01*
X49364Y2523D01*
X49228Y2225D01*
Y2224D01*
X49228Y2223D01*
X49224Y2218D01*
X49224D01*
X49222Y2217D01*
X49220Y2216D01*
X49217Y2215D01*
X49216D01*
X49214Y2214D01*
X49212D01*
X49207Y2213D01*
X49202D01*
X49197Y2213D01*
X49179D01*
X49174Y2213D01*
X49173D01*
X49170Y2214D01*
X49167D01*
X49163Y2215D01*
X49162D01*
X49161Y2215D01*
X49157Y2218D01*
Y2219D01*
X49157Y2220D01*
X49156Y2222D01*
Y2226D01*
X49124Y2590D01*
Y2592D01*
Y2594D01*
X49124Y2597D01*
Y2600D01*
Y2601D01*
X49124Y2602D01*
X49125Y2604D01*
X49126Y2607D01*
X49127Y2607D01*
X49129Y2608D01*
X49131Y2609D01*
X49134Y2609D01*
X49136D01*
X49138Y2610D01*
X49159D01*
X49164Y2609D01*
X49165D01*
X49167Y2609D01*
X49170Y2608D01*
X49173Y2607D01*
X49174D01*
X49174Y2606D01*
X49176Y2604D01*
X49176Y2602D01*
Y2602D01*
X49177Y2601D01*
X49178Y2599D01*
Y2596D01*
X49200Y2269D01*
X49350Y2598D01*
Y2599D01*
X49351Y2600D01*
X49353Y2604D01*
X49354Y2604D01*
X49354Y2605D01*
X49359Y2607D01*
X49359D01*
X49361Y2608D01*
X49364Y2609D01*
X49368Y2609D01*
X49368D01*
X49372Y2610D01*
X49392D01*
X49396Y2609D01*
X49397D01*
X49399Y2609D01*
X49402Y2608D01*
X49404Y2607D01*
X49404D01*
X49405Y2607D01*
X49406Y2605D01*
X49407Y2604D01*
Y2603D01*
X49408Y2602D01*
Y2598D01*
X49433Y2269D01*
X49434D01*
X49587Y2599D01*
Y2600D01*
X49587Y2601D01*
X49589Y2604D01*
X49590Y2605D01*
X49591Y2606D01*
X49594Y2607D01*
X49595D01*
X49597Y2608D01*
X49600Y2609D01*
X49603Y2609D01*
X49604D01*
X49608Y2610D01*
X49622D01*
X49627Y2609D01*
D02*
G37*
G36*
X49831Y2607D02*
X49841Y2607D01*
X49843D01*
X49845Y2606D01*
X49848D01*
X49855Y2604D01*
X49864Y2603D01*
X49864D01*
X49867Y2602D01*
X49869Y2602D01*
X49874Y2600D01*
X49883Y2597D01*
X49893Y2592D01*
X49894D01*
X49895Y2590D01*
X49898Y2589D01*
X49901Y2587D01*
X49909Y2580D01*
X49916Y2573D01*
X49917Y2572D01*
X49917Y2571D01*
X49919Y2569D01*
X49921Y2566D01*
X49926Y2558D01*
X49930Y2547D01*
Y2547D01*
X49931Y2545D01*
X49931Y2542D01*
X49933Y2538D01*
X49933Y2533D01*
X49934Y2528D01*
X49935Y2515D01*
Y2514D01*
Y2512D01*
Y2509D01*
X49934Y2504D01*
Y2500D01*
X49933Y2494D01*
X49931Y2481D01*
Y2481D01*
X49930Y2478D01*
X49929Y2475D01*
X49928Y2471D01*
X49926Y2465D01*
X49924Y2459D01*
X49919Y2447D01*
X49918Y2446D01*
X49917Y2444D01*
X49915Y2440D01*
X49913Y2436D01*
X49910Y2431D01*
X49906Y2426D01*
X49898Y2414D01*
X49897Y2414D01*
X49895Y2412D01*
X49893Y2409D01*
X49889Y2405D01*
X49884Y2402D01*
X49879Y2397D01*
X49867Y2388D01*
X49866Y2387D01*
X49864Y2386D01*
X49860Y2383D01*
X49855Y2381D01*
X49849Y2379D01*
X49842Y2376D01*
X49834Y2373D01*
X49826Y2370D01*
X49825D01*
X49822Y2369D01*
X49817Y2368D01*
X49810Y2367D01*
X49802Y2366D01*
X49793Y2364D01*
X49782Y2364D01*
X49717D01*
X49689Y2222D01*
X49688Y2220D01*
X49686Y2217D01*
X49685Y2217D01*
X49684Y2216D01*
X49682Y2215D01*
X49681D01*
X49679Y2215D01*
X49677D01*
X49673Y2214D01*
X49672D01*
X49670Y2213D01*
X49665Y2213D01*
X49653D01*
X49648Y2213D01*
X49648D01*
X49646Y2214D01*
X49643D01*
X49641Y2215D01*
X49640D01*
X49639Y2215D01*
X49637Y2217D01*
Y2217D01*
Y2218D01*
Y2222D01*
X49709Y2585D01*
Y2585D01*
X49710Y2587D01*
X49710Y2589D01*
X49711Y2592D01*
X49714Y2597D01*
X49716Y2600D01*
X49719Y2602D01*
X49720D01*
X49720Y2603D01*
X49724Y2605D01*
X49729Y2607D01*
X49736Y2608D01*
X49823D01*
X49831Y2607D01*
D02*
G37*
G36*
X53566Y2609D02*
X53570Y2609D01*
X53571D01*
X53573Y2608D01*
X53576Y2607D01*
X53578Y2606D01*
Y2605D01*
X53579Y2604D01*
X53579Y2602D01*
X53579Y2599D01*
Y2599D01*
X53578Y2597D01*
X53577Y2594D01*
X53576Y2589D01*
X53399Y2225D01*
Y2224D01*
X53397Y2223D01*
X53394Y2218D01*
X53393D01*
X53392Y2217D01*
X53389Y2216D01*
X53386Y2215D01*
X53385D01*
X53383Y2214D01*
X53380D01*
X53375Y2213D01*
X53370D01*
X53365Y2213D01*
X53349D01*
X53344Y2213D01*
X53343D01*
X53340Y2214D01*
X53337D01*
X53334Y2215D01*
X53333D01*
X53332Y2215D01*
X53328Y2218D01*
Y2219D01*
X53327Y2220D01*
X53327Y2222D01*
X53326Y2224D01*
X53302Y2523D01*
X53167Y2225D01*
Y2224D01*
X53166Y2223D01*
X53163Y2218D01*
X53162D01*
X53161Y2217D01*
X53159Y2216D01*
X53156Y2215D01*
X53155D01*
X53153Y2214D01*
X53150D01*
X53145Y2213D01*
X53141D01*
X53136Y2213D01*
X53118D01*
X53112Y2213D01*
X53111D01*
X53109Y2214D01*
X53105D01*
X53102Y2215D01*
X53101D01*
X53100Y2215D01*
X53096Y2218D01*
Y2219D01*
X53095Y2220D01*
X53095Y2222D01*
Y2226D01*
X53063Y2590D01*
Y2592D01*
Y2594D01*
X53062Y2597D01*
Y2600D01*
Y2601D01*
X53063Y2602D01*
X53064Y2604D01*
X53065Y2607D01*
X53066Y2607D01*
X53067Y2608D01*
X53069Y2609D01*
X53073Y2609D01*
X53074D01*
X53077Y2610D01*
X53097D01*
X53102Y2609D01*
X53104D01*
X53106Y2609D01*
X53109Y2608D01*
X53111Y2607D01*
X53112D01*
X53113Y2606D01*
X53114Y2604D01*
X53115Y2602D01*
Y2602D01*
X53116Y2601D01*
X53116Y2599D01*
Y2596D01*
X53138Y2269D01*
X53289Y2598D01*
Y2599D01*
X53290Y2600D01*
X53292Y2604D01*
X53292Y2604D01*
X53293Y2605D01*
X53297Y2607D01*
X53298D01*
X53300Y2608D01*
X53303Y2609D01*
X53306Y2609D01*
X53307D01*
X53311Y2610D01*
X53330D01*
X53335Y2609D01*
X53335D01*
X53337Y2609D01*
X53340Y2608D01*
X53342Y2607D01*
X53343D01*
X53344Y2607D01*
X53345Y2605D01*
X53346Y2604D01*
Y2603D01*
X53346Y2602D01*
Y2598D01*
X53372Y2269D01*
X53373D01*
X53525Y2599D01*
Y2600D01*
X53526Y2601D01*
X53528Y2604D01*
X53529Y2605D01*
X53529Y2606D01*
X53533Y2607D01*
X53534D01*
X53536Y2608D01*
X53539Y2609D01*
X53542Y2609D01*
X53543D01*
X53546Y2610D01*
X53561D01*
X53566Y2609D01*
D02*
G37*
G36*
X53770Y2607D02*
X53779Y2607D01*
X53781D01*
X53783Y2606D01*
X53787D01*
X53794Y2604D01*
X53802Y2603D01*
X53803D01*
X53805Y2602D01*
X53808Y2602D01*
X53812Y2600D01*
X53821Y2597D01*
X53832Y2592D01*
X53833D01*
X53834Y2590D01*
X53837Y2589D01*
X53840Y2587D01*
X53847Y2580D01*
X53854Y2573D01*
X53855Y2572D01*
X53856Y2571D01*
X53858Y2569D01*
X53859Y2566D01*
X53864Y2558D01*
X53869Y2547D01*
Y2547D01*
X53869Y2545D01*
X53870Y2542D01*
X53871Y2538D01*
X53872Y2533D01*
X53873Y2528D01*
X53873Y2515D01*
Y2514D01*
Y2512D01*
Y2509D01*
X53873Y2504D01*
Y2500D01*
X53872Y2494D01*
X53869Y2481D01*
Y2481D01*
X53869Y2478D01*
X53868Y2475D01*
X53866Y2471D01*
X53865Y2465D01*
X53863Y2459D01*
X53857Y2447D01*
X53857Y2446D01*
X53856Y2444D01*
X53854Y2440D01*
X53852Y2436D01*
X53848Y2431D01*
X53845Y2426D01*
X53836Y2414D01*
X53835Y2414D01*
X53834Y2412D01*
X53831Y2409D01*
X53828Y2405D01*
X53823Y2402D01*
X53818Y2397D01*
X53805Y2388D01*
X53805Y2387D01*
X53802Y2386D01*
X53798Y2383D01*
X53793Y2381D01*
X53788Y2379D01*
X53781Y2376D01*
X53773Y2373D01*
X53764Y2370D01*
X53764D01*
X53760Y2369D01*
X53755Y2368D01*
X53749Y2367D01*
X53740Y2366D01*
X53731Y2364D01*
X53721Y2364D01*
X53655D01*
X53627Y2222D01*
X53627Y2220D01*
X53625Y2217D01*
X53624Y2217D01*
X53622Y2216D01*
X53620Y2215D01*
X53619D01*
X53618Y2215D01*
X53615D01*
X53612Y2214D01*
X53611D01*
X53608Y2213D01*
X53604Y2213D01*
X53591D01*
X53587Y2213D01*
X53586D01*
X53584Y2214D01*
X53581D01*
X53579Y2215D01*
X53579D01*
X53578Y2215D01*
X53575Y2217D01*
Y2217D01*
Y2218D01*
Y2222D01*
X53648Y2585D01*
Y2585D01*
X53648Y2587D01*
X53649Y2589D01*
X53650Y2592D01*
X53653Y2597D01*
X53655Y2600D01*
X53657Y2602D01*
X53658D01*
X53659Y2603D01*
X53662Y2605D01*
X53668Y2607D01*
X53675Y2608D01*
X53762D01*
X53770Y2607D01*
D02*
G37*
G36*
X50282Y6213D02*
X50283D01*
X50284Y6211D01*
X50286Y6210D01*
X50288Y6208D01*
X50288Y6207D01*
X50289Y6205D01*
X50290Y6203D01*
X50291Y6201D01*
Y6200D01*
X50292Y6198D01*
Y6194D01*
X50291Y6190D01*
X50219Y5828D01*
X50218Y5826D01*
X50217Y5823D01*
X50215Y5823D01*
X50214Y5822D01*
X50212Y5821D01*
X50211D01*
X50210Y5821D01*
X50207D01*
X50204Y5820D01*
X50203D01*
X50200Y5819D01*
X50197Y5819D01*
X50188D01*
X50183Y5819D01*
X50179Y5820D01*
X50179D01*
X50176Y5821D01*
X50174D01*
X50172Y5821D01*
X50171D01*
X50170Y5822D01*
X50169Y5823D01*
X50168Y5823D01*
Y5824D01*
Y5825D01*
Y5828D01*
X50236Y6170D01*
X50027Y5826D01*
X50026Y5826D01*
X50024Y5824D01*
X50022Y5822D01*
X50017Y5821D01*
X50016D01*
X50013Y5820D01*
X50007Y5819D01*
X49999Y5819D01*
X49992D01*
X49986Y5819D01*
X49981Y5821D01*
X49980Y5821D01*
X49979Y5822D01*
X49977Y5824D01*
X49976Y5826D01*
X49910Y6171D01*
X49910D01*
X49842Y5828D01*
X49841Y5826D01*
X49839Y5823D01*
X49838Y5823D01*
X49837Y5822D01*
X49835Y5821D01*
X49834D01*
X49832Y5821D01*
X49830D01*
X49827Y5820D01*
X49826D01*
X49823Y5819D01*
X49820Y5819D01*
X49811D01*
X49806Y5819D01*
X49802Y5820D01*
X49801D01*
X49799Y5821D01*
X49797D01*
X49794Y5821D01*
X49793Y5822D01*
X49792Y5823D01*
Y5824D01*
Y5825D01*
Y5828D01*
X49863Y6190D01*
Y6191D01*
X49864Y6194D01*
X49865Y6196D01*
X49867Y6200D01*
X49868Y6201D01*
X49869Y6203D01*
X49871Y6205D01*
X49873Y6208D01*
X49874Y6208D01*
X49876Y6210D01*
X49879Y6211D01*
X49882Y6213D01*
X49882D01*
X49884Y6213D01*
X49887Y6214D01*
X49926D01*
X49931Y6213D01*
X49936Y6212D01*
X49937Y6211D01*
X49940Y6210D01*
X49944Y6208D01*
X49947Y6205D01*
X49948Y6205D01*
X49949Y6203D01*
X49951Y6200D01*
X49953Y6196D01*
X49954Y6194D01*
X49955Y6191D01*
X49956Y6186D01*
X49958Y6181D01*
X50015Y5897D01*
X50016D01*
X50192Y6181D01*
Y6182D01*
X50193Y6182D01*
X50195Y6186D01*
X50198Y6191D01*
X50200Y6195D01*
X50201Y6196D01*
X50204Y6198D01*
X50207Y6202D01*
X50211Y6205D01*
X50212Y6205D01*
X50215Y6207D01*
X50219Y6209D01*
X50224Y6211D01*
X50225Y6212D01*
X50229Y6213D01*
X50233Y6213D01*
X50239Y6214D01*
X50276D01*
X50282Y6213D01*
D02*
G37*
G36*
X49688Y6216D02*
X49689D01*
X49691Y6215D01*
X49693Y6215D01*
X49695Y6214D01*
X49696D01*
X49697Y6213D01*
X49698Y6213D01*
X49699Y6211D01*
Y6210D01*
Y6208D01*
X49630Y5863D01*
X49702D01*
X49704Y5862D01*
X49706Y5861D01*
X49707Y5859D01*
X49708Y5859D01*
X49709Y5857D01*
X49709Y5855D01*
Y5852D01*
Y5851D01*
Y5850D01*
X49709Y5846D01*
Y5845D01*
X49708Y5844D01*
X49707Y5840D01*
Y5839D01*
X49706Y5838D01*
X49705Y5833D01*
Y5832D01*
X49704Y5830D01*
X49702Y5826D01*
Y5826D01*
X49701Y5825D01*
X49698Y5822D01*
X49697Y5821D01*
X49693Y5821D01*
X49486D01*
X49485Y5821D01*
X49483Y5822D01*
X49481Y5823D01*
Y5824D01*
X49481Y5826D01*
X49480Y5828D01*
X49479Y5832D01*
Y5833D01*
Y5836D01*
Y5837D01*
X49480Y5838D01*
X49481Y5842D01*
Y5843D01*
X49481Y5845D01*
X49483Y5849D01*
Y5850D01*
X49483Y5852D01*
X49486Y5856D01*
X49486Y5857D01*
X49487Y5857D01*
X49490Y5861D01*
X49490Y5861D01*
X49492Y5862D01*
X49493Y5863D01*
X49578D01*
X49637Y6158D01*
X49552Y6113D01*
X49551Y6113D01*
X49549Y6112D01*
X49546Y6110D01*
X49543Y6110D01*
X49538D01*
X49538Y6110D01*
X49536Y6113D01*
Y6113D01*
Y6115D01*
X49535Y6117D01*
Y6120D01*
Y6120D01*
Y6122D01*
Y6124D01*
X49536Y6127D01*
Y6128D01*
X49537Y6131D01*
X49538Y6134D01*
X49538Y6138D01*
Y6139D01*
X49540Y6141D01*
X49540Y6144D01*
X49543Y6147D01*
X49543Y6148D01*
X49545Y6150D01*
X49547Y6152D01*
X49550Y6154D01*
X49652Y6213D01*
X49653Y6213D01*
X49656Y6214D01*
X49657D01*
X49657Y6215D01*
X49661Y6215D01*
X49661D01*
X49663Y6216D01*
X49668D01*
X49670Y6217D01*
X49684D01*
X49688Y6216D01*
D02*
G37*
G36*
X53283D02*
X53289D01*
X53294Y6215D01*
X53306Y6213D01*
X53307D01*
X53309Y6213D01*
X53312Y6212D01*
X53316Y6211D01*
X53325Y6209D01*
X53335Y6206D01*
X53336Y6205D01*
X53339Y6204D01*
X53342Y6203D01*
X53344Y6200D01*
X53345Y6199D01*
X53346Y6198D01*
X53346Y6195D01*
X53347Y6191D01*
Y6190D01*
X53346Y6186D01*
Y6186D01*
Y6184D01*
X53346Y6180D01*
Y6179D01*
X53345Y6178D01*
X53344Y6173D01*
Y6172D01*
X53343Y6172D01*
X53342Y6167D01*
Y6167D01*
X53341Y6166D01*
X53338Y6163D01*
X53337Y6163D01*
X53333Y6162D01*
X53331D01*
X53328Y6163D01*
X53325Y6163D01*
X53324Y6164D01*
X53321Y6165D01*
X53317Y6166D01*
X53312Y6168D01*
X53311Y6169D01*
X53307Y6170D01*
X53301Y6172D01*
X53293Y6173D01*
X53292D01*
X53291Y6174D01*
X53289D01*
X53285Y6175D01*
X53278Y6175D01*
X53262D01*
X53256Y6175D01*
X53250Y6174D01*
X53242Y6172D01*
X53233Y6170D01*
X53224Y6167D01*
X53216Y6163D01*
X53215Y6163D01*
X53212Y6161D01*
X53208Y6158D01*
X53202Y6156D01*
X53196Y6151D01*
X53190Y6146D01*
X53183Y6139D01*
X53176Y6132D01*
X53176Y6132D01*
X53173Y6129D01*
X53171Y6125D01*
X53166Y6120D01*
X53161Y6113D01*
X53157Y6106D01*
X53152Y6097D01*
X53147Y6088D01*
X53147Y6087D01*
X53145Y6084D01*
X53143Y6079D01*
X53141Y6073D01*
X53138Y6064D01*
X53135Y6056D01*
X53133Y6046D01*
X53130Y6035D01*
X53130Y6036D01*
X53133Y6037D01*
X53137Y6039D01*
X53142Y6041D01*
X53147Y6044D01*
X53154Y6046D01*
X53161Y6049D01*
X53170Y6052D01*
X53171D01*
X53174Y6054D01*
X53179Y6054D01*
X53185Y6056D01*
X53193Y6057D01*
X53202Y6058D01*
X53211Y6059D01*
X53231D01*
X53237Y6058D01*
X53244Y6058D01*
X53252Y6056D01*
X53260Y6054D01*
X53267Y6052D01*
X53268D01*
X53270Y6051D01*
X53273Y6049D01*
X53278Y6047D01*
X53287Y6042D01*
X53297Y6034D01*
X53298Y6033D01*
X53299Y6032D01*
X53301Y6030D01*
X53304Y6026D01*
X53307Y6023D01*
X53310Y6018D01*
X53315Y6007D01*
Y6006D01*
X53316Y6004D01*
X53317Y6001D01*
X53318Y5997D01*
X53319Y5992D01*
X53320Y5987D01*
X53320Y5974D01*
Y5973D01*
Y5971D01*
Y5968D01*
X53320Y5963D01*
Y5958D01*
X53319Y5951D01*
X53316Y5938D01*
Y5937D01*
X53316Y5935D01*
X53315Y5931D01*
X53313Y5927D01*
X53312Y5921D01*
X53310Y5915D01*
X53305Y5902D01*
Y5901D01*
X53304Y5899D01*
X53302Y5895D01*
X53299Y5891D01*
X53297Y5885D01*
X53293Y5880D01*
X53285Y5868D01*
X53284Y5867D01*
X53282Y5865D01*
X53280Y5862D01*
X53276Y5858D01*
X53272Y5854D01*
X53267Y5849D01*
X53255Y5839D01*
X53254Y5838D01*
X53252Y5837D01*
X53248Y5835D01*
X53243Y5832D01*
X53237Y5828D01*
X53230Y5826D01*
X53223Y5822D01*
X53214Y5819D01*
X53214D01*
X53210Y5818D01*
X53206Y5817D01*
X53199Y5816D01*
X53192Y5814D01*
X53183Y5814D01*
X53173Y5812D01*
X53158D01*
X53152Y5813D01*
X53146D01*
X53139Y5814D01*
X53131Y5816D01*
X53123Y5817D01*
X53116Y5820D01*
X53115Y5821D01*
X53113Y5821D01*
X53109Y5823D01*
X53104Y5826D01*
X53095Y5833D01*
X53085Y5842D01*
X53084Y5842D01*
X53083Y5845D01*
X53081Y5847D01*
X53078Y5852D01*
X53075Y5857D01*
X53072Y5863D01*
X53067Y5876D01*
Y5877D01*
X53066Y5880D01*
X53066Y5884D01*
X53065Y5890D01*
X53064Y5896D01*
X53063Y5903D01*
X53062Y5920D01*
Y5921D01*
Y5922D01*
Y5925D01*
Y5928D01*
X53063Y5932D01*
Y5938D01*
Y5944D01*
X53064Y5951D01*
Y5951D01*
Y5954D01*
X53064Y5958D01*
X53065Y5963D01*
X53066Y5970D01*
X53066Y5977D01*
X53067Y5985D01*
X53069Y5993D01*
Y5994D01*
X53069Y5997D01*
X53070Y6001D01*
X53071Y6008D01*
X53073Y6015D01*
X53075Y6023D01*
X53079Y6042D01*
Y6043D01*
X53081Y6046D01*
X53082Y6051D01*
X53084Y6057D01*
X53087Y6065D01*
X53090Y6073D01*
X53097Y6091D01*
X53098Y6093D01*
X53100Y6096D01*
X53102Y6101D01*
X53105Y6107D01*
X53109Y6114D01*
X53114Y6122D01*
X53124Y6139D01*
X53125Y6139D01*
X53127Y6143D01*
X53130Y6147D01*
X53135Y6153D01*
X53140Y6158D01*
X53146Y6165D01*
X53153Y6172D01*
X53161Y6179D01*
X53161Y6179D01*
X53164Y6182D01*
X53169Y6185D01*
X53175Y6189D01*
X53182Y6194D01*
X53190Y6198D01*
X53199Y6202D01*
X53209Y6206D01*
X53211Y6207D01*
X53214Y6208D01*
X53220Y6210D01*
X53228Y6212D01*
X53237Y6213D01*
X53247Y6215D01*
X53259Y6216D01*
X53271Y6217D01*
X53278D01*
X53283Y6216D01*
D02*
G37*
G36*
X53994Y6213D02*
X53999Y6212D01*
X53999D01*
X54002Y6211D01*
X54004Y6210D01*
X54006Y6210D01*
X54007D01*
X54008Y6209D01*
X54009Y6208D01*
X54010Y6207D01*
X54011Y6206D01*
X54011Y6203D01*
Y6202D01*
X54011Y6201D01*
X54010Y6198D01*
X54008Y6194D01*
X54007Y6194D01*
X54006Y6191D01*
X54002Y6188D01*
X53998Y6184D01*
X53834Y6024D01*
X53938Y5840D01*
X53939Y5840D01*
X53940Y5838D01*
X53941Y5835D01*
X53942Y5832D01*
Y5831D01*
X53942Y5830D01*
X53943Y5826D01*
Y5826D01*
Y5825D01*
X53942Y5821D01*
X53941Y5820D01*
X53937Y5819D01*
X53937D01*
X53935Y5818D01*
X53933D01*
X53929Y5817D01*
X53928D01*
X53926Y5816D01*
X53921Y5816D01*
X53907D01*
X53902Y5816D01*
X53901D01*
X53899Y5817D01*
X53893Y5818D01*
X53892D01*
X53892Y5819D01*
X53888Y5821D01*
Y5821D01*
X53888Y5822D01*
X53886Y5826D01*
X53778Y6022D01*
X53739Y5825D01*
X53738Y5823D01*
X53737Y5821D01*
X53736Y5820D01*
X53734Y5819D01*
X53732Y5819D01*
X53731D01*
X53730Y5818D01*
X53727D01*
X53724Y5817D01*
X53723D01*
X53720Y5816D01*
X53716Y5816D01*
X53707D01*
X53702Y5816D01*
X53698Y5817D01*
X53698D01*
X53695Y5818D01*
X53693D01*
X53691Y5819D01*
X53690D01*
X53689Y5819D01*
X53688Y5820D01*
X53687Y5821D01*
Y5821D01*
Y5822D01*
Y5825D01*
X53762Y6203D01*
Y6204D01*
Y6205D01*
X53764Y6207D01*
X53764Y6208D01*
X53765Y6208D01*
X53769Y6210D01*
X53770D01*
X53771Y6210D01*
X53774Y6211D01*
X53778Y6212D01*
X53778D01*
X53781Y6213D01*
X53786Y6213D01*
X53795D01*
X53798Y6213D01*
X53802Y6212D01*
X53803D01*
X53805Y6211D01*
X53808Y6210D01*
X53810Y6210D01*
X53811D01*
X53812Y6209D01*
X53813Y6208D01*
X53814Y6207D01*
X53814Y6206D01*
Y6205D01*
Y6203D01*
X53780Y6028D01*
X53952Y6203D01*
X53953Y6203D01*
X53954Y6204D01*
X53957Y6208D01*
X53958Y6208D01*
X53959Y6209D01*
X53964Y6210D01*
X53964D01*
X53966Y6211D01*
X53969Y6212D01*
X53973Y6213D01*
X53974D01*
X53977Y6213D01*
X53990D01*
X53994Y6213D01*
D02*
G37*
G36*
X53610D02*
X53616Y6212D01*
X53617D01*
X53620Y6211D01*
X53624Y6210D01*
X53627Y6210D01*
X53628D01*
X53630Y6209D01*
X53632Y6208D01*
X53634Y6207D01*
X53635Y6205D01*
X53636Y6204D01*
Y6202D01*
X53585Y5951D01*
X53631D01*
X53632Y5950D01*
X53634Y5949D01*
X53636Y5947D01*
X53637Y5947D01*
X53638Y5945D01*
X53638Y5942D01*
Y5939D01*
Y5938D01*
Y5937D01*
X53638Y5933D01*
Y5932D01*
X53637Y5931D01*
X53636Y5927D01*
Y5926D01*
X53636Y5925D01*
X53634Y5920D01*
Y5919D01*
X53634Y5918D01*
X53631Y5913D01*
Y5913D01*
X53629Y5912D01*
X53626Y5909D01*
X53624Y5909D01*
X53621Y5908D01*
X53577D01*
X53560Y5825D01*
Y5824D01*
X53560Y5823D01*
X53558Y5821D01*
X53556Y5820D01*
X53555Y5819D01*
X53553Y5818D01*
X53552D01*
X53551Y5817D01*
X53548D01*
X53545Y5816D01*
X53541D01*
X53538Y5816D01*
X53524D01*
X53520Y5816D01*
X53520D01*
X53517Y5817D01*
X53515D01*
X53513Y5818D01*
X53511Y5819D01*
X53509Y5821D01*
Y5822D01*
Y5823D01*
X53510Y5825D01*
X53526Y5908D01*
X53360D01*
X53357Y5909D01*
X53355Y5910D01*
Y5911D01*
X53354Y5912D01*
X53354Y5915D01*
X53353Y5918D01*
Y5919D01*
Y5920D01*
Y5923D01*
Y5924D01*
X53354Y5925D01*
Y5928D01*
X53354Y5931D01*
Y5932D01*
X53355Y5934D01*
Y5937D01*
X53356Y5940D01*
Y5940D01*
X53356Y5942D01*
X53358Y5945D01*
X53358Y5948D01*
Y5949D01*
X53359Y5951D01*
X53362Y5956D01*
X53363Y5956D01*
X53363Y5959D01*
X53367Y5963D01*
X53557Y6203D01*
Y6204D01*
X53558Y6205D01*
X53560Y6206D01*
X53562Y6208D01*
X53562Y6208D01*
X53564Y6209D01*
X53567Y6210D01*
X53570Y6210D01*
X53571D01*
X53574Y6211D01*
X53577Y6212D01*
X53582Y6213D01*
X53584D01*
X53587Y6213D01*
X53605D01*
X53610Y6213D01*
D02*
G37*
G36*
X18319Y18381D02*
X18325Y18380D01*
X18326D01*
X18329Y18379D01*
X18333Y18378D01*
X18336Y18376D01*
Y18375D01*
X18337Y18374D01*
X18338Y18372D01*
X18337Y18368D01*
Y18367D01*
X18336Y18364D01*
X18334Y18360D01*
X18331Y18354D01*
X18061Y17865D01*
Y17864D01*
X18060Y17862D01*
X18055Y17857D01*
X18054D01*
X18053Y17856D01*
X18050Y17855D01*
X18046Y17854D01*
X18045D01*
X18043Y17853D01*
X18039D01*
X18033Y17852D01*
X18028D01*
X18022Y17851D01*
X17998D01*
X17992Y17852D01*
X17991D01*
X17987Y17853D01*
X17982D01*
X17979Y17854D01*
X17978D01*
X17976Y17855D01*
X17971Y17857D01*
Y17858D01*
X17970Y17860D01*
X17969Y17866D01*
X17895Y18357D01*
Y18358D01*
X17894Y18362D01*
X17893Y18366D01*
Y18370D01*
Y18371D01*
X17894Y18372D01*
X17895Y18375D01*
X17897Y18377D01*
X17898Y18378D01*
X17900Y18379D01*
X17903Y18380D01*
X17907Y18381D01*
X17908D01*
X17913Y18382D01*
X17940D01*
X17947Y18381D01*
X17948D01*
X17951Y18380D01*
X17954Y18379D01*
X17958Y18378D01*
X17959D01*
X17960Y18377D01*
X17962Y18376D01*
X17963Y18374D01*
Y18373D01*
X17964Y18372D01*
X17966Y18367D01*
X18027Y17925D01*
X18028D01*
X18263Y18368D01*
Y18369D01*
X18263Y18370D01*
X18266Y18374D01*
X18267Y18375D01*
X18268Y18376D01*
X18274Y18378D01*
X18275D01*
X18277Y18379D01*
X18280Y18380D01*
X18285Y18381D01*
X18286D01*
X18291Y18382D01*
X18312D01*
X18319Y18381D01*
D02*
G37*
G36*
X17079Y18382D02*
X17080D01*
X17083Y18381D01*
X17086Y18380D01*
X17089Y18379D01*
X17090D01*
X17091Y18378D01*
X17092Y18377D01*
X17093Y18375D01*
Y18374D01*
Y18371D01*
X17001Y17910D01*
X17098D01*
X17100Y17909D01*
X17103Y17908D01*
X17105Y17905D01*
X17106Y17904D01*
X17107Y17903D01*
X17108Y17900D01*
Y17895D01*
Y17894D01*
Y17893D01*
X17107Y17888D01*
Y17887D01*
X17106Y17885D01*
X17105Y17879D01*
Y17878D01*
X17104Y17876D01*
X17102Y17870D01*
Y17869D01*
X17101Y17867D01*
X17098Y17861D01*
Y17860D01*
X17096Y17859D01*
X17092Y17856D01*
X17091Y17855D01*
X17086Y17854D01*
X16810D01*
X16808Y17855D01*
X16806Y17856D01*
X16803Y17857D01*
Y17858D01*
X16802Y17860D01*
X16801Y17864D01*
X16800Y17869D01*
Y17871D01*
Y17874D01*
Y17875D01*
X16801Y17877D01*
X16802Y17883D01*
Y17884D01*
X16803Y17886D01*
X16805Y17892D01*
Y17893D01*
X16806Y17895D01*
X16809Y17901D01*
X16810Y17902D01*
X16811Y17903D01*
X16814Y17907D01*
X16815Y17908D01*
X16817Y17909D01*
X16819Y17910D01*
X16932D01*
X17011Y18305D01*
X16897Y18245D01*
X16896Y18244D01*
X16893Y18243D01*
X16889Y18241D01*
X16886Y18240D01*
X16879D01*
X16878Y18241D01*
X16876Y18244D01*
Y18245D01*
Y18247D01*
X16875Y18249D01*
Y18253D01*
Y18254D01*
Y18256D01*
Y18259D01*
X16876Y18263D01*
Y18264D01*
X16877Y18268D01*
X16878Y18273D01*
X16879Y18278D01*
Y18279D01*
X16881Y18281D01*
X16882Y18285D01*
X16885Y18290D01*
X16886Y18291D01*
X16888Y18294D01*
X16890Y18296D01*
X16894Y18299D01*
X17031Y18377D01*
X17032Y18378D01*
X17036Y18379D01*
X17037D01*
X17038Y18380D01*
X17043Y18381D01*
X17044D01*
X17045Y18382D01*
X17052D01*
X17055Y18383D01*
X17074D01*
X17079Y18382D01*
D02*
G37*
G36*
X17280Y17944D02*
X17286Y17942D01*
X17287D01*
X17291Y17941D01*
X17294Y17939D01*
X17297Y17936D01*
X17298Y17935D01*
X17299Y17934D01*
X17301Y17931D01*
X17303Y17927D01*
Y17926D01*
X17304Y17924D01*
X17305Y17920D01*
Y17916D01*
Y17915D01*
Y17912D01*
X17304Y17907D01*
X17303Y17902D01*
Y17901D01*
X17302Y17897D01*
X17301Y17891D01*
X17300Y17886D01*
Y17885D01*
X17299Y17881D01*
X17297Y17876D01*
X17295Y17871D01*
X17294Y17870D01*
X17293Y17867D01*
X17287Y17859D01*
X17286Y17858D01*
X17283Y17857D01*
X17279Y17855D01*
X17273Y17853D01*
X17271D01*
X17267Y17852D01*
X17260Y17851D01*
X17250Y17850D01*
X17244D01*
X17238Y17851D01*
X17232Y17852D01*
X17231D01*
X17228Y17853D01*
X17220Y17857D01*
X17219Y17857D01*
X17218Y17859D01*
X17217Y17862D01*
X17215Y17866D01*
Y17867D01*
Y17870D01*
X17214Y17873D01*
Y17878D01*
Y17879D01*
Y17883D01*
Y17887D01*
X17215Y17892D01*
Y17894D01*
X17216Y17898D01*
X17217Y17903D01*
X17217Y17908D01*
Y17910D01*
X17218Y17913D01*
X17220Y17919D01*
X17222Y17923D01*
X17223Y17924D01*
X17225Y17927D01*
X17231Y17935D01*
X17232Y17935D01*
X17234Y17937D01*
X17238Y17940D01*
X17244Y17942D01*
X17246Y17943D01*
X17250Y17944D01*
X17257Y17945D01*
X17274D01*
X17280Y17944D01*
D02*
G37*
G36*
X17683Y18386D02*
X17692D01*
X17702Y18384D01*
X17714Y18382D01*
X17725Y18379D01*
X17735Y18375D01*
X17736D01*
X17740Y18373D01*
X17745Y18371D01*
X17751Y18368D01*
X17758Y18363D01*
X17765Y18357D01*
X17773Y18352D01*
X17779Y18344D01*
X17780Y18343D01*
X17782Y18341D01*
X17785Y18337D01*
X17790Y18331D01*
X17794Y18324D01*
X17797Y18315D01*
X17802Y18306D01*
X17805Y18295D01*
Y18294D01*
X17806Y18291D01*
X17808Y18284D01*
X17810Y18277D01*
X17810Y18266D01*
X17812Y18255D01*
X17813Y18243D01*
Y18229D01*
Y18228D01*
Y18226D01*
Y18222D01*
Y18216D01*
X17812Y18210D01*
Y18202D01*
X17811Y18194D01*
X17810Y18185D01*
Y18184D01*
Y18180D01*
X17810Y18175D01*
X17809Y18169D01*
X17808Y18160D01*
X17807Y18151D01*
X17803Y18129D01*
Y18128D01*
X17802Y18124D01*
X17801Y18118D01*
X17799Y18110D01*
X17797Y18102D01*
X17795Y18091D01*
X17790Y18068D01*
Y18067D01*
X17789Y18062D01*
X17787Y18057D01*
X17784Y18048D01*
X17781Y18039D01*
X17779Y18028D01*
X17770Y18005D01*
X17769Y18004D01*
X17768Y18000D01*
X17765Y17994D01*
X17762Y17986D01*
X17758Y17978D01*
X17753Y17967D01*
X17742Y17947D01*
X17741Y17946D01*
X17739Y17942D01*
X17735Y17937D01*
X17732Y17931D01*
X17726Y17923D01*
X17719Y17915D01*
X17705Y17899D01*
X17704Y17898D01*
X17701Y17895D01*
X17696Y17890D01*
X17689Y17886D01*
X17681Y17879D01*
X17670Y17873D01*
X17659Y17866D01*
X17647Y17860D01*
X17645Y17859D01*
X17641Y17858D01*
X17634Y17856D01*
X17624Y17854D01*
X17613Y17851D01*
X17599Y17848D01*
X17584Y17847D01*
X17568Y17846D01*
X17561D01*
X17555Y17847D01*
X17545D01*
X17535Y17849D01*
X17524Y17851D01*
X17513Y17853D01*
X17502Y17857D01*
X17501Y17857D01*
X17498Y17858D01*
X17493Y17861D01*
X17486Y17864D01*
X17472Y17873D01*
X17457Y17887D01*
X17456Y17888D01*
X17454Y17890D01*
X17451Y17894D01*
X17448Y17900D01*
X17444Y17907D01*
X17439Y17916D01*
X17435Y17925D01*
X17432Y17935D01*
Y17936D01*
X17431Y17941D01*
X17430Y17947D01*
X17428Y17955D01*
X17427Y17966D01*
X17425Y17977D01*
X17424Y17989D01*
Y18003D01*
Y18004D01*
Y18006D01*
Y18010D01*
Y18015D01*
X17425Y18022D01*
Y18029D01*
Y18037D01*
X17426Y18046D01*
Y18047D01*
Y18051D01*
X17427Y18057D01*
X17428Y18063D01*
X17429Y18072D01*
X17430Y18081D01*
X17433Y18102D01*
Y18103D01*
X17434Y18107D01*
X17435Y18113D01*
X17436Y18121D01*
X17438Y18130D01*
X17440Y18140D01*
X17446Y18164D01*
Y18166D01*
X17448Y18169D01*
X17450Y18175D01*
X17451Y18184D01*
X17454Y18193D01*
X17458Y18203D01*
X17467Y18226D01*
X17467Y18228D01*
X17468Y18232D01*
X17471Y18237D01*
X17475Y18245D01*
X17479Y18254D01*
X17483Y18263D01*
X17495Y18284D01*
X17496Y18285D01*
X17498Y18289D01*
X17501Y18294D01*
X17505Y18301D01*
X17511Y18309D01*
X17517Y18317D01*
X17531Y18333D01*
X17532Y18334D01*
X17533Y18335D01*
X17540Y18341D01*
X17548Y18347D01*
X17559Y18355D01*
X17560Y18356D01*
X17561Y18357D01*
X17564Y18358D01*
X17568Y18360D01*
X17578Y18366D01*
X17591Y18372D01*
X17592D01*
X17593Y18372D01*
X17597Y18374D01*
X17602Y18376D01*
X17613Y18379D01*
X17627Y18383D01*
X17628D01*
X17631Y18384D01*
X17635D01*
X17639Y18385D01*
X17646Y18386D01*
X17653D01*
X17669Y18387D01*
X17675D01*
X17683Y18386D01*
D02*
G37*
G36*
X55716Y19589D02*
X55724Y19589D01*
X55734Y19588D01*
X55753Y19583D01*
X55754D01*
X55756Y19582D01*
X55761Y19580D01*
X55767Y19577D01*
X55780Y19571D01*
X55793Y19561D01*
X55794Y19560D01*
X55796Y19558D01*
X55799Y19556D01*
X55803Y19552D01*
X55806Y19546D01*
X55810Y19541D01*
X55817Y19526D01*
Y19526D01*
X55818Y19523D01*
X55819Y19519D01*
X55821Y19513D01*
X55822Y19507D01*
X55824Y19499D01*
X55825Y19482D01*
Y19481D01*
Y19478D01*
Y19472D01*
X55824Y19465D01*
X55823Y19457D01*
X55821Y19448D01*
X55816Y19429D01*
Y19428D01*
X55814Y19424D01*
X55812Y19419D01*
X55809Y19414D01*
X55801Y19399D01*
X55789Y19384D01*
X55788Y19383D01*
X55787Y19381D01*
X55783Y19377D01*
X55778Y19372D01*
X55772Y19368D01*
X55765Y19362D01*
X55749Y19351D01*
X55748Y19350D01*
X55745Y19349D01*
X55740Y19346D01*
X55734Y19343D01*
X55726Y19339D01*
X55718Y19337D01*
X55698Y19331D01*
Y19330D01*
X55699D01*
X55703Y19329D01*
X55708D01*
X55714Y19327D01*
X55729Y19323D01*
X55744Y19317D01*
X55745D01*
X55747Y19315D01*
X55751Y19313D01*
X55756Y19310D01*
X55765Y19303D01*
X55774Y19292D01*
X55775Y19292D01*
X55776Y19290D01*
X55778Y19287D01*
X55781Y19283D01*
X55787Y19273D01*
X55792Y19261D01*
Y19260D01*
X55793Y19258D01*
X55794Y19254D01*
X55795Y19249D01*
X55797Y19238D01*
X55798Y19225D01*
Y19224D01*
Y19221D01*
Y19217D01*
X55797Y19213D01*
Y19206D01*
X55796Y19199D01*
X55792Y19184D01*
Y19183D01*
X55791Y19181D01*
X55790Y19177D01*
X55788Y19171D01*
X55784Y19159D01*
X55776Y19144D01*
X55775Y19143D01*
X55774Y19140D01*
X55771Y19136D01*
X55769Y19132D01*
X55759Y19120D01*
X55748Y19107D01*
X55747Y19106D01*
X55745Y19105D01*
X55741Y19102D01*
X55737Y19097D01*
X55731Y19092D01*
X55724Y19088D01*
X55716Y19082D01*
X55708Y19077D01*
X55707Y19076D01*
X55704Y19075D01*
X55698Y19073D01*
X55692Y19070D01*
X55684Y19067D01*
X55675Y19063D01*
X55664Y19060D01*
X55653Y19058D01*
X55652D01*
X55647Y19057D01*
X55642Y19056D01*
X55633Y19054D01*
X55623Y19053D01*
X55612Y19051D01*
X55599Y19050D01*
X55572D01*
X55560Y19051D01*
X55546Y19053D01*
X55545D01*
X55543Y19054D01*
X55539D01*
X55535Y19055D01*
X55524Y19057D01*
X55512Y19059D01*
X55511D01*
X55509Y19060D01*
X55506Y19061D01*
X55503Y19062D01*
X55493Y19065D01*
X55483Y19069D01*
X55482D01*
X55481Y19070D01*
X55475Y19073D01*
X55468Y19076D01*
X55459Y19082D01*
X55459Y19083D01*
X55456Y19084D01*
X55453Y19087D01*
X55450Y19089D01*
Y19090D01*
X55449Y19093D01*
X55448Y19097D01*
Y19102D01*
Y19103D01*
Y19104D01*
Y19108D01*
Y19109D01*
Y19111D01*
X55449Y19118D01*
Y19119D01*
X55450Y19120D01*
Y19124D01*
X55451Y19128D01*
Y19129D01*
X55452Y19132D01*
X55455Y19137D01*
Y19138D01*
X55456Y19140D01*
X55459Y19145D01*
X55459Y19146D01*
X55460Y19147D01*
X55462Y19148D01*
X55466D01*
X55468Y19147D01*
X55473Y19145D01*
X55478Y19141D01*
X55480Y19140D01*
X55485Y19137D01*
X55492Y19133D01*
X55503Y19127D01*
X55504D01*
X55506Y19126D01*
X55509Y19124D01*
X55513Y19122D01*
X55519Y19120D01*
X55525Y19118D01*
X55539Y19113D01*
X55540D01*
X55543Y19112D01*
X55548Y19111D01*
X55553Y19110D01*
X55560Y19109D01*
X55568Y19108D01*
X55578Y19107D01*
X55593D01*
X55600Y19108D01*
X55607D01*
X55616Y19110D01*
X55626Y19112D01*
X55636Y19114D01*
X55646Y19118D01*
X55646Y19119D01*
X55650Y19120D01*
X55654Y19121D01*
X55661Y19125D01*
X55674Y19133D01*
X55687Y19144D01*
X55688Y19145D01*
X55690Y19147D01*
X55693Y19151D01*
X55696Y19155D01*
X55705Y19167D01*
X55711Y19181D01*
Y19182D01*
X55712Y19184D01*
X55714Y19188D01*
X55716Y19194D01*
X55719Y19206D01*
X55720Y19221D01*
Y19222D01*
Y19224D01*
Y19227D01*
X55719Y19230D01*
X55717Y19241D01*
X55713Y19251D01*
Y19252D01*
X55712Y19254D01*
X55709Y19260D01*
X55703Y19267D01*
X55694Y19276D01*
X55693Y19276D01*
X55693Y19277D01*
X55690Y19279D01*
X55686Y19282D01*
X55681Y19285D01*
X55676Y19288D01*
X55662Y19292D01*
X55661D01*
X55658Y19293D01*
X55654Y19294D01*
X55648Y19296D01*
X55641Y19297D01*
X55632Y19298D01*
X55623Y19299D01*
X55553D01*
X55549Y19300D01*
X55546Y19302D01*
Y19303D01*
X55545Y19305D01*
X55544Y19308D01*
X55543Y19313D01*
Y19314D01*
Y19315D01*
Y19321D01*
Y19322D01*
X55544Y19323D01*
X55545Y19329D01*
Y19330D01*
X55546Y19332D01*
X55548Y19338D01*
Y19339D01*
X55549Y19340D01*
X55553Y19346D01*
X55553Y19347D01*
X55554Y19348D01*
X55558Y19352D01*
X55559Y19353D01*
X55561Y19354D01*
X55564Y19354D01*
X55617D01*
X55624Y19355D01*
X55631D01*
X55639Y19356D01*
X55648Y19358D01*
X55667Y19363D01*
X55668D01*
X55672Y19365D01*
X55677Y19367D01*
X55682Y19370D01*
X55696Y19378D01*
X55710Y19388D01*
X55711Y19389D01*
X55713Y19391D01*
X55717Y19395D01*
X55721Y19399D01*
X55725Y19404D01*
X55731Y19411D01*
X55740Y19425D01*
X55740Y19426D01*
X55741Y19429D01*
X55743Y19433D01*
X55745Y19439D01*
X55747Y19446D01*
X55748Y19453D01*
X55750Y19462D01*
Y19470D01*
Y19471D01*
Y19475D01*
X55749Y19480D01*
X55748Y19487D01*
X55746Y19495D01*
X55742Y19502D01*
X55739Y19510D01*
X55733Y19516D01*
X55732Y19517D01*
X55730Y19519D01*
X55725Y19522D01*
X55720Y19525D01*
X55712Y19527D01*
X55703Y19530D01*
X55692Y19532D01*
X55678Y19533D01*
X55670D01*
X55664Y19532D01*
X55657Y19531D01*
X55649Y19530D01*
X55633Y19526D01*
X55632D01*
X55630Y19525D01*
X55626Y19523D01*
X55621Y19521D01*
X55609Y19516D01*
X55596Y19510D01*
X55595D01*
X55593Y19510D01*
X55590Y19508D01*
X55585Y19506D01*
X55576Y19500D01*
X55567Y19495D01*
X55566D01*
X55565Y19494D01*
X55560Y19492D01*
X55554Y19489D01*
X55550Y19488D01*
X55548D01*
X55546Y19489D01*
X55544Y19491D01*
Y19492D01*
X55543Y19494D01*
X55542Y19496D01*
Y19500D01*
Y19501D01*
Y19503D01*
Y19506D01*
Y19510D01*
Y19510D01*
X55543Y19513D01*
X55544Y19518D01*
X55545Y19523D01*
Y19524D01*
X55546Y19526D01*
X55548Y19531D01*
X55550Y19536D01*
X55551Y19537D01*
X55553Y19540D01*
X55557Y19547D01*
X55558Y19548D01*
X55561Y19550D01*
X55567Y19554D01*
X55575Y19558D01*
X55576D01*
X55578Y19559D01*
X55580Y19561D01*
X55584Y19563D01*
X55594Y19568D01*
X55606Y19573D01*
X55607D01*
X55610Y19573D01*
X55614Y19575D01*
X55618Y19577D01*
X55625Y19579D01*
X55631Y19581D01*
X55648Y19585D01*
X55649D01*
X55652Y19586D01*
X55657Y19587D01*
X55663Y19588D01*
X55670Y19589D01*
X55678Y19589D01*
X55696Y19590D01*
X55708D01*
X55716Y19589D01*
D02*
G37*
G36*
X56143D02*
X56151D01*
X56162Y19588D01*
X56172Y19586D01*
X56182Y19583D01*
X56193Y19579D01*
X56193D01*
X56197Y19577D01*
X56201Y19574D01*
X56208Y19572D01*
X56221Y19562D01*
X56234Y19549D01*
X56235Y19548D01*
X56237Y19545D01*
X56240Y19542D01*
X56243Y19537D01*
X56247Y19530D01*
X56251Y19522D01*
X56255Y19513D01*
X56257Y19504D01*
Y19503D01*
X56258Y19499D01*
X56260Y19494D01*
X56261Y19487D01*
X56263Y19479D01*
X56264Y19468D01*
X56265Y19457D01*
Y19446D01*
Y19445D01*
Y19443D01*
Y19439D01*
Y19434D01*
Y19429D01*
X56264Y19421D01*
Y19414D01*
X56263Y19404D01*
Y19403D01*
Y19400D01*
X56262Y19395D01*
X56261Y19387D01*
X56260Y19380D01*
X56259Y19370D01*
X56257Y19359D01*
X56255Y19348D01*
Y19347D01*
X56255Y19342D01*
X56254Y19337D01*
X56252Y19328D01*
X56250Y19319D01*
X56248Y19308D01*
X56245Y19296D01*
X56241Y19283D01*
Y19281D01*
X56240Y19277D01*
X56238Y19271D01*
X56235Y19262D01*
X56231Y19252D01*
X56227Y19240D01*
X56217Y19215D01*
X56216Y19214D01*
X56214Y19210D01*
X56211Y19203D01*
X56207Y19196D01*
X56201Y19185D01*
X56195Y19175D01*
X56180Y19152D01*
X56179Y19152D01*
X56177Y19148D01*
X56172Y19142D01*
X56166Y19135D01*
X56159Y19126D01*
X56150Y19117D01*
X56141Y19108D01*
X56130Y19099D01*
X56129Y19098D01*
X56125Y19095D01*
X56118Y19091D01*
X56110Y19086D01*
X56100Y19080D01*
X56089Y19074D01*
X56076Y19069D01*
X56062Y19063D01*
X56060Y19062D01*
X56055Y19061D01*
X56048Y19059D01*
X56037Y19057D01*
X56024Y19054D01*
X56009Y19052D01*
X55993Y19051D01*
X55975Y19050D01*
X55967D01*
X55959Y19051D01*
X55950Y19052D01*
X55948D01*
X55943Y19053D01*
X55935Y19054D01*
X55927Y19056D01*
X55925D01*
X55920Y19057D01*
X55913Y19058D01*
X55906Y19059D01*
X55904Y19060D01*
X55900Y19061D01*
X55895Y19063D01*
X55889Y19065D01*
X55887Y19066D01*
X55884Y19068D01*
X55880Y19070D01*
X55876Y19073D01*
Y19073D01*
X55875Y19076D01*
X55874Y19080D01*
X55873Y19085D01*
Y19087D01*
Y19090D01*
Y19091D01*
Y19093D01*
X55874Y19099D01*
Y19100D01*
X55875Y19102D01*
X55876Y19108D01*
Y19109D01*
X55877Y19111D01*
X55880Y19117D01*
Y19118D01*
X55881Y19119D01*
X55884Y19122D01*
X55885D01*
X55886Y19123D01*
X55890Y19124D01*
X55894D01*
X55897Y19123D01*
X55902Y19121D01*
X55903D01*
X55908Y19120D01*
X55913Y19118D01*
X55921Y19115D01*
X55923D01*
X55928Y19113D01*
X55937Y19111D01*
X55947Y19109D01*
X55950D01*
X55954Y19108D01*
X55958D01*
X55969Y19107D01*
X55983Y19106D01*
X55990D01*
X55998Y19107D01*
X56007Y19108D01*
X56019Y19110D01*
X56031Y19112D01*
X56043Y19116D01*
X56055Y19120D01*
X56056Y19121D01*
X56061Y19123D01*
X56067Y19127D01*
X56074Y19131D01*
X56082Y19137D01*
X56091Y19144D01*
X56100Y19152D01*
X56109Y19161D01*
X56110Y19162D01*
X56113Y19166D01*
X56117Y19170D01*
X56123Y19178D01*
X56129Y19186D01*
X56135Y19197D01*
X56142Y19208D01*
X56147Y19220D01*
X56148Y19222D01*
X56150Y19226D01*
X56153Y19233D01*
X56157Y19242D01*
X56161Y19252D01*
X56165Y19264D01*
X56170Y19277D01*
X56174Y19292D01*
X56173Y19291D01*
X56169Y19290D01*
X56164Y19287D01*
X56158Y19284D01*
X56149Y19280D01*
X56140Y19276D01*
X56130Y19273D01*
X56118Y19269D01*
X56117D01*
X56113Y19268D01*
X56107Y19266D01*
X56099Y19265D01*
X56088Y19263D01*
X56077Y19261D01*
X56064Y19261D01*
X56044D01*
X56037Y19261D01*
X56029D01*
X56020Y19262D01*
X56009Y19264D01*
X55990Y19269D01*
X55989D01*
X55986Y19271D01*
X55981Y19273D01*
X55975Y19276D01*
X55962Y19282D01*
X55949Y19292D01*
X55948Y19293D01*
X55946Y19295D01*
X55944Y19299D01*
X55941Y19303D01*
X55937Y19308D01*
X55933Y19315D01*
X55927Y19329D01*
Y19330D01*
X55926Y19333D01*
X55925Y19337D01*
X55924Y19342D01*
X55922Y19349D01*
X55921Y19356D01*
X55920Y19373D01*
Y19374D01*
Y19377D01*
Y19382D01*
X55921Y19387D01*
Y19395D01*
X55922Y19402D01*
X55925Y19420D01*
Y19421D01*
X55926Y19425D01*
X55927Y19430D01*
X55928Y19436D01*
X55930Y19444D01*
X55933Y19451D01*
X55940Y19469D01*
X55941Y19470D01*
X55942Y19473D01*
X55943Y19478D01*
X55947Y19484D01*
X55951Y19491D01*
X55955Y19499D01*
X55966Y19515D01*
X55967Y19516D01*
X55969Y19519D01*
X55973Y19523D01*
X55977Y19528D01*
X55983Y19534D01*
X55990Y19541D01*
X56006Y19554D01*
X56006Y19555D01*
X56009Y19557D01*
X56015Y19559D01*
X56021Y19563D01*
X56029Y19568D01*
X56038Y19572D01*
X56049Y19576D01*
X56060Y19580D01*
X56062Y19581D01*
X56066Y19582D01*
X56072Y19584D01*
X56081Y19586D01*
X56091Y19588D01*
X56102Y19589D01*
X56115Y19590D01*
X56136D01*
X56143Y19589D01*
D02*
G37*
G36*
X56108Y7564D02*
X56109D01*
X56112Y7563D01*
X56115Y7562D01*
X56118Y7561D01*
X56119D01*
X56120Y7560D01*
X56121Y7559D01*
X56122Y7557D01*
Y7556D01*
Y7553D01*
X56030Y7092D01*
X56127D01*
X56129Y7091D01*
X56132Y7090D01*
X56134Y7087D01*
X56135Y7087D01*
X56136Y7085D01*
X56137Y7082D01*
Y7077D01*
Y7076D01*
Y7075D01*
X56136Y7070D01*
Y7069D01*
X56135Y7067D01*
X56134Y7061D01*
Y7060D01*
X56133Y7058D01*
X56131Y7052D01*
Y7051D01*
X56130Y7049D01*
X56127Y7043D01*
Y7042D01*
X56125Y7041D01*
X56121Y7038D01*
X56120Y7037D01*
X56115Y7036D01*
X55839D01*
X55837Y7037D01*
X55835Y7038D01*
X55832Y7040D01*
Y7041D01*
X55831Y7042D01*
X55830Y7046D01*
X55829Y7051D01*
Y7053D01*
Y7056D01*
Y7057D01*
X55830Y7059D01*
X55831Y7065D01*
Y7066D01*
X55832Y7068D01*
X55834Y7074D01*
Y7075D01*
X55835Y7077D01*
X55838Y7083D01*
X55839Y7084D01*
X55840Y7085D01*
X55843Y7089D01*
X55844Y7090D01*
X55846Y7091D01*
X55848Y7092D01*
X55961D01*
X56040Y7487D01*
X55926Y7427D01*
X55925Y7426D01*
X55922Y7425D01*
X55918Y7423D01*
X55915Y7422D01*
X55908D01*
X55907Y7423D01*
X55905Y7426D01*
Y7427D01*
Y7429D01*
X55904Y7431D01*
Y7435D01*
Y7436D01*
Y7438D01*
Y7441D01*
X55905Y7446D01*
Y7446D01*
X55906Y7450D01*
X55907Y7455D01*
X55908Y7460D01*
Y7461D01*
X55910Y7463D01*
X55911Y7467D01*
X55914Y7472D01*
X55915Y7473D01*
X55917Y7476D01*
X55919Y7478D01*
X55923Y7481D01*
X56060Y7559D01*
X56061Y7560D01*
X56065Y7561D01*
X56066D01*
X56067Y7562D01*
X56072Y7563D01*
X56073D01*
X56074Y7564D01*
X56081D01*
X56084Y7565D01*
X56103D01*
X56108Y7564D01*
D02*
G37*
G36*
X50823Y19238D02*
X50832Y19237D01*
X50841Y19236D01*
X50860Y19231D01*
X50861D01*
X50864Y19230D01*
X50868Y19228D01*
X50874Y19225D01*
X50887Y19219D01*
X50900Y19209D01*
X50901Y19209D01*
X50903Y19207D01*
X50906Y19204D01*
X50910Y19200D01*
X50913Y19194D01*
X50917Y19189D01*
X50924Y19175D01*
Y19174D01*
X50925Y19171D01*
X50927Y19167D01*
X50928Y19162D01*
X50929Y19155D01*
X50931Y19147D01*
X50932Y19131D01*
Y19130D01*
Y19126D01*
Y19120D01*
X50931Y19114D01*
X50930Y19105D01*
X50928Y19096D01*
X50923Y19077D01*
Y19076D01*
X50921Y19072D01*
X50919Y19068D01*
X50916Y19062D01*
X50908Y19047D01*
X50897Y19032D01*
X50896Y19031D01*
X50894Y19029D01*
X50890Y19025D01*
X50885Y19021D01*
X50880Y19016D01*
X50872Y19010D01*
X50856Y18999D01*
X50855Y18998D01*
X50852Y18997D01*
X50848Y18994D01*
X50841Y18991D01*
X50834Y18988D01*
X50825Y18985D01*
X50805Y18979D01*
Y18978D01*
X50806D01*
X50810Y18977D01*
X50815D01*
X50821Y18975D01*
X50836Y18972D01*
X50851Y18965D01*
X50852D01*
X50854Y18963D01*
X50858Y18961D01*
X50863Y18959D01*
X50872Y18951D01*
X50881Y18941D01*
X50882Y18940D01*
X50883Y18938D01*
X50885Y18935D01*
X50888Y18931D01*
X50895Y18921D01*
X50899Y18909D01*
Y18908D01*
X50900Y18906D01*
X50901Y18902D01*
X50902Y18897D01*
X50904Y18886D01*
X50905Y18873D01*
Y18872D01*
Y18869D01*
Y18865D01*
X50904Y18861D01*
Y18854D01*
X50903Y18848D01*
X50899Y18833D01*
Y18832D01*
X50898Y18829D01*
X50897Y18825D01*
X50896Y18819D01*
X50891Y18807D01*
X50883Y18792D01*
X50882Y18791D01*
X50881Y18788D01*
X50879Y18785D01*
X50876Y18780D01*
X50866Y18769D01*
X50855Y18756D01*
X50854Y18755D01*
X50852Y18753D01*
X50849Y18750D01*
X50844Y18745D01*
X50838Y18740D01*
X50832Y18736D01*
X50823Y18730D01*
X50815Y18725D01*
X50814Y18725D01*
X50811Y18724D01*
X50805Y18721D01*
X50799Y18718D01*
X50791Y18715D01*
X50782Y18711D01*
X50772Y18709D01*
X50760Y18706D01*
X50759D01*
X50755Y18705D01*
X50749Y18704D01*
X50741Y18702D01*
X50730Y18701D01*
X50719Y18699D01*
X50706Y18698D01*
X50679D01*
X50667Y18699D01*
X50653Y18701D01*
X50652D01*
X50650Y18702D01*
X50647D01*
X50642Y18703D01*
X50631Y18705D01*
X50619Y18708D01*
X50618D01*
X50616Y18709D01*
X50614Y18709D01*
X50610Y18710D01*
X50600Y18713D01*
X50590Y18717D01*
X50589D01*
X50588Y18718D01*
X50583Y18721D01*
X50575Y18725D01*
X50567Y18730D01*
X50566Y18731D01*
X50563Y18732D01*
X50560Y18735D01*
X50557Y18738D01*
Y18739D01*
X50556Y18741D01*
X50555Y18745D01*
Y18750D01*
Y18751D01*
Y18752D01*
Y18756D01*
Y18757D01*
Y18759D01*
X50556Y18766D01*
Y18767D01*
X50557Y18769D01*
Y18772D01*
X50558Y18776D01*
Y18777D01*
X50559Y18780D01*
X50562Y18786D01*
Y18787D01*
X50563Y18788D01*
X50566Y18793D01*
X50567Y18794D01*
X50568Y18795D01*
X50569Y18796D01*
X50573D01*
X50575Y18795D01*
X50580Y18793D01*
X50585Y18789D01*
X50587Y18788D01*
X50592Y18786D01*
X50600Y18781D01*
X50610Y18775D01*
X50611D01*
X50613Y18774D01*
X50616Y18772D01*
X50620Y18771D01*
X50626Y18769D01*
X50632Y18766D01*
X50647Y18761D01*
X50647D01*
X50650Y18760D01*
X50655Y18759D01*
X50661Y18758D01*
X50667Y18757D01*
X50676Y18756D01*
X50685Y18756D01*
X50700D01*
X50707Y18756D01*
X50714D01*
X50724Y18758D01*
X50733Y18760D01*
X50743Y18762D01*
X50753Y18766D01*
X50754Y18767D01*
X50757Y18768D01*
X50761Y18770D01*
X50768Y18773D01*
X50781Y18781D01*
X50794Y18792D01*
X50795Y18793D01*
X50797Y18795D01*
X50800Y18799D01*
X50803Y18803D01*
X50812Y18815D01*
X50819Y18829D01*
Y18830D01*
X50819Y18833D01*
X50821Y18836D01*
X50823Y18842D01*
X50826Y18854D01*
X50827Y18869D01*
Y18870D01*
Y18872D01*
Y18875D01*
X50826Y18879D01*
X50824Y18889D01*
X50820Y18899D01*
Y18900D01*
X50819Y18902D01*
X50816Y18908D01*
X50810Y18915D01*
X50802Y18924D01*
X50801Y18925D01*
X50800Y18926D01*
X50797Y18928D01*
X50793Y18930D01*
X50788Y18933D01*
X50783Y18936D01*
X50769Y18941D01*
X50768D01*
X50765Y18942D01*
X50761Y18943D01*
X50756Y18944D01*
X50748Y18945D01*
X50740Y18946D01*
X50730Y18947D01*
X50660D01*
X50656Y18948D01*
X50653Y18950D01*
Y18951D01*
X50652Y18953D01*
X50651Y18957D01*
X50650Y18961D01*
Y18962D01*
Y18963D01*
Y18969D01*
Y18970D01*
X50651Y18972D01*
X50652Y18977D01*
Y18978D01*
X50653Y18980D01*
X50655Y18986D01*
Y18987D01*
X50656Y18989D01*
X50660Y18994D01*
X50661Y18995D01*
X50662Y18996D01*
X50665Y19000D01*
X50666Y19001D01*
X50668Y19002D01*
X50671Y19003D01*
X50725D01*
X50731Y19004D01*
X50738D01*
X50746Y19005D01*
X50756Y19006D01*
X50774Y19011D01*
X50775D01*
X50779Y19013D01*
X50784Y19015D01*
X50789Y19018D01*
X50803Y19026D01*
X50818Y19037D01*
X50819Y19037D01*
X50820Y19039D01*
X50824Y19043D01*
X50828Y19047D01*
X50833Y19053D01*
X50838Y19059D01*
X50847Y19073D01*
X50848Y19074D01*
X50849Y19077D01*
X50850Y19082D01*
X50852Y19087D01*
X50854Y19094D01*
X50855Y19101D01*
X50857Y19110D01*
Y19118D01*
Y19119D01*
Y19123D01*
X50856Y19129D01*
X50855Y19135D01*
X50853Y19143D01*
X50850Y19150D01*
X50846Y19158D01*
X50840Y19164D01*
X50839Y19165D01*
X50837Y19167D01*
X50833Y19170D01*
X50827Y19173D01*
X50819Y19176D01*
X50810Y19178D01*
X50799Y19180D01*
X50786Y19181D01*
X50777D01*
X50772Y19180D01*
X50764Y19179D01*
X50756Y19178D01*
X50741Y19174D01*
X50740D01*
X50737Y19173D01*
X50733Y19171D01*
X50728Y19169D01*
X50716Y19164D01*
X50703Y19159D01*
X50702D01*
X50700Y19158D01*
X50697Y19156D01*
X50693Y19154D01*
X50683Y19148D01*
X50674Y19143D01*
X50673D01*
X50672Y19142D01*
X50667Y19140D01*
X50662Y19137D01*
X50657Y19136D01*
X50655D01*
X50653Y19137D01*
X50651Y19139D01*
Y19140D01*
X50650Y19142D01*
X50649Y19145D01*
Y19148D01*
Y19149D01*
Y19151D01*
Y19154D01*
Y19158D01*
Y19159D01*
X50650Y19162D01*
X50651Y19166D01*
X50652Y19171D01*
Y19172D01*
X50653Y19175D01*
X50655Y19179D01*
X50657Y19184D01*
X50658Y19185D01*
X50660Y19188D01*
X50664Y19195D01*
X50665Y19196D01*
X50668Y19198D01*
X50674Y19202D01*
X50682Y19207D01*
X50683D01*
X50685Y19208D01*
X50687Y19209D01*
X50691Y19211D01*
X50701Y19216D01*
X50713Y19221D01*
X50714D01*
X50717Y19222D01*
X50721Y19224D01*
X50725Y19225D01*
X50732Y19227D01*
X50739Y19229D01*
X50756Y19233D01*
X50756D01*
X50759Y19234D01*
X50764Y19235D01*
X50771Y19236D01*
X50777Y19237D01*
X50786Y19238D01*
X50803Y19239D01*
X50815D01*
X50823Y19238D01*
D02*
G37*
G36*
X51255D02*
X51264D01*
X51274Y19236D01*
X51286Y19234D01*
X51297Y19232D01*
X51307Y19228D01*
X51308D01*
X51312Y19226D01*
X51317Y19224D01*
X51322Y19222D01*
X51336Y19214D01*
X51343Y19209D01*
X51349Y19204D01*
X51350Y19203D01*
X51352Y19201D01*
X51355Y19198D01*
X51358Y19194D01*
X51365Y19184D01*
X51368Y19177D01*
X51371Y19171D01*
Y19170D01*
X51372Y19168D01*
X51373Y19164D01*
X51375Y19161D01*
X51377Y19149D01*
X51378Y19137D01*
Y19136D01*
Y19132D01*
X51377Y19128D01*
Y19121D01*
X51375Y19114D01*
X51373Y19105D01*
X51371Y19096D01*
X51367Y19087D01*
Y19086D01*
X51365Y19084D01*
X51364Y19079D01*
X51361Y19073D01*
X51352Y19059D01*
X51341Y19044D01*
X51340Y19043D01*
X51338Y19040D01*
X51334Y19037D01*
X51330Y19032D01*
X51323Y19026D01*
X51317Y19021D01*
X51300Y19007D01*
X51299Y19006D01*
X51296Y19005D01*
X51290Y19002D01*
X51285Y18998D01*
X51276Y18993D01*
X51268Y18988D01*
X51257Y18983D01*
X51247Y18977D01*
X51248Y18976D01*
X51251Y18975D01*
X51256Y18973D01*
X51261Y18969D01*
X51275Y18960D01*
X51289Y18950D01*
X51290Y18949D01*
X51292Y18947D01*
X51296Y18944D01*
X51300Y18942D01*
X51309Y18932D01*
X51318Y18921D01*
X51319Y18920D01*
X51320Y18918D01*
X51322Y18915D01*
X51325Y18912D01*
X51331Y18902D01*
X51335Y18891D01*
Y18890D01*
X51336Y18888D01*
X51337Y18885D01*
X51338Y18881D01*
X51340Y18870D01*
X51341Y18857D01*
Y18856D01*
Y18854D01*
Y18850D01*
X51340Y18846D01*
X51339Y18834D01*
X51335Y18819D01*
Y18819D01*
X51334Y18817D01*
X51334Y18813D01*
X51332Y18808D01*
X51327Y18796D01*
X51320Y18783D01*
Y18782D01*
X51318Y18780D01*
X51317Y18776D01*
X51313Y18772D01*
X51305Y18761D01*
X51294Y18749D01*
X51293Y18748D01*
X51291Y18746D01*
X51287Y18743D01*
X51283Y18740D01*
X51277Y18736D01*
X51271Y18731D01*
X51255Y18723D01*
X51254D01*
X51251Y18721D01*
X51246Y18719D01*
X51240Y18716D01*
X51232Y18713D01*
X51223Y18710D01*
X51213Y18708D01*
X51202Y18705D01*
X51201D01*
X51196Y18704D01*
X51191Y18703D01*
X51182Y18702D01*
X51172Y18700D01*
X51161Y18699D01*
X51148Y18698D01*
X51120D01*
X51111Y18699D01*
X51100Y18700D01*
X51089Y18701D01*
X51077Y18703D01*
X51066Y18706D01*
X51065D01*
X51061Y18708D01*
X51055Y18709D01*
X51050Y18711D01*
X51034Y18719D01*
X51019Y18728D01*
X51018Y18729D01*
X51016Y18731D01*
X51012Y18734D01*
X51008Y18739D01*
X50999Y18749D01*
X50990Y18763D01*
Y18764D01*
X50990Y18767D01*
X50988Y18771D01*
X50987Y18776D01*
X50985Y18783D01*
X50983Y18790D01*
X50982Y18806D01*
Y18807D01*
Y18811D01*
X50983Y18817D01*
Y18823D01*
X50984Y18831D01*
X50986Y18839D01*
X50991Y18857D01*
X50992Y18858D01*
X50993Y18861D01*
X50995Y18865D01*
X50999Y18872D01*
X51003Y18879D01*
X51007Y18886D01*
X51020Y18902D01*
X51021Y18903D01*
X51023Y18906D01*
X51027Y18910D01*
X51033Y18915D01*
X51039Y18921D01*
X51048Y18928D01*
X51057Y18935D01*
X51067Y18942D01*
X51068Y18943D01*
X51071Y18944D01*
X51078Y18948D01*
X51085Y18953D01*
X51095Y18958D01*
X51106Y18964D01*
X51118Y18970D01*
X51131Y18976D01*
X51130Y18977D01*
X51125Y18980D01*
X51118Y18985D01*
X51110Y18991D01*
X51100Y18998D01*
X51091Y19006D01*
X51082Y19016D01*
X51074Y19025D01*
X51073Y19026D01*
X51071Y19030D01*
X51068Y19036D01*
X51066Y19043D01*
X51062Y19053D01*
X51059Y19063D01*
X51057Y19074D01*
X51056Y19086D01*
Y19087D01*
Y19089D01*
Y19093D01*
X51057Y19098D01*
X51058Y19109D01*
X51060Y19122D01*
Y19123D01*
X51061Y19125D01*
X51062Y19129D01*
X51064Y19133D01*
X51068Y19146D01*
X51074Y19158D01*
X51075Y19159D01*
X51076Y19161D01*
X51078Y19164D01*
X51081Y19168D01*
X51089Y19178D01*
X51099Y19189D01*
X51099Y19190D01*
X51101Y19192D01*
X51104Y19194D01*
X51109Y19197D01*
X51114Y19202D01*
X51120Y19206D01*
X51134Y19214D01*
X51135Y19215D01*
X51138Y19216D01*
X51142Y19218D01*
X51148Y19221D01*
X51155Y19224D01*
X51162Y19226D01*
X51181Y19232D01*
X51182D01*
X51186Y19233D01*
X51192Y19234D01*
X51198Y19236D01*
X51208Y19237D01*
X51217Y19238D01*
X51228Y19239D01*
X51247D01*
X51255Y19238D01*
D02*
G37*
G36*
X51037Y7873D02*
X51046D01*
X51057Y7871D01*
X51067Y7869D01*
X51077Y7866D01*
X51088Y7862D01*
X51088Y7861D01*
X51092Y7860D01*
X51096Y7857D01*
X51103Y7855D01*
X51116Y7845D01*
X51122Y7840D01*
X51128Y7834D01*
X51129Y7833D01*
X51131Y7831D01*
X51133Y7828D01*
X51136Y7824D01*
X51143Y7812D01*
X51149Y7798D01*
Y7797D01*
X51150Y7795D01*
X51151Y7791D01*
X51152Y7786D01*
X51154Y7775D01*
X51155Y7762D01*
Y7761D01*
Y7759D01*
Y7755D01*
Y7751D01*
X51154Y7740D01*
X51152Y7727D01*
Y7726D01*
X51151Y7724D01*
Y7720D01*
X51151Y7716D01*
X51147Y7704D01*
X51142Y7690D01*
Y7689D01*
X51141Y7687D01*
X51139Y7683D01*
X51137Y7678D01*
X51135Y7672D01*
X51131Y7665D01*
X51122Y7650D01*
X51121Y7649D01*
X51120Y7646D01*
X51118Y7641D01*
X51114Y7636D01*
X51109Y7629D01*
X51104Y7621D01*
X51089Y7603D01*
X51088Y7602D01*
X51086Y7598D01*
X51081Y7593D01*
X51075Y7587D01*
X51068Y7579D01*
X51059Y7570D01*
X51050Y7560D01*
X51040Y7549D01*
X51039Y7548D01*
X51035Y7545D01*
X51028Y7538D01*
X51021Y7530D01*
X51010Y7521D01*
X50999Y7511D01*
X50986Y7498D01*
X50971Y7486D01*
X50870Y7400D01*
X51094D01*
X51097Y7399D01*
X51100Y7398D01*
X51103Y7394D01*
X51104Y7393D01*
X51104Y7391D01*
X51105Y7388D01*
X51106Y7383D01*
Y7382D01*
Y7381D01*
X51105Y7375D01*
Y7374D01*
X51104Y7373D01*
X51104Y7367D01*
Y7366D01*
X51103Y7364D01*
X51102Y7360D01*
X51101Y7357D01*
Y7356D01*
X51100Y7354D01*
X51096Y7348D01*
X51094Y7346D01*
X51089Y7342D01*
X51088Y7342D01*
X51083Y7341D01*
X50790D01*
X50784Y7342D01*
X50783D01*
X50782Y7342D01*
X50778Y7344D01*
Y7345D01*
X50777Y7346D01*
X50776Y7350D01*
Y7351D01*
Y7352D01*
X50775Y7358D01*
Y7358D01*
Y7360D01*
Y7363D01*
Y7368D01*
Y7369D01*
X50776Y7373D01*
X50776Y7376D01*
X50777Y7382D01*
X50778Y7383D01*
X50779Y7387D01*
X50782Y7391D01*
X50785Y7397D01*
X50786Y7399D01*
X50789Y7403D01*
X50792Y7407D01*
X50798Y7413D01*
X50933Y7531D01*
X50935Y7532D01*
X50939Y7536D01*
X50945Y7542D01*
X50952Y7548D01*
X50961Y7556D01*
X50970Y7564D01*
X50988Y7583D01*
X50989Y7584D01*
X50992Y7587D01*
X50996Y7592D01*
X51002Y7598D01*
X51008Y7605D01*
X51014Y7612D01*
X51026Y7628D01*
X51027Y7629D01*
X51029Y7632D01*
X51032Y7636D01*
X51036Y7640D01*
X51044Y7654D01*
X51052Y7667D01*
Y7668D01*
X51054Y7670D01*
X51055Y7673D01*
X51057Y7677D01*
X51062Y7687D01*
X51066Y7699D01*
Y7700D01*
X51067Y7701D01*
X51068Y7704D01*
X51069Y7708D01*
X51072Y7717D01*
X51073Y7725D01*
Y7726D01*
Y7727D01*
X51074Y7733D01*
X51075Y7739D01*
Y7747D01*
Y7748D01*
Y7748D01*
Y7753D01*
X51073Y7760D01*
X51072Y7767D01*
Y7768D01*
X51071Y7769D01*
X51070Y7774D01*
X51066Y7780D01*
X51061Y7788D01*
Y7789D01*
X51060Y7790D01*
X51056Y7794D01*
X51049Y7799D01*
X51040Y7805D01*
X51039D01*
X51037Y7806D01*
X51034Y7807D01*
X51030Y7809D01*
X51026Y7810D01*
X51020Y7811D01*
X51005Y7811D01*
X50996D01*
X50991Y7811D01*
X50983Y7810D01*
X50976Y7809D01*
X50960Y7804D01*
X50959D01*
X50956Y7803D01*
X50952Y7801D01*
X50948Y7799D01*
X50935Y7795D01*
X50922Y7789D01*
X50921D01*
X50919Y7788D01*
X50917Y7786D01*
X50912Y7784D01*
X50902Y7779D01*
X50893Y7773D01*
X50891Y7772D01*
X50887Y7770D01*
X50882Y7767D01*
X50878Y7766D01*
X50877D01*
X50876Y7767D01*
X50873Y7768D01*
X50871Y7770D01*
Y7771D01*
X50870Y7773D01*
X50870Y7777D01*
Y7781D01*
Y7782D01*
Y7784D01*
Y7789D01*
Y7790D01*
X50870Y7792D01*
Y7796D01*
Y7797D01*
X50871Y7799D01*
X50872Y7806D01*
Y7807D01*
X50873Y7809D01*
X50876Y7814D01*
Y7815D01*
X50877Y7817D01*
X50880Y7822D01*
Y7823D01*
X50881Y7825D01*
X50885Y7829D01*
X50886Y7830D01*
X50888Y7832D01*
X50894Y7836D01*
X50902Y7841D01*
X50903D01*
X50905Y7842D01*
X50908Y7843D01*
X50912Y7845D01*
X50921Y7850D01*
X50934Y7855D01*
X50935D01*
X50938Y7856D01*
X50942Y7857D01*
X50947Y7859D01*
X50953Y7861D01*
X50960Y7863D01*
X50976Y7868D01*
X50977D01*
X50979Y7869D01*
X50984Y7870D01*
X50991Y7871D01*
X50997Y7872D01*
X51006Y7873D01*
X51024Y7873D01*
X51030D01*
X51037Y7873D01*
D02*
G37*
G36*
X8911Y22201D02*
X8918Y22200D01*
X8919D01*
X8921Y22199D01*
X8925Y22198D01*
X8928Y22196D01*
Y22195D01*
X8929Y22194D01*
X8930Y22192D01*
X8929Y22188D01*
Y22187D01*
X8928Y22184D01*
X8926Y22180D01*
X8923Y22174D01*
X8654Y21685D01*
Y21684D01*
X8652Y21682D01*
X8647Y21677D01*
X8646D01*
X8645Y21676D01*
X8642Y21675D01*
X8638Y21674D01*
X8638D01*
X8635Y21673D01*
X8631D01*
X8625Y21672D01*
X8620D01*
X8614Y21671D01*
X8591D01*
X8584Y21672D01*
X8583D01*
X8579Y21673D01*
X8575D01*
X8571Y21674D01*
X8570D01*
X8568Y21675D01*
X8563Y21677D01*
Y21678D01*
X8562Y21680D01*
X8561Y21686D01*
X8487Y22177D01*
Y22178D01*
X8486Y22182D01*
X8485Y22186D01*
Y22190D01*
Y22191D01*
X8486Y22192D01*
X8487Y22195D01*
X8489Y22197D01*
X8490Y22198D01*
X8492Y22199D01*
X8495Y22200D01*
X8499Y22201D01*
X8500D01*
X8505Y22202D01*
X8532D01*
X8539Y22201D01*
X8540D01*
X8544Y22200D01*
X8546Y22199D01*
X8550Y22198D01*
X8551D01*
X8552Y22197D01*
X8554Y22196D01*
X8555Y22194D01*
Y22193D01*
X8556Y22192D01*
X8558Y22187D01*
X8619Y21745D01*
X8620D01*
X8855Y22188D01*
Y22189D01*
X8856Y22190D01*
X8858Y22194D01*
X8859Y22195D01*
X8860Y22196D01*
X8866Y22198D01*
X8867D01*
X8869Y22199D01*
X8873Y22200D01*
X8877Y22201D01*
X8878D01*
X8883Y22202D01*
X8904D01*
X8911Y22201D01*
D02*
G37*
G36*
X7751Y22197D02*
X7754Y22195D01*
X7755Y22194D01*
X7756Y22192D01*
X7757Y22189D01*
X7758Y22183D01*
Y22182D01*
Y22181D01*
X7757Y22176D01*
Y22175D01*
X7756Y22173D01*
Y22170D01*
X7755Y22166D01*
Y22165D01*
X7754Y22163D01*
X7753Y22160D01*
X7752Y22156D01*
Y22155D01*
X7751Y22153D01*
X7748Y22146D01*
Y22146D01*
X7747Y22145D01*
X7742Y22140D01*
X7741D01*
X7739Y22139D01*
X7733Y22138D01*
X7537D01*
X7508Y21990D01*
X7511D01*
X7513Y21991D01*
X7516D01*
X7525Y21992D01*
X7534Y21993D01*
X7536D01*
X7542Y21994D01*
X7568D01*
X7577Y21993D01*
X7587D01*
X7599Y21991D01*
X7611Y21989D01*
X7624Y21988D01*
X7637Y21984D01*
X7638D01*
X7642Y21982D01*
X7648Y21980D01*
X7655Y21977D01*
X7671Y21969D01*
X7680Y21964D01*
X7687Y21958D01*
X7688Y21958D01*
X7690Y21956D01*
X7694Y21952D01*
X7699Y21948D01*
X7703Y21942D01*
X7708Y21936D01*
X7712Y21928D01*
X7716Y21920D01*
Y21919D01*
X7717Y21916D01*
X7718Y21911D01*
X7720Y21906D01*
X7722Y21899D01*
X7723Y21892D01*
X7725Y21874D01*
Y21873D01*
Y21869D01*
Y21865D01*
X7724Y21858D01*
X7723Y21849D01*
X7722Y21841D01*
X7718Y21822D01*
Y21821D01*
X7717Y21818D01*
X7716Y21813D01*
X7714Y21806D01*
X7711Y21799D01*
X7708Y21791D01*
X7700Y21773D01*
X7699Y21772D01*
X7698Y21770D01*
X7695Y21765D01*
X7691Y21759D01*
X7681Y21745D01*
X7668Y21730D01*
X7667Y21729D01*
X7664Y21727D01*
X7660Y21724D01*
X7655Y21719D01*
X7649Y21713D01*
X7640Y21708D01*
X7632Y21702D01*
X7623Y21696D01*
X7622Y21695D01*
X7618Y21694D01*
X7613Y21692D01*
X7606Y21688D01*
X7597Y21685D01*
X7588Y21681D01*
X7577Y21677D01*
X7565Y21674D01*
X7563D01*
X7560Y21673D01*
X7553Y21672D01*
X7545Y21670D01*
X7534Y21669D01*
X7522Y21667D01*
X7508Y21666D01*
X7483D01*
X7471Y21667D01*
X7458Y21669D01*
X7455D01*
X7452Y21670D01*
X7448D01*
X7437Y21672D01*
X7426Y21674D01*
X7425D01*
X7423Y21675D01*
X7421Y21676D01*
X7417Y21677D01*
X7408Y21679D01*
X7398Y21682D01*
X7397D01*
X7396Y21683D01*
X7390Y21685D01*
X7384Y21689D01*
X7376Y21693D01*
X7375Y21693D01*
X7374Y21694D01*
X7371Y21696D01*
X7368Y21699D01*
Y21700D01*
X7367Y21702D01*
X7366Y21706D01*
Y21710D01*
Y21712D01*
Y21716D01*
Y21717D01*
Y21719D01*
X7367Y21725D01*
Y21726D01*
X7368Y21729D01*
X7369Y21736D01*
Y21737D01*
X7370Y21740D01*
X7373Y21745D01*
X7374Y21746D01*
X7374Y21748D01*
X7377Y21753D01*
X7378Y21754D01*
X7379Y21755D01*
X7381Y21755D01*
X7384Y21756D01*
X7385D01*
X7387Y21755D01*
X7390Y21755D01*
X7396Y21751D01*
X7398Y21750D01*
X7402Y21748D01*
X7409Y21744D01*
X7418Y21740D01*
X7419D01*
X7421Y21739D01*
X7423Y21738D01*
X7427Y21736D01*
X7437Y21732D01*
X7451Y21728D01*
X7452D01*
X7454Y21727D01*
X7458Y21726D01*
X7464D01*
X7470Y21725D01*
X7479Y21724D01*
X7488Y21724D01*
X7504D01*
X7512Y21724D01*
X7520Y21725D01*
X7530Y21726D01*
X7542Y21728D01*
X7553Y21731D01*
X7564Y21735D01*
X7565Y21736D01*
X7569Y21737D01*
X7575Y21740D01*
X7581Y21743D01*
X7596Y21754D01*
X7611Y21767D01*
X7612Y21768D01*
X7614Y21771D01*
X7618Y21774D01*
X7623Y21780D01*
X7627Y21786D01*
X7632Y21794D01*
X7637Y21802D01*
X7640Y21812D01*
Y21813D01*
X7642Y21817D01*
X7643Y21822D01*
X7645Y21829D01*
X7647Y21837D01*
X7648Y21847D01*
X7650Y21867D01*
Y21868D01*
Y21870D01*
Y21872D01*
X7649Y21876D01*
X7648Y21884D01*
X7644Y21894D01*
Y21895D01*
X7643Y21896D01*
X7640Y21901D01*
X7635Y21909D01*
X7626Y21916D01*
X7625Y21917D01*
X7624Y21918D01*
X7621Y21920D01*
X7617Y21922D01*
X7612Y21925D01*
X7607Y21927D01*
X7592Y21932D01*
X7592D01*
X7589Y21933D01*
X7584Y21934D01*
X7578Y21935D01*
X7571Y21936D01*
X7562Y21937D01*
X7552Y21938D01*
X7524D01*
X7515Y21937D01*
X7508D01*
X7491Y21935D01*
X7487D01*
X7483Y21934D01*
X7479D01*
X7468Y21933D01*
X7453D01*
X7450Y21934D01*
X7445Y21935D01*
X7441Y21938D01*
Y21939D01*
X7440Y21942D01*
Y21949D01*
X7441Y21958D01*
X7484Y22172D01*
Y22173D01*
Y22174D01*
X7486Y22179D01*
X7489Y22187D01*
X7494Y22192D01*
X7495Y22193D01*
X7499Y22196D01*
X7505Y22198D01*
X7513Y22199D01*
X7748D01*
X7751Y22197D01*
D02*
G37*
G36*
X7873Y21764D02*
X7878Y21762D01*
X7879D01*
X7883Y21761D01*
X7886Y21759D01*
X7889Y21756D01*
X7890Y21755D01*
X7891Y21754D01*
X7893Y21751D01*
X7895Y21747D01*
Y21746D01*
X7896Y21744D01*
X7897Y21740D01*
Y21736D01*
Y21735D01*
Y21732D01*
X7896Y21727D01*
X7895Y21722D01*
Y21721D01*
X7894Y21717D01*
X7893Y21711D01*
X7892Y21706D01*
Y21705D01*
X7891Y21701D01*
X7889Y21696D01*
X7887Y21691D01*
X7886Y21690D01*
X7885Y21687D01*
X7879Y21679D01*
X7878Y21678D01*
X7875Y21677D01*
X7872Y21675D01*
X7865Y21673D01*
X7863D01*
X7859Y21672D01*
X7852Y21671D01*
X7842Y21670D01*
X7836D01*
X7830Y21671D01*
X7824Y21672D01*
X7823D01*
X7820Y21673D01*
X7812Y21677D01*
X7811Y21677D01*
X7811Y21679D01*
X7809Y21682D01*
X7807Y21686D01*
Y21687D01*
Y21690D01*
X7806Y21693D01*
Y21698D01*
Y21699D01*
Y21703D01*
Y21707D01*
X7807Y21712D01*
Y21714D01*
X7808Y21718D01*
X7809Y21723D01*
X7810Y21728D01*
Y21730D01*
X7811Y21733D01*
X7812Y21739D01*
X7814Y21743D01*
X7815Y21744D01*
X7817Y21747D01*
X7823Y21755D01*
X7824Y21755D01*
X7826Y21757D01*
X7830Y21760D01*
X7836Y21762D01*
X7838Y21763D01*
X7842Y21764D01*
X7849Y21765D01*
X7866D01*
X7873Y21764D01*
D02*
G37*
G36*
X8275Y22206D02*
X8284D01*
X8295Y22204D01*
X8306Y22202D01*
X8317Y22199D01*
X8327Y22195D01*
X8328D01*
X8332Y22193D01*
X8337Y22191D01*
X8343Y22188D01*
X8350Y22183D01*
X8357Y22177D01*
X8365Y22172D01*
X8372Y22164D01*
X8373Y22163D01*
X8374Y22161D01*
X8377Y22157D01*
X8382Y22151D01*
X8386Y22144D01*
X8389Y22135D01*
X8394Y22126D01*
X8397Y22115D01*
Y22114D01*
X8398Y22111D01*
X8400Y22104D01*
X8402Y22097D01*
X8403Y22086D01*
X8404Y22075D01*
X8405Y22063D01*
Y22049D01*
Y22048D01*
Y22046D01*
Y22042D01*
Y22036D01*
X8404Y22030D01*
Y22022D01*
X8404Y22014D01*
X8403Y22005D01*
Y22004D01*
Y22000D01*
X8402Y21995D01*
X8401Y21989D01*
X8400Y21980D01*
X8399Y21971D01*
X8395Y21949D01*
Y21948D01*
X8394Y21944D01*
X8393Y21938D01*
X8391Y21930D01*
X8389Y21922D01*
X8388Y21911D01*
X8382Y21888D01*
Y21887D01*
X8381Y21882D01*
X8379Y21877D01*
X8376Y21868D01*
X8373Y21859D01*
X8371Y21848D01*
X8362Y21825D01*
X8361Y21824D01*
X8360Y21820D01*
X8357Y21814D01*
X8354Y21806D01*
X8350Y21798D01*
X8345Y21787D01*
X8334Y21767D01*
X8333Y21766D01*
X8331Y21762D01*
X8327Y21757D01*
X8324Y21751D01*
X8318Y21743D01*
X8311Y21735D01*
X8297Y21719D01*
X8296Y21718D01*
X8294Y21715D01*
X8288Y21710D01*
X8281Y21706D01*
X8273Y21699D01*
X8263Y21693D01*
X8251Y21686D01*
X8239Y21680D01*
X8237Y21679D01*
X8233Y21678D01*
X8226Y21676D01*
X8217Y21674D01*
X8205Y21671D01*
X8191Y21668D01*
X8176Y21667D01*
X8160Y21666D01*
X8154D01*
X8147Y21667D01*
X8138D01*
X8127Y21669D01*
X8116Y21671D01*
X8105Y21673D01*
X8094Y21677D01*
X8093Y21677D01*
X8090Y21678D01*
X8085Y21681D01*
X8078Y21684D01*
X8064Y21693D01*
X8049Y21707D01*
X8048Y21708D01*
X8046Y21710D01*
X8044Y21714D01*
X8040Y21720D01*
X8036Y21727D01*
X8031Y21736D01*
X8028Y21745D01*
X8024Y21755D01*
Y21756D01*
X8023Y21761D01*
X8022Y21767D01*
X8020Y21775D01*
X8019Y21786D01*
X8017Y21797D01*
X8016Y21809D01*
Y21823D01*
Y21824D01*
Y21826D01*
Y21830D01*
Y21835D01*
X8017Y21842D01*
Y21849D01*
Y21857D01*
X8018Y21866D01*
Y21867D01*
Y21871D01*
X8019Y21877D01*
X8020Y21883D01*
X8021Y21892D01*
X8022Y21901D01*
X8025Y21922D01*
Y21923D01*
X8026Y21927D01*
X8027Y21933D01*
X8029Y21941D01*
X8030Y21950D01*
X8032Y21960D01*
X8038Y21984D01*
Y21986D01*
X8040Y21989D01*
X8042Y21995D01*
X8044Y22004D01*
X8046Y22013D01*
X8050Y22023D01*
X8059Y22046D01*
X8060Y22048D01*
X8061Y22052D01*
X8063Y22057D01*
X8067Y22065D01*
X8071Y22074D01*
X8076Y22083D01*
X8087Y22104D01*
X8088Y22105D01*
X8090Y22109D01*
X8093Y22114D01*
X8097Y22121D01*
X8103Y22129D01*
X8109Y22137D01*
X8123Y22153D01*
X8124Y22154D01*
X8125Y22155D01*
X8132Y22161D01*
X8140Y22167D01*
X8151Y22175D01*
X8152Y22176D01*
X8154Y22177D01*
X8156Y22178D01*
X8160Y22180D01*
X8170Y22186D01*
X8183Y22192D01*
X8184D01*
X8186Y22192D01*
X8189Y22194D01*
X8194Y22196D01*
X8205Y22199D01*
X8219Y22203D01*
X8220D01*
X8223Y22204D01*
X8227D01*
X8232Y22205D01*
X8238Y22206D01*
X8245D01*
X8261Y22207D01*
X8267D01*
X8275Y22206D01*
D02*
G37*
G36*
X39500Y1358D02*
X39507Y1357D01*
X39507D01*
X39508Y1356D01*
X39510D01*
X39512Y1356D01*
X39517Y1354D01*
X39523Y1353D01*
X39523D01*
X39524Y1353D01*
X39527Y1352D01*
X39531Y1350D01*
X39535Y1348D01*
X39535D01*
X39536Y1347D01*
X39538Y1346D01*
X39540Y1345D01*
X39542Y1343D01*
X39542Y1343D01*
X39543Y1342D01*
X39545Y1339D01*
Y1339D01*
X39545Y1338D01*
X39546Y1337D01*
Y1335D01*
Y1334D01*
Y1334D01*
X39545Y1331D01*
Y1331D01*
Y1330D01*
X39544Y1327D01*
Y1326D01*
X39544Y1325D01*
X39543Y1323D01*
X39543Y1322D01*
Y1321D01*
X39542Y1320D01*
X39541Y1317D01*
Y1317D01*
X39541Y1316D01*
X39539Y1314D01*
X39538Y1314D01*
X39536Y1313D01*
X39536D01*
X39534Y1314D01*
X39533Y1314D01*
X39530Y1315D01*
X39529Y1316D01*
X39527Y1317D01*
X39524Y1319D01*
X39520Y1321D01*
X39519D01*
X39519Y1322D01*
X39517Y1322D01*
X39516Y1323D01*
X39511Y1325D01*
X39505Y1327D01*
X39505D01*
X39504Y1327D01*
X39502Y1328D01*
X39500Y1328D01*
X39497Y1329D01*
X39494Y1329D01*
X39486Y1330D01*
X39481D01*
X39478Y1329D01*
X39471Y1328D01*
X39464Y1326D01*
X39463D01*
X39463Y1325D01*
X39461Y1324D01*
X39458Y1323D01*
X39454Y1320D01*
X39448Y1315D01*
X39448Y1315D01*
X39447Y1315D01*
X39447Y1313D01*
X39445Y1311D01*
X39442Y1307D01*
X39439Y1301D01*
Y1300D01*
X39439Y1299D01*
X39438Y1298D01*
X39438Y1296D01*
X39437Y1291D01*
X39436Y1284D01*
Y1284D01*
Y1283D01*
Y1281D01*
X39437Y1279D01*
X39438Y1274D01*
X39440Y1268D01*
Y1268D01*
X39440Y1268D01*
X39443Y1265D01*
X39446Y1260D01*
X39450Y1256D01*
X39450Y1256D01*
X39451Y1255D01*
X39452Y1254D01*
X39454Y1253D01*
X39459Y1250D01*
X39464Y1246D01*
X39465D01*
X39466Y1245D01*
X39468Y1244D01*
X39470Y1243D01*
X39475Y1240D01*
X39481Y1236D01*
X39482D01*
X39483Y1235D01*
X39485Y1234D01*
X39486Y1233D01*
X39492Y1229D01*
X39498Y1225D01*
X39499Y1224D01*
X39500Y1224D01*
X39501Y1222D01*
X39503Y1221D01*
X39508Y1217D01*
X39513Y1212D01*
X39513Y1211D01*
X39514Y1210D01*
X39515Y1209D01*
X39517Y1206D01*
X39520Y1201D01*
X39523Y1194D01*
Y1194D01*
X39524Y1192D01*
X39525Y1190D01*
X39525Y1188D01*
X39526Y1184D01*
X39527Y1181D01*
X39527Y1171D01*
Y1170D01*
Y1168D01*
X39527Y1165D01*
X39526Y1161D01*
X39525Y1156D01*
X39524Y1151D01*
X39522Y1144D01*
X39520Y1139D01*
X39519Y1138D01*
X39518Y1136D01*
X39517Y1134D01*
X39515Y1130D01*
X39512Y1126D01*
X39509Y1121D01*
X39504Y1117D01*
X39500Y1112D01*
X39499Y1112D01*
X39497Y1111D01*
X39494Y1109D01*
X39491Y1106D01*
X39486Y1104D01*
X39481Y1101D01*
X39475Y1098D01*
X39468Y1095D01*
X39467Y1095D01*
X39465Y1094D01*
X39461Y1093D01*
X39456Y1092D01*
X39450Y1090D01*
X39443Y1089D01*
X39436Y1089D01*
X39427Y1089D01*
X39423D01*
X39420Y1089D01*
X39416D01*
X39412Y1089D01*
X39404Y1091D01*
X39403D01*
X39402Y1091D01*
X39400Y1092D01*
X39398Y1092D01*
X39392Y1094D01*
X39385Y1096D01*
X39384D01*
X39384Y1096D01*
X39382Y1097D01*
X39380Y1097D01*
X39375Y1100D01*
X39370Y1102D01*
X39369Y1103D01*
X39367Y1104D01*
X39364Y1106D01*
X39362Y1108D01*
X39361Y1109D01*
X39361Y1110D01*
X39360Y1112D01*
X39360Y1116D01*
Y1116D01*
Y1117D01*
Y1120D01*
Y1120D01*
X39360Y1121D01*
X39361Y1124D01*
Y1125D01*
X39361Y1126D01*
X39361Y1129D01*
Y1130D01*
X39362Y1131D01*
X39363Y1134D01*
X39364Y1135D01*
X39364Y1135D01*
X39366Y1138D01*
X39367Y1138D01*
X39367Y1139D01*
X39368Y1139D01*
X39370D01*
X39371Y1139D01*
X39374Y1138D01*
X39377Y1136D01*
X39377D01*
X39378Y1135D01*
X39380Y1134D01*
X39384Y1131D01*
X39389Y1128D01*
X39390D01*
X39391Y1128D01*
X39392Y1127D01*
X39394Y1126D01*
X39400Y1124D01*
X39407Y1121D01*
X39407D01*
X39408Y1121D01*
X39410Y1120D01*
X39413Y1120D01*
X39416Y1120D01*
X39421Y1119D01*
X39425Y1119D01*
X39435D01*
X39439Y1119D01*
X39442Y1120D01*
X39447Y1120D01*
X39455Y1122D01*
X39455D01*
X39457Y1123D01*
X39459Y1124D01*
X39462Y1125D01*
X39468Y1128D01*
X39474Y1133D01*
X39474Y1133D01*
X39475Y1134D01*
X39477Y1135D01*
X39478Y1137D01*
X39482Y1143D01*
X39486Y1149D01*
Y1149D01*
X39486Y1151D01*
X39487Y1152D01*
X39488Y1155D01*
X39488Y1158D01*
X39489Y1161D01*
X39490Y1168D01*
Y1169D01*
Y1170D01*
Y1172D01*
X39489Y1174D01*
X39488Y1179D01*
X39486Y1184D01*
Y1184D01*
X39485Y1185D01*
X39483Y1188D01*
X39480Y1192D01*
X39476Y1197D01*
X39475Y1197D01*
X39475Y1198D01*
X39473Y1198D01*
X39471Y1200D01*
X39467Y1203D01*
X39461Y1207D01*
X39461D01*
X39460Y1208D01*
X39458Y1209D01*
X39456Y1210D01*
X39451Y1213D01*
X39445Y1216D01*
X39444Y1217D01*
X39443Y1217D01*
X39441Y1218D01*
X39439Y1220D01*
X39434Y1223D01*
X39428Y1227D01*
X39428Y1228D01*
X39427Y1228D01*
X39425Y1229D01*
X39423Y1231D01*
X39419Y1236D01*
X39414Y1241D01*
X39413Y1241D01*
X39413Y1242D01*
X39411Y1244D01*
X39410Y1246D01*
X39407Y1251D01*
X39404Y1258D01*
Y1259D01*
X39403Y1260D01*
X39403Y1262D01*
X39402Y1265D01*
X39401Y1268D01*
X39400Y1272D01*
X39400Y1281D01*
Y1282D01*
Y1284D01*
X39400Y1287D01*
X39401Y1291D01*
X39401Y1296D01*
X39403Y1300D01*
X39404Y1306D01*
X39406Y1311D01*
X39407Y1312D01*
X39407Y1314D01*
X39408Y1316D01*
X39411Y1320D01*
X39413Y1323D01*
X39416Y1328D01*
X39420Y1331D01*
X39423Y1336D01*
X39424Y1336D01*
X39425Y1338D01*
X39428Y1339D01*
X39431Y1342D01*
X39436Y1345D01*
X39440Y1347D01*
X39446Y1350D01*
X39452Y1353D01*
X39453Y1353D01*
X39455Y1354D01*
X39458Y1354D01*
X39463Y1356D01*
X39468Y1357D01*
X39474Y1358D01*
X39481Y1358D01*
X39488Y1359D01*
X39494D01*
X39500Y1358D01*
D02*
G37*
G36*
X38400D02*
X38406Y1357D01*
X38407D01*
X38408Y1356D01*
X38409D01*
X38411Y1356D01*
X38417Y1354D01*
X38422Y1353D01*
X38423D01*
X38424Y1353D01*
X38426Y1352D01*
X38431Y1350D01*
X38434Y1348D01*
X38435D01*
X38435Y1347D01*
X38437Y1346D01*
X38440Y1345D01*
X38441Y1343D01*
X38442Y1343D01*
X38442Y1342D01*
X38444Y1339D01*
Y1339D01*
X38445Y1338D01*
X38445Y1337D01*
Y1335D01*
Y1334D01*
Y1334D01*
X38445Y1331D01*
Y1331D01*
Y1330D01*
X38444Y1327D01*
Y1326D01*
X38443Y1325D01*
X38443Y1323D01*
X38442Y1322D01*
Y1321D01*
X38442Y1320D01*
X38441Y1317D01*
Y1317D01*
X38440Y1316D01*
X38439Y1314D01*
X38438Y1314D01*
X38436Y1313D01*
X38435D01*
X38434Y1314D01*
X38432Y1314D01*
X38429Y1315D01*
X38429Y1316D01*
X38426Y1317D01*
X38424Y1319D01*
X38419Y1321D01*
X38419D01*
X38418Y1322D01*
X38417Y1322D01*
X38415Y1323D01*
X38410Y1325D01*
X38405Y1327D01*
X38404D01*
X38403Y1327D01*
X38401Y1328D01*
X38399Y1328D01*
X38396Y1329D01*
X38393Y1329D01*
X38385Y1330D01*
X38381D01*
X38378Y1329D01*
X38371Y1328D01*
X38363Y1326D01*
X38363D01*
X38362Y1325D01*
X38360Y1324D01*
X38358Y1323D01*
X38353Y1320D01*
X38348Y1315D01*
X38347Y1315D01*
X38347Y1315D01*
X38346Y1313D01*
X38345Y1311D01*
X38341Y1307D01*
X38339Y1301D01*
Y1300D01*
X38338Y1299D01*
X38338Y1298D01*
X38337Y1296D01*
X38336Y1291D01*
X38336Y1284D01*
Y1284D01*
Y1283D01*
Y1281D01*
X38336Y1279D01*
X38337Y1274D01*
X38339Y1268D01*
Y1268D01*
X38340Y1268D01*
X38342Y1265D01*
X38345Y1260D01*
X38349Y1256D01*
X38350Y1256D01*
X38350Y1255D01*
X38352Y1254D01*
X38354Y1253D01*
X38358Y1250D01*
X38364Y1246D01*
X38364D01*
X38365Y1245D01*
X38367Y1244D01*
X38369Y1243D01*
X38375Y1240D01*
X38381Y1236D01*
X38381D01*
X38382Y1235D01*
X38384Y1234D01*
X38386Y1233D01*
X38392Y1229D01*
X38398Y1225D01*
X38398Y1224D01*
X38399Y1224D01*
X38401Y1222D01*
X38403Y1221D01*
X38408Y1217D01*
X38412Y1212D01*
X38413Y1211D01*
X38413Y1210D01*
X38415Y1209D01*
X38416Y1206D01*
X38419Y1201D01*
X38423Y1194D01*
Y1194D01*
X38423Y1192D01*
X38424Y1190D01*
X38425Y1188D01*
X38425Y1184D01*
X38426Y1181D01*
X38427Y1171D01*
Y1170D01*
Y1168D01*
X38426Y1165D01*
X38426Y1161D01*
X38425Y1156D01*
X38424Y1151D01*
X38422Y1144D01*
X38419Y1139D01*
X38419Y1138D01*
X38418Y1136D01*
X38417Y1134D01*
X38414Y1130D01*
X38411Y1126D01*
X38408Y1121D01*
X38404Y1117D01*
X38399Y1112D01*
X38399Y1112D01*
X38397Y1111D01*
X38394Y1109D01*
X38391Y1106D01*
X38386Y1104D01*
X38380Y1101D01*
X38374Y1098D01*
X38368Y1095D01*
X38367Y1095D01*
X38364Y1094D01*
X38361Y1093D01*
X38356Y1092D01*
X38350Y1090D01*
X38343Y1089D01*
X38335Y1089D01*
X38327Y1089D01*
X38322D01*
X38319Y1089D01*
X38315D01*
X38312Y1089D01*
X38303Y1091D01*
X38303D01*
X38301Y1091D01*
X38299Y1092D01*
X38297Y1092D01*
X38291Y1094D01*
X38284Y1096D01*
X38284D01*
X38283Y1096D01*
X38282Y1097D01*
X38279Y1097D01*
X38275Y1100D01*
X38270Y1102D01*
X38269Y1103D01*
X38267Y1104D01*
X38264Y1106D01*
X38261Y1108D01*
X38261Y1109D01*
X38260Y1110D01*
X38260Y1112D01*
X38259Y1116D01*
Y1116D01*
Y1117D01*
Y1120D01*
Y1120D01*
X38260Y1121D01*
X38260Y1124D01*
Y1125D01*
X38260Y1126D01*
X38261Y1129D01*
Y1130D01*
X38261Y1131D01*
X38263Y1134D01*
X38263Y1135D01*
X38264Y1135D01*
X38266Y1138D01*
X38266Y1138D01*
X38267Y1139D01*
X38268Y1139D01*
X38269D01*
X38271Y1139D01*
X38273Y1138D01*
X38276Y1136D01*
X38277D01*
X38277Y1135D01*
X38280Y1134D01*
X38284Y1131D01*
X38289Y1128D01*
X38289D01*
X38290Y1128D01*
X38292Y1127D01*
X38294Y1126D01*
X38299Y1124D01*
X38306Y1121D01*
X38307D01*
X38308Y1121D01*
X38310Y1120D01*
X38313Y1120D01*
X38316Y1120D01*
X38320Y1119D01*
X38325Y1119D01*
X38335D01*
X38338Y1119D01*
X38342Y1120D01*
X38346Y1120D01*
X38354Y1122D01*
X38355D01*
X38356Y1123D01*
X38358Y1124D01*
X38361Y1125D01*
X38367Y1128D01*
X38373Y1133D01*
X38374Y1133D01*
X38375Y1134D01*
X38376Y1135D01*
X38377Y1137D01*
X38381Y1143D01*
X38385Y1149D01*
Y1149D01*
X38385Y1151D01*
X38386Y1152D01*
X38387Y1155D01*
X38388Y1158D01*
X38389Y1161D01*
X38389Y1168D01*
Y1169D01*
Y1170D01*
Y1172D01*
X38389Y1174D01*
X38387Y1179D01*
X38385Y1184D01*
Y1184D01*
X38385Y1185D01*
X38382Y1188D01*
X38379Y1192D01*
X38375Y1197D01*
X38375Y1197D01*
X38374Y1198D01*
X38373Y1198D01*
X38371Y1200D01*
X38366Y1203D01*
X38361Y1207D01*
X38360D01*
X38359Y1208D01*
X38358Y1209D01*
X38355Y1210D01*
X38350Y1213D01*
X38344Y1216D01*
X38344Y1217D01*
X38343Y1217D01*
X38341Y1218D01*
X38339Y1220D01*
X38334Y1223D01*
X38328Y1227D01*
X38327Y1228D01*
X38326Y1228D01*
X38325Y1229D01*
X38323Y1231D01*
X38318Y1236D01*
X38313Y1241D01*
X38313Y1241D01*
X38312Y1242D01*
X38311Y1244D01*
X38310Y1246D01*
X38307Y1251D01*
X38303Y1258D01*
Y1259D01*
X38303Y1260D01*
X38302Y1262D01*
X38301Y1265D01*
X38301Y1268D01*
X38300Y1272D01*
X38299Y1281D01*
Y1282D01*
Y1284D01*
X38300Y1287D01*
X38300Y1291D01*
X38301Y1296D01*
X38302Y1300D01*
X38304Y1306D01*
X38306Y1311D01*
X38306Y1312D01*
X38307Y1314D01*
X38308Y1316D01*
X38310Y1320D01*
X38313Y1323D01*
X38315Y1328D01*
X38319Y1331D01*
X38323Y1336D01*
X38323Y1336D01*
X38325Y1338D01*
X38328Y1339D01*
X38331Y1342D01*
X38335Y1345D01*
X38340Y1347D01*
X38345Y1350D01*
X38351Y1353D01*
X38352Y1353D01*
X38354Y1354D01*
X38357Y1354D01*
X38362Y1356D01*
X38367Y1357D01*
X38374Y1358D01*
X38380Y1358D01*
X38388Y1359D01*
X38394D01*
X38400Y1358D01*
D02*
G37*
G36*
X38248Y1355D02*
X38248D01*
X38250Y1354D01*
X38251Y1354D01*
X38252Y1354D01*
X38253D01*
X38253Y1353D01*
X38254Y1353D01*
X38255Y1352D01*
X38255Y1351D01*
X38256Y1349D01*
X38207Y1106D01*
Y1106D01*
X38206Y1104D01*
X38206Y1102D01*
X38205Y1099D01*
X38204Y1099D01*
X38203Y1098D01*
X38200Y1095D01*
X38200D01*
X38199Y1094D01*
X38197Y1093D01*
X38195Y1092D01*
X38194D01*
X38192Y1092D01*
X38174D01*
X38171Y1092D01*
X38168Y1093D01*
X38167Y1093D01*
X38166Y1094D01*
X38164Y1095D01*
X38161Y1097D01*
X38161Y1097D01*
X38159Y1099D01*
X38158Y1101D01*
X38156Y1104D01*
X38156Y1105D01*
X38155Y1108D01*
X38154Y1112D01*
X38152Y1116D01*
X38103Y1256D01*
Y1257D01*
X38102Y1259D01*
X38101Y1262D01*
X38099Y1266D01*
X38098Y1270D01*
X38096Y1276D01*
X38092Y1286D01*
Y1287D01*
X38091Y1289D01*
X38090Y1292D01*
X38089Y1296D01*
X38088Y1300D01*
X38086Y1306D01*
X38083Y1316D01*
X38082D01*
Y1315D01*
X38082Y1314D01*
X38081Y1310D01*
X38081Y1306D01*
X38080Y1301D01*
X38079Y1295D01*
X38077Y1283D01*
Y1282D01*
X38076Y1280D01*
X38076Y1277D01*
X38075Y1273D01*
X38074Y1268D01*
X38073Y1262D01*
X38071Y1250D01*
X38040Y1097D01*
X38040Y1096D01*
X38038Y1094D01*
X38037Y1094D01*
X38036Y1093D01*
X38035Y1093D01*
X38034D01*
X38034Y1092D01*
X38032D01*
X38030Y1092D01*
X38029D01*
X38027Y1091D01*
X38025Y1091D01*
X38019D01*
X38017Y1091D01*
X38014Y1092D01*
X38013D01*
X38012Y1092D01*
X38009Y1093D01*
X38008Y1093D01*
X38007Y1094D01*
Y1095D01*
Y1095D01*
Y1097D01*
X38056Y1340D01*
Y1340D01*
X38056Y1341D01*
X38057Y1344D01*
X38059Y1348D01*
X38062Y1351D01*
X38063D01*
X38063Y1352D01*
X38065Y1353D01*
X38069Y1354D01*
X38073Y1355D01*
X38091D01*
X38094Y1354D01*
X38097Y1354D01*
X38097D01*
X38099Y1353D01*
X38101Y1352D01*
X38103Y1350D01*
X38104Y1349D01*
X38105Y1348D01*
X38106Y1346D01*
X38108Y1343D01*
X38108Y1342D01*
X38109Y1340D01*
X38111Y1337D01*
X38112Y1332D01*
X38162Y1190D01*
Y1190D01*
X38163Y1188D01*
X38164Y1186D01*
X38165Y1182D01*
X38167Y1178D01*
X38168Y1174D01*
X38172Y1164D01*
Y1164D01*
X38173Y1162D01*
X38174Y1159D01*
X38174Y1156D01*
X38176Y1152D01*
X38177Y1147D01*
X38181Y1137D01*
X38181D01*
Y1138D01*
X38182Y1140D01*
X38182Y1143D01*
X38183Y1148D01*
X38184Y1153D01*
X38185Y1159D01*
X38187Y1172D01*
Y1173D01*
X38188Y1175D01*
X38189Y1179D01*
X38189Y1183D01*
X38190Y1189D01*
X38191Y1194D01*
X38194Y1206D01*
X38222Y1349D01*
Y1349D01*
X38223Y1350D01*
X38224Y1352D01*
X38225Y1352D01*
X38227Y1354D01*
X38227D01*
X38228Y1354D01*
X38230Y1354D01*
X38232Y1355D01*
X38232D01*
X38234Y1355D01*
X38245D01*
X38248Y1355D01*
D02*
G37*
G36*
X39345Y1356D02*
X39348Y1355D01*
X39348D01*
X39350Y1355D01*
X39352Y1354D01*
X39353Y1354D01*
X39353D01*
X39354Y1354D01*
X39355Y1353D01*
X39355Y1352D01*
X39356Y1352D01*
Y1351D01*
Y1350D01*
X39324Y1188D01*
Y1187D01*
Y1187D01*
X39323Y1185D01*
X39323Y1183D01*
X39322Y1179D01*
X39320Y1173D01*
X39318Y1167D01*
X39315Y1159D01*
X39312Y1151D01*
X39308Y1144D01*
X39307Y1143D01*
X39306Y1141D01*
X39304Y1138D01*
X39301Y1134D01*
X39297Y1128D01*
X39293Y1123D01*
X39288Y1118D01*
X39283Y1113D01*
X39282Y1112D01*
X39280Y1111D01*
X39277Y1109D01*
X39273Y1106D01*
X39267Y1103D01*
X39262Y1100D01*
X39255Y1097D01*
X39248Y1095D01*
X39247Y1094D01*
X39245Y1094D01*
X39241Y1093D01*
X39236Y1092D01*
X39230Y1090D01*
X39223Y1089D01*
X39215Y1089D01*
X39207Y1089D01*
X39203D01*
X39198Y1089D01*
X39193Y1089D01*
X39187Y1090D01*
X39180Y1091D01*
X39173Y1093D01*
X39166Y1095D01*
X39165Y1095D01*
X39163Y1096D01*
X39160Y1097D01*
X39156Y1099D01*
X39151Y1102D01*
X39147Y1105D01*
X39142Y1110D01*
X39138Y1114D01*
X39138Y1114D01*
X39136Y1116D01*
X39135Y1119D01*
X39133Y1123D01*
X39130Y1127D01*
X39128Y1133D01*
X39126Y1139D01*
X39125Y1145D01*
Y1146D01*
X39124Y1149D01*
X39124Y1152D01*
Y1158D01*
Y1164D01*
X39124Y1172D01*
X39125Y1180D01*
X39127Y1189D01*
X39158Y1350D01*
Y1350D01*
Y1351D01*
X39159Y1352D01*
X39160Y1353D01*
X39160Y1353D01*
X39163Y1354D01*
X39163D01*
X39164Y1354D01*
X39166Y1355D01*
X39168Y1355D01*
X39169D01*
X39171Y1356D01*
X39174Y1356D01*
X39180D01*
X39183Y1356D01*
X39185Y1355D01*
X39186D01*
X39187Y1355D01*
X39189Y1354D01*
X39190Y1354D01*
X39191D01*
X39191Y1354D01*
X39192Y1353D01*
X39193Y1352D01*
Y1352D01*
Y1350D01*
X39161Y1190D01*
Y1189D01*
X39161Y1187D01*
X39160Y1183D01*
X39160Y1179D01*
X39159Y1174D01*
X39159Y1169D01*
X39159Y1158D01*
Y1158D01*
X39160Y1156D01*
X39160Y1153D01*
X39161Y1151D01*
X39163Y1143D01*
X39167Y1136D01*
X39167Y1135D01*
X39168Y1135D01*
X39170Y1133D01*
X39172Y1131D01*
X39174Y1129D01*
X39177Y1127D01*
X39184Y1123D01*
X39185D01*
X39186Y1122D01*
X39189Y1121D01*
X39192Y1121D01*
X39196Y1120D01*
X39200Y1119D01*
X39205Y1119D01*
X39213D01*
X39217Y1119D01*
X39220D01*
X39224Y1120D01*
X39229Y1120D01*
X39239Y1123D01*
X39239D01*
X39241Y1124D01*
X39244Y1125D01*
X39247Y1126D01*
X39254Y1130D01*
X39262Y1136D01*
X39262Y1137D01*
X39264Y1138D01*
X39266Y1140D01*
X39268Y1143D01*
X39270Y1146D01*
X39274Y1150D01*
X39276Y1154D01*
X39279Y1159D01*
X39279Y1159D01*
X39280Y1161D01*
X39281Y1164D01*
X39283Y1168D01*
X39284Y1172D01*
X39286Y1177D01*
X39288Y1183D01*
X39290Y1189D01*
X39322Y1350D01*
Y1350D01*
Y1351D01*
X39322Y1352D01*
X39323Y1353D01*
X39323Y1353D01*
X39326Y1354D01*
X39326D01*
X39327Y1354D01*
X39329Y1355D01*
X39331Y1355D01*
X39332D01*
X39334Y1356D01*
X39337Y1356D01*
X39343D01*
X39345Y1356D01*
D02*
G37*
G36*
X39117Y1354D02*
X39118Y1354D01*
X39119Y1353D01*
Y1352D01*
X39119Y1351D01*
X39120Y1350D01*
Y1347D01*
Y1346D01*
Y1346D01*
Y1344D01*
Y1344D01*
Y1343D01*
Y1341D01*
X39119Y1339D01*
Y1339D01*
X39119Y1338D01*
X39119Y1336D01*
X39118Y1334D01*
Y1334D01*
X39118Y1333D01*
X39116Y1330D01*
Y1329D01*
X39115Y1329D01*
X39113Y1326D01*
X39112D01*
X39112Y1326D01*
X39109Y1325D01*
X39035D01*
X38990Y1097D01*
X38989Y1096D01*
X38988Y1094D01*
X38987Y1094D01*
X38986Y1093D01*
X38985Y1093D01*
X38984D01*
X38983Y1092D01*
X38982D01*
X38979Y1092D01*
X38979D01*
X38977Y1091D01*
X38974Y1091D01*
X38968D01*
X38965Y1091D01*
X38963Y1092D01*
X38962D01*
X38961Y1092D01*
X38959D01*
X38957Y1093D01*
X38957D01*
X38956Y1093D01*
X38955Y1094D01*
X38955Y1094D01*
Y1095D01*
Y1095D01*
Y1097D01*
X39001Y1325D01*
X38925D01*
X38924Y1326D01*
X38923Y1327D01*
Y1327D01*
X38923Y1328D01*
X38922Y1330D01*
Y1332D01*
Y1332D01*
Y1333D01*
Y1335D01*
Y1336D01*
X38923Y1337D01*
X38923Y1340D01*
Y1340D01*
X38924Y1342D01*
X38924Y1345D01*
Y1346D01*
X38925Y1347D01*
X38926Y1350D01*
X38927Y1350D01*
X38927Y1351D01*
X38929Y1354D01*
X38930Y1354D01*
X38930Y1354D01*
X38932Y1355D01*
X39116D01*
X39117Y1354D01*
D02*
G37*
G36*
X38812Y1356D02*
X38813D01*
X38814Y1355D01*
X38817Y1355D01*
X38819Y1354D01*
X38819D01*
X38820Y1354D01*
X38822Y1354D01*
X38822Y1352D01*
X38823Y1351D01*
X38824Y1349D01*
X38863Y1104D01*
Y1104D01*
X38864Y1102D01*
Y1099D01*
Y1097D01*
Y1096D01*
X38863Y1096D01*
X38863Y1094D01*
X38861Y1093D01*
X38861D01*
X38860Y1092D01*
X38858Y1092D01*
X38855Y1091D01*
X38853D01*
X38849Y1091D01*
X38839D01*
X38837Y1091D01*
X38837D01*
X38835Y1092D01*
X38833D01*
X38832Y1092D01*
X38831D01*
X38831Y1093D01*
X38829Y1094D01*
Y1094D01*
X38829Y1095D01*
X38828Y1097D01*
X38819Y1161D01*
X38709D01*
X38675Y1097D01*
Y1097D01*
X38674Y1096D01*
X38673Y1094D01*
X38672D01*
X38672Y1093D01*
X38669Y1092D01*
X38668D01*
X38667Y1092D01*
X38665D01*
X38663Y1091D01*
X38660D01*
X38658Y1091D01*
X38651D01*
X38648Y1091D01*
X38644Y1092D01*
X38644D01*
X38643Y1092D01*
X38641Y1093D01*
X38639Y1093D01*
Y1094D01*
X38639Y1094D01*
X38638Y1096D01*
Y1097D01*
Y1097D01*
X38639Y1099D01*
X38640Y1101D01*
X38641Y1104D01*
X38777Y1349D01*
X38778Y1349D01*
X38778Y1350D01*
X38780Y1353D01*
X38781Y1353D01*
X38782Y1354D01*
X38783Y1354D01*
X38785Y1354D01*
X38785D01*
X38787Y1355D01*
X38789Y1355D01*
X38791Y1356D01*
X38792D01*
X38794Y1356D01*
X38809D01*
X38812Y1356D01*
D02*
G37*
G36*
X38674Y1354D02*
X38675Y1354D01*
X38676Y1353D01*
Y1352D01*
X38676Y1351D01*
X38677Y1350D01*
Y1347D01*
Y1346D01*
Y1346D01*
Y1344D01*
Y1344D01*
Y1343D01*
Y1341D01*
X38676Y1339D01*
Y1339D01*
X38676Y1338D01*
X38675Y1336D01*
X38675Y1334D01*
Y1334D01*
X38674Y1333D01*
X38673Y1330D01*
Y1329D01*
X38672Y1329D01*
X38670Y1326D01*
X38669D01*
X38669Y1326D01*
X38666Y1325D01*
X38592D01*
X38547Y1097D01*
X38546Y1096D01*
X38545Y1094D01*
X38544Y1094D01*
X38543Y1093D01*
X38541Y1093D01*
X38541D01*
X38540Y1092D01*
X38539D01*
X38536Y1092D01*
X38536D01*
X38534Y1091D01*
X38531Y1091D01*
X38525D01*
X38522Y1091D01*
X38519Y1092D01*
X38519D01*
X38518Y1092D01*
X38516D01*
X38514Y1093D01*
X38514D01*
X38513Y1093D01*
X38512Y1094D01*
X38512Y1094D01*
Y1095D01*
Y1095D01*
Y1097D01*
X38557Y1325D01*
X38482D01*
X38481Y1326D01*
X38480Y1327D01*
Y1327D01*
X38479Y1328D01*
X38479Y1330D01*
Y1332D01*
Y1332D01*
Y1333D01*
Y1335D01*
Y1336D01*
X38479Y1337D01*
X38480Y1340D01*
Y1340D01*
X38480Y1342D01*
X38481Y1345D01*
Y1346D01*
X38482Y1347D01*
X38483Y1350D01*
X38484Y1350D01*
X38484Y1351D01*
X38486Y1354D01*
X38487Y1354D01*
X38487Y1354D01*
X38488Y1355D01*
X38673D01*
X38674Y1354D01*
D02*
G37*
G36*
X39528Y2260D02*
X39529D01*
X39531Y2258D01*
X39533Y2257D01*
X39535Y2254D01*
X39536Y2253D01*
X39537Y2251D01*
X39539Y2248D01*
X39540Y2244D01*
Y2243D01*
X39541Y2241D01*
Y2236D01*
X39540Y2230D01*
X39443Y1746D01*
X39442Y1744D01*
X39440Y1741D01*
X39439Y1740D01*
X39437Y1739D01*
X39434Y1738D01*
X39433D01*
X39431Y1737D01*
X39428D01*
X39423Y1736D01*
X39423D01*
X39419Y1735D01*
X39414Y1734D01*
X39402D01*
X39396Y1735D01*
X39391Y1736D01*
X39390D01*
X39387Y1737D01*
X39383D01*
X39380Y1738D01*
X39379D01*
X39378Y1739D01*
X39376Y1740D01*
X39376Y1741D01*
Y1742D01*
Y1743D01*
Y1746D01*
X39467Y2204D01*
X39187Y1744D01*
X39186Y1743D01*
X39184Y1742D01*
X39180Y1739D01*
X39174Y1737D01*
X39173D01*
X39168Y1736D01*
X39160Y1735D01*
X39150Y1734D01*
X39141D01*
X39132Y1735D01*
X39126Y1737D01*
X39125Y1738D01*
X39123Y1739D01*
X39120Y1742D01*
X39119Y1744D01*
X39032Y2205D01*
X39031D01*
X38939Y1746D01*
X38939Y1744D01*
X38937Y1741D01*
X38935Y1740D01*
X38933Y1739D01*
X38930Y1738D01*
X38929D01*
X38927Y1737D01*
X38924D01*
X38920Y1736D01*
X38919D01*
X38915Y1735D01*
X38910Y1734D01*
X38898D01*
X38893Y1735D01*
X38887Y1736D01*
X38886D01*
X38883Y1737D01*
X38879D01*
X38877Y1738D01*
X38875Y1739D01*
X38873Y1741D01*
Y1742D01*
Y1743D01*
Y1746D01*
X38969Y2230D01*
Y2231D01*
X38970Y2235D01*
X38971Y2239D01*
X38973Y2243D01*
X38974Y2244D01*
X38976Y2247D01*
X38979Y2251D01*
X38982Y2254D01*
X38983Y2255D01*
X38986Y2257D01*
X38989Y2258D01*
X38993Y2260D01*
X38994D01*
X38997Y2261D01*
X39001Y2262D01*
X39052D01*
X39059Y2261D01*
X39065Y2259D01*
X39067Y2258D01*
X39071Y2258D01*
X39076Y2255D01*
X39080Y2251D01*
X39081Y2250D01*
X39083Y2247D01*
X39086Y2243D01*
X39089Y2238D01*
X39090Y2236D01*
X39091Y2232D01*
X39093Y2226D01*
X39095Y2218D01*
X39171Y1838D01*
X39173D01*
X39408Y2218D01*
Y2219D01*
X39408Y2220D01*
X39411Y2225D01*
X39415Y2231D01*
X39419Y2237D01*
X39420Y2239D01*
X39423Y2242D01*
X39427Y2246D01*
X39433Y2250D01*
X39435Y2251D01*
X39439Y2253D01*
X39443Y2256D01*
X39450Y2258D01*
X39452Y2259D01*
X39456Y2260D01*
X39463Y2261D01*
X39470Y2262D01*
X39520D01*
X39528Y2260D01*
D02*
G37*
G36*
X38393D02*
X38395Y2258D01*
X38396Y2258D01*
X38397Y2256D01*
X38398Y2252D01*
X38399Y2246D01*
Y2245D01*
Y2244D01*
X38398Y2239D01*
Y2238D01*
X38397Y2236D01*
Y2233D01*
X38396Y2229D01*
Y2228D01*
X38395Y2227D01*
X38394Y2223D01*
X38393Y2219D01*
Y2218D01*
X38393Y2216D01*
X38389Y2210D01*
Y2209D01*
X38388Y2208D01*
X38383Y2203D01*
X38382D01*
X38380Y2202D01*
X38375Y2201D01*
X38178D01*
X38149Y2054D01*
X38152D01*
X38154Y2055D01*
X38158D01*
X38166Y2055D01*
X38175Y2056D01*
X38177D01*
X38183Y2057D01*
X38209D01*
X38218Y2056D01*
X38228D01*
X38240Y2055D01*
X38252Y2053D01*
X38266Y2051D01*
X38278Y2047D01*
X38279D01*
X38284Y2045D01*
X38289Y2043D01*
X38296Y2040D01*
X38313Y2032D01*
X38321Y2027D01*
X38329Y2022D01*
X38330Y2021D01*
X38331Y2019D01*
X38335Y2015D01*
X38340Y2011D01*
X38345Y2006D01*
X38349Y1999D01*
X38353Y1992D01*
X38357Y1983D01*
Y1982D01*
X38359Y1979D01*
X38360Y1975D01*
X38362Y1969D01*
X38363Y1962D01*
X38364Y1955D01*
X38366Y1937D01*
Y1936D01*
Y1932D01*
Y1928D01*
X38365Y1921D01*
X38364Y1913D01*
X38363Y1904D01*
X38360Y1885D01*
Y1884D01*
X38359Y1881D01*
X38357Y1876D01*
X38355Y1869D01*
X38352Y1862D01*
X38349Y1854D01*
X38341Y1837D01*
X38340Y1836D01*
X38339Y1833D01*
X38336Y1828D01*
X38332Y1822D01*
X38322Y1808D01*
X38309Y1793D01*
X38308Y1792D01*
X38305Y1790D01*
X38301Y1787D01*
X38297Y1782D01*
X38290Y1776D01*
X38282Y1771D01*
X38273Y1765D01*
X38264Y1759D01*
X38263Y1759D01*
X38259Y1758D01*
X38254Y1755D01*
X38247Y1751D01*
X38238Y1748D01*
X38229Y1744D01*
X38218Y1741D01*
X38206Y1737D01*
X38205D01*
X38201Y1736D01*
X38194Y1735D01*
X38186Y1733D01*
X38175Y1732D01*
X38163Y1730D01*
X38149Y1729D01*
X38124D01*
X38112Y1730D01*
X38099Y1732D01*
X38097D01*
X38093Y1733D01*
X38089D01*
X38079Y1735D01*
X38067Y1737D01*
X38066D01*
X38065Y1738D01*
X38062Y1739D01*
X38058Y1740D01*
X38050Y1743D01*
X38039Y1745D01*
X38038D01*
X38037Y1746D01*
X38032Y1748D01*
X38025Y1752D01*
X38018Y1756D01*
X38017Y1757D01*
X38015Y1758D01*
X38012Y1759D01*
X38009Y1762D01*
Y1763D01*
X38008Y1765D01*
X38007Y1769D01*
Y1774D01*
Y1775D01*
Y1779D01*
Y1780D01*
Y1782D01*
X38008Y1789D01*
Y1790D01*
X38009Y1792D01*
X38010Y1799D01*
Y1800D01*
X38011Y1803D01*
X38014Y1808D01*
X38015Y1809D01*
X38016Y1811D01*
X38018Y1816D01*
X38019Y1817D01*
X38020Y1818D01*
X38022Y1819D01*
X38025Y1820D01*
X38026D01*
X38028Y1819D01*
X38032Y1818D01*
X38037Y1814D01*
X38039Y1813D01*
X38043Y1811D01*
X38050Y1807D01*
X38059Y1803D01*
X38060D01*
X38062Y1802D01*
X38065Y1801D01*
X38068Y1799D01*
X38079Y1795D01*
X38092Y1791D01*
X38093D01*
X38096Y1790D01*
X38099Y1790D01*
X38105D01*
X38112Y1789D01*
X38120Y1788D01*
X38129Y1787D01*
X38145D01*
X38153Y1788D01*
X38161Y1789D01*
X38172Y1790D01*
X38183Y1791D01*
X38194Y1794D01*
X38206Y1798D01*
X38206Y1799D01*
X38210Y1800D01*
X38216Y1803D01*
X38222Y1806D01*
X38237Y1817D01*
X38252Y1830D01*
X38253Y1831D01*
X38255Y1834D01*
X38259Y1837D01*
X38264Y1843D01*
X38268Y1850D01*
X38273Y1857D01*
X38278Y1866D01*
X38282Y1875D01*
Y1876D01*
X38284Y1880D01*
X38284Y1885D01*
X38286Y1892D01*
X38288Y1900D01*
X38289Y1910D01*
X38291Y1931D01*
Y1931D01*
Y1933D01*
Y1935D01*
X38290Y1939D01*
X38289Y1947D01*
X38285Y1957D01*
Y1958D01*
X38284Y1959D01*
X38282Y1964D01*
X38276Y1972D01*
X38268Y1979D01*
X38267Y1980D01*
X38266Y1981D01*
X38262Y1983D01*
X38258Y1985D01*
X38253Y1988D01*
X38248Y1991D01*
X38234Y1995D01*
X38233D01*
X38230Y1996D01*
X38225Y1997D01*
X38220Y1998D01*
X38212Y1999D01*
X38204Y2000D01*
X38193Y2001D01*
X38165D01*
X38157Y2000D01*
X38149D01*
X38132Y1998D01*
X38128D01*
X38125Y1997D01*
X38120D01*
X38109Y1996D01*
X38095D01*
X38091Y1997D01*
X38086Y1998D01*
X38082Y2001D01*
Y2002D01*
X38081Y2006D01*
Y2012D01*
X38082Y2022D01*
X38126Y2235D01*
Y2236D01*
Y2237D01*
X38128Y2243D01*
X38130Y2250D01*
X38135Y2256D01*
X38136Y2257D01*
X38141Y2259D01*
X38146Y2261D01*
X38154Y2262D01*
X38390D01*
X38393Y2260D01*
D02*
G37*
G36*
X38706Y2269D02*
X38716D01*
X38726Y2267D01*
X38737Y2265D01*
X38749Y2262D01*
X38759Y2258D01*
X38760D01*
X38764Y2257D01*
X38768Y2254D01*
X38775Y2251D01*
X38782Y2246D01*
X38789Y2241D01*
X38797Y2235D01*
X38803Y2227D01*
X38804Y2227D01*
X38806Y2224D01*
X38809Y2220D01*
X38814Y2214D01*
X38817Y2207D01*
X38821Y2198D01*
X38826Y2189D01*
X38829Y2179D01*
Y2178D01*
X38830Y2174D01*
X38831Y2167D01*
X38833Y2160D01*
X38834Y2149D01*
X38836Y2138D01*
X38837Y2126D01*
Y2112D01*
Y2111D01*
Y2109D01*
Y2105D01*
Y2100D01*
X38836Y2093D01*
Y2086D01*
X38835Y2077D01*
X38834Y2068D01*
Y2067D01*
Y2063D01*
X38833Y2058D01*
X38832Y2052D01*
X38831Y2043D01*
X38830Y2034D01*
X38827Y2012D01*
Y2011D01*
X38826Y2008D01*
X38825Y2001D01*
X38823Y1993D01*
X38821Y1985D01*
X38819Y1975D01*
X38814Y1951D01*
Y1950D01*
X38813Y1946D01*
X38811Y1940D01*
X38808Y1931D01*
X38805Y1922D01*
X38802Y1911D01*
X38794Y1888D01*
X38793Y1887D01*
X38792Y1884D01*
X38789Y1877D01*
X38785Y1869D01*
X38782Y1861D01*
X38777Y1851D01*
X38766Y1830D01*
X38765Y1829D01*
X38763Y1825D01*
X38759Y1821D01*
X38755Y1814D01*
X38750Y1806D01*
X38743Y1798D01*
X38729Y1782D01*
X38728Y1781D01*
X38725Y1778D01*
X38720Y1774D01*
X38713Y1769D01*
X38705Y1762D01*
X38694Y1756D01*
X38683Y1749D01*
X38671Y1743D01*
X38669Y1743D01*
X38665Y1742D01*
X38658Y1739D01*
X38648Y1737D01*
X38637Y1734D01*
X38623Y1731D01*
X38608Y1730D01*
X38592Y1729D01*
X38585D01*
X38579Y1730D01*
X38569D01*
X38559Y1732D01*
X38548Y1734D01*
X38536Y1736D01*
X38526Y1740D01*
X38525Y1741D01*
X38521Y1742D01*
X38517Y1744D01*
X38510Y1747D01*
X38496Y1757D01*
X38481Y1770D01*
X38480Y1771D01*
X38478Y1774D01*
X38475Y1777D01*
X38471Y1783D01*
X38468Y1790D01*
X38463Y1799D01*
X38459Y1808D01*
X38456Y1819D01*
Y1820D01*
X38455Y1824D01*
X38454Y1830D01*
X38452Y1838D01*
X38451Y1849D01*
X38449Y1860D01*
X38448Y1872D01*
Y1886D01*
Y1887D01*
Y1889D01*
Y1893D01*
Y1899D01*
X38449Y1905D01*
Y1912D01*
Y1920D01*
X38450Y1930D01*
Y1931D01*
Y1934D01*
X38451Y1940D01*
X38452Y1946D01*
X38453Y1955D01*
X38454Y1964D01*
X38456Y1985D01*
Y1986D01*
X38457Y1991D01*
X38458Y1996D01*
X38460Y2004D01*
X38462Y2013D01*
X38464Y2024D01*
X38470Y2047D01*
Y2049D01*
X38471Y2053D01*
X38473Y2058D01*
X38475Y2067D01*
X38478Y2076D01*
X38482Y2086D01*
X38490Y2109D01*
X38491Y2111D01*
X38492Y2115D01*
X38495Y2120D01*
X38499Y2128D01*
X38502Y2137D01*
X38507Y2147D01*
X38518Y2167D01*
X38519Y2168D01*
X38521Y2172D01*
X38525Y2178D01*
X38529Y2184D01*
X38534Y2192D01*
X38541Y2200D01*
X38555Y2216D01*
X38556Y2217D01*
X38557Y2218D01*
X38564Y2224D01*
X38572Y2230D01*
X38582Y2238D01*
X38583Y2239D01*
X38585Y2240D01*
X38588Y2242D01*
X38592Y2243D01*
X38602Y2249D01*
X38614Y2255D01*
X38615D01*
X38617Y2256D01*
X38621Y2258D01*
X38626Y2259D01*
X38637Y2262D01*
X38651Y2266D01*
X38652D01*
X38655Y2267D01*
X38659D01*
X38663Y2268D01*
X38670Y2269D01*
X38676D01*
X38692Y2270D01*
X38699D01*
X38706Y2269D01*
D02*
G37*
G36*
X22421Y18381D02*
X22427Y18380D01*
X22428D01*
X22431Y18379D01*
X22435Y18378D01*
X22438Y18376D01*
Y18375D01*
X22439Y18374D01*
X22440Y18372D01*
X22439Y18368D01*
Y18367D01*
X22438Y18364D01*
X22436Y18360D01*
X22433Y18354D01*
X22163Y17865D01*
Y17864D01*
X22161Y17862D01*
X22157Y17857D01*
X22156D01*
X22155Y17856D01*
X22152Y17855D01*
X22148Y17854D01*
X22147D01*
X22145Y17853D01*
X22141D01*
X22135Y17852D01*
X22130D01*
X22124Y17851D01*
X22100D01*
X22094Y17852D01*
X22093D01*
X22089Y17853D01*
X22084D01*
X22081Y17854D01*
X22080D01*
X22078Y17855D01*
X22073Y17857D01*
Y17858D01*
X22072Y17860D01*
X22071Y17866D01*
X21997Y18357D01*
Y18358D01*
X21996Y18362D01*
X21995Y18366D01*
Y18370D01*
Y18371D01*
X21996Y18372D01*
X21997Y18375D01*
X21999Y18377D01*
X22000Y18378D01*
X22002Y18379D01*
X22005Y18380D01*
X22009Y18381D01*
X22010D01*
X22015Y18382D01*
X22042D01*
X22049Y18381D01*
X22050D01*
X22053Y18380D01*
X22056Y18379D01*
X22060Y18378D01*
X22061D01*
X22062Y18377D01*
X22064Y18376D01*
X22065Y18374D01*
Y18373D01*
X22066Y18372D01*
X22067Y18367D01*
X22129Y17925D01*
X22130D01*
X22364Y18368D01*
Y18369D01*
X22365Y18370D01*
X22368Y18374D01*
X22369Y18375D01*
X22370Y18376D01*
X22376Y18378D01*
X22377D01*
X22379Y18379D01*
X22382Y18380D01*
X22387Y18381D01*
X22388D01*
X22393Y18382D01*
X22414D01*
X22421Y18381D01*
D02*
G37*
G36*
X21893Y18377D02*
X21896Y18375D01*
X21896Y18374D01*
X21897Y18372D01*
X21898Y18369D01*
X21899Y18363D01*
Y18362D01*
Y18361D01*
X21898Y18356D01*
Y18355D01*
X21897Y18353D01*
Y18350D01*
X21896Y18346D01*
Y18345D01*
X21896Y18343D01*
X21895Y18340D01*
X21894Y18336D01*
Y18335D01*
X21893Y18333D01*
X21889Y18326D01*
Y18326D01*
X21888Y18325D01*
X21883Y18320D01*
X21882D01*
X21880Y18319D01*
X21875Y18318D01*
X21678D01*
X21649Y18170D01*
X21652D01*
X21654Y18171D01*
X21658D01*
X21666Y18172D01*
X21676Y18173D01*
X21677D01*
X21683Y18174D01*
X21709D01*
X21718Y18173D01*
X21728D01*
X21740Y18171D01*
X21753Y18169D01*
X21766Y18168D01*
X21778Y18164D01*
X21779D01*
X21784Y18162D01*
X21789Y18160D01*
X21796Y18157D01*
X21813Y18149D01*
X21821Y18144D01*
X21829Y18138D01*
X21830Y18138D01*
X21832Y18136D01*
X21835Y18132D01*
X21840Y18128D01*
X21845Y18122D01*
X21849Y18116D01*
X21853Y18108D01*
X21857Y18100D01*
Y18099D01*
X21859Y18096D01*
X21860Y18091D01*
X21862Y18086D01*
X21864Y18079D01*
X21865Y18072D01*
X21866Y18054D01*
Y18053D01*
Y18049D01*
Y18045D01*
X21865Y18038D01*
X21865Y18029D01*
X21864Y18021D01*
X21860Y18002D01*
Y18001D01*
X21859Y17998D01*
X21857Y17993D01*
X21855Y17986D01*
X21852Y17979D01*
X21849Y17971D01*
X21841Y17953D01*
X21840Y17952D01*
X21839Y17950D01*
X21836Y17945D01*
X21833Y17939D01*
X21822Y17925D01*
X21809Y17910D01*
X21808Y17909D01*
X21805Y17907D01*
X21802Y17904D01*
X21797Y17899D01*
X21790Y17893D01*
X21782Y17888D01*
X21773Y17882D01*
X21764Y17876D01*
X21763Y17875D01*
X21759Y17874D01*
X21755Y17872D01*
X21747Y17868D01*
X21739Y17865D01*
X21729Y17861D01*
X21718Y17857D01*
X21707Y17854D01*
X21705D01*
X21701Y17853D01*
X21694Y17852D01*
X21686Y17850D01*
X21676Y17849D01*
X21663Y17847D01*
X21649Y17846D01*
X21624D01*
X21613Y17847D01*
X21599Y17849D01*
X21597D01*
X21593Y17850D01*
X21589D01*
X21579Y17852D01*
X21568Y17854D01*
X21567D01*
X21565Y17855D01*
X21562Y17856D01*
X21558Y17857D01*
X21550Y17859D01*
X21539Y17862D01*
X21538D01*
X21537Y17863D01*
X21532Y17865D01*
X21525Y17869D01*
X21518Y17873D01*
X21517Y17873D01*
X21515Y17874D01*
X21512Y17876D01*
X21509Y17879D01*
Y17880D01*
X21508Y17882D01*
X21507Y17886D01*
Y17890D01*
Y17892D01*
Y17896D01*
Y17897D01*
Y17899D01*
X21508Y17905D01*
Y17906D01*
X21509Y17909D01*
X21510Y17916D01*
Y17917D01*
X21511Y17920D01*
X21514Y17925D01*
X21515Y17926D01*
X21516Y17928D01*
X21519Y17933D01*
X21520Y17934D01*
X21521Y17935D01*
X21522Y17935D01*
X21525Y17936D01*
X21526D01*
X21528Y17935D01*
X21532Y17935D01*
X21537Y17931D01*
X21539Y17930D01*
X21543Y17928D01*
X21551Y17924D01*
X21559Y17920D01*
X21560D01*
X21562Y17919D01*
X21565Y17918D01*
X21568Y17916D01*
X21579Y17912D01*
X21592Y17908D01*
X21593D01*
X21596Y17907D01*
X21599Y17906D01*
X21605D01*
X21612Y17905D01*
X21620Y17904D01*
X21630Y17904D01*
X21646D01*
X21653Y17904D01*
X21662Y17905D01*
X21672Y17906D01*
X21683Y17908D01*
X21694Y17911D01*
X21706Y17915D01*
X21707Y17916D01*
X21710Y17917D01*
X21716Y17920D01*
X21723Y17923D01*
X21738Y17934D01*
X21753Y17947D01*
X21754Y17948D01*
X21755Y17951D01*
X21759Y17954D01*
X21764Y17960D01*
X21769Y17966D01*
X21773Y17974D01*
X21778Y17982D01*
X21782Y17992D01*
Y17993D01*
X21784Y17997D01*
X21785Y18002D01*
X21786Y18009D01*
X21788Y18017D01*
X21789Y18027D01*
X21791Y18047D01*
Y18048D01*
Y18050D01*
Y18052D01*
X21790Y18056D01*
X21789Y18064D01*
X21786Y18074D01*
Y18075D01*
X21785Y18076D01*
X21782Y18081D01*
X21776Y18089D01*
X21768Y18096D01*
X21767Y18097D01*
X21766Y18098D01*
X21762Y18100D01*
X21758Y18102D01*
X21754Y18105D01*
X21748Y18107D01*
X21734Y18112D01*
X21733D01*
X21730Y18113D01*
X21725Y18114D01*
X21720Y18115D01*
X21712Y18116D01*
X21704Y18117D01*
X21693Y18118D01*
X21665D01*
X21657Y18117D01*
X21649D01*
X21632Y18115D01*
X21629D01*
X21625Y18114D01*
X21620D01*
X21609Y18113D01*
X21595D01*
X21591Y18114D01*
X21586Y18115D01*
X21583Y18118D01*
Y18119D01*
X21582Y18122D01*
Y18129D01*
X21583Y18138D01*
X21626Y18352D01*
Y18353D01*
Y18354D01*
X21628Y18359D01*
X21630Y18367D01*
X21635Y18372D01*
X21636Y18373D01*
X21641Y18376D01*
X21646Y18378D01*
X21654Y18379D01*
X21890D01*
X21893Y18377D01*
D02*
G37*
G36*
X21139Y18386D02*
X21148D01*
X21159Y18384D01*
X21169Y18382D01*
X21179Y18379D01*
X21190Y18375D01*
X21191Y18374D01*
X21194Y18373D01*
X21198Y18371D01*
X21205Y18368D01*
X21218Y18358D01*
X21224Y18353D01*
X21230Y18347D01*
X21231Y18346D01*
X21233Y18344D01*
X21235Y18341D01*
X21239Y18337D01*
X21245Y18326D01*
X21251Y18311D01*
Y18310D01*
X21252Y18308D01*
X21253Y18304D01*
X21255Y18299D01*
X21256Y18288D01*
X21257Y18275D01*
Y18274D01*
Y18272D01*
Y18268D01*
Y18264D01*
X21256Y18253D01*
X21255Y18240D01*
Y18239D01*
X21254Y18237D01*
Y18233D01*
X21253Y18229D01*
X21249Y18217D01*
X21244Y18203D01*
Y18202D01*
X21243Y18201D01*
X21241Y18196D01*
X21240Y18191D01*
X21237Y18185D01*
X21233Y18178D01*
X21224Y18163D01*
X21224Y18162D01*
X21223Y18159D01*
X21220Y18154D01*
X21216Y18149D01*
X21211Y18142D01*
X21206Y18134D01*
X21192Y18116D01*
X21191Y18115D01*
X21188Y18111D01*
X21183Y18107D01*
X21177Y18100D01*
X21170Y18092D01*
X21162Y18083D01*
X21152Y18073D01*
X21142Y18062D01*
X21141Y18061D01*
X21137Y18058D01*
X21131Y18051D01*
X21123Y18044D01*
X21113Y18034D01*
X21101Y18024D01*
X21088Y18012D01*
X21073Y17999D01*
X20972Y17913D01*
X21196D01*
X21199Y17912D01*
X21202Y17911D01*
X21205Y17907D01*
X21206Y17906D01*
X21207Y17904D01*
X21208Y17901D01*
X21209Y17896D01*
Y17895D01*
Y17894D01*
X21208Y17888D01*
Y17888D01*
X21207Y17886D01*
X21206Y17880D01*
Y17879D01*
X21205Y17877D01*
X21204Y17873D01*
X21203Y17870D01*
Y17869D01*
X21202Y17867D01*
X21198Y17861D01*
X21196Y17859D01*
X21192Y17856D01*
X21190Y17855D01*
X21185Y17854D01*
X20892D01*
X20886Y17855D01*
X20885D01*
X20884Y17856D01*
X20881Y17857D01*
Y17858D01*
X20880Y17859D01*
X20878Y17863D01*
Y17864D01*
Y17865D01*
X20877Y17871D01*
Y17872D01*
Y17873D01*
Y17876D01*
Y17881D01*
Y17882D01*
X20878Y17886D01*
X20879Y17889D01*
X20880Y17895D01*
X20881Y17896D01*
X20881Y17900D01*
X20884Y17904D01*
X20887Y17910D01*
X20888Y17912D01*
X20891Y17916D01*
X20895Y17920D01*
X20900Y17926D01*
X21036Y18045D01*
X21037Y18045D01*
X21041Y18049D01*
X21047Y18055D01*
X21054Y18061D01*
X21063Y18069D01*
X21072Y18077D01*
X21090Y18096D01*
X21091Y18097D01*
X21094Y18100D01*
X21099Y18105D01*
X21104Y18111D01*
X21110Y18118D01*
X21116Y18125D01*
X21129Y18141D01*
X21130Y18142D01*
X21131Y18145D01*
X21134Y18149D01*
X21138Y18154D01*
X21146Y18167D01*
X21154Y18180D01*
Y18181D01*
X21156Y18183D01*
X21157Y18186D01*
X21160Y18190D01*
X21164Y18201D01*
X21168Y18212D01*
Y18213D01*
X21169Y18215D01*
X21170Y18217D01*
X21171Y18221D01*
X21174Y18230D01*
X21176Y18238D01*
Y18239D01*
Y18240D01*
X21177Y18246D01*
X21177Y18252D01*
Y18260D01*
Y18261D01*
Y18262D01*
Y18266D01*
X21176Y18273D01*
X21174Y18280D01*
Y18281D01*
X21173Y18282D01*
X21172Y18287D01*
X21168Y18294D01*
X21163Y18301D01*
Y18302D01*
X21162Y18303D01*
X21158Y18307D01*
X21151Y18312D01*
X21142Y18318D01*
X21141D01*
X21139Y18319D01*
X21136Y18320D01*
X21132Y18322D01*
X21128Y18323D01*
X21122Y18324D01*
X21107Y18325D01*
X21099D01*
X21093Y18324D01*
X21085Y18323D01*
X21078Y18322D01*
X21062Y18317D01*
X21061D01*
X21058Y18316D01*
X21054Y18314D01*
X21050Y18312D01*
X21037Y18308D01*
X21024Y18302D01*
X21023D01*
X21021Y18301D01*
X21019Y18299D01*
X21014Y18297D01*
X21005Y18292D01*
X20995Y18286D01*
X20993Y18285D01*
X20990Y18283D01*
X20984Y18280D01*
X20980Y18279D01*
X20979D01*
X20978Y18280D01*
X20975Y18281D01*
X20974Y18283D01*
Y18284D01*
X20973Y18286D01*
X20972Y18290D01*
Y18294D01*
Y18295D01*
Y18297D01*
Y18302D01*
Y18303D01*
X20973Y18305D01*
Y18310D01*
Y18310D01*
X20974Y18312D01*
X20975Y18319D01*
Y18320D01*
X20975Y18322D01*
X20978Y18327D01*
Y18328D01*
X20979Y18330D01*
X20982Y18335D01*
Y18336D01*
X20983Y18338D01*
X20987Y18342D01*
X20988Y18343D01*
X20990Y18345D01*
X20996Y18349D01*
X21005Y18354D01*
X21006D01*
X21007Y18355D01*
X21010Y18357D01*
X21014Y18358D01*
X21023Y18363D01*
X21037Y18368D01*
X21037D01*
X21040Y18369D01*
X21044Y18371D01*
X21049Y18372D01*
X21055Y18374D01*
X21062Y18376D01*
X21078Y18381D01*
X21079D01*
X21082Y18382D01*
X21086Y18383D01*
X21093Y18384D01*
X21100Y18385D01*
X21108Y18386D01*
X21126Y18387D01*
X21132D01*
X21139Y18386D01*
D02*
G37*
G36*
X21382Y17944D02*
X21388Y17942D01*
X21389D01*
X21393Y17941D01*
X21396Y17939D01*
X21399Y17936D01*
X21400Y17935D01*
X21401Y17934D01*
X21403Y17931D01*
X21405Y17927D01*
Y17926D01*
X21406Y17924D01*
X21407Y17920D01*
Y17916D01*
Y17915D01*
Y17912D01*
X21406Y17907D01*
X21405Y17902D01*
Y17901D01*
X21404Y17897D01*
X21403Y17891D01*
X21402Y17886D01*
Y17885D01*
X21401Y17881D01*
X21399Y17876D01*
X21396Y17871D01*
X21396Y17870D01*
X21395Y17867D01*
X21389Y17859D01*
X21388Y17858D01*
X21385Y17857D01*
X21381Y17855D01*
X21375Y17853D01*
X21373D01*
X21369Y17852D01*
X21362Y17851D01*
X21352Y17850D01*
X21346D01*
X21340Y17851D01*
X21334Y17852D01*
X21333D01*
X21330Y17853D01*
X21322Y17857D01*
X21321Y17857D01*
X21320Y17859D01*
X21318Y17862D01*
X21317Y17866D01*
Y17867D01*
Y17870D01*
X21316Y17873D01*
Y17878D01*
Y17879D01*
Y17883D01*
Y17887D01*
X21317Y17892D01*
Y17894D01*
X21318Y17898D01*
X21318Y17903D01*
X21319Y17908D01*
Y17910D01*
X21320Y17913D01*
X21322Y17919D01*
X21324Y17923D01*
X21325Y17924D01*
X21327Y17927D01*
X21333Y17935D01*
X21334Y17935D01*
X21336Y17937D01*
X21340Y17940D01*
X21346Y17942D01*
X21348Y17943D01*
X21352Y17944D01*
X21359Y17945D01*
X21376D01*
X21382Y17944D01*
D02*
G37*
G36*
X31769Y15394D02*
X31776Y15393D01*
X31777D01*
X31779Y15392D01*
X31783Y15391D01*
X31786Y15389D01*
Y15388D01*
X31787Y15387D01*
X31788Y15384D01*
X31787Y15381D01*
Y15380D01*
X31786Y15377D01*
X31784Y15373D01*
X31781Y15366D01*
X31512Y14878D01*
Y14877D01*
X31510Y14875D01*
X31505Y14870D01*
X31504D01*
X31503Y14868D01*
X31500Y14867D01*
X31497Y14867D01*
X31496D01*
X31493Y14866D01*
X31489D01*
X31483Y14865D01*
X31478D01*
X31472Y14864D01*
X31449D01*
X31442Y14865D01*
X31441D01*
X31437Y14866D01*
X31433D01*
X31429Y14867D01*
X31428D01*
X31426Y14867D01*
X31421Y14870D01*
Y14871D01*
X31420Y14873D01*
X31420Y14879D01*
X31345Y15370D01*
Y15371D01*
X31344Y15375D01*
X31343Y15379D01*
Y15382D01*
Y15383D01*
X31344Y15385D01*
X31345Y15388D01*
X31347Y15390D01*
X31348Y15391D01*
X31350Y15392D01*
X31353Y15393D01*
X31358Y15394D01*
X31358D01*
X31363Y15395D01*
X31390D01*
X31397Y15394D01*
X31398D01*
X31402Y15393D01*
X31405Y15392D01*
X31408Y15391D01*
X31409D01*
X31410Y15390D01*
X31412Y15389D01*
X31413Y15387D01*
Y15386D01*
X31414Y15385D01*
X31416Y15380D01*
X31477Y14938D01*
X31478D01*
X31713Y15381D01*
Y15382D01*
X31714Y15382D01*
X31717Y15387D01*
X31717Y15388D01*
X31718Y15389D01*
X31724Y15391D01*
X31725D01*
X31727Y15392D01*
X31731Y15393D01*
X31735Y15394D01*
X31736D01*
X31741Y15395D01*
X31763D01*
X31769Y15394D01*
D02*
G37*
G36*
X31125Y15398D02*
X31134Y15398D01*
X31143Y15397D01*
X31162Y15392D01*
X31163D01*
X31166Y15391D01*
X31170Y15389D01*
X31176Y15386D01*
X31189Y15380D01*
X31202Y15370D01*
X31203Y15369D01*
X31205Y15367D01*
X31208Y15365D01*
X31212Y15361D01*
X31216Y15355D01*
X31219Y15350D01*
X31226Y15335D01*
Y15335D01*
X31227Y15332D01*
X31229Y15328D01*
X31231Y15322D01*
X31232Y15316D01*
X31233Y15308D01*
X31234Y15291D01*
Y15290D01*
Y15287D01*
Y15281D01*
X31233Y15274D01*
X31233Y15266D01*
X31231Y15257D01*
X31225Y15238D01*
Y15237D01*
X31223Y15233D01*
X31221Y15228D01*
X31218Y15223D01*
X31210Y15208D01*
X31199Y15193D01*
X31198Y15192D01*
X31196Y15190D01*
X31192Y15186D01*
X31187Y15181D01*
X31182Y15177D01*
X31174Y15171D01*
X31158Y15160D01*
X31157Y15159D01*
X31155Y15158D01*
X31150Y15155D01*
X31143Y15152D01*
X31136Y15148D01*
X31127Y15146D01*
X31108Y15140D01*
Y15139D01*
X31108D01*
X31112Y15138D01*
X31117D01*
X31124Y15136D01*
X31139Y15132D01*
X31154Y15126D01*
X31155D01*
X31156Y15124D01*
X31160Y15122D01*
X31165Y15119D01*
X31174Y15112D01*
X31184Y15101D01*
X31185Y15101D01*
X31186Y15099D01*
X31187Y15096D01*
X31190Y15092D01*
X31197Y15082D01*
X31202Y15070D01*
Y15069D01*
X31202Y15067D01*
X31203Y15063D01*
X31204Y15058D01*
X31206Y15047D01*
X31207Y15034D01*
Y15033D01*
Y15030D01*
Y15026D01*
X31206Y15022D01*
Y15015D01*
X31205Y15008D01*
X31202Y14993D01*
Y14992D01*
X31201Y14990D01*
X31200Y14986D01*
X31198Y14980D01*
X31193Y14968D01*
X31186Y14953D01*
X31185Y14952D01*
X31184Y14949D01*
X31181Y14945D01*
X31178Y14941D01*
X31169Y14929D01*
X31157Y14916D01*
X31156Y14915D01*
X31155Y14914D01*
X31151Y14911D01*
X31146Y14906D01*
X31140Y14901D01*
X31134Y14897D01*
X31125Y14891D01*
X31117Y14886D01*
X31116Y14885D01*
X31113Y14884D01*
X31108Y14882D01*
X31101Y14879D01*
X31093Y14876D01*
X31084Y14872D01*
X31074Y14869D01*
X31062Y14867D01*
X31061D01*
X31057Y14866D01*
X31051Y14865D01*
X31043Y14863D01*
X31032Y14862D01*
X31021Y14860D01*
X31008Y14859D01*
X30982D01*
X30969Y14860D01*
X30955Y14862D01*
X30954D01*
X30952Y14863D01*
X30949D01*
X30944Y14864D01*
X30934Y14866D01*
X30921Y14868D01*
X30921D01*
X30919Y14869D01*
X30916Y14870D01*
X30912Y14871D01*
X30903Y14874D01*
X30892Y14878D01*
X30891D01*
X30890Y14879D01*
X30885Y14882D01*
X30877Y14885D01*
X30869Y14891D01*
X30868Y14892D01*
X30865Y14893D01*
X30862Y14896D01*
X30859Y14898D01*
Y14899D01*
X30858Y14902D01*
X30858Y14906D01*
Y14911D01*
Y14912D01*
Y14913D01*
Y14917D01*
Y14918D01*
Y14920D01*
X30858Y14927D01*
Y14928D01*
X30859Y14929D01*
Y14933D01*
X30860Y14937D01*
Y14938D01*
X30861Y14941D01*
X30864Y14946D01*
Y14947D01*
X30865Y14949D01*
X30868Y14954D01*
X30869Y14955D01*
X30870Y14956D01*
X30872Y14957D01*
X30875D01*
X30877Y14956D01*
X30882Y14954D01*
X30888Y14950D01*
X30889Y14949D01*
X30894Y14946D01*
X30902Y14942D01*
X30912Y14936D01*
X30913D01*
X30915Y14935D01*
X30919Y14933D01*
X30922Y14931D01*
X30928Y14929D01*
X30935Y14927D01*
X30949Y14922D01*
X30950D01*
X30952Y14921D01*
X30957Y14920D01*
X30963Y14919D01*
X30969Y14918D01*
X30978Y14917D01*
X30987Y14916D01*
X31002D01*
X31009Y14917D01*
X31016D01*
X31026Y14919D01*
X31035Y14921D01*
X31046Y14923D01*
X31055Y14927D01*
X31056Y14928D01*
X31060Y14929D01*
X31063Y14930D01*
X31070Y14934D01*
X31083Y14942D01*
X31096Y14953D01*
X31097Y14954D01*
X31099Y14956D01*
X31102Y14960D01*
X31106Y14964D01*
X31114Y14976D01*
X31121Y14990D01*
Y14991D01*
X31122Y14993D01*
X31124Y14997D01*
X31125Y15003D01*
X31128Y15015D01*
X31129Y15030D01*
Y15031D01*
Y15033D01*
Y15036D01*
X31128Y15039D01*
X31126Y15050D01*
X31123Y15060D01*
Y15061D01*
X31122Y15063D01*
X31118Y15069D01*
X31112Y15076D01*
X31104Y15085D01*
X31103Y15085D01*
X31102Y15086D01*
X31099Y15088D01*
X31095Y15091D01*
X31091Y15094D01*
X31085Y15097D01*
X31071Y15101D01*
X31070D01*
X31067Y15102D01*
X31063Y15103D01*
X31058Y15105D01*
X31050Y15106D01*
X31042Y15107D01*
X31032Y15108D01*
X30962D01*
X30958Y15109D01*
X30955Y15111D01*
Y15112D01*
X30954Y15114D01*
X30953Y15117D01*
X30952Y15122D01*
Y15123D01*
Y15124D01*
Y15130D01*
Y15131D01*
X30953Y15132D01*
X30954Y15138D01*
Y15139D01*
X30955Y15141D01*
X30957Y15147D01*
Y15148D01*
X30958Y15149D01*
X30962Y15155D01*
X30963Y15156D01*
X30964Y15157D01*
X30968Y15161D01*
X30968Y15162D01*
X30970Y15163D01*
X30973Y15163D01*
X31027D01*
X31033Y15164D01*
X31040D01*
X31048Y15165D01*
X31058Y15167D01*
X31077Y15172D01*
X31077D01*
X31081Y15174D01*
X31086Y15176D01*
X31092Y15179D01*
X31106Y15187D01*
X31120Y15197D01*
X31121Y15198D01*
X31123Y15200D01*
X31126Y15204D01*
X31130Y15208D01*
X31135Y15213D01*
X31140Y15220D01*
X31149Y15234D01*
X31150Y15235D01*
X31151Y15238D01*
X31153Y15242D01*
X31155Y15248D01*
X31156Y15255D01*
X31157Y15262D01*
X31159Y15271D01*
Y15279D01*
Y15280D01*
Y15284D01*
X31158Y15289D01*
X31157Y15296D01*
X31155Y15304D01*
X31152Y15311D01*
X31148Y15319D01*
X31142Y15325D01*
X31141Y15326D01*
X31139Y15328D01*
X31135Y15331D01*
X31129Y15334D01*
X31122Y15336D01*
X31112Y15339D01*
X31101Y15341D01*
X31088Y15342D01*
X31079D01*
X31074Y15341D01*
X31066Y15340D01*
X31059Y15339D01*
X31043Y15335D01*
X31042D01*
X31039Y15334D01*
X31035Y15332D01*
X31030Y15330D01*
X31018Y15325D01*
X31005Y15319D01*
X31004D01*
X31002Y15319D01*
X30999Y15317D01*
X30995Y15315D01*
X30985Y15309D01*
X30976Y15304D01*
X30975D01*
X30974Y15303D01*
X30969Y15301D01*
X30964Y15298D01*
X30959Y15297D01*
X30957D01*
X30955Y15298D01*
X30953Y15300D01*
Y15301D01*
X30952Y15303D01*
X30952Y15305D01*
Y15309D01*
Y15310D01*
Y15312D01*
Y15315D01*
Y15319D01*
Y15319D01*
X30952Y15322D01*
X30953Y15327D01*
X30954Y15332D01*
Y15333D01*
X30955Y15335D01*
X30957Y15340D01*
X30959Y15345D01*
X30960Y15346D01*
X30962Y15349D01*
X30967Y15356D01*
X30968Y15357D01*
X30970Y15359D01*
X30976Y15363D01*
X30984Y15367D01*
X30985D01*
X30987Y15368D01*
X30989Y15370D01*
X30993Y15372D01*
X31003Y15377D01*
X31015Y15382D01*
X31016D01*
X31019Y15382D01*
X31023Y15384D01*
X31028Y15386D01*
X31034Y15388D01*
X31041Y15390D01*
X31058Y15394D01*
X31059D01*
X31061Y15395D01*
X31066Y15396D01*
X31073Y15397D01*
X31079Y15398D01*
X31088Y15398D01*
X31106Y15399D01*
X31117D01*
X31125Y15398D01*
D02*
G37*
G36*
X30494D02*
X30502Y15398D01*
X30512Y15397D01*
X30531Y15392D01*
X30531D01*
X30534Y15391D01*
X30539Y15389D01*
X30545Y15386D01*
X30558Y15380D01*
X30571Y15370D01*
X30572Y15369D01*
X30574Y15367D01*
X30577Y15365D01*
X30580Y15361D01*
X30584Y15355D01*
X30588Y15350D01*
X30594Y15335D01*
Y15335D01*
X30595Y15332D01*
X30597Y15328D01*
X30599Y15322D01*
X30600Y15316D01*
X30602Y15308D01*
X30603Y15291D01*
Y15290D01*
Y15287D01*
Y15281D01*
X30602Y15274D01*
X30601Y15266D01*
X30599Y15257D01*
X30593Y15238D01*
Y15237D01*
X30592Y15233D01*
X30590Y15228D01*
X30587Y15223D01*
X30578Y15208D01*
X30567Y15193D01*
X30566Y15192D01*
X30564Y15190D01*
X30561Y15186D01*
X30556Y15181D01*
X30550Y15177D01*
X30543Y15171D01*
X30527Y15160D01*
X30526Y15159D01*
X30523Y15158D01*
X30518Y15155D01*
X30512Y15152D01*
X30504Y15148D01*
X30496Y15146D01*
X30476Y15140D01*
Y15139D01*
X30477D01*
X30481Y15138D01*
X30485D01*
X30492Y15136D01*
X30507Y15132D01*
X30522Y15126D01*
X30523D01*
X30525Y15124D01*
X30529Y15122D01*
X30533Y15119D01*
X30543Y15112D01*
X30552Y15101D01*
X30553Y15101D01*
X30554Y15099D01*
X30556Y15096D01*
X30559Y15092D01*
X30565Y15082D01*
X30570Y15070D01*
Y15069D01*
X30571Y15067D01*
X30572Y15063D01*
X30573Y15058D01*
X30575Y15047D01*
X30576Y15034D01*
Y15033D01*
Y15030D01*
Y15026D01*
X30575Y15022D01*
Y15015D01*
X30574Y15008D01*
X30570Y14993D01*
Y14992D01*
X30569Y14990D01*
X30568Y14986D01*
X30566Y14980D01*
X30562Y14968D01*
X30554Y14953D01*
X30553Y14952D01*
X30552Y14949D01*
X30549Y14945D01*
X30546Y14941D01*
X30537Y14929D01*
X30526Y14916D01*
X30525Y14915D01*
X30523Y14914D01*
X30519Y14911D01*
X30515Y14906D01*
X30509Y14901D01*
X30502Y14897D01*
X30494Y14891D01*
X30485Y14886D01*
X30484Y14885D01*
X30482Y14884D01*
X30476Y14882D01*
X30469Y14879D01*
X30462Y14876D01*
X30452Y14872D01*
X30442Y14869D01*
X30431Y14867D01*
X30430D01*
X30425Y14866D01*
X30420Y14865D01*
X30411Y14863D01*
X30401Y14862D01*
X30390Y14860D01*
X30376Y14859D01*
X30350D01*
X30338Y14860D01*
X30324Y14862D01*
X30323D01*
X30321Y14863D01*
X30317D01*
X30312Y14864D01*
X30302Y14866D01*
X30290Y14868D01*
X30289D01*
X30287Y14869D01*
X30284Y14870D01*
X30281Y14871D01*
X30271Y14874D01*
X30261Y14878D01*
X30260D01*
X30259Y14879D01*
X30253Y14882D01*
X30246Y14885D01*
X30237Y14891D01*
X30236Y14892D01*
X30234Y14893D01*
X30231Y14896D01*
X30228Y14898D01*
Y14899D01*
X30227Y14902D01*
X30226Y14906D01*
Y14911D01*
Y14912D01*
Y14913D01*
Y14917D01*
Y14918D01*
Y14920D01*
X30227Y14927D01*
Y14928D01*
X30228Y14929D01*
Y14933D01*
X30229Y14937D01*
Y14938D01*
X30230Y14941D01*
X30233Y14946D01*
Y14947D01*
X30234Y14949D01*
X30236Y14954D01*
X30237Y14955D01*
X30238Y14956D01*
X30240Y14957D01*
X30244D01*
X30246Y14956D01*
X30250Y14954D01*
X30256Y14950D01*
X30258Y14949D01*
X30263Y14946D01*
X30270Y14942D01*
X30281Y14936D01*
X30281D01*
X30283Y14935D01*
X30287Y14933D01*
X30291Y14931D01*
X30296Y14929D01*
X30303Y14927D01*
X30317Y14922D01*
X30318D01*
X30321Y14921D01*
X30326Y14920D01*
X30331Y14919D01*
X30338Y14918D01*
X30346Y14917D01*
X30356Y14916D01*
X30371D01*
X30377Y14917D01*
X30385D01*
X30394Y14919D01*
X30404Y14921D01*
X30414Y14923D01*
X30423Y14927D01*
X30424Y14928D01*
X30428Y14929D01*
X30432Y14930D01*
X30438Y14934D01*
X30452Y14942D01*
X30465Y14953D01*
X30466Y14954D01*
X30468Y14956D01*
X30470Y14960D01*
X30474Y14964D01*
X30483Y14976D01*
X30489Y14990D01*
Y14991D01*
X30490Y14993D01*
X30492Y14997D01*
X30494Y15003D01*
X30497Y15015D01*
X30498Y15030D01*
Y15031D01*
Y15033D01*
Y15036D01*
X30497Y15039D01*
X30495Y15050D01*
X30491Y15060D01*
Y15061D01*
X30490Y15063D01*
X30486Y15069D01*
X30481Y15076D01*
X30472Y15085D01*
X30471Y15085D01*
X30470Y15086D01*
X30468Y15088D01*
X30464Y15091D01*
X30459Y15094D01*
X30453Y15097D01*
X30439Y15101D01*
X30438D01*
X30436Y15102D01*
X30432Y15103D01*
X30426Y15105D01*
X30419Y15106D01*
X30410Y15107D01*
X30401Y15108D01*
X30330D01*
X30327Y15109D01*
X30324Y15111D01*
Y15112D01*
X30323Y15114D01*
X30322Y15117D01*
X30321Y15122D01*
Y15123D01*
Y15124D01*
Y15130D01*
Y15131D01*
X30322Y15132D01*
X30323Y15138D01*
Y15139D01*
X30324Y15141D01*
X30326Y15147D01*
Y15148D01*
X30327Y15149D01*
X30330Y15155D01*
X30331Y15156D01*
X30332Y15157D01*
X30336Y15161D01*
X30337Y15162D01*
X30339Y15163D01*
X30342Y15163D01*
X30395D01*
X30402Y15164D01*
X30408D01*
X30417Y15165D01*
X30426Y15167D01*
X30445Y15172D01*
X30446D01*
X30450Y15174D01*
X30454Y15176D01*
X30460Y15179D01*
X30474Y15187D01*
X30488Y15197D01*
X30489Y15198D01*
X30491Y15200D01*
X30495Y15204D01*
X30499Y15208D01*
X30503Y15213D01*
X30509Y15220D01*
X30517Y15234D01*
X30518Y15235D01*
X30519Y15238D01*
X30521Y15242D01*
X30523Y15248D01*
X30525Y15255D01*
X30526Y15262D01*
X30528Y15271D01*
Y15279D01*
Y15280D01*
Y15284D01*
X30527Y15289D01*
X30526Y15296D01*
X30524Y15304D01*
X30520Y15311D01*
X30516Y15319D01*
X30511Y15325D01*
X30510Y15326D01*
X30508Y15328D01*
X30503Y15331D01*
X30498Y15334D01*
X30490Y15336D01*
X30481Y15339D01*
X30469Y15341D01*
X30456Y15342D01*
X30448D01*
X30442Y15341D01*
X30435Y15340D01*
X30427Y15339D01*
X30411Y15335D01*
X30410D01*
X30407Y15334D01*
X30404Y15332D01*
X30399Y15330D01*
X30387Y15325D01*
X30374Y15319D01*
X30373D01*
X30371Y15319D01*
X30368Y15317D01*
X30363Y15315D01*
X30354Y15309D01*
X30344Y15304D01*
X30343D01*
X30343Y15303D01*
X30338Y15301D01*
X30332Y15298D01*
X30327Y15297D01*
X30326D01*
X30324Y15298D01*
X30322Y15300D01*
Y15301D01*
X30321Y15303D01*
X30320Y15305D01*
Y15309D01*
Y15310D01*
Y15312D01*
Y15315D01*
Y15319D01*
Y15319D01*
X30321Y15322D01*
X30322Y15327D01*
X30323Y15332D01*
Y15333D01*
X30324Y15335D01*
X30326Y15340D01*
X30327Y15345D01*
X30328Y15346D01*
X30330Y15349D01*
X30335Y15356D01*
X30336Y15357D01*
X30339Y15359D01*
X30344Y15363D01*
X30353Y15367D01*
X30354D01*
X30356Y15368D01*
X30358Y15370D01*
X30361Y15372D01*
X30372Y15377D01*
X30384Y15382D01*
X30385D01*
X30388Y15382D01*
X30391Y15384D01*
X30396Y15386D01*
X30403Y15388D01*
X30409Y15390D01*
X30426Y15394D01*
X30427D01*
X30430Y15395D01*
X30435Y15396D01*
X30441Y15397D01*
X30448Y15398D01*
X30456Y15398D01*
X30474Y15399D01*
X30485D01*
X30494Y15398D01*
D02*
G37*
G36*
X30731Y14957D02*
X30736Y14955D01*
X30737D01*
X30741Y14954D01*
X30744Y14952D01*
X30748Y14949D01*
X30749Y14948D01*
X30749Y14946D01*
X30751Y14944D01*
X30753Y14940D01*
Y14939D01*
X30754Y14937D01*
X30755Y14933D01*
Y14929D01*
Y14928D01*
Y14925D01*
X30754Y14920D01*
X30753Y14914D01*
Y14914D01*
X30752Y14910D01*
X30751Y14904D01*
X30750Y14898D01*
Y14898D01*
X30749Y14894D01*
X30748Y14889D01*
X30745Y14883D01*
X30744Y14882D01*
X30743Y14880D01*
X30737Y14872D01*
X30736Y14871D01*
X30733Y14869D01*
X30730Y14867D01*
X30723Y14866D01*
X30721D01*
X30718Y14865D01*
X30710Y14864D01*
X30701Y14863D01*
X30694D01*
X30688Y14864D01*
X30682Y14865D01*
X30681D01*
X30678Y14866D01*
X30671Y14869D01*
X30670Y14870D01*
X30669Y14872D01*
X30667Y14875D01*
X30665Y14879D01*
Y14880D01*
Y14882D01*
X30664Y14886D01*
Y14891D01*
Y14892D01*
Y14896D01*
Y14899D01*
X30665Y14905D01*
Y14907D01*
X30666Y14911D01*
X30667Y14915D01*
X30668Y14921D01*
Y14923D01*
X30669Y14926D01*
X30671Y14931D01*
X30672Y14936D01*
X30673Y14937D01*
X30675Y14940D01*
X30681Y14947D01*
X30682Y14948D01*
X30685Y14950D01*
X30688Y14953D01*
X30694Y14955D01*
X30696Y14956D01*
X30701Y14957D01*
X30707Y14958D01*
X30724D01*
X30731Y14957D01*
D02*
G37*
G36*
X30272Y15394D02*
X30278Y15393D01*
X30279D01*
X30282Y15392D01*
X30286Y15391D01*
X30288Y15389D01*
Y15388D01*
X30289Y15387D01*
X30290Y15384D01*
X30289Y15381D01*
Y15380D01*
X30288Y15377D01*
X30287Y15373D01*
X30284Y15366D01*
X30014Y14878D01*
Y14877D01*
X30012Y14875D01*
X30007Y14870D01*
X30006D01*
X30006Y14868D01*
X30003Y14867D01*
X29999Y14867D01*
X29998D01*
X29995Y14866D01*
X29991D01*
X29986Y14865D01*
X29980D01*
X29975Y14864D01*
X29951D01*
X29944Y14865D01*
X29944D01*
X29940Y14866D01*
X29935D01*
X29931Y14867D01*
X29930D01*
X29928Y14867D01*
X29924Y14870D01*
Y14871D01*
X29923Y14873D01*
X29922Y14879D01*
X29848Y15370D01*
Y15371D01*
X29847Y15375D01*
X29846Y15379D01*
Y15382D01*
Y15383D01*
X29847Y15385D01*
X29848Y15388D01*
X29850Y15390D01*
X29850Y15391D01*
X29852Y15392D01*
X29855Y15393D01*
X29860Y15394D01*
X29861D01*
X29866Y15395D01*
X29893D01*
X29899Y15394D01*
X29900D01*
X29904Y15393D01*
X29907Y15392D01*
X29911Y15391D01*
X29912D01*
X29913Y15390D01*
X29914Y15389D01*
X29915Y15387D01*
Y15386D01*
X29916Y15385D01*
X29918Y15380D01*
X29979Y14938D01*
X29980D01*
X30215Y15381D01*
Y15382D01*
X30216Y15382D01*
X30219Y15387D01*
X30220Y15388D01*
X30221Y15389D01*
X30226Y15391D01*
X30227D01*
X30229Y15392D01*
X30233Y15393D01*
X30238Y15394D01*
X30239D01*
X30243Y15395D01*
X30265D01*
X30272Y15394D01*
D02*
G37*
G36*
X29032Y15395D02*
X29033D01*
X29036Y15394D01*
X29038Y15393D01*
X29041Y15392D01*
X29042D01*
X29043Y15391D01*
X29045Y15390D01*
X29046Y15388D01*
Y15387D01*
Y15383D01*
X28954Y14923D01*
X29051D01*
X29053Y14922D01*
X29055Y14921D01*
X29057Y14918D01*
X29058Y14917D01*
X29059Y14915D01*
X29060Y14913D01*
Y14908D01*
Y14907D01*
Y14906D01*
X29059Y14900D01*
Y14899D01*
X29058Y14898D01*
X29057Y14892D01*
Y14891D01*
X29056Y14889D01*
X29054Y14882D01*
Y14882D01*
X29054Y14880D01*
X29051Y14874D01*
Y14873D01*
X29049Y14872D01*
X29045Y14868D01*
X29043Y14867D01*
X29038Y14867D01*
X28762D01*
X28760Y14867D01*
X28758Y14868D01*
X28756Y14870D01*
Y14871D01*
X28755Y14873D01*
X28754Y14877D01*
X28753Y14882D01*
Y14883D01*
Y14887D01*
Y14888D01*
X28754Y14890D01*
X28755Y14896D01*
Y14897D01*
X28756Y14898D01*
X28757Y14905D01*
Y14906D01*
X28758Y14908D01*
X28761Y14914D01*
X28762Y14914D01*
X28763Y14915D01*
X28767Y14920D01*
X28768Y14921D01*
X28770Y14922D01*
X28772Y14923D01*
X28884D01*
X28963Y15318D01*
X28850Y15257D01*
X28849Y15257D01*
X28846Y15256D01*
X28842Y15254D01*
X28838Y15253D01*
X28832D01*
X28831Y15254D01*
X28829Y15257D01*
Y15257D01*
Y15259D01*
X28828Y15262D01*
Y15266D01*
Y15267D01*
Y15269D01*
Y15272D01*
X28829Y15276D01*
Y15277D01*
X28830Y15281D01*
X28831Y15286D01*
X28832Y15290D01*
Y15291D01*
X28834Y15294D01*
X28835Y15298D01*
X28837Y15303D01*
X28838Y15304D01*
X28840Y15306D01*
X28843Y15309D01*
X28847Y15312D01*
X28984Y15390D01*
X28985Y15391D01*
X28989Y15392D01*
X28990D01*
X28991Y15393D01*
X28995Y15394D01*
X28996D01*
X28998Y15395D01*
X29005D01*
X29007Y15396D01*
X29026D01*
X29032Y15395D01*
D02*
G37*
G36*
X29233Y14957D02*
X29239Y14955D01*
X29240D01*
X29243Y14954D01*
X29246Y14952D01*
X29250Y14949D01*
X29251Y14948D01*
X29252Y14946D01*
X29254Y14944D01*
X29256Y14940D01*
Y14939D01*
X29257Y14937D01*
X29257Y14933D01*
Y14929D01*
Y14928D01*
Y14925D01*
X29257Y14920D01*
X29256Y14914D01*
Y14914D01*
X29255Y14910D01*
X29254Y14904D01*
X29253Y14898D01*
Y14898D01*
X29252Y14894D01*
X29250Y14889D01*
X29247Y14883D01*
X29246Y14882D01*
X29245Y14880D01*
X29240Y14872D01*
X29239Y14871D01*
X29236Y14869D01*
X29232Y14867D01*
X29226Y14866D01*
X29224D01*
X29220Y14865D01*
X29212Y14864D01*
X29203Y14863D01*
X29196D01*
X29191Y14864D01*
X29184Y14865D01*
X29183D01*
X29180Y14866D01*
X29173Y14869D01*
X29172Y14870D01*
X29171Y14872D01*
X29169Y14875D01*
X29167Y14879D01*
Y14880D01*
Y14882D01*
X29166Y14886D01*
Y14891D01*
Y14892D01*
Y14896D01*
Y14899D01*
X29167Y14905D01*
Y14907D01*
X29168Y14911D01*
X29169Y14915D01*
X29170Y14921D01*
Y14923D01*
X29171Y14926D01*
X29173Y14931D01*
X29175Y14936D01*
X29176Y14937D01*
X29178Y14940D01*
X29183Y14947D01*
X29184Y14948D01*
X29187Y14950D01*
X29191Y14953D01*
X29196Y14955D01*
X29198Y14956D01*
X29203Y14957D01*
X29210Y14958D01*
X29226D01*
X29233Y14957D01*
D02*
G37*
G36*
X29637Y15398D02*
X29647D01*
X29657Y15397D01*
X29668Y15395D01*
X29679Y15393D01*
X29690Y15389D01*
X29691D01*
X29694Y15387D01*
X29699Y15385D01*
X29705Y15382D01*
X29719Y15375D01*
X29725Y15370D01*
X29732Y15365D01*
X29733Y15364D01*
X29735Y15362D01*
X29738Y15359D01*
X29741Y15355D01*
X29748Y15345D01*
X29751Y15338D01*
X29754Y15332D01*
Y15331D01*
X29755Y15329D01*
X29756Y15325D01*
X29757Y15321D01*
X29759Y15310D01*
X29760Y15298D01*
Y15297D01*
Y15293D01*
X29759Y15288D01*
Y15282D01*
X29757Y15274D01*
X29756Y15266D01*
X29754Y15257D01*
X29750Y15248D01*
Y15247D01*
X29748Y15244D01*
X29746Y15240D01*
X29743Y15234D01*
X29735Y15220D01*
X29724Y15205D01*
X29723Y15204D01*
X29721Y15201D01*
X29717Y15197D01*
X29712Y15193D01*
X29706Y15187D01*
X29699Y15181D01*
X29682Y15168D01*
X29681Y15167D01*
X29678Y15165D01*
X29673Y15163D01*
X29667Y15159D01*
X29659Y15154D01*
X29650Y15148D01*
X29640Y15144D01*
X29630Y15138D01*
X29631Y15137D01*
X29633Y15136D01*
X29638Y15133D01*
X29644Y15130D01*
X29658Y15121D01*
X29672Y15111D01*
X29673Y15110D01*
X29675Y15108D01*
X29678Y15105D01*
X29682Y15102D01*
X29692Y15093D01*
X29701Y15082D01*
X29702Y15081D01*
X29703Y15079D01*
X29705Y15076D01*
X29708Y15072D01*
X29713Y15063D01*
X29718Y15052D01*
Y15051D01*
X29719Y15049D01*
X29720Y15046D01*
X29721Y15041D01*
X29723Y15031D01*
X29724Y15018D01*
Y15017D01*
Y15015D01*
Y15011D01*
X29723Y15007D01*
X29722Y14994D01*
X29718Y14980D01*
Y14979D01*
X29717Y14977D01*
X29716Y14974D01*
X29714Y14969D01*
X29710Y14957D01*
X29703Y14944D01*
Y14943D01*
X29701Y14941D01*
X29699Y14937D01*
X29695Y14932D01*
X29688Y14922D01*
X29677Y14910D01*
X29676Y14909D01*
X29674Y14907D01*
X29670Y14904D01*
X29665Y14901D01*
X29660Y14897D01*
X29653Y14892D01*
X29637Y14883D01*
X29636D01*
X29633Y14882D01*
X29629Y14880D01*
X29622Y14877D01*
X29615Y14874D01*
X29605Y14871D01*
X29596Y14868D01*
X29585Y14866D01*
X29584D01*
X29579Y14865D01*
X29573Y14864D01*
X29565Y14863D01*
X29554Y14861D01*
X29543Y14860D01*
X29531Y14859D01*
X29503D01*
X29493Y14860D01*
X29483Y14861D01*
X29472Y14862D01*
X29460Y14864D01*
X29448Y14867D01*
X29447D01*
X29444Y14868D01*
X29438Y14870D01*
X29432Y14872D01*
X29416Y14880D01*
X29401Y14889D01*
X29400Y14890D01*
X29398Y14892D01*
X29395Y14895D01*
X29391Y14899D01*
X29382Y14910D01*
X29373Y14924D01*
Y14925D01*
X29372Y14928D01*
X29370Y14931D01*
X29369Y14937D01*
X29367Y14944D01*
X29366Y14951D01*
X29365Y14967D01*
Y14968D01*
Y14972D01*
X29366Y14977D01*
Y14984D01*
X29366Y14992D01*
X29368Y15000D01*
X29374Y15018D01*
X29375Y15019D01*
X29376Y15022D01*
X29378Y15026D01*
X29382Y15033D01*
X29385Y15039D01*
X29390Y15047D01*
X29402Y15063D01*
X29403Y15064D01*
X29406Y15067D01*
X29410Y15070D01*
X29415Y15076D01*
X29422Y15082D01*
X29430Y15088D01*
X29440Y15096D01*
X29449Y15102D01*
X29450Y15103D01*
X29454Y15105D01*
X29460Y15109D01*
X29468Y15114D01*
X29477Y15118D01*
X29489Y15125D01*
X29501Y15131D01*
X29514Y15137D01*
X29512Y15138D01*
X29507Y15141D01*
X29501Y15146D01*
X29492Y15152D01*
X29483Y15159D01*
X29474Y15167D01*
X29464Y15177D01*
X29457Y15186D01*
X29456Y15187D01*
X29454Y15191D01*
X29451Y15196D01*
X29448Y15204D01*
X29444Y15213D01*
X29442Y15224D01*
X29440Y15235D01*
X29439Y15247D01*
Y15248D01*
Y15250D01*
Y15254D01*
X29440Y15258D01*
X29441Y15270D01*
X29443Y15283D01*
Y15284D01*
X29444Y15286D01*
X29444Y15289D01*
X29446Y15294D01*
X29450Y15306D01*
X29457Y15319D01*
X29458Y15319D01*
X29459Y15321D01*
X29460Y15325D01*
X29463Y15329D01*
X29472Y15339D01*
X29481Y15350D01*
X29482Y15351D01*
X29484Y15352D01*
X29487Y15355D01*
X29491Y15358D01*
X29496Y15363D01*
X29503Y15366D01*
X29517Y15375D01*
X29518Y15376D01*
X29521Y15377D01*
X29524Y15379D01*
X29531Y15382D01*
X29538Y15384D01*
X29545Y15387D01*
X29564Y15393D01*
X29565D01*
X29569Y15394D01*
X29574Y15395D01*
X29581Y15397D01*
X29590Y15398D01*
X29600Y15398D01*
X29611Y15399D01*
X29630D01*
X29637Y15398D01*
D02*
G37*
G36*
X28341Y25630D02*
X28348Y25629D01*
X28349D01*
X28351Y25628D01*
X28355Y25627D01*
X28358Y25625D01*
Y25624D01*
X28359Y25623D01*
X28360Y25621D01*
X28359Y25617D01*
Y25616D01*
X28358Y25613D01*
X28356Y25609D01*
X28353Y25603D01*
X28084Y25114D01*
Y25113D01*
X28082Y25111D01*
X28077Y25106D01*
X28076D01*
X28075Y25105D01*
X28072Y25104D01*
X28069Y25103D01*
X28068D01*
X28065Y25102D01*
X28061D01*
X28055Y25101D01*
X28050D01*
X28044Y25100D01*
X28021D01*
X28014Y25101D01*
X28013D01*
X28009Y25102D01*
X28005D01*
X28001Y25103D01*
X28000D01*
X27998Y25104D01*
X27993Y25106D01*
Y25107D01*
X27992Y25109D01*
X27992Y25115D01*
X27917Y25606D01*
Y25607D01*
X27916Y25611D01*
X27915Y25615D01*
Y25619D01*
Y25620D01*
X27916Y25621D01*
X27917Y25624D01*
X27919Y25626D01*
X27920Y25627D01*
X27922Y25628D01*
X27925Y25629D01*
X27929Y25630D01*
X27930D01*
X27935Y25631D01*
X27962D01*
X27969Y25630D01*
X27970D01*
X27974Y25629D01*
X27976Y25628D01*
X27980Y25627D01*
X27981D01*
X27982Y25626D01*
X27984Y25625D01*
X27985Y25623D01*
Y25622D01*
X27986Y25621D01*
X27988Y25616D01*
X28049Y25174D01*
X28050D01*
X28285Y25617D01*
Y25618D01*
X28286Y25619D01*
X28288Y25623D01*
X28289Y25624D01*
X28290Y25625D01*
X28296Y25627D01*
X28297D01*
X28299Y25628D01*
X28303Y25629D01*
X28307Y25630D01*
X28308D01*
X28313Y25631D01*
X28335D01*
X28341Y25630D01*
D02*
G37*
G36*
X27813Y25626D02*
X27816Y25624D01*
X27817Y25623D01*
X27818Y25621D01*
X27819Y25618D01*
X27820Y25612D01*
Y25611D01*
Y25610D01*
X27819Y25605D01*
Y25604D01*
X27818Y25602D01*
Y25599D01*
X27817Y25595D01*
Y25594D01*
X27816Y25592D01*
X27815Y25589D01*
X27814Y25585D01*
Y25584D01*
X27813Y25582D01*
X27809Y25575D01*
Y25574D01*
X27808Y25574D01*
X27804Y25569D01*
X27803D01*
X27801Y25568D01*
X27795Y25567D01*
X27599D01*
X27570Y25419D01*
X27572D01*
X27574Y25420D01*
X27578D01*
X27586Y25421D01*
X27596Y25422D01*
X27598D01*
X27603Y25423D01*
X27630D01*
X27638Y25422D01*
X27648D01*
X27661Y25420D01*
X27673Y25418D01*
X27686Y25417D01*
X27698Y25413D01*
X27699D01*
X27704Y25411D01*
X27710Y25409D01*
X27716Y25406D01*
X27733Y25398D01*
X27742Y25393D01*
X27749Y25387D01*
X27750Y25387D01*
X27752Y25385D01*
X27756Y25381D01*
X27760Y25377D01*
X27765Y25372D01*
X27770Y25365D01*
X27773Y25357D01*
X27777Y25349D01*
Y25348D01*
X27779Y25345D01*
X27780Y25340D01*
X27782Y25335D01*
X27784Y25328D01*
X27785Y25321D01*
X27787Y25303D01*
Y25302D01*
Y25298D01*
Y25294D01*
X27786Y25287D01*
X27785Y25278D01*
X27784Y25270D01*
X27780Y25251D01*
Y25250D01*
X27779Y25247D01*
X27777Y25242D01*
X27775Y25235D01*
X27773Y25228D01*
X27770Y25220D01*
X27761Y25202D01*
X27760Y25201D01*
X27759Y25199D01*
X27757Y25194D01*
X27753Y25188D01*
X27742Y25174D01*
X27729Y25159D01*
X27728Y25158D01*
X27726Y25156D01*
X27722Y25153D01*
X27717Y25148D01*
X27711Y25142D01*
X27702Y25137D01*
X27694Y25131D01*
X27684Y25125D01*
X27683Y25124D01*
X27680Y25123D01*
X27675Y25121D01*
X27667Y25117D01*
X27659Y25114D01*
X27649Y25110D01*
X27638Y25106D01*
X27627Y25103D01*
X27625D01*
X27621Y25102D01*
X27615Y25101D01*
X27606Y25099D01*
X27596Y25098D01*
X27584Y25096D01*
X27570Y25095D01*
X27544D01*
X27533Y25096D01*
X27520Y25098D01*
X27517D01*
X27513Y25099D01*
X27509D01*
X27499Y25101D01*
X27488Y25103D01*
X27487D01*
X27485Y25104D01*
X27482Y25105D01*
X27478Y25106D01*
X27470Y25108D01*
X27460Y25111D01*
X27459D01*
X27458Y25112D01*
X27452Y25114D01*
X27445Y25118D01*
X27438Y25122D01*
X27437Y25122D01*
X27435Y25123D01*
X27432Y25125D01*
X27430Y25128D01*
Y25129D01*
X27429Y25131D01*
X27428Y25135D01*
Y25139D01*
Y25141D01*
Y25145D01*
Y25146D01*
Y25148D01*
X27429Y25154D01*
Y25155D01*
X27430Y25158D01*
X27430Y25165D01*
Y25166D01*
X27431Y25169D01*
X27434Y25174D01*
X27435Y25175D01*
X27436Y25177D01*
X27439Y25182D01*
X27440Y25183D01*
X27441Y25184D01*
X27443Y25184D01*
X27445Y25185D01*
X27446D01*
X27448Y25184D01*
X27452Y25184D01*
X27458Y25180D01*
X27460Y25179D01*
X27463Y25177D01*
X27471Y25173D01*
X27479Y25169D01*
X27480D01*
X27482Y25168D01*
X27485Y25167D01*
X27489Y25165D01*
X27499Y25161D01*
X27512Y25157D01*
X27513D01*
X27516Y25156D01*
X27520Y25155D01*
X27525D01*
X27532Y25154D01*
X27540Y25153D01*
X27550Y25153D01*
X27566D01*
X27573Y25153D01*
X27582Y25154D01*
X27592Y25155D01*
X27603Y25157D01*
X27615Y25160D01*
X27626Y25164D01*
X27627Y25165D01*
X27631Y25166D01*
X27636Y25169D01*
X27643Y25172D01*
X27658Y25183D01*
X27673Y25196D01*
X27674Y25197D01*
X27676Y25200D01*
X27680Y25203D01*
X27684Y25209D01*
X27689Y25215D01*
X27694Y25223D01*
X27698Y25231D01*
X27702Y25241D01*
Y25242D01*
X27704Y25246D01*
X27705Y25251D01*
X27707Y25258D01*
X27709Y25266D01*
X27710Y25276D01*
X27711Y25296D01*
Y25297D01*
Y25299D01*
Y25301D01*
X27711Y25305D01*
X27710Y25313D01*
X27706Y25323D01*
Y25324D01*
X27705Y25325D01*
X27702Y25330D01*
X27696Y25338D01*
X27688Y25345D01*
X27687Y25346D01*
X27686Y25347D01*
X27682Y25349D01*
X27679Y25351D01*
X27674Y25354D01*
X27668Y25356D01*
X27654Y25361D01*
X27653D01*
X27650Y25362D01*
X27646Y25363D01*
X27640Y25364D01*
X27633Y25365D01*
X27624Y25366D01*
X27614Y25367D01*
X27586D01*
X27577Y25366D01*
X27570D01*
X27553Y25364D01*
X27549D01*
X27545Y25363D01*
X27540D01*
X27529Y25362D01*
X27515D01*
X27511Y25363D01*
X27507Y25364D01*
X27503Y25367D01*
Y25368D01*
X27502Y25372D01*
Y25378D01*
X27503Y25387D01*
X27546Y25601D01*
Y25602D01*
Y25603D01*
X27548Y25608D01*
X27551Y25616D01*
X27555Y25621D01*
X27556Y25622D01*
X27561Y25625D01*
X27567Y25627D01*
X27574Y25628D01*
X27810D01*
X27813Y25626D01*
D02*
G37*
G36*
X27102Y25631D02*
X27102D01*
X27105Y25630D01*
X27108Y25629D01*
X27111Y25628D01*
X27112D01*
X27113Y25627D01*
X27115Y25626D01*
X27116Y25624D01*
Y25623D01*
Y25620D01*
X27024Y25159D01*
X27120D01*
X27122Y25158D01*
X27125Y25157D01*
X27127Y25154D01*
X27128Y25153D01*
X27129Y25152D01*
X27130Y25149D01*
Y25144D01*
Y25143D01*
Y25142D01*
X27129Y25137D01*
Y25136D01*
X27128Y25134D01*
X27127Y25128D01*
Y25127D01*
X27126Y25125D01*
X27124Y25119D01*
Y25118D01*
X27123Y25116D01*
X27120Y25110D01*
Y25109D01*
X27118Y25108D01*
X27115Y25105D01*
X27113Y25104D01*
X27108Y25103D01*
X26832D01*
X26830Y25104D01*
X26828Y25105D01*
X26825Y25106D01*
Y25107D01*
X26824Y25109D01*
X26823Y25113D01*
X26822Y25118D01*
Y25120D01*
Y25123D01*
Y25124D01*
X26823Y25126D01*
X26824Y25132D01*
Y25133D01*
X26825Y25135D01*
X26827Y25141D01*
Y25142D01*
X26828Y25144D01*
X26831Y25150D01*
X26832Y25151D01*
X26833Y25152D01*
X26837Y25156D01*
X26837Y25157D01*
X26839Y25158D01*
X26841Y25159D01*
X26954D01*
X27033Y25554D01*
X26919Y25494D01*
X26918Y25493D01*
X26915Y25492D01*
X26912Y25490D01*
X26908Y25489D01*
X26901D01*
X26900Y25490D01*
X26899Y25493D01*
Y25494D01*
Y25496D01*
X26898Y25498D01*
Y25502D01*
Y25503D01*
Y25505D01*
Y25508D01*
X26899Y25512D01*
Y25513D01*
X26899Y25517D01*
X26900Y25522D01*
X26901Y25527D01*
Y25528D01*
X26903Y25530D01*
X26904Y25534D01*
X26907Y25539D01*
X26908Y25540D01*
X26910Y25543D01*
X26913Y25545D01*
X26916Y25548D01*
X27054Y25626D01*
X27055Y25627D01*
X27058Y25628D01*
X27059D01*
X27060Y25629D01*
X27065Y25630D01*
X27066D01*
X27068Y25631D01*
X27074D01*
X27077Y25632D01*
X27096D01*
X27102Y25631D01*
D02*
G37*
G36*
X27303Y25193D02*
X27308Y25191D01*
X27309D01*
X27313Y25190D01*
X27316Y25188D01*
X27320Y25185D01*
X27320Y25184D01*
X27321Y25183D01*
X27323Y25180D01*
X27325Y25176D01*
Y25175D01*
X27326Y25173D01*
X27327Y25169D01*
Y25165D01*
Y25164D01*
Y25161D01*
X27326Y25156D01*
X27325Y25151D01*
Y25150D01*
X27324Y25146D01*
X27323Y25140D01*
X27322Y25135D01*
Y25134D01*
X27321Y25130D01*
X27320Y25125D01*
X27317Y25120D01*
X27316Y25119D01*
X27315Y25116D01*
X27309Y25108D01*
X27308Y25107D01*
X27305Y25106D01*
X27302Y25104D01*
X27295Y25102D01*
X27293D01*
X27289Y25101D01*
X27282Y25100D01*
X27273Y25099D01*
X27266D01*
X27260Y25100D01*
X27254Y25101D01*
X27253D01*
X27250Y25102D01*
X27242Y25106D01*
X27242Y25106D01*
X27241Y25108D01*
X27239Y25111D01*
X27237Y25115D01*
Y25116D01*
Y25119D01*
X27236Y25122D01*
Y25127D01*
Y25128D01*
Y25132D01*
Y25136D01*
X27237Y25141D01*
Y25143D01*
X27238Y25147D01*
X27239Y25152D01*
X27240Y25157D01*
Y25159D01*
X27241Y25162D01*
X27242Y25168D01*
X27244Y25172D01*
X27245Y25173D01*
X27247Y25176D01*
X27253Y25184D01*
X27254Y25184D01*
X27257Y25186D01*
X27260Y25189D01*
X27266Y25191D01*
X27268Y25192D01*
X27273Y25193D01*
X27279Y25194D01*
X27296D01*
X27303Y25193D01*
D02*
G37*
G36*
X33345Y25626D02*
X33352Y25625D01*
X33352D01*
X33355Y25624D01*
X33359Y25623D01*
X33362Y25621D01*
Y25620D01*
X33363Y25619D01*
X33364Y25616D01*
X33363Y25613D01*
Y25612D01*
X33362Y25609D01*
X33360Y25605D01*
X33357Y25598D01*
X33087Y25110D01*
Y25109D01*
X33086Y25107D01*
X33081Y25102D01*
X33080D01*
X33079Y25100D01*
X33076Y25099D01*
X33072Y25098D01*
X33071D01*
X33069Y25098D01*
X33065D01*
X33059Y25097D01*
X33054D01*
X33048Y25096D01*
X33024D01*
X33018Y25097D01*
X33017D01*
X33013Y25098D01*
X33008D01*
X33005Y25098D01*
X33004D01*
X33002Y25099D01*
X32997Y25102D01*
Y25103D01*
X32996Y25105D01*
X32995Y25111D01*
X32921Y25602D01*
Y25603D01*
X32920Y25607D01*
X32919Y25611D01*
Y25614D01*
Y25615D01*
X32920Y25617D01*
X32921Y25620D01*
X32923Y25622D01*
X32924Y25623D01*
X32926Y25624D01*
X32929Y25625D01*
X32933Y25626D01*
X32934D01*
X32939Y25627D01*
X32966D01*
X32973Y25626D01*
X32974D01*
X32977Y25625D01*
X32980Y25624D01*
X32984Y25623D01*
X32985D01*
X32986Y25622D01*
X32988Y25621D01*
X32989Y25619D01*
Y25618D01*
X32990Y25617D01*
X32992Y25612D01*
X33053Y25170D01*
X33054D01*
X33289Y25613D01*
Y25614D01*
X33289Y25614D01*
X33292Y25619D01*
X33293Y25620D01*
X33294Y25621D01*
X33300Y25623D01*
X33301D01*
X33303Y25624D01*
X33306Y25625D01*
X33311Y25626D01*
X33312D01*
X33317Y25627D01*
X33338D01*
X33345Y25626D01*
D02*
G37*
G36*
X32695Y25630D02*
X32704D01*
X32714Y25629D01*
X32725Y25627D01*
X32735Y25624D01*
X32745Y25620D01*
X32746Y25619D01*
X32750Y25618D01*
X32754Y25615D01*
X32760Y25613D01*
X32774Y25603D01*
X32780Y25598D01*
X32786Y25592D01*
X32787Y25591D01*
X32789Y25589D01*
X32790Y25586D01*
X32794Y25582D01*
X32801Y25570D01*
X32806Y25556D01*
Y25555D01*
X32807Y25552D01*
X32808Y25549D01*
X32810Y25544D01*
X32812Y25533D01*
X32813Y25520D01*
Y25519D01*
Y25517D01*
Y25513D01*
Y25509D01*
X32812Y25498D01*
X32810Y25485D01*
Y25484D01*
X32809Y25482D01*
Y25478D01*
X32808Y25473D01*
X32805Y25462D01*
X32800Y25448D01*
Y25447D01*
X32799Y25445D01*
X32797Y25441D01*
X32795Y25436D01*
X32792Y25430D01*
X32789Y25423D01*
X32780Y25408D01*
X32779Y25407D01*
X32778Y25404D01*
X32775Y25399D01*
X32772Y25394D01*
X32767Y25387D01*
X32761Y25379D01*
X32747Y25361D01*
X32746Y25360D01*
X32743Y25356D01*
X32739Y25351D01*
X32733Y25345D01*
X32726Y25337D01*
X32717Y25328D01*
X32708Y25317D01*
X32697Y25307D01*
X32696Y25306D01*
X32693Y25302D01*
X32686Y25296D01*
X32679Y25288D01*
X32668Y25279D01*
X32657Y25269D01*
X32644Y25256D01*
X32629Y25244D01*
X32527Y25158D01*
X32752D01*
X32755Y25157D01*
X32758Y25156D01*
X32760Y25152D01*
X32761Y25151D01*
X32762Y25149D01*
X32763Y25145D01*
X32764Y25141D01*
Y25140D01*
Y25139D01*
X32763Y25133D01*
Y25132D01*
X32762Y25130D01*
X32761Y25125D01*
Y25124D01*
X32760Y25122D01*
X32759Y25118D01*
X32758Y25114D01*
Y25114D01*
X32758Y25112D01*
X32754Y25106D01*
X32752Y25104D01*
X32747Y25100D01*
X32745Y25099D01*
X32741Y25098D01*
X32447D01*
X32442Y25099D01*
X32441D01*
X32440Y25100D01*
X32436Y25102D01*
Y25103D01*
X32435Y25104D01*
X32433Y25108D01*
Y25109D01*
Y25110D01*
X32432Y25115D01*
Y25116D01*
Y25118D01*
Y25121D01*
Y25126D01*
Y25127D01*
X32433Y25130D01*
X32434Y25134D01*
X32435Y25140D01*
X32436Y25141D01*
X32437Y25145D01*
X32440Y25149D01*
X32443Y25155D01*
X32444Y25157D01*
X32446Y25161D01*
X32450Y25165D01*
X32456Y25171D01*
X32591Y25289D01*
X32593Y25290D01*
X32597Y25294D01*
X32602Y25300D01*
X32610Y25306D01*
X32618Y25314D01*
X32628Y25322D01*
X32646Y25341D01*
X32647Y25342D01*
X32649Y25345D01*
X32654Y25349D01*
X32660Y25356D01*
X32665Y25363D01*
X32672Y25370D01*
X32684Y25386D01*
X32685Y25387D01*
X32687Y25390D01*
X32690Y25394D01*
X32694Y25398D01*
X32702Y25411D01*
X32710Y25425D01*
Y25426D01*
X32711Y25427D01*
X32712Y25431D01*
X32715Y25435D01*
X32720Y25445D01*
X32724Y25457D01*
Y25457D01*
X32725Y25459D01*
X32726Y25462D01*
X32727Y25466D01*
X32729Y25474D01*
X32731Y25483D01*
Y25484D01*
Y25485D01*
X32732Y25490D01*
X32733Y25497D01*
Y25504D01*
Y25505D01*
Y25506D01*
Y25511D01*
X32731Y25518D01*
X32729Y25525D01*
Y25526D01*
X32728Y25527D01*
X32727Y25532D01*
X32724Y25538D01*
X32719Y25546D01*
Y25547D01*
X32718Y25548D01*
X32713Y25551D01*
X32707Y25557D01*
X32697Y25563D01*
X32696D01*
X32695Y25564D01*
X32692Y25565D01*
X32688Y25567D01*
X32683Y25567D01*
X32678Y25568D01*
X32663Y25569D01*
X32654D01*
X32649Y25568D01*
X32641Y25567D01*
X32633Y25567D01*
X32618Y25562D01*
X32617D01*
X32614Y25561D01*
X32610Y25559D01*
X32605Y25557D01*
X32593Y25552D01*
X32580Y25547D01*
X32579D01*
X32577Y25546D01*
X32574Y25544D01*
X32570Y25542D01*
X32560Y25536D01*
X32551Y25531D01*
X32549Y25530D01*
X32545Y25528D01*
X32540Y25525D01*
X32536Y25524D01*
X32535D01*
X32534Y25525D01*
X32531Y25526D01*
X32529Y25528D01*
Y25529D01*
X32528Y25531D01*
X32527Y25535D01*
Y25539D01*
Y25540D01*
Y25542D01*
Y25547D01*
Y25548D01*
X32528Y25550D01*
Y25554D01*
Y25555D01*
X32529Y25557D01*
X32530Y25564D01*
Y25565D01*
X32531Y25567D01*
X32534Y25572D01*
Y25573D01*
X32535Y25575D01*
X32538Y25580D01*
Y25581D01*
X32539Y25582D01*
X32542Y25587D01*
X32543Y25588D01*
X32546Y25590D01*
X32552Y25594D01*
X32560Y25598D01*
X32561D01*
X32563Y25599D01*
X32566Y25601D01*
X32570Y25603D01*
X32579Y25608D01*
X32592Y25613D01*
X32593D01*
X32596Y25614D01*
X32600Y25615D01*
X32604Y25617D01*
X32611Y25619D01*
X32618Y25621D01*
X32633Y25626D01*
X32634D01*
X32637Y25627D01*
X32642Y25628D01*
X32649Y25629D01*
X32655Y25629D01*
X32664Y25630D01*
X32681Y25631D01*
X32688D01*
X32695Y25630D01*
D02*
G37*
G36*
X32105Y25627D02*
X32106D01*
X32109Y25626D01*
X32112Y25625D01*
X32115Y25624D01*
X32116D01*
X32117Y25623D01*
X32118Y25622D01*
X32119Y25620D01*
Y25619D01*
Y25615D01*
X32027Y25155D01*
X32124D01*
X32126Y25154D01*
X32129Y25153D01*
X32131Y25150D01*
X32132Y25149D01*
X32133Y25147D01*
X32134Y25145D01*
Y25140D01*
Y25139D01*
Y25138D01*
X32133Y25132D01*
Y25131D01*
X32132Y25129D01*
X32131Y25124D01*
Y25123D01*
X32130Y25121D01*
X32128Y25114D01*
Y25114D01*
X32127Y25112D01*
X32124Y25106D01*
Y25105D01*
X32122Y25104D01*
X32118Y25100D01*
X32117Y25099D01*
X32112Y25098D01*
X31836D01*
X31834Y25099D01*
X31832Y25100D01*
X31829Y25102D01*
Y25103D01*
X31828Y25105D01*
X31827Y25109D01*
X31826Y25114D01*
Y25115D01*
Y25119D01*
Y25120D01*
X31827Y25122D01*
X31828Y25128D01*
Y25129D01*
X31829Y25130D01*
X31831Y25137D01*
Y25138D01*
X31832Y25140D01*
X31835Y25145D01*
X31836Y25146D01*
X31837Y25147D01*
X31840Y25152D01*
X31841Y25153D01*
X31843Y25154D01*
X31845Y25155D01*
X31958D01*
X32037Y25550D01*
X31923Y25489D01*
X31922Y25489D01*
X31919Y25488D01*
X31915Y25486D01*
X31912Y25485D01*
X31905D01*
X31904Y25486D01*
X31902Y25489D01*
Y25489D01*
Y25491D01*
X31901Y25494D01*
Y25498D01*
Y25499D01*
Y25501D01*
Y25504D01*
X31902Y25508D01*
Y25509D01*
X31903Y25513D01*
X31904Y25518D01*
X31905Y25522D01*
Y25523D01*
X31907Y25526D01*
X31908Y25530D01*
X31911Y25535D01*
X31912Y25535D01*
X31914Y25538D01*
X31916Y25541D01*
X31920Y25544D01*
X32057Y25622D01*
X32058Y25623D01*
X32062Y25624D01*
X32063D01*
X32064Y25625D01*
X32069Y25626D01*
X32070D01*
X32071Y25627D01*
X32078D01*
X32081Y25628D01*
X32100D01*
X32105Y25627D01*
D02*
G37*
G36*
X32306Y25189D02*
X32312Y25187D01*
X32313D01*
X32317Y25186D01*
X32320Y25184D01*
X32323Y25181D01*
X32324Y25180D01*
X32325Y25178D01*
X32327Y25176D01*
X32329Y25172D01*
Y25171D01*
X32330Y25169D01*
X32331Y25165D01*
Y25161D01*
Y25160D01*
Y25157D01*
X32330Y25152D01*
X32329Y25146D01*
Y25145D01*
X32328Y25142D01*
X32327Y25136D01*
X32326Y25130D01*
Y25129D01*
X32325Y25126D01*
X32323Y25121D01*
X32321Y25115D01*
X32320Y25114D01*
X32319Y25112D01*
X32313Y25104D01*
X32312Y25103D01*
X32309Y25101D01*
X32306Y25099D01*
X32299Y25098D01*
X32297D01*
X32293Y25097D01*
X32286Y25096D01*
X32276Y25095D01*
X32270D01*
X32264Y25096D01*
X32258Y25097D01*
X32257D01*
X32254Y25098D01*
X32246Y25101D01*
X32245Y25102D01*
X32244Y25104D01*
X32243Y25107D01*
X32241Y25111D01*
Y25112D01*
Y25114D01*
X32240Y25118D01*
Y25123D01*
Y25124D01*
Y25128D01*
Y25131D01*
X32241Y25137D01*
Y25139D01*
X32242Y25143D01*
X32243Y25147D01*
X32243Y25153D01*
Y25155D01*
X32244Y25158D01*
X32246Y25163D01*
X32248Y25168D01*
X32249Y25169D01*
X32251Y25172D01*
X32257Y25179D01*
X32258Y25180D01*
X32260Y25182D01*
X32264Y25185D01*
X32270Y25187D01*
X32272Y25188D01*
X32276Y25189D01*
X32283Y25190D01*
X32300D01*
X32306Y25189D01*
D02*
G37*
G36*
X50093Y14605D02*
X50094D01*
X50098Y14603D01*
X50107Y14602D01*
X50109D01*
X50112Y14600D01*
X50124Y14597D01*
X50125D01*
X50129Y14595D01*
X50139Y14590D01*
X50140D01*
X50142Y14587D01*
X50149Y14580D01*
X50150Y14577D01*
X50152Y14569D01*
Y14085D01*
X50150Y14082D01*
X50149Y14078D01*
X50145Y14073D01*
X50144D01*
X50140Y14072D01*
X50134Y14070D01*
X50125Y14068D01*
X50122D01*
X50116D01*
X50114D01*
X50111Y14070D01*
X50101Y14072D01*
X50099D01*
X50096Y14073D01*
X50084Y14077D01*
X50083D01*
X50079Y14078D01*
X50070Y14083D01*
X50068Y14085D01*
X50066Y14087D01*
X50058Y14093D01*
X50056Y14095D01*
X50055Y14098D01*
X50053Y14101D01*
Y14299D01*
X49362Y14437D01*
X49467Y14238D01*
X49469Y14236D01*
X49470Y14231D01*
X49474Y14225D01*
X49475Y14218D01*
Y14207D01*
X49474Y14205D01*
X49469Y14202D01*
X49467D01*
X49464D01*
X49459Y14200D01*
X49452D01*
X49451D01*
X49447D01*
X49442D01*
X49434Y14202D01*
X49433D01*
X49426Y14203D01*
X49418Y14205D01*
X49410Y14207D01*
X49408D01*
X49403Y14210D01*
X49396Y14212D01*
X49388Y14217D01*
X49386Y14218D01*
X49382Y14222D01*
X49377Y14226D01*
X49372Y14233D01*
X49235Y14473D01*
X49233Y14475D01*
X49232Y14482D01*
Y14483D01*
X49230Y14485D01*
X49228Y14493D01*
Y14495D01*
X49227Y14498D01*
Y14510D01*
X49225Y14514D01*
Y14547D01*
X49227Y14557D01*
Y14559D01*
X49228Y14564D01*
X49230Y14569D01*
X49232Y14574D01*
Y14575D01*
X49233Y14577D01*
X49235Y14580D01*
X49238Y14582D01*
X49240D01*
X49247D01*
X50053Y14421D01*
Y14590D01*
X50055Y14594D01*
X50056Y14598D01*
X50061Y14602D01*
X50063Y14603D01*
X50066Y14605D01*
X50071Y14607D01*
X50079D01*
X50081D01*
X50083D01*
X50093Y14605D01*
D02*
G37*
G36*
X50058Y13845D02*
X50068Y13843D01*
X50070D01*
X50076Y13841D01*
X50086Y13840D01*
X50096Y13838D01*
X50098D01*
X50104Y13836D01*
X50112Y13833D01*
X50122Y13828D01*
X50124Y13826D01*
X50129Y13825D01*
X50142Y13815D01*
X50144Y13813D01*
X50147Y13808D01*
X50150Y13802D01*
X50153Y13790D01*
Y13787D01*
X50155Y13780D01*
X50157Y13767D01*
X50158Y13751D01*
Y13739D01*
X50157Y13729D01*
X50155Y13718D01*
Y13716D01*
X50153Y13711D01*
X50147Y13698D01*
X50145Y13696D01*
X50142Y13695D01*
X50137Y13692D01*
X50130Y13688D01*
X50129D01*
X50124D01*
X50117Y13687D01*
X50109D01*
X50107D01*
X50101D01*
X50094D01*
X50084Y13688D01*
X50081D01*
X50074Y13690D01*
X50066Y13692D01*
X50056Y13693D01*
X50053D01*
X50048Y13695D01*
X50038Y13698D01*
X50030Y13701D01*
X50028Y13703D01*
X50023Y13706D01*
X50010Y13716D01*
X50009Y13718D01*
X50005Y13723D01*
X50000Y13729D01*
X49997Y13739D01*
X49995Y13743D01*
X49994Y13751D01*
X49992Y13762D01*
Y13792D01*
X49994Y13803D01*
X49997Y13813D01*
Y13815D01*
X49999Y13822D01*
X50002Y13826D01*
X50007Y13833D01*
X50009Y13835D01*
X50012Y13836D01*
X50017Y13840D01*
X50023Y13843D01*
X50025D01*
X50028Y13845D01*
X50035Y13846D01*
X50043D01*
X50045D01*
X50050D01*
X50058Y13845D01*
D02*
G37*
G36*
X49452Y13583D02*
X49475Y13580D01*
X49477D01*
X49480Y13578D01*
X49487D01*
X49495Y13576D01*
X49515Y13570D01*
X49540Y13562D01*
X49541D01*
X49544Y13560D01*
X49553Y13557D01*
X49561Y13553D01*
X49571Y13548D01*
X49584Y13542D01*
X49610Y13527D01*
X49612Y13525D01*
X49617Y13524D01*
X49625Y13519D01*
X49635Y13512D01*
X49647Y13504D01*
X49661Y13494D01*
X49693Y13469D01*
X49694Y13468D01*
X49701Y13463D01*
X49709Y13455D01*
X49721Y13445D01*
X49734Y13431D01*
X49750Y13417D01*
X49768Y13400D01*
X49786Y13382D01*
X49788Y13380D01*
X49795Y13374D01*
X49806Y13362D01*
X49819Y13349D01*
X49836Y13331D01*
X49854Y13311D01*
X49875Y13288D01*
X49897Y13262D01*
X50048Y13084D01*
Y13478D01*
X50050Y13483D01*
X50051Y13487D01*
X50058Y13492D01*
X50060Y13494D01*
X50063Y13496D01*
X50070Y13497D01*
X50078Y13499D01*
X50079D01*
X50081D01*
X50091Y13497D01*
X50093D01*
X50096Y13496D01*
X50106Y13494D01*
X50107D01*
X50111Y13492D01*
X50117Y13491D01*
X50124Y13489D01*
X50125D01*
X50129Y13487D01*
X50139Y13481D01*
X50142Y13478D01*
X50149Y13469D01*
X50150Y13466D01*
X50152Y13458D01*
Y12944D01*
X50150Y12934D01*
Y12933D01*
X50149Y12931D01*
X50145Y12925D01*
X50144D01*
X50142Y12923D01*
X50135Y12920D01*
X50134D01*
X50132D01*
X50122Y12918D01*
X50121D01*
X50117D01*
X50112D01*
X50104D01*
X50102D01*
X50096Y12920D01*
X50089Y12921D01*
X50079Y12923D01*
X50078Y12925D01*
X50071Y12926D01*
X50063Y12931D01*
X50053Y12936D01*
X50050Y12938D01*
X50043Y12943D01*
X50035Y12949D01*
X50025Y12959D01*
X49818Y13196D01*
X49816Y13199D01*
X49809Y13206D01*
X49800Y13216D01*
X49788Y13229D01*
X49775Y13244D01*
X49760Y13260D01*
X49727Y13292D01*
X49726Y13293D01*
X49721Y13298D01*
X49712Y13306D01*
X49701Y13316D01*
X49689Y13326D01*
X49676Y13338D01*
X49648Y13359D01*
X49647Y13361D01*
X49642Y13364D01*
X49635Y13369D01*
X49627Y13376D01*
X49604Y13390D01*
X49581Y13403D01*
X49579D01*
X49576Y13407D01*
X49569Y13408D01*
X49563Y13413D01*
X49544Y13422D01*
X49525Y13428D01*
X49523D01*
X49520Y13430D01*
X49515Y13431D01*
X49508Y13433D01*
X49493Y13438D01*
X49479Y13441D01*
X49477D01*
X49475D01*
X49465Y13443D01*
X49454Y13445D01*
X49441D01*
X49439D01*
X49438D01*
X49429D01*
X49418Y13441D01*
X49405Y13438D01*
X49403D01*
X49401Y13436D01*
X49393Y13435D01*
X49382Y13428D01*
X49368Y13420D01*
X49367D01*
X49365Y13418D01*
X49359Y13410D01*
X49349Y13399D01*
X49339Y13382D01*
Y13380D01*
X49337Y13377D01*
X49335Y13372D01*
X49332Y13366D01*
X49331Y13357D01*
X49329Y13348D01*
X49327Y13321D01*
Y13306D01*
X49329Y13297D01*
X49331Y13283D01*
X49332Y13270D01*
X49340Y13242D01*
Y13241D01*
X49342Y13236D01*
X49345Y13229D01*
X49349Y13221D01*
X49357Y13199D01*
X49367Y13176D01*
Y13175D01*
X49368Y13171D01*
X49372Y13166D01*
X49375Y13158D01*
X49385Y13142D01*
X49395Y13125D01*
X49396Y13122D01*
X49400Y13115D01*
X49405Y13106D01*
X49406Y13099D01*
Y13097D01*
X49405Y13096D01*
X49403Y13091D01*
X49400Y13087D01*
X49398D01*
X49395Y13086D01*
X49388Y13084D01*
X49380D01*
X49378D01*
X49375D01*
X49367D01*
X49365D01*
X49362Y13086D01*
X49354D01*
X49352D01*
X49349Y13087D01*
X49337Y13089D01*
X49335D01*
X49332Y13091D01*
X49322Y13096D01*
X49321D01*
X49317Y13097D01*
X49309Y13102D01*
X49307D01*
X49304Y13104D01*
X49296Y13111D01*
X49294Y13112D01*
X49291Y13117D01*
X49284Y13127D01*
X49276Y13142D01*
Y13143D01*
X49275Y13147D01*
X49271Y13152D01*
X49268Y13158D01*
X49260Y13175D01*
X49252Y13198D01*
Y13199D01*
X49250Y13204D01*
X49247Y13211D01*
X49243Y13219D01*
X49240Y13231D01*
X49237Y13242D01*
X49228Y13270D01*
Y13272D01*
X49227Y13277D01*
X49225Y13285D01*
X49224Y13297D01*
X49222Y13308D01*
X49220Y13323D01*
X49219Y13354D01*
Y13366D01*
X49220Y13377D01*
Y13394D01*
X49224Y13412D01*
X49227Y13430D01*
X49232Y13448D01*
X49238Y13466D01*
X49240Y13468D01*
X49242Y13474D01*
X49247Y13481D01*
X49252Y13492D01*
X49268Y13515D01*
X49278Y13527D01*
X49288Y13537D01*
X49289Y13538D01*
X49293Y13542D01*
X49298Y13545D01*
X49306Y13552D01*
X49326Y13563D01*
X49350Y13573D01*
X49352D01*
X49357Y13575D01*
X49363Y13576D01*
X49372Y13580D01*
X49391Y13583D01*
X49414Y13585D01*
X49416D01*
X49419D01*
X49426D01*
X49433D01*
X49452Y13583D01*
D02*
G37*
G36*
X49252Y12982D02*
X49253D01*
X49258Y12981D01*
X49265Y12977D01*
X49276Y12972D01*
X50132Y12500D01*
X50134D01*
X50137Y12497D01*
X50145Y12488D01*
Y12487D01*
X50149Y12485D01*
X50150Y12480D01*
X50152Y12474D01*
Y12472D01*
X50153Y12467D01*
Y12460D01*
X50155Y12451D01*
Y12441D01*
X50157Y12431D01*
Y12390D01*
X50155Y12378D01*
Y12376D01*
X50153Y12370D01*
Y12362D01*
X50152Y12355D01*
Y12353D01*
X50150Y12350D01*
X50145Y12342D01*
X50144D01*
X50140Y12340D01*
X50130Y12339D01*
X49270Y12209D01*
X49268D01*
X49261Y12207D01*
X49255Y12205D01*
X49248D01*
X49247D01*
X49243Y12207D01*
X49238Y12209D01*
X49235Y12212D01*
X49233Y12214D01*
X49232Y12217D01*
X49230Y12222D01*
X49228Y12230D01*
Y12232D01*
X49227Y12240D01*
Y12288D01*
X49228Y12299D01*
Y12301D01*
X49230Y12307D01*
X49232Y12312D01*
X49233Y12319D01*
Y12320D01*
X49235Y12322D01*
X49237Y12325D01*
X49240Y12327D01*
X49242D01*
X49243Y12329D01*
X49253Y12332D01*
X50027Y12439D01*
Y12441D01*
X49252Y12852D01*
X49250D01*
X49248Y12854D01*
X49240Y12859D01*
X49238Y12860D01*
X49237Y12862D01*
X49233Y12872D01*
Y12874D01*
X49232Y12877D01*
X49230Y12883D01*
X49228Y12892D01*
Y12893D01*
X49227Y12901D01*
Y12939D01*
X49228Y12951D01*
X49230Y12962D01*
Y12964D01*
X49232Y12969D01*
X49233Y12976D01*
X49237Y12981D01*
X49238D01*
X49240Y12982D01*
X49245Y12984D01*
X49252Y12982D01*
D02*
G37*
G36*
X49782Y12026D02*
X49783D01*
X49786D01*
X49796Y12023D01*
X49798D01*
X49801Y12021D01*
X49813Y12018D01*
X49814D01*
X49818Y12016D01*
X49828Y12011D01*
X49829D01*
X49831Y12009D01*
X49839Y12001D01*
X49841Y11998D01*
X49842Y11990D01*
Y11685D01*
X49841Y11682D01*
X49837Y11677D01*
X49836D01*
X49833Y11675D01*
X49826Y11674D01*
X49818D01*
X49814D01*
X49808D01*
X49806D01*
X49803D01*
X49793Y11675D01*
X49791D01*
X49788Y11677D01*
X49777Y11680D01*
X49775D01*
X49770Y11682D01*
X49760Y11687D01*
X49758Y11688D01*
X49757Y11690D01*
X49750Y11697D01*
X49749Y11698D01*
X49747Y11702D01*
X49745Y11705D01*
Y12014D01*
X49749Y12019D01*
X49752Y12023D01*
X49754Y12024D01*
X49757Y12026D01*
X49762Y12028D01*
X49770D01*
X49773D01*
X49777D01*
X49782Y12026D01*
D02*
G37*
G36*
X49273Y11590D02*
X49275D01*
X49278Y11588D01*
X49283D01*
X49289Y11586D01*
X49291D01*
X49294Y11585D01*
X49301Y11583D01*
X49307Y11581D01*
X49309D01*
X49312Y11580D01*
X49324Y11573D01*
X49326D01*
X49327Y11572D01*
X49335Y11563D01*
Y11562D01*
X49337Y11558D01*
X49339Y11549D01*
Y11205D01*
X49597Y11154D01*
Y11158D01*
X49596Y11162D01*
Y11168D01*
X49594Y11183D01*
X49592Y11200D01*
Y11203D01*
X49591Y11213D01*
Y11259D01*
X49592Y11274D01*
Y11292D01*
X49596Y11313D01*
X49599Y11335D01*
X49602Y11358D01*
X49609Y11379D01*
Y11381D01*
X49612Y11389D01*
X49615Y11399D01*
X49620Y11410D01*
X49635Y11440D01*
X49643Y11455D01*
X49653Y11468D01*
X49655Y11470D01*
X49658Y11473D01*
X49665Y11479D01*
X49671Y11488D01*
X49681Y11496D01*
X49693Y11504D01*
X49706Y11511D01*
X49721Y11517D01*
X49722D01*
X49727Y11521D01*
X49735Y11522D01*
X49745Y11526D01*
X49757Y11529D01*
X49770Y11530D01*
X49801Y11534D01*
X49803D01*
X49809D01*
X49818D01*
X49829Y11532D01*
X49844Y11530D01*
X49859Y11529D01*
X49892Y11522D01*
X49893D01*
X49900Y11521D01*
X49908Y11517D01*
X49920Y11514D01*
X49933Y11509D01*
X49946Y11504D01*
X49977Y11489D01*
X49979Y11488D01*
X49984Y11486D01*
X49992Y11481D01*
X50002Y11474D01*
X50027Y11456D01*
X50053Y11433D01*
X50055Y11432D01*
X50058Y11427D01*
X50065Y11420D01*
X50073Y11412D01*
X50083Y11400D01*
X50093Y11386D01*
X50102Y11371D01*
X50112Y11354D01*
X50114Y11353D01*
X50116Y11346D01*
X50121Y11338D01*
X50127Y11325D01*
X50132Y11310D01*
X50139Y11293D01*
X50145Y11274D01*
X50152Y11254D01*
Y11251D01*
X50153Y11244D01*
X50155Y11233D01*
X50158Y11218D01*
X50160Y11200D01*
X50163Y11178D01*
X50165Y11154D01*
Y11109D01*
X50163Y11089D01*
X50160Y11066D01*
Y11061D01*
X50158Y11055D01*
Y11048D01*
X50155Y11030D01*
X50152Y11010D01*
Y11009D01*
X50150Y11005D01*
X50149Y11000D01*
X50147Y10994D01*
X50142Y10979D01*
X50137Y10961D01*
Y10959D01*
X50135Y10958D01*
X50132Y10948D01*
X50125Y10936D01*
X50119Y10923D01*
X50117Y10921D01*
X50116Y10918D01*
X50112Y10913D01*
X50107Y10908D01*
X50106D01*
X50102Y10907D01*
X50096Y10905D01*
X50088D01*
X50084D01*
X50078D01*
X50076D01*
X50073D01*
X50061Y10907D01*
X50060D01*
X50055Y10908D01*
X50043Y10910D01*
X50042D01*
X50037Y10912D01*
X50027Y10917D01*
X50025Y10918D01*
X50022Y10920D01*
X50014Y10925D01*
X50012Y10926D01*
X50010Y10928D01*
X50009Y10931D01*
X50007Y10936D01*
Y10938D01*
X50009Y10941D01*
X50010Y10948D01*
X50017Y10958D01*
X50019Y10961D01*
X50022Y10968D01*
X50028Y10981D01*
X50037Y10996D01*
Y10997D01*
X50038Y11000D01*
X50040Y11005D01*
X50043Y11012D01*
X50050Y11030D01*
X50056Y11053D01*
Y11055D01*
X50058Y11060D01*
X50060Y11066D01*
Y11076D01*
X50061Y11088D01*
X50063Y11103D01*
X50065Y11119D01*
Y11147D01*
X50063Y11160D01*
X50061Y11175D01*
X50060Y11193D01*
X50056Y11213D01*
X50051Y11233D01*
X50045Y11252D01*
X50043Y11254D01*
X50042Y11261D01*
X50037Y11270D01*
X50030Y11282D01*
X50012Y11308D01*
X49989Y11335D01*
X49987Y11336D01*
X49982Y11340D01*
X49976Y11346D01*
X49966Y11354D01*
X49954Y11363D01*
X49941Y11371D01*
X49926Y11379D01*
X49910Y11386D01*
X49908D01*
X49902Y11389D01*
X49892Y11391D01*
X49880Y11394D01*
X49865Y11397D01*
X49849Y11399D01*
X49813Y11402D01*
X49811D01*
X49808D01*
X49805D01*
X49798Y11400D01*
X49783Y11399D01*
X49767Y11392D01*
X49765D01*
X49763Y11391D01*
X49754Y11386D01*
X49740Y11376D01*
X49727Y11361D01*
X49726Y11359D01*
X49724Y11358D01*
X49721Y11351D01*
X49717Y11344D01*
X49712Y11336D01*
X49707Y11326D01*
X49699Y11302D01*
Y11300D01*
X49698Y11295D01*
X49696Y11287D01*
X49694Y11277D01*
X49693Y11264D01*
X49691Y11249D01*
X49689Y11231D01*
Y11182D01*
X49691Y11167D01*
Y11154D01*
X49694Y11124D01*
Y11117D01*
X49696Y11111D01*
Y11103D01*
X49698Y11083D01*
Y11058D01*
X49696Y11051D01*
X49694Y11043D01*
X49689Y11037D01*
X49688D01*
X49681Y11035D01*
X49670D01*
X49653Y11037D01*
X49279Y11112D01*
X49278D01*
X49276D01*
X49266Y11116D01*
X49253Y11121D01*
X49243Y11129D01*
X49242Y11130D01*
X49237Y11139D01*
X49233Y11149D01*
X49232Y11162D01*
Y11575D01*
X49235Y11580D01*
X49238Y11585D01*
X49240Y11586D01*
X49243Y11588D01*
X49250Y11590D01*
X49260Y11591D01*
X49261D01*
X49263D01*
X49273Y11590D01*
D02*
G37*
G36*
X49438Y10828D02*
X49452Y10826D01*
X49469Y10823D01*
X49502Y10813D01*
X49503D01*
X49510Y10810D01*
X49518Y10806D01*
X49528Y10801D01*
X49554Y10786D01*
X49581Y10767D01*
X49582Y10765D01*
X49586Y10762D01*
X49592Y10755D01*
X49600Y10747D01*
X49609Y10737D01*
X49619Y10724D01*
X49638Y10696D01*
X49640Y10694D01*
X49642Y10689D01*
X49647Y10681D01*
X49651Y10670D01*
X49658Y10656D01*
X49663Y10642D01*
X49673Y10607D01*
X49675D01*
Y10609D01*
X49676Y10615D01*
Y10624D01*
X49679Y10635D01*
X49686Y10661D01*
X49698Y10688D01*
Y10689D01*
X49701Y10693D01*
X49704Y10699D01*
X49709Y10707D01*
X49722Y10724D01*
X49740Y10740D01*
X49742Y10742D01*
X49745Y10744D01*
X49750Y10747D01*
X49757Y10752D01*
X49775Y10763D01*
X49796Y10772D01*
X49798D01*
X49801Y10773D01*
X49808Y10775D01*
X49816Y10777D01*
X49836Y10780D01*
X49859Y10782D01*
X49861D01*
X49865D01*
X49872D01*
X49880Y10780D01*
X49892D01*
X49903Y10778D01*
X49930Y10772D01*
X49931D01*
X49936Y10770D01*
X49943Y10768D01*
X49953Y10765D01*
X49974Y10757D01*
X50000Y10744D01*
X50002Y10742D01*
X50007Y10740D01*
X50014Y10735D01*
X50022Y10731D01*
X50042Y10714D01*
X50065Y10694D01*
X50066Y10693D01*
X50070Y10689D01*
X50074Y10683D01*
X50083Y10675D01*
X50091Y10665D01*
X50099Y10653D01*
X50109Y10638D01*
X50117Y10624D01*
X50119Y10622D01*
X50121Y10617D01*
X50125Y10607D01*
X50130Y10596D01*
X50135Y10582D01*
X50142Y10566D01*
X50147Y10548D01*
X50152Y10528D01*
Y10526D01*
X50153Y10518D01*
X50155Y10508D01*
X50158Y10494D01*
X50160Y10475D01*
X50163Y10456D01*
X50165Y10433D01*
Y10387D01*
X50163Y10365D01*
X50160Y10340D01*
Y10339D01*
X50158Y10336D01*
Y10329D01*
X50157Y10321D01*
X50153Y10303D01*
X50149Y10281D01*
Y10280D01*
X50147Y10276D01*
X50145Y10271D01*
X50144Y10265D01*
X50139Y10248D01*
X50132Y10230D01*
Y10229D01*
X50130Y10227D01*
X50125Y10217D01*
X50119Y10204D01*
X50109Y10189D01*
X50107Y10187D01*
X50106Y10182D01*
X50101Y10177D01*
X50096Y10173D01*
X50094D01*
X50089Y10171D01*
X50083Y10169D01*
X50074D01*
X50073D01*
X50071D01*
X50063D01*
X50061D01*
X50058D01*
X50046Y10171D01*
X50045D01*
X50042Y10173D01*
X50035D01*
X50028Y10174D01*
X50027D01*
X50022Y10176D01*
X50012Y10181D01*
X50010D01*
X50007Y10182D01*
X49999Y10187D01*
X49997Y10189D01*
X49995Y10191D01*
X49994Y10194D01*
Y10201D01*
X49995Y10204D01*
X49999Y10212D01*
X50005Y10222D01*
X50007Y10225D01*
X50012Y10233D01*
X50020Y10247D01*
X50030Y10265D01*
Y10266D01*
X50032Y10270D01*
X50035Y10276D01*
X50038Y10283D01*
X50042Y10293D01*
X50046Y10304D01*
X50055Y10329D01*
Y10331D01*
X50056Y10336D01*
X50058Y10344D01*
X50060Y10354D01*
X50061Y10365D01*
X50063Y10380D01*
X50065Y10396D01*
Y10423D01*
X50063Y10434D01*
Y10447D01*
X50060Y10464D01*
X50056Y10480D01*
X50053Y10498D01*
X50046Y10515D01*
X50045Y10517D01*
X50043Y10523D01*
X50040Y10530D01*
X50033Y10541D01*
X50020Y10564D01*
X50000Y10587D01*
X49999Y10589D01*
X49995Y10592D01*
X49989Y10597D01*
X49981Y10604D01*
X49961Y10619D01*
X49936Y10630D01*
X49935D01*
X49930Y10632D01*
X49923Y10635D01*
X49913Y10638D01*
X49892Y10643D01*
X49865Y10645D01*
X49864D01*
X49861D01*
X49856D01*
X49849Y10643D01*
X49831Y10640D01*
X49813Y10633D01*
X49811D01*
X49808Y10632D01*
X49798Y10625D01*
X49785Y10615D01*
X49770Y10601D01*
X49768Y10599D01*
X49767Y10597D01*
X49763Y10592D01*
X49758Y10586D01*
X49754Y10577D01*
X49749Y10568D01*
X49740Y10543D01*
Y10541D01*
X49739Y10536D01*
X49737Y10530D01*
X49734Y10520D01*
X49732Y10507D01*
X49730Y10492D01*
X49729Y10475D01*
Y10352D01*
X49727Y10345D01*
X49724Y10340D01*
X49722D01*
X49719Y10339D01*
X49712Y10337D01*
X49704Y10336D01*
X49702D01*
X49701D01*
X49691D01*
X49689D01*
X49686Y10337D01*
X49676Y10339D01*
X49675D01*
X49671Y10340D01*
X49661Y10344D01*
X49660D01*
X49656Y10345D01*
X49647Y10352D01*
X49645Y10354D01*
X49643Y10355D01*
X49637Y10362D01*
X49635Y10363D01*
X49633Y10367D01*
X49632Y10372D01*
Y10466D01*
X49630Y10477D01*
Y10489D01*
X49628Y10503D01*
X49625Y10520D01*
X49617Y10553D01*
Y10554D01*
X49614Y10561D01*
X49610Y10569D01*
X49605Y10579D01*
X49591Y10604D01*
X49572Y10628D01*
X49571Y10630D01*
X49568Y10633D01*
X49561Y10640D01*
X49554Y10647D01*
X49544Y10655D01*
X49533Y10665D01*
X49508Y10679D01*
X49507Y10681D01*
X49502Y10683D01*
X49493Y10686D01*
X49484Y10689D01*
X49472Y10693D01*
X49459Y10694D01*
X49444Y10698D01*
X49429D01*
X49428D01*
X49421D01*
X49411Y10696D01*
X49400Y10694D01*
X49386Y10691D01*
X49373Y10684D01*
X49360Y10678D01*
X49349Y10668D01*
X49347Y10666D01*
X49344Y10663D01*
X49339Y10655D01*
X49334Y10645D01*
X49329Y10632D01*
X49324Y10615D01*
X49321Y10596D01*
X49319Y10573D01*
Y10558D01*
X49321Y10548D01*
X49322Y10535D01*
X49324Y10521D01*
X49332Y10494D01*
Y10492D01*
X49334Y10487D01*
X49337Y10480D01*
X49340Y10472D01*
X49349Y10451D01*
X49359Y10428D01*
Y10426D01*
X49360Y10423D01*
X49363Y10418D01*
X49367Y10410D01*
X49377Y10393D01*
X49386Y10377D01*
Y10375D01*
X49388Y10373D01*
X49391Y10365D01*
X49396Y10355D01*
X49398Y10347D01*
Y10344D01*
X49396Y10340D01*
X49393Y10337D01*
X49391D01*
X49388Y10336D01*
X49383Y10334D01*
X49377D01*
X49375D01*
X49372D01*
X49367D01*
X49360D01*
X49359D01*
X49354Y10336D01*
X49345Y10337D01*
X49337Y10339D01*
X49335D01*
X49331Y10340D01*
X49322Y10344D01*
X49314Y10347D01*
X49312Y10349D01*
X49307Y10352D01*
X49294Y10360D01*
X49293Y10362D01*
X49289Y10367D01*
X49283Y10377D01*
X49275Y10391D01*
Y10393D01*
X49273Y10396D01*
X49270Y10400D01*
X49266Y10406D01*
X49258Y10424D01*
X49250Y10446D01*
Y10447D01*
X49248Y10452D01*
X49245Y10459D01*
X49242Y10467D01*
X49238Y10479D01*
X49235Y10490D01*
X49228Y10520D01*
Y10521D01*
X49227Y10526D01*
X49225Y10535D01*
X49224Y10546D01*
X49222Y10558D01*
X49220Y10573D01*
X49219Y10604D01*
Y10624D01*
X49220Y10638D01*
X49222Y10653D01*
X49224Y10670D01*
X49232Y10703D01*
Y10704D01*
X49233Y10709D01*
X49237Y10717D01*
X49242Y10727D01*
X49253Y10750D01*
X49270Y10773D01*
X49271Y10775D01*
X49275Y10778D01*
X49279Y10783D01*
X49286Y10790D01*
X49296Y10796D01*
X49306Y10803D01*
X49331Y10814D01*
X49332D01*
X49337Y10816D01*
X49344Y10819D01*
X49354Y10823D01*
X49365Y10824D01*
X49378Y10828D01*
X49408Y10829D01*
X49410D01*
X49416D01*
X49426D01*
X49438Y10828D01*
D02*
G37*
G36*
X49286Y10242D02*
X49288D01*
X49291Y10240D01*
X49298Y10238D01*
X49304Y10237D01*
X49306D01*
X49309Y10235D01*
X49321Y10229D01*
X49322D01*
X49324Y10227D01*
X49332Y10219D01*
Y10217D01*
X49334Y10215D01*
X49335Y10205D01*
Y9947D01*
X50135Y9787D01*
X50139Y9786D01*
X50145Y9781D01*
X50147Y9778D01*
X50149Y9774D01*
X50150Y9769D01*
Y9768D01*
X50152Y9764D01*
Y9759D01*
X50153Y9751D01*
Y9750D01*
X50155Y9743D01*
X50157Y9733D01*
Y9712D01*
X50155Y9702D01*
X50153Y9692D01*
Y9690D01*
X50152Y9685D01*
Y9679D01*
X50150Y9674D01*
Y9672D01*
X50149Y9671D01*
X50147Y9667D01*
X50145Y9666D01*
X50144D01*
X50142D01*
X50135D01*
X49335Y9825D01*
Y9562D01*
X49334Y9557D01*
X49331Y9554D01*
X49329D01*
X49326Y9552D01*
X49321Y9550D01*
X49312D01*
X49311D01*
X49309D01*
X49301D01*
X49299D01*
X49296Y9552D01*
X49284Y9554D01*
X49283D01*
X49278Y9555D01*
X49266Y9559D01*
X49265D01*
X49260Y9560D01*
X49250Y9565D01*
X49248Y9567D01*
X49245Y9569D01*
X49237Y9575D01*
X49235Y9577D01*
X49233Y9578D01*
X49232Y9583D01*
Y10229D01*
X49233Y10232D01*
X49235Y10237D01*
X49240Y10240D01*
X49242D01*
X49245Y10242D01*
X49250Y10243D01*
X49258D01*
X49261D01*
X49265D01*
X49270D01*
X49271D01*
X49275D01*
X49279D01*
X49286Y10242D01*
D02*
G37*
%LPC*%
G36*
X49819Y2565D02*
X49757D01*
X49725Y2407D01*
X49783D01*
X49788Y2407D01*
X49799Y2409D01*
X49811Y2411D01*
X49812D01*
X49814Y2412D01*
X49817Y2413D01*
X49820Y2414D01*
X49829Y2419D01*
X49838Y2424D01*
X49838Y2424D01*
X49840Y2425D01*
X49842Y2427D01*
X49844Y2429D01*
X49850Y2435D01*
X49857Y2443D01*
X49857Y2443D01*
X49858Y2445D01*
X49860Y2447D01*
X49861Y2450D01*
X49865Y2456D01*
X49869Y2464D01*
Y2465D01*
X49870Y2467D01*
X49871Y2469D01*
X49872Y2472D01*
X49874Y2479D01*
X49876Y2488D01*
Y2488D01*
X49877Y2490D01*
Y2492D01*
X49878Y2495D01*
X49879Y2502D01*
X49879Y2509D01*
Y2510D01*
Y2513D01*
X49879Y2516D01*
X49878Y2521D01*
X49875Y2531D01*
X49873Y2537D01*
X49869Y2542D01*
X49869Y2542D01*
X49868Y2544D01*
X49865Y2547D01*
X49862Y2550D01*
X49859Y2553D01*
X49854Y2556D01*
X49848Y2559D01*
X49841Y2561D01*
X49840Y2562D01*
X49836Y2563D01*
X49831Y2564D01*
X49824Y2564D01*
X49823D01*
X49819Y2565D01*
D02*
G37*
G36*
X53757D02*
X53695D01*
X53664Y2407D01*
X53722D01*
X53726Y2407D01*
X53738Y2409D01*
X53750Y2411D01*
X53750D01*
X53752Y2412D01*
X53755Y2413D01*
X53759Y2414D01*
X53767Y2419D01*
X53776Y2424D01*
X53777Y2424D01*
X53778Y2425D01*
X53781Y2427D01*
X53783Y2429D01*
X53789Y2435D01*
X53795Y2443D01*
X53796Y2443D01*
X53797Y2445D01*
X53798Y2447D01*
X53800Y2450D01*
X53804Y2456D01*
X53808Y2464D01*
Y2465D01*
X53809Y2467D01*
X53809Y2469D01*
X53811Y2472D01*
X53813Y2479D01*
X53815Y2488D01*
Y2488D01*
X53816Y2490D01*
Y2492D01*
X53816Y2495D01*
X53817Y2502D01*
X53818Y2509D01*
Y2510D01*
Y2513D01*
X53817Y2516D01*
X53816Y2521D01*
X53814Y2531D01*
X53812Y2537D01*
X53808Y2542D01*
X53807Y2542D01*
X53807Y2544D01*
X53804Y2547D01*
X53801Y2550D01*
X53797Y2553D01*
X53793Y2556D01*
X53787Y2559D01*
X53780Y2561D01*
X53778Y2562D01*
X53775Y2563D01*
X53769Y2564D01*
X53763Y2564D01*
X53762D01*
X53757Y2565D01*
D02*
G37*
G36*
X53209Y6018D02*
X53202D01*
X53194Y6017D01*
X53185Y6016D01*
X53185D01*
X53183Y6015D01*
X53181D01*
X53178Y6014D01*
X53171Y6012D01*
X53163Y6010D01*
X53162D01*
X53161Y6009D01*
X53159Y6008D01*
X53156Y6008D01*
X53149Y6006D01*
X53141Y6002D01*
X53140D01*
X53139Y6001D01*
X53138Y6000D01*
X53135Y5999D01*
X53128Y5996D01*
X53121Y5992D01*
Y5992D01*
X53121Y5989D01*
X53120Y5985D01*
X53119Y5980D01*
X53118Y5973D01*
X53117Y5967D01*
X53116Y5954D01*
Y5953D01*
Y5951D01*
X53115Y5947D01*
Y5944D01*
X53114Y5934D01*
Y5923D01*
Y5923D01*
Y5922D01*
Y5917D01*
X53115Y5911D01*
X53116Y5903D01*
X53118Y5894D01*
X53121Y5885D01*
X53124Y5877D01*
X53129Y5870D01*
X53130Y5869D01*
X53132Y5868D01*
X53135Y5865D01*
X53140Y5862D01*
X53146Y5859D01*
X53153Y5857D01*
X53161Y5855D01*
X53171Y5854D01*
X53177D01*
X53181Y5855D01*
X53190Y5857D01*
X53201Y5859D01*
X53202D01*
X53203Y5860D01*
X53206Y5861D01*
X53209Y5863D01*
X53216Y5867D01*
X53225Y5873D01*
X53225Y5873D01*
X53227Y5874D01*
X53231Y5878D01*
X53237Y5885D01*
X53243Y5892D01*
X53244Y5893D01*
X53244Y5894D01*
X53246Y5897D01*
X53247Y5900D01*
X53251Y5908D01*
X53256Y5916D01*
Y5917D01*
X53256Y5918D01*
X53258Y5921D01*
X53259Y5924D01*
X53261Y5932D01*
X53264Y5942D01*
Y5942D01*
X53265Y5944D01*
Y5947D01*
X53266Y5950D01*
X53266Y5958D01*
X53267Y5967D01*
Y5968D01*
Y5969D01*
Y5971D01*
X53266Y5974D01*
X53266Y5980D01*
X53263Y5987D01*
Y5988D01*
X53263Y5989D01*
X53261Y5993D01*
X53258Y5999D01*
X53253Y6004D01*
X53251Y6005D01*
X53249Y6008D01*
X53243Y6011D01*
X53235Y6014D01*
X53235D01*
X53233Y6015D01*
X53231Y6016D01*
X53228Y6016D01*
X53224D01*
X53219Y6017D01*
X53209Y6018D01*
D02*
G37*
G36*
X53577Y6164D02*
X53408Y5951D01*
X53534D01*
X53577Y6164D01*
D02*
G37*
G36*
X17660Y18329D02*
X17652D01*
X17646Y18328D01*
X17632Y18326D01*
X17617Y18321D01*
X17616D01*
X17614Y18319D01*
X17610Y18317D01*
X17606Y18314D01*
X17594Y18307D01*
X17581Y18296D01*
X17580Y18295D01*
X17578Y18294D01*
X17576Y18290D01*
X17572Y18285D01*
X17567Y18279D01*
X17562Y18273D01*
X17557Y18264D01*
X17552Y18256D01*
X17551Y18255D01*
X17550Y18252D01*
X17547Y18247D01*
X17545Y18241D01*
X17542Y18233D01*
X17538Y18224D01*
X17530Y18204D01*
Y18203D01*
X17529Y18200D01*
X17527Y18194D01*
X17525Y18187D01*
X17522Y18178D01*
X17520Y18169D01*
X17514Y18147D01*
Y18146D01*
X17514Y18142D01*
X17513Y18137D01*
X17511Y18129D01*
X17509Y18121D01*
X17507Y18111D01*
X17503Y18091D01*
Y18090D01*
X17502Y18086D01*
Y18081D01*
X17501Y18075D01*
X17500Y18066D01*
X17499Y18058D01*
X17498Y18041D01*
Y18040D01*
Y18037D01*
X17497Y18033D01*
Y18028D01*
X17496Y18015D01*
Y18004D01*
Y18003D01*
Y18002D01*
Y17999D01*
Y17996D01*
X17497Y17986D01*
X17498Y17975D01*
X17500Y17963D01*
X17503Y17951D01*
X17508Y17938D01*
X17514Y17928D01*
X17515Y17927D01*
X17518Y17924D01*
X17523Y17920D01*
X17529Y17916D01*
X17538Y17911D01*
X17548Y17907D01*
X17561Y17904D01*
X17576Y17904D01*
X17584D01*
X17591Y17904D01*
X17605Y17906D01*
X17620Y17911D01*
X17621D01*
X17623Y17913D01*
X17627Y17915D01*
X17632Y17918D01*
X17643Y17925D01*
X17654Y17935D01*
X17655Y17936D01*
X17657Y17938D01*
X17660Y17942D01*
X17664Y17947D01*
X17669Y17952D01*
X17673Y17959D01*
X17683Y17975D01*
X17684Y17976D01*
X17685Y17980D01*
X17687Y17984D01*
X17690Y17991D01*
X17694Y17998D01*
X17698Y18007D01*
X17705Y18027D01*
X17706Y18028D01*
X17707Y18031D01*
X17709Y18037D01*
X17711Y18045D01*
X17714Y18053D01*
X17716Y18062D01*
X17722Y18084D01*
Y18085D01*
X17723Y18089D01*
X17725Y18095D01*
X17727Y18103D01*
X17728Y18111D01*
X17730Y18121D01*
X17733Y18141D01*
Y18142D01*
X17734Y18146D01*
X17735Y18151D01*
X17736Y18158D01*
X17737Y18166D01*
X17738Y18174D01*
X17740Y18191D01*
Y18192D01*
Y18195D01*
X17741Y18199D01*
Y18204D01*
X17742Y18216D01*
Y18228D01*
Y18229D01*
Y18230D01*
Y18232D01*
Y18236D01*
X17741Y18246D01*
X17739Y18257D01*
X17737Y18269D01*
X17733Y18281D01*
X17729Y18294D01*
X17722Y18304D01*
X17721Y18305D01*
X17718Y18308D01*
X17714Y18312D01*
X17707Y18317D01*
X17699Y18321D01*
X17687Y18326D01*
X17675Y18328D01*
X17660Y18329D01*
D02*
G37*
G36*
X56117Y19535D02*
X56110D01*
X56104Y19534D01*
X56092Y19532D01*
X56078Y19527D01*
X56077D01*
X56075Y19526D01*
X56072Y19525D01*
X56068Y19523D01*
X56058Y19517D01*
X56047Y19509D01*
X56046Y19508D01*
X56045Y19507D01*
X56038Y19501D01*
X56030Y19493D01*
X56021Y19482D01*
Y19481D01*
X56020Y19479D01*
X56018Y19477D01*
X56016Y19473D01*
X56010Y19463D01*
X56005Y19449D01*
Y19448D01*
X56004Y19447D01*
X56003Y19443D01*
X56001Y19439D01*
X55997Y19428D01*
X55994Y19416D01*
Y19415D01*
Y19413D01*
X55993Y19409D01*
Y19405D01*
X55992Y19395D01*
X55991Y19383D01*
Y19382D01*
Y19380D01*
Y19377D01*
X55992Y19373D01*
X55993Y19365D01*
X55995Y19354D01*
Y19354D01*
X55996Y19353D01*
X55998Y19347D01*
X56003Y19340D01*
X56008Y19333D01*
X56010Y19332D01*
X56015Y19328D01*
X56022Y19323D01*
X56032Y19320D01*
X56033D01*
X56035Y19319D01*
X56037Y19318D01*
X56042D01*
X56047Y19317D01*
X56053Y19316D01*
X56068Y19315D01*
X56078D01*
X56087Y19316D01*
X56099Y19317D01*
X56099D01*
X56101Y19318D01*
X56104D01*
X56109Y19319D01*
X56118Y19322D01*
X56130Y19324D01*
X56130D01*
X56132Y19325D01*
X56135Y19326D01*
X56139Y19327D01*
X56147Y19331D01*
X56158Y19335D01*
X56159D01*
X56161Y19336D01*
X56162Y19338D01*
X56166Y19339D01*
X56175Y19343D01*
X56184Y19349D01*
Y19350D01*
X56185Y19354D01*
X56186Y19359D01*
X56187Y19366D01*
X56189Y19373D01*
X56190Y19382D01*
X56193Y19400D01*
Y19401D01*
X56193Y19403D01*
Y19408D01*
X56194Y19414D01*
X56195Y19427D01*
Y19441D01*
Y19442D01*
Y19443D01*
Y19449D01*
X56194Y19458D01*
X56193Y19468D01*
X56191Y19480D01*
X56187Y19492D01*
X56181Y19503D01*
X56175Y19512D01*
X56174Y19513D01*
X56171Y19516D01*
X56166Y19520D01*
X56161Y19524D01*
X56152Y19527D01*
X56142Y19531D01*
X56130Y19534D01*
X56117Y19535D01*
D02*
G37*
G36*
X51232Y19184D02*
X51222D01*
X51215Y19183D01*
X51208Y19182D01*
X51199Y19180D01*
X51183Y19176D01*
X51182D01*
X51180Y19174D01*
X51177Y19172D01*
X51172Y19170D01*
X51161Y19163D01*
X51150Y19154D01*
X51149Y19153D01*
X51148Y19152D01*
X51146Y19149D01*
X51143Y19146D01*
X51137Y19136D01*
X51131Y19125D01*
Y19124D01*
X51131Y19122D01*
X51130Y19119D01*
X51129Y19115D01*
X51127Y19105D01*
X51126Y19093D01*
Y19092D01*
Y19091D01*
Y19085D01*
X51127Y19078D01*
X51128Y19069D01*
X51129Y19068D01*
X51131Y19063D01*
X51133Y19056D01*
X51138Y19049D01*
X51140Y19047D01*
X51144Y19043D01*
X51150Y19037D01*
X51159Y19029D01*
X51160D01*
X51162Y19027D01*
X51164Y19025D01*
X51168Y19022D01*
X51174Y19019D01*
X51179Y19015D01*
X51194Y19006D01*
X51195Y19007D01*
X51199Y19008D01*
X51204Y19011D01*
X51210Y19014D01*
X51218Y19018D01*
X51226Y19022D01*
X51242Y19032D01*
X51243Y19033D01*
X51246Y19034D01*
X51250Y19037D01*
X51255Y19040D01*
X51266Y19050D01*
X51277Y19060D01*
X51278Y19061D01*
X51280Y19063D01*
X51283Y19066D01*
X51286Y19070D01*
X51293Y19081D01*
X51300Y19093D01*
Y19094D01*
X51301Y19096D01*
X51303Y19100D01*
X51304Y19104D01*
X51307Y19115D01*
X51308Y19129D01*
Y19130D01*
Y19131D01*
X51307Y19135D01*
X51306Y19142D01*
X51303Y19148D01*
Y19149D01*
X51303Y19150D01*
X51301Y19155D01*
X51297Y19161D01*
X51291Y19166D01*
X51289Y19168D01*
X51286Y19171D01*
X51278Y19176D01*
X51268Y19179D01*
X51267D01*
X51265Y19180D01*
X51262Y19181D01*
X51258Y19182D01*
X51253D01*
X51247Y19183D01*
X51232Y19184D01*
D02*
G37*
G36*
X51184Y18946D02*
X51182Y18945D01*
X51178Y18943D01*
X51171Y18940D01*
X51162Y18936D01*
X51151Y18931D01*
X51141Y18926D01*
X51131Y18919D01*
X51120Y18913D01*
X51119Y18912D01*
X51116Y18911D01*
X51112Y18908D01*
X51106Y18903D01*
X51093Y18894D01*
X51085Y18887D01*
X51080Y18881D01*
X51079Y18881D01*
X51077Y18879D01*
X51075Y18876D01*
X51071Y18872D01*
X51065Y18862D01*
X51059Y18850D01*
Y18849D01*
X51058Y18847D01*
X51057Y18844D01*
X51056Y18839D01*
X51054Y18828D01*
X51053Y18815D01*
Y18814D01*
Y18813D01*
X51054Y18807D01*
X51055Y18800D01*
X51057Y18791D01*
Y18790D01*
X51058Y18789D01*
X51061Y18785D01*
X51066Y18778D01*
X51072Y18771D01*
X51073D01*
X51074Y18770D01*
X51080Y18766D01*
X51088Y18761D01*
X51100Y18757D01*
X51101D01*
X51103Y18756D01*
X51108Y18756D01*
X51113D01*
X51119Y18755D01*
X51127Y18754D01*
X51135Y18753D01*
X51150D01*
X51156Y18754D01*
X51164D01*
X51173Y18755D01*
X51182Y18756D01*
X51201Y18761D01*
X51202D01*
X51205Y18763D01*
X51209Y18765D01*
X51215Y18767D01*
X51227Y18774D01*
X51240Y18783D01*
X51240Y18784D01*
X51242Y18786D01*
X51245Y18788D01*
X51248Y18792D01*
X51256Y18803D01*
X51262Y18815D01*
Y18816D01*
X51263Y18818D01*
X51265Y18821D01*
X51266Y18826D01*
X51269Y18838D01*
X51270Y18851D01*
Y18852D01*
Y18853D01*
X51269Y18860D01*
X51268Y18867D01*
X51265Y18876D01*
Y18877D01*
X51264Y18878D01*
X51261Y18883D01*
X51256Y18891D01*
X51250Y18899D01*
Y18900D01*
X51248Y18901D01*
X51242Y18907D01*
X51234Y18913D01*
X51223Y18922D01*
X51222Y18923D01*
X51220Y18924D01*
X51216Y18927D01*
X51212Y18929D01*
X51207Y18933D01*
X51200Y18937D01*
X51184Y18946D01*
D02*
G37*
G36*
X8252Y22149D02*
X8244D01*
X8238Y22148D01*
X8224Y22146D01*
X8209Y22141D01*
X8208D01*
X8206Y22139D01*
X8202Y22137D01*
X8198Y22134D01*
X8186Y22127D01*
X8173Y22116D01*
X8172Y22115D01*
X8170Y22114D01*
X8168Y22110D01*
X8164Y22105D01*
X8159Y22099D01*
X8154Y22093D01*
X8149Y22084D01*
X8144Y22076D01*
X8143Y22075D01*
X8142Y22072D01*
X8139Y22067D01*
X8137Y22061D01*
X8134Y22053D01*
X8130Y22044D01*
X8123Y22024D01*
Y22023D01*
X8121Y22020D01*
X8119Y22014D01*
X8117Y22007D01*
X8114Y21998D01*
X8112Y21989D01*
X8107Y21967D01*
Y21966D01*
X8106Y21962D01*
X8105Y21957D01*
X8103Y21949D01*
X8101Y21941D01*
X8099Y21931D01*
X8095Y21911D01*
Y21910D01*
X8094Y21906D01*
Y21901D01*
X8093Y21895D01*
X8092Y21886D01*
X8092Y21878D01*
X8090Y21861D01*
Y21860D01*
Y21857D01*
X8089Y21853D01*
Y21848D01*
X8088Y21835D01*
Y21824D01*
Y21823D01*
Y21822D01*
Y21819D01*
Y21816D01*
X8089Y21806D01*
X8091Y21795D01*
X8092Y21783D01*
X8095Y21771D01*
X8100Y21758D01*
X8107Y21748D01*
X8108Y21747D01*
X8110Y21744D01*
X8115Y21740D01*
X8122Y21736D01*
X8130Y21731D01*
X8140Y21727D01*
X8154Y21724D01*
X8168Y21724D01*
X8176D01*
X8183Y21724D01*
X8197Y21726D01*
X8212Y21731D01*
X8213D01*
X8216Y21733D01*
X8219Y21735D01*
X8224Y21738D01*
X8235Y21745D01*
X8247Y21755D01*
X8248Y21756D01*
X8249Y21758D01*
X8252Y21762D01*
X8256Y21767D01*
X8261Y21772D01*
X8265Y21779D01*
X8275Y21795D01*
X8276Y21796D01*
X8277Y21800D01*
X8279Y21804D01*
X8282Y21811D01*
X8286Y21818D01*
X8290Y21827D01*
X8297Y21847D01*
X8298Y21848D01*
X8299Y21851D01*
X8301Y21857D01*
X8303Y21865D01*
X8306Y21873D01*
X8309Y21882D01*
X8314Y21904D01*
Y21905D01*
X8315Y21909D01*
X8317Y21915D01*
X8319Y21923D01*
X8320Y21931D01*
X8322Y21941D01*
X8326Y21961D01*
Y21962D01*
X8326Y21966D01*
X8327Y21971D01*
X8328Y21978D01*
X8329Y21986D01*
X8330Y21994D01*
X8332Y22011D01*
Y22012D01*
Y22015D01*
X8333Y22019D01*
Y22024D01*
X8334Y22036D01*
Y22048D01*
Y22049D01*
Y22050D01*
Y22052D01*
Y22056D01*
X8333Y22066D01*
X8331Y22077D01*
X8329Y22089D01*
X8326Y22101D01*
X8321Y22114D01*
X8314Y22124D01*
X8313Y22125D01*
X8311Y22128D01*
X8306Y22132D01*
X8299Y22137D01*
X8291Y22141D01*
X8279Y22146D01*
X8267Y22148D01*
X8252Y22149D01*
D02*
G37*
G36*
X38795Y1320D02*
X38724Y1189D01*
X38814D01*
X38795Y1320D01*
D02*
G37*
G36*
X38684Y2212D02*
X38675D01*
X38670Y2211D01*
X38656Y2209D01*
X38641Y2204D01*
X38640D01*
X38638Y2202D01*
X38634Y2200D01*
X38629Y2197D01*
X38618Y2190D01*
X38605Y2180D01*
X38604Y2179D01*
X38602Y2177D01*
X38599Y2173D01*
X38596Y2168D01*
X38591Y2163D01*
X38586Y2156D01*
X38580Y2148D01*
X38576Y2139D01*
X38575Y2138D01*
X38574Y2135D01*
X38571Y2131D01*
X38568Y2124D01*
X38565Y2117D01*
X38562Y2107D01*
X38554Y2087D01*
Y2086D01*
X38552Y2083D01*
X38550Y2077D01*
X38549Y2071D01*
X38546Y2061D01*
X38544Y2052D01*
X38538Y2030D01*
Y2029D01*
X38537Y2025D01*
X38536Y2020D01*
X38534Y2012D01*
X38533Y2004D01*
X38531Y1994D01*
X38527Y1974D01*
Y1973D01*
X38526Y1969D01*
Y1964D01*
X38525Y1958D01*
X38524Y1949D01*
X38523Y1941D01*
X38521Y1924D01*
Y1923D01*
Y1920D01*
X38520Y1916D01*
Y1911D01*
X38519Y1899D01*
Y1887D01*
Y1886D01*
Y1885D01*
Y1883D01*
Y1879D01*
X38520Y1869D01*
X38522Y1858D01*
X38524Y1846D01*
X38527Y1834D01*
X38532Y1821D01*
X38538Y1811D01*
X38539Y1810D01*
X38542Y1807D01*
X38547Y1804D01*
X38553Y1799D01*
X38562Y1794D01*
X38572Y1790D01*
X38585Y1788D01*
X38599Y1787D01*
X38608D01*
X38614Y1788D01*
X38628Y1790D01*
X38643Y1794D01*
X38644D01*
X38647Y1796D01*
X38651Y1798D01*
X38656Y1801D01*
X38667Y1808D01*
X38678Y1819D01*
X38679Y1820D01*
X38681Y1821D01*
X38684Y1825D01*
X38688Y1830D01*
X38692Y1836D01*
X38697Y1842D01*
X38706Y1858D01*
X38707Y1859D01*
X38708Y1863D01*
X38711Y1868D01*
X38714Y1874D01*
X38718Y1882D01*
X38721Y1890D01*
X38729Y1910D01*
X38730Y1911D01*
X38731Y1915D01*
X38733Y1920D01*
X38735Y1928D01*
X38737Y1936D01*
X38740Y1946D01*
X38746Y1967D01*
Y1968D01*
X38747Y1972D01*
X38749Y1978D01*
X38751Y1986D01*
X38752Y1994D01*
X38753Y2004D01*
X38757Y2024D01*
Y2025D01*
X38758Y2029D01*
X38759Y2034D01*
X38760Y2041D01*
X38761Y2049D01*
X38762Y2057D01*
X38764Y2074D01*
Y2075D01*
Y2078D01*
X38765Y2082D01*
Y2087D01*
X38766Y2100D01*
Y2111D01*
Y2112D01*
Y2113D01*
Y2116D01*
Y2119D01*
X38765Y2129D01*
X38763Y2140D01*
X38761Y2152D01*
X38757Y2165D01*
X38752Y2177D01*
X38746Y2187D01*
X38745Y2188D01*
X38742Y2191D01*
X38737Y2196D01*
X38731Y2200D01*
X38722Y2204D01*
X38711Y2209D01*
X38699Y2211D01*
X38684Y2212D01*
D02*
G37*
G36*
X29615Y15345D02*
X29604D01*
X29598Y15344D01*
X29590Y15343D01*
X29582Y15341D01*
X29566Y15336D01*
X29565D01*
X29563Y15335D01*
X29559Y15333D01*
X29554Y15331D01*
X29543Y15324D01*
X29533Y15315D01*
X29532Y15314D01*
X29531Y15313D01*
X29528Y15310D01*
X29525Y15306D01*
X29520Y15297D01*
X29514Y15286D01*
Y15285D01*
X29513Y15283D01*
X29512Y15280D01*
X29511Y15275D01*
X29509Y15266D01*
X29508Y15254D01*
Y15253D01*
Y15252D01*
Y15246D01*
X29509Y15239D01*
X29510Y15230D01*
X29511Y15228D01*
X29513Y15224D01*
X29516Y15217D01*
X29521Y15210D01*
X29522Y15208D01*
X29526Y15204D01*
X29533Y15197D01*
X29541Y15190D01*
X29542D01*
X29544Y15188D01*
X29547Y15186D01*
X29551Y15183D01*
X29556Y15179D01*
X29562Y15176D01*
X29577Y15167D01*
X29578Y15168D01*
X29582Y15169D01*
X29586Y15172D01*
X29593Y15175D01*
X29601Y15179D01*
X29609Y15183D01*
X29625Y15193D01*
X29626Y15194D01*
X29629Y15195D01*
X29632Y15197D01*
X29637Y15201D01*
X29648Y15210D01*
X29660Y15221D01*
X29661Y15222D01*
X29663Y15224D01*
X29665Y15226D01*
X29668Y15231D01*
X29676Y15241D01*
X29682Y15254D01*
Y15255D01*
X29683Y15257D01*
X29685Y15260D01*
X29687Y15265D01*
X29690Y15276D01*
X29691Y15289D01*
Y15290D01*
Y15291D01*
X29690Y15296D01*
X29689Y15303D01*
X29686Y15309D01*
Y15310D01*
X29685Y15311D01*
X29683Y15316D01*
X29679Y15321D01*
X29674Y15327D01*
X29672Y15329D01*
X29668Y15332D01*
X29661Y15336D01*
X29650Y15340D01*
X29649D01*
X29647Y15341D01*
X29645Y15342D01*
X29641Y15343D01*
X29635D01*
X29630Y15344D01*
X29615Y15345D01*
D02*
G37*
G36*
X29567Y15107D02*
X29565Y15106D01*
X29560Y15104D01*
X29554Y15101D01*
X29544Y15097D01*
X29534Y15092D01*
X29523Y15086D01*
X29513Y15080D01*
X29503Y15074D01*
X29502Y15073D01*
X29499Y15071D01*
X29494Y15069D01*
X29489Y15064D01*
X29476Y15054D01*
X29468Y15048D01*
X29462Y15042D01*
X29461Y15041D01*
X29460Y15039D01*
X29458Y15037D01*
X29454Y15033D01*
X29447Y15023D01*
X29442Y15010D01*
Y15009D01*
X29441Y15007D01*
X29440Y15005D01*
X29439Y15000D01*
X29437Y14989D01*
X29436Y14976D01*
Y14975D01*
Y14974D01*
X29437Y14968D01*
X29438Y14960D01*
X29440Y14952D01*
Y14951D01*
X29441Y14950D01*
X29444Y14945D01*
X29448Y14939D01*
X29455Y14931D01*
X29456D01*
X29457Y14930D01*
X29462Y14927D01*
X29471Y14922D01*
X29483Y14918D01*
X29484D01*
X29486Y14917D01*
X29491Y14916D01*
X29495D01*
X29502Y14915D01*
X29509Y14914D01*
X29518Y14914D01*
X29533D01*
X29538Y14914D01*
X29547D01*
X29555Y14915D01*
X29565Y14917D01*
X29584Y14922D01*
X29585D01*
X29587Y14924D01*
X29592Y14926D01*
X29598Y14928D01*
X29610Y14935D01*
X29622Y14944D01*
X29623Y14945D01*
X29625Y14946D01*
X29628Y14949D01*
X29631Y14953D01*
X29638Y14963D01*
X29645Y14976D01*
Y14976D01*
X29646Y14978D01*
X29647Y14982D01*
X29648Y14987D01*
X29651Y14999D01*
X29652Y15012D01*
Y15013D01*
Y15014D01*
X29651Y15021D01*
X29650Y15028D01*
X29647Y15037D01*
Y15038D01*
X29647Y15038D01*
X29644Y15044D01*
X29639Y15052D01*
X29632Y15060D01*
Y15061D01*
X29631Y15062D01*
X29625Y15068D01*
X29616Y15074D01*
X29605Y15083D01*
X29604Y15084D01*
X29602Y15085D01*
X29599Y15087D01*
X29595Y15090D01*
X29589Y15094D01*
X29583Y15098D01*
X29567Y15107D01*
D02*
G37*
%LPD*%
D10*
X49036Y3195D02*
G03*
X49033Y2754I270J-223D01*
G01*
X50020Y2753D02*
G03*
X50023Y3195I-270J223D01*
G01*
X53889Y2757D02*
G03*
X53893Y3198I-270J223D01*
G01*
X52906Y3199D02*
G03*
X52903Y2757I270J-223D01*
G01*
D11*
X19113Y17484D02*
G03*
X19240Y17662I-25J152D01*
G01*
X18979Y24892D02*
G03*
X18801Y25019I-152J-25D01*
G01*
X23955Y19519D02*
G03*
X24133Y19392I152J25D01*
G01*
X23955Y20433D02*
G03*
X24133Y20306I152J25D01*
G01*
X23191Y18322D02*
G03*
X23318Y18500I-25J152D01*
G01*
D12*
X18608Y19305D02*
G03*
X18433Y19155I-13J-163D01*
G01*
Y17630D02*
G03*
X18579Y17484I146J0D01*
G01*
X19240Y19160D02*
G03*
X19140Y19310I-125J25D01*
G01*
X17157Y24388D02*
G03*
X17307Y24213I163J-13D01*
G01*
X18833Y24213D02*
G03*
X18979Y24359I0J146D01*
G01*
X17302Y25019D02*
G03*
X17152Y24919I-25J-125D01*
G01*
X25632Y19392D02*
G03*
X25782Y19492I25J125D01*
G01*
X24101Y20198D02*
G03*
X23955Y20052I0J-146D01*
G01*
X25777Y20023D02*
G03*
X25627Y20198I-163J13D01*
G01*
X25632Y20306D02*
G03*
X25782Y20406I25J125D01*
G01*
X24101Y21112D02*
G03*
X23955Y20966I0J-146D01*
G01*
X25777Y20937D02*
G03*
X25627Y21112I-163J13D01*
G01*
X22687Y20144D02*
G03*
X22512Y19994I-13J-163D01*
G01*
X22512Y18468D02*
G03*
X22658Y18322I146J0D01*
G01*
X23318Y19998D02*
G03*
X23218Y20148I-125J25D01*
G01*
X18608Y19305D02*
X19133Y19305D01*
X18579Y17484D02*
X19113Y17484D01*
X18433Y17604D02*
Y19155D01*
X19372Y19285D02*
X20172D01*
X19372Y17514D02*
X20172D01*
X17157Y24388D02*
X17157Y24913D01*
X18979Y24359D02*
Y24892D01*
X17307Y24213D02*
X18858D01*
X4566Y25692D02*
X5366D01*
X4566Y23921D02*
X5366D01*
X19794Y16085D02*
Y16885D01*
X21565Y16085D02*
X21565Y16885D01*
X18161Y3211D02*
Y4011D01*
X16390Y3211D02*
Y4011D01*
X18161Y4921D02*
Y5721D01*
X16390Y4921D02*
Y5721D01*
X18161Y4066D02*
Y4866D01*
X16390Y4066D02*
Y4866D01*
X18161Y5776D02*
Y6576D01*
X16390Y5776D02*
Y6576D01*
X6628Y22668D02*
Y23468D01*
X4857Y22668D02*
Y23468D01*
X24076Y20198D02*
X25627Y20198D01*
X23955Y19519D02*
Y20052D01*
X25777Y19498D02*
X25777Y20023D01*
X24076Y21112D02*
X25627D01*
X23955Y20433D02*
Y20966D01*
X25777Y20412D02*
X25777Y20937D01*
X4566Y2213D02*
X5366D01*
X4566Y442D02*
X5366D01*
X50285Y2581D02*
Y3381D01*
X52056Y2581D02*
Y3381D01*
X54119Y3388D02*
X54119Y2588D01*
X55889D02*
Y3388D01*
X39641Y442D02*
X40441D01*
X39641Y2213D02*
X40441D01*
X38007Y1595D02*
Y2395D01*
X36236Y1595D02*
Y2395D01*
X55065Y2502D02*
X55865D01*
X55065Y731D02*
X55865D01*
X55277Y20683D02*
X56077D01*
X55277Y22454D02*
X56077D01*
X22687Y20144D02*
X23212Y20144D01*
X22658Y18322D02*
X23191D01*
X22512Y18443D02*
Y19994D01*
X30486Y3556D02*
X31286D01*
X30486Y1785D02*
X31286D01*
D13*
X22265Y18967D02*
G03*
X22265Y18967I-457J0D01*
G01*
X8915Y22885D02*
G03*
X8915Y22885I-457J0D01*
G01*
X24525Y14691D02*
G03*
X24525Y14691I-457J0D01*
G01*
X25044Y18059D02*
G03*
X25044Y18059I-457J0D01*
G01*
X31048Y16066D02*
G03*
X31048Y16066I-457J0D01*
G01*
X29696D02*
G03*
X29696Y16066I-457J0D01*
G01*
X29422Y25333D02*
G03*
X29422Y25333I-457J0D01*
G01*
X31740D02*
G03*
X31740Y25333I-457J0D01*
G01*
X37867Y857D02*
G03*
X37867Y857I-457J0D01*
G01*
X18273Y18967D02*
G03*
X18273Y18967I-457J0D01*
G01*
X1102Y3898D02*
X1750D01*
X1433Y3568D02*
Y4215D01*
X1102Y4862D02*
X1750D01*
X1433Y4531D02*
Y5179D01*
X1102Y5825D02*
X1750D01*
X1433Y5495D02*
Y6143D01*
X21794Y14440D02*
X22683Y14440D01*
X19797Y15615D02*
X20747D01*
X19797Y14441D02*
X20747Y14439D01*
X19797Y15615D02*
X19797Y14441D01*
X22683Y14440D02*
Y15615D01*
X21717D02*
X22683D01*
X1194Y5180D02*
X2159D01*
X1194D02*
Y6355D01*
X4079Y5180D02*
Y6354D01*
X3129Y6356D02*
X4079Y6354D01*
X3129Y5180D02*
X4079D01*
X1194Y6355D02*
X2083Y6355D01*
X3124Y5073D02*
X4089Y5073D01*
Y3898D02*
Y5073D01*
X1204Y3899D02*
X1204Y5073D01*
X1204Y3899D02*
X2154Y3898D01*
X1204Y5073D02*
X2154D01*
X3200Y3898D02*
X4089Y3898D01*
D14*
X23203Y22782D02*
G03*
X23203Y22199I0J-292D01*
G01*
X18180Y6152D02*
G03*
X18180Y6152I-57J0D01*
G01*
X34001Y24218D02*
G03*
X34006Y24174I-178J-44D01*
G01*
X52445Y5914D02*
G03*
X52445Y5914I-80J0D01*
G01*
X48577Y5907D02*
G03*
X48577Y5907I-80J0D01*
G01*
X20860Y6173D02*
G03*
X20612Y5873I27J-275D01*
G01*
X23199Y5070D02*
G03*
X23447Y5369I-27J275D01*
G01*
X23447Y5922D02*
G03*
X23147Y6169I-275J-27D01*
G01*
X20612Y5315D02*
G03*
X20912Y5067I275J27D01*
G01*
X4153Y20760D02*
G03*
X4153Y20760I-800J0D01*
G01*
X20253Y22024D02*
Y22314D01*
Y22024D02*
X23253D01*
X20253Y22314D02*
Y22974D01*
X23253Y22974D01*
Y22024D02*
Y22974D01*
Y22314D02*
Y22749D01*
X23447Y5319D02*
Y5894D01*
X20612Y5315D02*
Y5915D01*
X20912Y5067D02*
X23197D01*
X20860Y6173D02*
X23143D01*
X-347Y19760D02*
X2253D01*
X-347Y21760D02*
X2253D01*
X36262Y2612D02*
Y14612D01*
X48262Y2612D02*
Y14612D01*
X36262Y2612D02*
X48262D01*
X36262Y14612D02*
X48262D01*
D15*
X17189Y23878D02*
G03*
X17189Y23878I-125J0D01*
G01*
X48597Y14822D02*
G03*
X48597Y14822I-125J0D01*
G01*
D16*
X56428Y25142D02*
G03*
X56428Y25142I-182J0D01*
G01*
X18439Y6391D02*
G03*
X18439Y6391I-34J0D01*
G01*
X11009Y23433D02*
G03*
X11009Y23433I-80J0D01*
G01*
X25709Y753D02*
G03*
X25709Y753I-80J0D01*
G01*
X31494Y710D02*
G03*
X31494Y710I-80J0D01*
G01*
X54000Y6800D02*
Y19500D01*
X52756Y6800D02*
X54000Y6800D01*
X52756Y6800D02*
X52756Y19500D01*
X54000D01*
X57260Y5500D02*
G03*
X58260Y4500I1000J0D01*
G01*
X59260Y3500D02*
G03*
X58260Y4500I-1000J0D01*
G01*
Y0D02*
G03*
X59260Y1000I0J1000D01*
G01*
Y25000D02*
G03*
X58260Y26000I-1000J0D01*
G01*
Y21500D02*
G03*
X59260Y22500I0J1000D01*
G01*
X58260Y21500D02*
G03*
X57260Y20500I0J-1000D01*
G01*
X-1000Y1000D02*
G03*
X0Y0I1000J0D01*
G01*
Y26000D02*
G03*
X-1000Y25000I0J-1000D01*
G01*
X59260Y1000D02*
Y3500D01*
X56260Y0D02*
X58260D01*
X56260Y26000D02*
X58260D01*
X59260Y22500D02*
Y25000D01*
X57260Y5500D02*
Y20500D01*
X0Y0D02*
X56260D01*
X-1000Y1000D02*
Y25000D01*
X0Y26000D02*
X56260D01*
D17*
X4500Y2100D02*
G03*
X4500Y2100I-2000J0D01*
G01*
X59100Y2500D02*
G03*
X59100Y2500I-1600J0D01*
G01*
Y23500D02*
G03*
X59100Y23500I-1600J0D01*
G01*
X4500Y23900D02*
G03*
X4500Y23900I-2000J0D01*
G01*
X17557Y21333D02*
X18857D01*
X17557Y23883D02*
X18857D01*
X11553Y20232D02*
X13353Y20232D01*
X11553Y23332D02*
X13353Y23332D01*
Y23282D02*
Y23332D01*
X11553Y23332D02*
X11553Y23282D01*
X13353Y20232D02*
X13353Y20282D01*
X11553Y20232D02*
X11553Y20282D01*
X26432Y754D02*
X29632Y753D01*
X26432Y3744D02*
X29632D01*
X24187Y4080D02*
X33636Y4080D01*
Y14080D01*
X23636D02*
X33636D01*
X23636Y4631D02*
X23636Y14080D01*
X23636Y4631D02*
X24187Y4080D01*
X32217Y3700D02*
X35417Y3700D01*
X32217Y710D02*
X35417Y710D01*
X-2094Y6400D02*
X15727D01*
Y19600D01*
X-2094D02*
X15727D01*
X-2094Y6400D02*
Y19600D01*
X49085Y25142D02*
X50085Y24142D01*
X36085Y25142D02*
X50085D01*
X36085Y15142D02*
X50085D01*
X50085Y25142D01*
X36085Y15142D02*
Y25142D01*
D18*
X11410Y3756D02*
G03*
X10775Y3756I-317J0D01*
G01*
X11410Y3759D02*
X12553D01*
X9607Y3759D02*
X10775Y3759D01*
X9607Y3759D02*
Y6194D01*
X12553D01*
X12553Y3759D02*
X12553Y6194D01*
X33118Y24365D02*
X33473D01*
Y17202D02*
Y17557D01*
X26311Y17202D02*
X26666D01*
X26311Y24009D02*
Y24365D01*
X33473Y24009D02*
Y24365D01*
X26311D02*
X26666D01*
X26311Y17202D02*
Y17557D01*
X33118Y17202D02*
X33473D01*
D19*
X21573Y13962D02*
X22098D01*
Y13737D02*
Y13962D01*
Y12612D02*
Y12837D01*
X21573Y12612D02*
X22098D01*
D20*
X49037Y3195D02*
X50023D01*
X49036Y2754D02*
X50020Y2753D01*
X52906Y2758D02*
X53889Y2757D01*
X52907Y3198D02*
X53893D01*
X9070Y21489D02*
Y22736D01*
X9679D01*
Y21489D02*
Y22736D01*
X9070Y21489D02*
X9679D01*
X9130Y20512D02*
Y21122D01*
Y20512D02*
X10378D01*
Y21122D01*
X9130D02*
X10378D01*
X25691Y18698D02*
Y19308D01*
X24444D02*
X25691D01*
X24444Y18698D02*
Y19308D01*
Y18698D02*
X25691D01*
X25786Y16817D02*
Y18064D01*
X25177Y16817D02*
X25786D01*
X25177D02*
Y18064D01*
X25786D01*
X34241Y17817D02*
X35488D01*
Y17207D02*
Y17817D01*
X34241Y17207D02*
X35488D01*
X34241D02*
Y17817D01*
X34792Y24755D02*
X35402D01*
X34792Y23508D02*
Y24755D01*
Y23508D02*
X35402D01*
Y24755D01*
X34687Y23508D02*
Y24755D01*
X34077Y23508D02*
X34687D01*
X34077D02*
Y24755D01*
X34687D01*
X24476Y24663D02*
X25085D01*
X24476Y23416D02*
Y24663D01*
Y23416D02*
X25085D01*
Y24663D01*
X24436Y21895D02*
Y22504D01*
Y21895D02*
X25684D01*
Y22504D01*
X24436D02*
X25684D01*
X26600Y16006D02*
X27848D01*
Y15396D02*
Y16006D01*
X26600Y15396D02*
X27848D01*
X26600D02*
Y16006D01*
X25827Y15484D02*
X26437D01*
Y16731D01*
X25827D02*
X26437D01*
X25827Y15484D02*
Y16731D01*
X31980Y15396D02*
X33227D01*
X31980D02*
Y16006D01*
X33227D01*
Y15396D02*
Y16006D01*
X33417Y15491D02*
X34026D01*
Y16739D01*
X33417D02*
X34026D01*
X33417Y15491D02*
Y16739D01*
X22109Y8001D02*
Y8611D01*
Y8001D02*
X23357D01*
Y8611D01*
X22109D02*
X23357D01*
X19583Y10233D02*
Y11480D01*
X20193D01*
Y10233D02*
Y11480D01*
X19583Y10233D02*
X20193D01*
X21189Y11218D02*
X21798D01*
Y12465D01*
X21189D02*
X21798D01*
X21189Y11218D02*
Y12465D01*
X22114Y10075D02*
X23361D01*
X22114D02*
Y10685D01*
X23361D01*
Y10075D02*
Y10685D01*
X22109Y9315D02*
X23357D01*
Y8705D02*
Y9315D01*
X22109Y8705D02*
X23357D01*
X22109D02*
Y9315D01*
X49733Y395D02*
Y1642D01*
X49124Y395D02*
X49733D01*
X49124D02*
Y1642D01*
X49733D01*
X54848Y5849D02*
X56095D01*
X54848D02*
Y6458D01*
X56095D01*
Y5849D02*
Y6458D01*
X52236Y5842D02*
Y6452D01*
X50989D02*
X52236D01*
X50989Y5842D02*
Y6452D01*
Y5842D02*
X52236D01*
X54421Y395D02*
Y1642D01*
X53812Y395D02*
X54421D01*
X53812D02*
Y1642D01*
X54421D01*
X23222Y6267D02*
Y6877D01*
X21975D02*
X23222D01*
X21975Y6267D02*
Y6877D01*
Y6267D02*
X23222D01*
X20516Y18833D02*
Y20081D01*
X21125D01*
Y18833D02*
Y20081D01*
X20516Y18833D02*
X21125D01*
X21353Y25100D02*
Y25709D01*
Y25100D02*
X22600D01*
Y25709D01*
X21353D02*
X22600D01*
X17837Y20168D02*
X19085D01*
Y19558D02*
Y20168D01*
X17837Y19558D02*
X19085D01*
X17837D02*
Y20168D01*
X15646Y23749D02*
X15646Y24232D01*
X15646Y23749D02*
X16256D01*
Y24232D01*
X15646Y25019D02*
X15646Y24536D01*
X15646Y25019D02*
X16256D01*
X16256Y24536D02*
X16256Y25019D01*
X19243Y17664D02*
X19243Y19155D01*
X17307Y25023D02*
X18798D01*
X18647Y21065D02*
X19130D01*
X18647Y20455D02*
Y21065D01*
Y20455D02*
X19130D01*
X19435Y21065D02*
X19917D01*
Y20455D02*
Y21065D01*
X19435Y20455D02*
X19917Y20455D01*
X16027Y20625D02*
Y21107D01*
X16027Y20625D02*
X16637D01*
Y21107D01*
X16027Y21412D02*
Y21895D01*
X16637D01*
X16637Y21412D02*
X16637Y21895D01*
X17272Y21065D02*
X17755D01*
X17272Y20455D02*
Y21065D01*
Y20455D02*
X17755D01*
X18059Y21065D02*
X18542D01*
Y20455D02*
Y21065D01*
X18059Y20455D02*
X18542Y20455D01*
X5Y3048D02*
X384Y3426D01*
X-163Y1393D02*
X146D01*
X-6Y1240D02*
Y1548D01*
X-168Y1825D02*
X141D01*
X-11Y1671D02*
Y1980D01*
X-6Y2098D02*
Y2407D01*
X-163Y2252D02*
X146D01*
X-224Y2748D02*
X0Y2525D01*
X224Y2748D01*
X0Y2525D02*
Y3045D01*
X-752Y3441D02*
Y4304D01*
X925D01*
Y3441D02*
Y4304D01*
X-752Y3441D02*
X925D01*
X-752Y4404D02*
Y5268D01*
X925D01*
Y4404D02*
Y5268D01*
X-752Y4404D02*
X925D01*
X-752Y5368D02*
Y6232D01*
X925D01*
Y5368D02*
Y6232D01*
X-752Y5368D02*
X925D01*
X20060Y25100D02*
X20542Y25100D01*
X20542Y25709D01*
X20060D02*
X20542D01*
X19272Y25100D02*
X19755Y25100D01*
X19272Y25100D02*
X19272Y25709D01*
X19755Y25709D01*
X12068Y2159D02*
X12550Y2159D01*
X12068Y1549D02*
Y2159D01*
Y1549D02*
X12550D01*
X12855Y2159D02*
X13338D01*
Y1549D02*
Y2159D01*
X12855Y1549D02*
X13338D01*
X12067Y2845D02*
X12549Y2845D01*
X12067Y2235D02*
Y2845D01*
Y2235D02*
X12549D01*
X12854Y2845D02*
X13337D01*
Y2235D02*
Y2845D01*
X12854Y2235D02*
X13337D01*
X12073Y3538D02*
X12556Y3538D01*
X12073Y2928D02*
Y3538D01*
Y2928D02*
X12556D01*
X12860Y3538D02*
X13343D01*
Y2928D02*
Y3538D01*
X12860Y2928D02*
X13343D01*
X14502Y22105D02*
X14985D01*
X14502Y21495D02*
Y22105D01*
Y21495D02*
X14985D01*
X15289Y22105D02*
X15772D01*
Y21495D02*
Y22105D01*
X15289Y21495D02*
X15772Y21495D01*
X10452Y22341D02*
Y22824D01*
X9843D02*
X10452D01*
X9843Y22341D02*
Y22824D01*
X10452Y21554D02*
Y22036D01*
X9843Y21554D02*
X10452D01*
X9843D02*
X9843Y22036D01*
X14502Y21173D02*
X14985D01*
X14502Y20563D02*
Y21173D01*
Y20563D02*
X14985D01*
X15289Y21173D02*
X15772D01*
Y20563D02*
Y21173D01*
X15289Y20563D02*
X15772Y20563D01*
X14502Y23037D02*
X14985D01*
X14502Y22427D02*
Y23037D01*
Y22427D02*
X14985D01*
X15289Y23037D02*
X15772D01*
Y22427D02*
Y23037D01*
X15289Y22427D02*
X15772Y22427D01*
X49831Y8652D02*
X49831Y9135D01*
X49221D02*
X49831D01*
X49221Y8652D02*
Y9135D01*
X49831Y7865D02*
Y8348D01*
X49221Y7865D02*
X49831D01*
X49221D02*
Y8348D01*
X50544Y8652D02*
X50544Y9135D01*
X49935D02*
X50544D01*
X49935Y8652D02*
Y9135D01*
X50544Y7865D02*
Y8348D01*
X49935Y7865D02*
X50544D01*
X49935D02*
Y8348D01*
X34087Y25552D02*
X34569Y25552D01*
X34087Y24943D02*
Y25552D01*
Y24943D02*
X34569D01*
X34874Y25552D02*
X35357D01*
Y24943D02*
Y25552D01*
X34874Y24943D02*
X35357D01*
X34925Y22327D02*
X35408Y22327D01*
X35408Y22936D01*
X34925D02*
X35408D01*
X34138Y22327D02*
X34620D01*
X34138D02*
X34138Y22936D01*
X34138Y22936D02*
X34620D01*
X24136Y19388D02*
X25627D01*
X31870Y15307D02*
X32353Y15307D01*
X31870Y14697D02*
Y15307D01*
Y14697D02*
X32353D01*
X32657Y15307D02*
X33140D01*
Y14697D02*
Y15307D01*
X32657Y14697D02*
X33140D01*
X31969Y16733D02*
X32451Y16733D01*
X31969Y16733D02*
X31969Y16123D01*
X32451D01*
X32756Y16733D02*
X33239D01*
X33239Y16123D02*
X33239Y16733D01*
X32756Y16123D02*
X33239D01*
X25347Y24853D02*
X25829Y24853D01*
Y25462D01*
X25347D02*
X25829D01*
X24559Y24853D02*
X25042D01*
X24559D02*
Y25462D01*
Y25462D02*
X25042D01*
X25829Y24167D02*
X25829Y24649D01*
X25220Y24649D02*
X25829Y24649D01*
X25220Y24167D02*
Y24649D01*
X25829Y23379D02*
Y23862D01*
X25220Y23379D02*
X25829Y23379D01*
X25220D02*
Y23862D01*
X25296Y21195D02*
X25779Y21195D01*
Y21805D01*
X25296D02*
X25779D01*
X24509Y21195D02*
X24991D01*
X24509D02*
Y21805D01*
Y21805D02*
X24991D01*
X24136Y20302D02*
X25627D01*
X34915Y19976D02*
X35398Y19976D01*
Y20585D01*
X34915D02*
X35398D01*
X34128Y19976D02*
X34610D01*
X34128D02*
Y20585D01*
Y20585D02*
X34610D01*
X34915Y20662D02*
X35398Y20662D01*
Y21271D01*
X34915D02*
X35398D01*
X34128Y20662D02*
X34610D01*
X34128D02*
Y21271D01*
Y21271D02*
X34610D01*
X34133Y19892D02*
X34615Y19892D01*
X34133Y19282D02*
Y19892D01*
Y19282D02*
X34615D01*
X34920Y19892D02*
X35403D01*
Y19282D02*
Y19892D01*
X34920Y19282D02*
X35403D01*
X34915Y21347D02*
X35398Y21347D01*
Y21957D01*
X34915D02*
X35398D01*
X34128Y21347D02*
X34610D01*
X34128D02*
Y21957D01*
Y21957D02*
X34610D01*
X27376Y16108D02*
X27859Y16108D01*
Y16717D01*
X27376D02*
X27859D01*
X26589Y16108D02*
X27072Y16108D01*
X26589Y16108D02*
Y16717D01*
Y16717D02*
X27072D01*
X27430Y14696D02*
X27913Y14696D01*
Y15305D01*
X27430D02*
X27913D01*
X26643Y14696D02*
X27126D01*
X26643D02*
Y15305D01*
Y15305D02*
X27126D01*
X34941Y17918D02*
X35423Y17918D01*
Y18528D01*
X34941D02*
X35423D01*
X34153Y17918D02*
X34636D01*
X34153D02*
Y18528D01*
Y18528D02*
X34636D01*
X34133Y19206D02*
X34615Y19206D01*
X34133Y18597D02*
Y19206D01*
Y18597D02*
X34615D01*
X34920Y19206D02*
X35403D01*
Y18597D02*
Y19206D01*
X34920Y18597D02*
X35403D01*
X53360Y21866D02*
X53360Y22349D01*
X52750D02*
X53360D01*
X52750Y21866D02*
Y22349D01*
X53360Y21079D02*
Y21561D01*
X52750Y21079D02*
X53360D01*
X52750D02*
Y21561D01*
X51165Y21866D02*
X51165Y22349D01*
X50555D02*
X51165D01*
X50555Y21866D02*
Y22349D01*
X51165Y21079D02*
Y21561D01*
X50555Y21079D02*
X51165D01*
X50555D02*
Y21561D01*
X54458Y21866D02*
X54458Y22349D01*
X53848D02*
X54458D01*
X53848Y21866D02*
Y22349D01*
X54458Y21079D02*
Y21561D01*
X53848Y21079D02*
X54458D01*
X53848D02*
Y21561D01*
X52263Y21866D02*
X52263Y22349D01*
X51653D02*
X52263D01*
X51653Y21866D02*
Y22349D01*
X52263Y21079D02*
Y21561D01*
X51653Y21079D02*
X52263D01*
X51653D02*
Y21561D01*
X53479Y1170D02*
Y1652D01*
X52869D02*
X53479D01*
X52869Y1170D02*
Y1652D01*
X53479Y382D02*
Y865D01*
X52869Y382D02*
X53479D01*
X52869D02*
X52869Y865D01*
X45535Y601D02*
X45535Y1084D01*
X45535Y601D02*
X46145D01*
Y1084D01*
X45535Y1389D02*
Y1871D01*
X46145D01*
X46145Y1389D02*
Y1871D01*
X46247Y601D02*
X46247Y1084D01*
X46247Y601D02*
X46856D01*
Y1084D01*
X46247Y1389D02*
Y1871D01*
X46856D01*
X46856Y1389D02*
Y1871D01*
X45085Y1389D02*
X45085Y1871D01*
X44475D02*
X45085D01*
X44475Y1389D02*
Y1871D01*
X45085Y601D02*
Y1084D01*
X44475Y601D02*
X45085D01*
X44475D02*
Y1084D01*
X44382Y1389D02*
X44382Y1871D01*
X43773D02*
X44382D01*
X43773Y1389D02*
Y1871D01*
X44382Y601D02*
Y1084D01*
X43773Y601D02*
X44382D01*
X43773D02*
Y1084D01*
X43527Y1389D02*
X43527Y1871D01*
X42918D02*
X43527D01*
X42918Y1389D02*
Y1871D01*
X43527Y601D02*
Y1084D01*
X42918Y601D02*
X43527D01*
X42918D02*
Y1084D01*
X42825Y1389D02*
X42825Y1871D01*
X42215D02*
X42825D01*
X42215Y1389D02*
Y1871D01*
X42825Y601D02*
Y1084D01*
X42215Y601D02*
X42825D01*
X42215D02*
Y1084D01*
X41970Y1389D02*
X41970Y1871D01*
X41360D02*
X41970D01*
X41360Y1389D02*
Y1871D01*
X41970Y601D02*
Y1084D01*
X41360Y601D02*
X41970D01*
X41360D02*
Y1084D01*
X41268Y1389D02*
X41268Y1871D01*
X40658D02*
X41268D01*
X40658Y1389D02*
Y1871D01*
X41268Y601D02*
Y1084D01*
X40658Y601D02*
X41268D01*
X40658D02*
Y1084D01*
X28702Y15059D02*
Y15541D01*
X28092D02*
X28702D01*
X28092Y15059D02*
Y15541D01*
X28702Y14271D02*
Y14754D01*
X28092Y14271D02*
X28702D01*
X28092D02*
X28092Y14754D01*
X49831Y7168D02*
Y7650D01*
X49221D02*
X49831D01*
X49221Y7168D02*
Y7650D01*
X49831Y6380D02*
Y6863D01*
X49221Y6380D02*
X49831D01*
X49221D02*
X49221Y6863D01*
X50544Y7168D02*
Y7650D01*
X49935D02*
X50544D01*
X49935Y7168D02*
Y7650D01*
X50544Y6380D02*
Y6863D01*
X49935Y6380D02*
X50544D01*
X49935D02*
X49935Y6863D01*
X23322Y18503D02*
X23322Y19994D01*
X5851Y2210D02*
Y2692D01*
X5851Y2210D02*
X6461D01*
Y2692D01*
X5851Y2997D02*
Y3480D01*
X6461D01*
X6461Y2997D02*
X6461Y3480D01*
X7101Y2210D02*
Y2692D01*
X7101Y2210D02*
X7711D01*
Y2692D01*
X7101Y2997D02*
Y3480D01*
X7711D01*
X7711Y2997D02*
X7711Y3480D01*
X8351Y2210D02*
Y2692D01*
X8351Y2210D02*
X8961D01*
Y2692D01*
X8351Y2997D02*
Y3480D01*
X8961D01*
X8961Y2997D02*
X8961Y3480D01*
X9601Y2210D02*
Y2692D01*
X9601Y2210D02*
X10211D01*
Y2692D01*
X9601Y2997D02*
Y3480D01*
X10211D01*
X10211Y2997D02*
X10211Y3480D01*
D21*
X20172Y18580D02*
Y19285D01*
X19372Y18554D02*
Y19285D01*
X20172Y17514D02*
X20172Y18161D01*
X19372Y17514D02*
X19372Y18161D01*
X5366Y25045D02*
Y25692D01*
X4566Y25045D02*
Y25692D01*
X5366Y23921D02*
Y24651D01*
X4566Y23921D02*
Y24626D01*
X19794Y16885D02*
X20441Y16885D01*
X19794Y16085D02*
X20441Y16085D01*
X20834Y16885D02*
X21565D01*
X20860Y16085D02*
X21565D01*
X17456Y3211D02*
X18161D01*
X17431Y4011D02*
X18161D01*
X16390Y3211D02*
X17037D01*
X16390Y4011D02*
X17037D01*
X17456Y4921D02*
X18161D01*
X17431Y5721D02*
X18161D01*
X16390Y4921D02*
X17037D01*
X16390Y5721D02*
X17037D01*
X17456Y4066D02*
X18161D01*
X17431Y4866D02*
X18161D01*
X16390Y4066D02*
X17037D01*
X16390Y4866D02*
X17037D01*
X17456Y5776D02*
X18161D01*
X17431Y6576D02*
X18161D01*
X16390Y5776D02*
X17037D01*
X16390Y6576D02*
X17037D01*
X5981Y22668D02*
X6628D01*
X5981Y23468D02*
X6628D01*
X4857Y22668D02*
X5587D01*
X4857Y23468D02*
X5562D01*
X5366Y1508D02*
Y2213D01*
X4566Y1482D02*
Y2213D01*
X5366Y442D02*
Y1089D01*
X4566Y442D02*
Y1089D01*
X50285Y3381D02*
X50932D01*
X50285Y2581D02*
X50932D01*
X51326Y3381D02*
X52056D01*
X51351Y2581D02*
X52056D01*
X54119Y3388D02*
X54765D01*
X54119Y2588D02*
X54765D01*
X55159Y3388D02*
X55889D01*
X55185Y2588D02*
X55889D01*
X39641Y442D02*
Y1089D01*
X40441Y442D02*
X40441Y1089D01*
X39641Y1482D02*
Y2213D01*
X40441Y1508D02*
Y2213D01*
X37302Y1595D02*
X38007D01*
X37277Y2395D02*
X38007D01*
X36236Y1595D02*
X36883Y1595D01*
X36236Y2395D02*
X36883Y2395D01*
X55865Y1855D02*
Y2502D01*
X55065Y1855D02*
Y2502D01*
X55865Y731D02*
Y1461D01*
X55065Y731D02*
Y1436D01*
X55277Y20683D02*
Y21330D01*
X56077Y20683D02*
Y21330D01*
X55277Y21723D02*
Y22454D01*
X56077Y21749D02*
Y22454D01*
X31286Y2851D02*
Y3556D01*
X30486Y2826D02*
Y3556D01*
X31286Y1785D02*
Y2432D01*
X30486Y1785D02*
Y2432D01*
D22*
X55763Y22652D02*
Y25192D01*
X50683Y22652D02*
X55763D01*
X50683Y25192D02*
X55763D01*
X50683Y22652D02*
Y25192D01*
D23*
X18462Y6231D02*
X19562D01*
X18612Y3585D02*
X19412D01*
X18337Y6110D02*
Y6231D01*
X18462D01*
X56200Y3450D02*
X56200Y5787D01*
X52441Y3450D02*
X52441Y5787D01*
X52441Y3450D02*
X56200Y3450D01*
X52441Y5787D02*
X56200D01*
X48573Y5780D02*
X52332D01*
X48573Y3443D02*
X52332Y3443D01*
X48573Y3443D02*
X48573Y5780D01*
X52332Y3443D02*
X52332Y5780D01*
D24*
X21985Y1906D02*
Y3049D01*
X19064Y1906D02*
Y3049D01*
X21477Y3049D02*
X21985Y3049D01*
X20461Y763D02*
X20588D01*
X19064Y3049D02*
X19572D01*
X22446Y3119D02*
X22954D01*
X23843Y833D02*
X23970D01*
X24859Y3119D02*
X25367Y3119D01*
X22446Y1976D02*
Y3119D01*
X25367Y1976D02*
Y3119D01*
M02*
