M48
;Layer_Color=9474304
;FILE_FORMAT=4:3
METRIC,LZ
;TYPE=PLATED
T1F00S00C0.203
T2F00S00C0.500
T4F00S00C0.635
T5F00S00C0.650
T6F00S00C0.800
T7F00S00C1.800
T8F00S00C2.200
%
T01
X0038362Y0000547
X0039485Y0001638
X0039662Y0002762
X0039012
X0038362
Y0003412
Y0004062
X0039012
Y0003412
X0039662
X0039662Y0004062
Y0004712
Y0005362
X0040312
Y0006012
X0039662
Y0006662
X0040312
Y0007312
X0039662
Y0007962
X0040312
X0040962
Y0007312
X0041612
Y0007962
Y0006662
Y0006012
X0040962
X0040962Y0005362
Y0004712
X0041612Y0005362
X0042912
Y0004712
X0043562
Y0004062
X0043562Y0003412
X0044212
Y0004062
X0044862Y0003412
X0044862Y0002762
X0045085Y0002102
X0045624
X0046812Y0001558
X0046551Y0000457
X0045425
X0044775
X0044114
X0043238
X0042525
X0041665
X0040963
Y0002102
X0042262Y0002762
X004337Y00025
X0044114
X0042912Y0004062
X0043562Y0005362
X0044212Y0005362
X0045512
X0046162
Y0004712
X0045512
X0044862
X0044862Y0006012
Y0006662
X0044212
Y0007312
Y0007962
X0043562
Y0007312
X0042912
Y0007962
Y0006662
Y0006012
X0043562Y0006662
X0045512
X0046162
X0046812
X0047462
Y0007312
Y0007962
X0046812
Y0007312
X0046162
Y0007962
X0045512
Y0009262
X0044862
Y0009912
X0044212
Y0009262
X0043562
Y0009912
X0042912
Y0009262
Y0010562
Y0011212
Y0011862
Y0012512
X0043562
Y0011862
Y0013162
Y0013812
X0042912
Y0013162
X0044212
Y0013812
Y0014462
X0044862
X0045513Y0014462
X0045512Y0013162
X0046162
Y0012512
X0045512
Y0011862
X0046203Y0011811
X0046812Y0011212
Y0010562
Y0009912
Y0009262
X0048112
X0047462Y0008612
X0048112Y0007962
Y0007312
Y0006662
Y0006012
Y0005362
Y0004712
Y0004062
X0047462
X0047462Y0003412
X0046812Y0003412
Y0004062
Y0004712
X0047462
Y0005362
Y0006012
X0046812Y0006012
Y0005362
X0046162Y0006012
X0045512Y0006012
X0046162Y0004062
Y0003412
X0048247Y0002031
X0048571Y0001454
X0048053Y0001017
X0048629Y0000503
X0050022Y0000519
Y0002019
X0051125Y0001559
Y0000978
X0051871Y0000962
Y0001544
X0052974Y0002003
X0053868Y0001995
X0054598Y0001776
X0054611Y0001131
X0054761Y0000503
X0052974
X0052699Y0003029
X0052198Y0003786
X0052216Y0004362
X005086Y0004216
X0050022
X0050735Y0006715
X0051958Y0006662
X0050972Y0008198
Y0008798
X005086Y0009402
X0052517
Y0010002
X0053033Y0010272
X0054Y0011213
Y0012395
Y0012995
X0055541Y0012702
Y0012102
Y0011502
Y0010902
Y0010302
Y0009702
X0056368Y0009977
X0056246Y0009296
X0056769Y0009449
X0056556Y0008484
X0055839Y0008509
X0056378Y0007656
Y0006965
X0055461Y0006715
X0055541Y0007302
X0053964Y0005753
X0056183Y0004378
X0056234Y0003844
X0055982Y0002981
X0054737Y000236
X0052516Y0011801
X0053055Y0014321
X0053476Y0015102
X0054009Y0015102
X0053523Y0015633
X0053131Y0015994
X0052598Y0016027
X0053119Y0016612
X0053653
Y0017715
X0053119
X0052425
X0053111Y001883
X0053645
X0055541Y0018702
Y0016902
Y0015102
Y0013902
Y0013302
X0051213Y0013598
X0048112Y0013812
X0047455Y0013812
X0047462Y0013162
X0048262Y0012233
X0047462Y0011212
X0046162Y0010562
X0044862Y0011212
X0044862Y0012512
X0044212
X0044862Y0013162
X0042912Y0014462
X0043238Y0014964
X0041612Y0014905
X0041937Y00145
X0040962Y0014462
X0040962Y0013812
X0041612
Y0013162
X004163Y0012548
X0041612Y0011862
X0040962
Y0012512
Y0013162
X0040312
X0039662
Y0013812
Y0014462
X0039012
X0038362
Y0013812
Y0013162
X0039012
Y0013812
Y0012512
X0038362
Y0011862
X0039012
X0039662
Y0012512
X0040312
Y0011862
Y0011212
X0039662
Y0010562
X0040312
X0040962
Y0011212
X0041612Y0011212
X0041612Y0010562
Y0009912
X0040962
Y0009262
X0041612
X0040312
X0039662
Y0009912
X0040312
X0039012
Y0009262
X0038362
X0038362Y0009912
X0038362Y0010562
Y0011212
X0039012
Y0010562
Y0007962
X0038362
Y0007312
X0039012
Y0006662
X0038362
Y0006012
X0039012
Y0005362
X0038362
Y0004712
X0039012
X0040312Y0003412
X0040962Y0006662
X0043562Y0010562
X0044212
X004461Y0016617
X004541
X004541Y0017417
X004621
X004701
Y0018217
X004716Y0018867
X004796
X004876
X0049085Y0019718
Y0020336
Y0021212
X0048285Y0021212
X0047485Y0021212
X0046685Y0021212
X0045885Y0021212
X0045085Y0021212
X0044285Y0021212
X0043485Y0021212
X0042685Y0021212
X0041885Y0021212
X0041085Y0021212
X0040285Y0021212
X0039485Y0021212
X0038685Y0021212
X003916Y0020382
Y0019766
Y0018867
X003836
Y0017417
X003916
X003996
X004076
X004221
X004156Y0016617
X003996
X003916
X003836
X003996Y0014905
Y0018867
X004076
X004156
X004236
X004316
X0043744Y0019126
X0043693Y0019883
X0043688Y0020382
X0042316Y0020437
X0042291Y0019819
X0040385Y0019791
Y0020437
X004061Y0022217
Y0023017
X003981
X003901
X003821
Y0022217
X003901
X003981
X004141
X004221Y0022217
X004301
X004306Y002294
X004381Y0023017
X004461
X004541
X004621
X004701Y0023017
X004781
X004861Y0023017
X004941
Y0022217
X004861
X004781Y0022217
X004701
X004621
X004541Y0022217
X004461
X004381
X004156Y0023017
X0045822Y0024308
X0049128Y0024353
X005086Y0022457
X0051958
X0053055
X0054153
Y0020992
X0053055
X0052108Y0020382
X0051871Y0019878
X0050921Y0020382
X0050393Y0019819
X0047859Y0019878
X0047244Y0020345
X0045885Y0020382
Y0019878
X0045339Y0019126
X0044806Y0018872
X0044579Y0018034
X0043887Y0017348
X004316Y0016617
X004301Y0018081
X004621Y0016617
X004701Y0016617
X004781
X004861
X004861Y0017417
X004941
Y0016773
X004781Y0017417
X0055677Y0020533
X0037885Y0021212
X0037085Y0021212
X0036927Y0020382
Y0019757
X003676Y0018867
X003756
Y0017417
X003676
Y0016617
X003756
X0037712Y0014462
X0037062
X0036412
Y0013812
Y0013162
X0037062
X0037712
Y0013812
X0037062
Y0012512
Y0011862
X0037712
Y0012512
X0036412
Y0011862
Y0011212
Y0010562
X0037062
Y0011212
X0037712
Y0010562
X0037712Y0009912
X0037712Y0009262
X0037062
X0036412
X0036043Y0009912
X0036412Y0007962
X0037062
Y0007312
X0037712
Y0007962
Y0006662
X0037062
Y0006012
X0037712
Y0005362
X0037062
Y0004712
X0037712
Y0004062
Y0003412
X0037062
Y0004062
X0036412
Y0004712
Y0005362
Y0006012
Y0006662
X0033036Y000628
X0032236
Y000708
X0031436
X0030636
Y000628
X0029836
X0029036
Y000708
X0028236
Y000788
X0029036Y000788
X0029036Y000868
X0029836
Y001028
Y001108
X0030636
Y001188
X0029836
Y001268
Y001348
X0030636
X0031436
X0032236
Y001268
X0033036
Y001188
X0032236
Y001108
Y001028
X0033036
Y000868
X0032236
X0031436
X0031436Y000788
X0030636
Y001028
X0031436
Y001108
Y001188
Y001268
X0030636
X0029036
Y001348
X0028397Y001394
X0029642Y0014313
X0031017Y0014344
X0032085Y0014321
X0033036Y001348
X0034327Y0015418
X0034468Y0016027
X0035022Y0016553
X0035576Y0018901
Y0019587
X003556Y0020269
X0035535Y002098
X0035636Y0021641
Y00222
X003741Y0022217
Y0023017
X0036617Y0024308
X0035864Y0024218
X0036017Y0025208
X003676Y0025425
X0033656Y0025405
X0032636
X0032004Y0025431
X0031373Y0025458
X0030142Y0025405
Y0024613
X0030642Y0024714
Y0024218
X0030142Y0023342
X0031323Y0023523
X0031788
X0032248
X0032505Y002253
X0032477Y0021553
X0031677Y0021525
X0031579Y002076
X0030946
Y0019939
X0030133Y0020077
X0030121Y0021494
X0030946Y0021801
X0029016Y0021954
X0028143Y0021525
X0027436Y0021553
X0027457Y0020712
X0028762Y002076
X0029032Y0019685
X0029016Y0018288
X0030121Y00184
X0030142Y0017348
X0029642
X0029226Y0016078
X0028595Y0016105
X0028568Y0015473
X0029199Y0015446
X0030663Y0015473
X003069Y0016105
X0031322Y0016078
X0031295Y0015446
X0032142Y0017598
X0031209Y00184
X0032416Y0019221
X002733Y0019101
X0025786
X0025711Y0019939
X0024068Y0019798
Y0020712
X0024474Y00215
X0024334Y00222
X0023556Y0023702
X0023561Y0024241
X0024827Y0024353
X0023919Y0025405
X0022991Y0025411
X0026432Y0025512
X0027696Y0025458
X0028327Y0025431
X0028959Y0025405
X0028662Y0023533
X0028147
X0027633
X0027407Y002253
X0025884Y0022965
X002192Y0022733
X0020495Y0022642
X0020117Y0023026
X0019733Y0022648
X0020111Y0022264
X001805Y0022347
X0018542Y0023393
X0017652Y0023951
X0017113Y0023956
X0015951Y0025157
X0015437Y0023068
X0014453Y0022732
Y00218
Y0020868
Y0019101
Y0018567
X001514Y0018383
X0016332Y0019685
X0017607Y0020437
X001892Y0019422
X0019304Y00198
X0019682Y0019416
X0019298Y0019038
X0020831Y0018756
X0021722Y0019846
X0021727Y0020385
X0022265Y002038
X0022261Y0019841
X002338Y0018761
X0024342Y0019003
X0024379Y0017085
X0025146Y0017094
X0025324Y0016485
X0026111Y0015494
X0026364Y0014901
X0025836Y001348
X0024704Y001388
X0025036Y001268
Y001188
X0025836
X0026636
Y001268
X0027436Y001268
Y001188
X0027457Y0011049
X0026636Y001108
X0025836
Y001028
X0025036
Y001108
X0024236
Y001028
X0025836Y000948
X0025836Y000868
X0025036
Y000788
Y000708
Y000628
X0025836
Y000548
Y000468
X0025036
X0024236
X0023139Y0004706
X0022822Y0004033
X0022974Y0003281
X0021477Y0003067
X0020922Y0004062
X0020086Y0004394
X0020523Y0004877
X0020086Y0005394
X0020244Y0006213
X0020345Y000701
X0018618Y0006756
X0017907Y000708
X0017729Y0006176
Y0005321
Y0004466
Y0003611
X001684Y0004466
Y0005321
Y0006176
X0016332Y000708
X0015316
X0014046Y0007473
X0013388Y0007082
X001295Y0005664
X0010352Y0005715
Y0004479
X0009928Y0003412
X0008678Y0003412
X0007428
X0007406Y0004387
Y0005664
X0006178Y0003412
X0004966Y0003873
X0003429Y0004479
X0003429Y0005774
X0000563Y00058
X-000039
Y0004836
X0000563
Y0003873
X-000039
X-0000268Y000778
X0000506Y0007971
Y0007488
X0001281Y000778
Y0009533
X0000506Y0009342
Y0009825
X-0000268Y0009533
X0003649Y0010613
Y0011147
X0003666Y0012613
Y0013147
X0004623Y001364
X0005199Y001236
X0006325Y0012863
Y0013397
X0007188Y0012055
Y0011521
X0006712Y001073
X0006698Y001003
X0007849Y0010389
X0007678Y0012538
X0008528
Y001524
X0007678
X0007214Y0015723
Y0016257
X0007656Y0017037
X0008617Y0018222
X0009156Y0018217
X000916Y0018756
X0008622Y001876
X0008977Y0020868
X0008179Y0021184
X0006712Y0023068
X0010147Y0022822
X0012226Y0021782
X0012649Y0025425
X0018496
X0019444Y0024289
X0016332Y0022347
X0018313Y0017907
X0016637Y001488
X0015316Y0014147
X0013056Y0013868
X0012836Y0013164
Y001258
X0012472Y0011009
X0011344Y0010431
X0010147Y001073
Y001003
X0008534Y0008026
X0011585Y0007026
X001199Y0003248
X0011984Y0002555
X0011985Y0001869
X0013421Y0001839
X001342Y0002525
X0013426Y0003218
X0015773Y0004441
Y000574
X0018592Y0004902
X0019437Y0004907
X0019609Y0001781
X0021523Y0000857
X0022949
X0025511Y0000663
X0025716Y0001648
Y0003226
X0024636Y0003412
X0025036Y000548
X0027436
X0028236Y000548
X0028236Y000468
X0029836
X0030636
Y000548
X0031436
Y000468
X0032236
Y000548
X0033036
X0033036Y000468
X0033914Y0002947
X0033829Y0001781
X0033622Y0001163
X0035097Y0001638
X0036412Y0002762
X0037062
X0037712
X003741Y0000641
X0036556
X0031013Y0001295
X0029836Y0001397
X0028198Y0001781
X0027905Y0001163
X0027436Y000628
X0026636Y000708
Y000788
X0025836
X0027436Y000868
X0027436Y0010188
X0029036Y001028
Y001108
Y001188
X0023093Y0012178
X0022534Y0013287
X0023089Y001443
X0020816Y0014425
X0020184Y0014452
X0021491Y0012512
Y001132
X0019888Y001148
Y001028
X0018724Y0009829
Y0011099
Y001237
X0021765Y0016471
X0022677Y0016485
X0023292Y0017348
X0027642Y0017598
X0034115Y0023137
X0033036Y000788
X0031436Y000628
X0029836Y000548
X0023292Y0006579
X0014046Y0015802
X0013233Y0015691
X0012836Y0015164
Y001463
X001107Y001443
Y0014964
Y0013897
Y0013364
Y001283
X0012065Y0016739
X0004953Y0015869
X0003632Y0015147
Y0014613
X0001281Y0016391
X0000506Y0016581
Y0016099
X-0000268Y0016391
X-0000272Y0018245
X0000503Y0018055
Y0018537
X0001278Y0018245
X0003589Y0021984
X0004991Y0025543
X0005097Y0010105
X0004953Y0000457
T02
X0003706Y00096
Y00164
T04
X0051318Y0023287
Y0024557
X0052588
X0053858
X0055128
Y0023287
X0053858
X0052588
T05
X0006156Y0001238
X0007406
X0008656
X0009906
X0011156
X00143Y0001232
X001555
X00168
X001805
X0011223Y0024714
X0009973
X0008723
X0007473
X0006223
T06
X0003353Y002076
T07
X00575Y00025
Y00235
T08
X00025Y00021
Y00239
M30
