G04*
G04 #@! TF.GenerationSoftware,Altium Limited,Altium Designer,21.3.2 (30)*
G04*
G04 Layer_Physical_Order=5*
G04 Layer_Color=16440176*
%FSLAX43Y43*%
%MOMM*%
G71*
G04*
G04 #@! TF.SameCoordinates,AF92D2DE-8466-4D58-AFAE-29A769C4C8C3*
G04*
G04*
G04 #@! TF.FilePolarity,Positive*
G04*
G01*
G75*
%ADD16C,0.254*%
%ADD18C,0.127*%
%ADD97C,0.406*%
%ADD115C,0.089*%
%ADD122C,1.016*%
%ADD123P,1.100X8X22.5*%
%ADD125O,1.000X1.500*%
G36*
X58260Y25765D02*
X58458Y25739D01*
X58643Y25663D01*
X58801Y25541D01*
X58923Y25383D01*
X58999Y25198D01*
X59025Y25000D01*
X59027D01*
Y22500D01*
X59025D01*
X58999Y22302D01*
X58923Y22117D01*
X58801Y21959D01*
X58643Y21837D01*
X58458Y21761D01*
X58264Y21735D01*
X58260Y21739D01*
Y21739D01*
X57939Y21697D01*
X57640Y21573D01*
X57384Y21376D01*
X57187Y21120D01*
X57063Y20821D01*
X57021Y20500D01*
X57027D01*
Y9788D01*
X56900Y9724D01*
X56830Y9754D01*
X56741D01*
X56671Y9829D01*
X56652Y9868D01*
X56672Y9916D01*
Y10038D01*
X56626Y10150D01*
X56540Y10236D01*
X56428Y10282D01*
X56307D01*
X56225Y10248D01*
X56132Y10289D01*
X56098Y10318D01*
Y14300D01*
X55450Y14948D01*
X54376D01*
X54314Y15041D01*
Y15163D01*
X54268Y15275D01*
X54182Y15360D01*
X54070Y15407D01*
X53949D01*
X53873Y15376D01*
X53821Y15424D01*
X53789Y15478D01*
X53828Y15573D01*
Y15694D01*
X53782Y15806D01*
X53696Y15892D01*
X53584Y15938D01*
X53463Y15938D01*
X53436Y16055D01*
X53389Y16167D01*
X53345Y16211D01*
X53353Y16346D01*
X53440Y16388D01*
X53469Y16364D01*
X53480Y16353D01*
X53592Y16307D01*
X53713D01*
X53825Y16353D01*
X53911Y16439D01*
X53957Y16551D01*
Y16672D01*
X53911Y16784D01*
X53825Y16870D01*
X53713Y16916D01*
X53592D01*
X53480Y16870D01*
X53469Y16859D01*
X53386Y16791D01*
X53303Y16859D01*
X53292Y16870D01*
X53180Y16916D01*
X53058D01*
X52946Y16870D01*
X52861Y16784D01*
X52814Y16672D01*
Y16551D01*
X52861Y16439D01*
X52924Y16376D01*
X52941Y16314D01*
X52928Y16223D01*
X52872Y16167D01*
X52826Y16055D01*
Y15934D01*
X52872Y15822D01*
X52958Y15736D01*
X53070Y15690D01*
X53191Y15690D01*
X53218Y15573D01*
X53265Y15460D01*
X53313Y15412D01*
X53303Y15360D01*
X53217Y15275D01*
X53171Y15162D01*
Y15041D01*
X53109Y14948D01*
X52198D01*
X52113Y15075D01*
X52116Y15082D01*
Y18186D01*
X52689Y18760D01*
X52828Y18719D01*
X52853Y18657D01*
X52939Y18572D01*
X53051Y18525D01*
X53172D01*
X53284Y18572D01*
X53295Y18583D01*
X53378Y18651D01*
X53461Y18583D01*
X53472Y18572D01*
X53584Y18525D01*
X53705D01*
X53817Y18572D01*
X53903Y18657D01*
X53950Y18769D01*
Y18891D01*
X53903Y19003D01*
X53817Y19088D01*
X53705Y19135D01*
X53653Y19262D01*
X54813Y20422D01*
X54860Y20533D01*
Y21547D01*
X56134Y22822D01*
X56180Y22934D01*
Y23292D01*
X56307Y23308D01*
X56380Y23036D01*
X56538Y22762D01*
X56762Y22538D01*
X57036Y22380D01*
X57342Y22298D01*
X57658D01*
X57964Y22380D01*
X58238Y22538D01*
X58462Y22762D01*
X58620Y23036D01*
X58702Y23342D01*
Y23658D01*
X58620Y23964D01*
X58462Y24238D01*
X58238Y24462D01*
X57964Y24620D01*
X57658Y24702D01*
X57342D01*
X57036Y24620D01*
X56762Y24462D01*
X56538Y24238D01*
X56380Y23964D01*
X56307Y23691D01*
X56180Y23708D01*
Y23734D01*
X56134Y23846D01*
X55833Y24146D01*
X55829Y24154D01*
X55818Y24180D01*
X55806Y24216D01*
X55795Y24259D01*
X55752Y24528D01*
X55744Y24613D01*
X55744Y24613D01*
X55744Y24613D01*
X55738Y24624D01*
Y24678D01*
X55645Y24902D01*
X55473Y25074D01*
X55249Y25166D01*
X55007D01*
X54783Y25074D01*
X54611Y24902D01*
X54519Y24678D01*
Y24435D01*
X54611Y24211D01*
X54783Y24040D01*
X54902Y23990D01*
Y23853D01*
X54783Y23804D01*
X54611Y23632D01*
X54562Y23513D01*
X54424D01*
X54375Y23632D01*
X54203Y23804D01*
X53979Y23896D01*
X53737D01*
X53513Y23804D01*
X53341Y23632D01*
X53292Y23513D01*
X53154D01*
X53105Y23632D01*
X52933Y23804D01*
X52814Y23853D01*
Y23990D01*
X52933Y24040D01*
X53105Y24211D01*
X53198Y24435D01*
Y24678D01*
X53105Y24902D01*
X52933Y25074D01*
X52709Y25166D01*
X52467D01*
X52243Y25074D01*
X52071Y24902D01*
X52022Y24783D01*
X51884D01*
X51835Y24902D01*
X51663Y25074D01*
X51439Y25166D01*
X51197D01*
X50973Y25074D01*
X50801Y24902D01*
X50709Y24678D01*
Y24435D01*
X50801Y24211D01*
X50973Y24040D01*
X51013Y24023D01*
X51006Y23889D01*
X50709Y23592D01*
Y22982D01*
X50817Y22874D01*
X50770Y22750D01*
X50688Y22715D01*
X50602Y22630D01*
X50555Y22518D01*
Y22476D01*
X50547Y22456D01*
X50547Y22432D01*
X50546Y22413D01*
X50544Y22396D01*
X50541Y22381D01*
X50538Y22368D01*
X50535Y22358D01*
X50533Y22353D01*
X50024Y21844D01*
X49906Y21893D01*
Y22605D01*
X49668Y22844D01*
X49668Y22845D01*
X49715Y22957D01*
Y23078D01*
X49668Y23190D01*
X49582Y23276D01*
X49470Y23322D01*
X49349D01*
X49237Y23276D01*
X49237Y23275D01*
X48978Y23533D01*
X38733D01*
X38429Y23229D01*
X38382Y23276D01*
X38270Y23322D01*
X38149D01*
X38037Y23276D01*
X37951Y23190D01*
X37905Y23078D01*
Y22957D01*
X37951Y22845D01*
X37998Y22798D01*
X37629Y22429D01*
X37582Y22476D01*
X37470Y22522D01*
X37349D01*
X37237Y22476D01*
X37151Y22390D01*
X37105Y22278D01*
Y22157D01*
X37151Y22045D01*
X37198Y21998D01*
X35777Y20577D01*
X35729Y20594D01*
X35716Y20670D01*
X35717Y20732D01*
X35793Y20808D01*
X35839Y20920D01*
Y21041D01*
X35793Y21153D01*
X35727Y21219D01*
X35735Y21315D01*
X35751Y21358D01*
X35809Y21382D01*
X35895Y21468D01*
X35941Y21580D01*
Y21701D01*
X35895Y21813D01*
X35871Y21837D01*
X35821Y21920D01*
X35871Y22003D01*
X35895Y22027D01*
X35941Y22139D01*
Y22260D01*
X35895Y22372D01*
X35809Y22458D01*
X35697Y22504D01*
X35576D01*
X35464Y22458D01*
X35378Y22372D01*
X35331Y22260D01*
Y22256D01*
X32842D01*
X32812Y22295D01*
X32774Y22383D01*
X32810Y22469D01*
Y22590D01*
X32763Y22702D01*
X32678Y22788D01*
X32566Y22835D01*
X32444D01*
X32332Y22788D01*
X32247Y22702D01*
X32200Y22590D01*
Y22469D01*
X32236Y22383D01*
X32198Y22295D01*
X32168Y22256D01*
X31782D01*
X31228Y22810D01*
X31117Y22856D01*
X27952D01*
X27697Y23111D01*
X27740Y23248D01*
X27806Y23275D01*
X27890Y23359D01*
X27975Y23275D01*
X28087Y23228D01*
X28208D01*
X28320Y23275D01*
X28404Y23359D01*
X28489Y23275D01*
X28601Y23228D01*
X28722D01*
X28834Y23275D01*
X28920Y23361D01*
X28966Y23473D01*
Y23594D01*
X28920Y23706D01*
X28834Y23792D01*
X28722Y23838D01*
X28601D01*
X28489Y23792D01*
X28404Y23707D01*
X28320Y23792D01*
X28208Y23838D01*
X28087D01*
X27975Y23792D01*
X27890Y23707D01*
X27806Y23792D01*
X27694Y23838D01*
X27572D01*
X27460Y23792D01*
X27375Y23706D01*
X27347Y23640D01*
X27211Y23597D01*
X27174Y23635D01*
X27062Y23681D01*
X24636D01*
X24524Y23635D01*
X24073Y23184D01*
X23239D01*
X22788Y23635D01*
X22677Y23681D01*
X19226D01*
X19115Y23635D01*
X18154Y22674D01*
X18149Y22672D01*
X18139Y22669D01*
X18126Y22666D01*
X18113Y22664D01*
X18074Y22660D01*
X18051Y22660D01*
X18031Y22652D01*
X17990D01*
X17878Y22605D01*
X17792Y22519D01*
X17745Y22407D01*
Y22286D01*
X17792Y22174D01*
X17878Y22088D01*
X17990Y22042D01*
X18111D01*
X18223Y22088D01*
X18309Y22174D01*
X18355Y22286D01*
Y22328D01*
X18363Y22348D01*
X18364Y22372D01*
X18365Y22391D01*
X18367Y22408D01*
X18369Y22423D01*
X18372Y22435D01*
X18375Y22445D01*
X18378Y22451D01*
X19292Y23365D01*
X19845D01*
X19898Y23238D01*
X19859Y23198D01*
X19812Y23086D01*
Y23070D01*
X19795Y22963D01*
X19695Y22953D01*
X19672D01*
X19560Y22907D01*
X19475Y22821D01*
X19428Y22709D01*
Y22588D01*
X19475Y22476D01*
X19560Y22390D01*
X19672Y22343D01*
X19688D01*
X19795Y22326D01*
X19806Y22226D01*
Y22203D01*
X19852Y22091D01*
X19938Y22006D01*
X20050Y21959D01*
X20171D01*
X20283Y22006D01*
X20369Y22091D01*
X20415Y22203D01*
Y22219D01*
X20432Y22326D01*
X20533Y22337D01*
X20555D01*
X20667Y22383D01*
X20753Y22469D01*
X20799Y22581D01*
Y22702D01*
X20753Y22814D01*
X20667Y22900D01*
X20555Y22946D01*
X20539D01*
X20432Y22963D01*
X20422Y23064D01*
Y23086D01*
X20375Y23198D01*
X20336Y23238D01*
X20389Y23365D01*
X22611D01*
X23062Y22914D01*
X23174Y22868D01*
X24139D01*
X24251Y22914D01*
X24702Y23365D01*
X25720D01*
X25745Y23238D01*
X25711Y23224D01*
X25626Y23138D01*
X25579Y23026D01*
Y22905D01*
X25626Y22793D01*
X25711Y22707D01*
X25823Y22661D01*
X25945D01*
X26057Y22707D01*
X26142Y22793D01*
X26189Y22905D01*
Y23026D01*
X26142Y23138D01*
X26057Y23224D01*
X26023Y23238D01*
X26048Y23365D01*
X26996D01*
X27400Y22962D01*
X27347Y22835D01*
X27346D01*
X27234Y22788D01*
X27148Y22702D01*
X27102Y22590D01*
Y22469D01*
X27148Y22357D01*
X27234Y22271D01*
X27346Y22225D01*
X27467D01*
X27579Y22271D01*
X27665Y22357D01*
X27711Y22469D01*
Y22484D01*
X27838Y22560D01*
X27886Y22540D01*
X31051D01*
X31605Y21986D01*
X31717Y21940D01*
X32282D01*
X32307Y21813D01*
X32305Y21812D01*
X32219Y21726D01*
X32173Y21614D01*
Y21493D01*
X32219Y21381D01*
X32305Y21295D01*
X32417Y21249D01*
X32538D01*
X32650Y21295D01*
X32736Y21381D01*
X32782Y21493D01*
Y21614D01*
X32736Y21726D01*
X32650Y21812D01*
X32647Y21813D01*
X32673Y21940D01*
X35325D01*
X35378Y21813D01*
X35331Y21701D01*
Y21660D01*
X35323Y21640D01*
X35323Y21616D01*
X35322Y21597D01*
X35320Y21579D01*
X35317Y21565D01*
X35314Y21552D01*
X35311Y21542D01*
X35309Y21537D01*
X33274Y19502D01*
X33227Y19390D01*
Y15678D01*
X32545Y14995D01*
X27886D01*
X27775Y14949D01*
X26268Y13442D01*
X26141Y13495D01*
Y13541D01*
X26095Y13653D01*
X26009Y13739D01*
X25897Y13785D01*
X25776D01*
X25663Y13739D01*
X25578Y13653D01*
X25531Y13541D01*
Y13420D01*
X25578Y13308D01*
X25663Y13222D01*
X25776Y13175D01*
X25863D01*
X25935Y13098D01*
X25953Y13062D01*
Y12405D01*
X25999Y12293D01*
X26022Y12271D01*
X25950Y12163D01*
X25897Y12185D01*
X25776D01*
X25663Y12139D01*
X25578Y12053D01*
X25531Y11941D01*
Y11820D01*
X25578Y11708D01*
X25663Y11622D01*
X25776Y11575D01*
X25897D01*
X26009Y11622D01*
X26095Y11708D01*
X26141Y11820D01*
Y11941D01*
X26119Y11994D01*
X26222Y12063D01*
X26310Y11981D01*
X26311Y11979D01*
X26314Y11969D01*
X26317Y11957D01*
X26319Y11943D01*
X26323Y11904D01*
X26323Y11881D01*
X26331Y11861D01*
Y11820D01*
X26378Y11708D01*
X26463Y11622D01*
X26576Y11575D01*
X26697D01*
X26809Y11622D01*
X26895Y11708D01*
X26941Y11820D01*
Y11941D01*
X26895Y12053D01*
X26809Y12139D01*
X26697Y12185D01*
X26655D01*
X26635Y12193D01*
X26611Y12194D01*
X26592Y12195D01*
X26575Y12197D01*
X26560Y12199D01*
X26548Y12202D01*
X26538Y12206D01*
X26536Y12206D01*
X26453Y12295D01*
X26522Y12398D01*
X26576Y12375D01*
X26697D01*
X26809Y12422D01*
X26895Y12508D01*
X26941Y12620D01*
Y12661D01*
X26949Y12681D01*
X26950Y12705D01*
X26951Y12725D01*
X26953Y12742D01*
X26955Y12757D01*
X26958Y12769D01*
X26961Y12779D01*
X26962Y12781D01*
X27051Y12863D01*
X27154Y12794D01*
X27131Y12741D01*
Y12620D01*
X27178Y12508D01*
X27264Y12422D01*
X27376Y12375D01*
X27497D01*
X27609Y12422D01*
X27695Y12508D01*
X27741Y12620D01*
Y12741D01*
X27695Y12853D01*
X27609Y12939D01*
X27497Y12985D01*
X27407D01*
X27348Y13063D01*
X27334Y13102D01*
X27358Y13137D01*
X28357D01*
X28469Y13184D01*
X28626Y13341D01*
X28776Y13311D01*
X28778Y13308D01*
X28821Y13264D01*
X28841Y13104D01*
X27812Y12075D01*
X27665Y12082D01*
X27609Y12139D01*
X27497Y12185D01*
X27376D01*
X27264Y12139D01*
X27178Y12053D01*
X27131Y11941D01*
Y11820D01*
X27178Y11708D01*
X27264Y11622D01*
X27346Y11588D01*
Y11333D01*
X27285Y11307D01*
X27199Y11222D01*
X27152Y11110D01*
Y10988D01*
X27199Y10876D01*
X27285Y10791D01*
X27346Y10765D01*
Y6573D01*
X27264Y6539D01*
X27178Y6453D01*
X27131Y6341D01*
Y6220D01*
X27178Y6108D01*
X27264Y6022D01*
X27346Y5988D01*
Y5352D01*
X27939Y4759D01*
X27931Y4741D01*
Y4620D01*
X27978Y4508D01*
X28063Y4422D01*
X28176Y4375D01*
X28297D01*
X28315Y4383D01*
X29113Y3584D01*
X33151D01*
X35097Y1638D01*
X36623D01*
X36667Y1681D01*
X38644D01*
X38755Y1728D01*
X39187Y2159D01*
X40021D01*
X40127Y2083D01*
Y1705D01*
X39876Y1454D01*
X39768Y1526D01*
X39790Y1577D01*
Y1699D01*
X39743Y1811D01*
X39657Y1896D01*
X39545Y1943D01*
X39424D01*
X39312Y1896D01*
X39226Y1811D01*
X39180Y1699D01*
Y1577D01*
X39226Y1465D01*
X39290Y1401D01*
X39265Y1299D01*
X39251Y1274D01*
X37885D01*
X37773Y1228D01*
X37514Y969D01*
X37508Y967D01*
X37498Y963D01*
X37486Y960D01*
X37473Y958D01*
X37433Y955D01*
X37411Y955D01*
X37391Y946D01*
X37349D01*
X37237Y900D01*
X37151Y814D01*
X37105Y702D01*
Y581D01*
X37151Y469D01*
X37237Y383D01*
X37292Y360D01*
X37267Y233D01*
X36698D01*
X36673Y360D01*
X36728Y383D01*
X36814Y469D01*
X36860Y581D01*
Y702D01*
X36814Y814D01*
X36728Y900D01*
X36616Y946D01*
X36495D01*
X36383Y900D01*
X36297Y814D01*
X36251Y702D01*
Y581D01*
X36297Y469D01*
X36383Y383D01*
X36438Y360D01*
X36413Y233D01*
X25677D01*
X25575Y292D01*
X25575Y292D01*
X25575D01*
X25572Y358D01*
X25684Y404D01*
X25770Y490D01*
X25816Y602D01*
Y723D01*
X25770Y835D01*
X25684Y921D01*
X25572Y967D01*
X25451D01*
X25339Y921D01*
X25253Y835D01*
X25206Y723D01*
Y602D01*
X25253Y490D01*
X25339Y404D01*
X25451Y358D01*
X25448Y292D01*
X25448D01*
X25448Y292D01*
X25345Y233D01*
X0D01*
Y235D01*
X-198Y261D01*
X-383Y337D01*
X-541Y459D01*
X-663Y617D01*
X-739Y802D01*
X-765Y1000D01*
X-767D01*
Y8148D01*
X-711Y8183D01*
X-640Y8201D01*
X-537Y8122D01*
X-520Y8086D01*
X-511Y7969D01*
X-527Y7953D01*
X-573Y7841D01*
Y7720D01*
X-527Y7608D01*
X-441Y7522D01*
X-329Y7476D01*
X-208D01*
X-96Y7522D01*
X-10Y7608D01*
X36Y7720D01*
Y7841D01*
X14Y7896D01*
X74Y8002D01*
X201Y8000D01*
Y7910D01*
X248Y7798D01*
X316Y7729D01*
X248Y7661D01*
X201Y7549D01*
Y7428D01*
X248Y7316D01*
X334Y7230D01*
X446Y7183D01*
X567D01*
X679Y7230D01*
X765Y7316D01*
X811Y7428D01*
Y7549D01*
X765Y7661D01*
X696Y7729D01*
X765Y7798D01*
X811Y7910D01*
Y8000D01*
X938Y8002D01*
X999Y7896D01*
X976Y7841D01*
Y7720D01*
X1023Y7608D01*
X1108Y7522D01*
X1220Y7476D01*
X1342D01*
X1454Y7522D01*
X1539Y7608D01*
X1586Y7720D01*
Y7841D01*
X1539Y7953D01*
X1524Y7969D01*
X1533Y8086D01*
X1550Y8122D01*
X1671Y8215D01*
X1775Y8351D01*
X1841Y8510D01*
X1863Y8680D01*
X1841Y8850D01*
X1775Y9009D01*
X1671Y9145D01*
X1576Y9217D01*
X1539Y9360D01*
X1586Y9472D01*
Y9594D01*
X1539Y9706D01*
X1454Y9791D01*
X1342Y9838D01*
X1220D01*
X1108Y9791D01*
X1023Y9706D01*
X976Y9594D01*
Y9513D01*
X892Y9417D01*
X873Y9404D01*
X801Y9426D01*
X765Y9515D01*
X696Y9584D01*
X765Y9652D01*
X811Y9764D01*
Y9886D01*
X765Y9998D01*
X679Y10083D01*
X567Y10130D01*
X446D01*
X334Y10083D01*
X248Y9998D01*
X201Y9886D01*
Y9764D01*
X248Y9652D01*
X316Y9584D01*
X248Y9515D01*
X211Y9426D01*
X139Y9404D01*
X121Y9417D01*
X36Y9513D01*
Y9594D01*
X-10Y9706D01*
X-96Y9791D01*
X-208Y9838D01*
X-329D01*
X-441Y9791D01*
X-527Y9706D01*
X-573Y9594D01*
Y9472D01*
X-527Y9360D01*
X-564Y9217D01*
X-640Y9159D01*
X-711Y9177D01*
X-767Y9212D01*
Y16788D01*
X-711Y16823D01*
X-640Y16841D01*
X-522Y16751D01*
X-513Y16747D01*
X-490Y16600D01*
X-527Y16564D01*
X-573Y16452D01*
Y16330D01*
X-527Y16218D01*
X-441Y16132D01*
X-329Y16086D01*
X-208D01*
X-96Y16132D01*
X-10Y16218D01*
X36Y16330D01*
Y16452D01*
X1Y16536D01*
X41Y16626D01*
X68Y16660D01*
X191Y16657D01*
X201Y16642D01*
Y16521D01*
X248Y16409D01*
X316Y16340D01*
X248Y16271D01*
X201Y16159D01*
Y16038D01*
X248Y15926D01*
X334Y15840D01*
X446Y15794D01*
X567D01*
X679Y15840D01*
X765Y15926D01*
X811Y16038D01*
Y16159D01*
X765Y16271D01*
X696Y16340D01*
X765Y16409D01*
X811Y16521D01*
Y16642D01*
X821Y16657D01*
X944Y16660D01*
X972Y16626D01*
X1011Y16536D01*
X976Y16452D01*
Y16330D01*
X1023Y16218D01*
X1108Y16132D01*
X1220Y16086D01*
X1342D01*
X1454Y16132D01*
X1539Y16218D01*
X1586Y16330D01*
Y16452D01*
X1539Y16564D01*
X1503Y16600D01*
X1525Y16747D01*
X1535Y16751D01*
X1671Y16855D01*
X1775Y16991D01*
X1841Y17150D01*
X1863Y17320D01*
X1841Y17490D01*
X1775Y17649D01*
X1671Y17785D01*
X1535Y17889D01*
X1528Y17892D01*
X1503Y18040D01*
X1536Y18072D01*
X1582Y18184D01*
Y18306D01*
X1536Y18418D01*
X1450Y18503D01*
X1338Y18550D01*
X1217D01*
X1105Y18503D01*
X1019Y18418D01*
X973Y18306D01*
Y18184D01*
X1006Y18104D01*
X963Y18009D01*
X938Y17981D01*
X813Y17985D01*
X808Y17994D01*
Y18115D01*
X761Y18227D01*
X693Y18296D01*
X761Y18365D01*
X808Y18477D01*
Y18598D01*
X761Y18710D01*
X676Y18796D01*
X564Y18842D01*
X442D01*
X330Y18796D01*
X245Y18710D01*
X198Y18598D01*
Y18477D01*
X245Y18365D01*
X313Y18296D01*
X245Y18227D01*
X198Y18115D01*
Y17994D01*
X192Y17985D01*
X68Y17981D01*
X43Y18009D01*
X-0Y18104D01*
X33Y18184D01*
Y18306D01*
X-13Y18418D01*
X-99Y18503D01*
X-211Y18550D01*
X-332D01*
X-444Y18503D01*
X-530Y18418D01*
X-577Y18306D01*
Y18184D01*
X-530Y18072D01*
X-496Y18038D01*
X-519Y17891D01*
X-522Y17889D01*
X-640Y17799D01*
X-711Y17817D01*
X-767Y17852D01*
Y25000D01*
X-765D01*
X-739Y25198D01*
X-663Y25383D01*
X-541Y25541D01*
X-383Y25663D01*
X-198Y25739D01*
X0Y25765D01*
Y25767D01*
X12380D01*
X12433Y25640D01*
X12391Y25598D01*
X12344Y25486D01*
Y25365D01*
X12391Y25253D01*
X12477Y25167D01*
X12589Y25121D01*
X12710D01*
X12822Y25167D01*
X12908Y25253D01*
X12954Y25365D01*
Y25486D01*
X12908Y25598D01*
X12866Y25640D01*
X12918Y25767D01*
X18227D01*
X18279Y25640D01*
X18238Y25598D01*
X18191Y25486D01*
Y25365D01*
X18212Y25315D01*
X18136Y25188D01*
X16256D01*
Y25218D01*
X16210Y25330D01*
X16124Y25416D01*
X16012Y25462D01*
X15891D01*
X15779Y25416D01*
X15693Y25330D01*
X15646Y25218D01*
Y25097D01*
X15693Y24985D01*
X15779Y24899D01*
X15891Y24853D01*
X16012D01*
X16110Y24893D01*
X16162Y24872D01*
X25081D01*
X25909Y24044D01*
X26020Y23997D01*
X29095D01*
X29361Y23732D01*
X29473Y23685D01*
X29874D01*
X29927Y23558D01*
X29884Y23515D01*
X29837Y23403D01*
Y23282D01*
X29884Y23170D01*
X29969Y23084D01*
X30081Y23038D01*
X30203D01*
X30315Y23084D01*
X30400Y23170D01*
X30447Y23282D01*
Y23403D01*
X30400Y23515D01*
X30357Y23558D01*
X30410Y23685D01*
X30950D01*
X31018Y23584D01*
Y23462D01*
X31065Y23350D01*
X31151Y23265D01*
X31263Y23218D01*
X31384D01*
X31496Y23265D01*
X31556Y23324D01*
X31615Y23265D01*
X31727Y23218D01*
X31849D01*
X31961Y23265D01*
X32018Y23322D01*
X32076Y23265D01*
X32188Y23218D01*
X32309D01*
X32421Y23265D01*
X32507Y23350D01*
X32553Y23462D01*
Y23584D01*
X32507Y23696D01*
X32421Y23781D01*
X32309Y23828D01*
X32188D01*
X32076Y23781D01*
X32018Y23724D01*
X31961Y23781D01*
X31849Y23828D01*
X31727D01*
X31615Y23781D01*
X31579Y23745D01*
X31465Y23810D01*
X31439Y23942D01*
X31557Y24060D01*
X34620D01*
X34732Y24106D01*
X35060Y24435D01*
X36243D01*
X36355Y24481D01*
X36851Y24977D01*
X36897Y25089D01*
Y25115D01*
X36899Y25119D01*
X36903Y25126D01*
X36909Y25135D01*
X36917Y25145D01*
X36927Y25156D01*
X36940Y25168D01*
X36957Y25182D01*
X36967Y25202D01*
X37018Y25253D01*
X37065Y25365D01*
Y25486D01*
X37018Y25598D01*
X36976Y25640D01*
X37029Y25767D01*
X58260D01*
Y25765D01*
D02*
G37*
G36*
X36886Y25267D02*
X36867Y25250D01*
X36849Y25234D01*
X36834Y25217D01*
X36821Y25201D01*
X36809Y25184D01*
X36800Y25168D01*
X36793Y25151D01*
X36788Y25135D01*
X36785Y25118D01*
X36784Y25102D01*
X36695Y25111D01*
X36694Y25126D01*
X36691Y25142D01*
X36686Y25159D01*
X36680Y25176D01*
X36672Y25195D01*
X36662Y25213D01*
X36650Y25233D01*
X36621Y25274D01*
X36603Y25296D01*
X36886Y25267D01*
D02*
G37*
G36*
X36543Y25640D02*
X36501Y25598D01*
X36455Y25486D01*
Y25365D01*
X36501Y25253D01*
X36508Y25246D01*
X36559Y25132D01*
X36178Y24751D01*
X34995D01*
X34883Y24705D01*
X34555Y24376D01*
X31491D01*
X31380Y24330D01*
X31124Y24074D01*
X31053Y24081D01*
X30947Y24158D01*
Y24279D01*
X30900Y24391D01*
X30825Y24466D01*
X30900Y24542D01*
X30947Y24654D01*
Y24775D01*
X30900Y24887D01*
X30815Y24973D01*
X30703Y25019D01*
X30581D01*
X30469Y24973D01*
X30384Y24887D01*
X30265Y24891D01*
X30203Y24917D01*
X30081D01*
X29969Y24871D01*
X29884Y24785D01*
X29837Y24673D01*
Y24552D01*
X29884Y24440D01*
X29969Y24354D01*
X30081Y24308D01*
X30203D01*
X30220Y24315D01*
X30235Y24310D01*
X30337Y24226D01*
Y24158D01*
X30349Y24129D01*
X30264Y24002D01*
X29538D01*
X29273Y24267D01*
X29161Y24313D01*
X26086D01*
X25258Y25142D01*
X25146Y25188D01*
X24297D01*
X24212Y25315D01*
X24224Y25344D01*
Y25465D01*
X24178Y25577D01*
X24115Y25640D01*
X24143Y25748D01*
X24154Y25767D01*
X26090D01*
X26155Y25640D01*
X26127Y25573D01*
Y25452D01*
X26174Y25340D01*
X26260Y25254D01*
X26372Y25207D01*
X26493D01*
X26605Y25254D01*
X26691Y25340D01*
X26737Y25452D01*
Y25573D01*
X26709Y25640D01*
X26774Y25767D01*
X27394D01*
X27446Y25640D01*
X27437Y25631D01*
X27391Y25519D01*
Y25398D01*
X27437Y25286D01*
X27523Y25200D01*
X27635Y25154D01*
X27756D01*
X27868Y25200D01*
X27930Y25262D01*
X28047Y25259D01*
X28077Y25251D01*
X28155Y25173D01*
X28267Y25127D01*
X28388D01*
X28500Y25173D01*
X28562Y25235D01*
X28679Y25232D01*
X28709Y25224D01*
X28786Y25146D01*
X28898Y25100D01*
X29020D01*
X29132Y25146D01*
X29217Y25232D01*
X29264Y25344D01*
Y25465D01*
X29217Y25577D01*
X29155Y25640D01*
X29182Y25748D01*
X29194Y25767D01*
X31071D01*
X31123Y25640D01*
X31114Y25631D01*
X31068Y25519D01*
Y25398D01*
X31114Y25286D01*
X31200Y25200D01*
X31312Y25154D01*
X31433D01*
X31545Y25200D01*
X31607Y25262D01*
X31724Y25259D01*
X31754Y25251D01*
X31832Y25173D01*
X31944Y25127D01*
X32065D01*
X32177Y25173D01*
X32239Y25235D01*
X32356Y25232D01*
X32386Y25224D01*
X32464Y25146D01*
X32576Y25100D01*
X32697D01*
X32809Y25146D01*
X32895Y25232D01*
X32941Y25344D01*
Y25465D01*
X32895Y25577D01*
X32832Y25640D01*
X32860Y25748D01*
X32871Y25767D01*
X33422D01*
X33433Y25748D01*
X33461Y25640D01*
X33398Y25577D01*
X33352Y25465D01*
Y25344D01*
X33398Y25232D01*
X33484Y25146D01*
X33596Y25100D01*
X33717D01*
X33829Y25146D01*
X33915Y25232D01*
X33961Y25344D01*
Y25465D01*
X33915Y25577D01*
X33852Y25640D01*
X33880Y25748D01*
X33891Y25767D01*
X36491D01*
X36543Y25640D01*
D02*
G37*
G36*
X16149Y25110D02*
X16150Y25108D01*
X16153Y25105D01*
X16156Y25101D01*
X16170Y25085D01*
X16193Y25061D01*
X16131Y24998D01*
X16126Y25003D01*
X16113Y25014D01*
X16110Y25016D01*
X16107Y25018D01*
X16105Y25019D01*
X16103Y25020D01*
X16101Y25020D01*
X16100Y25019D01*
X16149Y25111D01*
X16149Y25110D01*
D02*
G37*
G36*
X55643Y24514D02*
X55687Y24236D01*
X55700Y24185D01*
X55715Y24142D01*
X55730Y24105D01*
X55746Y24077D01*
X55764Y24055D01*
X55707Y23986D01*
X55682Y24007D01*
X55651Y24024D01*
X55613Y24039D01*
X55570Y24050D01*
X55521Y24058D01*
X55465Y24063D01*
X55404Y24065D01*
X55263Y24059D01*
X55183Y24052D01*
X55634Y24602D01*
X55643Y24514D01*
D02*
G37*
G36*
X51130Y22785D02*
X51122Y22788D01*
X51113Y22789D01*
X51103Y22788D01*
X51092Y22785D01*
X51080Y22779D01*
X51067Y22772D01*
X51053Y22762D01*
X51038Y22750D01*
X51004Y22719D01*
X50941Y22781D01*
X50954Y22795D01*
X50965Y22808D01*
X50974Y22820D01*
X50981Y22831D01*
X50986Y22842D01*
X50988Y22851D01*
X50988Y22859D01*
X50986Y22866D01*
X50981Y22872D01*
X50974Y22877D01*
X51130Y22785D01*
D02*
G37*
G36*
X55072Y22782D02*
X54992Y22790D01*
X54851Y22795D01*
X54790Y22794D01*
X54735Y22789D01*
X54685Y22781D01*
X54642Y22769D01*
X54605Y22755D01*
X54574Y22738D01*
X54548Y22717D01*
X54492Y22786D01*
X54509Y22808D01*
X54525Y22836D01*
X54541Y22873D01*
X54555Y22916D01*
X54569Y22967D01*
X54593Y23091D01*
X54613Y23245D01*
X54622Y23333D01*
X55072Y22782D01*
D02*
G37*
G36*
X52572Y22779D02*
X52492Y22780D01*
X52289Y22771D01*
X52234Y22762D01*
X52185Y22752D01*
X52142Y22739D01*
X52105Y22724D01*
X52074Y22706D01*
X52063Y22697D01*
X52065Y22673D01*
X52067Y22660D01*
X52069Y22649D01*
X52072Y22640D01*
X52075Y22631D01*
X52079Y22624D01*
X52083Y22618D01*
X52088Y22613D01*
X51940Y22659D01*
X51947Y22661D01*
X51952Y22663D01*
X51958Y22666D01*
X51962Y22670D01*
X51966Y22675D01*
X51969Y22682D01*
X51971Y22689D01*
X51973Y22697D01*
X51974Y22707D01*
X51974Y22717D01*
X52018D01*
X51987Y22748D01*
X52007Y22773D01*
X52025Y22804D01*
X52040Y22840D01*
X52053Y22883D01*
X52064Y22932D01*
X52072Y22988D01*
X52078Y23049D01*
X52082Y23190D01*
X52080Y23270D01*
X52572Y22779D01*
D02*
G37*
G36*
X41558Y22814D02*
X41531Y22814D01*
X41483Y22810D01*
X41461Y22806D01*
X41441Y22801D01*
X41423Y22795D01*
X41406Y22788D01*
X41390Y22780D01*
X41377Y22770D01*
X41365Y22760D01*
X41302Y22822D01*
X41313Y22834D01*
X41322Y22848D01*
X41330Y22863D01*
X41338Y22880D01*
X41344Y22899D01*
X41348Y22919D01*
X41352Y22940D01*
X41355Y22964D01*
X41356Y22989D01*
X41357Y23015D01*
X41558Y22814D01*
D02*
G37*
G36*
X53863Y22779D02*
X53778Y22777D01*
X53565Y22760D01*
X53508Y22751D01*
X53457Y22740D01*
X53414Y22727D01*
X53377Y22712D01*
X53347Y22695D01*
X53324Y22676D01*
X53260Y22738D01*
X53279Y22761D01*
X53296Y22792D01*
X53311Y22829D01*
X53324Y22873D01*
X53334Y22923D01*
X53342Y22980D01*
X53351Y23113D01*
X53352Y23189D01*
X53350Y23272D01*
X53863Y22779D01*
D02*
G37*
G36*
X54434Y22602D02*
X54424Y22592D01*
X54415Y22579D01*
X54406Y22565D01*
X54398Y22549D01*
X54389Y22530D01*
X54373Y22487D01*
X54357Y22436D01*
X54350Y22407D01*
X54206Y22653D01*
X54230Y22647D01*
X54252Y22644D01*
X54273Y22642D01*
X54293Y22642D01*
X54312Y22644D01*
X54329Y22648D01*
X54345Y22653D01*
X54361Y22661D01*
X54375Y22670D01*
X54388Y22682D01*
X54434Y22602D01*
D02*
G37*
G36*
X50965Y22685D02*
X50968Y22635D01*
X50969Y22631D01*
X50970Y22628D01*
X50971Y22627D01*
X50866Y22660D01*
X50868Y22660D01*
X50870Y22662D01*
X50871Y22663D01*
X50873Y22666D01*
X50874Y22670D01*
X50875Y22674D01*
X50875Y22679D01*
X50876Y22684D01*
X50876Y22698D01*
X50965D01*
X50965Y22685D01*
D02*
G37*
G36*
X53308Y22660D02*
X53297Y22648D01*
X53287Y22634D01*
X53279Y22619D01*
X53272Y22602D01*
X53267Y22584D01*
X53262Y22564D01*
X53259Y22542D01*
X53258Y22519D01*
X53257Y22495D01*
X53258Y22469D01*
X53048Y22660D01*
X53075Y22662D01*
X53124Y22668D01*
X53146Y22672D01*
X53166Y22678D01*
X53185Y22684D01*
X53201Y22692D01*
X53217Y22700D01*
X53230Y22709D01*
X53242Y22720D01*
X53308Y22660D01*
D02*
G37*
G36*
X18308Y22542D02*
X18297Y22530D01*
X18288Y22516D01*
X18280Y22501D01*
X18272Y22484D01*
X18266Y22466D01*
X18261Y22445D01*
X18258Y22424D01*
X18255Y22400D01*
X18254Y22375D01*
X18253Y22349D01*
X18052Y22550D01*
X18079Y22550D01*
X18127Y22554D01*
X18149Y22558D01*
X18169Y22563D01*
X18187Y22569D01*
X18204Y22576D01*
X18220Y22585D01*
X18233Y22594D01*
X18245Y22605D01*
X18308Y22542D01*
D02*
G37*
G36*
X54151Y22254D02*
X54124Y22254D01*
X54076Y22249D01*
X54054Y22246D01*
X54034Y22241D01*
X54016Y22235D01*
X53999Y22228D01*
X53983Y22219D01*
X53970Y22210D01*
X53958Y22199D01*
X53895Y22262D01*
X53906Y22274D01*
X53915Y22288D01*
X53923Y22303D01*
X53931Y22320D01*
X53937Y22338D01*
X53942Y22358D01*
X53945Y22380D01*
X53948Y22403D01*
X53949Y22428D01*
X53950Y22455D01*
X54151Y22254D01*
D02*
G37*
G36*
X53053D02*
X53027Y22254D01*
X52978Y22249D01*
X52957Y22246D01*
X52937Y22241D01*
X52918Y22235D01*
X52901Y22228D01*
X52886Y22219D01*
X52872Y22210D01*
X52860Y22199D01*
X52797Y22262D01*
X52808Y22274D01*
X52818Y22288D01*
X52826Y22303D01*
X52833Y22320D01*
X52839Y22338D01*
X52844Y22358D01*
X52848Y22380D01*
X52850Y22403D01*
X52852Y22428D01*
X52852Y22455D01*
X53053Y22254D01*
D02*
G37*
G36*
X51956D02*
X51929Y22254D01*
X51881Y22249D01*
X51859Y22246D01*
X51839Y22241D01*
X51820Y22235D01*
X51804Y22228D01*
X51788Y22219D01*
X51775Y22210D01*
X51763Y22199D01*
X51700Y22262D01*
X51710Y22274D01*
X51720Y22288D01*
X51728Y22303D01*
X51736Y22320D01*
X51742Y22338D01*
X51746Y22358D01*
X51750Y22380D01*
X51753Y22403D01*
X51754Y22428D01*
X51755Y22455D01*
X51956Y22254D01*
D02*
G37*
G36*
X50858D02*
X50832Y22254D01*
X50783Y22249D01*
X50762Y22246D01*
X50741Y22241D01*
X50723Y22235D01*
X50706Y22228D01*
X50691Y22219D01*
X50677Y22210D01*
X50665Y22199D01*
X50602Y22262D01*
X50613Y22274D01*
X50622Y22288D01*
X50631Y22303D01*
X50638Y22320D01*
X50644Y22338D01*
X50649Y22358D01*
X50653Y22380D01*
X50655Y22403D01*
X50657Y22428D01*
X50657Y22455D01*
X50858Y22254D01*
D02*
G37*
G36*
X45502Y22035D02*
X45492Y22027D01*
X45483Y22017D01*
X45476Y22007D01*
X45469Y21996D01*
X45464Y21984D01*
X45460Y21971D01*
X45457Y21956D01*
X45455Y21941D01*
X45454Y21926D01*
X45365D01*
X45365Y21941D01*
X45363Y21956D01*
X45360Y21971D01*
X45356Y21984D01*
X45351Y21996D01*
X45344Y22007D01*
X45336Y22017D01*
X45328Y22027D01*
X45318Y22035D01*
X45306Y22042D01*
X45513D01*
X45502Y22035D01*
D02*
G37*
G36*
X49568Y22086D02*
X49532Y22018D01*
X49524Y21998D01*
X49511Y21961D01*
X49507Y21944D01*
X49505Y21929D01*
X49504Y21915D01*
X49415Y21892D01*
X49414Y21909D01*
X49411Y21926D01*
X49405Y21942D01*
X49398Y21958D01*
X49388Y21973D01*
X49376Y21988D01*
X49362Y22002D01*
X49346Y22016D01*
X49328Y22029D01*
X49307Y22042D01*
X49583Y22111D01*
X49568Y22086D01*
D02*
G37*
G36*
X41568Y22086D02*
X41532Y22018D01*
X41524Y21998D01*
X41511Y21961D01*
X41507Y21944D01*
X41505Y21929D01*
X41504Y21915D01*
X41415Y21892D01*
X41414Y21909D01*
X41411Y21926D01*
X41405Y21942D01*
X41398Y21958D01*
X41388Y21973D01*
X41376Y21988D01*
X41362Y22002D01*
X41346Y22016D01*
X41328Y22029D01*
X41307Y22042D01*
X41583Y22111D01*
X41568Y22086D01*
D02*
G37*
G36*
X35634Y21438D02*
X35608Y21437D01*
X35559Y21433D01*
X35538Y21430D01*
X35517Y21425D01*
X35499Y21419D01*
X35482Y21411D01*
X35467Y21403D01*
X35453Y21394D01*
X35441Y21383D01*
X35378Y21446D01*
X35389Y21458D01*
X35398Y21471D01*
X35407Y21487D01*
X35414Y21504D01*
X35420Y21522D01*
X35425Y21542D01*
X35429Y21564D01*
X35431Y21587D01*
X35433Y21612D01*
X35433Y21639D01*
X35634Y21438D01*
D02*
G37*
G36*
X45711Y21107D02*
X45707Y21112D01*
X45703Y21116D01*
X45697Y21119D01*
X45690Y21122D01*
X45682Y21125D01*
X45672Y21127D01*
X45662Y21129D01*
X45650Y21130D01*
X45623Y21131D01*
Y21220D01*
X45634Y21220D01*
X45644Y21221D01*
X45653Y21222D01*
X45660Y21224D01*
X45667Y21227D01*
X45673Y21230D01*
X45677Y21234D01*
X45681Y21238D01*
X45683Y21243D01*
X45685Y21248D01*
X45711Y21107D01*
D02*
G37*
G36*
X35533Y20777D02*
X35506Y20777D01*
X35458Y20773D01*
X35436Y20769D01*
X35416Y20764D01*
X35397Y20758D01*
X35381Y20751D01*
X35365Y20743D01*
X35352Y20733D01*
X35340Y20723D01*
X35277Y20785D01*
X35287Y20797D01*
X35297Y20811D01*
X35305Y20826D01*
X35312Y20843D01*
X35318Y20862D01*
X35323Y20882D01*
X35327Y20903D01*
X35330Y20927D01*
X35331Y20952D01*
X35331Y20978D01*
X35533Y20777D01*
D02*
G37*
G36*
X39777Y19115D02*
X39790Y19105D01*
X39806Y19097D01*
X39823Y19090D01*
X39841Y19084D01*
X39861Y19079D01*
X39883Y19075D01*
X39906Y19072D01*
X39931Y19071D01*
X39958Y19071D01*
X39757Y18869D01*
X39756Y18896D01*
X39752Y18944D01*
X39749Y18966D01*
X39744Y18986D01*
X39738Y19005D01*
X39730Y19021D01*
X39722Y19037D01*
X39713Y19050D01*
X39702Y19062D01*
X39765Y19125D01*
X39777Y19115D01*
D02*
G37*
G36*
X44995Y18793D02*
X44991Y18771D01*
X44989Y18750D01*
X44989Y18730D01*
X44990Y18711D01*
X44994Y18694D01*
X45000Y18677D01*
X45007Y18662D01*
X45017Y18648D01*
X45028Y18635D01*
X44947Y18590D01*
X44937Y18600D01*
X44925Y18608D01*
X44911Y18617D01*
X44894Y18626D01*
X44876Y18635D01*
X44833Y18652D01*
X44782Y18668D01*
X44753Y18676D01*
X45001Y18816D01*
X44995Y18793D01*
D02*
G37*
G36*
X38200Y17678D02*
X38213Y17669D01*
X38228Y17660D01*
X38245Y17652D01*
X38264Y17645D01*
X38284Y17638D01*
X38306Y17633D01*
X38356Y17623D01*
X38384Y17619D01*
X38159Y17446D01*
X38161Y17471D01*
X38163Y17494D01*
X38162Y17517D01*
X38161Y17538D01*
X38157Y17557D01*
X38153Y17575D01*
X38146Y17592D01*
X38138Y17607D01*
X38129Y17621D01*
X38118Y17634D01*
X38189Y17688D01*
X38200Y17678D01*
D02*
G37*
G36*
X45265Y17275D02*
X45246Y17294D01*
X45209Y17325D01*
X45191Y17338D01*
X45173Y17348D01*
X45156Y17357D01*
X45139Y17364D01*
X45122Y17369D01*
X45106Y17372D01*
X45090Y17373D01*
Y17462D01*
X45106Y17463D01*
X45122Y17466D01*
X45139Y17471D01*
X45156Y17477D01*
X45173Y17486D01*
X45191Y17497D01*
X45209Y17510D01*
X45227Y17524D01*
X45246Y17541D01*
X45265Y17560D01*
Y17275D01*
D02*
G37*
G36*
X37558Y17214D02*
X37531Y17214D01*
X37483Y17210D01*
X37461Y17206D01*
X37441Y17201D01*
X37423Y17195D01*
X37406Y17188D01*
X37390Y17180D01*
X37377Y17170D01*
X37365Y17160D01*
X37302Y17222D01*
X37313Y17234D01*
X37322Y17248D01*
X37330Y17263D01*
X37338Y17280D01*
X37344Y17299D01*
X37348Y17319D01*
X37352Y17340D01*
X37355Y17364D01*
X37356Y17389D01*
X37357Y17415D01*
X37558Y17214D01*
D02*
G37*
G36*
X48633Y17215D02*
X48605Y17212D01*
X48555Y17203D01*
X48533Y17197D01*
X48512Y17190D01*
X48494Y17183D01*
X48477Y17175D01*
X48462Y17167D01*
X48449Y17157D01*
X48438Y17147D01*
X48367Y17202D01*
X48378Y17215D01*
X48387Y17228D01*
X48395Y17244D01*
X48402Y17260D01*
X48407Y17279D01*
X48410Y17298D01*
X48412Y17319D01*
X48412Y17342D01*
X48411Y17365D01*
X48408Y17390D01*
X48633Y17215D01*
D02*
G37*
G36*
X40124Y15029D02*
X40161Y14997D01*
X40179Y14985D01*
X40197Y14974D01*
X40214Y14965D01*
X40231Y14958D01*
X40248Y14953D01*
X40264Y14950D01*
X40280Y14949D01*
Y14861D01*
X40264Y14860D01*
X40248Y14857D01*
X40231Y14852D01*
X40214Y14845D01*
X40197Y14836D01*
X40179Y14825D01*
X40161Y14813D01*
X40143Y14798D01*
X40124Y14781D01*
X40105Y14763D01*
Y15047D01*
X40124Y15029D01*
D02*
G37*
G36*
X39681Y14770D02*
X39685Y14753D01*
X39690Y14737D01*
X39697Y14721D01*
X39706Y14704D01*
X39718Y14688D01*
X39731Y14672D01*
X39747Y14656D01*
X39765Y14640D01*
X39784Y14624D01*
X39502Y14588D01*
X39519Y14611D01*
X39548Y14653D01*
X39559Y14673D01*
X39569Y14692D01*
X39577Y14710D01*
X39583Y14727D01*
X39588Y14744D01*
X39591Y14760D01*
X39591Y14775D01*
X39680Y14787D01*
X39681Y14770D01*
D02*
G37*
G36*
X37696Y14770D02*
X37700Y14753D01*
X37705Y14737D01*
X37713Y14722D01*
X37722Y14707D01*
X37734Y14693D01*
X37749Y14680D01*
X37765Y14667D01*
X37783Y14655D01*
X37804Y14643D01*
X37532Y14558D01*
X37547Y14585D01*
X37588Y14677D01*
X37595Y14697D01*
X37603Y14730D01*
X37606Y14745D01*
X37606Y14758D01*
X37695Y14787D01*
X37696Y14770D01*
D02*
G37*
G36*
X36879Y14710D02*
X36892Y14700D01*
X36908Y14692D01*
X36924Y14685D01*
X36943Y14679D01*
X36963Y14674D01*
X36985Y14670D01*
X37008Y14667D01*
X37033Y14666D01*
X37060Y14666D01*
X36858Y14464D01*
X36858Y14491D01*
X36854Y14539D01*
X36850Y14561D01*
X36845Y14581D01*
X36839Y14600D01*
X36832Y14617D01*
X36824Y14632D01*
X36814Y14645D01*
X36804Y14657D01*
X36867Y14720D01*
X36879Y14710D01*
D02*
G37*
G36*
X39919Y14007D02*
X39909Y13995D01*
X39899Y13982D01*
X39891Y13967D01*
X39884Y13950D01*
X39878Y13931D01*
X39873Y13911D01*
X39869Y13889D01*
X39867Y13866D01*
X39865Y13841D01*
X39865Y13814D01*
X39664Y14016D01*
X39690Y14016D01*
X39738Y14020D01*
X39760Y14024D01*
X39780Y14029D01*
X39799Y14035D01*
X39816Y14042D01*
X39831Y14050D01*
X39845Y14060D01*
X39857Y14070D01*
X39919Y14007D01*
D02*
G37*
G36*
X55397Y13758D02*
X55378Y13777D01*
X55341Y13808D01*
X55323Y13821D01*
X55305Y13831D01*
X55287Y13840D01*
X55270Y13847D01*
X55254Y13852D01*
X55237Y13855D01*
X55221Y13856D01*
X55221Y13944D01*
X55237Y13945D01*
X55253Y13948D01*
X55270Y13953D01*
X55287Y13960D01*
X55304Y13969D01*
X55321Y13980D01*
X55339Y13993D01*
X55358Y14007D01*
X55376Y14024D01*
X55395Y14043D01*
X55397Y13758D01*
D02*
G37*
G36*
X35161Y20354D02*
X35255Y20298D01*
Y20209D01*
X35302Y20097D01*
X35317Y20081D01*
Y19074D01*
X35271Y18962D01*
Y18841D01*
X35317Y18729D01*
Y14836D01*
X34045Y13564D01*
X32574D01*
X32501Y13678D01*
X32528Y13785D01*
X34057Y15314D01*
X34103Y15426D01*
Y19325D01*
X35138Y20360D01*
X35161Y20354D01*
D02*
G37*
G36*
X55396Y13160D02*
X55377Y13178D01*
X55340Y13210D01*
X55322Y13222D01*
X55304Y13233D01*
X55287Y13242D01*
X55270Y13249D01*
X55253Y13253D01*
X55237Y13256D01*
X55221Y13257D01*
Y13346D01*
X55237Y13347D01*
X55253Y13350D01*
X55270Y13355D01*
X55287Y13362D01*
X55304Y13371D01*
X55322Y13382D01*
X55340Y13394D01*
X55358Y13409D01*
X55377Y13426D01*
X55396Y13444D01*
Y13160D01*
D02*
G37*
G36*
X37260Y13116D02*
X37252Y13017D01*
X37251Y12983D01*
X37251Y12966D01*
X37162Y12864D01*
X37161Y12882D01*
X37158Y12899D01*
X37153Y12913D01*
X37146Y12926D01*
X37137Y12936D01*
X37127Y12945D01*
X37114Y12951D01*
X37100Y12956D01*
X37083Y12959D01*
X37065Y12959D01*
X37263Y13132D01*
X37260Y13116D01*
D02*
G37*
G36*
X53855Y12853D02*
X53836Y12872D01*
X53799Y12903D01*
X53781Y12916D01*
X53764Y12926D01*
X53746Y12935D01*
X53729Y12942D01*
X53713Y12947D01*
X53696Y12950D01*
X53680Y12951D01*
Y13040D01*
X53696Y13041D01*
X53713Y13044D01*
X53729Y13048D01*
X53746Y13055D01*
X53764Y13064D01*
X53781Y13075D01*
X53799Y13088D01*
X53818Y13102D01*
X53836Y13119D01*
X53855Y13137D01*
Y12853D01*
D02*
G37*
G36*
X30094Y12875D02*
X30083Y12863D01*
X30074Y12850D01*
X30066Y12834D01*
X30058Y12817D01*
X30052Y12799D01*
X30047Y12779D01*
X30044Y12757D01*
X30041Y12734D01*
X30040Y12709D01*
X30039Y12682D01*
X29838Y12883D01*
X29865Y12884D01*
X29913Y12888D01*
X29935Y12892D01*
X29955Y12896D01*
X29973Y12902D01*
X29990Y12910D01*
X30005Y12918D01*
X30019Y12927D01*
X30031Y12938D01*
X30094Y12875D01*
D02*
G37*
G36*
X26894D02*
X26883Y12863D01*
X26874Y12850D01*
X26866Y12834D01*
X26858Y12817D01*
X26852Y12799D01*
X26847Y12779D01*
X26844Y12757D01*
X26841Y12734D01*
X26840Y12709D01*
X26839Y12682D01*
X26638Y12883D01*
X26665Y12884D01*
X26713Y12888D01*
X26735Y12892D01*
X26755Y12896D01*
X26773Y12902D01*
X26790Y12910D01*
X26805Y12918D01*
X26819Y12927D01*
X26831Y12938D01*
X26894Y12875D01*
D02*
G37*
G36*
X55397Y12558D02*
X55378Y12577D01*
X55341Y12608D01*
X55323Y12621D01*
X55305Y12631D01*
X55287Y12640D01*
X55270Y12647D01*
X55254Y12652D01*
X55237Y12655D01*
X55221Y12656D01*
X55221Y12744D01*
X55237Y12745D01*
X55253Y12748D01*
X55270Y12753D01*
X55287Y12760D01*
X55304Y12769D01*
X55321Y12780D01*
X55339Y12793D01*
X55358Y12807D01*
X55376Y12824D01*
X55395Y12843D01*
X55397Y12558D01*
D02*
G37*
G36*
X43819Y12707D02*
X43809Y12695D01*
X43799Y12682D01*
X43791Y12667D01*
X43784Y12650D01*
X43778Y12631D01*
X43773Y12611D01*
X43769Y12589D01*
X43767Y12566D01*
X43765Y12541D01*
X43765Y12514D01*
X43564Y12716D01*
X43590Y12716D01*
X43639Y12720D01*
X43660Y12724D01*
X43680Y12729D01*
X43699Y12735D01*
X43716Y12742D01*
X43731Y12750D01*
X43745Y12760D01*
X43757Y12770D01*
X43819Y12707D01*
D02*
G37*
G36*
X39479Y12760D02*
X39492Y12750D01*
X39507Y12742D01*
X39524Y12735D01*
X39543Y12729D01*
X39563Y12724D01*
X39585Y12720D01*
X39608Y12717D01*
X39633Y12716D01*
X39660Y12716D01*
X39458Y12514D01*
X39458Y12541D01*
X39454Y12589D01*
X39450Y12611D01*
X39445Y12631D01*
X39439Y12650D01*
X39432Y12667D01*
X39424Y12682D01*
X39414Y12695D01*
X39404Y12707D01*
X39467Y12770D01*
X39479Y12760D01*
D02*
G37*
G36*
X29240Y12652D02*
X29244Y12603D01*
X29247Y12582D01*
X29252Y12562D01*
X29258Y12543D01*
X29266Y12526D01*
X29274Y12511D01*
X29283Y12497D01*
X29294Y12485D01*
X29231Y12422D01*
X29219Y12433D01*
X29205Y12443D01*
X29190Y12451D01*
X29173Y12458D01*
X29155Y12464D01*
X29135Y12469D01*
X29113Y12473D01*
X29090Y12475D01*
X29065Y12477D01*
X29038Y12477D01*
X29239Y12678D01*
X29240Y12652D01*
D02*
G37*
G36*
X53998Y12192D02*
X53972Y12192D01*
X53923Y12188D01*
X53902Y12184D01*
X53882Y12179D01*
X53863Y12173D01*
X53846Y12166D01*
X53831Y12157D01*
X53817Y12148D01*
X53805Y12137D01*
X53743Y12200D01*
X53753Y12212D01*
X53763Y12226D01*
X53771Y12241D01*
X53778Y12258D01*
X53784Y12276D01*
X53789Y12297D01*
X53793Y12318D01*
X53795Y12342D01*
X53797Y12367D01*
X53797Y12393D01*
X53998Y12192D01*
D02*
G37*
G36*
X55396Y11960D02*
X55377Y11978D01*
X55340Y12009D01*
X55322Y12022D01*
X55304Y12033D01*
X55287Y12042D01*
X55270Y12049D01*
X55253Y12054D01*
X55237Y12056D01*
X55221Y12057D01*
Y12146D01*
X55237Y12147D01*
X55253Y12150D01*
X55270Y12155D01*
X55287Y12162D01*
X55304Y12171D01*
X55322Y12182D01*
X55340Y12194D01*
X55358Y12209D01*
X55377Y12226D01*
X55396Y12244D01*
Y11960D01*
D02*
G37*
G36*
X26453Y12127D02*
X26467Y12118D01*
X26482Y12110D01*
X26499Y12102D01*
X26517Y12096D01*
X26538Y12092D01*
X26559Y12088D01*
X26583Y12085D01*
X26608Y12084D01*
X26634Y12083D01*
X26433Y11882D01*
X26433Y11909D01*
X26429Y11957D01*
X26425Y11979D01*
X26420Y11999D01*
X26414Y12017D01*
X26407Y12034D01*
X26398Y12050D01*
X26389Y12063D01*
X26378Y12075D01*
X26441Y12138D01*
X26453Y12127D01*
D02*
G37*
G36*
X43379Y12110D02*
X43392Y12100D01*
X43408Y12092D01*
X43424Y12085D01*
X43443Y12079D01*
X43463Y12074D01*
X43485Y12070D01*
X43508Y12067D01*
X43533Y12066D01*
X43560Y12066D01*
X43358Y11864D01*
X43358Y11891D01*
X43354Y11939D01*
X43350Y11961D01*
X43345Y11981D01*
X43339Y12000D01*
X43332Y12017D01*
X43324Y12032D01*
X43314Y12045D01*
X43304Y12057D01*
X43367Y12120D01*
X43379Y12110D01*
D02*
G37*
G36*
X36229D02*
X36242Y12100D01*
X36257Y12092D01*
X36274Y12085D01*
X36293Y12079D01*
X36313Y12074D01*
X36335Y12070D01*
X36358Y12067D01*
X36383Y12066D01*
X36410Y12066D01*
X36208Y11864D01*
X36208Y11891D01*
X36204Y11939D01*
X36200Y11961D01*
X36195Y11981D01*
X36189Y12000D01*
X36182Y12017D01*
X36174Y12032D01*
X36164Y12045D01*
X36154Y12057D01*
X36217Y12120D01*
X36229Y12110D01*
D02*
G37*
G36*
X29240Y11852D02*
X29244Y11803D01*
X29247Y11782D01*
X29252Y11762D01*
X29258Y11743D01*
X29266Y11726D01*
X29274Y11711D01*
X29283Y11697D01*
X29294Y11685D01*
X29231Y11622D01*
X29219Y11633D01*
X29205Y11643D01*
X29190Y11651D01*
X29173Y11658D01*
X29155Y11664D01*
X29135Y11669D01*
X29113Y11673D01*
X29090Y11675D01*
X29065Y11677D01*
X29038Y11677D01*
X29239Y11878D01*
X29240Y11852D01*
D02*
G37*
G36*
X43115Y11834D02*
X43119Y11786D01*
X43123Y11764D01*
X43128Y11744D01*
X43134Y11725D01*
X43141Y11708D01*
X43149Y11693D01*
X43159Y11679D01*
X43169Y11667D01*
X43107Y11605D01*
X43095Y11615D01*
X43081Y11625D01*
X43066Y11633D01*
X43049Y11640D01*
X43030Y11646D01*
X43010Y11651D01*
X42989Y11655D01*
X42965Y11657D01*
X42940Y11659D01*
X42914Y11659D01*
X43115Y11860D01*
X43115Y11834D01*
D02*
G37*
G36*
X55396Y11360D02*
X55377Y11378D01*
X55340Y11409D01*
X55322Y11422D01*
X55304Y11433D01*
X55287Y11442D01*
X55270Y11449D01*
X55253Y11453D01*
X55237Y11456D01*
X55221Y11457D01*
Y11546D01*
X55237Y11547D01*
X55253Y11550D01*
X55270Y11555D01*
X55287Y11562D01*
X55304Y11571D01*
X55322Y11582D01*
X55340Y11594D01*
X55358Y11609D01*
X55377Y11626D01*
X55396Y11644D01*
Y11360D01*
D02*
G37*
G36*
X39479Y11460D02*
X39492Y11450D01*
X39507Y11442D01*
X39524Y11435D01*
X39543Y11429D01*
X39563Y11424D01*
X39585Y11420D01*
X39608Y11417D01*
X39633Y11416D01*
X39660Y11416D01*
X39458Y11214D01*
X39458Y11241D01*
X39454Y11289D01*
X39450Y11311D01*
X39445Y11331D01*
X39439Y11350D01*
X39432Y11367D01*
X39424Y11382D01*
X39414Y11395D01*
X39404Y11407D01*
X39467Y11470D01*
X39479Y11460D01*
D02*
G37*
G36*
X54030Y11012D02*
X54002Y11008D01*
X53930Y10990D01*
X53909Y10983D01*
X53891Y10976D01*
X53874Y10968D01*
X53859Y10959D01*
X53846Y10950D01*
X53835Y10940D01*
X53762Y10993D01*
X53773Y11005D01*
X53782Y11019D01*
X53790Y11034D01*
X53797Y11051D01*
X53801Y11069D01*
X53804Y11088D01*
X53806Y11109D01*
X53805Y11131D01*
X53804Y11155D01*
X53800Y11179D01*
X54030Y11012D01*
D02*
G37*
G36*
X30840Y11052D02*
X30844Y11003D01*
X30847Y10982D01*
X30852Y10962D01*
X30858Y10943D01*
X30866Y10926D01*
X30874Y10911D01*
X30883Y10897D01*
X30894Y10885D01*
X30831Y10822D01*
X30819Y10833D01*
X30805Y10843D01*
X30790Y10851D01*
X30773Y10858D01*
X30755Y10864D01*
X30735Y10869D01*
X30713Y10873D01*
X30690Y10875D01*
X30665Y10877D01*
X30638Y10877D01*
X30839Y11078D01*
X30840Y11052D01*
D02*
G37*
G36*
X55539Y10699D02*
X55513Y10698D01*
X55464Y10694D01*
X55443Y10691D01*
X55422Y10686D01*
X55404Y10680D01*
X55387Y10672D01*
X55372Y10664D01*
X55358Y10655D01*
X55346Y10644D01*
X55283Y10707D01*
X55294Y10719D01*
X55303Y10733D01*
X55312Y10748D01*
X55319Y10765D01*
X55325Y10783D01*
X55330Y10803D01*
X55334Y10825D01*
X55336Y10848D01*
X55338Y10873D01*
X55338Y10900D01*
X55539Y10699D01*
D02*
G37*
G36*
X38360Y10359D02*
X38333Y10359D01*
X38285Y10355D01*
X38263Y10351D01*
X38243Y10346D01*
X38224Y10340D01*
X38208Y10333D01*
X38192Y10325D01*
X38179Y10315D01*
X38167Y10305D01*
X38104Y10367D01*
X38114Y10379D01*
X38124Y10393D01*
X38132Y10408D01*
X38139Y10425D01*
X38145Y10444D01*
X38150Y10464D01*
X38154Y10486D01*
X38157Y10509D01*
X38158Y10534D01*
X38158Y10560D01*
X38360Y10359D01*
D02*
G37*
G36*
X55539Y10099D02*
X55513Y10098D01*
X55464Y10094D01*
X55443Y10091D01*
X55422Y10086D01*
X55404Y10080D01*
X55387Y10072D01*
X55372Y10064D01*
X55358Y10055D01*
X55346Y10044D01*
X55283Y10107D01*
X55294Y10119D01*
X55303Y10133D01*
X55312Y10148D01*
X55319Y10165D01*
X55325Y10183D01*
X55330Y10203D01*
X55334Y10225D01*
X55336Y10248D01*
X55338Y10273D01*
X55338Y10300D01*
X55539Y10099D01*
D02*
G37*
G36*
X32440Y10252D02*
X32444Y10203D01*
X32447Y10182D01*
X32452Y10162D01*
X32458Y10143D01*
X32466Y10126D01*
X32474Y10111D01*
X32483Y10097D01*
X32494Y10085D01*
X32431Y10022D01*
X32419Y10033D01*
X32405Y10043D01*
X32390Y10051D01*
X32373Y10058D01*
X32355Y10064D01*
X32335Y10069D01*
X32313Y10073D01*
X32290Y10075D01*
X32265Y10077D01*
X32238Y10077D01*
X32439Y10278D01*
X32440Y10252D01*
D02*
G37*
G36*
X53195Y10146D02*
X53152Y10055D01*
X53146Y10036D01*
X53136Y10002D01*
X53134Y9987D01*
X53133Y9974D01*
X53044Y9948D01*
X53043Y9965D01*
X53040Y9981D01*
X53035Y9997D01*
X53027Y10013D01*
X53017Y10028D01*
X53005Y10042D01*
X52991Y10056D01*
X52975Y10069D01*
X52957Y10082D01*
X52936Y10094D01*
X53210Y10172D01*
X53195Y10146D01*
D02*
G37*
G36*
X52515Y9799D02*
X52488Y9798D01*
X52440Y9794D01*
X52418Y9791D01*
X52398Y9786D01*
X52379Y9780D01*
X52363Y9772D01*
X52347Y9764D01*
X52334Y9755D01*
X52322Y9744D01*
X52259Y9807D01*
X52269Y9819D01*
X52279Y9833D01*
X52287Y9848D01*
X52294Y9865D01*
X52300Y9883D01*
X52305Y9903D01*
X52309Y9925D01*
X52312Y9948D01*
X52313Y9973D01*
X52313Y10000D01*
X52515Y9799D01*
D02*
G37*
G36*
X55539Y9499D02*
X55513Y9498D01*
X55464Y9494D01*
X55443Y9491D01*
X55422Y9486D01*
X55404Y9480D01*
X55387Y9472D01*
X55372Y9464D01*
X55358Y9455D01*
X55346Y9444D01*
X55283Y9507D01*
X55294Y9519D01*
X55303Y9533D01*
X55312Y9548D01*
X55319Y9565D01*
X55325Y9583D01*
X55330Y9603D01*
X55334Y9625D01*
X55336Y9648D01*
X55338Y9673D01*
X55338Y9700D01*
X55539Y9499D01*
D02*
G37*
G36*
X48157Y9567D02*
X48160Y9550D01*
X48165Y9534D01*
X48172Y9517D01*
X48181Y9499D01*
X48191Y9482D01*
X48204Y9464D01*
X48219Y9445D01*
X48235Y9427D01*
X48254Y9408D01*
X47969D01*
X47988Y9427D01*
X48019Y9464D01*
X48032Y9482D01*
X48043Y9499D01*
X48052Y9517D01*
X48058Y9534D01*
X48063Y9550D01*
X48066Y9567D01*
X48067Y9583D01*
X48156D01*
X48157Y9567D01*
D02*
G37*
G36*
X52640Y9238D02*
X52609Y9201D01*
X52596Y9183D01*
X52585Y9165D01*
X52577Y9148D01*
X52570Y9131D01*
X52565Y9114D01*
X52562Y9098D01*
X52561Y9082D01*
X52472D01*
X52471Y9098D01*
X52468Y9114D01*
X52463Y9131D01*
X52457Y9148D01*
X52448Y9165D01*
X52437Y9183D01*
X52424Y9201D01*
X52410Y9219D01*
X52393Y9238D01*
X52374Y9257D01*
X52659D01*
X52640Y9238D01*
D02*
G37*
G36*
X30094Y8875D02*
X30083Y8863D01*
X30074Y8850D01*
X30066Y8834D01*
X30058Y8817D01*
X30052Y8799D01*
X30047Y8779D01*
X30044Y8757D01*
X30041Y8734D01*
X30040Y8709D01*
X30039Y8682D01*
X29838Y8883D01*
X29865Y8884D01*
X29913Y8888D01*
X29935Y8892D01*
X29955Y8896D01*
X29973Y8902D01*
X29990Y8910D01*
X30005Y8918D01*
X30019Y8927D01*
X30031Y8938D01*
X30094Y8875D01*
D02*
G37*
G36*
X32440Y8652D02*
X32444Y8603D01*
X32447Y8582D01*
X32452Y8562D01*
X32458Y8543D01*
X32466Y8526D01*
X32474Y8511D01*
X32483Y8497D01*
X32494Y8485D01*
X32431Y8422D01*
X32419Y8433D01*
X32405Y8443D01*
X32390Y8451D01*
X32373Y8458D01*
X32355Y8464D01*
X32335Y8469D01*
X32313Y8473D01*
X32290Y8475D01*
X32265Y8477D01*
X32238Y8477D01*
X32439Y8678D01*
X32440Y8652D01*
D02*
G37*
G36*
X56650Y9168D02*
X56708Y9144D01*
X56830D01*
X56900Y9173D01*
X57027Y9110D01*
Y5500D01*
X57021D01*
X57063Y5179D01*
X57187Y4880D01*
X57384Y4624D01*
X57640Y4427D01*
X57939Y4303D01*
X58260Y4261D01*
Y4261D01*
X58264Y4265D01*
X58458Y4239D01*
X58643Y4163D01*
X58801Y4041D01*
X58923Y3883D01*
X58999Y3698D01*
X59025Y3500D01*
X59027D01*
Y1000D01*
X59025D01*
X58999Y802D01*
X58923Y617D01*
X58801Y459D01*
X58643Y337D01*
X58458Y261D01*
X58260Y235D01*
Y233D01*
X55101D01*
X55072Y267D01*
X55031Y360D01*
X55065Y442D01*
Y564D01*
X55019Y676D01*
X54933Y762D01*
X54876Y785D01*
X54838Y921D01*
X54839Y928D01*
X54870Y958D01*
X54916Y1070D01*
Y1191D01*
X54870Y1303D01*
X54784Y1389D01*
X54777Y1452D01*
X54780Y1528D01*
X54856Y1604D01*
X54903Y1716D01*
Y1837D01*
X54856Y1949D01*
X54891Y2094D01*
X54910Y2102D01*
X54996Y2188D01*
X55042Y2300D01*
Y2421D01*
X54996Y2533D01*
X54910Y2619D01*
X54798Y2665D01*
X54677D01*
X54565Y2619D01*
X54479Y2533D01*
X54432Y2421D01*
Y2300D01*
X54479Y2188D01*
X54444Y2043D01*
X54425Y2035D01*
X54340Y1949D01*
X54293Y1837D01*
Y1716D01*
X54340Y1604D01*
X54425Y1518D01*
X54432Y1455D01*
X54429Y1379D01*
X54353Y1303D01*
X54306Y1191D01*
Y1070D01*
X54353Y958D01*
X54438Y872D01*
X54495Y849D01*
X54534Y713D01*
X54533Y706D01*
X54502Y676D01*
X54456Y564D01*
Y442D01*
X54490Y360D01*
X54449Y267D01*
X54420Y233D01*
X53314D01*
X53286Y267D01*
X53244Y360D01*
X53278Y442D01*
Y564D01*
X53232Y676D01*
X53146Y762D01*
X53034Y808D01*
X52913D01*
X52801Y762D01*
X52715Y676D01*
X52669Y564D01*
Y442D01*
X52703Y360D01*
X52662Y267D01*
X52633Y233D01*
X50347D01*
X50310Y296D01*
X50286Y360D01*
X50327Y458D01*
Y579D01*
X50280Y691D01*
X50194Y777D01*
X50082Y824D01*
X49961D01*
X49849Y777D01*
X49763Y691D01*
X49717Y579D01*
Y458D01*
X49758Y360D01*
X49734Y296D01*
X49697Y233D01*
X48970D01*
X48941Y267D01*
X48900Y360D01*
X48934Y442D01*
Y564D01*
X48887Y676D01*
X48802Y762D01*
X48690Y808D01*
X48568D01*
X48456Y762D01*
X48371Y676D01*
X48324Y564D01*
Y442D01*
X48358Y360D01*
X48317Y267D01*
X48288Y233D01*
X46924D01*
X46841Y360D01*
X46856Y397D01*
Y518D01*
X46810Y630D01*
X46724Y716D01*
X46612Y762D01*
X46491D01*
X46379Y716D01*
X46293Y630D01*
X46247Y518D01*
Y397D01*
X46262Y360D01*
X46179Y233D01*
X45798D01*
X45715Y360D01*
X45730Y397D01*
Y518D01*
X45684Y630D01*
X45598Y716D01*
X45486Y762D01*
X45365D01*
X45253Y716D01*
X45167Y630D01*
X45034D01*
X44948Y716D01*
X44836Y762D01*
X44714D01*
X44602Y716D01*
X44517Y630D01*
X44470Y518D01*
Y397D01*
X44485Y360D01*
X44402Y233D01*
X43611D01*
X43527Y360D01*
X43543Y397D01*
Y518D01*
X43496Y630D01*
X43410Y716D01*
X43298Y762D01*
X43177D01*
X43065Y716D01*
X42979Y630D01*
X42933Y518D01*
Y397D01*
X42948Y360D01*
X42865Y233D01*
X42038D01*
X41955Y360D01*
X41970Y397D01*
Y518D01*
X41924Y630D01*
X41838Y716D01*
X41726Y762D01*
X41605D01*
X41493Y716D01*
X41407Y630D01*
X41360Y518D01*
Y397D01*
X41376Y360D01*
X41292Y233D01*
X38659D01*
X38606Y360D01*
X38620Y374D01*
X38666Y486D01*
Y607D01*
X38620Y719D01*
X38534Y805D01*
X38471Y831D01*
X38497Y958D01*
X39762D01*
X39873Y1005D01*
X40397Y1528D01*
X40443Y1639D01*
Y2083D01*
X40549Y2159D01*
X40682D01*
X40683Y2157D01*
Y2046D01*
X40726Y1944D01*
X40804Y1865D01*
X40907Y1822D01*
X41018D01*
X41121Y1865D01*
X41200Y1944D01*
X41242Y2046D01*
Y2157D01*
X41243Y2159D01*
X42696D01*
X42753Y2102D01*
X42774Y2108D01*
X44805D01*
Y2046D01*
X44848Y1944D01*
X44927Y1865D01*
X45029Y1822D01*
X45140D01*
X45243Y1865D01*
X45272Y1893D01*
X45354Y1929D01*
X45437Y1893D01*
X45466Y1865D01*
X45569Y1822D01*
X45680D01*
X45782Y1865D01*
X45861Y1944D01*
X45904Y2046D01*
Y2108D01*
X49698D01*
X49717Y2079D01*
Y1958D01*
X49763Y1846D01*
X49849Y1760D01*
X49961Y1714D01*
X50082D01*
X50194Y1760D01*
X50280Y1846D01*
X50327Y1958D01*
Y2079D01*
X50346Y2108D01*
X53700D01*
X55818Y4226D01*
X55925Y4205D01*
X55954Y4175D01*
X55975Y4019D01*
X55968Y3999D01*
X55929Y3905D01*
Y3784D01*
X55975Y3672D01*
X56061Y3586D01*
X56173Y3540D01*
X56294D01*
X56406Y3586D01*
X56492Y3672D01*
X56539Y3784D01*
Y3905D01*
X56492Y4017D01*
X56462Y4047D01*
X56442Y4203D01*
X56449Y4223D01*
X56488Y4317D01*
Y4438D01*
X56441Y4550D01*
X56356Y4636D01*
X56244Y4683D01*
X56122D01*
X56098Y4699D01*
Y6634D01*
X56147Y6668D01*
X56225Y6698D01*
X56317Y6660D01*
X56438D01*
X56550Y6706D01*
X56636Y6792D01*
X56683Y6904D01*
Y7025D01*
X56636Y7137D01*
X56550Y7223D01*
X56506Y7241D01*
Y7379D01*
X56550Y7397D01*
X56636Y7483D01*
X56683Y7595D01*
Y7716D01*
X56636Y7828D01*
X56550Y7914D01*
X56438Y7960D01*
X56317D01*
X56225Y7922D01*
X56147Y7953D01*
X56098Y7986D01*
Y8324D01*
X56144Y8366D01*
X56287Y8335D01*
X56297Y8311D01*
X56383Y8225D01*
X56495Y8179D01*
X56616D01*
X56728Y8225D01*
X56814Y8311D01*
X56860Y8423D01*
Y8544D01*
X56814Y8656D01*
X56728Y8742D01*
X56616Y8788D01*
X56495D01*
X56383Y8742D01*
X56297Y8656D01*
X56266Y8581D01*
X56223Y8577D01*
X56134Y8594D01*
X56098Y8682D01*
Y8933D01*
X56185Y8992D01*
X56306D01*
X56418Y9038D01*
X56504Y9124D01*
X56596Y9190D01*
X56650Y9168D01*
D02*
G37*
G36*
X30682Y8184D02*
X30685Y8168D01*
X30689Y8151D01*
X30696Y8134D01*
X30705Y8117D01*
X30716Y8099D01*
X30729Y8081D01*
X30743Y8063D01*
X30760Y8044D01*
X30778Y8025D01*
X30494D01*
X30513Y8044D01*
X30544Y8081D01*
X30556Y8099D01*
X30567Y8117D01*
X30576Y8134D01*
X30583Y8151D01*
X30588Y8168D01*
X30591Y8184D01*
X30592Y8200D01*
X30681D01*
X30682Y8184D01*
D02*
G37*
G36*
X48369Y8157D02*
X48359Y8145D01*
X48349Y8132D01*
X48341Y8116D01*
X48334Y8100D01*
X48328Y8081D01*
X48323Y8061D01*
X48319Y8039D01*
X48317Y8016D01*
X48315Y7991D01*
X48315Y7964D01*
X48114Y8166D01*
X48140Y8166D01*
X48189Y8170D01*
X48210Y8174D01*
X48230Y8179D01*
X48249Y8185D01*
X48266Y8192D01*
X48281Y8200D01*
X48295Y8210D01*
X48307Y8220D01*
X48369Y8157D01*
D02*
G37*
G36*
X47719D02*
X47709Y8145D01*
X47699Y8132D01*
X47691Y8116D01*
X47684Y8100D01*
X47678Y8081D01*
X47673Y8061D01*
X47669Y8039D01*
X47667Y8016D01*
X47665Y7991D01*
X47665Y7964D01*
X47464Y8166D01*
X47490Y8166D01*
X47539Y8170D01*
X47560Y8174D01*
X47580Y8179D01*
X47599Y8185D01*
X47616Y8192D01*
X47631Y8200D01*
X47645Y8210D01*
X47657Y8220D01*
X47719Y8157D01*
D02*
G37*
G36*
X31600Y8004D02*
X31637Y7973D01*
X31655Y7960D01*
X31673Y7949D01*
X31690Y7940D01*
X31707Y7933D01*
X31724Y7929D01*
X31740Y7926D01*
X31756Y7925D01*
Y7836D01*
X31740Y7835D01*
X31724Y7832D01*
X31707Y7827D01*
X31690Y7820D01*
X31673Y7811D01*
X31655Y7801D01*
X31637Y7788D01*
X31619Y7773D01*
X31600Y7757D01*
X31581Y7738D01*
Y8022D01*
X31600Y8004D01*
D02*
G37*
G36*
X48374Y7500D02*
X48363Y7488D01*
X48354Y7475D01*
X48345Y7460D01*
X48338Y7443D01*
X48332Y7424D01*
X48326Y7404D01*
X48322Y7382D01*
X48318Y7359D01*
X48315Y7306D01*
X48122Y7515D01*
X48148Y7515D01*
X48196Y7517D01*
X48217Y7520D01*
X48237Y7525D01*
X48255Y7530D01*
X48272Y7537D01*
X48288Y7545D01*
X48301Y7555D01*
X48313Y7566D01*
X48374Y7500D01*
D02*
G37*
G36*
X39479Y7560D02*
X39492Y7550D01*
X39507Y7542D01*
X39524Y7535D01*
X39543Y7529D01*
X39563Y7524D01*
X39585Y7520D01*
X39608Y7517D01*
X39633Y7516D01*
X39660Y7516D01*
X39458Y7314D01*
X39458Y7341D01*
X39454Y7389D01*
X39450Y7411D01*
X39445Y7431D01*
X39439Y7450D01*
X39432Y7466D01*
X39424Y7482D01*
X39414Y7495D01*
X39404Y7507D01*
X39467Y7570D01*
X39479Y7560D01*
D02*
G37*
G36*
X47665Y7284D02*
X47669Y7235D01*
X47673Y7214D01*
X47678Y7194D01*
X47684Y7175D01*
X47691Y7158D01*
X47699Y7143D01*
X47709Y7129D01*
X47719Y7117D01*
X47657Y7055D01*
X47645Y7065D01*
X47631Y7075D01*
X47616Y7083D01*
X47599Y7090D01*
X47580Y7096D01*
X47560Y7101D01*
X47539Y7105D01*
X47515Y7107D01*
X47490Y7109D01*
X47464Y7109D01*
X47665Y7310D01*
X47665Y7284D01*
D02*
G37*
G36*
X39479Y6910D02*
X39492Y6900D01*
X39507Y6892D01*
X39524Y6885D01*
X39543Y6879D01*
X39563Y6874D01*
X39585Y6870D01*
X39608Y6867D01*
X39633Y6866D01*
X39660Y6866D01*
X39458Y6664D01*
X39458Y6691D01*
X39454Y6739D01*
X39450Y6761D01*
X39445Y6781D01*
X39439Y6800D01*
X39432Y6816D01*
X39424Y6832D01*
X39414Y6845D01*
X39404Y6857D01*
X39467Y6920D01*
X39479Y6910D01*
D02*
G37*
G36*
X38179D02*
X38192Y6900D01*
X38208Y6892D01*
X38224Y6885D01*
X38243Y6879D01*
X38263Y6874D01*
X38285Y6870D01*
X38308Y6867D01*
X38333Y6866D01*
X38360Y6866D01*
X38158Y6664D01*
X38158Y6691D01*
X38154Y6739D01*
X38150Y6761D01*
X38145Y6781D01*
X38139Y6800D01*
X38132Y6816D01*
X38124Y6832D01*
X38114Y6845D01*
X38104Y6857D01*
X38167Y6920D01*
X38179Y6910D01*
D02*
G37*
G36*
X48276Y6786D02*
X48313Y6755D01*
X48331Y6742D01*
X48348Y6731D01*
X48366Y6722D01*
X48383Y6716D01*
X48399Y6711D01*
X48416Y6708D01*
X48432Y6707D01*
Y6618D01*
X48416Y6617D01*
X48399Y6614D01*
X48383Y6609D01*
X48366Y6602D01*
X48348Y6593D01*
X48331Y6583D01*
X48313Y6570D01*
X48294Y6555D01*
X48276Y6539D01*
X48257Y6520D01*
Y6805D01*
X48276Y6786D01*
D02*
G37*
G36*
X47665Y6634D02*
X47669Y6585D01*
X47673Y6564D01*
X47678Y6544D01*
X47684Y6525D01*
X47691Y6508D01*
X47699Y6493D01*
X47709Y6479D01*
X47719Y6467D01*
X47657Y6405D01*
X47645Y6415D01*
X47631Y6425D01*
X47616Y6433D01*
X47599Y6440D01*
X47580Y6446D01*
X47560Y6451D01*
X47539Y6455D01*
X47515Y6457D01*
X47490Y6459D01*
X47464Y6459D01*
X47665Y6660D01*
X47665Y6634D01*
D02*
G37*
G36*
X46160Y6459D02*
X46133Y6459D01*
X46085Y6455D01*
X46063Y6451D01*
X46043Y6446D01*
X46024Y6440D01*
X46008Y6433D01*
X45992Y6425D01*
X45979Y6415D01*
X45967Y6405D01*
X45904Y6467D01*
X45914Y6479D01*
X45924Y6493D01*
X45932Y6508D01*
X45939Y6525D01*
X45945Y6544D01*
X45950Y6564D01*
X45954Y6585D01*
X45957Y6609D01*
X45958Y6634D01*
X45958Y6660D01*
X46160Y6459D01*
D02*
G37*
G36*
X45510D02*
X45483Y6459D01*
X45435Y6455D01*
X45413Y6451D01*
X45393Y6446D01*
X45374Y6440D01*
X45358Y6433D01*
X45342Y6425D01*
X45329Y6415D01*
X45317Y6405D01*
X45254Y6467D01*
X45264Y6479D01*
X45274Y6493D01*
X45282Y6508D01*
X45289Y6525D01*
X45295Y6544D01*
X45300Y6564D01*
X45304Y6585D01*
X45307Y6609D01*
X45308Y6634D01*
X45308Y6660D01*
X45510Y6459D01*
D02*
G37*
G36*
X39010D02*
X38983Y6459D01*
X38935Y6455D01*
X38913Y6451D01*
X38893Y6446D01*
X38874Y6440D01*
X38857Y6433D01*
X38842Y6425D01*
X38829Y6415D01*
X38817Y6405D01*
X38754Y6467D01*
X38764Y6479D01*
X38774Y6493D01*
X38782Y6508D01*
X38789Y6525D01*
X38795Y6544D01*
X38800Y6564D01*
X38804Y6585D01*
X38807Y6609D01*
X38808Y6634D01*
X38808Y6660D01*
X39010Y6459D01*
D02*
G37*
G36*
X48276Y6136D02*
X48313Y6105D01*
X48331Y6092D01*
X48348Y6081D01*
X48366Y6072D01*
X48383Y6066D01*
X48399Y6061D01*
X48416Y6058D01*
X48432Y6057D01*
Y5968D01*
X48416Y5967D01*
X48399Y5964D01*
X48383Y5959D01*
X48366Y5952D01*
X48348Y5943D01*
X48331Y5933D01*
X48313Y5920D01*
X48294Y5905D01*
X48276Y5889D01*
X48257Y5870D01*
Y6155D01*
X48276Y6136D01*
D02*
G37*
G36*
X38360Y5809D02*
X38333Y5809D01*
X38285Y5805D01*
X38263Y5801D01*
X38243Y5796D01*
X38224Y5790D01*
X38208Y5783D01*
X38192Y5775D01*
X38179Y5765D01*
X38167Y5755D01*
X38104Y5817D01*
X38114Y5829D01*
X38124Y5843D01*
X38132Y5858D01*
X38139Y5875D01*
X38145Y5894D01*
X38150Y5914D01*
X38154Y5935D01*
X38157Y5959D01*
X38158Y5984D01*
X38158Y6010D01*
X38360Y5809D01*
D02*
G37*
G36*
X47665Y5984D02*
X47669Y5935D01*
X47673Y5914D01*
X47678Y5894D01*
X47684Y5875D01*
X47691Y5858D01*
X47699Y5843D01*
X47709Y5829D01*
X47719Y5817D01*
X47657Y5755D01*
X47645Y5765D01*
X47631Y5775D01*
X47616Y5783D01*
X47599Y5790D01*
X47580Y5796D01*
X47560Y5801D01*
X47539Y5805D01*
X47515Y5807D01*
X47490Y5809D01*
X47464Y5809D01*
X47665Y6010D01*
X47665Y5984D01*
D02*
G37*
G36*
X28282Y5784D02*
X28285Y5768D01*
X28289Y5751D01*
X28296Y5734D01*
X28305Y5717D01*
X28316Y5699D01*
X28329Y5681D01*
X28343Y5663D01*
X28360Y5644D01*
X28378Y5625D01*
X28094D01*
X28112Y5644D01*
X28144Y5681D01*
X28156Y5699D01*
X28167Y5717D01*
X28176Y5734D01*
X28183Y5751D01*
X28188Y5768D01*
X28191Y5784D01*
X28192Y5800D01*
X28281D01*
X28282Y5784D01*
D02*
G37*
G36*
X30094Y5675D02*
X30083Y5663D01*
X30074Y5650D01*
X30066Y5634D01*
X30058Y5617D01*
X30052Y5599D01*
X30047Y5579D01*
X30044Y5557D01*
X30041Y5534D01*
X30040Y5509D01*
X30039Y5482D01*
X29838Y5683D01*
X29865Y5684D01*
X29913Y5688D01*
X29935Y5692D01*
X29955Y5696D01*
X29973Y5702D01*
X29990Y5710D01*
X30005Y5718D01*
X30019Y5727D01*
X30031Y5738D01*
X30094Y5675D01*
D02*
G37*
G36*
X30894D02*
X30883Y5663D01*
X30874Y5650D01*
X30866Y5634D01*
X30858Y5617D01*
X30852Y5599D01*
X30847Y5579D01*
X30844Y5557D01*
X30841Y5534D01*
X30840Y5509D01*
X30839Y5482D01*
X30638Y5683D01*
X30665Y5684D01*
X30713Y5688D01*
X30735Y5692D01*
X30755Y5696D01*
X30773Y5702D01*
X30790Y5710D01*
X30806Y5718D01*
X30819Y5727D01*
X30831Y5738D01*
X30894Y5675D01*
D02*
G37*
G36*
X48276Y5486D02*
X48313Y5455D01*
X48331Y5442D01*
X48348Y5431D01*
X48366Y5422D01*
X48383Y5416D01*
X48399Y5411D01*
X48416Y5408D01*
X48432Y5407D01*
Y5318D01*
X48416Y5317D01*
X48399Y5314D01*
X48383Y5309D01*
X48366Y5302D01*
X48348Y5293D01*
X48331Y5283D01*
X48313Y5270D01*
X48294Y5255D01*
X48276Y5239D01*
X48257Y5220D01*
Y5505D01*
X48276Y5486D01*
D02*
G37*
G36*
X47665Y5334D02*
X47669Y5285D01*
X47673Y5264D01*
X47678Y5244D01*
X47684Y5225D01*
X47691Y5208D01*
X47699Y5193D01*
X47709Y5179D01*
X47719Y5167D01*
X47657Y5105D01*
X47645Y5115D01*
X47631Y5125D01*
X47616Y5133D01*
X47599Y5140D01*
X47580Y5146D01*
X47560Y5151D01*
X47539Y5155D01*
X47515Y5157D01*
X47490Y5159D01*
X47464Y5159D01*
X47665Y5360D01*
X47665Y5334D01*
D02*
G37*
G36*
X42910Y5159D02*
X42883Y5159D01*
X42835Y5155D01*
X42813Y5151D01*
X42793Y5146D01*
X42774Y5140D01*
X42758Y5133D01*
X42742Y5125D01*
X42729Y5115D01*
X42717Y5105D01*
X42654Y5167D01*
X42664Y5179D01*
X42674Y5193D01*
X42682Y5208D01*
X42689Y5225D01*
X42695Y5244D01*
X42700Y5264D01*
X42704Y5285D01*
X42707Y5309D01*
X42708Y5334D01*
X42708Y5360D01*
X42910Y5159D01*
D02*
G37*
G36*
X37060D02*
X37033Y5159D01*
X36985Y5155D01*
X36963Y5151D01*
X36943Y5146D01*
X36924Y5140D01*
X36908Y5133D01*
X36892Y5125D01*
X36879Y5115D01*
X36867Y5105D01*
X36804Y5167D01*
X36814Y5179D01*
X36824Y5193D01*
X36832Y5208D01*
X36839Y5225D01*
X36845Y5244D01*
X36850Y5264D01*
X36854Y5285D01*
X36857Y5309D01*
X36858Y5334D01*
X36858Y5360D01*
X37060Y5159D01*
D02*
G37*
G36*
X31694Y4875D02*
X31683Y4863D01*
X31674Y4850D01*
X31666Y4834D01*
X31658Y4817D01*
X31652Y4799D01*
X31647Y4779D01*
X31644Y4757D01*
X31641Y4734D01*
X31640Y4709D01*
X31639Y4682D01*
X31438Y4883D01*
X31465Y4884D01*
X31513Y4888D01*
X31535Y4892D01*
X31555Y4896D01*
X31573Y4902D01*
X31590Y4910D01*
X31605Y4918D01*
X31619Y4927D01*
X31631Y4938D01*
X31694Y4875D01*
D02*
G37*
G36*
X48292Y4810D02*
X48308Y4792D01*
X48323Y4776D01*
X48339Y4763D01*
X48354Y4751D01*
X48370Y4742D01*
X48387Y4734D01*
X48403Y4729D01*
X48420Y4726D01*
X48436Y4725D01*
X48422Y4636D01*
X48407Y4635D01*
X48391Y4632D01*
X48375Y4628D01*
X48357Y4622D01*
X48338Y4614D01*
X48319Y4605D01*
X48278Y4580D01*
X48255Y4565D01*
X48232Y4549D01*
X48277Y4830D01*
X48292Y4810D01*
D02*
G37*
G36*
X47665Y4684D02*
X47669Y4635D01*
X47673Y4614D01*
X47678Y4594D01*
X47684Y4575D01*
X47691Y4558D01*
X47699Y4543D01*
X47709Y4529D01*
X47719Y4517D01*
X47657Y4455D01*
X47645Y4465D01*
X47631Y4475D01*
X47616Y4483D01*
X47599Y4490D01*
X47580Y4496D01*
X47560Y4501D01*
X47539Y4505D01*
X47515Y4507D01*
X47490Y4509D01*
X47464Y4509D01*
X47665Y4710D01*
X47665Y4684D01*
D02*
G37*
G36*
X37060Y4509D02*
X37033Y4509D01*
X36985Y4505D01*
X36963Y4501D01*
X36943Y4496D01*
X36924Y4490D01*
X36908Y4483D01*
X36892Y4475D01*
X36879Y4465D01*
X36867Y4455D01*
X36804Y4517D01*
X36814Y4529D01*
X36824Y4543D01*
X36832Y4558D01*
X36839Y4575D01*
X36845Y4594D01*
X36850Y4614D01*
X36854Y4635D01*
X36857Y4659D01*
X36858Y4684D01*
X36858Y4710D01*
X37060Y4509D01*
D02*
G37*
G36*
X32440Y4652D02*
X32444Y4603D01*
X32447Y4582D01*
X32452Y4562D01*
X32458Y4543D01*
X32466Y4526D01*
X32474Y4511D01*
X32483Y4497D01*
X32494Y4485D01*
X32431Y4422D01*
X32419Y4433D01*
X32405Y4443D01*
X32390Y4451D01*
X32373Y4458D01*
X32355Y4464D01*
X32335Y4469D01*
X32313Y4473D01*
X32290Y4475D01*
X32265Y4477D01*
X32238Y4477D01*
X32439Y4678D01*
X32440Y4652D01*
D02*
G37*
G36*
X39207Y4320D02*
X39195Y4307D01*
X39185Y4293D01*
X39178Y4278D01*
X39174Y4263D01*
X39171Y4246D01*
X39171Y4229D01*
X39173Y4211D01*
X39178Y4193D01*
X39184Y4173D01*
X39193Y4153D01*
X38928Y4248D01*
X38956Y4261D01*
X39052Y4312D01*
X39072Y4324D01*
X39106Y4348D01*
X39120Y4360D01*
X39133Y4372D01*
X39207Y4320D01*
D02*
G37*
G36*
X38619Y4257D02*
X38609Y4245D01*
X38599Y4232D01*
X38591Y4216D01*
X38584Y4200D01*
X38578Y4181D01*
X38573Y4161D01*
X38569Y4139D01*
X38567Y4116D01*
X38565Y4091D01*
X38565Y4064D01*
X38364Y4266D01*
X38390Y4266D01*
X38438Y4270D01*
X38460Y4274D01*
X38480Y4279D01*
X38499Y4285D01*
X38516Y4292D01*
X38531Y4300D01*
X38545Y4310D01*
X38557Y4320D01*
X38619Y4257D01*
D02*
G37*
G36*
X37969D02*
X37959Y4245D01*
X37949Y4232D01*
X37941Y4216D01*
X37934Y4200D01*
X37928Y4181D01*
X37923Y4161D01*
X37919Y4139D01*
X37917Y4116D01*
X37915Y4091D01*
X37915Y4064D01*
X37714Y4266D01*
X37740Y4266D01*
X37788Y4270D01*
X37810Y4274D01*
X37830Y4279D01*
X37849Y4285D01*
X37866Y4292D01*
X37881Y4300D01*
X37895Y4310D01*
X37907Y4320D01*
X37969Y4257D01*
D02*
G37*
G36*
X36236Y3960D02*
X36229Y3971D01*
X36221Y3981D01*
X36211Y3989D01*
X36201Y3997D01*
X36190Y4003D01*
X36178Y4009D01*
X36165Y4013D01*
X36151Y4016D01*
X36136Y4017D01*
X36120Y4018D01*
Y4107D01*
X36136Y4107D01*
X36151Y4109D01*
X36165Y4112D01*
X36178Y4116D01*
X36190Y4121D01*
X36201Y4128D01*
X36211Y4135D01*
X36221Y4144D01*
X36229Y4154D01*
X36236Y4165D01*
Y3960D01*
D02*
G37*
G36*
X48315Y4034D02*
X48319Y3985D01*
X48323Y3964D01*
X48328Y3944D01*
X48334Y3925D01*
X48341Y3908D01*
X48349Y3893D01*
X48359Y3879D01*
X48369Y3867D01*
X48307Y3805D01*
X48295Y3815D01*
X48281Y3825D01*
X48266Y3833D01*
X48249Y3840D01*
X48230Y3846D01*
X48210Y3851D01*
X48189Y3855D01*
X48165Y3857D01*
X48140Y3859D01*
X48114Y3859D01*
X48315Y4060D01*
X48315Y4034D01*
D02*
G37*
G36*
X47665D02*
X47669Y3985D01*
X47673Y3964D01*
X47678Y3944D01*
X47684Y3925D01*
X47691Y3908D01*
X47699Y3893D01*
X47709Y3879D01*
X47719Y3867D01*
X47657Y3805D01*
X47645Y3815D01*
X47631Y3825D01*
X47616Y3833D01*
X47599Y3840D01*
X47580Y3846D01*
X47560Y3851D01*
X47539Y3855D01*
X47515Y3857D01*
X47490Y3859D01*
X47464Y3859D01*
X47665Y4060D01*
X47665Y4034D01*
D02*
G37*
G36*
X39919Y3607D02*
X39909Y3595D01*
X39899Y3582D01*
X39891Y3566D01*
X39884Y3550D01*
X39878Y3531D01*
X39873Y3511D01*
X39869Y3489D01*
X39867Y3466D01*
X39865Y3441D01*
X39865Y3414D01*
X39664Y3616D01*
X39690Y3616D01*
X39738Y3620D01*
X39760Y3624D01*
X39780Y3629D01*
X39799Y3635D01*
X39816Y3642D01*
X39831Y3650D01*
X39845Y3660D01*
X39857Y3670D01*
X39919Y3607D01*
D02*
G37*
G36*
X39269D02*
X39259Y3595D01*
X39249Y3582D01*
X39241Y3566D01*
X39234Y3550D01*
X39228Y3531D01*
X39223Y3511D01*
X39219Y3489D01*
X39217Y3466D01*
X39215Y3441D01*
X39215Y3414D01*
X39014Y3616D01*
X39040Y3616D01*
X39088Y3620D01*
X39110Y3624D01*
X39130Y3629D01*
X39149Y3635D01*
X39166Y3642D01*
X39181Y3650D01*
X39195Y3660D01*
X39207Y3670D01*
X39269Y3607D01*
D02*
G37*
G36*
X37529Y3660D02*
X37542Y3650D01*
X37557Y3642D01*
X37574Y3635D01*
X37593Y3629D01*
X37613Y3624D01*
X37635Y3620D01*
X37658Y3617D01*
X37683Y3616D01*
X37710Y3616D01*
X37508Y3414D01*
X37508Y3441D01*
X37504Y3489D01*
X37500Y3511D01*
X37495Y3531D01*
X37489Y3550D01*
X37482Y3566D01*
X37474Y3582D01*
X37464Y3595D01*
X37454Y3607D01*
X37517Y3670D01*
X37529Y3660D01*
D02*
G37*
G36*
X38565Y3384D02*
X38569Y3335D01*
X38573Y3314D01*
X38578Y3294D01*
X38584Y3275D01*
X38591Y3258D01*
X38599Y3243D01*
X38609Y3229D01*
X38619Y3217D01*
X38557Y3155D01*
X38545Y3165D01*
X38531Y3175D01*
X38516Y3183D01*
X38499Y3190D01*
X38480Y3196D01*
X38460Y3201D01*
X38438Y3205D01*
X38415Y3207D01*
X38390Y3209D01*
X38364Y3209D01*
X38565Y3410D01*
X38565Y3384D01*
D02*
G37*
G36*
X37529Y3010D02*
X37542Y3000D01*
X37557Y2992D01*
X37574Y2985D01*
X37593Y2979D01*
X37613Y2974D01*
X37635Y2970D01*
X37658Y2967D01*
X37683Y2966D01*
X37710Y2966D01*
X37508Y2764D01*
X37508Y2791D01*
X37504Y2839D01*
X37500Y2861D01*
X37495Y2881D01*
X37489Y2900D01*
X37482Y2916D01*
X37474Y2932D01*
X37464Y2945D01*
X37454Y2957D01*
X37517Y3020D01*
X37529Y3010D01*
D02*
G37*
G36*
X36796Y2900D02*
X36810Y2891D01*
X36824Y2884D01*
X36838Y2880D01*
X36852Y2878D01*
X36866Y2880D01*
X36880Y2884D01*
X36895Y2891D01*
X36910Y2900D01*
X36924Y2912D01*
X36894Y2648D01*
X36882Y2665D01*
X36814Y2753D01*
X36803Y2765D01*
X36782Y2788D01*
X36782Y2912D01*
X36796Y2900D01*
D02*
G37*
G36*
X39010Y2559D02*
X38983Y2559D01*
X38935Y2555D01*
X38913Y2551D01*
X38893Y2546D01*
X38874Y2540D01*
X38857Y2533D01*
X38842Y2525D01*
X38829Y2515D01*
X38817Y2505D01*
X38754Y2567D01*
X38764Y2579D01*
X38774Y2593D01*
X38782Y2608D01*
X38789Y2625D01*
X38795Y2644D01*
X38800Y2664D01*
X38804Y2685D01*
X38807Y2709D01*
X38808Y2734D01*
X38808Y2760D01*
X39010Y2559D01*
D02*
G37*
G36*
X38360D02*
X38333Y2559D01*
X38285Y2555D01*
X38263Y2551D01*
X38243Y2546D01*
X38224Y2540D01*
X38208Y2533D01*
X38192Y2525D01*
X38179Y2515D01*
X38167Y2505D01*
X38104Y2567D01*
X38114Y2579D01*
X38124Y2593D01*
X38132Y2608D01*
X38139Y2625D01*
X38145Y2644D01*
X38150Y2664D01*
X38154Y2685D01*
X38157Y2709D01*
X38158Y2734D01*
X38158Y2760D01*
X38360Y2559D01*
D02*
G37*
G36*
X44372Y2695D02*
X44362Y2683D01*
X44352Y2669D01*
X44344Y2654D01*
X44337Y2637D01*
X44331Y2619D01*
X44326Y2599D01*
X44322Y2577D01*
X44319Y2554D01*
X44318Y2529D01*
X44318Y2502D01*
X44117Y2703D01*
X44143Y2703D01*
X44191Y2708D01*
X44213Y2711D01*
X44233Y2716D01*
X44252Y2722D01*
X44269Y2729D01*
X44284Y2738D01*
X44297Y2747D01*
X44309Y2758D01*
X44372Y2695D01*
D02*
G37*
G36*
X43628D02*
X43617Y2683D01*
X43608Y2669D01*
X43599Y2654D01*
X43592Y2637D01*
X43586Y2619D01*
X43581Y2599D01*
X43578Y2577D01*
X43575Y2554D01*
X43574Y2529D01*
X43573Y2502D01*
X43372Y2703D01*
X43399Y2703D01*
X43447Y2708D01*
X43469Y2711D01*
X43489Y2716D01*
X43507Y2722D01*
X43524Y2729D01*
X43539Y2738D01*
X43553Y2747D01*
X43565Y2758D01*
X43628Y2695D01*
D02*
G37*
G36*
X37668Y836D02*
X37657Y824D01*
X37648Y811D01*
X37639Y795D01*
X37632Y779D01*
X37626Y760D01*
X37621Y740D01*
X37617Y718D01*
X37615Y695D01*
X37613Y670D01*
X37613Y643D01*
X37412Y845D01*
X37438Y845D01*
X37487Y849D01*
X37508Y853D01*
X37529Y858D01*
X37547Y864D01*
X37564Y871D01*
X37579Y879D01*
X37593Y889D01*
X37605Y899D01*
X37668Y836D01*
D02*
G37*
%LPC*%
G36*
X8723Y25578D02*
X8488Y25531D01*
X8289Y25398D01*
X8166Y25214D01*
X8098Y25206D01*
X8030Y25214D01*
X7907Y25398D01*
X7708Y25531D01*
X7473Y25578D01*
X7238Y25531D01*
X7039Y25398D01*
X6916Y25214D01*
X6848Y25206D01*
X6780Y25214D01*
X6657Y25398D01*
X6458Y25531D01*
X6223Y25578D01*
X5988Y25531D01*
X5789Y25398D01*
X5656Y25199D01*
X5610Y24964D01*
Y24464D01*
X5656Y24229D01*
X5789Y24030D01*
X5988Y23898D01*
X6223Y23851D01*
X6458Y23898D01*
X6657Y24030D01*
X6780Y24215D01*
X6848Y24223D01*
X6916Y24215D01*
X7039Y24030D01*
X7238Y23898D01*
X7473Y23851D01*
X7708Y23898D01*
X7907Y24030D01*
X8030Y24215D01*
X8098Y24223D01*
X8166Y24215D01*
X8289Y24030D01*
X8488Y23898D01*
X8723Y23851D01*
X8958Y23898D01*
X9157Y24030D01*
X9290Y24229D01*
X9336Y24464D01*
Y24964D01*
X9290Y25199D01*
X9157Y25398D01*
X8958Y25531D01*
X8723Y25578D01*
D02*
G37*
G36*
X17174Y24260D02*
X17053D01*
X16941Y24214D01*
X16855Y24128D01*
X16809Y24016D01*
Y23895D01*
X16855Y23783D01*
X16941Y23697D01*
X17053Y23651D01*
X17174D01*
X17286Y23697D01*
X17297Y23708D01*
X17385Y23772D01*
X17463Y23708D01*
X17479Y23693D01*
X17591Y23646D01*
X17713D01*
X17825Y23693D01*
X17910Y23778D01*
X17957Y23890D01*
Y24012D01*
X17910Y24124D01*
X17825Y24209D01*
X17713Y24256D01*
X17591D01*
X17479Y24209D01*
X17468Y24198D01*
X17380Y24134D01*
X17302Y24198D01*
X17286Y24214D01*
X17174Y24260D01*
D02*
G37*
G36*
X23621Y24546D02*
X23500D01*
X23388Y24499D01*
X23302Y24414D01*
X23256Y24302D01*
Y24180D01*
X23302Y24068D01*
X23314Y24057D01*
X23377Y23969D01*
X23314Y23891D01*
X23298Y23875D01*
X23251Y23763D01*
Y23642D01*
X23298Y23530D01*
X23384Y23444D01*
X23496Y23397D01*
X23617D01*
X23729Y23444D01*
X23815Y23530D01*
X23861Y23642D01*
Y23763D01*
X23815Y23875D01*
X23803Y23886D01*
X23740Y23974D01*
X23803Y24052D01*
X23819Y24068D01*
X23866Y24180D01*
Y24302D01*
X23819Y24414D01*
X23733Y24499D01*
X23621Y24546D01*
D02*
G37*
G36*
X34176Y23442D02*
X34054D01*
X33942Y23395D01*
X33857Y23310D01*
X33810Y23198D01*
Y23076D01*
X33857Y22964D01*
X33942Y22879D01*
X34054Y22832D01*
X34176D01*
X34288Y22879D01*
X34374Y22964D01*
X34420Y23076D01*
Y23198D01*
X34374Y23310D01*
X34288Y23395D01*
X34176Y23442D01*
D02*
G37*
G36*
X15498Y23373D02*
X15376D01*
X15264Y23327D01*
X15179Y23241D01*
X15132Y23129D01*
Y23008D01*
X15179Y22896D01*
X15264Y22810D01*
X15376Y22764D01*
X15498D01*
X15610Y22810D01*
X15695Y22896D01*
X15742Y23008D01*
Y23129D01*
X15695Y23241D01*
X15610Y23327D01*
X15498Y23373D01*
D02*
G37*
G36*
X6773D02*
X6651D01*
X6539Y23327D01*
X6454Y23241D01*
X6407Y23129D01*
Y23008D01*
X6454Y22896D01*
X6539Y22810D01*
X6651Y22764D01*
X6773D01*
X6885Y22810D01*
X6970Y22896D01*
X7017Y23008D01*
Y23129D01*
X6970Y23241D01*
X6885Y23327D01*
X6773Y23373D01*
D02*
G37*
G36*
X2658Y25102D02*
X2342D01*
X2036Y25020D01*
X1762Y24862D01*
X1538Y24638D01*
X1380Y24364D01*
X1298Y24058D01*
Y23742D01*
X1380Y23436D01*
X1538Y23162D01*
X1762Y22938D01*
X2036Y22780D01*
X2342Y22698D01*
X2658D01*
X2964Y22780D01*
X3238Y22938D01*
X3462Y23162D01*
X3620Y23436D01*
X3702Y23742D01*
Y24058D01*
X3620Y24364D01*
X3462Y24638D01*
X3238Y24862D01*
X2964Y25020D01*
X2658Y25102D01*
D02*
G37*
G36*
X10208Y23127D02*
X10086D01*
X9974Y23080D01*
X9889Y22995D01*
X9842Y22883D01*
Y22761D01*
X9889Y22649D01*
X9974Y22564D01*
X10086Y22517D01*
X10208D01*
X10320Y22564D01*
X10405Y22649D01*
X10452Y22761D01*
Y22883D01*
X10405Y22995D01*
X10320Y23080D01*
X10208Y23127D01*
D02*
G37*
G36*
X14513Y23037D02*
X14392D01*
X14280Y22991D01*
X14194Y22905D01*
X14148Y22793D01*
Y22672D01*
X14194Y22560D01*
X14280Y22474D01*
X14392Y22427D01*
X14513D01*
X14625Y22474D01*
X14711Y22560D01*
X14757Y22672D01*
Y22793D01*
X14711Y22905D01*
X14625Y22991D01*
X14513Y23037D01*
D02*
G37*
G36*
X16393Y22652D02*
X16272D01*
X16160Y22605D01*
X16074Y22519D01*
X16027Y22407D01*
Y22286D01*
X16074Y22174D01*
X16160Y22088D01*
X16272Y22042D01*
X16393D01*
X16505Y22088D01*
X16591Y22174D01*
X16637Y22286D01*
Y22407D01*
X16591Y22519D01*
X16505Y22605D01*
X16393Y22652D01*
D02*
G37*
G36*
X14513Y22105D02*
X14392D01*
X14280Y22058D01*
X14194Y21973D01*
X14148Y21861D01*
Y21739D01*
X14194Y21627D01*
X14280Y21542D01*
X14392Y21495D01*
X14513D01*
X14625Y21542D01*
X14711Y21627D01*
X14757Y21739D01*
Y21861D01*
X14711Y21973D01*
X14625Y22058D01*
X14513Y22105D01*
D02*
G37*
G36*
X27497Y21858D02*
X27376D01*
X27264Y21812D01*
X27178Y21726D01*
X27131Y21614D01*
Y21493D01*
X27178Y21381D01*
X27264Y21295D01*
X27376Y21249D01*
X27497D01*
X27609Y21295D01*
X27695Y21381D01*
X27741Y21493D01*
Y21614D01*
X27695Y21726D01*
X27609Y21812D01*
X27497Y21858D01*
D02*
G37*
G36*
X24534Y21805D02*
X24413D01*
X24301Y21758D01*
X24215Y21672D01*
X24169Y21560D01*
Y21439D01*
X24215Y21327D01*
X24301Y21241D01*
X24413Y21195D01*
X24534D01*
X24646Y21241D01*
X24732Y21327D01*
X24778Y21439D01*
Y21560D01*
X24732Y21672D01*
X24646Y21758D01*
X24534Y21805D01*
D02*
G37*
G36*
X8239Y21488D02*
X8118D01*
X8006Y21442D01*
X7920Y21356D01*
X7874Y21244D01*
Y21123D01*
X7920Y21011D01*
X8006Y20925D01*
X8118Y20879D01*
X8239D01*
X8351Y20925D01*
X8437Y21011D01*
X8484Y21123D01*
Y21244D01*
X8437Y21356D01*
X8351Y21442D01*
X8239Y21488D01*
D02*
G37*
G36*
X14513Y21173D02*
X14392D01*
X14280Y21126D01*
X14194Y21040D01*
X14148Y20928D01*
Y20807D01*
X14194Y20695D01*
X14280Y20609D01*
X14392Y20563D01*
X14513D01*
X14625Y20609D01*
X14711Y20695D01*
X14757Y20807D01*
Y20928D01*
X14711Y21040D01*
X14625Y21126D01*
X14513Y21173D01*
D02*
G37*
G36*
X27518Y21017D02*
X27397D01*
X27285Y20971D01*
X27199Y20885D01*
X27152Y20773D01*
Y20652D01*
X27199Y20540D01*
X27285Y20454D01*
X27397Y20408D01*
X27518D01*
X27630Y20454D01*
X27716Y20540D01*
X27762Y20652D01*
Y20773D01*
X27716Y20885D01*
X27630Y20971D01*
X27518Y21017D01*
D02*
G37*
G36*
X3452Y21511D02*
X3254D01*
X3063Y21460D01*
X2891Y21361D01*
X2751Y21221D01*
X2652Y21050D01*
X2601Y20859D01*
Y20661D01*
X2652Y20470D01*
X2751Y20298D01*
X2891Y20158D01*
X3063Y20059D01*
X3254Y20008D01*
X3452D01*
X3643Y20059D01*
X3814Y20158D01*
X3954Y20298D01*
X4053Y20470D01*
X4104Y20661D01*
Y20859D01*
X4053Y21050D01*
X3954Y21221D01*
X3814Y21361D01*
X3643Y21460D01*
X3452Y21511D01*
D02*
G37*
G36*
X25772Y20244D02*
X25651D01*
X25539Y20197D01*
X25453Y20112D01*
X25407Y20000D01*
Y19878D01*
X25453Y19766D01*
X25539Y19681D01*
X25651Y19634D01*
X25772D01*
X25884Y19681D01*
X25970Y19766D01*
X26016Y19878D01*
Y20000D01*
X25970Y20112D01*
X25884Y20197D01*
X25772Y20244D01*
D02*
G37*
G36*
X21787Y20689D02*
X21666D01*
X21554Y20643D01*
X21468Y20557D01*
X21422Y20445D01*
Y20324D01*
X21468Y20212D01*
X21480Y20201D01*
X21543Y20113D01*
X21480Y20035D01*
X21464Y20019D01*
X21417Y19907D01*
Y19785D01*
X21464Y19673D01*
X21550Y19588D01*
X21662Y19541D01*
X21783D01*
X21895Y19588D01*
X21906Y19599D01*
X21994Y19663D01*
X22072Y19599D01*
X22088Y19583D01*
X22200Y19537D01*
X22321D01*
X22433Y19583D01*
X22519Y19669D01*
X22566Y19781D01*
Y19902D01*
X22519Y20014D01*
X22508Y20025D01*
X22444Y20113D01*
X22508Y20191D01*
X22524Y20207D01*
X22570Y20319D01*
Y20441D01*
X22524Y20553D01*
X22438Y20638D01*
X22326Y20685D01*
X22205D01*
X22093Y20638D01*
X22081Y20627D01*
X21994Y20564D01*
X21915Y20627D01*
X21899Y20643D01*
X21787Y20689D01*
D02*
G37*
G36*
X32477Y19526D02*
X32356D01*
X32244Y19480D01*
X32158Y19394D01*
X32111Y19282D01*
Y19161D01*
X32158Y19049D01*
X32244Y18963D01*
X32356Y18917D01*
X32477D01*
X32589Y18963D01*
X32675Y19049D01*
X32721Y19161D01*
Y19282D01*
X32675Y19394D01*
X32589Y19480D01*
X32477Y19526D01*
D02*
G37*
G36*
X27391Y19406D02*
X27270D01*
X27158Y19360D01*
X27072Y19274D01*
X27026Y19162D01*
Y19041D01*
X27072Y18929D01*
X27158Y18843D01*
X27270Y18797D01*
X27391D01*
X27503Y18843D01*
X27589Y18929D01*
X27635Y19041D01*
Y19162D01*
X27589Y19274D01*
X27503Y19360D01*
X27391Y19406D01*
D02*
G37*
G36*
X25846D02*
X25725D01*
X25613Y19360D01*
X25527Y19274D01*
X25481Y19162D01*
Y19041D01*
X25527Y18929D01*
X25613Y18843D01*
X25725Y18797D01*
X25846D01*
X25958Y18843D01*
X26044Y18929D01*
X26091Y19041D01*
Y19162D01*
X26044Y19274D01*
X25958Y19360D01*
X25846Y19406D01*
D02*
G37*
G36*
X19365Y20105D02*
X19244D01*
X19132Y20058D01*
X19046Y19973D01*
X18999Y19861D01*
Y19845D01*
X18982Y19738D01*
X18882Y19727D01*
X18860D01*
X18747Y19681D01*
X18662Y19595D01*
X18615Y19483D01*
Y19362D01*
X18662Y19250D01*
X18747Y19164D01*
X18860Y19118D01*
X18876D01*
X18983Y19101D01*
X18993Y19000D01*
Y18978D01*
X19039Y18866D01*
X19125Y18780D01*
X19237Y18733D01*
X19358D01*
X19470Y18780D01*
X19556Y18866D01*
X19603Y18978D01*
Y18994D01*
X19620Y19101D01*
X19720Y19111D01*
X19742D01*
X19854Y19157D01*
X19940Y19243D01*
X19987Y19355D01*
Y19476D01*
X19940Y19588D01*
X19854Y19674D01*
X19742Y19721D01*
X19726D01*
X19619Y19738D01*
X19609Y19838D01*
Y19861D01*
X19563Y19973D01*
X19477Y20058D01*
X19365Y20105D01*
D02*
G37*
G36*
X31269Y18705D02*
X31148D01*
X31036Y18658D01*
X30950Y18573D01*
X30904Y18461D01*
Y18339D01*
X30950Y18227D01*
X31036Y18142D01*
X31148Y18095D01*
X31269D01*
X31381Y18142D01*
X31467Y18227D01*
X31513Y18339D01*
Y18461D01*
X31467Y18573D01*
X31381Y18658D01*
X31269Y18705D01*
D02*
G37*
G36*
X30181D02*
X30060D01*
X29948Y18658D01*
X29862Y18573D01*
X29816Y18461D01*
Y18339D01*
X29862Y18227D01*
X29948Y18142D01*
X30060Y18095D01*
X30181D01*
X30293Y18142D01*
X30379Y18227D01*
X30426Y18339D01*
Y18461D01*
X30379Y18573D01*
X30293Y18658D01*
X30181Y18705D01*
D02*
G37*
G36*
X29076Y18593D02*
X28955D01*
X28843Y18546D01*
X28757Y18461D01*
X28711Y18349D01*
Y18227D01*
X28757Y18115D01*
X28843Y18030D01*
X28955Y17983D01*
X29076D01*
X29188Y18030D01*
X29274Y18115D01*
X29321Y18227D01*
Y18349D01*
X29274Y18461D01*
X29188Y18546D01*
X29076Y18593D01*
D02*
G37*
G36*
X8682Y19065D02*
X8561D01*
X8449Y19019D01*
X8363Y18933D01*
X8317Y18821D01*
Y18700D01*
X8363Y18588D01*
X8375Y18576D01*
X8438Y18489D01*
X8375Y18410D01*
X8359Y18394D01*
X8312Y18282D01*
Y18161D01*
X8359Y18049D01*
X8444Y17963D01*
X8556Y17917D01*
X8678D01*
X8790Y17963D01*
X8801Y17975D01*
X8889Y18038D01*
X8967Y17975D01*
X8983Y17959D01*
X9095Y17912D01*
X9216D01*
X9328Y17959D01*
X9414Y18044D01*
X9460Y18157D01*
Y18278D01*
X9414Y18390D01*
X9403Y18401D01*
X9339Y18489D01*
X9403Y18567D01*
X9419Y18583D01*
X9465Y18695D01*
Y18816D01*
X9419Y18928D01*
X9333Y19014D01*
X9221Y19061D01*
X9100D01*
X8988Y19014D01*
X8976Y19003D01*
X8889Y18939D01*
X8810Y19003D01*
X8794Y19019D01*
X8682Y19065D01*
D02*
G37*
G36*
X53713Y18020D02*
X53592D01*
X53480Y17974D01*
X53469Y17963D01*
X53386Y17895D01*
X53303Y17963D01*
X53292Y17974D01*
X53180Y18020D01*
X53058D01*
X52946Y17974D01*
X52861Y17888D01*
X52814Y17776D01*
Y17655D01*
X52861Y17543D01*
X52946Y17457D01*
X53058Y17410D01*
X53180D01*
X53292Y17457D01*
X53303Y17468D01*
X53386Y17536D01*
X53469Y17468D01*
X53480Y17457D01*
X53592Y17410D01*
X53713D01*
X53825Y17457D01*
X53911Y17543D01*
X53957Y17655D01*
Y17776D01*
X53911Y17888D01*
X53825Y17974D01*
X53713Y18020D01*
D02*
G37*
G36*
X30203Y17653D02*
X30081D01*
X29969Y17607D01*
X29892Y17529D01*
X29815Y17607D01*
X29703Y17653D01*
X29581D01*
X29469Y17607D01*
X29384Y17521D01*
X29337Y17409D01*
Y17288D01*
X29384Y17176D01*
X29469Y17090D01*
X29581Y17043D01*
X29703D01*
X29815Y17090D01*
X29892Y17167D01*
X29969Y17090D01*
X30081Y17043D01*
X30203D01*
X30315Y17090D01*
X30400Y17176D01*
X30447Y17288D01*
Y17409D01*
X30400Y17521D01*
X30315Y17607D01*
X30203Y17653D01*
D02*
G37*
G36*
X32203Y17903D02*
X32081D01*
X31969Y17857D01*
X31884Y17771D01*
X31837Y17659D01*
Y17538D01*
X31884Y17426D01*
X31969Y17340D01*
X32081Y17294D01*
X32203D01*
X32315Y17340D01*
X32400Y17426D01*
X32447Y17538D01*
Y17659D01*
X32400Y17771D01*
X32315Y17857D01*
X32203Y17903D01*
D02*
G37*
G36*
X27703D02*
X27581D01*
X27469Y17857D01*
X27384Y17771D01*
X27337Y17659D01*
Y17538D01*
X27384Y17426D01*
X27469Y17340D01*
X27581Y17294D01*
X27703D01*
X27815Y17340D01*
X27900Y17426D01*
X27947Y17538D01*
Y17659D01*
X27900Y17771D01*
X27815Y17857D01*
X27703Y17903D01*
D02*
G37*
G36*
X23352Y17653D02*
X23231D01*
X23119Y17607D01*
X23033Y17521D01*
X22987Y17409D01*
Y17288D01*
X23033Y17176D01*
X23119Y17090D01*
X23231Y17043D01*
X23352D01*
X23464Y17090D01*
X23550Y17176D01*
X23597Y17288D01*
Y17409D01*
X23550Y17521D01*
X23464Y17607D01*
X23352Y17653D01*
D02*
G37*
G36*
X24440Y17390D02*
X24319D01*
X24207Y17343D01*
X24121Y17258D01*
X24074Y17146D01*
Y17024D01*
X24121Y16912D01*
X24207Y16827D01*
X24319Y16780D01*
X24440D01*
X24552Y16827D01*
X24638Y16912D01*
X24684Y17024D01*
Y17146D01*
X24638Y17258D01*
X24552Y17343D01*
X24440Y17390D01*
D02*
G37*
G36*
X5556Y17977D02*
X4556D01*
X4386Y17955D01*
X4228Y17889D01*
X4091Y17785D01*
X3987Y17649D01*
X3921Y17490D01*
X3899Y17320D01*
X3906Y17270D01*
X3899Y17220D01*
Y16838D01*
X3860Y16797D01*
X3780Y16750D01*
X3776Y16752D01*
X3636D01*
X3507Y16698D01*
X3408Y16599D01*
X3355Y16470D01*
Y16330D01*
X3408Y16201D01*
X3507Y16102D01*
X3636Y16048D01*
X3776D01*
X3905Y16102D01*
X4004Y16201D01*
X4024Y16247D01*
X4175Y16291D01*
X4228Y16251D01*
X4386Y16185D01*
X4556Y16163D01*
X4726Y16185D01*
X4885Y16251D01*
X5021Y16355D01*
X5125Y16491D01*
X5191Y16650D01*
X5193Y16663D01*
X5556D01*
X5726Y16685D01*
X5885Y16751D01*
X6021Y16855D01*
X6125Y16991D01*
X6191Y17150D01*
X6213Y17320D01*
X6191Y17490D01*
X6125Y17649D01*
X6021Y17785D01*
X5885Y17889D01*
X5726Y17955D01*
X5556Y17977D01*
D02*
G37*
G36*
X12126Y17043D02*
X12004D01*
X11892Y16997D01*
X11807Y16911D01*
X11760Y16799D01*
Y16678D01*
X11807Y16566D01*
X11892Y16480D01*
X12004Y16434D01*
X12126D01*
X12238Y16480D01*
X12323Y16566D01*
X12370Y16678D01*
Y16799D01*
X12323Y16911D01*
X12238Y16997D01*
X12126Y17043D01*
D02*
G37*
G36*
X22737Y16789D02*
X22616D01*
X22504Y16743D01*
X22418Y16657D01*
X22372Y16545D01*
Y16424D01*
X22418Y16312D01*
X22504Y16226D01*
X22616Y16180D01*
X22737D01*
X22849Y16226D01*
X22935Y16312D01*
X22981Y16424D01*
Y16545D01*
X22935Y16657D01*
X22849Y16743D01*
X22737Y16789D01*
D02*
G37*
G36*
X21825Y16775D02*
X21704D01*
X21592Y16729D01*
X21506Y16643D01*
X21460Y16531D01*
Y16410D01*
X21506Y16298D01*
X21592Y16212D01*
X21704Y16166D01*
X21825D01*
X21937Y16212D01*
X22023Y16298D01*
X22070Y16410D01*
Y16531D01*
X22023Y16643D01*
X21937Y16729D01*
X21825Y16775D01*
D02*
G37*
G36*
X14106Y16107D02*
X13985D01*
X13873Y16061D01*
X13787Y15975D01*
X13741Y15863D01*
Y15742D01*
X13787Y15630D01*
X13873Y15544D01*
X13985Y15498D01*
X14106D01*
X14218Y15544D01*
X14304Y15630D01*
X14350Y15742D01*
Y15863D01*
X14304Y15975D01*
X14218Y16061D01*
X14106Y16107D01*
D02*
G37*
G36*
X7274Y16562D02*
X7153D01*
X7041Y16515D01*
X6955Y16429D01*
X6909Y16317D01*
Y16196D01*
X6955Y16084D01*
X6966Y16073D01*
X7034Y15990D01*
X6966Y15907D01*
X6955Y15896D01*
X6909Y15784D01*
Y15663D01*
X6955Y15551D01*
X7041Y15465D01*
X7153Y15418D01*
X7274D01*
X7386Y15465D01*
X7472Y15551D01*
X7518Y15663D01*
Y15784D01*
X7472Y15896D01*
X7461Y15907D01*
X7393Y15990D01*
X7461Y16073D01*
X7472Y16084D01*
X7518Y16196D01*
Y16317D01*
X7472Y16429D01*
X7386Y16515D01*
X7274Y16562D01*
D02*
G37*
G36*
X30751Y16410D02*
X30629D01*
X30517Y16364D01*
X30432Y16278D01*
X30385Y16166D01*
Y16044D01*
X30432Y15932D01*
X30494Y15871D01*
X30491Y15754D01*
X30482Y15724D01*
X30405Y15646D01*
X30358Y15534D01*
Y15413D01*
X30405Y15301D01*
X30490Y15215D01*
X30602Y15169D01*
X30724D01*
X30836Y15215D01*
X30898Y15277D01*
X31014Y15274D01*
X31044Y15266D01*
X31122Y15188D01*
X31234Y15142D01*
X31355D01*
X31468Y15188D01*
X31553Y15274D01*
X31600Y15386D01*
Y15507D01*
X31553Y15619D01*
X31491Y15681D01*
X31494Y15798D01*
X31502Y15828D01*
X31580Y15906D01*
X31627Y16018D01*
Y16139D01*
X31580Y16251D01*
X31494Y16337D01*
X31382Y16383D01*
X31261D01*
X31149Y16337D01*
X31087Y16275D01*
X30970Y16277D01*
X30940Y16286D01*
X30863Y16364D01*
X30751Y16410D01*
D02*
G37*
G36*
X28655D02*
X28534D01*
X28422Y16364D01*
X28336Y16278D01*
X28290Y16166D01*
Y16044D01*
X28336Y15932D01*
X28398Y15871D01*
X28396Y15754D01*
X28387Y15724D01*
X28309Y15646D01*
X28263Y15534D01*
Y15413D01*
X28309Y15301D01*
X28395Y15215D01*
X28507Y15169D01*
X28628D01*
X28740Y15215D01*
X28802Y15277D01*
X28919Y15274D01*
X28949Y15266D01*
X29027Y15188D01*
X29139Y15142D01*
X29260D01*
X29372Y15188D01*
X29458Y15274D01*
X29504Y15386D01*
Y15507D01*
X29458Y15619D01*
X29396Y15681D01*
X29399Y15798D01*
X29407Y15828D01*
X29485Y15906D01*
X29531Y16018D01*
Y16139D01*
X29485Y16251D01*
X29399Y16337D01*
X29287Y16383D01*
X29166D01*
X29054Y16337D01*
X28992Y16275D01*
X28875Y16277D01*
X28845Y16286D01*
X28767Y16364D01*
X28655Y16410D01*
D02*
G37*
G36*
X26424Y15206D02*
X26303D01*
X26191Y15160D01*
X26105Y15074D01*
X26059Y14962D01*
Y14841D01*
X26105Y14728D01*
X26191Y14643D01*
X26303Y14596D01*
X26424D01*
X26536Y14643D01*
X26622Y14728D01*
X26668Y14841D01*
Y14962D01*
X26622Y15074D01*
X26536Y15160D01*
X26424Y15206D01*
D02*
G37*
G36*
X16698Y15185D02*
X16576D01*
X16464Y15138D01*
X16379Y15053D01*
X16332Y14941D01*
Y14819D01*
X16379Y14707D01*
X16464Y14622D01*
X16576Y14575D01*
X16698D01*
X16810Y14622D01*
X16895Y14707D01*
X16942Y14819D01*
Y14941D01*
X16895Y15053D01*
X16810Y15138D01*
X16698Y15185D01*
D02*
G37*
G36*
X12896Y15469D02*
X12775D01*
X12663Y15422D01*
X12577Y15336D01*
X12531Y15224D01*
Y15103D01*
X12577Y14991D01*
X12588Y14980D01*
X12656Y14897D01*
X12588Y14814D01*
X12577Y14803D01*
X12531Y14691D01*
Y14570D01*
X12577Y14458D01*
X12663Y14372D01*
X12775Y14326D01*
X12896D01*
X13008Y14372D01*
X13094Y14458D01*
X13141Y14570D01*
Y14691D01*
X13094Y14803D01*
X13083Y14814D01*
X13015Y14897D01*
X13083Y14980D01*
X13094Y14991D01*
X13141Y15103D01*
Y15224D01*
X13094Y15336D01*
X13008Y15422D01*
X12896Y15469D01*
D02*
G37*
G36*
X3693Y15451D02*
X3572D01*
X3460Y15405D01*
X3374Y15319D01*
X3327Y15207D01*
Y15086D01*
X3374Y14974D01*
X3385Y14963D01*
X3453Y14880D01*
X3385Y14797D01*
X3374Y14786D01*
X3327Y14674D01*
Y14553D01*
X3374Y14441D01*
X3460Y14355D01*
X3572Y14308D01*
X3693D01*
X3805Y14355D01*
X3891Y14441D01*
X3937Y14553D01*
Y14674D01*
X3891Y14786D01*
X3880Y14797D01*
X3812Y14880D01*
X3880Y14963D01*
X3891Y14974D01*
X3937Y15086D01*
Y15207D01*
X3891Y15319D01*
X3805Y15405D01*
X3693Y15451D01*
D02*
G37*
G36*
X23149Y14735D02*
X23028D01*
X22916Y14689D01*
X22830Y14603D01*
X22784Y14491D01*
Y14370D01*
X22830Y14258D01*
X22916Y14172D01*
X23028Y14126D01*
X23149D01*
X23261Y14172D01*
X23347Y14258D01*
X23393Y14370D01*
Y14491D01*
X23347Y14603D01*
X23261Y14689D01*
X23149Y14735D01*
D02*
G37*
G36*
X20245Y14757D02*
X20124D01*
X20012Y14710D01*
X19926Y14624D01*
X19880Y14512D01*
Y14391D01*
X19926Y14279D01*
X20012Y14193D01*
X20124Y14147D01*
X20245D01*
X20357Y14193D01*
X20419Y14255D01*
X20536Y14253D01*
X20566Y14244D01*
X20643Y14166D01*
X20755Y14120D01*
X20877D01*
X20989Y14166D01*
X21074Y14252D01*
X21121Y14364D01*
Y14485D01*
X21074Y14598D01*
X20989Y14683D01*
X20877Y14730D01*
X20755D01*
X20643Y14683D01*
X20582Y14621D01*
X20465Y14624D01*
X20435Y14632D01*
X20357Y14710D01*
X20245Y14757D01*
D02*
G37*
G36*
X15376Y14452D02*
X15255D01*
X15143Y14405D01*
X15057Y14320D01*
X15011Y14208D01*
Y14086D01*
X15057Y13974D01*
X15143Y13889D01*
X15255Y13842D01*
X15376D01*
X15488Y13889D01*
X15574Y13974D01*
X15620Y14086D01*
Y14208D01*
X15574Y14320D01*
X15488Y14405D01*
X15376Y14452D01*
D02*
G37*
G36*
X4683Y13945D02*
X4562D01*
X4450Y13898D01*
X4364Y13812D01*
X4318Y13700D01*
Y13579D01*
X4364Y13467D01*
X4450Y13381D01*
X4562Y13335D01*
X4683D01*
X4795Y13381D01*
X4881Y13467D01*
X4928Y13579D01*
Y13700D01*
X4881Y13812D01*
X4795Y13898D01*
X4683Y13945D01*
D02*
G37*
G36*
X6385Y13701D02*
X6264D01*
X6152Y13655D01*
X6066Y13569D01*
X6020Y13457D01*
Y13336D01*
X6066Y13224D01*
X6077Y13213D01*
X6145Y13130D01*
X6077Y13047D01*
X6066Y13036D01*
X6020Y12924D01*
Y12803D01*
X6066Y12691D01*
X6152Y12605D01*
X6264Y12558D01*
X6385D01*
X6497Y12605D01*
X6583Y12691D01*
X6629Y12803D01*
Y12924D01*
X6583Y13036D01*
X6572Y13047D01*
X6504Y13130D01*
X6572Y13213D01*
X6583Y13224D01*
X6629Y13336D01*
Y13457D01*
X6583Y13569D01*
X6497Y13655D01*
X6385Y13701D01*
D02*
G37*
G36*
X25097Y12985D02*
X24976D01*
X24864Y12939D01*
X24778Y12853D01*
X24731Y12741D01*
Y12620D01*
X24778Y12508D01*
X24864Y12422D01*
X24976Y12375D01*
X25097D01*
X25209Y12422D01*
X25295Y12508D01*
X25341Y12620D01*
Y12741D01*
X25295Y12853D01*
X25209Y12939D01*
X25097Y12985D01*
D02*
G37*
G36*
X3726Y13451D02*
X3605D01*
X3493Y13405D01*
X3407Y13319D01*
X3361Y13207D01*
Y13086D01*
X3407Y12974D01*
X3418Y12963D01*
X3486Y12880D01*
X3418Y12797D01*
X3407Y12786D01*
X3361Y12674D01*
Y12553D01*
X3407Y12441D01*
X3493Y12355D01*
X3605Y12308D01*
X3726D01*
X3838Y12355D01*
X3924Y12441D01*
X3970Y12553D01*
Y12674D01*
X3924Y12786D01*
X3913Y12797D01*
X3845Y12880D01*
X3913Y12963D01*
X3924Y12974D01*
X3970Y13086D01*
Y13207D01*
X3924Y13319D01*
X3838Y13405D01*
X3726Y13451D01*
D02*
G37*
G36*
X13116Y14173D02*
X12995D01*
X12883Y14127D01*
X12797Y14041D01*
X12751Y13929D01*
Y13808D01*
X12797Y13696D01*
X12883Y13610D01*
X12941Y13586D01*
X12896Y13469D01*
X12775Y13469D01*
X12663Y13422D01*
X12577Y13336D01*
X12531Y13224D01*
Y13103D01*
X12577Y12991D01*
X12614Y12955D01*
X12649Y12872D01*
X12614Y12789D01*
X12577Y12752D01*
X12531Y12640D01*
Y12519D01*
X12577Y12407D01*
X12663Y12321D01*
X12775Y12275D01*
X12896D01*
X13008Y12321D01*
X13094Y12407D01*
X13141Y12519D01*
Y12640D01*
X13094Y12752D01*
X13058Y12789D01*
X13023Y12872D01*
X13058Y12955D01*
X13094Y12991D01*
X13141Y13103D01*
Y13224D01*
X13094Y13336D01*
X13008Y13422D01*
X12950Y13446D01*
X12995Y13564D01*
X13116Y13564D01*
X13228Y13610D01*
X13314Y13696D01*
X13360Y13808D01*
Y13929D01*
X13314Y14041D01*
X13228Y14127D01*
X13116Y14173D01*
D02*
G37*
G36*
X21551Y12817D02*
X21430D01*
X21318Y12771D01*
X21232Y12685D01*
X21186Y12573D01*
Y12452D01*
X21232Y12340D01*
X21318Y12254D01*
X21430Y12208D01*
X21551D01*
X21663Y12254D01*
X21749Y12340D01*
X21795Y12452D01*
Y12573D01*
X21749Y12685D01*
X21663Y12771D01*
X21551Y12817D01*
D02*
G37*
G36*
X18785Y12675D02*
X18664D01*
X18552Y12628D01*
X18466Y12542D01*
X18419Y12430D01*
Y12309D01*
X18466Y12197D01*
X18552Y12111D01*
X18664Y12065D01*
X18785D01*
X18897Y12111D01*
X18983Y12197D01*
X19029Y12309D01*
Y12430D01*
X18983Y12542D01*
X18897Y12628D01*
X18785Y12675D01*
D02*
G37*
G36*
X5260Y12665D02*
X5139D01*
X5027Y12619D01*
X4941Y12533D01*
X4894Y12421D01*
Y12299D01*
X4941Y12187D01*
X5027Y12102D01*
X5139Y12055D01*
X5260D01*
X5372Y12102D01*
X5458Y12187D01*
X5504Y12299D01*
Y12421D01*
X5458Y12533D01*
X5372Y12619D01*
X5260Y12665D01*
D02*
G37*
G36*
X23153Y12483D02*
X23032D01*
X22920Y12437D01*
X22834Y12351D01*
X22788Y12239D01*
Y12118D01*
X22834Y12006D01*
X22920Y11920D01*
X23032Y11874D01*
X23153D01*
X23266Y11920D01*
X23351Y12006D01*
X23398Y12118D01*
Y12239D01*
X23351Y12351D01*
X23266Y12437D01*
X23153Y12483D01*
D02*
G37*
G36*
X7249Y12360D02*
X7128D01*
X7016Y12313D01*
X6930Y12228D01*
X6883Y12116D01*
Y11994D01*
X6930Y11882D01*
X6941Y11871D01*
X7009Y11788D01*
X6941Y11705D01*
X6930Y11694D01*
X6883Y11582D01*
Y11461D01*
X6930Y11349D01*
X7016Y11263D01*
X7128Y11217D01*
X7249D01*
X7361Y11263D01*
X7447Y11349D01*
X7493Y11461D01*
Y11582D01*
X7447Y11694D01*
X7436Y11705D01*
X7368Y11788D01*
X7436Y11871D01*
X7447Y11882D01*
X7493Y11994D01*
Y12116D01*
X7447Y12228D01*
X7361Y12313D01*
X7249Y12360D01*
D02*
G37*
G36*
X18785Y11404D02*
X18664D01*
X18552Y11358D01*
X18466Y11272D01*
X18419Y11160D01*
Y11039D01*
X18466Y10927D01*
X18552Y10841D01*
X18664Y10795D01*
X18785D01*
X18897Y10841D01*
X18983Y10927D01*
X19029Y11039D01*
Y11160D01*
X18983Y11272D01*
X18897Y11358D01*
X18785Y11404D01*
D02*
G37*
G36*
X25897Y11385D02*
X25776D01*
X25663Y11339D01*
X25578Y11253D01*
X25531Y11141D01*
Y11020D01*
X25578Y10908D01*
X25663Y10822D01*
X25776Y10775D01*
X25897D01*
X26009Y10822D01*
X26095Y10908D01*
X26141Y11020D01*
Y11141D01*
X26095Y11253D01*
X26009Y11339D01*
X25897Y11385D01*
D02*
G37*
G36*
X3710Y11451D02*
X3588D01*
X3476Y11405D01*
X3391Y11319D01*
X3344Y11207D01*
Y11086D01*
X3391Y10974D01*
X3402Y10963D01*
X3469Y10880D01*
X3402Y10797D01*
X3391Y10786D01*
X3344Y10674D01*
Y10553D01*
X3391Y10441D01*
X3476Y10355D01*
X3588Y10309D01*
X3710D01*
X3822Y10355D01*
X3907Y10441D01*
X3954Y10553D01*
Y10674D01*
X3907Y10786D01*
X3896Y10797D01*
X3828Y10880D01*
X3896Y10963D01*
X3907Y10974D01*
X3954Y11086D01*
Y11207D01*
X3907Y11319D01*
X3822Y11405D01*
X3710Y11451D01*
D02*
G37*
G36*
X11404Y10735D02*
X11283D01*
X11171Y10689D01*
X11085Y10603D01*
X11039Y10491D01*
Y10370D01*
X11085Y10258D01*
X11171Y10172D01*
X11283Y10126D01*
X11404D01*
X11516Y10172D01*
X11602Y10258D01*
X11648Y10370D01*
Y10491D01*
X11602Y10603D01*
X11516Y10689D01*
X11404Y10735D01*
D02*
G37*
G36*
X25897Y10585D02*
X25776D01*
X25663Y10539D01*
X25578Y10453D01*
X25531Y10341D01*
Y10220D01*
X25578Y10108D01*
X25663Y10022D01*
X25776Y9975D01*
X25897D01*
X26009Y10022D01*
X26095Y10108D01*
X26141Y10220D01*
Y10341D01*
X26095Y10453D01*
X26009Y10539D01*
X25897Y10585D01*
D02*
G37*
G36*
X24297D02*
X24176D01*
X24063Y10539D01*
X23978Y10453D01*
X23931Y10341D01*
Y10220D01*
X23978Y10108D01*
X24063Y10022D01*
X24176Y9975D01*
X24297D01*
X24409Y10022D01*
X24495Y10108D01*
X24541Y10220D01*
Y10341D01*
X24495Y10453D01*
X24409Y10539D01*
X24297Y10585D01*
D02*
G37*
G36*
X19949D02*
X19828D01*
X19716Y10539D01*
X19630Y10453D01*
X19583Y10341D01*
Y10220D01*
X19630Y10108D01*
X19716Y10022D01*
X19828Y9975D01*
X19949D01*
X20061Y10022D01*
X20147Y10108D01*
X20193Y10220D01*
Y10341D01*
X20147Y10453D01*
X20061Y10539D01*
X19949Y10585D01*
D02*
G37*
G36*
X6773Y11035D02*
X6651D01*
X6539Y10988D01*
X6454Y10903D01*
X6407Y10791D01*
Y10669D01*
X6454Y10557D01*
X6539Y10472D01*
X6588Y10452D01*
Y10314D01*
X6526Y10288D01*
X6440Y10203D01*
X6394Y10091D01*
Y9969D01*
X6440Y9857D01*
X6526Y9772D01*
X6638Y9725D01*
X6759D01*
X6871Y9772D01*
X6957Y9857D01*
X7003Y9969D01*
Y10091D01*
X6957Y10203D01*
X6871Y10288D01*
X6823Y10308D01*
Y10446D01*
X6885Y10472D01*
X6970Y10557D01*
X7017Y10669D01*
Y10791D01*
X6970Y10903D01*
X6885Y10988D01*
X6773Y11035D01*
D02*
G37*
G36*
X18785Y10134D02*
X18664D01*
X18552Y10088D01*
X18466Y10002D01*
X18419Y9890D01*
Y9769D01*
X18466Y9657D01*
X18552Y9571D01*
X18664Y9525D01*
X18785D01*
X18897Y9571D01*
X18983Y9657D01*
X19029Y9769D01*
Y9890D01*
X18983Y10002D01*
X18897Y10088D01*
X18785Y10134D01*
D02*
G37*
G36*
X25897Y9785D02*
X25776D01*
X25663Y9739D01*
X25578Y9653D01*
X25531Y9541D01*
Y9420D01*
X25578Y9308D01*
X25663Y9222D01*
X25776Y9175D01*
X25897D01*
X26009Y9222D01*
X26095Y9308D01*
X26141Y9420D01*
Y9541D01*
X26095Y9653D01*
X26009Y9739D01*
X25897Y9785D01*
D02*
G37*
G36*
X25897Y8985D02*
X25776D01*
X25663Y8939D01*
X25578Y8853D01*
X25531Y8741D01*
Y8620D01*
X25578Y8508D01*
X25663Y8422D01*
X25776Y8375D01*
X25897D01*
X26009Y8422D01*
X26095Y8508D01*
X26141Y8620D01*
Y8741D01*
X26095Y8853D01*
X26009Y8939D01*
X25897Y8985D01*
D02*
G37*
G36*
X25097D02*
X24976D01*
X24864Y8939D01*
X24778Y8853D01*
X24731Y8741D01*
Y8620D01*
X24778Y8508D01*
X24864Y8422D01*
X24976Y8375D01*
X25097D01*
X25209Y8422D01*
X25295Y8508D01*
X25341Y8620D01*
Y8741D01*
X25295Y8853D01*
X25209Y8939D01*
X25097Y8985D01*
D02*
G37*
G36*
X3776Y9952D02*
X3636D01*
X3507Y9898D01*
X3408Y9799D01*
X3355Y9670D01*
Y9530D01*
X3408Y9401D01*
X3507Y9302D01*
X3636Y9248D01*
X3776D01*
X3780Y9250D01*
X3860Y9203D01*
X3899Y9162D01*
Y8780D01*
X3906Y8730D01*
X3899Y8680D01*
X3921Y8510D01*
X3987Y8351D01*
X4091Y8215D01*
X4228Y8111D01*
X4386Y8045D01*
X4556Y8023D01*
X5556D01*
X5726Y8045D01*
X5885Y8111D01*
X6021Y8215D01*
X6125Y8351D01*
X6191Y8510D01*
X6213Y8680D01*
X6191Y8850D01*
X6125Y9009D01*
X6021Y9145D01*
X5885Y9249D01*
X5726Y9315D01*
X5556Y9337D01*
X5193D01*
X5191Y9350D01*
X5125Y9509D01*
X5021Y9645D01*
X4885Y9749D01*
X4726Y9815D01*
X4556Y9837D01*
X4386Y9815D01*
X4228Y9749D01*
X4175Y9709D01*
X4024Y9753D01*
X4004Y9799D01*
X3905Y9898D01*
X3776Y9952D01*
D02*
G37*
G36*
X26697Y8185D02*
X26576D01*
X26463Y8139D01*
X26378Y8053D01*
X26331Y7941D01*
Y7820D01*
X26378Y7708D01*
X26463Y7622D01*
X26576Y7575D01*
X26697D01*
X26809Y7622D01*
X26895Y7708D01*
X26941Y7820D01*
Y7941D01*
X26895Y8053D01*
X26809Y8139D01*
X26697Y8185D01*
D02*
G37*
G36*
X25897D02*
X25776D01*
X25663Y8139D01*
X25578Y8053D01*
X25531Y7941D01*
Y7820D01*
X25578Y7708D01*
X25663Y7622D01*
X25776Y7575D01*
X25897D01*
X26009Y7622D01*
X26095Y7708D01*
X26141Y7820D01*
Y7941D01*
X26095Y8053D01*
X26009Y8139D01*
X25897Y8185D01*
D02*
G37*
G36*
X25097D02*
X24976D01*
X24864Y8139D01*
X24778Y8053D01*
X24731Y7941D01*
Y7820D01*
X24778Y7708D01*
X24864Y7622D01*
X24976Y7575D01*
X25097D01*
X25209Y7622D01*
X25295Y7708D01*
X25341Y7820D01*
Y7941D01*
X25295Y8053D01*
X25209Y8139D01*
X25097Y8185D01*
D02*
G37*
G36*
X26697Y7385D02*
X26576D01*
X26463Y7339D01*
X26378Y7253D01*
X26331Y7141D01*
Y7020D01*
X26378Y6908D01*
X26463Y6822D01*
X26576Y6775D01*
X26697D01*
X26809Y6822D01*
X26895Y6908D01*
X26941Y7020D01*
Y7141D01*
X26895Y7253D01*
X26809Y7339D01*
X26697Y7385D01*
D02*
G37*
G36*
X17968D02*
X17846D01*
X17734Y7339D01*
X17649Y7253D01*
X17602Y7141D01*
Y7020D01*
X17649Y6908D01*
X17734Y6822D01*
X17846Y6775D01*
X17968D01*
X18080Y6822D01*
X18165Y6908D01*
X18212Y7020D01*
Y7141D01*
X18165Y7253D01*
X18080Y7339D01*
X17968Y7385D01*
D02*
G37*
G36*
X15376D02*
X15255D01*
X15143Y7339D01*
X15057Y7253D01*
X15011Y7141D01*
Y7020D01*
X15057Y6908D01*
X15143Y6822D01*
X15255Y6775D01*
X15376D01*
X15488Y6822D01*
X15574Y6908D01*
X15620Y7020D01*
Y7141D01*
X15574Y7253D01*
X15488Y7339D01*
X15376Y7385D01*
D02*
G37*
G36*
X11646Y7331D02*
X11525D01*
X11413Y7284D01*
X11327Y7199D01*
X11280Y7087D01*
Y6965D01*
X11327Y6853D01*
X11413Y6768D01*
X11525Y6721D01*
X11646D01*
X11758Y6768D01*
X11844Y6853D01*
X11890Y6965D01*
Y7087D01*
X11844Y7199D01*
X11758Y7284D01*
X11646Y7331D01*
D02*
G37*
G36*
X20406Y7315D02*
X20285D01*
X20173Y7269D01*
X20087Y7183D01*
X20041Y7071D01*
Y6950D01*
X20087Y6838D01*
X20173Y6752D01*
X20285Y6706D01*
X20406D01*
X20518Y6752D01*
X20604Y6838D01*
X20650Y6950D01*
Y7071D01*
X20604Y7183D01*
X20518Y7269D01*
X20406Y7315D01*
D02*
G37*
G36*
X18679Y7061D02*
X18558D01*
X18446Y7015D01*
X18360Y6929D01*
X18313Y6817D01*
Y6696D01*
X18360Y6584D01*
X18446Y6498D01*
X18558Y6452D01*
X18679D01*
X18791Y6498D01*
X18877Y6584D01*
X18923Y6696D01*
Y6817D01*
X18877Y6929D01*
X18791Y7015D01*
X18679Y7061D01*
D02*
G37*
G36*
X23352Y6883D02*
X23231D01*
X23119Y6837D01*
X23033Y6751D01*
X22987Y6639D01*
Y6518D01*
X23033Y6406D01*
X23119Y6320D01*
X23231Y6274D01*
X23352D01*
X23464Y6320D01*
X23550Y6406D01*
X23597Y6518D01*
Y6639D01*
X23550Y6751D01*
X23464Y6837D01*
X23352Y6883D01*
D02*
G37*
G36*
X25897Y6585D02*
X25776D01*
X25663Y6539D01*
X25578Y6453D01*
X25531Y6341D01*
Y6220D01*
X25578Y6108D01*
X25663Y6022D01*
X25776Y5975D01*
X25897D01*
X26009Y6022D01*
X26095Y6108D01*
X26141Y6220D01*
Y6341D01*
X26095Y6453D01*
X26009Y6539D01*
X25897Y6585D01*
D02*
G37*
G36*
X25097D02*
X24976D01*
X24864Y6539D01*
X24778Y6453D01*
X24731Y6341D01*
Y6220D01*
X24778Y6108D01*
X24864Y6022D01*
X24976Y5975D01*
X25097D01*
X25209Y6022D01*
X25295Y6108D01*
X25341Y6220D01*
Y6341D01*
X25295Y6453D01*
X25209Y6539D01*
X25097Y6585D01*
D02*
G37*
G36*
X20304Y6518D02*
X20183D01*
X20071Y6472D01*
X19985Y6386D01*
X19939Y6274D01*
Y6153D01*
X19985Y6040D01*
X20071Y5955D01*
X20183Y5908D01*
X20304D01*
X20416Y5955D01*
X20502Y6040D01*
X20549Y6153D01*
Y6274D01*
X20502Y6386D01*
X20416Y6472D01*
X20304Y6518D01*
D02*
G37*
G36*
X17790Y6481D02*
X17669D01*
X17557Y6434D01*
X17471Y6349D01*
X17424Y6237D01*
Y6115D01*
X17471Y6003D01*
X17557Y5918D01*
X17669Y5871D01*
X17790D01*
X17902Y5918D01*
X17988Y6003D01*
X18034Y6115D01*
Y6237D01*
X17988Y6349D01*
X17902Y6434D01*
X17790Y6481D01*
D02*
G37*
G36*
X16901D02*
X16780D01*
X16668Y6434D01*
X16582Y6349D01*
X16535Y6237D01*
Y6115D01*
X16582Y6003D01*
X16668Y5918D01*
X16780Y5871D01*
X16901D01*
X17013Y5918D01*
X17099Y6003D01*
X17145Y6115D01*
Y6237D01*
X17099Y6349D01*
X17013Y6434D01*
X16901Y6481D01*
D02*
G37*
G36*
X623Y6105D02*
X502D01*
X390Y6058D01*
X304Y5973D01*
X258Y5861D01*
Y5739D01*
X304Y5627D01*
X390Y5542D01*
X502Y5495D01*
X623D01*
X735Y5542D01*
X821Y5627D01*
X867Y5739D01*
Y5861D01*
X821Y5973D01*
X735Y6058D01*
X623Y6105D01*
D02*
G37*
G36*
X15834Y6045D02*
X15713D01*
X15601Y5999D01*
X15515Y5913D01*
X15469Y5801D01*
Y5680D01*
X15515Y5568D01*
X15601Y5482D01*
X15713Y5436D01*
X15834D01*
X15946Y5482D01*
X16032Y5568D01*
X16078Y5680D01*
Y5801D01*
X16032Y5913D01*
X15946Y5999D01*
X15834Y6045D01*
D02*
G37*
G36*
X10413Y6020D02*
X10291D01*
X10179Y5973D01*
X10094Y5888D01*
X10047Y5776D01*
Y5654D01*
X10094Y5542D01*
X10179Y5457D01*
X10291Y5410D01*
X10413D01*
X10525Y5457D01*
X10610Y5542D01*
X10657Y5654D01*
Y5776D01*
X10610Y5888D01*
X10525Y5973D01*
X10413Y6020D01*
D02*
G37*
G36*
X7467Y5969D02*
X7345D01*
X7233Y5923D01*
X7148Y5837D01*
X7101Y5725D01*
Y5604D01*
X7148Y5492D01*
X7233Y5406D01*
X7345Y5359D01*
X7467D01*
X7579Y5406D01*
X7664Y5492D01*
X7711Y5604D01*
Y5725D01*
X7664Y5837D01*
X7579Y5923D01*
X7467Y5969D01*
D02*
G37*
G36*
X25897Y5785D02*
X25776D01*
X25663Y5739D01*
X25578Y5653D01*
X25531Y5541D01*
Y5420D01*
X25578Y5308D01*
X25663Y5222D01*
X25776Y5175D01*
X25897D01*
X26009Y5222D01*
X26095Y5308D01*
X26141Y5420D01*
Y5541D01*
X26095Y5653D01*
X26009Y5739D01*
X25897Y5785D01*
D02*
G37*
G36*
X20146Y5699D02*
X20025D01*
X19913Y5652D01*
X19827Y5567D01*
X19781Y5455D01*
Y5333D01*
X19827Y5221D01*
X19913Y5136D01*
X20025Y5089D01*
X20146D01*
X20258Y5136D01*
X20344Y5221D01*
X20391Y5333D01*
Y5455D01*
X20344Y5567D01*
X20258Y5652D01*
X20146Y5699D01*
D02*
G37*
G36*
X17790Y5626D02*
X17669D01*
X17557Y5579D01*
X17471Y5493D01*
X17424Y5381D01*
Y5260D01*
X17471Y5148D01*
X17557Y5062D01*
X17669Y5016D01*
X17790D01*
X17902Y5062D01*
X17988Y5148D01*
X18034Y5260D01*
Y5381D01*
X17988Y5493D01*
X17902Y5579D01*
X17790Y5626D01*
D02*
G37*
G36*
X16901D02*
X16780D01*
X16668Y5579D01*
X16582Y5493D01*
X16535Y5381D01*
Y5260D01*
X16582Y5148D01*
X16668Y5062D01*
X16780Y5016D01*
X16901D01*
X17013Y5062D01*
X17099Y5148D01*
X17145Y5260D01*
Y5381D01*
X17099Y5493D01*
X17013Y5579D01*
X16901Y5626D01*
D02*
G37*
G36*
X623Y5141D02*
X502D01*
X390Y5095D01*
X304Y5009D01*
X258Y4897D01*
Y4776D01*
X304Y4664D01*
X390Y4578D01*
X502Y4531D01*
X623D01*
X735Y4578D01*
X821Y4664D01*
X867Y4776D01*
Y4897D01*
X821Y5009D01*
X735Y5095D01*
X623Y5141D01*
D02*
G37*
G36*
X23200Y5010D02*
X23079D01*
X22967Y4964D01*
X22881Y4878D01*
X22835Y4766D01*
Y4645D01*
X22881Y4533D01*
X22967Y4447D01*
X23079Y4401D01*
X23200D01*
X23312Y4447D01*
X23398Y4533D01*
X23444Y4645D01*
Y4766D01*
X23398Y4878D01*
X23312Y4964D01*
X23200Y5010D01*
D02*
G37*
G36*
X25897Y4985D02*
X25776D01*
X25663Y4939D01*
X25578Y4853D01*
X25531Y4741D01*
Y4620D01*
X25578Y4508D01*
X25663Y4422D01*
X25776Y4375D01*
X25897D01*
X26009Y4422D01*
X26095Y4508D01*
X26141Y4620D01*
Y4741D01*
X26095Y4853D01*
X26009Y4939D01*
X25897Y4985D01*
D02*
G37*
G36*
X25097D02*
X24976D01*
X24864Y4939D01*
X24778Y4853D01*
X24731Y4741D01*
Y4620D01*
X24778Y4508D01*
X24864Y4422D01*
X24976Y4375D01*
X25097D01*
X25209Y4422D01*
X25295Y4508D01*
X25341Y4620D01*
Y4741D01*
X25295Y4853D01*
X25209Y4939D01*
X25097Y4985D01*
D02*
G37*
G36*
X10413Y4784D02*
X10291D01*
X10179Y4737D01*
X10094Y4652D01*
X10047Y4540D01*
Y4418D01*
X10094Y4306D01*
X10179Y4221D01*
X10291Y4174D01*
X10413D01*
X10525Y4221D01*
X10610Y4306D01*
X10657Y4418D01*
Y4540D01*
X10610Y4652D01*
X10525Y4737D01*
X10413Y4784D01*
D02*
G37*
G36*
X17790Y4770D02*
X17669D01*
X17557Y4724D01*
X17471Y4638D01*
X17424Y4526D01*
Y4405D01*
X17471Y4293D01*
X17557Y4207D01*
X17669Y4161D01*
X17790D01*
X17902Y4207D01*
X17988Y4293D01*
X18034Y4405D01*
Y4526D01*
X17988Y4638D01*
X17902Y4724D01*
X17790Y4770D01*
D02*
G37*
G36*
X16901D02*
X16780D01*
X16668Y4724D01*
X16582Y4638D01*
X16535Y4526D01*
Y4405D01*
X16582Y4293D01*
X16668Y4207D01*
X16780Y4161D01*
X16901D01*
X17013Y4207D01*
X17099Y4293D01*
X17145Y4405D01*
Y4526D01*
X17099Y4638D01*
X17013Y4724D01*
X16901Y4770D01*
D02*
G37*
G36*
X20146Y4699D02*
X20025D01*
X19913Y4652D01*
X19827Y4567D01*
X19781Y4455D01*
Y4333D01*
X19827Y4221D01*
X19913Y4136D01*
X20025Y4089D01*
X20146D01*
X20258Y4136D01*
X20344Y4221D01*
X20391Y4333D01*
Y4455D01*
X20344Y4567D01*
X20258Y4652D01*
X20146Y4699D01*
D02*
G37*
G36*
X7467Y4692D02*
X7345D01*
X7233Y4646D01*
X7148Y4560D01*
X7101Y4448D01*
Y4327D01*
X7148Y4215D01*
X7233Y4129D01*
X7345Y4083D01*
X7467D01*
X7579Y4129D01*
X7664Y4215D01*
X7711Y4327D01*
Y4448D01*
X7664Y4560D01*
X7579Y4646D01*
X7467Y4692D01*
D02*
G37*
G36*
X20983Y4367D02*
X20862D01*
X20749Y4321D01*
X20664Y4235D01*
X20617Y4123D01*
Y4002D01*
X20664Y3890D01*
X20749Y3804D01*
X20862Y3758D01*
X20983D01*
X21095Y3804D01*
X21181Y3890D01*
X21227Y4002D01*
Y4123D01*
X21181Y4235D01*
X21095Y4321D01*
X20983Y4367D01*
D02*
G37*
G36*
X22882Y4337D02*
X22761D01*
X22649Y4291D01*
X22563Y4205D01*
X22517Y4093D01*
Y3972D01*
X22563Y3860D01*
X22649Y3774D01*
X22761Y3728D01*
X22882D01*
X22994Y3774D01*
X23080Y3860D01*
X23127Y3972D01*
Y4093D01*
X23080Y4205D01*
X22994Y4291D01*
X22882Y4337D01*
D02*
G37*
G36*
X623Y4177D02*
X502D01*
X390Y4131D01*
X304Y4045D01*
X258Y3933D01*
Y3812D01*
X304Y3700D01*
X390Y3614D01*
X502Y3568D01*
X623D01*
X735Y3614D01*
X821Y3700D01*
X867Y3812D01*
Y3933D01*
X821Y4045D01*
X735Y4131D01*
X623Y4177D01*
D02*
G37*
G36*
X17790Y3915D02*
X17669D01*
X17557Y3869D01*
X17471Y3783D01*
X17424Y3671D01*
Y3550D01*
X17471Y3438D01*
X17557Y3352D01*
X17669Y3306D01*
X17790D01*
X17902Y3352D01*
X17988Y3438D01*
X18034Y3550D01*
Y3671D01*
X17988Y3783D01*
X17902Y3869D01*
X17790Y3915D01*
D02*
G37*
G36*
X24697Y3717D02*
X24576D01*
X24463Y3671D01*
X24378Y3585D01*
X24331Y3473D01*
Y3352D01*
X24378Y3240D01*
X24463Y3154D01*
X24576Y3108D01*
X24697D01*
X24809Y3154D01*
X24895Y3240D01*
X24941Y3352D01*
Y3473D01*
X24895Y3585D01*
X24809Y3671D01*
X24697Y3717D01*
D02*
G37*
G36*
X23035Y3585D02*
X22914D01*
X22802Y3539D01*
X22716Y3453D01*
X22670Y3341D01*
Y3220D01*
X22716Y3108D01*
X22802Y3022D01*
X22914Y2976D01*
X23035D01*
X23147Y3022D01*
X23233Y3108D01*
X23279Y3220D01*
Y3341D01*
X23233Y3453D01*
X23147Y3539D01*
X23035Y3585D01*
D02*
G37*
G36*
X25776Y3531D02*
X25655D01*
X25543Y3484D01*
X25457Y3398D01*
X25411Y3286D01*
Y3165D01*
X25457Y3053D01*
X25543Y2967D01*
X25655Y2921D01*
X25776D01*
X25888Y2967D01*
X25974Y3053D01*
X26021Y3165D01*
Y3286D01*
X25974Y3398D01*
X25888Y3484D01*
X25776Y3531D01*
D02*
G37*
G36*
X21538Y3372D02*
X21417D01*
X21305Y3325D01*
X21219Y3240D01*
X21173Y3128D01*
Y3006D01*
X21219Y2894D01*
X21305Y2809D01*
X21417Y2762D01*
X21538D01*
X21650Y2809D01*
X21736Y2894D01*
X21782Y3006D01*
Y3128D01*
X21736Y3240D01*
X21650Y3325D01*
X21538Y3372D01*
D02*
G37*
G36*
X9906Y2101D02*
X9671Y2055D01*
X9472Y1922D01*
X9349Y1738D01*
X9281Y1730D01*
X9213Y1738D01*
X9090Y1922D01*
X8891Y2055D01*
X8656Y2101D01*
X8421Y2055D01*
X8222Y1922D01*
X8099Y1738D01*
X8031Y1730D01*
X7963Y1738D01*
X7840Y1922D01*
X7641Y2055D01*
X7406Y2101D01*
X7171Y2055D01*
X6972Y1922D01*
X6849Y1738D01*
X6781Y1730D01*
X6713Y1738D01*
X6590Y1922D01*
X6391Y2055D01*
X6156Y2101D01*
X5921Y2055D01*
X5722Y1922D01*
X5589Y1723D01*
X5543Y1488D01*
Y988D01*
X5589Y753D01*
X5722Y554D01*
X5921Y421D01*
X6156Y375D01*
X6391Y421D01*
X6590Y554D01*
X6713Y738D01*
X6781Y746D01*
X6849Y738D01*
X6972Y554D01*
X7171Y421D01*
X7406Y375D01*
X7641Y421D01*
X7840Y554D01*
X7963Y738D01*
X8031Y746D01*
X8099Y738D01*
X8222Y554D01*
X8421Y421D01*
X8656Y375D01*
X8891Y421D01*
X9090Y554D01*
X9213Y738D01*
X9281Y746D01*
X9349Y738D01*
X9472Y554D01*
X9671Y421D01*
X9906Y375D01*
X10141Y421D01*
X10340Y554D01*
X10473Y753D01*
X10519Y988D01*
Y1488D01*
X10473Y1723D01*
X10340Y1922D01*
X10141Y2055D01*
X9906Y2101D01*
D02*
G37*
G36*
X12051Y3553D02*
X11929D01*
X11817Y3506D01*
X11732Y3420D01*
X11685Y3308D01*
Y3187D01*
X11732Y3075D01*
X11817Y2989D01*
X11861Y2971D01*
Y2834D01*
X11811Y2813D01*
X11725Y2727D01*
X11679Y2615D01*
Y2494D01*
X11725Y2382D01*
X11811Y2296D01*
X11850Y2280D01*
Y2143D01*
X11812Y2127D01*
X11726Y2041D01*
X11680Y1929D01*
Y1808D01*
X11726Y1696D01*
X11812Y1610D01*
X11924Y1564D01*
X12045D01*
X12157Y1610D01*
X12243Y1696D01*
X12290Y1808D01*
Y1929D01*
X12243Y2041D01*
X12157Y2127D01*
X12119Y2143D01*
Y2281D01*
X12157Y2296D01*
X12242Y2382D01*
X12289Y2494D01*
Y2615D01*
X12242Y2727D01*
X12157Y2813D01*
X12113Y2831D01*
Y2969D01*
X12163Y2989D01*
X12248Y3075D01*
X12295Y3187D01*
Y3308D01*
X12248Y3420D01*
X12163Y3506D01*
X12051Y3553D01*
D02*
G37*
G36*
X25776Y1953D02*
X25655D01*
X25543Y1906D01*
X25457Y1821D01*
X25411Y1709D01*
Y1587D01*
X25457Y1475D01*
X25543Y1390D01*
X25655Y1343D01*
X25776D01*
X25888Y1390D01*
X25974Y1475D01*
X26021Y1587D01*
Y1709D01*
X25974Y1821D01*
X25888Y1906D01*
X25776Y1953D01*
D02*
G37*
G36*
X31074Y1600D02*
X30953D01*
X30841Y1554D01*
X30755Y1468D01*
X30709Y1356D01*
Y1235D01*
X30755Y1123D01*
X30841Y1037D01*
X30953Y991D01*
X31074D01*
X31186Y1037D01*
X31272Y1123D01*
X31318Y1235D01*
Y1356D01*
X31272Y1468D01*
X31186Y1554D01*
X31074Y1600D01*
D02*
G37*
G36*
X2658Y3302D02*
X2342D01*
X2036Y3220D01*
X1762Y3062D01*
X1538Y2838D01*
X1380Y2564D01*
X1298Y2258D01*
Y1942D01*
X1380Y1636D01*
X1538Y1362D01*
X1762Y1138D01*
X2036Y980D01*
X2342Y898D01*
X2658D01*
X2964Y980D01*
X3238Y1138D01*
X3462Y1362D01*
X3620Y1636D01*
X3702Y1942D01*
Y2258D01*
X3620Y2564D01*
X3462Y2838D01*
X3238Y3062D01*
X2964Y3220D01*
X2658Y3302D01*
D02*
G37*
G36*
X33890Y2086D02*
X33768D01*
X33656Y2039D01*
X33571Y1953D01*
X33524Y1841D01*
Y1720D01*
X33571Y1608D01*
X33584Y1595D01*
X33574Y1539D01*
X33540Y1459D01*
X33450Y1421D01*
X33364Y1336D01*
X33318Y1224D01*
Y1102D01*
X33364Y990D01*
X33450Y905D01*
X33562Y858D01*
X33683D01*
X33795Y905D01*
X33881Y990D01*
X33927Y1102D01*
Y1224D01*
X33881Y1336D01*
X33868Y1349D01*
X33877Y1404D01*
X33911Y1485D01*
X34002Y1522D01*
X34087Y1608D01*
X34134Y1720D01*
Y1841D01*
X34087Y1953D01*
X34002Y2039D01*
X33890Y2086D01*
D02*
G37*
G36*
X28259Y2086D02*
X28138D01*
X28026Y2039D01*
X27940Y1953D01*
X27893Y1841D01*
Y1720D01*
X27940Y1608D01*
X27953Y1595D01*
X27901Y1468D01*
X27845D01*
X27733Y1421D01*
X27647Y1336D01*
X27601Y1224D01*
Y1102D01*
X27647Y990D01*
X27733Y905D01*
X27845Y858D01*
X27966D01*
X28078Y905D01*
X28164Y990D01*
X28210Y1102D01*
Y1224D01*
X28164Y1336D01*
X28151Y1349D01*
X28203Y1476D01*
X28259D01*
X28371Y1522D01*
X28457Y1608D01*
X28503Y1720D01*
Y1841D01*
X28457Y1953D01*
X28371Y2039D01*
X28259Y2086D01*
D02*
G37*
G36*
X21584Y1162D02*
X21463D01*
X21351Y1116D01*
X21265Y1030D01*
X21219Y918D01*
Y797D01*
X21265Y685D01*
X21351Y599D01*
X21463Y552D01*
X21584D01*
X21696Y599D01*
X21782Y685D01*
X21828Y797D01*
Y918D01*
X21782Y1030D01*
X21696Y1116D01*
X21584Y1162D01*
D02*
G37*
G36*
X18050Y2095D02*
X17815Y2049D01*
X17616Y1916D01*
X17484Y1717D01*
X17437Y1482D01*
Y982D01*
X17484Y747D01*
X17616Y548D01*
X17815Y415D01*
X18050Y369D01*
X18285Y415D01*
X18484Y548D01*
X18617Y747D01*
X18664Y982D01*
Y1482D01*
X18617Y1717D01*
X18484Y1916D01*
X18285Y2049D01*
X18050Y2095D01*
D02*
G37*
G36*
X13487Y3523D02*
X13365D01*
X13253Y3477D01*
X13168Y3391D01*
X13121Y3279D01*
Y3158D01*
X13168Y3046D01*
X13253Y2960D01*
X13297Y2942D01*
Y2804D01*
X13247Y2784D01*
X13161Y2698D01*
X13115Y2586D01*
Y2465D01*
X13161Y2353D01*
X13247Y2267D01*
X13286Y2251D01*
Y2113D01*
X13248Y2098D01*
X13162Y2012D01*
X13116Y1900D01*
Y1779D01*
X13162Y1667D01*
X13248Y1581D01*
X13360Y1535D01*
X13481D01*
X13576Y1574D01*
X13638Y1543D01*
X13690Y1498D01*
X13687Y1482D01*
Y982D01*
X13734Y747D01*
X13866Y548D01*
X14065Y415D01*
X14300Y369D01*
X14535Y415D01*
X14734Y548D01*
X14857Y732D01*
X14925Y740D01*
X14993Y732D01*
X15116Y548D01*
X15315Y415D01*
X15550Y369D01*
X15785Y415D01*
X15984Y548D01*
X16117Y747D01*
X16164Y982D01*
Y1482D01*
X16117Y1717D01*
X15984Y1916D01*
X15785Y2049D01*
X15550Y2095D01*
X15315Y2049D01*
X15116Y1916D01*
X14993Y1731D01*
X14925Y1723D01*
X14857Y1731D01*
X14734Y1916D01*
X14535Y2049D01*
X14300Y2095D01*
X14065Y2049D01*
X13866Y1916D01*
X13853Y1895D01*
X13789Y1897D01*
X13717Y1921D01*
X13679Y2012D01*
X13593Y2098D01*
X13555Y2114D01*
Y2251D01*
X13593Y2267D01*
X13678Y2353D01*
X13725Y2465D01*
Y2586D01*
X13678Y2698D01*
X13593Y2784D01*
X13549Y2802D01*
Y2939D01*
X13599Y2960D01*
X13684Y3046D01*
X13731Y3158D01*
Y3279D01*
X13684Y3391D01*
X13599Y3477D01*
X13487Y3523D01*
D02*
G37*
G36*
X48632Y1758D02*
X48510D01*
X48398Y1712D01*
X48313Y1626D01*
X48266Y1514D01*
Y1393D01*
X48167Y1300D01*
X48114Y1322D01*
X47992D01*
X47880Y1276D01*
X47795Y1190D01*
X47748Y1078D01*
Y957D01*
X47795Y845D01*
X47880Y759D01*
X47992Y713D01*
X48114D01*
X48226Y759D01*
X48311Y845D01*
X48358Y957D01*
Y1078D01*
X48457Y1171D01*
X48510Y1149D01*
X48632D01*
X48744Y1195D01*
X48829Y1281D01*
X48876Y1393D01*
Y1514D01*
X48829Y1626D01*
X48744Y1712D01*
X48632Y1758D01*
D02*
G37*
G36*
X57658Y3702D02*
X57342D01*
X57036Y3620D01*
X56762Y3462D01*
X56538Y3238D01*
X56380Y2964D01*
X56298Y2658D01*
Y2342D01*
X56380Y2036D01*
X56538Y1762D01*
X56762Y1538D01*
X57036Y1380D01*
X57342Y1298D01*
X57658D01*
X57964Y1380D01*
X58238Y1538D01*
X58462Y1762D01*
X58620Y2036D01*
X58702Y2342D01*
Y2658D01*
X58620Y2964D01*
X58462Y3238D01*
X58238Y3462D01*
X57964Y3620D01*
X57658Y3702D01*
D02*
G37*
G36*
X46872Y1863D02*
X46751D01*
X46639Y1816D01*
X46553Y1731D01*
X46507Y1619D01*
Y1497D01*
X46553Y1385D01*
X46639Y1300D01*
X46751Y1253D01*
X46872D01*
X46984Y1300D01*
X47070Y1385D01*
X47116Y1497D01*
Y1619D01*
X47070Y1731D01*
X46984Y1816D01*
X46872Y1863D01*
D02*
G37*
G36*
X51186Y1864D02*
X51064D01*
X50952Y1818D01*
X50867Y1732D01*
X50820Y1620D01*
Y1499D01*
X50867Y1387D01*
X50902Y1352D01*
X50938Y1269D01*
X50902Y1186D01*
X50867Y1151D01*
X50820Y1039D01*
Y917D01*
X50867Y805D01*
X50952Y720D01*
X51064Y673D01*
X51186D01*
X51298Y720D01*
X51383Y805D01*
X51430Y917D01*
Y1039D01*
X51383Y1151D01*
X51348Y1186D01*
X51312Y1269D01*
X51348Y1352D01*
X51383Y1387D01*
X51430Y1499D01*
Y1620D01*
X51383Y1732D01*
X51298Y1818D01*
X51186Y1864D01*
D02*
G37*
G36*
X51931Y1849D02*
X51810D01*
X51698Y1802D01*
X51612Y1716D01*
X51566Y1604D01*
Y1483D01*
X51612Y1371D01*
X51647Y1336D01*
X51684Y1253D01*
X51647Y1170D01*
X51612Y1135D01*
X51566Y1023D01*
Y902D01*
X51612Y790D01*
X51698Y704D01*
X51810Y658D01*
X51931D01*
X52043Y704D01*
X52129Y790D01*
X52175Y902D01*
Y1023D01*
X52129Y1135D01*
X52094Y1170D01*
X52057Y1253D01*
X52094Y1336D01*
X52129Y1371D01*
X52175Y1483D01*
Y1604D01*
X52129Y1716D01*
X52043Y1802D01*
X51931Y1849D01*
D02*
G37*
%LPD*%
D16*
X57260Y5500D02*
G03*
X58260Y4500I1000J0D01*
G01*
X59260Y3500D02*
G03*
X58260Y4500I-1000J0D01*
G01*
Y0D02*
G03*
X59260Y1000I0J1000D01*
G01*
Y25000D02*
G03*
X58260Y26000I-1000J0D01*
G01*
Y21500D02*
G03*
X59260Y22500I0J1000D01*
G01*
X58260Y21500D02*
G03*
X57260Y20500I0J-1000D01*
G01*
X-1000Y1000D02*
G03*
X0Y0I1000J0D01*
G01*
Y26000D02*
G03*
X-1000Y25000I0J-1000D01*
G01*
X59260Y1000D02*
Y3500D01*
X56260Y0D02*
X58260D01*
X56260Y26000D02*
X58260D01*
X59260Y22500D02*
Y25000D01*
X57260Y5500D02*
Y20500D01*
X0Y0D02*
X56260D01*
X-1000Y1000D02*
Y25000D01*
X0Y26000D02*
X56260D01*
D18*
X46812Y7313D02*
Y7452D01*
X46812Y7312D02*
X46812Y7313D01*
D97*
X22534Y13287D02*
D03*
X21920Y22733D02*
D03*
X18542Y23393D02*
D03*
X18313Y17907D02*
D03*
X15951Y25157D02*
D03*
X19444Y24289D02*
D03*
X35636Y22200D02*
D03*
X18050Y22347D02*
D03*
X16332Y19685D02*
D03*
X17607Y20437D02*
D03*
X23380Y18761D02*
D03*
X20831Y18756D02*
D03*
X14453Y18567D02*
D03*
X15140Y18383D02*
D03*
X13233Y15691D02*
D03*
X14453Y19101D02*
D03*
X14046Y7473D02*
D03*
X35022Y16553D02*
D03*
X13388Y7082D02*
D03*
X44806Y18872D02*
D03*
X37062Y13162D02*
D03*
X4953Y15869D02*
D03*
X5097Y10105D02*
D03*
X16332Y7080D02*
D03*
X3589Y21984D02*
D03*
X33914Y2947D02*
D03*
X44114Y457D02*
D03*
X42525D02*
D03*
X40963D02*
D03*
X7656Y17037D02*
D03*
X27436Y10188D02*
D03*
X20523Y4877D02*
D03*
X45822Y24308D02*
D03*
X49128Y24353D02*
D03*
X24704Y13880D02*
D03*
X12472Y11009D02*
D03*
X55677Y20533D02*
D03*
X31677Y21525D02*
D03*
X44114Y2500D02*
D03*
X43370D02*
D03*
X36760Y25425D02*
D03*
X8977Y20868D02*
D03*
X12226Y21782D02*
D03*
X4953Y457D02*
D03*
X4991Y25543D02*
D03*
X12950Y5664D02*
D03*
X15773Y4441D02*
D03*
X19437Y4907D02*
D03*
X18592Y4902D02*
D03*
X8528Y15240D02*
D03*
X7678D02*
D03*
X8528Y12538D02*
D03*
X7678D02*
D03*
X8534Y8026D02*
D03*
X11070Y12830D02*
D03*
Y14964D02*
D03*
Y14430D02*
D03*
Y13364D02*
D03*
Y13897D02*
D03*
X10147Y10030D02*
D03*
Y10730D02*
D03*
X7849Y10389D02*
D03*
X21491Y11320D02*
D03*
X19888Y11480D02*
D03*
X34327Y15418D02*
D03*
X34468Y16027D02*
D03*
X25324Y16485D02*
D03*
X26111Y15494D02*
D03*
X37410Y641D02*
D03*
X24827Y24353D02*
D03*
X24342Y19003D02*
D03*
X24068Y19798D02*
D03*
Y20712D02*
D03*
X24334Y22200D02*
D03*
X36617Y24308D02*
D03*
X36017Y25208D02*
D03*
X35864Y24218D02*
D03*
X35535Y20980D02*
D03*
X35636Y21641D02*
D03*
X25146Y17094D02*
D03*
X29032Y19685D02*
D03*
X29016Y21954D02*
D03*
X30142Y25405D02*
D03*
X31579Y20760D02*
D03*
X30946D02*
D03*
Y19939D02*
D03*
Y21801D02*
D03*
X30121Y21494D02*
D03*
X30133Y20077D02*
D03*
X28762Y20760D02*
D03*
X28143Y21525D02*
D03*
X53868Y1995D02*
D03*
X55982Y2981D02*
D03*
X35097Y1638D02*
D03*
X50860Y22457D02*
D03*
X51958D02*
D03*
X53055D02*
D03*
X54153D02*
D03*
X22949Y857D02*
D03*
X19609Y1781D02*
D03*
X4966Y3873D02*
D03*
X3429Y4479D02*
D03*
X3429Y5774D02*
D03*
X-390Y3873D02*
D03*
Y4836D02*
D03*
Y5800D02*
D03*
X9928Y3412D02*
D03*
X8678Y3412D02*
D03*
X7428D02*
D03*
X6178D02*
D03*
X29836Y1397D02*
D03*
X39160Y17417D02*
D03*
X38360D02*
D03*
X37560D02*
D03*
X41560Y23017D02*
D03*
X37410Y23017D02*
D03*
X39960Y14905D02*
D03*
X39662Y14462D02*
D03*
X39960Y18867D02*
D03*
X31436Y7880D02*
D03*
X36412Y4062D02*
D03*
X28236Y5480D02*
D03*
X29036Y11880D02*
D03*
X29036Y12680D02*
D03*
X39662Y7312D02*
D03*
X32236Y10280D02*
D03*
X33036Y13480D02*
D03*
X32236Y8680D02*
D03*
X36412Y11862D02*
D03*
X39662Y12512D02*
D03*
X38362Y10562D02*
D03*
X39662Y11212D02*
D03*
X37712Y2762D02*
D03*
X48247Y2031D02*
D03*
X52974Y2003D02*
D03*
X47462Y4062D02*
D03*
X48112D02*
D03*
X47462Y4712D02*
D03*
X48112D02*
D03*
X47462Y5362D02*
D03*
X48112D02*
D03*
X47462Y6012D02*
D03*
X53033Y10272D02*
D03*
X48112Y6662D02*
D03*
Y6012D02*
D03*
X52425Y17715D02*
D03*
X51213Y13598D02*
D03*
X54000Y11213D02*
D03*
Y12995D02*
D03*
Y12395D02*
D03*
X52517Y10002D02*
D03*
Y9402D02*
D03*
X55541Y9702D02*
D03*
Y10302D02*
D03*
Y10902D02*
D03*
Y11502D02*
D03*
Y12102D02*
D03*
Y12702D02*
D03*
Y13302D02*
D03*
Y13902D02*
D03*
Y15102D02*
D03*
Y16902D02*
D03*
Y18702D02*
D03*
X52598Y16027D02*
D03*
X26636Y12680D02*
D03*
Y11080D02*
D03*
X30636D02*
D03*
X25036Y7080D02*
D03*
X29836Y12680D02*
D03*
X24236Y4680D02*
D03*
X30636Y5480D02*
D03*
X26636Y11880D02*
D03*
X25036Y11080D02*
D03*
Y11880D02*
D03*
X29836Y8680D02*
D03*
X32236Y4680D02*
D03*
X24236Y11080D02*
D03*
X31436Y4680D02*
D03*
X25036Y10280D02*
D03*
X30636Y7880D02*
D03*
X27436Y8680D02*
D03*
X29836Y5480D02*
D03*
X27436D02*
D03*
X25036D02*
D03*
X48610Y17417D02*
D03*
X45410D02*
D03*
X49410Y22217D02*
D03*
X45410D02*
D03*
X41410D02*
D03*
X46685Y21212D02*
D03*
X45885Y21212D02*
D03*
X37062Y14462D02*
D03*
Y2762D02*
D03*
X37712Y14462D02*
D03*
X38362Y2762D02*
D03*
X37712Y3412D02*
D03*
X39012Y2762D02*
D03*
X37062Y4712D02*
D03*
X38362Y3412D02*
D03*
X37712Y4062D02*
D03*
X37062Y5362D02*
D03*
X39012Y3412D02*
D03*
X48112Y7312D02*
D03*
Y9262D02*
D03*
Y7962D02*
D03*
X38362Y4062D02*
D03*
X39662Y13812D02*
D03*
X39662Y3412D02*
D03*
X47462Y6662D02*
D03*
X39012Y4062D02*
D03*
X47462Y7312D02*
D03*
Y7962D02*
D03*
X46812Y7312D02*
D03*
X38362Y6012D02*
D03*
X46162Y6662D02*
D03*
X38362D02*
D03*
X43562Y12512D02*
D03*
X45512Y6662D02*
D03*
X39012D02*
D03*
X43562Y11862D02*
D03*
X42912D02*
D03*
Y5362D02*
D03*
X39662Y6662D02*
D03*
D115*
X46584Y19598D02*
G03*
X46705Y19478I121J0D01*
G01*
X46926Y19236D02*
G03*
X46926Y19478I0J121D01*
G01*
X46197Y19236D02*
G03*
X46197Y18995I0J-121D01*
G01*
X46584Y18874D02*
G03*
X46464Y18995I-121J0D01*
G01*
X35314Y2704D02*
X35402Y2616D01*
X35314Y2704D02*
Y2780D01*
X35431Y2897D01*
Y2974D01*
X35354Y3050D02*
X35431Y2974D01*
X35278Y3050D02*
X35354D01*
X35031Y2803D02*
X35278Y3050D01*
X34955Y2803D02*
X35031D01*
X34878Y2879D02*
X34955Y2803D01*
X34878Y2879D02*
Y2956D01*
X35125Y3203D01*
Y3279D01*
X35049Y3355D02*
X35125Y3279D01*
X34973Y3355D02*
X35049D01*
X34726Y3108D02*
X34973Y3355D01*
X34649Y3108D02*
X34726D01*
X34573Y3185D02*
X34649Y3108D01*
X34573Y3185D02*
Y3261D01*
X34820Y3508D01*
Y3584D01*
X34744Y3661D02*
X34820Y3584D01*
X34667Y3661D02*
X34744D01*
X34421Y3414D02*
X34667Y3661D01*
X34344Y3414D02*
X34421D01*
X34268Y3490D02*
X34344Y3414D01*
X34268Y3490D02*
Y3566D01*
X34515Y3813D01*
Y3890D01*
X34438Y3966D02*
X34515Y3890D01*
X34362Y3966D02*
X34438D01*
X34245Y3849D02*
X34362Y3966D01*
X34169Y3849D02*
X34245D01*
X34138Y3881D02*
X34169Y3849D01*
X35402Y2616D02*
X35464Y2555D01*
X34013Y4006D02*
X34138Y3881D01*
X35464Y2555D02*
X35733Y2286D01*
X41185Y18366D02*
Y18534D01*
X40937Y18118D02*
X41185Y18366D01*
X40931Y18118D02*
X40937D01*
X40918Y18106D02*
X40931Y18118D01*
X40842Y18106D02*
X40918D01*
X40789Y18158D02*
X40842Y18106D01*
X40713Y18158D02*
X40789D01*
X40637Y18082D02*
X40713Y18158D01*
X40637Y18006D02*
Y18082D01*
Y18006D02*
X40689Y17953D01*
Y17877D02*
Y17953D01*
X40658Y17845D02*
X40689Y17877D01*
X41185Y18534D02*
Y18701D01*
X31436Y7880D02*
X32460D01*
X32860Y7480D01*
X33688D01*
X47935Y14988D02*
X48065Y15118D01*
X47849Y14988D02*
X47935D01*
X47685Y15152D02*
X47849Y14988D01*
X47600Y15152D02*
X47685D01*
X47515Y15066D02*
X47600Y15152D01*
X47515Y14981D02*
Y15066D01*
Y14981D02*
X47679Y14817D01*
Y14732D02*
Y14817D01*
X47647Y14700D02*
X47679Y14732D01*
X48065Y15118D02*
X48184Y15238D01*
X47286Y14339D02*
X47647Y14700D01*
X48184Y16246D02*
Y16340D01*
X48124Y16186D02*
X48184Y16246D01*
X47673Y16186D02*
X48124D01*
X47612Y16125D02*
X47673Y16186D01*
X47612Y16005D02*
Y16125D01*
Y16005D02*
X47673Y15944D01*
X48759D01*
X48819Y15884D01*
Y15763D02*
Y15884D01*
X48759Y15703D02*
X48819Y15763D01*
X47673Y15703D02*
X48759D01*
X47612Y15643D02*
X47673Y15703D01*
X47612Y15522D02*
Y15643D01*
Y15522D02*
X47673Y15462D01*
X48124D01*
X48184Y15401D01*
Y15357D02*
Y15401D01*
Y16340D02*
Y16754D01*
Y15238D02*
Y15244D01*
Y15357D01*
X45542Y13741D02*
X47396Y15596D01*
X46584Y19598D02*
Y20904D01*
X46705Y19478D02*
X46926D01*
X46197Y19236D02*
X46926D01*
X46197Y18995D02*
X46464D01*
X46584Y18830D02*
Y18874D01*
Y20904D02*
Y21026D01*
Y15958D02*
Y18830D01*
X46635Y21076D02*
X46685Y21126D01*
X46584Y21026D02*
X46635Y21076D01*
X46685Y21126D02*
Y21212D01*
X44865Y18736D02*
X45297Y18304D01*
X45685D01*
X45745Y18243D01*
Y18123D02*
Y18243D01*
X45685Y18062D02*
X45745Y18123D01*
X45014Y18062D02*
X45685D01*
X44954Y18002D02*
X45014Y18062D01*
X44954Y17881D02*
Y18002D01*
Y17881D02*
X45014Y17821D01*
X45780D01*
X45824Y17777D01*
X44806Y18795D02*
X44865Y18736D01*
X44806Y18795D02*
Y18828D01*
Y18872D01*
X44773Y18828D02*
X44806Y18795D01*
X43240Y16071D02*
X44468Y17299D01*
X43154Y16071D02*
X43240D01*
X42937Y16288D02*
X43154Y16071D01*
X42852Y16288D02*
X42937D01*
X42767Y16202D02*
X42852Y16288D01*
X42767Y16117D02*
Y16202D01*
Y16117D02*
X43093Y15791D01*
Y15706D02*
Y15791D01*
X43007Y15620D02*
X43093Y15706D01*
X42922Y15620D02*
X43007D01*
X42203Y16340D02*
X42922Y15620D01*
X42117Y16340D02*
X42203D01*
X42032Y16255D02*
X42117Y16340D01*
X42032Y16169D02*
Y16255D01*
Y16169D02*
X42662Y15540D01*
Y15454D02*
Y15540D01*
X42576Y15369D02*
X42662Y15454D01*
X42491Y15369D02*
X42576D01*
X41861Y15999D02*
X42491Y15369D01*
X41776Y15999D02*
X41861D01*
X41691Y15913D02*
X41776Y15999D01*
X41691Y15828D02*
Y15913D01*
Y15828D02*
X41979Y15540D01*
Y15454D02*
Y15540D01*
X41894Y15369D02*
X41979Y15454D01*
X41808Y15369D02*
X41894D01*
X41603Y15575D02*
X41808Y15369D01*
X41517Y15575D02*
X41603D01*
X41315Y15373D02*
X41517Y15575D01*
X44468Y17299D02*
X44586Y17417D01*
X40847Y14905D02*
X41315Y15373D01*
X37985Y16228D02*
Y16553D01*
X37912Y16155D02*
X37985Y16228D01*
X37308Y16155D02*
X37912D01*
X37248Y16095D02*
X37308Y16155D01*
X37248Y15974D02*
Y16095D01*
Y15974D02*
X37308Y15914D01*
X38132D01*
X38193Y15853D01*
Y15733D02*
Y15853D01*
X38132Y15672D02*
X38193Y15733D01*
X37004Y15672D02*
X38132D01*
X36944Y15612D02*
X37004Y15672D01*
X36944Y15492D02*
Y15612D01*
Y15492D02*
X37004Y15431D01*
X37882D01*
X37943Y15371D01*
Y15326D02*
Y15371D01*
X37985Y16553D02*
Y17522D01*
X37943Y15118D02*
Y15326D01*
X37651Y14826D02*
X37943Y15118D01*
X37651Y14523D02*
Y14826D01*
X39335Y4512D02*
Y4844D01*
X39072Y4249D02*
X39335Y4512D01*
X39072Y4123D02*
Y4249D01*
X39012Y4062D02*
X39072Y4123D01*
X16035Y25157D02*
X16162Y25030D01*
X15951Y25157D02*
X16035D01*
X16162Y25030D02*
X25146D01*
X24636Y23523D02*
X27062D01*
X19226D02*
X22677D01*
X24139Y23026D02*
X24636Y23523D01*
X23174Y23026D02*
X24139D01*
X22677Y23523D02*
X23174Y23026D01*
X27062Y23523D02*
X27886Y22698D01*
X18050Y22347D02*
X19226Y23523D01*
X53505Y6337D02*
X54064Y6896D01*
Y10025D01*
X53070Y5191D02*
X53505Y5626D01*
Y6337D01*
X31717Y22098D02*
X35449D01*
X31117Y22698D02*
X31717Y22098D01*
X35550Y22200D02*
X35636D01*
X35449Y22098D02*
X35550Y22200D01*
X27886Y22698D02*
X31117D01*
X51585Y2761D02*
X51943Y2403D01*
X53217D02*
X55039Y4224D01*
X51943Y2403D02*
X53217D01*
X48763Y2761D02*
X51585D01*
X54389Y5341D02*
Y9750D01*
X52459Y3412D02*
X54389Y5341D01*
X49220Y3412D02*
X52459D01*
X52402Y5191D02*
X53070D01*
X48112Y10308D02*
X49627Y11823D01*
Y12111D02*
X51014Y13499D01*
X49627Y11823D02*
Y12111D01*
X48629Y12510D02*
X48976Y12857D01*
X51471Y15352D01*
X48629Y11922D02*
Y12510D01*
X51471Y15352D02*
Y18364D01*
X48976Y13548D02*
X51054Y15626D01*
X47138Y11710D02*
X48976Y13548D01*
X51054Y15626D02*
Y18486D01*
X52681Y20113D01*
X51471Y18364D02*
X52791Y19685D01*
X53489Y19321D02*
X54701Y20533D01*
Y21613D02*
X56022Y22934D01*
X54701Y20533D02*
Y21613D01*
X53026Y19321D02*
X53489D01*
X52791Y19685D02*
X53203D01*
X48976Y13990D02*
X50599Y15614D01*
X45224Y10239D02*
X48976Y13990D01*
X50599Y18979D02*
X51411Y19790D01*
X50599Y15614D02*
Y18979D01*
X51958Y15082D02*
Y18252D01*
X53026Y19321D01*
X49128Y12253D02*
X51958Y15082D01*
X49128Y11771D02*
Y12253D01*
X48976Y11618D02*
X49128Y11771D01*
X47662Y10305D02*
X48976Y11618D01*
X44080Y8939D02*
X45914D01*
X46564Y9589D02*
X47071D01*
X45914Y8939D02*
X46564Y9589D01*
X47308Y10601D02*
X48629Y11922D01*
X47308Y9826D02*
Y10601D01*
X47071Y9589D02*
X47308Y9826D01*
X47662Y9655D02*
Y10305D01*
X46293Y8286D02*
X47662Y9655D01*
X49198Y9529D02*
X52665Y12995D01*
X54000D01*
X48829Y9846D02*
X52470Y13486D01*
X48829Y8680D02*
Y9846D01*
X52470Y13486D02*
X54705D01*
X51408Y10621D02*
X52878D01*
X49906Y7902D02*
Y9119D01*
X51408Y10621D01*
X49198Y8388D02*
Y9529D01*
X49577Y9318D02*
X51262Y11002D01*
X49577Y8200D02*
Y9318D01*
X51262Y11002D02*
X52608D01*
X51890Y8261D02*
Y9376D01*
X50177Y7663D02*
X51292D01*
X51890Y8261D01*
Y9376D02*
X52517Y10002D01*
Y8371D02*
Y9402D01*
X51325Y7179D02*
X52517Y8371D01*
X50295Y7179D02*
X51325D01*
X49128Y6012D02*
X50295Y7179D01*
X51890Y4680D02*
X52402Y5191D01*
X40285Y1639D02*
Y2083D01*
Y2736D01*
X39762Y1116D02*
X40285Y1639D01*
Y2736D02*
X42912Y5362D01*
X37885Y1116D02*
X39762D01*
X51127Y13598D02*
X51213D01*
X51028Y13499D02*
X51127Y13598D01*
X51014Y13499D02*
X51028D01*
X48112Y9262D02*
Y10308D01*
X48438Y10063D02*
X52274Y13900D01*
X48438Y8939D02*
Y10063D01*
X52274Y13900D02*
X55539D01*
X52608Y11002D02*
X54000Y12395D01*
X55039Y4224D02*
Y9200D01*
X54714Y4400D02*
Y9475D01*
X52108Y2654D02*
X52968D01*
X54714Y4400D01*
X26636Y12680D02*
X27251Y13295D01*
X28357D02*
X28959Y13897D01*
X27251Y13295D02*
X28357D01*
X33385Y15612D02*
Y19390D01*
X32610Y14837D02*
X33385Y15612D01*
Y19390D02*
X35636Y21641D01*
X28959Y13897D02*
X32416D01*
X33945Y19391D02*
X35535Y20980D01*
X32416Y13897D02*
X33945Y15426D01*
Y19391D01*
X27886Y14837D02*
X32610D01*
X26111Y13062D02*
X27886Y14837D01*
X26111Y12405D02*
X26636Y11880D01*
X26111Y12405D02*
Y13062D01*
X47788Y13947D02*
X48976Y15134D01*
X49906Y16065D01*
Y21503D01*
X50851Y22448D01*
X51411Y19790D02*
Y21910D01*
X33990Y4028D02*
X34013Y4006D01*
X33530Y4488D02*
X33990Y4028D01*
X35733Y2286D02*
X35859Y2159D01*
X33530Y4488D02*
Y4680D01*
X35859Y2159D02*
X38409D01*
X33385Y4825D02*
X33530Y4680D01*
X33181Y5029D02*
X33181D01*
X33385Y4825D02*
Y4825D01*
X31836Y5080D02*
X33130D01*
X33181Y5029D01*
X33181D02*
X33385Y4825D01*
X33258Y4194D02*
X33726Y3726D01*
X35613Y1839D01*
X32722Y4194D02*
X33258D01*
X35613Y1839D02*
X38644D01*
X46456Y12167D02*
X46812Y12522D01*
X45835Y12050D02*
X45952Y12167D01*
X46456D01*
X45219Y15750D02*
X45824Y16355D01*
Y17777D01*
X43442Y15750D02*
X45219D01*
X42079Y14139D02*
X42672Y14732D01*
Y14980D02*
X43442Y15750D01*
X42672Y14732D02*
Y14980D01*
X39988Y14139D02*
X42079D01*
X45835Y11728D02*
Y12050D01*
X46812Y12522D02*
Y12970D01*
X39985Y4194D02*
X40829Y5037D01*
X38685Y4844D02*
X38879Y5037D01*
X38362Y4062D02*
X38685Y4386D01*
Y4844D01*
X48144Y4680D02*
X51890D01*
X51666Y5037D02*
X53731Y7102D01*
X47787Y5037D02*
X51666D01*
X47462Y5362D02*
X47462D01*
X47787Y5037D01*
X39160Y17417D02*
Y17449D01*
X39010Y17598D02*
X39160Y17449D01*
X38880Y17598D02*
X39010D01*
X38734Y17453D02*
X38880Y17598D01*
X38734Y16016D02*
Y17453D01*
X41185Y18701D02*
Y19023D01*
X40385Y17573D02*
X40658Y17845D01*
X41185Y19023D02*
X41459Y19297D01*
X35997Y10455D02*
Y11341D01*
X36195Y11539D01*
X35997Y10455D02*
X36864Y9587D01*
X37845D01*
X37651Y14523D02*
X37712Y14462D01*
X38038Y12378D02*
Y14597D01*
X38409Y14967D01*
X39146Y10239D02*
X39335Y10428D01*
X38877Y10239D02*
X39146D01*
X39335Y10428D02*
Y10697D01*
X39145Y10887D02*
X39335Y10697D01*
X38879Y10887D02*
X39145D01*
X38036Y11080D02*
Y11996D01*
X38229Y10887D02*
X38495D01*
X38036Y11080D02*
X38229Y10887D01*
X38409Y14967D02*
Y15690D01*
X38686Y11080D02*
Y11996D01*
Y11080D02*
X38879Y10887D01*
X38686Y10430D02*
X38877Y10239D01*
X38686Y10430D02*
Y10696D01*
X38495Y10887D02*
X38686Y10696D01*
X38409Y15690D02*
X38734Y16016D01*
X38038Y12378D02*
X38229Y12187D01*
X38495D01*
X38686Y11996D01*
X37845Y12187D02*
X38036Y11996D01*
X37579Y12187D02*
X37845D01*
X37388Y12378D02*
X37579Y12187D01*
X37388Y12378D02*
Y12644D01*
X37206Y12826D02*
X37388Y12644D01*
X37206Y12826D02*
Y13102D01*
X37146Y13162D02*
X37206Y13102D01*
X36271Y17744D02*
X37004Y18477D01*
X40099D02*
X40370Y18748D01*
X37004Y18477D02*
X40099D01*
X39585Y16420D02*
Y16754D01*
X40146Y16996D02*
X40385Y17235D01*
Y17573D01*
X39585Y16754D02*
Y16773D01*
X39809Y16996D01*
X40146D01*
X39585Y16754D02*
X39585Y16754D01*
X38360Y17417D02*
Y17455D01*
X38038Y17777D02*
X38360Y17455D01*
X37062Y17844D02*
Y18058D01*
X38094Y17927D02*
X39585D01*
X37062Y17844D02*
X37114Y17792D01*
X37062Y18058D02*
X37188Y18184D01*
X38038Y17870D02*
X38094Y17927D01*
X37114Y17792D02*
X37715D01*
X38038Y17777D02*
Y17870D01*
X37715Y17792D02*
X37985Y17522D01*
X37188Y18184D02*
X39610D01*
X39662Y18132D01*
Y18003D02*
Y18132D01*
X39585Y17927D02*
X39662Y18003D01*
X36195Y11539D02*
X37196D01*
X37845Y9587D02*
X38038Y9781D01*
Y10239D02*
X38362Y10562D01*
X38038Y9781D02*
Y10239D01*
X37387Y11729D02*
Y11995D01*
X37196Y11539D02*
X37387Y11729D01*
X35916Y18712D02*
X36274Y19070D01*
Y20300D02*
X36735Y20760D01*
X36274Y19070D02*
Y20300D01*
X36735Y20760D02*
X37524D01*
X38498Y19786D02*
Y19786D01*
X37524Y20760D02*
X38498Y19786D01*
X39012Y19272D02*
X39555D01*
X38498Y19786D02*
X39012Y19272D01*
X35916Y12358D02*
Y18712D01*
X39555Y19272D02*
X39960Y18867D01*
X36542Y16100D02*
X36685Y16243D01*
X36915D01*
X37185Y16513D01*
Y17043D01*
X36542Y15440D02*
Y16100D01*
X48184Y16754D02*
Y16957D01*
X47246Y14299D02*
X47286Y14339D01*
X45836Y13029D02*
Y13476D01*
X46660Y14300D02*
X47244D01*
X45836Y13476D02*
X46660Y14300D01*
X48941Y18217D02*
X49459Y18736D01*
X47662Y18217D02*
X48941D01*
X49459Y18736D02*
Y22205D01*
X44983Y13741D02*
X45542D01*
X44537Y13295D02*
X44983Y13741D01*
X47396Y17952D02*
X47662Y18217D01*
X47396Y15596D02*
Y17952D01*
X43562Y12512D02*
X43888Y12839D01*
X44346D02*
X44537Y13029D01*
X43888Y12839D02*
X44346D01*
X44537Y13029D02*
Y13295D01*
X45953Y15326D02*
X46584Y15958D01*
X45574Y14948D02*
X45953Y15326D01*
X42734Y18662D02*
Y18989D01*
X43254Y19508D02*
X43956D01*
X42734Y18989D02*
X43254Y19508D01*
X44285Y18542D02*
Y19082D01*
X39636Y15171D02*
X39791Y15326D01*
X39987Y15522D01*
X39636Y14488D02*
Y15171D01*
X39987Y15522D02*
X40995D01*
X43956Y19508D02*
X45623Y21175D01*
X45848D02*
X45885Y21212D01*
X45623Y21175D02*
X45848D01*
X45835Y21793D02*
X46259Y21368D01*
X45410Y21926D02*
Y22217D01*
X45543Y21793D02*
X45835D01*
X45410Y21926D02*
X45543Y21793D01*
X43426Y17683D02*
X44285Y18542D01*
X43160Y17683D02*
X43426D01*
X42520Y17043D02*
X43160Y17683D01*
X46259Y20934D02*
Y21368D01*
X45730Y20757D02*
X46082D01*
X44285Y19082D02*
X45220Y20018D01*
Y20247D01*
X45730Y20757D01*
X46082D02*
X46259Y20934D01*
X39338Y12836D02*
Y15265D01*
X42515Y17043D02*
X42520D01*
X40995Y15522D02*
X42515Y17043D01*
X40962Y19641D02*
Y20633D01*
X40370Y18748D02*
Y19050D01*
X40962Y19641D01*
X51676Y3086D02*
X52108Y2654D01*
X49088Y3086D02*
X51676D01*
X47787Y5687D02*
X50359D01*
X53089Y8417D02*
Y10217D01*
X50359Y5687D02*
X53089Y8417D01*
X48112Y6012D02*
X49128D01*
X52681Y20113D02*
Y22082D01*
X53619Y20102D02*
Y21924D01*
X53203Y19685D02*
X53619Y20102D01*
X40691Y20904D02*
X40962Y20633D01*
X54889Y24867D02*
X56022Y23734D01*
Y22934D02*
Y23734D01*
X54854Y23561D02*
X54889Y23597D01*
X54226Y22457D02*
X55055Y23287D01*
X54153Y22457D02*
X54226D01*
X55055Y23287D02*
X55128D01*
X53619Y21924D02*
X54153Y22457D01*
X52681Y22082D02*
X53055Y22457D01*
X53584Y23561D02*
X53619Y23597D01*
X53055Y22470D02*
X53858Y23273D01*
X53055Y22457D02*
Y22470D01*
X53858Y23273D02*
Y23287D01*
X52018Y22518D02*
Y22717D01*
X51958Y22457D02*
X52018Y22518D01*
Y22717D02*
X52588Y23287D01*
X51411Y21910D02*
X51958Y22457D01*
X51359Y23136D02*
Y23419D01*
X50860Y22457D02*
X50921Y22518D01*
Y22698D02*
X51359Y23136D01*
X50921Y22518D02*
Y22698D01*
X50851Y22448D02*
Y22454D01*
X52349Y23351D02*
Y23597D01*
X36739Y25405D02*
X36760Y25425D01*
X36739Y25089D02*
Y25405D01*
X36243Y24593D02*
X36739Y25089D01*
X34995Y24593D02*
X36243D01*
X34620Y24218D02*
X34995Y24593D01*
X29161Y24155D02*
X29473Y23844D01*
X31117D01*
X31491Y24218D01*
X34620D01*
X25146Y25030D02*
X26020Y24155D01*
X29161D01*
X32236Y4680D02*
X32722Y4194D01*
X38644Y1839D02*
X39335Y2531D01*
Y2897D01*
X39143Y3089D02*
X39335Y2897D01*
X38685Y3089D02*
X39143D01*
X38362Y3412D02*
X38685Y3089D01*
X37410Y641D02*
X37885Y1116D01*
X47788Y4386D02*
X48246D01*
X47462Y4712D02*
X47788Y4386D01*
X45200Y5689D02*
X45659D01*
X44537Y5025D02*
X45200Y5689D01*
X44537Y2922D02*
Y5025D01*
X43888Y3018D02*
Y5737D01*
X44487Y6336D01*
X45185D01*
X43370Y2500D02*
X43888Y3018D01*
X44114Y2500D02*
X44537Y2922D01*
X45838Y5867D02*
Y6339D01*
X45659Y5689D02*
X45838Y5867D01*
Y6339D02*
X46162Y6662D01*
X45185Y6336D02*
X45512Y6662D01*
X33990Y12371D02*
X35027Y11335D01*
Y10058D02*
X35733Y9352D01*
X36297Y8788D01*
X35027Y10058D02*
Y11335D01*
X33990Y11660D02*
X34620Y11030D01*
Y10033D02*
X35733Y8921D01*
X34620Y10033D02*
Y11030D01*
X33990Y10883D02*
X34214Y10660D01*
Y10038D02*
X35733Y8519D01*
X34214Y10038D02*
Y10660D01*
X33782Y10004D02*
X33990Y9796D01*
X33490Y10680D02*
X33782Y10389D01*
X33990Y9796D02*
X35585Y8200D01*
X33782Y10004D02*
Y10389D01*
X48112Y4712D02*
X48144Y4680D01*
X52878Y10621D02*
X54957Y12700D01*
X51495Y5362D02*
X53414Y7282D01*
X48112Y5362D02*
X51495D01*
X53731Y7102D02*
Y10290D01*
X48246Y4386D02*
X49220Y3412D01*
X48112Y4062D02*
X49088Y3086D01*
X47462Y4062D02*
X48763Y2761D01*
X48667Y6662D02*
X49906Y7902D01*
X48112Y6662D02*
X48667D01*
X48852Y6337D02*
X50177Y7663D01*
X48364Y6987D02*
X49577Y8200D01*
X48123Y7312D02*
X49198Y8388D01*
X48112Y7962D02*
X48829Y8680D01*
X47462Y7962D02*
X48438Y8939D01*
X44077Y8286D02*
X46293D01*
X43235Y8094D02*
X44080Y8939D01*
X44077Y9586D02*
X45037D01*
X47138Y11081D02*
Y11710D01*
X46943Y10886D02*
X47138Y11081D01*
X46677Y10886D02*
X46943D01*
X46485Y10694D02*
X46677Y10886D01*
X46485Y10428D02*
Y10694D01*
X46064Y10007D02*
X46485Y10428D01*
X45458Y10007D02*
X46064D01*
X45037Y9586D02*
X45458Y10007D01*
X40829Y5037D02*
X41095D01*
X41285Y5228D01*
Y5494D01*
X53414Y7282D02*
Y10582D01*
X47788Y13687D02*
Y13947D01*
X47587Y13486D02*
X47788Y13687D01*
X47327Y13486D02*
X47587D01*
X46812Y12970D02*
X47327Y13486D01*
X44996Y10889D02*
X45835Y11728D01*
X44080Y10889D02*
X44996D01*
X43886Y10695D02*
X44080Y10889D01*
X43886Y10429D02*
Y10695D01*
X43695Y10237D02*
X43886Y10429D01*
X43429Y10237D02*
X43695D01*
X43235Y10044D02*
X43429Y10237D01*
X43235Y9778D02*
Y10044D01*
X43043Y9586D02*
X43235Y9778D01*
X42777Y9586D02*
X43043D01*
X41288Y8097D02*
X42777Y9586D01*
X41288Y7831D02*
Y8097D01*
X41095Y7638D02*
X41288Y7831D01*
X40829Y7638D02*
X41095D01*
X40636Y7445D02*
X40829Y7638D01*
X40636Y7179D02*
Y7445D01*
X40445Y6988D02*
X40636Y7179D01*
X40179Y6988D02*
X40445D01*
X39986Y6795D02*
X40179Y6988D01*
X39986Y6529D02*
Y6795D01*
X39795Y6338D02*
X39986Y6529D01*
X39529Y6338D02*
X39795D01*
X39336Y6145D02*
X39529Y6338D01*
X39336Y5879D02*
Y6145D01*
X39145Y5688D02*
X39336Y5879D01*
X38879Y5688D02*
X39145D01*
X38686Y5495D02*
X38879Y5688D01*
X38686Y5229D02*
Y5495D01*
X38495Y5037D02*
X38686Y5229D01*
X38229Y5037D02*
X38495D01*
X38035Y4844D02*
X38229Y5037D01*
X38035Y4386D02*
Y4844D01*
X37712Y4062D02*
X38035Y4386D01*
X44080Y10239D02*
X45224D01*
X43695Y9587D02*
X43886Y9779D01*
Y10045D02*
X44080Y10239D01*
X43235Y9128D02*
Y9394D01*
X43429Y9587D02*
X43695D01*
X41287Y7445D02*
X41480Y7639D01*
X41746D01*
X43235Y9128D01*
X40830Y6989D02*
X41096D01*
X41287Y7179D01*
Y7445D01*
X40638Y6797D02*
X40830Y6989D01*
X40638Y6389D02*
Y6797D01*
X40585Y6336D02*
X40638Y6389D01*
X43235Y9394D02*
X43429Y9587D01*
X43886Y9779D02*
Y10045D01*
X40177Y6336D02*
X40585D01*
X39795Y5688D02*
X39986Y5879D01*
Y6145D02*
X40177Y6336D01*
X39529Y5688D02*
X39795D01*
X39336Y5495D02*
X39529Y5688D01*
X39986Y5879D02*
Y6145D01*
X39336Y5229D02*
Y5495D01*
X38879Y5037D02*
X39145D01*
X39336Y5229D01*
X41286Y6795D02*
X41480Y6989D01*
X41286Y6529D02*
Y6795D01*
X41095Y6338D02*
X41286Y6529D01*
X40829Y6338D02*
X41095D01*
X40636Y6145D02*
X40829Y6338D01*
X40636Y5879D02*
Y6145D01*
X40445Y5688D02*
X40636Y5879D01*
X40179Y5688D02*
X40445D01*
X39986Y5495D02*
X40179Y5688D01*
X43885Y9394D02*
X44077Y9586D01*
X39986Y5229D02*
Y5495D01*
X43885Y9128D02*
Y9394D01*
X39795Y5037D02*
X39986Y5229D01*
X43208Y8450D02*
X43885Y9128D01*
X39529Y5037D02*
X39795D01*
X42942Y8450D02*
X43208D01*
X39335Y4844D02*
X39529Y5037D01*
X42262Y7770D02*
X42942Y8450D01*
X42262Y7504D02*
Y7770D01*
X41746Y6989D02*
X42262Y7504D01*
X41480Y6989D02*
X41746D01*
X43888Y8097D02*
X44071Y8280D01*
X44071D02*
X44077Y8286D01*
X44071Y8280D02*
X44071D01*
X44402Y12186D02*
X44780D01*
X45644Y12837D02*
X45836Y13029D01*
X45378Y12837D02*
X45644D01*
X45187Y12645D02*
X45378Y12837D01*
X45187Y12379D02*
Y12645D01*
X44996Y12189D02*
X45187Y12379D01*
X44780Y12186D02*
X44783Y12189D01*
X44996D01*
X43235Y7828D02*
Y8094D01*
X43043Y7636D02*
X43235Y7828D01*
X42777Y7636D02*
X43043D01*
X42262Y7120D02*
X42777Y7636D01*
X42262Y6854D02*
Y7120D01*
X41746Y6339D02*
X42262Y6854D01*
X41480Y6339D02*
X41746D01*
X41286Y6145D02*
X41480Y6339D01*
X41286Y5879D02*
Y6145D01*
X41095Y5688D02*
X41286Y5879D01*
X40829Y5688D02*
X41095D01*
X40636Y5495D02*
X40829Y5688D01*
X40636Y5229D02*
Y5495D01*
X39795Y4387D02*
X40636Y5229D01*
X39529Y4387D02*
X39795D01*
X39335Y4194D02*
X39529Y4387D01*
X39335Y3736D02*
Y4194D01*
X39012Y3412D02*
X39335Y3736D01*
X43888Y7831D02*
Y8097D01*
X43695Y7637D02*
X43888Y7831D01*
X43429Y7637D02*
X43695D01*
X43235Y7444D02*
X43429Y7637D01*
X43235Y7178D02*
Y7444D01*
X43043Y6986D02*
X43235Y7178D01*
X42777Y6986D02*
X43043D01*
X42262Y6470D02*
X42777Y6986D01*
X42262Y6204D02*
Y6470D01*
X41746Y5689D02*
X42262Y6204D01*
X41480Y5689D02*
X41746D01*
X41285Y5494D02*
X41480Y5689D01*
X39985Y3736D02*
Y4194D01*
X39662Y3412D02*
X39985Y3736D01*
X33393Y11480D02*
X33990Y10883D01*
X35733Y8519D02*
X35916Y8336D01*
X33370Y12280D02*
X33990Y11660D01*
X33324Y9475D02*
X33990Y8809D01*
X35052Y7747D01*
X30630Y9475D02*
X33324D01*
X35052Y6152D02*
Y7747D01*
X33990Y9342D02*
X35306Y8026D01*
X33452Y9880D02*
X33990Y9342D01*
X32636Y9880D02*
X33452D01*
X35306Y6468D02*
Y8026D01*
X31036Y10680D02*
X33490D01*
X35733Y8921D02*
X36265Y8388D01*
X38394D02*
X38688Y8094D01*
X36297Y8788D02*
X38644D01*
X39338Y8094D01*
X36265Y8388D02*
X38394D01*
X35916Y7436D02*
X36365Y6986D01*
X38038D01*
X35916Y7436D02*
Y8336D01*
X36271Y15253D02*
Y17744D01*
X36930Y14139D02*
X37196D01*
X37385Y14328D02*
Y14597D01*
X37196Y14139D02*
X37385Y14328D01*
X37185Y17043D02*
X37560Y17417D01*
X36542Y15440D02*
X37385Y14597D01*
X36738Y13947D02*
X36930Y14139D01*
X36738Y12378D02*
Y13947D01*
X36929Y12187D02*
X37195D01*
X36738Y12378D02*
X36929Y12187D01*
X37195D02*
X37387Y11995D01*
X36271Y15253D02*
X37062Y14462D01*
X40691Y21483D02*
X40984Y21777D01*
X40691Y20904D02*
Y21483D01*
X40984Y22442D02*
X41560Y23017D01*
X40984Y21777D02*
Y22442D01*
X35916Y12358D02*
X36412Y11862D01*
X39338Y15265D02*
X42734Y18662D01*
X43957Y14948D02*
X45574D01*
X44586Y17417D02*
X45410D01*
X41459Y19297D02*
Y22168D01*
X41410Y22217D02*
X41459Y22168D01*
X38688Y15522D02*
X39585Y16420D01*
X38688Y12378D02*
X38880Y12186D01*
X39146D01*
X39338Y11994D01*
X38688Y12378D02*
Y15522D01*
X39338Y11536D02*
X39662Y11212D01*
X39338Y11536D02*
Y11994D01*
X39960Y14905D02*
X40847D01*
X39662Y13812D02*
X39988Y14139D01*
X43238Y12186D02*
Y14229D01*
X43957Y14948D01*
X43235Y11539D02*
X43754D01*
X44402Y12186D01*
X39636Y14488D02*
X39662Y14462D01*
X39338Y12836D02*
X39662Y12512D01*
X48590Y17363D02*
Y17450D01*
X48184Y16957D02*
X48590Y17363D01*
X42912Y11862D02*
X43235Y11539D01*
X43238Y12186D02*
X43562Y11862D01*
X33656Y7080D02*
X33990Y6746D01*
X34138Y6599D01*
Y5309D02*
X35733Y3714D01*
X34138Y5309D02*
Y6599D01*
X35733Y4450D02*
X36120Y4062D01*
X34601Y5582D02*
X35733Y4450D01*
X36120Y4062D02*
X36412D01*
X34601Y5582D02*
Y7048D01*
X35733Y3714D02*
X36034Y3412D01*
X36542D01*
X36868Y3086D02*
X37388D01*
X36542Y3412D02*
X36868Y3086D01*
X36906Y2718D02*
Y2726D01*
X36546Y3086D02*
X36906Y2726D01*
X35995Y3086D02*
X36546D01*
X36274Y2442D02*
X36277Y2439D01*
X33185Y5880D02*
X33528Y5537D01*
Y5182D02*
X36271Y2438D01*
X33528Y5182D02*
Y5537D01*
X31036Y5880D02*
X33185D01*
X35733Y5471D02*
X36165Y5039D01*
X35052Y6152D02*
X35733Y5471D01*
X35306Y6468D02*
X35733Y6041D01*
X36085Y5689D01*
X36474Y6337D02*
X38687D01*
X35585Y6909D02*
X36156Y6339D01*
X36474D01*
X35585Y6909D02*
Y8200D01*
X29436Y11480D02*
X33393D01*
X33281Y13080D02*
X33990Y12371D01*
X30236Y13080D02*
X33281D01*
X29436Y12280D02*
X33370D01*
X33990Y8241D02*
X34817Y7414D01*
X33151Y9080D02*
X33990Y8241D01*
X31036Y9080D02*
X33151D01*
X34817Y5737D02*
Y7414D01*
X36277Y2439D02*
X38038D01*
X33910Y5172D02*
X35995Y3086D01*
X34385Y5430D02*
X36078Y3737D01*
X37387D01*
X36166Y4389D02*
X36738D01*
X34817Y5737D02*
X36166Y4389D01*
X36165Y5039D02*
X36738D01*
X33571Y6700D02*
X33910Y6361D01*
X30522Y6700D02*
X33571D01*
X32877Y7080D02*
X33656D01*
X34385Y5430D02*
Y6783D01*
X33688Y7480D02*
X34385Y6783D01*
X33369Y8280D02*
X34601Y7048D01*
X32636Y8280D02*
X33369D01*
X36085Y5689D02*
X38038D01*
X37387Y3737D02*
X37712Y3412D01*
X33910Y5172D02*
Y6361D01*
X38409Y2159D02*
X39012Y2762D01*
X38038Y2439D02*
X38362Y2762D01*
X37388Y3086D02*
X37712Y2762D01*
X36738Y4389D02*
X37062Y4712D01*
X36738Y5039D02*
X37062Y5362D01*
X38038Y5689D02*
X38362Y6012D01*
X38687Y6337D02*
X39012Y6662D01*
X38038Y6986D02*
X38362Y6662D01*
X38688Y7178D02*
Y8094D01*
Y7178D02*
X38880Y6986D01*
X39338D01*
X39662Y6662D01*
X39338Y7636D02*
X39662Y7312D01*
X39338Y7636D02*
Y8094D01*
X29836Y8680D02*
X30630Y9475D01*
X28779Y7480D02*
X32477D01*
X32877Y7080D01*
X30636Y8680D02*
X31036Y9080D01*
X30636Y7880D02*
Y8680D01*
Y11080D02*
X31036Y10680D01*
X29036Y12680D02*
X29436Y12280D01*
X29836Y12680D02*
X30236Y13080D01*
X32236Y10280D02*
X32636Y9880D01*
X32236Y8680D02*
X32636Y8280D01*
X32236Y8680D02*
Y8680D01*
X29036Y11880D02*
X29436Y11480D01*
X28636Y6723D02*
Y7337D01*
X28779Y7480D01*
X28236Y6323D02*
X28636Y6723D01*
X28236Y5480D02*
Y6323D01*
X30210Y5854D02*
Y6388D01*
X29836Y5480D02*
X30210Y5854D01*
Y6388D02*
X30522Y6700D01*
X30636Y5480D02*
X30636D01*
X31036Y5880D01*
X31436Y4680D02*
X31836Y5080D01*
X47462Y6012D02*
X47784Y5690D01*
X54714Y9475D02*
X55541Y10302D01*
X55039Y9200D02*
X55541Y9702D01*
X55039Y11339D02*
X55201Y11502D01*
X54064Y10025D02*
X55039Y11000D01*
Y11339D01*
X55201Y11502D02*
X55541D01*
X53731Y10290D02*
X54534Y11093D01*
X55053Y12102D02*
X55541D01*
X54534Y11582D02*
X55053Y12102D01*
X54534Y11093D02*
Y11582D01*
X53414Y10582D02*
X54000Y11168D01*
X53033Y10272D02*
X53089Y10217D01*
X54389Y9750D02*
X55541Y10902D01*
X54000Y11168D02*
Y11213D01*
X47462Y6662D02*
X47787Y6337D01*
X47462Y6662D02*
X47462D01*
X47787Y6337D02*
X48852D01*
X47787Y6987D02*
X48364D01*
X48112Y7312D02*
X48123D01*
X54889Y13302D02*
X55541D01*
X54705Y13486D02*
X54889Y13302D01*
X55539Y12700D02*
X55541Y12702D01*
X54957Y12700D02*
X55539D01*
Y13900D02*
X55541Y13902D01*
X47462Y7312D02*
X47787Y6987D01*
X47462Y7312D02*
X47462D01*
D122*
X55128Y24557D02*
D03*
X53858D02*
D03*
X52588Y23287D02*
D03*
X53858D02*
D03*
X55128D02*
D03*
D123*
X51318D02*
D03*
D125*
X16800Y1232D02*
D03*
X11156Y1238D02*
D03*
X11223Y24714D02*
D03*
X9973D02*
D03*
M02*
