G04*
G04 #@! TF.GenerationSoftware,Altium Limited,Altium Designer,21.3.2 (30)*
G04*
G04 Layer_Color=8421504*
%FSLAX43Y43*%
%MOMM*%
G71*
G04*
G04 #@! TF.SameCoordinates,AF92D2DE-8466-4D58-AFAE-29A769C4C8C3*
G04*
G04*
G04 #@! TF.FilePolarity,Positive*
G04*
G01*
G75*
%ADD16C,0.254*%
%ADD25R,0.450X0.300*%
%ADD26R,0.400X0.300*%
%ADD27R,0.300X0.400*%
%ADD28R,0.350X0.450*%
%ADD29R,0.508X0.635*%
%ADD30C,0.800*%
%ADD31R,0.500X1.500*%
%ADD32O,0.500X1.500*%
%ADD33R,0.670X0.300*%
%ADD34R,0.635X0.508*%
%ADD35R,0.450X0.350*%
%ADD36R,0.597X0.711*%
%ADD37R,0.965X0.800*%
%ADD38O,2.000X0.686*%
%ADD39R,2.000X0.686*%
%ADD40R,0.550X0.200*%
%ADD41R,0.550X0.400*%
%ADD42R,1.450X0.550*%
%ADD43R,1.450X0.550*%
%ADD44R,0.260X0.880*%
%ADD45R,0.260X0.780*%
%ADD46R,0.880X0.260*%
%ADD47R,0.780X0.260*%
%ADD48R,4.080X4.080*%
%ADD49R,1.500X0.900*%
%ADD50R,0.600X0.350*%
%ADD51R,1.300X1.400*%
%ADD52C,0.400*%
%ADD53R,1.000X0.700*%
%ADD54O,1.100X0.300*%
%ADD55R,1.100X0.300*%
%ADD56R,0.914X0.914*%
%ADD57R,0.914X1.270*%
%ADD58R,2.800X3.800*%
%ADD59R,3.500X0.800*%
%ADD60C,0.250*%
G36*
X31182Y22078D02*
Y19493D01*
X28597D01*
X28597Y22078D01*
X31182Y22078D01*
D02*
G37*
D16*
X57260Y5500D02*
G03*
X58260Y4500I1000J0D01*
G01*
X59260Y3500D02*
G03*
X58260Y4500I-1000J0D01*
G01*
Y0D02*
G03*
X59260Y1000I0J1000D01*
G01*
Y25000D02*
G03*
X58260Y26000I-1000J0D01*
G01*
Y21500D02*
G03*
X59260Y22500I0J1000D01*
G01*
X58260Y21500D02*
G03*
X57260Y20500I0J-1000D01*
G01*
X-1000Y1000D02*
G03*
X0Y0I1000J0D01*
G01*
Y26000D02*
G03*
X-1000Y25000I0J-1000D01*
G01*
X59260Y1000D02*
Y3500D01*
X56260Y0D02*
X58260D01*
X56260Y26000D02*
X58260D01*
X59260Y22500D02*
Y25000D01*
X57260Y5500D02*
Y20500D01*
X0Y0D02*
X56260D01*
X-1000Y1000D02*
Y25000D01*
X0Y26000D02*
X56260D01*
D25*
X20948Y13637D02*
D03*
Y12937D02*
D03*
X22098Y13287D02*
D03*
D26*
X49783Y2972D02*
D03*
X49277D02*
D03*
X53147Y2976D02*
D03*
X53652D02*
D03*
X10035Y20817D02*
D03*
X9473D02*
D03*
X24787Y19003D02*
D03*
X25348D02*
D03*
X34584Y17512D02*
D03*
X35145D02*
D03*
X25341Y22200D02*
D03*
X24779D02*
D03*
X26943Y15701D02*
D03*
X27505D02*
D03*
X32884D02*
D03*
X32323D02*
D03*
X23014Y8306D02*
D03*
X22452D02*
D03*
X23018Y10380D02*
D03*
X22457D02*
D03*
X22452Y9010D02*
D03*
X23014D02*
D03*
X55752Y6154D02*
D03*
X55191D02*
D03*
X51332Y6147D02*
D03*
X51893D02*
D03*
X22318Y6572D02*
D03*
X22879D02*
D03*
X22257Y25405D02*
D03*
X21695D02*
D03*
X18180Y19863D02*
D03*
X18742D02*
D03*
D27*
X9375Y21832D02*
D03*
Y22393D02*
D03*
X25481Y17721D02*
D03*
Y17160D02*
D03*
X35097Y23851D02*
D03*
Y24412D02*
D03*
X34382D02*
D03*
Y23851D02*
D03*
X24781Y23759D02*
D03*
Y24320D02*
D03*
X26132Y16388D02*
D03*
Y15827D02*
D03*
X33721Y16396D02*
D03*
Y15834D02*
D03*
X19888Y10576D02*
D03*
Y11137D02*
D03*
X21493Y12122D02*
D03*
Y11561D02*
D03*
X49428Y1299D02*
D03*
Y738D02*
D03*
X54116Y1299D02*
D03*
Y738D02*
D03*
X20821Y19176D02*
D03*
Y19738D02*
D03*
D28*
X15951Y24084D02*
D03*
X15951Y24684D02*
D03*
X16332Y20960D02*
D03*
Y21560D02*
D03*
X10148Y22489D02*
D03*
Y21889D02*
D03*
X49526Y8800D02*
D03*
Y8200D02*
D03*
X50240Y8800D02*
D03*
Y8200D02*
D03*
X25525Y24314D02*
D03*
X25525Y23714D02*
D03*
X53055Y22014D02*
D03*
Y21414D02*
D03*
X50860Y22014D02*
D03*
Y21414D02*
D03*
X54153Y22014D02*
D03*
Y21414D02*
D03*
X51958Y22014D02*
D03*
Y21414D02*
D03*
X53174Y1317D02*
D03*
Y717D02*
D03*
X45840Y936D02*
D03*
Y1536D02*
D03*
X46551Y936D02*
D03*
Y1536D02*
D03*
X44780D02*
D03*
Y936D02*
D03*
X44077Y1536D02*
D03*
Y936D02*
D03*
X43223Y1536D02*
D03*
Y936D02*
D03*
X42520Y1536D02*
D03*
Y936D02*
D03*
X41665Y1536D02*
D03*
Y936D02*
D03*
X40963Y1536D02*
D03*
Y936D02*
D03*
X28397Y15206D02*
D03*
Y14606D02*
D03*
X49526Y7315D02*
D03*
Y6715D02*
D03*
X50240Y7315D02*
D03*
Y6715D02*
D03*
X6156Y2545D02*
D03*
Y3145D02*
D03*
X7406Y2545D02*
D03*
Y3145D02*
D03*
X8656Y2545D02*
D03*
Y3145D02*
D03*
X9906Y2545D02*
D03*
Y3145D02*
D03*
D29*
X18833Y17966D02*
D03*
X18833Y18855D02*
D03*
X19772Y18853D02*
D03*
Y17964D02*
D03*
X4966Y25242D02*
D03*
Y24353D02*
D03*
Y1781D02*
D03*
Y892D02*
D03*
X40041Y892D02*
D03*
Y1781D02*
D03*
X55465Y2052D02*
D03*
Y1163D02*
D03*
X55677Y21133D02*
D03*
Y22022D02*
D03*
X22912Y18805D02*
D03*
Y19694D02*
D03*
X30886Y3124D02*
D03*
Y2235D02*
D03*
D30*
X21807Y18967D02*
D03*
X8458Y22885D02*
D03*
X24068Y14691D02*
D03*
X24587Y18059D02*
D03*
X30591Y16066D02*
D03*
X29239D02*
D03*
X28965Y25333D02*
D03*
X31283D02*
D03*
X37410Y857D02*
D03*
X17816Y18967D02*
D03*
D31*
X22753Y23899D02*
D03*
D32*
X21753Y23899D02*
D03*
X20753D02*
D03*
X22753Y21099D02*
D03*
X20753Y21099D02*
D03*
D33*
X17467Y23358D02*
D03*
Y22858D02*
D03*
Y22358D02*
D03*
Y21858D02*
D03*
X18947D02*
D03*
Y22358D02*
D03*
Y22858D02*
D03*
Y23358D02*
D03*
D34*
X18496Y24613D02*
D03*
X17607D02*
D03*
X20244Y16485D02*
D03*
X21133D02*
D03*
X17729Y3611D02*
D03*
X16840D02*
D03*
X17729Y5321D02*
D03*
X16840D02*
D03*
X17729Y4466D02*
D03*
X16840D02*
D03*
X17729Y6176D02*
D03*
X16840D02*
D03*
X6178Y23068D02*
D03*
X5289D02*
D03*
X25327Y19798D02*
D03*
X24438D02*
D03*
X25327Y20712D02*
D03*
X24438Y20712D02*
D03*
X50735Y2981D02*
D03*
X51624D02*
D03*
X54569Y2988D02*
D03*
X55458D02*
D03*
X37575Y1995D02*
D03*
X36686Y1995D02*
D03*
D35*
X18982Y20760D02*
D03*
X19582D02*
D03*
X17607D02*
D03*
X18207D02*
D03*
X20207Y25405D02*
D03*
X19607D02*
D03*
X12403Y1854D02*
D03*
X13003D02*
D03*
X12402Y2540D02*
D03*
X13002D02*
D03*
X12408Y3233D02*
D03*
X13008D02*
D03*
X14837Y21800D02*
D03*
X15437D02*
D03*
X14837Y20868D02*
D03*
X15437D02*
D03*
X14837Y22732D02*
D03*
X15437D02*
D03*
X34422Y25248D02*
D03*
X35022D02*
D03*
X35073Y22631D02*
D03*
X34473Y22631D02*
D03*
X32205Y15002D02*
D03*
X32805D02*
D03*
X32304Y16428D02*
D03*
X32904Y16428D02*
D03*
X25494Y25157D02*
D03*
X24894D02*
D03*
X25444Y21500D02*
D03*
X24844D02*
D03*
X35063Y20281D02*
D03*
X34463D02*
D03*
X35063Y20966D02*
D03*
X34463D02*
D03*
X34468Y19587D02*
D03*
X35068D02*
D03*
X35063Y21652D02*
D03*
X34463D02*
D03*
X27524Y16412D02*
D03*
X26924D02*
D03*
X27578Y15001D02*
D03*
X26978D02*
D03*
X35088Y18223D02*
D03*
X34488D02*
D03*
X34468Y18901D02*
D03*
X35068D02*
D03*
D36*
X563Y3873D02*
D03*
X-390D02*
D03*
X563Y4836D02*
D03*
X-390D02*
D03*
X563Y5800D02*
D03*
X-390D02*
D03*
D37*
X22022Y15021D02*
D03*
X20447D02*
D03*
X3429Y5774D02*
D03*
X1854Y5774D02*
D03*
Y4479D02*
D03*
X3429D02*
D03*
X22822Y5613D02*
D03*
X21247D02*
D03*
D38*
X8103Y5664D02*
D03*
Y4394D02*
D03*
X14104Y5664D02*
D03*
D39*
Y4394D02*
D03*
D40*
X18587Y5907D02*
D03*
Y5407D02*
D03*
Y4407D02*
D03*
Y3908D02*
D03*
X19437D02*
D03*
Y4407D02*
D03*
Y5407D02*
D03*
Y5907D02*
D03*
D41*
X18587Y4907D02*
D03*
X19437D02*
D03*
D42*
X11378Y22732D02*
D03*
D43*
X11378Y21782D02*
D03*
Y20832D02*
D03*
X13528D02*
D03*
Y21782D02*
D03*
Y22732D02*
D03*
D44*
X32642Y24218D02*
D03*
X32142D02*
D03*
X31642D02*
D03*
X31142D02*
D03*
X30642D02*
D03*
X30142D02*
D03*
X29642D02*
D03*
X29142D02*
D03*
X28642D02*
D03*
X28142D02*
D03*
X27642D02*
D03*
X27142Y17348D02*
D03*
X27642D02*
D03*
X28142D02*
D03*
X28642D02*
D03*
X29142D02*
D03*
X29642D02*
D03*
X30142D02*
D03*
X30642D02*
D03*
X31142D02*
D03*
X31642D02*
D03*
X32142D02*
D03*
D45*
X27142Y24268D02*
D03*
X32642Y17298D02*
D03*
D46*
X26457Y23533D02*
D03*
Y23033D02*
D03*
Y22533D02*
D03*
Y22033D02*
D03*
Y21533D02*
D03*
Y21033D02*
D03*
Y20533D02*
D03*
Y20033D02*
D03*
Y19533D02*
D03*
Y19033D02*
D03*
Y18533D02*
D03*
X33327Y18033D02*
D03*
Y18533D02*
D03*
Y19033D02*
D03*
Y19533D02*
D03*
Y20033D02*
D03*
Y20533D02*
D03*
Y21033D02*
D03*
Y21533D02*
D03*
Y22033D02*
D03*
Y22533D02*
D03*
Y23033D02*
D03*
D47*
X26407Y18033D02*
D03*
X33377Y23533D02*
D03*
D48*
X29892Y20783D02*
D03*
D49*
X29392Y1454D02*
D03*
X26692D02*
D03*
X29392Y3054D02*
D03*
X26692D02*
D03*
X32477Y3010D02*
D03*
X35177D02*
D03*
X32477Y1410D02*
D03*
X35177Y1410D02*
D03*
D50*
X52916Y5368D02*
D03*
Y4868D02*
D03*
Y4368D02*
D03*
Y3868D02*
D03*
X55726Y5368D02*
D03*
Y4868D02*
D03*
Y4368D02*
D03*
Y3868D02*
D03*
X51857Y3862D02*
D03*
Y4362D02*
D03*
Y4862D02*
D03*
Y5362D02*
D03*
X49047Y3862D02*
D03*
Y4362D02*
D03*
Y4862D02*
D03*
Y5362D02*
D03*
D51*
X54321Y4618D02*
D03*
X50452Y4612D02*
D03*
D52*
X24636Y6680D02*
D03*
Y7480D02*
D03*
Y5080D02*
D03*
X25436D02*
D03*
X26236D02*
D03*
X27036D02*
D03*
X27836D02*
D03*
X28636D02*
D03*
X29436D02*
D03*
X30236D02*
D03*
X31036D02*
D03*
X31836D02*
D03*
X32636D02*
D03*
X24636Y5880D02*
D03*
X25436D02*
D03*
X26236D02*
D03*
X27036D02*
D03*
X27836D02*
D03*
X28636D02*
D03*
X29436D02*
D03*
X30236D02*
D03*
X31036D02*
D03*
X31836D02*
D03*
X32636D02*
D03*
X25436Y6680D02*
D03*
X26236D02*
D03*
X27036D02*
D03*
X27836D02*
D03*
X28636D02*
D03*
X29436D02*
D03*
X30236D02*
D03*
X31036D02*
D03*
X31836D02*
D03*
X32636D02*
D03*
X25436Y7480D02*
D03*
X26236D02*
D03*
X27036D02*
D03*
X27836D02*
D03*
X28636D02*
D03*
X29436Y7480D02*
D03*
X30236Y7480D02*
D03*
X31036D02*
D03*
X31836D02*
D03*
X32636D02*
D03*
X24636Y8280D02*
D03*
X25436D02*
D03*
X26236D02*
D03*
X27036D02*
D03*
X27836D02*
D03*
X28636Y8280D02*
D03*
X29436D02*
D03*
X30236D02*
D03*
X31036Y8280D02*
D03*
X31836D02*
D03*
X32636Y8280D02*
D03*
X24636Y9080D02*
D03*
X25436D02*
D03*
X26236D02*
D03*
X27036D02*
D03*
X27836Y9080D02*
D03*
X28636D02*
D03*
X29436D02*
D03*
X30236D02*
D03*
X31036D02*
D03*
X31836Y9080D02*
D03*
X32636D02*
D03*
X24636Y9880D02*
D03*
X25436D02*
D03*
X26236D02*
D03*
X27036Y9880D02*
D03*
X27836D02*
D03*
X28636D02*
D03*
X29436D02*
D03*
X30236D02*
D03*
X31036D02*
D03*
X31836D02*
D03*
X32636Y9880D02*
D03*
X24636Y10680D02*
D03*
X25436D02*
D03*
X26236D02*
D03*
X27036D02*
D03*
X27836Y10680D02*
D03*
X28636D02*
D03*
X29436D02*
D03*
X30236D02*
D03*
X31036D02*
D03*
X31836Y10680D02*
D03*
X32636Y10680D02*
D03*
X24636Y11480D02*
D03*
X25436D02*
D03*
X26236D02*
D03*
X27036D02*
D03*
X27836D02*
D03*
X28636Y11480D02*
D03*
X29436D02*
D03*
X30236D02*
D03*
X31036Y11480D02*
D03*
X31836Y11480D02*
D03*
X32636D02*
D03*
X24636Y12280D02*
D03*
X25436D02*
D03*
X26236D02*
D03*
X27036D02*
D03*
X27836D02*
D03*
X28636D02*
D03*
X29436Y12280D02*
D03*
X30236Y12280D02*
D03*
X31036D02*
D03*
X31836D02*
D03*
X32636D02*
D03*
X24636Y13080D02*
D03*
X25436D02*
D03*
X26236D02*
D03*
X27036D02*
D03*
X27836D02*
D03*
X28636D02*
D03*
X29436D02*
D03*
X30236D02*
D03*
X31036D02*
D03*
X31836D02*
D03*
X32636D02*
D03*
X37085Y16942D02*
D03*
Y17742D02*
D03*
Y18542D02*
D03*
Y21742D02*
D03*
Y22542D02*
D03*
Y23342D02*
D03*
X37885Y16942D02*
D03*
Y17742D02*
D03*
Y18542D02*
D03*
Y21742D02*
D03*
Y22542D02*
D03*
Y23342D02*
D03*
X38685Y16942D02*
D03*
Y17742D02*
D03*
Y18542D02*
D03*
Y21742D02*
D03*
Y22542D02*
D03*
Y23342D02*
D03*
X39485Y16942D02*
D03*
X39485Y17742D02*
D03*
Y18542D02*
D03*
X39485Y21742D02*
D03*
X39485Y22542D02*
D03*
Y23342D02*
D03*
X40285Y16942D02*
D03*
X40285Y17742D02*
D03*
Y18542D02*
D03*
X40285Y21742D02*
D03*
X40285Y22542D02*
D03*
Y23342D02*
D03*
X41085Y16942D02*
D03*
Y17742D02*
D03*
Y18542D02*
D03*
Y21742D02*
D03*
Y22542D02*
D03*
Y23342D02*
D03*
X41885Y16942D02*
D03*
Y17742D02*
D03*
X41885Y18542D02*
D03*
X41885Y21742D02*
D03*
Y22542D02*
D03*
Y23342D02*
D03*
X42685Y16942D02*
D03*
Y17742D02*
D03*
X42685Y18542D02*
D03*
X42685Y21742D02*
D03*
Y22542D02*
D03*
X42685Y23342D02*
D03*
X43485Y16942D02*
D03*
Y17742D02*
D03*
Y18542D02*
D03*
Y21742D02*
D03*
Y22542D02*
D03*
Y23342D02*
D03*
X44285Y16942D02*
D03*
Y17742D02*
D03*
X44285Y18542D02*
D03*
X44285Y21742D02*
D03*
X44285Y22542D02*
D03*
Y23342D02*
D03*
X45085Y16942D02*
D03*
X45085Y17742D02*
D03*
Y18542D02*
D03*
X45085Y21742D02*
D03*
X45085Y22542D02*
D03*
Y23342D02*
D03*
X45885Y16942D02*
D03*
Y17742D02*
D03*
X45885Y18542D02*
D03*
X45885Y21742D02*
D03*
X45885Y22542D02*
D03*
X45885Y23342D02*
D03*
X46685Y16942D02*
D03*
X46685Y17742D02*
D03*
Y18542D02*
D03*
X46685Y21742D02*
D03*
X46685Y22542D02*
D03*
X46685Y23342D02*
D03*
X47485Y16942D02*
D03*
Y17742D02*
D03*
X47485Y18542D02*
D03*
X47485Y21742D02*
D03*
Y22542D02*
D03*
Y23342D02*
D03*
X48285Y16942D02*
D03*
X48285Y17742D02*
D03*
X48285Y18542D02*
D03*
X48285Y21742D02*
D03*
X48285Y22542D02*
D03*
Y23342D02*
D03*
X49085Y16942D02*
D03*
Y17742D02*
D03*
X49085Y18542D02*
D03*
X49085Y21742D02*
D03*
X49085Y22542D02*
D03*
Y23342D02*
D03*
D53*
X1702Y21260D02*
D03*
Y20260D02*
D03*
D54*
X51865Y10000D02*
D03*
X54889Y10300D02*
D03*
Y8500D02*
D03*
Y7900D02*
D03*
Y9100D02*
D03*
Y9700D02*
D03*
Y10900D02*
D03*
Y11500D02*
D03*
Y12100D02*
D03*
Y12700D02*
D03*
Y13300D02*
D03*
Y13900D02*
D03*
Y14500D02*
D03*
Y15100D02*
D03*
Y15700D02*
D03*
X54889Y16300D02*
D03*
X54889Y16900D02*
D03*
Y17500D02*
D03*
X54889Y18100D02*
D03*
X54889Y18700D02*
D03*
X51865Y18400D02*
D03*
Y17800D02*
D03*
Y17200D02*
D03*
Y16600D02*
D03*
Y16000D02*
D03*
Y15400D02*
D03*
Y14800D02*
D03*
Y14200D02*
D03*
Y13600D02*
D03*
Y13000D02*
D03*
Y12400D02*
D03*
Y11800D02*
D03*
Y11200D02*
D03*
Y10600D02*
D03*
Y9400D02*
D03*
Y8800D02*
D03*
Y8200D02*
D03*
Y7600D02*
D03*
D55*
X54889Y7300D02*
D03*
D56*
X19572Y890D02*
D03*
X21477D02*
D03*
X24859Y960D02*
D03*
X22954D02*
D03*
D57*
X20538Y2922D02*
D03*
X23919Y2992D02*
D03*
D58*
X5507Y20200D02*
D03*
Y5800D02*
D03*
D59*
X16927Y16175D02*
D03*
Y14905D02*
D03*
Y12365D02*
D03*
Y13635D02*
D03*
Y11095D02*
D03*
Y9825D02*
D03*
D60*
X39337Y5687D02*
D03*
X38687Y3737D02*
D03*
Y3087D02*
D03*
X47787Y14137D02*
D03*
Y13487D02*
D03*
Y12837D02*
D03*
Y12187D02*
D03*
Y11537D02*
D03*
Y10887D02*
D03*
Y10237D02*
D03*
Y9587D02*
D03*
Y8937D02*
D03*
Y8287D02*
D03*
Y7637D02*
D03*
Y6987D02*
D03*
Y6337D02*
D03*
Y5687D02*
D03*
Y5037D02*
D03*
Y4387D02*
D03*
X47787Y3737D02*
D03*
X47787Y3087D02*
D03*
X47137Y14137D02*
D03*
Y13487D02*
D03*
Y12837D02*
D03*
Y12187D02*
D03*
Y11537D02*
D03*
Y10887D02*
D03*
Y10237D02*
D03*
Y9587D02*
D03*
Y8937D02*
D03*
Y8287D02*
D03*
Y7637D02*
D03*
Y6987D02*
D03*
Y6337D02*
D03*
Y5687D02*
D03*
Y5037D02*
D03*
Y4387D02*
D03*
X47137Y3737D02*
D03*
X47137Y3087D02*
D03*
X46487Y14137D02*
D03*
Y13487D02*
D03*
Y12837D02*
D03*
Y12187D02*
D03*
Y11537D02*
D03*
Y10887D02*
D03*
Y10237D02*
D03*
Y9587D02*
D03*
Y8937D02*
D03*
Y8287D02*
D03*
Y7637D02*
D03*
Y6987D02*
D03*
Y6337D02*
D03*
Y5687D02*
D03*
Y5037D02*
D03*
Y4387D02*
D03*
Y3737D02*
D03*
Y3087D02*
D03*
X45837Y14137D02*
D03*
Y13487D02*
D03*
Y12187D02*
D03*
Y10887D02*
D03*
Y10237D02*
D03*
Y9587D02*
D03*
Y8937D02*
D03*
Y8287D02*
D03*
Y7637D02*
D03*
Y6987D02*
D03*
Y6337D02*
D03*
Y5687D02*
D03*
Y5037D02*
D03*
Y4387D02*
D03*
Y3737D02*
D03*
Y3087D02*
D03*
X45187Y14137D02*
D03*
Y13487D02*
D03*
Y12187D02*
D03*
Y10887D02*
D03*
Y9587D02*
D03*
Y8937D02*
D03*
Y8287D02*
D03*
Y7637D02*
D03*
Y6987D02*
D03*
Y6337D02*
D03*
Y5687D02*
D03*
Y5037D02*
D03*
Y4387D02*
D03*
Y3737D02*
D03*
Y3087D02*
D03*
X44537Y13487D02*
D03*
X44537Y12187D02*
D03*
Y9587D02*
D03*
Y8937D02*
D03*
Y8287D02*
D03*
Y7637D02*
D03*
Y6987D02*
D03*
Y6337D02*
D03*
Y5687D02*
D03*
X44537Y5037D02*
D03*
X44537Y4387D02*
D03*
X44537Y3737D02*
D03*
X44537Y3087D02*
D03*
X43887Y12187D02*
D03*
Y11537D02*
D03*
Y10887D02*
D03*
Y10237D02*
D03*
Y9587D02*
D03*
Y8937D02*
D03*
Y8287D02*
D03*
Y7637D02*
D03*
Y6987D02*
D03*
Y6337D02*
D03*
Y5687D02*
D03*
Y5037D02*
D03*
Y4387D02*
D03*
Y3737D02*
D03*
Y3087D02*
D03*
X43237Y14137D02*
D03*
Y12837D02*
D03*
Y12187D02*
D03*
Y11537D02*
D03*
Y10887D02*
D03*
Y10237D02*
D03*
Y9587D02*
D03*
Y8937D02*
D03*
Y8287D02*
D03*
Y7637D02*
D03*
Y6987D02*
D03*
Y6337D02*
D03*
Y5687D02*
D03*
Y5037D02*
D03*
Y4387D02*
D03*
X43237Y3737D02*
D03*
X43237Y3087D02*
D03*
X42587Y14137D02*
D03*
Y13487D02*
D03*
Y12837D02*
D03*
Y12187D02*
D03*
Y11537D02*
D03*
Y10887D02*
D03*
Y10237D02*
D03*
Y9587D02*
D03*
Y8937D02*
D03*
Y8287D02*
D03*
Y7637D02*
D03*
Y6987D02*
D03*
Y6337D02*
D03*
Y5687D02*
D03*
Y5037D02*
D03*
Y4387D02*
D03*
Y3737D02*
D03*
Y3087D02*
D03*
X41937Y14137D02*
D03*
Y13487D02*
D03*
Y12837D02*
D03*
Y12187D02*
D03*
Y11537D02*
D03*
Y10887D02*
D03*
Y10237D02*
D03*
Y9587D02*
D03*
Y8937D02*
D03*
Y8287D02*
D03*
Y7637D02*
D03*
Y6987D02*
D03*
Y6337D02*
D03*
Y5687D02*
D03*
Y5037D02*
D03*
Y4387D02*
D03*
X41937Y3737D02*
D03*
X41937Y3087D02*
D03*
X41287Y14137D02*
D03*
Y13487D02*
D03*
Y12837D02*
D03*
Y12187D02*
D03*
Y11537D02*
D03*
Y10887D02*
D03*
Y10237D02*
D03*
Y9587D02*
D03*
Y8937D02*
D03*
Y8287D02*
D03*
Y7637D02*
D03*
Y6987D02*
D03*
Y6337D02*
D03*
Y5687D02*
D03*
Y5037D02*
D03*
Y4387D02*
D03*
X41287Y3737D02*
D03*
X41287Y3087D02*
D03*
X40637Y14137D02*
D03*
Y13487D02*
D03*
Y12837D02*
D03*
Y12187D02*
D03*
Y11537D02*
D03*
Y10887D02*
D03*
Y10237D02*
D03*
Y9587D02*
D03*
Y8937D02*
D03*
Y8287D02*
D03*
Y7637D02*
D03*
Y6987D02*
D03*
Y6337D02*
D03*
Y5687D02*
D03*
Y5037D02*
D03*
Y4387D02*
D03*
Y3737D02*
D03*
Y3087D02*
D03*
X39987Y14137D02*
D03*
Y13487D02*
D03*
Y12837D02*
D03*
Y12187D02*
D03*
Y11537D02*
D03*
Y10887D02*
D03*
Y10237D02*
D03*
Y9587D02*
D03*
Y6337D02*
D03*
Y5687D02*
D03*
Y5037D02*
D03*
Y4387D02*
D03*
X39987Y3737D02*
D03*
X39987Y3087D02*
D03*
X39337Y14137D02*
D03*
Y13487D02*
D03*
Y12837D02*
D03*
Y12187D02*
D03*
Y11537D02*
D03*
Y10887D02*
D03*
Y10237D02*
D03*
Y9587D02*
D03*
Y8287D02*
D03*
Y5037D02*
D03*
Y4387D02*
D03*
Y3737D02*
D03*
X38687Y14137D02*
D03*
Y13487D02*
D03*
Y12837D02*
D03*
Y12187D02*
D03*
Y11537D02*
D03*
Y10887D02*
D03*
Y10237D02*
D03*
Y9587D02*
D03*
Y8287D02*
D03*
Y7637D02*
D03*
Y4387D02*
D03*
X38037Y14137D02*
D03*
Y13487D02*
D03*
Y12837D02*
D03*
Y12187D02*
D03*
Y11537D02*
D03*
Y10887D02*
D03*
Y10237D02*
D03*
Y9587D02*
D03*
Y8287D02*
D03*
Y7637D02*
D03*
Y6337D02*
D03*
Y5687D02*
D03*
Y4387D02*
D03*
Y3737D02*
D03*
Y3087D02*
D03*
X37387Y14137D02*
D03*
Y13487D02*
D03*
Y12837D02*
D03*
Y12187D02*
D03*
Y11537D02*
D03*
Y10887D02*
D03*
Y10237D02*
D03*
Y9587D02*
D03*
Y8287D02*
D03*
Y5037D02*
D03*
Y3737D02*
D03*
Y3087D02*
D03*
X36737Y14137D02*
D03*
Y13487D02*
D03*
Y12837D02*
D03*
Y12187D02*
D03*
Y11537D02*
D03*
Y10887D02*
D03*
Y10237D02*
D03*
Y9587D02*
D03*
Y7637D02*
D03*
Y4387D02*
D03*
Y3737D02*
D03*
Y3087D02*
D03*
X38687Y8937D02*
D03*
X38037D02*
D03*
X37387D02*
D03*
X36737D02*
D03*
Y8287D02*
D03*
X38687Y6987D02*
D03*
X37387Y7637D02*
D03*
Y6987D02*
D03*
X36737D02*
D03*
X37387Y6337D02*
D03*
X36737D02*
D03*
X37387Y5687D02*
D03*
X36737D02*
D03*
X38037Y5037D02*
D03*
X36737D02*
D03*
X37387Y4387D02*
D03*
X39987Y7637D02*
D03*
Y8287D02*
D03*
X39337Y7637D02*
D03*
Y6987D02*
D03*
X38037D02*
D03*
X39987D02*
D03*
X38687Y5687D02*
D03*
Y6337D02*
D03*
Y5037D02*
D03*
X39337Y3087D02*
D03*
Y6337D02*
D03*
Y8937D02*
D03*
X39987D02*
D03*
X45837Y11537D02*
D03*
X45187D02*
D03*
X44537Y10887D02*
D03*
X45187Y10237D02*
D03*
X44537Y11537D02*
D03*
Y10237D02*
D03*
X43887Y14137D02*
D03*
X44537D02*
D03*
X43887Y12837D02*
D03*
X44537D02*
D03*
X45837D02*
D03*
X43237Y13487D02*
D03*
X45187Y12837D02*
D03*
X43887Y13487D02*
D03*
M02*
