G04*
G04 #@! TF.GenerationSoftware,Altium Limited,Altium Designer,21.3.2 (30)*
G04*
G04 Layer_Color=128*
%FSLAX43Y43*%
%MOMM*%
G71*
G04*
G04 #@! TF.SameCoordinates,AF92D2DE-8466-4D58-AFAE-29A769C4C8C3*
G04*
G04*
G04 #@! TF.FilePolarity,Positive*
G04*
G01*
G75*
%ADD16C,0.254*%
%ADD19C,0.051*%
D16*
X57260Y5500D02*
G03*
X58260Y4500I1000J0D01*
G01*
X59260Y3500D02*
G03*
X58260Y4500I-1000J0D01*
G01*
Y0D02*
G03*
X59260Y1000I0J1000D01*
G01*
Y25000D02*
G03*
X58260Y26000I-1000J0D01*
G01*
Y21500D02*
G03*
X59260Y22500I0J1000D01*
G01*
X58260Y21500D02*
G03*
X57260Y20500I0J-1000D01*
G01*
X-1000Y1000D02*
G03*
X0Y0I1000J0D01*
G01*
Y26000D02*
G03*
X-1000Y25000I0J-1000D01*
G01*
X59260Y1000D02*
Y3500D01*
X56260Y0D02*
X58260D01*
X56260Y26000D02*
X58260D01*
X59260Y22500D02*
Y25000D01*
X57260Y5500D02*
Y20500D01*
X0Y0D02*
X56260D01*
X-1000Y1000D02*
Y25000D01*
X0Y26000D02*
X56260D01*
D19*
X-370Y7780D02*
X-167D01*
X-268Y7679D02*
Y7882D01*
X405Y7971D02*
X608D01*
X506Y7869D02*
Y8072D01*
X405Y7488D02*
X608D01*
X506Y7387D02*
Y7590D01*
X1179Y7780D02*
X1383D01*
X1281Y7679D02*
Y7882D01*
X4256Y17020D02*
X4856D01*
X4556Y16720D02*
Y17320D01*
X3456Y9600D02*
X3956D01*
X3706Y9350D02*
Y9850D01*
X206Y8680D02*
X806D01*
X506Y8380D02*
Y8980D01*
X4756Y8680D02*
X5356D01*
X5056Y8380D02*
Y8980D01*
X4256D02*
X4856D01*
X4556Y8680D02*
Y9280D01*
X3456Y16400D02*
X3956D01*
X3706Y16150D02*
Y16650D01*
X4756Y17320D02*
X5356D01*
X5056Y17020D02*
Y17620D01*
X206Y17320D02*
X806D01*
X506Y17020D02*
Y17620D01*
X-370Y9533D02*
X-167D01*
X-268Y9431D02*
Y9634D01*
X405Y9825D02*
X608D01*
X506Y9723D02*
Y9927D01*
X405Y9342D02*
X608D01*
X506Y9241D02*
Y9444D01*
X1179Y9533D02*
X1383D01*
X1281Y9431D02*
Y9634D01*
X-370Y16391D02*
X-167D01*
X-268Y16289D02*
Y16493D01*
X405Y16581D02*
X608D01*
X506Y16480D02*
Y16683D01*
X405Y16099D02*
X608D01*
X506Y15997D02*
Y16200D01*
X1179Y16391D02*
X1383D01*
X1281Y16289D02*
Y16493D01*
X-373Y18245D02*
X-170D01*
X-272Y18143D02*
Y18347D01*
X401Y18537D02*
X605D01*
X503Y18436D02*
Y18639D01*
X401Y18055D02*
X605D01*
X503Y17953D02*
Y18156D01*
X1176Y18245D02*
X1379D01*
X1278Y18143D02*
Y18347D01*
X1400Y2100D02*
X3600D01*
X2500Y1000D02*
Y3200D01*
X52271Y24557D02*
X52906D01*
X52588Y24239D02*
Y24874D01*
X54811Y24557D02*
X55446D01*
X55128Y24239D02*
Y24874D01*
X53541Y24557D02*
X54176D01*
X53858Y24239D02*
Y24874D01*
X51001Y24557D02*
X51636D01*
X51318Y24239D02*
Y24874D01*
X52271Y23287D02*
X52906D01*
X52588Y22969D02*
Y23604D01*
X53541Y23287D02*
X54176D01*
X53858Y22969D02*
Y23604D01*
X51001Y23287D02*
X51636D01*
X51318Y22969D02*
Y23604D01*
X54811Y23287D02*
X55446D01*
X55128Y22969D02*
Y23604D01*
X2953Y20760D02*
X3753D01*
X3353Y20360D02*
Y21160D01*
X56600Y2500D02*
X58400D01*
X57500Y1600D02*
Y3400D01*
X56600Y23500D02*
X58400D01*
X57500Y22600D02*
Y24400D01*
X17725Y1232D02*
X18375D01*
X18050Y907D02*
Y1557D01*
X16475Y1232D02*
X17125D01*
X16800Y907D02*
Y1557D01*
X15225Y1232D02*
X15875D01*
X15550Y907D02*
Y1557D01*
X13975Y1232D02*
X14625D01*
X14300Y907D02*
Y1557D01*
X5831Y1238D02*
X6481D01*
X6156Y913D02*
Y1563D01*
X7081Y1238D02*
X7731D01*
X7406Y913D02*
Y1563D01*
X8331Y1238D02*
X8981D01*
X8656Y913D02*
Y1563D01*
X9581Y1238D02*
X10231D01*
X9906Y913D02*
Y1563D01*
X10831Y1238D02*
X11481D01*
X11156Y913D02*
Y1563D01*
X10898Y24714D02*
X11548D01*
X11223Y24389D02*
Y25039D01*
X9648Y24714D02*
X10298D01*
X9973Y24389D02*
Y25039D01*
X8398Y24714D02*
X9048D01*
X8723Y24389D02*
Y25039D01*
X7148Y24714D02*
X7798D01*
X7473Y24389D02*
Y25039D01*
X5898Y24714D02*
X6548D01*
X6223Y24389D02*
Y25039D01*
X1400Y23900D02*
X3600D01*
X2500Y22800D02*
Y25000D01*
X22432Y13287D02*
X22636D01*
X22534Y13186D02*
Y13389D01*
X461Y5800D02*
X664D01*
X563Y5698D02*
Y5902D01*
X21819Y22733D02*
X22022D01*
X21920Y22631D02*
Y22835D01*
X18440Y23393D02*
X18644D01*
X18542Y23292D02*
Y23495D01*
X18212Y17907D02*
X18415D01*
X18313Y17805D02*
Y18009D01*
X23455Y23702D02*
X23658D01*
X23556Y23601D02*
Y23804D01*
X53863Y5753D02*
X54066D01*
X53964Y5651D02*
Y5854D01*
X23459Y24241D02*
X23662D01*
X23561Y24139D02*
Y24342D01*
X17550Y23951D02*
X17754D01*
X17652Y23849D02*
Y24052D01*
X17012Y23956D02*
X17215D01*
X17113Y23854D02*
Y24057D01*
X15850Y25157D02*
X16053D01*
X15951Y25056D02*
Y25259D01*
X12548Y25425D02*
X12751D01*
X12649Y25324D02*
Y25527D01*
X19342Y24289D02*
X19546D01*
X19444Y24188D02*
Y24391D01*
X20015Y23026D02*
X20219D01*
X20117Y22924D02*
Y23127D01*
X20009Y22264D02*
X20212D01*
X20111Y22162D02*
Y22366D01*
X20393Y22642D02*
X20596D01*
X20495Y22540D02*
Y22743D01*
X19631Y22648D02*
X19835D01*
X19733Y22547D02*
Y22750D01*
X19203Y19800D02*
X19406D01*
X19304Y19698D02*
Y19902D01*
X19196Y19038D02*
X19399D01*
X19298Y18937D02*
Y19140D01*
X19580Y19416D02*
X19783D01*
X19682Y19314D02*
Y19517D01*
X18819Y19422D02*
X19022D01*
X18920Y19321D02*
Y19524D01*
X35535Y22200D02*
X35738D01*
X35636Y22098D02*
Y22301D01*
X17949Y22347D02*
X18152D01*
X18050Y22245D02*
Y22448D01*
X18394Y25425D02*
X18598D01*
X18496Y25324D02*
Y25527D01*
X16231Y19685D02*
X16434D01*
X16332Y19583D02*
Y19787D01*
X17505Y20437D02*
X17709D01*
X17607Y20335D02*
Y20538D01*
X23278Y18761D02*
X23482D01*
X23380Y18660D02*
Y18863D01*
X20730Y18756D02*
X20933D01*
X20831Y18654D02*
Y18857D01*
X23818Y25405D02*
X24021D01*
X23919Y25303D02*
Y25506D01*
X22890Y25411D02*
X23093D01*
X22991Y25309D02*
Y25513D01*
X21625Y20385D02*
X21828D01*
X21727Y20283D02*
Y20486D01*
X47058Y18867D02*
X47261D01*
X47160Y18766D02*
Y18969D01*
X41510Y11862D02*
X41713D01*
X41612Y11761D02*
Y11964D01*
X40860Y11862D02*
X41063D01*
X40962Y11761D02*
Y11964D01*
X47858Y18867D02*
X48061D01*
X47960Y18766D02*
Y18969D01*
X44110Y13812D02*
X44313D01*
X44212Y13711D02*
Y13914D01*
X53010Y18830D02*
X53213D01*
X53111Y18728D02*
Y18932D01*
X43460Y13812D02*
X43663D01*
X43562Y13711D02*
Y13914D01*
X53543Y18830D02*
X53746D01*
X53645Y18728D02*
Y18932D01*
X3564Y12613D02*
X3767D01*
X3666Y12512D02*
Y12715D01*
X6223Y13397D02*
X6426D01*
X6325Y13295D02*
Y13498D01*
X3564Y13147D02*
X3767D01*
X3666Y13045D02*
Y13248D01*
X6223Y12863D02*
X6426D01*
X6325Y12762D02*
Y12965D01*
X23190Y17348D02*
X23393D01*
X23292Y17247D02*
Y17450D01*
X22575Y16485D02*
X22778D01*
X22677Y16383D02*
Y16586D01*
X11963Y16739D02*
X12167D01*
X12065Y16637D02*
Y16840D01*
X14351Y18567D02*
X14554D01*
X14453Y18466D02*
Y18669D01*
X15038Y18383D02*
X15242D01*
X15140Y18282D02*
Y18485D01*
X13132Y15691D02*
X13335D01*
X13233Y15590D02*
Y15793D01*
X14351Y19101D02*
X14554D01*
X14453Y19000D02*
Y19203D01*
X12954Y13868D02*
X13157D01*
X13056Y13767D02*
Y13970D01*
X15214Y14147D02*
X15417D01*
X15316Y14045D02*
Y14249D01*
X15214Y7080D02*
X15417D01*
X15316Y6979D02*
Y7182D01*
X13944Y7473D02*
X14147D01*
X14046Y7372D02*
Y7575D01*
X13944Y15802D02*
X14147D01*
X14046Y15701D02*
Y15904D01*
X5098Y12360D02*
X5301D01*
X5199Y12259D02*
Y12462D01*
X34920Y16553D02*
X35123D01*
X35022Y16452D02*
Y16655D01*
X50819Y20382D02*
X51023D01*
X50921Y20281D02*
Y20484D01*
X51769Y19878D02*
X51972D01*
X51871Y19777D02*
Y19980D01*
X52006Y20382D02*
X52209D01*
X52108Y20281D02*
Y20484D01*
X50292Y19819D02*
X50495D01*
X50393Y19717D02*
Y19921D01*
X55738Y8509D02*
X55941D01*
X55839Y8407D02*
Y8611D01*
X56454Y8484D02*
X56657D01*
X56556Y8382D02*
Y8585D01*
X56276Y7656D02*
X56479D01*
X56378Y7554D02*
Y7757D01*
X56276Y6965D02*
X56479D01*
X56378Y6863D02*
Y7066D01*
X12734Y13164D02*
X12937D01*
X12836Y13062D02*
Y13265D01*
X12734Y12580D02*
X12937D01*
X12836Y12478D02*
Y12681D01*
X12734Y14630D02*
X12937D01*
X12836Y14529D02*
Y14732D01*
X12734Y15164D02*
X12937D01*
X12836Y15062D02*
Y15265D01*
X53551Y16612D02*
X53754D01*
X53653Y16510D02*
Y16713D01*
X44110Y13162D02*
X44313D01*
X44212Y13061D02*
Y13264D01*
X53018Y16612D02*
X53221D01*
X53119Y16510D02*
Y16713D01*
X44760Y13162D02*
X44963D01*
X44862Y13061D02*
Y13264D01*
X52414Y11801D02*
X52617D01*
X52516Y11699D02*
Y11903D01*
X13287Y7082D02*
X13490D01*
X13388Y6980D02*
Y7183D01*
X31687Y23523D02*
X31890D01*
X31788Y23421D02*
Y23625D01*
X32147Y23523D02*
X32350D01*
X32248Y23421D02*
Y23625D01*
X31222Y23523D02*
X31425D01*
X31323Y23421D02*
Y23625D01*
X49308Y16773D02*
X49511D01*
X49410Y16671D02*
Y16874D01*
X44477Y18034D02*
X44681D01*
X44579Y17933D02*
Y18136D01*
X42908Y18081D02*
X43111D01*
X43010Y17979D02*
Y18182D01*
X46101Y11811D02*
X46304D01*
X46203Y11709D02*
Y11913D01*
X43136Y14964D02*
X43339D01*
X43238Y14862D02*
Y15065D01*
X41529Y12548D02*
X41732D01*
X41630Y12446D02*
Y12649D01*
X44704Y18872D02*
X44907D01*
X44806Y18771D02*
Y18974D01*
X43786Y17348D02*
X43989D01*
X43887Y17247D02*
Y17450D01*
X46060Y12512D02*
X46263D01*
X46162Y12411D02*
Y12614D01*
X38260Y4712D02*
X38463D01*
X38362Y4611D02*
Y4814D01*
X40860Y7962D02*
X41063D01*
X40962Y7861D02*
Y8064D01*
X36960Y13162D02*
X37163D01*
X37062Y13061D02*
Y13264D01*
X52954Y14321D02*
X53157D01*
X53055Y14220D02*
Y14423D01*
X42958Y22940D02*
X43162D01*
X43060Y22838D02*
Y23042D01*
X48469Y1454D02*
X48673D01*
X48571Y1352D02*
Y1555D01*
X52096Y3786D02*
X52299D01*
X52198Y3685D02*
Y3888D01*
X52114Y4362D02*
X52317D01*
X52216Y4260D02*
Y4463D01*
X54510Y1131D02*
X54713D01*
X54611Y1029D02*
Y1232D01*
X54496Y1776D02*
X54700D01*
X54598Y1675D02*
Y1878D01*
X54636Y2360D02*
X54839D01*
X54737Y2259D02*
Y2462D01*
X51023Y1559D02*
X51227D01*
X51125Y1458D02*
Y1661D01*
X51769Y962D02*
X51972D01*
X51871Y861D02*
Y1064D01*
X41458Y18867D02*
X41661D01*
X41560Y18766D02*
Y18969D01*
X42258Y18867D02*
X42461D01*
X42360Y18766D02*
Y18969D01*
X40210Y13162D02*
X40413D01*
X40312Y13061D02*
Y13264D01*
X39560Y13162D02*
X39763D01*
X39662Y13061D02*
Y13264D01*
X44983Y21212D02*
X45186D01*
X45085Y21111D02*
Y21314D01*
X44183Y21212D02*
X44386D01*
X44285Y21111D02*
Y21314D01*
X48983Y19718D02*
X49186D01*
X49085Y19616D02*
Y19819D01*
X48983Y20336D02*
X49186D01*
X49085Y20234D02*
Y20437D01*
X47758Y19878D02*
X47961D01*
X47859Y19777D02*
Y19980D01*
X47142Y20345D02*
X47346D01*
X47244Y20243D02*
Y20447D01*
X45783Y19878D02*
X45986D01*
X45885Y19777D02*
Y19980D01*
X45783Y20382D02*
X45986D01*
X45885Y20281D02*
Y20484D01*
X43586Y20382D02*
X43790D01*
X43688Y20281D02*
Y20484D01*
X43592Y19883D02*
X43795D01*
X43693Y19781D02*
Y19985D01*
X42189Y19819D02*
X42393D01*
X42291Y19717D02*
Y19921D01*
X42215Y20437D02*
X42418D01*
X42316Y20335D02*
Y20538D01*
X40284Y19791D02*
X40487D01*
X40385Y19690D02*
Y19893D01*
X40284Y20437D02*
X40487D01*
X40385Y20335D02*
Y20538D01*
X36826Y19757D02*
X37029D01*
X36927Y19655D02*
Y19858D01*
X36826Y20382D02*
X37029D01*
X36927Y20281D02*
Y20484D01*
X39058Y19766D02*
X39261D01*
X39160Y19665D02*
Y19868D01*
X39058Y20382D02*
X39261D01*
X39160Y20281D02*
Y20484D01*
X4851Y15869D02*
X5055D01*
X4953Y15768D02*
Y15971D01*
X4995Y10105D02*
X5199D01*
X5097Y10004D02*
Y10207D01*
X16231Y7080D02*
X16434D01*
X16332Y6979D02*
Y7182D01*
X39058Y16617D02*
X39261D01*
X39160Y16516D02*
Y16719D01*
X39858Y16617D02*
X40061D01*
X39960Y16516D02*
Y16719D01*
X43058Y16617D02*
X43261D01*
X43160Y16516D02*
Y16719D01*
X42108Y17417D02*
X42311D01*
X42210Y17316D02*
Y17519D01*
X52597Y3029D02*
X52801D01*
X52699Y2927D02*
Y3131D01*
X51856Y6662D02*
X52059D01*
X51958Y6561D02*
Y6764D01*
X25610Y19939D02*
X25813D01*
X25711Y19837D02*
Y20041D01*
X3487Y21984D02*
X3691D01*
X3589Y21883D02*
Y22086D01*
X52954Y20992D02*
X53157D01*
X53055Y20890D02*
Y21093D01*
X20715Y14425D02*
X20918D01*
X20816Y14323D02*
Y14526D01*
X20083Y14452D02*
X20286D01*
X20184Y14350D02*
Y14553D01*
X33813Y2947D02*
X34016D01*
X33914Y2845D02*
Y3048D01*
X32935Y4680D02*
X33138D01*
X33036Y4579D02*
Y4782D01*
X44674Y457D02*
X44877D01*
X44775Y356D02*
Y559D01*
X44013Y457D02*
X44216D01*
X44114Y356D02*
Y559D01*
X43136Y457D02*
X43339D01*
X43238Y356D02*
Y559D01*
X42424Y457D02*
X42627D01*
X42525Y356D02*
Y559D01*
X40861Y457D02*
X41064D01*
X40963Y356D02*
Y559D01*
X41564Y457D02*
X41767D01*
X41665Y356D02*
Y559D01*
X46450Y457D02*
X46653D01*
X46551Y356D02*
Y559D01*
X45324Y457D02*
X45527D01*
X45425Y356D02*
Y559D01*
X56266Y9977D02*
X56469D01*
X56368Y9876D02*
Y10079D01*
X56144Y9296D02*
X56347D01*
X56246Y9195D02*
Y9398D01*
X56667Y9449D02*
X56871D01*
X56769Y9347D02*
Y9550D01*
X9054Y18217D02*
X9257D01*
X9156Y18116D02*
Y18319D01*
X9059Y18756D02*
X9262D01*
X9160Y18654D02*
Y18857D01*
X8515Y18222D02*
X8719D01*
X8617Y18120D02*
Y18323D01*
X8520Y18760D02*
X8723D01*
X8622Y18659D02*
Y18862D01*
X7555Y17037D02*
X7758D01*
X7656Y16935D02*
Y17138D01*
X10045Y22822D02*
X10249D01*
X10147Y22720D02*
Y22924D01*
X24278Y17085D02*
X24481D01*
X24379Y16983D02*
Y17187D01*
X21663Y16471D02*
X21866D01*
X21765Y16369D02*
Y16572D01*
X25684Y19101D02*
X25887D01*
X25786Y19000D02*
Y19203D01*
X22159Y19841D02*
X22362D01*
X22261Y19740D02*
Y19943D01*
X21621Y19846D02*
X21824D01*
X21722Y19744D02*
Y19948D01*
X22164Y20380D02*
X22367D01*
X22265Y20278D02*
Y20482D01*
X22987Y14430D02*
X23190D01*
X23089Y14329D02*
Y14532D01*
X33555Y25405D02*
X33758D01*
X33656Y25303D02*
Y25506D01*
X26331Y25512D02*
X26534D01*
X26432Y25411D02*
Y25614D01*
X31903Y25431D02*
X32106D01*
X32004Y25330D02*
Y25533D01*
X31271Y25458D02*
X31474D01*
X31373Y25357D02*
Y25560D01*
X32535Y25405D02*
X32738D01*
X32636Y25303D02*
Y25506D01*
X28226Y25431D02*
X28429D01*
X28327Y25330D02*
Y25533D01*
X27594Y25458D02*
X27797D01*
X27696Y25357D02*
Y25560D01*
X28857Y25405D02*
X29061D01*
X28959Y25303D02*
Y25506D01*
X30588Y16105D02*
X30792D01*
X30690Y16004D02*
Y16207D01*
X31220Y16078D02*
X31423D01*
X31322Y15977D02*
Y16180D01*
X30562Y15473D02*
X30765D01*
X30663Y15372D02*
Y15575D01*
X31193Y15446D02*
X31396D01*
X31295Y15345D02*
Y15548D01*
X28493Y16105D02*
X28696D01*
X28595Y16004D02*
Y16207D01*
X29125Y16078D02*
X29328D01*
X29226Y15977D02*
Y16180D01*
X28466Y15473D02*
X28669D01*
X28568Y15372D02*
Y15575D01*
X29098Y15446D02*
X29301D01*
X29199Y15345D02*
Y15548D01*
X28296Y13940D02*
X28499D01*
X28397Y13839D02*
Y14042D01*
X28914Y18288D02*
X29117D01*
X29016Y18186D02*
Y18390D01*
X31107Y18400D02*
X31310D01*
X31209Y18298D02*
Y18502D01*
X31983Y14321D02*
X32186D01*
X32085Y14220D02*
Y14423D01*
X29540Y14313D02*
X29744D01*
X29642Y14211D02*
Y14415D01*
X27335Y10188D02*
X27538D01*
X27436Y10087D02*
Y10290D01*
X25735Y9480D02*
X25938D01*
X25836Y9379D02*
Y9582D01*
X20422Y4877D02*
X20625D01*
X20523Y4775D02*
Y4978D01*
X18517Y6756D02*
X18720D01*
X18618Y6655D02*
Y6858D01*
X20244Y7010D02*
X20447D01*
X20345Y6909D02*
Y7112D01*
X23190Y6579D02*
X23393D01*
X23292Y6477D02*
Y6680D01*
X22991Y12178D02*
X23194D01*
X23093Y12077D02*
Y12280D01*
X45720Y24308D02*
X45923D01*
X45822Y24206D02*
Y24409D01*
X49027Y24353D02*
X49230D01*
X49128Y24251D02*
Y24454D01*
X24602Y13880D02*
X24806D01*
X24704Y13778D02*
Y13982D01*
X12371Y11009D02*
X12574D01*
X12472Y10908D02*
Y11111D01*
X11242Y10431D02*
X11445D01*
X11344Y10329D02*
Y10532D01*
X55575Y20533D02*
X55778D01*
X55677Y20432D02*
Y20635D01*
X31576Y21525D02*
X31779D01*
X31677Y21424D02*
Y21627D01*
X50871Y8198D02*
X51074D01*
X50972Y8097D02*
Y8300D01*
X44013Y2500D02*
X44216D01*
X44114Y2398D02*
Y2602D01*
X43268Y2500D02*
X43472D01*
X43370Y2398D02*
Y2602D01*
X8077Y21184D02*
X8280D01*
X8179Y21082D02*
Y21285D01*
X36658Y25425D02*
X36861D01*
X36760Y25324D02*
Y25527D01*
X26262Y14901D02*
X26465D01*
X26364Y14800D02*
Y15003D01*
X8875Y20868D02*
X9078D01*
X8977Y20766D02*
Y20969D01*
X16231Y22347D02*
X16434D01*
X16332Y22245D02*
Y22448D01*
X12125Y21782D02*
X12328D01*
X12226Y21681D02*
Y21884D01*
X6610Y23068D02*
X6814D01*
X6712Y22967D02*
Y23170D01*
X4851Y457D02*
X5055D01*
X4953Y356D02*
Y559D01*
X4890Y25543D02*
X5093D01*
X4991Y25441D02*
Y25644D01*
X15335Y23068D02*
X15539D01*
X15437Y22967D02*
Y23170D01*
X14351Y20868D02*
X14554D01*
X14453Y20766D02*
Y20969D01*
X14351Y21800D02*
X14554D01*
X14453Y21698D02*
Y21902D01*
X14351Y22732D02*
X14554D01*
X14453Y22631D02*
Y22834D01*
X17628Y3611D02*
X17831D01*
X17729Y3509D02*
Y3712D01*
X17628Y4466D02*
X17831D01*
X17729Y4364D02*
Y4567D01*
X17628Y5321D02*
X17831D01*
X17729Y5219D02*
Y5422D01*
X17628Y6176D02*
X17831D01*
X17729Y6074D02*
Y6278D01*
X22720Y4033D02*
X22923D01*
X22822Y3931D02*
Y4134D01*
X22873Y3281D02*
X23076D01*
X22974Y3179D02*
Y3382D01*
X23038Y4706D02*
X23241D01*
X23139Y4604D02*
Y4807D01*
X11888Y3248D02*
X12092D01*
X11990Y3146D02*
Y3349D01*
X13319Y1839D02*
X13522D01*
X13421Y1738D02*
Y1941D01*
X11882Y2555D02*
X12085D01*
X11984Y2453D02*
Y2656D01*
X13318Y2525D02*
X13521D01*
X13420Y2424D02*
Y2627D01*
X11883Y1869D02*
X12086D01*
X11985Y1767D02*
Y1970D01*
X13324Y3218D02*
X13528D01*
X13426Y3117D02*
Y3320D01*
X7304Y4387D02*
X7508D01*
X7406Y4286D02*
Y4489D01*
X7304Y5664D02*
X7508D01*
X7406Y5563D02*
Y5766D01*
X10250Y4479D02*
X10454D01*
X10352Y4377D02*
Y4581D01*
X10250Y5715D02*
X10454D01*
X10352Y5613D02*
Y5817D01*
X12848Y5664D02*
X13052D01*
X12950Y5563D02*
Y5766D01*
X15672Y4441D02*
X15875D01*
X15773Y4340D02*
Y4543D01*
X15672Y5740D02*
X15875D01*
X15773Y5639D02*
Y5842D01*
X17805Y7080D02*
X18009D01*
X17907Y6979D02*
Y7182D01*
X18623Y9829D02*
X18826D01*
X18724Y9728D02*
Y9931D01*
X18623Y11099D02*
X18826D01*
X18724Y10998D02*
Y11201D01*
X18623Y12370D02*
X18826D01*
X18724Y12268D02*
Y12471D01*
X16535Y14880D02*
X16739D01*
X16637Y14778D02*
Y14982D01*
X19336Y4907D02*
X19539D01*
X19437Y4806D02*
Y5009D01*
X18491Y4902D02*
X18694D01*
X18592Y4801D02*
Y5004D01*
X8426Y15240D02*
X8629D01*
X8528Y15138D02*
Y15342D01*
X7576Y15240D02*
X7779D01*
X7678Y15138D02*
Y15342D01*
X8426Y12538D02*
X8629D01*
X8528Y12437D02*
Y12640D01*
X7576Y12538D02*
X7779D01*
X7678Y12437D02*
Y12640D01*
X11484Y7026D02*
X11687D01*
X11585Y6924D02*
Y7128D01*
X8433Y8026D02*
X8636D01*
X8534Y7925D02*
Y8128D01*
X10969Y12830D02*
X11172D01*
X11070Y12729D02*
Y12932D01*
X10969Y14964D02*
X11172D01*
X11070Y14862D02*
Y15065D01*
X10969Y14430D02*
X11172D01*
X11070Y14329D02*
Y14532D01*
X10969Y13364D02*
X11172D01*
X11070Y13262D02*
Y13465D01*
X10969Y13897D02*
X11172D01*
X11070Y13795D02*
Y13999D01*
X10045Y10030D02*
X10249D01*
X10147Y9928D02*
Y10132D01*
X10045Y10730D02*
X10249D01*
X10147Y10628D02*
Y10832D01*
X7747Y10389D02*
X7950D01*
X7849Y10287D02*
Y10490D01*
X6597Y10030D02*
X6800D01*
X6698Y9928D02*
Y10132D01*
X6610Y10730D02*
X6814D01*
X6712Y10628D02*
Y10832D01*
X16739Y4466D02*
X16942D01*
X16840Y4364D02*
Y4567D01*
X16739Y5321D02*
X16942D01*
X16840Y5219D02*
Y5422D01*
X16739Y6176D02*
X16942D01*
X16840Y6074D02*
Y6278D01*
X21389Y12512D02*
X21592D01*
X21491Y12411D02*
Y12614D01*
X19787Y10280D02*
X19990D01*
X19888Y10179D02*
Y10382D01*
X21389Y11320D02*
X21592D01*
X21491Y11219D02*
Y11422D01*
X19787Y11480D02*
X19990D01*
X19888Y11379D02*
Y11582D01*
X20821Y4062D02*
X21024D01*
X20922Y3961D02*
Y4164D01*
X20142Y6213D02*
X20345D01*
X20244Y6112D02*
Y6315D01*
X19984Y5394D02*
X20187D01*
X20086Y5292D02*
Y5496D01*
X19984Y4394D02*
X20187D01*
X20086Y4292D02*
Y4496D01*
X34225Y15418D02*
X34428D01*
X34327Y15316D02*
Y15519D01*
X34366Y16027D02*
X34569D01*
X34468Y15926D02*
Y16129D01*
X25222Y16485D02*
X25425D01*
X25324Y16383D02*
Y16586D01*
X26010Y15494D02*
X26213D01*
X26111Y15392D02*
Y15596D01*
X4521Y13640D02*
X4724D01*
X4623Y13538D02*
Y13741D01*
X3531Y14613D02*
X3734D01*
X3632Y14512D02*
Y14715D01*
X7087Y12055D02*
X7290D01*
X7188Y11953D02*
Y12156D01*
X3547Y11147D02*
X3750D01*
X3649Y11045D02*
Y11248D01*
X7087Y11521D02*
X7290D01*
X7188Y11420D02*
Y11623D01*
X3547Y10613D02*
X3750D01*
X3649Y10512D02*
Y10715D01*
X7112Y16257D02*
X7315D01*
X7214Y16155D02*
Y16358D01*
X7112Y15723D02*
X7315D01*
X7214Y15622D02*
Y15825D01*
X3531Y15147D02*
X3734D01*
X3632Y15045D02*
Y15248D01*
X35941Y9912D02*
X36144D01*
X36043Y9811D02*
Y10014D01*
X37308Y641D02*
X37511D01*
X37410Y540D02*
Y743D01*
X24725Y24353D02*
X24928D01*
X24827Y24251D02*
Y24454D01*
X24240Y19003D02*
X24443D01*
X24342Y18901D02*
Y19105D01*
X23966Y19798D02*
X24170D01*
X24068Y19696D02*
Y19900D01*
X23966Y20712D02*
X24170D01*
X24068Y20611D02*
Y20814D01*
X24372Y21500D02*
X24575D01*
X24474Y21398D02*
Y21601D01*
X24233Y22200D02*
X24436D01*
X24334Y22098D02*
Y22301D01*
X36516Y24308D02*
X36719D01*
X36617Y24206D02*
Y24409D01*
X35916Y25208D02*
X36119D01*
X36017Y25106D02*
Y25309D01*
X35762Y24218D02*
X35966D01*
X35864Y24117D02*
Y24320D01*
X35474Y18901D02*
X35677D01*
X35576Y18800D02*
Y19003D01*
X35474Y19587D02*
X35677D01*
X35576Y19486D02*
Y19689D01*
X35458Y20269D02*
X35662D01*
X35560Y20168D02*
Y20371D01*
X35433Y20980D02*
X35636D01*
X35535Y20879D02*
Y21082D01*
Y21641D02*
X35738D01*
X35636Y21539D02*
Y21742D01*
X25044Y17094D02*
X25248D01*
X25146Y16993D02*
Y17196D01*
X30916Y14344D02*
X31119D01*
X31017Y14242D02*
Y14445D01*
X28931Y19685D02*
X29134D01*
X29032Y19583D02*
Y19787D01*
X28914Y21954D02*
X29117D01*
X29016Y21852D02*
Y22055D01*
X32315Y19221D02*
X32518D01*
X32416Y19120D02*
Y19323D01*
X27229Y19101D02*
X27432D01*
X27330Y19000D02*
Y19203D01*
X32376Y21553D02*
X32579D01*
X32477Y21452D02*
Y21655D01*
X27356Y20712D02*
X27559D01*
X27457Y20611D02*
Y20814D01*
X30019Y18400D02*
X30222D01*
X30121Y18298D02*
Y18502D01*
X30040Y17348D02*
X30244D01*
X30142Y17247D02*
Y17450D01*
X29540Y17348D02*
X29744D01*
X29642Y17247D02*
Y17450D01*
X34014Y23137D02*
X34217D01*
X34115Y23035D02*
Y23239D01*
X30540Y24714D02*
X30744D01*
X30642Y24613D02*
Y24816D01*
X30040Y23342D02*
X30244D01*
X30142Y23241D02*
Y23444D01*
X30540Y24218D02*
X30744D01*
X30642Y24117D02*
Y24320D01*
X30040Y24613D02*
X30244D01*
X30142Y24511D02*
Y24714D01*
X30040Y25405D02*
X30244D01*
X30142Y25303D02*
Y25506D01*
X32403Y22530D02*
X32607D01*
X32505Y22428D02*
Y22631D01*
X28046Y23533D02*
X28249D01*
X28147Y23432D02*
Y23635D01*
X28560Y23533D02*
X28763D01*
X28662Y23432D02*
Y23635D01*
X27531Y23533D02*
X27735D01*
X27633Y23432D02*
Y23635D01*
X31477Y20760D02*
X31681D01*
X31579Y20658D02*
Y20861D01*
X30845Y20760D02*
X31048D01*
X30946Y20658D02*
Y20861D01*
X30845Y19939D02*
X31048D01*
X30946Y19837D02*
Y20041D01*
X30845Y21801D02*
X31048D01*
X30946Y21699D02*
Y21902D01*
X30019Y21494D02*
X30222D01*
X30121Y21392D02*
Y21595D01*
X30032Y20077D02*
X30235D01*
X30133Y19976D02*
Y20179D01*
X28661Y20760D02*
X28864D01*
X28762Y20658D02*
Y20861D01*
X28042Y21525D02*
X28245D01*
X28143Y21424D02*
Y21627D01*
X27305Y22530D02*
X27508D01*
X27407Y22428D02*
Y22631D01*
X25783Y22965D02*
X25986D01*
X25884Y22864D02*
Y23067D01*
X27335Y21553D02*
X27538D01*
X27436Y21452D02*
Y21655D01*
X32040Y17598D02*
X32244D01*
X32142Y17497D02*
Y17700D01*
X27540Y17598D02*
X27744D01*
X27642Y17497D02*
Y17700D01*
X50759Y9402D02*
X50962D01*
X50860Y9300D02*
Y9503D01*
X50633Y6715D02*
X50837D01*
X50735Y6614D02*
Y6817D01*
X47360Y8612D02*
X47563D01*
X47462Y8511D02*
Y8714D01*
X53766Y1995D02*
X53969D01*
X53868Y1894D02*
Y2097D01*
X50759Y4216D02*
X50962D01*
X50860Y4115D02*
Y4318D01*
X49920Y4216D02*
X50123D01*
X50022Y4115D02*
Y4318D01*
X55360Y6715D02*
X55563D01*
X55461Y6614D02*
Y6817D01*
X55880Y2981D02*
X56083D01*
X55982Y2880D02*
Y3083D01*
X50871Y8798D02*
X51074D01*
X50972Y8697D02*
Y8900D01*
X55440Y7302D02*
X55643D01*
X55541Y7200D02*
Y7403D01*
X40860Y4712D02*
X41063D01*
X40962Y4611D02*
Y4814D01*
X36454Y641D02*
X36657D01*
X36556Y540D02*
Y743D01*
X38260Y547D02*
X38463D01*
X38362Y445D02*
Y648D01*
X25410Y663D02*
X25613D01*
X25511Y561D02*
Y764D01*
X28935Y13480D02*
X29138D01*
X29036Y13379D02*
Y13582D01*
X34996Y1638D02*
X35199D01*
X35097Y1536D02*
Y1740D01*
X30912Y1295D02*
X31115D01*
X31013Y1194D02*
Y1397D01*
X43460Y4712D02*
X43663D01*
X43562Y4611D02*
Y4814D01*
X46060Y5362D02*
X46263D01*
X46162Y5261D02*
Y5464D01*
X43460Y4062D02*
X43663D01*
X43562Y3961D02*
Y4164D01*
X45410Y5362D02*
X45613D01*
X45512Y5261D02*
Y5464D01*
X43460Y5362D02*
X43663D01*
X43562Y5261D02*
Y5464D01*
X50759Y22457D02*
X50962D01*
X50860Y22355D02*
Y22559D01*
X51856Y22457D02*
X52059D01*
X51958Y22355D02*
Y22559D01*
X52954Y22457D02*
X53157D01*
X53055Y22355D02*
Y22559D01*
X54051Y20992D02*
X54254D01*
X54153Y20890D02*
Y21093D01*
X54051Y22457D02*
X54254D01*
X54153Y22355D02*
Y22559D01*
X22847Y857D02*
X23050D01*
X22949Y756D02*
Y959D01*
X21376Y3067D02*
X21579D01*
X21477Y2965D02*
Y3169D01*
X19507Y1781D02*
X19710D01*
X19609Y1679D02*
Y1882D01*
X21422Y857D02*
X21625D01*
X21523Y756D02*
Y959D01*
X4864Y3873D02*
X5067D01*
X4966Y3771D02*
Y3974D01*
X3328Y4479D02*
X3531D01*
X3429Y4377D02*
Y4581D01*
X3328Y5774D02*
X3531D01*
X3429Y5673D02*
Y5876D01*
X461Y3873D02*
X664D01*
X563Y3771D02*
Y3974D01*
X461Y4836D02*
X664D01*
X563Y4735D02*
Y4938D01*
X-491Y3873D02*
X-288D01*
X-390Y3771D02*
Y3974D01*
X-491Y4836D02*
X-288D01*
X-390Y4735D02*
Y4938D01*
X-491Y5800D02*
X-288D01*
X-390Y5698D02*
Y5902D01*
X9826Y3412D02*
X10029D01*
X9928Y3311D02*
Y3514D01*
X8576Y3412D02*
X8779D01*
X8678Y3311D02*
Y3514D01*
X7326Y3412D02*
X7529D01*
X7428Y3311D02*
Y3514D01*
X6076Y3412D02*
X6279D01*
X6178Y3311D02*
Y3514D01*
X47951Y1017D02*
X48155D01*
X48053Y916D02*
Y1119D01*
X48527Y503D02*
X48731D01*
X48629Y402D02*
Y605D01*
X25614Y1648D02*
X25817D01*
X25716Y1546D02*
Y1750D01*
X25614Y3226D02*
X25817D01*
X25716Y3124D02*
Y3327D01*
X29735Y1397D02*
X29938D01*
X29836Y1295D02*
Y1499D01*
X27804Y1163D02*
X28007D01*
X27905Y1061D02*
Y1265D01*
X28097Y1781D02*
X28300D01*
X28198Y1679D02*
Y1882D01*
X33521Y1163D02*
X33724D01*
X33622Y1061D02*
Y1265D01*
X33727Y1781D02*
X33931D01*
X33829Y1679D02*
Y1882D01*
X24535Y3412D02*
X24738D01*
X24636Y3311D02*
Y3514D01*
X40861Y2102D02*
X41064D01*
X40963Y2000D02*
Y2203D01*
X42160Y2762D02*
X42363D01*
X42262Y2661D02*
Y2864D01*
X45523Y2102D02*
X45726D01*
X45624Y2000D02*
Y2203D01*
X44983Y2102D02*
X45186D01*
X45085Y2000D02*
Y2203D01*
X46710Y1558D02*
X46913D01*
X46812Y1456D02*
Y1660D01*
X38910Y14462D02*
X39113D01*
X39012Y14361D02*
Y14564D01*
X38260Y14462D02*
X38463D01*
X38362Y14361D02*
Y14564D01*
X43642Y19126D02*
X43845D01*
X43744Y19025D02*
Y19228D01*
X40658Y17417D02*
X40861D01*
X40760Y17316D02*
Y17519D01*
X39858Y17417D02*
X40061D01*
X39960Y17316D02*
Y17519D01*
X39058Y17417D02*
X39261D01*
X39160Y17316D02*
Y17519D01*
X38258Y17417D02*
X38461D01*
X38360Y17316D02*
Y17519D01*
X37458Y17417D02*
X37661D01*
X37560Y17316D02*
Y17519D01*
X36658Y17417D02*
X36861D01*
X36760Y17316D02*
Y17519D01*
X41458Y23017D02*
X41661D01*
X41560Y22916D02*
Y23119D01*
X37308Y23017D02*
X37511D01*
X37410Y22916D02*
Y23119D01*
X38908Y23017D02*
X39111D01*
X39010Y22916D02*
Y23119D01*
X40508Y23017D02*
X40711D01*
X40610Y22916D02*
Y23119D01*
X43708Y23017D02*
X43911D01*
X43810Y22916D02*
Y23119D01*
X45308Y23017D02*
X45511D01*
X45410Y22916D02*
Y23119D01*
X46908Y23017D02*
X47111D01*
X47010Y22916D02*
Y23119D01*
X48508Y23017D02*
X48711D01*
X48610Y22916D02*
Y23119D01*
X44508Y22217D02*
X44711D01*
X44610Y22116D02*
Y22319D01*
X45237Y19126D02*
X45441D01*
X45339Y19025D02*
Y19228D01*
X38258Y16617D02*
X38461D01*
X38360Y16516D02*
Y16719D01*
X37458Y16617D02*
X37661D01*
X37560Y16516D02*
Y16719D01*
X36658Y16617D02*
X36861D01*
X36760Y16516D02*
Y16719D01*
X41458Y16617D02*
X41661D01*
X41560Y16516D02*
Y16719D01*
X39858Y14905D02*
X40061D01*
X39960Y14803D02*
Y15007D01*
X40860Y14462D02*
X41063D01*
X40962Y14361D02*
Y14564D01*
X39560Y14462D02*
X39763D01*
X39662Y14361D02*
Y14564D01*
X41510Y14905D02*
X41713D01*
X41612Y14803D02*
Y15007D01*
X41835Y14500D02*
X42038D01*
X41937Y14398D02*
Y14602D01*
X42810Y14462D02*
X43013D01*
X42912Y14361D02*
Y14564D01*
X46908Y18217D02*
X47111D01*
X47010Y18116D02*
Y18319D01*
X48508Y16617D02*
X48711D01*
X48610Y16516D02*
Y16719D01*
X47708Y16617D02*
X47911D01*
X47810Y16516D02*
Y16719D01*
X46908Y16617D02*
X47111D01*
X47010Y16516D02*
Y16719D01*
X46108Y16617D02*
X46311D01*
X46210Y16516D02*
Y16719D01*
X45308Y16617D02*
X45511D01*
X45410Y16516D02*
Y16719D01*
X44508Y16617D02*
X44711D01*
X44610Y16516D02*
Y16719D01*
X48658Y18867D02*
X48861D01*
X48760Y18766D02*
Y18969D01*
X43058Y18867D02*
X43261D01*
X43160Y18766D02*
Y18969D01*
X40658Y18867D02*
X40861D01*
X40760Y18766D02*
Y18969D01*
X39858Y18867D02*
X40061D01*
X39960Y18766D02*
Y18969D01*
X39058Y18867D02*
X39261D01*
X39160Y18766D02*
Y18969D01*
X38258Y18867D02*
X38461D01*
X38360Y18766D02*
Y18969D01*
X37458Y18867D02*
X37661D01*
X37560Y18766D02*
Y18969D01*
X36658Y18867D02*
X36861D01*
X36760Y18766D02*
Y18969D01*
X31335Y7880D02*
X31538D01*
X31436Y7779D02*
Y7982D01*
X38910Y9262D02*
X39113D01*
X39012Y9161D02*
Y9364D01*
X36310Y4062D02*
X36513D01*
X36412Y3961D02*
Y4164D01*
X36310Y5362D02*
X36513D01*
X36412Y5261D02*
Y5464D01*
X36310Y6012D02*
X36513D01*
X36412Y5911D02*
Y6114D01*
X36310Y6662D02*
X36513D01*
X36412Y6561D02*
Y6764D01*
X32935Y10280D02*
X33138D01*
X33036Y10179D02*
Y10382D01*
X32135Y11080D02*
X32338D01*
X32236Y10979D02*
Y11182D01*
X32935Y11880D02*
X33138D01*
X33036Y11779D02*
Y11982D01*
X28135Y5480D02*
X28338D01*
X28236Y5379D02*
Y5582D01*
X28935Y6280D02*
X29138D01*
X29036Y6179D02*
Y6382D01*
X28935Y7080D02*
X29138D01*
X29036Y6979D02*
Y7182D01*
X28135Y7080D02*
X28338D01*
X28236Y6979D02*
Y7182D01*
X28135Y7880D02*
X28338D01*
X28236Y7779D02*
Y7982D01*
X28935Y7880D02*
X29138D01*
X29036Y7779D02*
Y7982D01*
X28935Y10280D02*
X29138D01*
X29036Y10179D02*
Y10382D01*
X28935Y11080D02*
X29138D01*
X29036Y10979D02*
Y11182D01*
X28935Y11880D02*
X29138D01*
X29036Y11779D02*
Y11982D01*
X28935Y12680D02*
X29138D01*
X29036Y12579D02*
Y12782D01*
X32935Y12680D02*
X33138D01*
X33036Y12579D02*
Y12782D01*
X32135Y13480D02*
X32338D01*
X32236Y13379D02*
Y13582D01*
X36310Y9262D02*
X36513D01*
X36412Y9161D02*
Y9364D01*
X32135Y12680D02*
X32338D01*
X32236Y12579D02*
Y12782D01*
X39560Y9262D02*
X39763D01*
X39662Y9161D02*
Y9364D01*
X32135Y11880D02*
X32338D01*
X32236Y11779D02*
Y11982D01*
X39560Y7312D02*
X39763D01*
X39662Y7211D02*
Y7414D01*
X32135Y10280D02*
X32338D01*
X32236Y10179D02*
Y10382D01*
X32935Y13480D02*
X33138D01*
X33036Y13379D02*
Y13582D01*
X32135Y8680D02*
X32338D01*
X32236Y8579D02*
Y8782D01*
X32935Y8680D02*
X33138D01*
X33036Y8579D02*
Y8782D01*
X32935Y7880D02*
X33138D01*
X33036Y7779D02*
Y7982D01*
X37610Y9912D02*
X37813D01*
X37712Y9811D02*
Y10014D01*
X38260Y9912D02*
X38463D01*
X38362Y9811D02*
Y10014D01*
X36310Y13162D02*
X36513D01*
X36412Y13061D02*
Y13264D01*
X36310Y12512D02*
X36513D01*
X36412Y12411D02*
Y12614D01*
X36310Y11862D02*
X36513D01*
X36412Y11761D02*
Y11964D01*
X36960Y12512D02*
X37163D01*
X37062Y12411D02*
Y12614D01*
X37610Y13162D02*
X37813D01*
X37712Y13061D02*
Y13264D01*
X36310Y11212D02*
X36513D01*
X36412Y11111D02*
Y11314D01*
X36310Y10562D02*
X36513D01*
X36412Y10461D02*
Y10664D01*
X36960Y11862D02*
X37163D01*
X37062Y11761D02*
Y11964D01*
X38260Y13162D02*
X38463D01*
X38362Y13061D02*
Y13264D01*
X37610Y12512D02*
X37813D01*
X37712Y12411D02*
Y12614D01*
X36310Y7962D02*
X36513D01*
X36412Y7861D02*
Y8064D01*
X36960Y11212D02*
X37163D01*
X37062Y11111D02*
Y11314D01*
X38910Y13162D02*
X39113D01*
X39012Y13061D02*
Y13264D01*
X37610Y11862D02*
X37813D01*
X37712Y11761D02*
Y11964D01*
X36960Y10562D02*
X37163D01*
X37062Y10461D02*
Y10664D01*
X38260Y12512D02*
X38463D01*
X38362Y12411D02*
Y12614D01*
X36960Y7312D02*
X37163D01*
X37062Y7211D02*
Y7414D01*
X36960Y9262D02*
X37163D01*
X37062Y9161D02*
Y9364D01*
X36960Y7962D02*
X37163D01*
X37062Y7861D02*
Y8064D01*
X37610Y11212D02*
X37813D01*
X37712Y11111D02*
Y11314D01*
X38910Y12512D02*
X39113D01*
X39012Y12411D02*
Y12614D01*
X38260Y11862D02*
X38463D01*
X38362Y11761D02*
Y11964D01*
X37610Y10562D02*
X37813D01*
X37712Y10461D02*
Y10664D01*
X37610Y7312D02*
X37813D01*
X37712Y7211D02*
Y7414D01*
X39560Y12512D02*
X39763D01*
X39662Y12411D02*
Y12614D01*
X38260Y11212D02*
X38463D01*
X38362Y11111D02*
Y11314D01*
X37610Y9262D02*
X37813D01*
X37712Y9161D02*
Y9364D01*
X37610Y7962D02*
X37813D01*
X37712Y7861D02*
Y8064D01*
X38910Y11862D02*
X39113D01*
X39012Y11761D02*
Y11964D01*
X38260Y10562D02*
X38463D01*
X38362Y10461D02*
Y10664D01*
X39560Y11862D02*
X39763D01*
X39662Y11761D02*
Y11964D01*
X38910Y11212D02*
X39113D01*
X39012Y11111D02*
Y11314D01*
X38260Y7312D02*
X38463D01*
X38362Y7211D02*
Y7414D01*
X38260Y9262D02*
X38463D01*
X38362Y9161D02*
Y9364D01*
X38260Y7962D02*
X38463D01*
X38362Y7861D02*
Y8064D01*
X38910Y10562D02*
X39113D01*
X39012Y10461D02*
Y10664D01*
X39560Y11212D02*
X39763D01*
X39662Y11111D02*
Y11314D01*
X38910Y9912D02*
X39113D01*
X39012Y9811D02*
Y10014D01*
X38910Y7312D02*
X39113D01*
X39012Y7211D02*
Y7414D01*
X38910Y7962D02*
X39113D01*
X39012Y7861D02*
Y8064D01*
X39560Y10562D02*
X39763D01*
X39662Y10461D02*
Y10664D01*
X39560Y9912D02*
X39763D01*
X39662Y9811D02*
Y10014D01*
X39560Y7962D02*
X39763D01*
X39662Y7861D02*
Y8064D01*
X37610Y2762D02*
X37813D01*
X37712Y2661D02*
Y2864D01*
X56081Y4378D02*
X56285D01*
X56183Y4276D02*
Y4479D01*
X56132Y3844D02*
X56335D01*
X56234Y3743D02*
Y3946D01*
X39383Y1638D02*
X39586D01*
X39485Y1536D02*
Y1740D01*
X48145Y2031D02*
X48349D01*
X48247Y1929D02*
Y2132D01*
X51023Y978D02*
X51227D01*
X51125Y877D02*
Y1080D01*
X49920Y2019D02*
X50123D01*
X50022Y1917D02*
Y2120D01*
X54659Y503D02*
X54862D01*
X54761Y402D02*
Y605D01*
X52872Y2003D02*
X53075D01*
X52974Y1902D02*
Y2105D01*
X51769Y1544D02*
X51972D01*
X51871Y1442D02*
Y1645D01*
X49920Y519D02*
X50123D01*
X50022Y417D02*
Y620D01*
X52872Y503D02*
X53075D01*
X52974Y402D02*
Y605D01*
X47360Y4062D02*
X47563D01*
X47462Y3961D02*
Y4164D01*
X48010Y4062D02*
X48213D01*
X48112Y3961D02*
Y4164D01*
X47360Y4712D02*
X47563D01*
X47462Y4611D02*
Y4814D01*
X48010Y4712D02*
X48213D01*
X48112Y4611D02*
Y4814D01*
X47360Y5362D02*
X47563D01*
X47462Y5261D02*
Y5464D01*
X48010Y5362D02*
X48213D01*
X48112Y5261D02*
Y5464D01*
X47360Y6012D02*
X47563D01*
X47462Y5911D02*
Y6114D01*
X52932Y10272D02*
X53135D01*
X53033Y10171D02*
Y10374D01*
X48010Y6662D02*
X48213D01*
X48112Y6561D02*
Y6764D01*
X48010Y6012D02*
X48213D01*
X48112Y5911D02*
Y6114D01*
X53908Y15102D02*
X54111D01*
X54009Y15000D02*
Y15204D01*
X45410Y12512D02*
X45613D01*
X45512Y12411D02*
Y12614D01*
X53374Y15102D02*
X53577D01*
X53476Y15000D02*
Y15203D01*
X53422Y15633D02*
X53625D01*
X53523Y15532D02*
Y15735D01*
X46060Y13162D02*
X46263D01*
X46162Y13061D02*
Y13264D01*
X53029Y15994D02*
X53232D01*
X53131Y15893D02*
Y16096D01*
X45410Y13162D02*
X45613D01*
X45512Y13061D02*
Y13264D01*
X53551Y17715D02*
X53754D01*
X53653Y17614D02*
Y17817D01*
X53018Y17715D02*
X53221D01*
X53119Y17614D02*
Y17817D01*
X44760Y14462D02*
X44963D01*
X44862Y14361D02*
Y14564D01*
X44110Y14462D02*
X44313D01*
X44212Y14361D02*
Y14564D01*
X52324Y17715D02*
X52527D01*
X52425Y17614D02*
Y17817D01*
X51111Y13598D02*
X51315D01*
X51213Y13497D02*
Y13700D01*
X53899Y11213D02*
X54102D01*
X54000Y11112D02*
Y11315D01*
X53899Y12995D02*
X54102D01*
X54000Y12894D02*
Y13097D01*
X53899Y12395D02*
X54102D01*
X54000Y12294D02*
Y12497D01*
X52415Y10002D02*
X52618D01*
X52517Y9900D02*
Y10103D01*
X52415Y9402D02*
X52618D01*
X52517Y9300D02*
Y9503D01*
X55440Y9702D02*
X55643D01*
X55541Y9600D02*
Y9803D01*
X55440Y10302D02*
X55643D01*
X55541Y10200D02*
Y10403D01*
X55440Y10902D02*
X55643D01*
X55541Y10800D02*
Y11003D01*
X55440Y11502D02*
X55643D01*
X55541Y11400D02*
Y11603D01*
X55440Y12102D02*
X55643D01*
X55541Y12000D02*
Y12203D01*
X55440Y12702D02*
X55643D01*
X55541Y12600D02*
Y12803D01*
X55440Y13302D02*
X55643D01*
X55541Y13200D02*
Y13403D01*
X55440Y13902D02*
X55643D01*
X55541Y13800D02*
Y14003D01*
X55440Y15102D02*
X55643D01*
X55541Y15000D02*
Y15203D01*
X55440Y16902D02*
X55643D01*
X55541Y16800D02*
Y17003D01*
X55440Y18702D02*
X55643D01*
X55541Y18600D02*
Y18803D01*
X52497Y16027D02*
X52700D01*
X52598Y15926D02*
Y16129D01*
X47360Y11212D02*
X47563D01*
X47462Y11111D02*
Y11314D01*
X48160Y12233D02*
X48363D01*
X48262Y12131D02*
Y12335D01*
X48010Y13812D02*
X48213D01*
X48112Y13711D02*
Y13914D01*
X47354Y13812D02*
X47557D01*
X47455Y13711D02*
Y13914D01*
X47360Y13162D02*
X47563D01*
X47462Y13061D02*
Y13264D01*
X45410Y11862D02*
X45613D01*
X45512Y11761D02*
Y11964D01*
X45412Y14462D02*
X45615D01*
X45513Y14361D02*
Y14564D01*
X31335Y8680D02*
X31538D01*
X31436Y8579D02*
Y8782D01*
X32935Y6280D02*
X33138D01*
X33036Y6179D02*
Y6382D01*
X26535Y12680D02*
X26738D01*
X26636Y12579D02*
Y12782D01*
X29735Y13480D02*
X29938D01*
X29836Y13379D02*
Y13582D01*
X29735Y11080D02*
X29938D01*
X29836Y10979D02*
Y11182D01*
X27335Y12680D02*
X27538D01*
X27436Y12579D02*
Y12782D01*
X30535Y13480D02*
X30738D01*
X30636Y13379D02*
Y13582D01*
X31335Y13480D02*
X31538D01*
X31436Y13379D02*
Y13582D01*
X27335Y11880D02*
X27538D01*
X27436Y11779D02*
Y11982D01*
X24935Y6280D02*
X25138D01*
X25036Y6179D02*
Y6382D01*
X24935Y12680D02*
X25138D01*
X25036Y12579D02*
Y12782D01*
X26535Y11080D02*
X26738D01*
X26636Y10979D02*
Y11182D01*
X25735Y11880D02*
X25938D01*
X25836Y11779D02*
Y11982D01*
X30535Y11880D02*
X30738D01*
X30636Y11779D02*
Y11982D01*
X30535Y11080D02*
X30738D01*
X30636Y10979D02*
Y11182D01*
X31335Y11080D02*
X31538D01*
X31436Y10979D02*
Y11182D01*
X29735Y6280D02*
X29938D01*
X29836Y6179D02*
Y6382D01*
X28135Y4680D02*
X28338D01*
X28236Y4579D02*
Y4782D01*
X24935Y7080D02*
X25138D01*
X25036Y6979D02*
Y7182D01*
X31335Y12680D02*
X31538D01*
X31436Y12579D02*
Y12782D01*
X25735Y13480D02*
X25938D01*
X25836Y13379D02*
Y13582D01*
X25735Y10280D02*
X25938D01*
X25836Y10179D02*
Y10382D01*
X30535Y10280D02*
X30738D01*
X30636Y10179D02*
Y10382D01*
X29735Y11880D02*
X29938D01*
X29836Y11779D02*
Y11982D01*
X29735Y12680D02*
X29938D01*
X29836Y12579D02*
Y12782D01*
X24135Y4680D02*
X24338D01*
X24236Y4579D02*
Y4782D01*
X30535Y12680D02*
X30738D01*
X30636Y12579D02*
Y12782D01*
X25735Y5480D02*
X25938D01*
X25836Y5379D02*
Y5582D01*
X26535Y7080D02*
X26738D01*
X26636Y6979D02*
Y7182D01*
X31335Y11880D02*
X31538D01*
X31436Y11779D02*
Y11982D01*
X31335Y5480D02*
X31538D01*
X31436Y5379D02*
Y5582D01*
X30535Y5480D02*
X30738D01*
X30636Y5379D02*
Y5582D01*
X32135Y6280D02*
X32338D01*
X32236Y6179D02*
Y6382D01*
X26535Y11880D02*
X26738D01*
X26636Y11779D02*
Y11982D01*
X24935Y4680D02*
X25138D01*
X25036Y4579D02*
Y4782D01*
X24935Y11080D02*
X25138D01*
X25036Y10979D02*
Y11182D01*
X29735Y4680D02*
X29938D01*
X29836Y4579D02*
Y4782D01*
X24935Y11880D02*
X25138D01*
X25036Y11779D02*
Y11982D01*
X24935Y7880D02*
X25138D01*
X25036Y7779D02*
Y7982D01*
X32135Y7080D02*
X32338D01*
X32236Y6979D02*
Y7182D01*
X29735Y8680D02*
X29938D01*
X29836Y8579D02*
Y8782D01*
X30535Y6280D02*
X30738D01*
X30636Y6179D02*
Y6382D01*
X32135Y4680D02*
X32338D01*
X32236Y4579D02*
Y4782D01*
X30535Y4680D02*
X30738D01*
X30636Y4579D02*
Y4782D01*
X24135Y10280D02*
X24338D01*
X24236Y10179D02*
Y10382D01*
X25735Y11080D02*
X25938D01*
X25836Y10979D02*
Y11182D01*
X24135Y11080D02*
X24338D01*
X24236Y10979D02*
Y11182D01*
X27335Y6280D02*
X27538D01*
X27436Y6179D02*
Y6382D01*
X31335Y4680D02*
X31538D01*
X31436Y4579D02*
Y4782D01*
X31335Y10280D02*
X31538D01*
X31436Y10179D02*
Y10382D01*
X29735Y10280D02*
X29938D01*
X29836Y10179D02*
Y10382D01*
X24935Y10280D02*
X25138D01*
X25036Y10179D02*
Y10382D01*
X30535Y7880D02*
X30738D01*
X30636Y7779D02*
Y7982D01*
X26535Y7880D02*
X26738D01*
X26636Y7779D02*
Y7982D01*
X27335Y8680D02*
X27538D01*
X27436Y8579D02*
Y8782D01*
X25735Y8680D02*
X25938D01*
X25836Y8579D02*
Y8782D01*
X24935Y8680D02*
X25138D01*
X25036Y8579D02*
Y8782D01*
X29735Y5480D02*
X29938D01*
X29836Y5379D02*
Y5582D01*
X25735Y7880D02*
X25938D01*
X25836Y7779D02*
Y7982D01*
X25735Y4680D02*
X25938D01*
X25836Y4579D02*
Y4782D01*
X31335Y7080D02*
X31538D01*
X31436Y6979D02*
Y7182D01*
X32935Y5480D02*
X33138D01*
X33036Y5379D02*
Y5582D01*
X25735Y6280D02*
X25938D01*
X25836Y6179D02*
Y6382D01*
X30535Y7080D02*
X30738D01*
X30636Y6979D02*
Y7182D01*
X31335Y6280D02*
X31538D01*
X31436Y6179D02*
Y6382D01*
X27335Y5480D02*
X27538D01*
X27436Y5379D02*
Y5582D01*
X32135Y5480D02*
X32338D01*
X32236Y5379D02*
Y5582D01*
X24935Y5480D02*
X25138D01*
X25036Y5379D02*
Y5582D01*
X28935Y8680D02*
X29138D01*
X29036Y8579D02*
Y8782D01*
X27356Y11049D02*
X27559D01*
X27457Y10947D02*
Y11151D01*
X44760Y11212D02*
X44963D01*
X44862Y11111D02*
Y11314D01*
X41510Y11212D02*
X41713D01*
X41612Y11111D02*
Y11314D01*
X45410Y9262D02*
X45613D01*
X45512Y9161D02*
Y9364D01*
X44110Y5362D02*
X44313D01*
X44212Y5261D02*
Y5464D01*
X46060Y3412D02*
X46263D01*
X46162Y3311D02*
Y3514D01*
X40860Y5362D02*
X41063D01*
X40962Y5261D02*
Y5464D01*
X47360Y3412D02*
X47563D01*
X47462Y3311D02*
Y3514D01*
X49308Y17417D02*
X49511D01*
X49410Y17316D02*
Y17519D01*
X48508Y17417D02*
X48711D01*
X48610Y17316D02*
Y17519D01*
X47708Y17417D02*
X47911D01*
X47810Y17316D02*
Y17519D01*
X46908Y17417D02*
X47111D01*
X47010Y17316D02*
Y17519D01*
X46108Y17417D02*
X46311D01*
X46210Y17316D02*
Y17519D01*
X45308Y17417D02*
X45511D01*
X45410Y17316D02*
Y17519D01*
X49308Y22217D02*
X49511D01*
X49410Y22116D02*
Y22319D01*
X49308Y23017D02*
X49511D01*
X49410Y22916D02*
Y23119D01*
X48508Y22217D02*
X48711D01*
X48610Y22116D02*
Y22319D01*
X47708Y22217D02*
X47911D01*
X47810Y22116D02*
Y22319D01*
X47708Y23017D02*
X47911D01*
X47810Y22916D02*
Y23119D01*
X46908Y22217D02*
X47111D01*
X47010Y22116D02*
Y22319D01*
X46108Y22217D02*
X46311D01*
X46210Y22116D02*
Y22319D01*
X46108Y23017D02*
X46311D01*
X46210Y22916D02*
Y23119D01*
X45308Y22217D02*
X45511D01*
X45410Y22116D02*
Y22319D01*
X44508Y23017D02*
X44711D01*
X44610Y22916D02*
Y23119D01*
X42908Y22217D02*
X43111D01*
X43010Y22116D02*
Y22319D01*
X43708Y22217D02*
X43911D01*
X43810Y22116D02*
Y22319D01*
X42108Y22217D02*
X42311D01*
X42210Y22116D02*
Y22319D01*
X38108Y23017D02*
X38311D01*
X38210Y22916D02*
Y23119D01*
X39708Y23017D02*
X39911D01*
X39810Y22916D02*
Y23119D01*
X41308Y22217D02*
X41511D01*
X41410Y22116D02*
Y22319D01*
X40508Y22217D02*
X40711D01*
X40610Y22116D02*
Y22319D01*
X39708Y22217D02*
X39911D01*
X39810Y22116D02*
Y22319D01*
X38908Y22217D02*
X39111D01*
X39010Y22116D02*
Y22319D01*
X38108Y22217D02*
X38311D01*
X38210Y22116D02*
Y22319D01*
X37308Y22217D02*
X37511D01*
X37410Y22116D02*
Y22319D01*
X36983Y21212D02*
X37186D01*
X37085Y21111D02*
Y21314D01*
X48183Y21212D02*
X48386D01*
X48285Y21111D02*
Y21314D01*
X38583Y21212D02*
X38786D01*
X38685Y21111D02*
Y21314D01*
X46583Y21212D02*
X46786D01*
X46685Y21111D02*
Y21314D01*
X40183Y21212D02*
X40386D01*
X40285Y21111D02*
Y21314D01*
X41783Y21212D02*
X41986D01*
X41885Y21111D02*
Y21314D01*
X43383Y21212D02*
X43586D01*
X43485Y21111D02*
Y21314D01*
X48983Y21212D02*
X49186D01*
X49085Y21111D02*
Y21314D01*
X47383Y21212D02*
X47586D01*
X47485Y21111D02*
Y21314D01*
X45783Y21212D02*
X45986D01*
X45885Y21111D02*
Y21314D01*
X42583Y21212D02*
X42786D01*
X42685Y21111D02*
Y21314D01*
X40983Y21212D02*
X41186D01*
X41085Y21111D02*
Y21314D01*
X39383Y21212D02*
X39586D01*
X39485Y21111D02*
Y21314D01*
X37783Y21212D02*
X37986D01*
X37885Y21111D02*
Y21314D01*
X36310Y14462D02*
X36513D01*
X36412Y14361D02*
Y14564D01*
X36310Y2762D02*
X36513D01*
X36412Y2661D02*
Y2864D01*
X36960Y14462D02*
X37163D01*
X37062Y14361D02*
Y14564D01*
X36310Y13812D02*
X36513D01*
X36412Y13711D02*
Y13914D01*
X36960Y2762D02*
X37163D01*
X37062Y2661D02*
Y2864D01*
X37610Y14462D02*
X37813D01*
X37712Y14361D02*
Y14564D01*
X36960Y13812D02*
X37163D01*
X37062Y13711D02*
Y13914D01*
X36960Y3412D02*
X37163D01*
X37062Y3311D02*
Y3514D01*
X36310Y4712D02*
X36513D01*
X36412Y4611D02*
Y4814D01*
X38260Y2762D02*
X38463D01*
X38362Y2661D02*
Y2864D01*
X37610Y13812D02*
X37813D01*
X37712Y13711D02*
Y13914D01*
X36960Y4062D02*
X37163D01*
X37062Y3961D02*
Y4164D01*
X46710Y3412D02*
X46913D01*
X46812Y3311D02*
Y3514D01*
X37610Y3412D02*
X37813D01*
X37712Y3311D02*
Y3514D01*
X38910Y2762D02*
X39113D01*
X39012Y2661D02*
Y2864D01*
X38260Y13812D02*
X38463D01*
X38362Y13711D02*
Y13914D01*
X36960Y4712D02*
X37163D01*
X37062Y4611D02*
Y4814D01*
X38260Y3412D02*
X38463D01*
X38362Y3311D02*
Y3514D01*
X46710Y4062D02*
X46913D01*
X46812Y3961D02*
Y4164D01*
X37610Y4062D02*
X37813D01*
X37712Y3961D02*
Y4164D01*
X44760Y2762D02*
X44963D01*
X44862Y2661D02*
Y2864D01*
X39560Y2762D02*
X39763D01*
X39662Y2661D02*
Y2864D01*
X38910Y13812D02*
X39113D01*
X39012Y13711D02*
Y13914D01*
X36960Y5362D02*
X37163D01*
X37062Y5261D02*
Y5464D01*
X38910Y3412D02*
X39113D01*
X39012Y3311D02*
Y3514D01*
X48010Y7312D02*
X48213D01*
X48112Y7211D02*
Y7414D01*
X48010Y9262D02*
X48213D01*
X48112Y9161D02*
Y9364D01*
X48010Y7962D02*
X48213D01*
X48112Y7861D02*
Y8064D01*
X46710Y4712D02*
X46913D01*
X46812Y4611D02*
Y4814D01*
X37610Y4712D02*
X37813D01*
X37712Y4611D02*
Y4814D01*
X46060Y4062D02*
X46263D01*
X46162Y3961D02*
Y4164D01*
X38260Y4062D02*
X38463D01*
X38362Y3961D02*
Y4164D01*
X39560Y13812D02*
X39763D01*
X39662Y13711D02*
Y13914D01*
X36960Y6012D02*
X37163D01*
X37062Y5911D02*
Y6114D01*
X44760Y3412D02*
X44963D01*
X44862Y3311D02*
Y3514D01*
X39560Y3412D02*
X39763D01*
X39662Y3311D02*
Y3514D01*
X47360Y6662D02*
X47563D01*
X47462Y6561D02*
Y6764D01*
X36960Y6662D02*
X37163D01*
X37062Y6561D02*
Y6764D01*
X46710Y5362D02*
X46913D01*
X46812Y5261D02*
Y5464D01*
X37610Y5362D02*
X37813D01*
X37712Y5261D02*
Y5464D01*
X38910Y4062D02*
X39113D01*
X39012Y3961D02*
Y4164D01*
X44110Y3412D02*
X44313D01*
X44212Y3311D02*
Y3514D01*
X40210Y3412D02*
X40413D01*
X40312Y3311D02*
Y3514D01*
X46060Y4712D02*
X46263D01*
X46162Y4611D02*
Y4814D01*
X40860Y13812D02*
X41063D01*
X40962Y13711D02*
Y13914D01*
X47360Y7312D02*
X47563D01*
X47462Y7211D02*
Y7414D01*
X43460Y3412D02*
X43663D01*
X43562Y3311D02*
Y3514D01*
X42810Y13812D02*
X43013D01*
X42912Y13711D02*
Y13914D01*
X41510Y13812D02*
X41713D01*
X41612Y13711D02*
Y13914D01*
X47360Y7962D02*
X47563D01*
X47462Y7861D02*
Y8064D01*
X46710Y11212D02*
X46913D01*
X46812Y11111D02*
Y11314D01*
X46710Y6012D02*
X46913D01*
X46812Y5911D02*
Y6114D01*
X37610Y6012D02*
X37813D01*
X37712Y5911D02*
Y6114D01*
X39560Y4062D02*
X39763D01*
X39662Y3961D02*
Y4164D01*
X38260Y5362D02*
X38463D01*
X38362Y5261D02*
Y5464D01*
X45410Y4712D02*
X45613D01*
X45512Y4611D02*
Y4814D01*
X38910Y4712D02*
X39113D01*
X39012Y4611D02*
Y4814D01*
X46710Y10562D02*
X46913D01*
X46812Y10461D02*
Y10664D01*
X46710Y6662D02*
X46913D01*
X46812Y6561D02*
Y6764D01*
X37610Y6662D02*
X37813D01*
X37712Y6561D02*
Y6764D01*
X44110Y4062D02*
X44313D01*
X44212Y3961D02*
Y4164D01*
X43460Y13162D02*
X43663D01*
X43562Y13061D02*
Y13264D01*
X40860Y13162D02*
X41063D01*
X40962Y13061D02*
Y13264D01*
X46710Y9912D02*
X46913D01*
X46812Y9811D02*
Y10014D01*
X46710Y7312D02*
X46913D01*
X46812Y7211D02*
Y7414D01*
X42810Y13162D02*
X43013D01*
X42912Y13061D02*
Y13264D01*
X41510Y13162D02*
X41713D01*
X41612Y13061D02*
Y13264D01*
X44760Y12512D02*
X44963D01*
X44862Y12411D02*
Y12614D01*
X46710Y9262D02*
X46913D01*
X46812Y9161D02*
Y9364D01*
X46710Y7962D02*
X46913D01*
X46812Y7861D02*
Y8064D01*
X38260Y6012D02*
X38463D01*
X38362Y5911D02*
Y6114D01*
X46060Y6012D02*
X46263D01*
X46162Y5911D02*
Y6114D01*
X44760Y4712D02*
X44963D01*
X44862Y4611D02*
Y4814D01*
X39560Y4712D02*
X39763D01*
X39662Y4611D02*
Y4814D01*
X42810Y4062D02*
X43013D01*
X42912Y3961D02*
Y4164D01*
X38910Y5362D02*
X39113D01*
X39012Y5261D02*
Y5464D01*
X44110Y12512D02*
X44313D01*
X44212Y12411D02*
Y12614D01*
X40210Y12512D02*
X40413D01*
X40312Y12411D02*
Y12614D01*
X46060Y10562D02*
X46263D01*
X46162Y10461D02*
Y10664D01*
X46060Y6662D02*
X46263D01*
X46162Y6561D02*
Y6764D01*
X38260Y6662D02*
X38463D01*
X38362Y6561D02*
Y6764D01*
X43460Y12512D02*
X43663D01*
X43562Y12411D02*
Y12614D01*
X40860Y12512D02*
X41063D01*
X40962Y12411D02*
Y12614D01*
X46060Y7312D02*
X46263D01*
X46162Y7211D02*
Y7414D01*
X45410Y6012D02*
X45613D01*
X45512Y5911D02*
Y6114D01*
X38910Y6012D02*
X39113D01*
X39012Y5911D02*
Y6114D01*
X39560Y5362D02*
X39763D01*
X39662Y5261D02*
Y5464D01*
X42810Y12512D02*
X43013D01*
X42912Y12411D02*
Y12614D01*
X46060Y7962D02*
X46263D01*
X46162Y7861D02*
Y8064D01*
X42810Y4712D02*
X43013D01*
X42912Y4611D02*
Y4814D01*
X40210Y11862D02*
X40413D01*
X40312Y11761D02*
Y11964D01*
X45410Y6662D02*
X45613D01*
X45512Y6561D02*
Y6764D01*
X38910Y6662D02*
X39113D01*
X39012Y6561D02*
Y6764D01*
X40210Y5362D02*
X40413D01*
X40312Y5261D02*
Y5464D01*
X44760Y6012D02*
X44963D01*
X44862Y5911D02*
Y6114D01*
X39560Y6012D02*
X39763D01*
X39662Y5911D02*
Y6114D01*
X43460Y11862D02*
X43663D01*
X43562Y11761D02*
Y11964D01*
X42810Y11862D02*
X43013D01*
X42912Y11761D02*
Y11964D01*
X45410Y7962D02*
X45613D01*
X45512Y7861D02*
Y8064D01*
X42810Y5362D02*
X43013D01*
X42912Y5261D02*
Y5464D01*
X41510Y5362D02*
X41713D01*
X41612Y5261D02*
Y5464D01*
X40210Y11212D02*
X40413D01*
X40312Y11111D02*
Y11314D01*
X44760Y6662D02*
X44963D01*
X44862Y6561D02*
Y6764D01*
X39560Y6662D02*
X39763D01*
X39662Y6561D02*
Y6764D01*
X40210Y6012D02*
X40413D01*
X40312Y5911D02*
Y6114D01*
X40860Y11212D02*
X41063D01*
X40962Y11111D02*
Y11314D01*
X44760Y9912D02*
X44963D01*
X44862Y9811D02*
Y10014D01*
X40860Y6012D02*
X41063D01*
X40962Y5911D02*
Y6114D01*
X44110Y10562D02*
X44313D01*
X44212Y10461D02*
Y10664D01*
X40210Y10562D02*
X40413D01*
X40312Y10461D02*
Y10664D01*
X42810Y11212D02*
X43013D01*
X42912Y11111D02*
Y11314D01*
X44760Y9262D02*
X44963D01*
X44862Y9161D02*
Y9364D01*
X44110Y6662D02*
X44313D01*
X44212Y6561D02*
Y6764D01*
X40210Y6662D02*
X40413D01*
X40312Y6561D02*
Y6764D01*
X42810Y6012D02*
X43013D01*
X42912Y5911D02*
Y6114D01*
X41510Y6012D02*
X41713D01*
X41612Y5911D02*
Y6114D01*
X43460Y10562D02*
X43663D01*
X43562Y10461D02*
Y10664D01*
X40860Y10562D02*
X41063D01*
X40962Y10461D02*
Y10664D01*
X44110Y9912D02*
X44313D01*
X44212Y9811D02*
Y10014D01*
X40210Y9912D02*
X40413D01*
X40312Y9811D02*
Y10014D01*
X44110Y7312D02*
X44313D01*
X44212Y7211D02*
Y7414D01*
X40210Y7312D02*
X40413D01*
X40312Y7211D02*
Y7414D01*
X43460Y6662D02*
X43663D01*
X43562Y6561D02*
Y6764D01*
X40860Y6662D02*
X41063D01*
X40962Y6561D02*
Y6764D01*
X42810Y10562D02*
X43013D01*
X42912Y10461D02*
Y10664D01*
X41510Y10562D02*
X41713D01*
X41612Y10461D02*
Y10664D01*
X44110Y9262D02*
X44313D01*
X44212Y9161D02*
Y9364D01*
X40210Y9262D02*
X40413D01*
X40312Y9161D02*
Y9364D01*
X44110Y7962D02*
X44313D01*
X44212Y7861D02*
Y8064D01*
X40210Y7962D02*
X40413D01*
X40312Y7861D02*
Y8064D01*
X42810Y6662D02*
X43013D01*
X42912Y6561D02*
Y6764D01*
X41510Y6662D02*
X41713D01*
X41612Y6561D02*
Y6764D01*
X43460Y9912D02*
X43663D01*
X43562Y9811D02*
Y10014D01*
X40860Y9912D02*
X41063D01*
X40962Y9811D02*
Y10014D01*
X43460Y7312D02*
X43663D01*
X43562Y7211D02*
Y7414D01*
X40860Y7312D02*
X41063D01*
X40962Y7211D02*
Y7414D01*
X42810Y9912D02*
X43013D01*
X42912Y9811D02*
Y10014D01*
X41510Y9912D02*
X41713D01*
X41612Y9811D02*
Y10014D01*
X43460Y9262D02*
X43663D01*
X43562Y9161D02*
Y9364D01*
X40860Y9262D02*
X41063D01*
X40962Y9161D02*
Y9364D01*
X43460Y7962D02*
X43663D01*
X43562Y7861D02*
Y8064D01*
X42810Y7312D02*
X43013D01*
X42912Y7211D02*
Y7414D01*
X41510Y7312D02*
X41713D01*
X41612Y7211D02*
Y7414D01*
X42810Y9262D02*
X43013D01*
X42912Y9161D02*
Y9364D01*
X41510Y9262D02*
X41713D01*
X41612Y9161D02*
Y9364D01*
X42810Y7962D02*
X43013D01*
X42912Y7861D02*
Y8064D01*
X41510Y7962D02*
X41713D01*
X41612Y7861D02*
Y8064D01*
M02*
