G04*
G04 #@! TF.GenerationSoftware,Altium Limited,Altium Designer,21.3.2 (30)*
G04*
G04 Layer_Physical_Order=3*
G04 Layer_Color=36540*
%FSLAX43Y43*%
%MOMM*%
G71*
G04*
G04 #@! TF.SameCoordinates,AF92D2DE-8466-4D58-AFAE-29A769C4C8C3*
G04*
G04*
G04 #@! TF.FilePolarity,Positive*
G04*
G01*
G75*
%ADD16C,0.254*%
%ADD97C,0.406*%
%ADD115C,0.089*%
%ADD122C,1.016*%
%ADD125O,1.000X1.500*%
G36*
X50735Y23904D02*
Y23618D01*
X50709Y23592D01*
Y22982D01*
X50735Y22955D01*
Y22753D01*
X50731Y22733D01*
X50688Y22715D01*
X50602Y22630D01*
X50555Y22518D01*
Y22396D01*
X50602Y22284D01*
X50688Y22199D01*
X50800Y22152D01*
X50921D01*
X51033Y22199D01*
X51083Y22249D01*
X51233Y22255D01*
X51318Y22170D01*
X51855D01*
X51897Y22152D01*
X52018D01*
X52061Y22170D01*
X52952D01*
X52995Y22152D01*
X53116D01*
X53158Y22170D01*
X54050D01*
X54092Y22152D01*
X54213D01*
X54256Y22170D01*
X55805D01*
X57043Y20932D01*
Y20671D01*
X57021Y20500D01*
X57027D01*
Y8966D01*
X55696D01*
X55541Y9121D01*
Y9397D01*
X55602D01*
X55714Y9443D01*
X55800Y9529D01*
X55846Y9641D01*
Y9762D01*
X55800Y9875D01*
X55752Y9922D01*
X55727Y10002D01*
X55752Y10082D01*
X55800Y10129D01*
X55846Y10241D01*
Y10362D01*
X55800Y10475D01*
X55752Y10522D01*
X55727Y10602D01*
X55752Y10682D01*
X55800Y10729D01*
X55846Y10841D01*
Y10962D01*
X55800Y11075D01*
X55752Y11122D01*
X55727Y11202D01*
X55752Y11282D01*
X55800Y11329D01*
X55846Y11441D01*
Y11562D01*
X55800Y11675D01*
X55752Y11722D01*
X55727Y11802D01*
X55752Y11882D01*
X55800Y11929D01*
X55846Y12041D01*
Y12162D01*
X55800Y12275D01*
X55752Y12322D01*
X55727Y12402D01*
X55752Y12482D01*
X55800Y12529D01*
X55846Y12641D01*
Y12762D01*
X55800Y12875D01*
X55752Y12922D01*
X55727Y13002D01*
X55752Y13082D01*
X55800Y13129D01*
X55846Y13241D01*
Y13362D01*
X55800Y13475D01*
X55752Y13522D01*
X55727Y13602D01*
X55752Y13682D01*
X55800Y13729D01*
X55846Y13841D01*
Y13962D01*
X55800Y14075D01*
X55714Y14160D01*
X55602Y14207D01*
X55541D01*
Y14797D01*
X55602D01*
X55714Y14843D01*
X55800Y14929D01*
X55846Y15041D01*
Y15162D01*
X55800Y15275D01*
X55714Y15360D01*
X55602Y15407D01*
X55541D01*
Y16597D01*
X55602D01*
X55714Y16643D01*
X55800Y16729D01*
X55846Y16841D01*
Y16962D01*
X55800Y17075D01*
X55714Y17160D01*
X55602Y17207D01*
X55541D01*
Y18397D01*
X55602D01*
X55714Y18443D01*
X55800Y18529D01*
X55846Y18641D01*
Y18762D01*
X55800Y18875D01*
X55714Y18960D01*
X55602Y19007D01*
X55541D01*
Y20178D01*
X55616Y20228D01*
X55737D01*
X55849Y20275D01*
X55935Y20361D01*
X55982Y20473D01*
Y20594D01*
X55935Y20706D01*
X55849Y20792D01*
X55737Y20838D01*
X55616D01*
X55541Y20888D01*
Y20914D01*
X55290Y21165D01*
X54411D01*
X54325Y21250D01*
X54213Y21297D01*
X54092D01*
X53980Y21250D01*
X53894Y21165D01*
X53314D01*
X53228Y21250D01*
X53116Y21297D01*
X52995D01*
X52883Y21250D01*
X52797Y21165D01*
X50660D01*
X49708Y22116D01*
Y22142D01*
X49715Y22157D01*
Y22278D01*
X49708Y22293D01*
Y22942D01*
X49715Y22957D01*
Y23078D01*
X49708Y23093D01*
Y23344D01*
X49267Y23776D01*
X32426D01*
X32421Y23781D01*
X32309Y23828D01*
X32188D01*
X32076Y23781D01*
X32071Y23776D01*
X31966D01*
X31961Y23781D01*
X31849Y23828D01*
X31727D01*
X31615Y23781D01*
X31610Y23776D01*
X31501D01*
X31496Y23781D01*
X31384Y23828D01*
X31263D01*
X31151Y23781D01*
X31146Y23776D01*
X31124D01*
X29815Y22467D01*
X27713D01*
X27711Y22469D01*
Y22590D01*
X27665Y22702D01*
X27579Y22788D01*
X27467Y22835D01*
X27346D01*
X27234Y22788D01*
X27148Y22702D01*
X27102Y22590D01*
Y22469D01*
X27100Y22467D01*
X26326D01*
X25511Y21801D01*
X24543Y21801D01*
X24534Y21805D01*
X24509D01*
X24484Y21932D01*
X24507Y21941D01*
X24593Y22027D01*
X24639Y22139D01*
Y22260D01*
X24593Y22372D01*
X24507Y22458D01*
X24395Y22504D01*
X24274D01*
X24162Y22458D01*
X24076Y22372D01*
X24030Y22260D01*
Y22139D01*
X24076Y22027D01*
X24162Y21941D01*
X24193Y21928D01*
X24168Y21801D01*
X20367Y21802D01*
X16604Y21803D01*
X16470Y21937D01*
X16500Y22086D01*
X16505Y22088D01*
X16591Y22174D01*
X16637Y22286D01*
Y22407D01*
X16591Y22519D01*
X16505Y22605D01*
X16393Y22652D01*
X16272D01*
X16185Y22616D01*
X16098Y22653D01*
X16058Y22684D01*
Y23070D01*
X15773Y23344D01*
X15567D01*
X15498Y23373D01*
X15376D01*
X15307Y23344D01*
X13125D01*
X9495Y19714D01*
Y18138D01*
X9332Y17985D01*
X8382D01*
X8306Y18061D01*
Y20906D01*
X8351Y20925D01*
X8437Y21011D01*
X8484Y21123D01*
Y21244D01*
X8437Y21356D01*
X8351Y21442D01*
X8306Y21461D01*
Y21587D01*
X10620Y23902D01*
X10982D01*
X10988Y23898D01*
X11223Y23851D01*
X11458Y23898D01*
X11464Y23902D01*
X16809D01*
X16839Y23915D01*
X16851D01*
X16859Y23923D01*
X16886Y23934D01*
X16898Y23962D01*
X16910Y23974D01*
X16948Y24066D01*
X17003Y24121D01*
X17075Y24150D01*
X17152D01*
X17224Y24121D01*
X17224Y24120D01*
X17230Y24118D01*
X17233Y24113D01*
X17311Y24049D01*
X17339Y24041D01*
X17363Y24026D01*
X17378Y24029D01*
X17392Y24025D01*
X17417Y24039D01*
X17445Y24045D01*
X17533Y24109D01*
X17535Y24113D01*
X17613Y24146D01*
X17691D01*
X17762Y24116D01*
X17817Y24061D01*
X17855Y23970D01*
X17871Y23954D01*
X17879Y23934D01*
X17899Y23926D01*
X17915Y23910D01*
X17936D01*
X17957Y23902D01*
X23193D01*
X23204Y23907D01*
X23217Y23905D01*
X23242Y23922D01*
X23271Y23934D01*
X23275Y23946D01*
X23286Y23953D01*
X23366Y24080D01*
X23368Y24090D01*
X23375Y24097D01*
Y24130D01*
X23380Y24163D01*
X23375Y24171D01*
Y24181D01*
X23366Y24202D01*
Y24280D01*
X23396Y24351D01*
X23450Y24406D01*
X23522Y24436D01*
X23600D01*
X23671Y24406D01*
X23726Y24351D01*
X23756Y24280D01*
Y24202D01*
X23747Y24181D01*
Y24171D01*
X23741Y24163D01*
X23747Y24130D01*
Y24097D01*
X23754Y24090D01*
X23756Y24080D01*
X23836Y23953D01*
X23846Y23946D01*
X23851Y23934D01*
X23880Y23922D01*
X23905Y23905D01*
X23917Y23907D01*
X23929Y23902D01*
X27405D01*
X27429Y23854D01*
X27444Y23775D01*
X27376Y23707D01*
X27375Y23706D01*
X27328Y23594D01*
Y23523D01*
Y23473D01*
X27375Y23361D01*
X27460Y23275D01*
X27572Y23228D01*
X27694D01*
X27806Y23275D01*
X27890Y23359D01*
X27975Y23275D01*
X28087Y23228D01*
X28208D01*
X28320Y23275D01*
X28404Y23359D01*
X28489Y23275D01*
X28601Y23228D01*
X28722D01*
X28834Y23275D01*
X28920Y23361D01*
X28966Y23473D01*
Y23523D01*
Y23594D01*
X28920Y23706D01*
X28851Y23775D01*
X28865Y23854D01*
X28890Y23902D01*
X29515D01*
X29593Y23934D01*
X29610Y23951D01*
X29642Y24029D01*
Y24664D01*
Y24686D01*
X30063Y25107D01*
X30081Y25100D01*
X30203D01*
X30315Y25146D01*
X30378Y25210D01*
X31190D01*
X31200Y25200D01*
X31312Y25154D01*
X31433D01*
X31545Y25200D01*
X31555Y25210D01*
X31795D01*
X31832Y25173D01*
X31944Y25127D01*
X32065D01*
X32177Y25173D01*
X32214Y25210D01*
X32400D01*
X32464Y25146D01*
X32576Y25100D01*
X32697D01*
X32809Y25146D01*
X32872Y25210D01*
X33420D01*
X33484Y25146D01*
X33596Y25100D01*
X33717D01*
X33829Y25146D01*
X33893Y25210D01*
X35712D01*
Y25147D01*
X35759Y25035D01*
X35845Y24949D01*
X35957Y24903D01*
X36078D01*
X36190Y24949D01*
X36276Y25035D01*
X36322Y25147D01*
Y25210D01*
X36544D01*
X36587Y25167D01*
X36699Y25121D01*
X36820D01*
X36932Y25167D01*
X36975Y25210D01*
X49429D01*
X50735Y23904D01*
D02*
G37*
G36*
X31123Y25640D02*
X31114Y25631D01*
X31068Y25519D01*
Y25398D01*
X31016Y25320D01*
X30378D01*
X30301Y25288D01*
X30252Y25239D01*
X30181Y25210D01*
X30081D01*
X30063Y25217D01*
X30043Y25209D01*
X30021D01*
X30006Y25193D01*
X29986Y25185D01*
X29564Y24764D01*
X29532Y24686D01*
Y24029D01*
X29515Y24012D01*
X28890D01*
X28873Y24005D01*
X28855Y24006D01*
X28836Y23990D01*
X28812Y23980D01*
X28805Y23963D01*
X28792Y23951D01*
X28767Y23903D01*
X28722Y23838D01*
X28601D01*
X28489Y23792D01*
X28404Y23707D01*
X28320Y23792D01*
X28208Y23838D01*
X28087D01*
X27975Y23792D01*
X27890Y23707D01*
X27806Y23792D01*
X27694Y23838D01*
X27572D01*
X27527Y23903D01*
X27503Y23951D01*
X27489Y23963D01*
X27483Y23980D01*
X27459Y23990D01*
X27439Y24006D01*
X27421Y24005D01*
X27405Y24012D01*
X23929D01*
X23849Y24139D01*
X23866Y24180D01*
Y24302D01*
X23819Y24414D01*
X23733Y24499D01*
X23621Y24546D01*
X23500D01*
X23388Y24499D01*
X23302Y24414D01*
X23256Y24302D01*
Y24180D01*
X23273Y24139D01*
X23193Y24012D01*
X17957D01*
X17910Y24124D01*
X17825Y24209D01*
X17713Y24256D01*
X17591D01*
X17479Y24209D01*
X17468Y24198D01*
X17380Y24134D01*
X17302Y24198D01*
X17286Y24214D01*
X17174Y24260D01*
X17053D01*
X16941Y24214D01*
X16855Y24128D01*
X16809Y24016D01*
Y24012D01*
X11464D01*
X11445Y24004D01*
X11436Y24005D01*
X11223Y23963D01*
X11010Y24005D01*
X11001Y24004D01*
X10982Y24012D01*
X10620D01*
X10543Y23980D01*
X8228Y21665D01*
X8196Y21587D01*
Y21488D01*
X8118D01*
X8006Y21442D01*
X7920Y21356D01*
X7874Y21244D01*
Y21123D01*
X7920Y21011D01*
X8006Y20925D01*
X8118Y20879D01*
X8196D01*
Y18061D01*
X8228Y17984D01*
X8304Y17907D01*
X8382Y17875D01*
X9332D01*
X9369Y17891D01*
X9407Y17905D01*
X9570Y18057D01*
X9571Y18059D01*
X9572Y18060D01*
X9588Y18097D01*
X9604Y18134D01*
X9604Y18136D01*
X9604Y18138D01*
Y19668D01*
X13170Y23234D01*
X15062D01*
X15132Y23129D01*
Y23008D01*
X15179Y22896D01*
X15195Y22879D01*
X15200Y22807D01*
X15200Y22787D01*
X15204Y22778D01*
Y22115D01*
X15222Y22026D01*
X15272Y21950D01*
X15893Y21329D01*
X15969Y21278D01*
X16058Y21261D01*
X17293D01*
X17394Y21160D01*
X17469Y21110D01*
X17558Y21092D01*
X23606D01*
X23696Y21110D01*
X23771Y21160D01*
X23878Y21267D01*
X24182D01*
X24191Y21263D01*
X24250Y21262D01*
X24276Y21260D01*
X24282Y21259D01*
X24284Y21258D01*
X24301Y21241D01*
X24413Y21195D01*
X24437D01*
X24491Y21147D01*
X24505Y21133D01*
X24514Y21130D01*
X25447Y20197D01*
X25445Y20192D01*
X25444Y20115D01*
X25443Y20088D01*
X25407Y20000D01*
Y19878D01*
X25453Y19766D01*
X25539Y19681D01*
X25651Y19634D01*
X25772D01*
X25884Y19681D01*
X25970Y19766D01*
X26016Y19878D01*
Y20000D01*
X25970Y20112D01*
X25925Y20157D01*
X25924Y20158D01*
X25924Y20160D01*
X25919Y20221D01*
X25919Y20240D01*
X25915Y20249D01*
Y20250D01*
X25917Y20259D01*
X25915Y20262D01*
Y20291D01*
X25898Y20380D01*
X25847Y20456D01*
X25154Y21149D01*
X25202Y21267D01*
X26437D01*
X26526Y21284D01*
X26602Y21335D01*
X26964Y21697D01*
X27026Y21691D01*
X27131Y21614D01*
Y21493D01*
X27178Y21381D01*
X27264Y21295D01*
X27376Y21249D01*
X27497D01*
X27609Y21295D01*
X27695Y21381D01*
X27741Y21493D01*
Y21614D01*
X27726Y21651D01*
X27809Y21778D01*
X28208D01*
X28654Y21332D01*
X28729Y21281D01*
X28819Y21263D01*
X29477D01*
X29566Y21281D01*
X29642Y21332D01*
X30335Y22025D01*
X32034D01*
X32207Y21851D01*
X32219Y21726D01*
X32173Y21614D01*
Y21493D01*
X32219Y21381D01*
X32305Y21295D01*
X32417Y21249D01*
X32538D01*
X32650Y21295D01*
X32736Y21381D01*
X32782Y21493D01*
Y21614D01*
X32767Y21651D01*
X32850Y21778D01*
X33722D01*
X34099Y21401D01*
X33990Y21292D01*
Y15652D01*
X35157Y14485D01*
Y14236D01*
X35030Y14183D01*
X33890Y15323D01*
X33812Y15355D01*
X31620D01*
X31600Y15386D01*
Y15507D01*
X31553Y15619D01*
X31491Y15681D01*
X31494Y15798D01*
X31502Y15828D01*
X31580Y15906D01*
X31627Y16018D01*
Y16139D01*
X31580Y16251D01*
X31494Y16337D01*
X31382Y16383D01*
X31261D01*
X31149Y16337D01*
X31087Y16275D01*
X30970Y16277D01*
X30940Y16286D01*
X30863Y16364D01*
X30751Y16410D01*
X30629D01*
X30517Y16364D01*
X30432Y16278D01*
X30385Y16166D01*
Y16044D01*
X30432Y15932D01*
X30494Y15871D01*
X30491Y15754D01*
X30482Y15724D01*
X30405Y15646D01*
X30358Y15534D01*
Y15413D01*
X30320Y15355D01*
X29525D01*
X29504Y15386D01*
Y15507D01*
X29458Y15619D01*
X29396Y15681D01*
X29399Y15798D01*
X29407Y15828D01*
X29485Y15906D01*
X29531Y16018D01*
Y16139D01*
X29485Y16251D01*
X29399Y16337D01*
X29287Y16383D01*
X29166D01*
X29054Y16337D01*
X28992Y16275D01*
X28875Y16277D01*
X28845Y16286D01*
X28767Y16364D01*
X28655Y16410D01*
X28534D01*
X28422Y16364D01*
X28336Y16278D01*
X28290Y16166D01*
Y16044D01*
X28336Y15932D01*
X28398Y15871D01*
X28396Y15754D01*
X28387Y15724D01*
X28309Y15646D01*
X28263Y15534D01*
Y15413D01*
X28224Y15355D01*
X27711D01*
X26534Y16532D01*
X26456Y16564D01*
X25629D01*
X25551Y16532D01*
X25519Y16454D01*
Y16446D01*
X25489Y16374D01*
X25434Y16319D01*
X25363Y16290D01*
X25285D01*
X25213Y16319D01*
X25159Y16374D01*
X25129Y16446D01*
Y16454D01*
X25097Y16532D01*
X25019Y16564D01*
X23475D01*
X23045Y16993D01*
X23119Y17090D01*
X23231Y17043D01*
X23352D01*
X23464Y17090D01*
X23550Y17176D01*
X23597Y17288D01*
Y17409D01*
X23550Y17521D01*
X23464Y17607D01*
X23352Y17653D01*
X23231D01*
X23119Y17607D01*
X23033Y17521D01*
X22987Y17409D01*
Y17288D01*
X23033Y17176D01*
X23013Y17160D01*
X22937Y17102D01*
X22786Y17252D01*
X22786Y20449D01*
X22754Y20527D01*
X22377Y20904D01*
X22339Y20920D01*
X22300Y20936D01*
X21617Y20939D01*
X21617Y20939D01*
X21617Y20939D01*
X21578Y20924D01*
X21539Y20908D01*
X21539Y20907D01*
X21539Y20907D01*
X21142Y20511D01*
X21126Y20472D01*
X21110Y20433D01*
X21089Y16876D01*
X21089Y16876D01*
X21089Y16876D01*
X21105Y16837D01*
X21121Y16798D01*
X21121Y16798D01*
X21121Y16798D01*
X21366Y16553D01*
X21376Y16549D01*
X21383Y16539D01*
X21414Y16533D01*
X21444Y16521D01*
X21460Y16410D01*
X21506Y16298D01*
X21592Y16212D01*
X21704Y16166D01*
X21742D01*
X21806Y16137D01*
X21856Y16106D01*
X21883Y16052D01*
X21889Y16030D01*
X21894Y16028D01*
X21896Y16023D01*
X23057Y14862D01*
X23042Y14798D01*
X23011Y14728D01*
X22916Y14689D01*
X22830Y14603D01*
X22784Y14491D01*
Y14370D01*
X22830Y14258D01*
X22916Y14172D01*
X23028Y14126D01*
X23149D01*
X23261Y14172D01*
X23347Y14258D01*
X23391Y14363D01*
X23395Y14371D01*
X23515Y14449D01*
X26095D01*
X26115Y14458D01*
X26137D01*
X26152Y14473D01*
X26173Y14482D01*
X26181Y14502D01*
X26196Y14517D01*
X26240Y14622D01*
X26303Y14596D01*
X26424D01*
X26487Y14622D01*
X26531Y14517D01*
X26546Y14502D01*
X26555Y14482D01*
X26575Y14473D01*
X26590Y14458D01*
X26612D01*
X26632Y14449D01*
X29287D01*
X29337Y14374D01*
Y14252D01*
X29384Y14140D01*
X29469Y14054D01*
X29581Y14008D01*
X29703D01*
X29815Y14054D01*
X29900Y14140D01*
X29947Y14252D01*
Y14374D01*
X29997Y14449D01*
X30802D01*
X30879Y14482D01*
X30907Y14509D01*
X30978Y14539D01*
X31056D01*
X31128Y14509D01*
X31155Y14482D01*
X31233Y14449D01*
X31735D01*
X31780Y14382D01*
Y14260D01*
X31826Y14148D01*
X31912Y14063D01*
X32024Y14016D01*
X32145D01*
X32257Y14063D01*
X32343Y14148D01*
X32389Y14260D01*
Y14382D01*
X32435Y14449D01*
X33112D01*
X34109Y13452D01*
Y10079D01*
X34141Y10001D01*
X35914Y8228D01*
X35992Y8196D01*
X36084D01*
X36153Y8069D01*
X36132Y8018D01*
Y7907D01*
X36175Y7804D01*
X36253Y7726D01*
X36356Y7683D01*
X36467D01*
X36570Y7726D01*
X36648Y7804D01*
X36668Y7851D01*
X36805D01*
X36825Y7804D01*
X36903Y7726D01*
X36950Y7706D01*
Y7569D01*
X36903Y7549D01*
X36825Y7471D01*
X36782Y7368D01*
Y7257D01*
X36825Y7154D01*
X36903Y7076D01*
X36950Y7056D01*
Y6919D01*
X36903Y6899D01*
X36825Y6821D01*
X36805Y6774D01*
X36668D01*
X36648Y6821D01*
X36570Y6899D01*
X36467Y6942D01*
X36356D01*
X36253Y6899D01*
X36175Y6821D01*
X36132Y6718D01*
Y6607D01*
X36175Y6504D01*
X36253Y6426D01*
X36300Y6406D01*
Y6269D01*
X36253Y6249D01*
X36175Y6171D01*
X36132Y6068D01*
Y5957D01*
X36175Y5854D01*
X36253Y5776D01*
X36300Y5756D01*
Y5619D01*
X36253Y5599D01*
X36175Y5521D01*
X36132Y5418D01*
Y5307D01*
X36175Y5204D01*
X36253Y5126D01*
X36300Y5106D01*
Y4969D01*
X36253Y4949D01*
X36175Y4871D01*
X36132Y4768D01*
Y4657D01*
X36138Y4644D01*
X36053Y4517D01*
X35799D01*
X35733Y4544D01*
X33391D01*
X33341Y4620D01*
Y4741D01*
X33295Y4853D01*
X33209Y4939D01*
X33097Y4985D01*
X32976D01*
X32864Y4939D01*
X32778Y4853D01*
X32731Y4741D01*
Y4620D01*
X32778Y4508D01*
X32784Y4501D01*
X32731Y4374D01*
X32541D01*
X32488Y4501D01*
X32495Y4508D01*
X32541Y4620D01*
Y4741D01*
X32495Y4853D01*
X32409Y4939D01*
X32297Y4985D01*
X32176D01*
X32063Y4939D01*
X31978Y4853D01*
X31931Y4741D01*
Y4620D01*
X31978Y4508D01*
X31984Y4501D01*
X31931Y4374D01*
X31741D01*
X31688Y4501D01*
X31695Y4508D01*
X31741Y4620D01*
Y4741D01*
X31695Y4853D01*
X31609Y4939D01*
X31497Y4985D01*
X31376D01*
X31264Y4939D01*
X31178Y4853D01*
X31131Y4741D01*
Y4620D01*
X31178Y4508D01*
X31184Y4501D01*
X31131Y4374D01*
X30941D01*
X30888Y4501D01*
X30895Y4508D01*
X30941Y4620D01*
Y4741D01*
X30895Y4853D01*
X30809Y4939D01*
X30697Y4985D01*
X30576D01*
X30463Y4939D01*
X30378Y4853D01*
X30331Y4741D01*
Y4620D01*
X30378Y4508D01*
X30384Y4501D01*
X30331Y4374D01*
X28541D01*
X28488Y4501D01*
X28495Y4508D01*
X28541Y4620D01*
Y4741D01*
X28495Y4853D01*
X28409Y4939D01*
X28297Y4985D01*
X28176D01*
X28063Y4939D01*
X27978Y4853D01*
X27931Y4741D01*
Y4620D01*
X27978Y4508D01*
X27984Y4501D01*
X27931Y4374D01*
X26141D01*
X26088Y4501D01*
X26095Y4508D01*
X26141Y4620D01*
Y4741D01*
X26095Y4853D01*
X26009Y4939D01*
X25897Y4985D01*
X25776D01*
X25663Y4939D01*
X25578Y4853D01*
X25531Y4741D01*
Y4620D01*
X25578Y4508D01*
X25584Y4501D01*
X25531Y4374D01*
X25341D01*
X25288Y4501D01*
X25295Y4508D01*
X25341Y4620D01*
Y4741D01*
X25295Y4853D01*
X25209Y4939D01*
X25097Y4985D01*
X24976D01*
X24864Y4939D01*
X24778Y4853D01*
X24731Y4741D01*
Y4620D01*
X24778Y4508D01*
X24784Y4501D01*
X24731Y4374D01*
X24128D01*
X23685Y4817D01*
X23573Y4864D01*
X23445D01*
X23439Y4866D01*
X23430Y4871D01*
X23419Y4877D01*
X23408Y4885D01*
X23378Y4911D01*
X23361Y4927D01*
X23342Y4934D01*
X23312Y4964D01*
X23200Y5010D01*
X23079D01*
X22967Y4964D01*
X22881Y4878D01*
X22835Y4766D01*
Y4645D01*
X22881Y4533D01*
X22967Y4447D01*
X23079Y4401D01*
X23200D01*
X23312Y4447D01*
X23342Y4477D01*
X23361Y4485D01*
X23379Y4502D01*
X23393Y4515D01*
X23407Y4525D01*
X23419Y4534D01*
X23430Y4541D01*
X23439Y4545D01*
X23445Y4548D01*
X23508D01*
X23879Y4176D01*
X23826Y4049D01*
X23572D01*
X23477Y4144D01*
X23365Y4191D01*
X23127D01*
X23121Y4193D01*
X23112Y4198D01*
X23101Y4204D01*
X23090Y4212D01*
X23060Y4238D01*
X23044Y4253D01*
X23024Y4261D01*
X22994Y4291D01*
X22882Y4337D01*
X22761D01*
X22649Y4291D01*
X22563Y4205D01*
X22517Y4093D01*
Y3972D01*
X22563Y3860D01*
X22649Y3774D01*
X22761Y3728D01*
X22882D01*
X22994Y3774D01*
X23024Y3804D01*
X23044Y3812D01*
X23061Y3828D01*
X23076Y3841D01*
X23089Y3852D01*
X23101Y3861D01*
X23112Y3868D01*
X23121Y3872D01*
X23127Y3874D01*
X23300D01*
X23394Y3780D01*
X23506Y3733D01*
X24346D01*
X24399Y3606D01*
X24378Y3585D01*
X24331Y3473D01*
Y3352D01*
X24378Y3240D01*
X24463Y3154D01*
X24506Y3136D01*
X24481Y3009D01*
X23469D01*
X23302Y3176D01*
X23300Y3182D01*
X23296Y3192D01*
X23293Y3204D01*
X23291Y3218D01*
X23288Y3257D01*
X23288Y3280D01*
X23279Y3299D01*
Y3341D01*
X23233Y3453D01*
X23147Y3539D01*
X23035Y3585D01*
X22914D01*
X22802Y3539D01*
X22716Y3453D01*
X22670Y3341D01*
Y3248D01*
X22589Y3196D01*
X22552Y3186D01*
X21189Y4549D01*
X21077Y4595D01*
X20374D01*
X20350Y4604D01*
X20338Y4609D01*
X20278Y4643D01*
X20257Y4656D01*
X20243Y4659D01*
X20146Y4699D01*
X20025D01*
X19913Y4652D01*
X19827Y4567D01*
X19781Y4455D01*
Y4333D01*
X19827Y4221D01*
X19913Y4136D01*
X20025Y4089D01*
X20146D01*
X20258Y4136D01*
X20344Y4221D01*
X20349Y4224D01*
X20361Y4242D01*
X20370Y4254D01*
X20378Y4263D01*
X20386Y4270D01*
X20393Y4275D01*
X20398Y4279D01*
X20398Y4279D01*
X20544D01*
X20629Y4152D01*
X20617Y4123D01*
Y4002D01*
X20664Y3890D01*
X20693Y3860D01*
X20701Y3840D01*
X20718Y3823D01*
X20731Y3809D01*
X20742Y3795D01*
X20750Y3783D01*
X20757Y3772D01*
X20762Y3763D01*
X20764Y3757D01*
Y3022D01*
X20810Y2910D01*
X21622Y2098D01*
X21734Y2052D01*
X25562D01*
X25588Y1925D01*
X25543Y1906D01*
X25457Y1821D01*
X25411Y1709D01*
Y1587D01*
X25457Y1475D01*
X25543Y1390D01*
X25655Y1343D01*
X25776D01*
X25888Y1390D01*
X25974Y1475D01*
X26021Y1587D01*
Y1709D01*
X25974Y1821D01*
X25888Y1906D01*
X25844Y1925D01*
X25869Y2052D01*
X27859D01*
X27888Y2016D01*
X27928Y1925D01*
X27893Y1841D01*
Y1720D01*
X27940Y1608D01*
X27953Y1595D01*
X27901Y1468D01*
X27845D01*
X27733Y1421D01*
X27647Y1336D01*
X27601Y1224D01*
Y1102D01*
X27647Y990D01*
X27733Y905D01*
X27845Y858D01*
X27966D01*
X28078Y905D01*
X28108Y934D01*
X28127Y942D01*
X28145Y959D01*
X28159Y972D01*
X28173Y983D01*
X28185Y991D01*
X28196Y998D01*
X28205Y1003D01*
X28211Y1005D01*
X28236D01*
X28348Y1051D01*
X28978Y1681D01*
X30817D01*
X30842Y1554D01*
X30841Y1554D01*
X30755Y1468D01*
X30709Y1356D01*
Y1235D01*
X30755Y1123D01*
X30841Y1037D01*
X30953Y991D01*
X31074D01*
X31186Y1037D01*
X31272Y1123D01*
X31318Y1235D01*
Y1356D01*
X31272Y1468D01*
X31186Y1554D01*
X31185Y1554D01*
X31210Y1681D01*
X33311D01*
X33398Y1718D01*
X33418Y1718D01*
X33486Y1698D01*
X33545Y1670D01*
X33571Y1608D01*
X33584Y1595D01*
X33574Y1539D01*
X33540Y1459D01*
X33450Y1421D01*
X33364Y1336D01*
X33318Y1224D01*
Y1102D01*
X33364Y990D01*
X33450Y905D01*
X33562Y858D01*
X33634D01*
X33655Y852D01*
X33677Y854D01*
X33695Y854D01*
X33710Y854D01*
X33723Y852D01*
X33733Y850D01*
X33741Y848D01*
X33745Y847D01*
X33829Y762D01*
X33941Y716D01*
X36058D01*
X36133Y747D01*
X36172Y732D01*
X36232Y690D01*
X36251Y669D01*
Y581D01*
X36297Y469D01*
X36383Y383D01*
X36438Y360D01*
X36413Y233D01*
X25677D01*
X25575Y292D01*
X25575Y292D01*
X25575D01*
X25572Y358D01*
X25684Y404D01*
X25770Y490D01*
X25816Y602D01*
Y723D01*
X25770Y835D01*
X25684Y921D01*
X25572Y967D01*
X25451D01*
X25339Y921D01*
X25253Y835D01*
X25206Y723D01*
Y602D01*
X25253Y490D01*
X25339Y404D01*
X25451Y358D01*
X25448Y292D01*
X25448D01*
X25448Y292D01*
X25345Y233D01*
X0D01*
Y235D01*
X-198Y261D01*
X-383Y337D01*
X-541Y459D01*
X-663Y617D01*
X-739Y802D01*
X-765Y1000D01*
X-767D01*
Y8148D01*
X-711Y8183D01*
X-640Y8201D01*
X-537Y8122D01*
X-520Y8086D01*
X-511Y7969D01*
X-527Y7953D01*
X-573Y7841D01*
Y7720D01*
X-527Y7608D01*
X-441Y7522D01*
X-329Y7476D01*
X-208D01*
X-96Y7522D01*
X-10Y7608D01*
X36Y7720D01*
Y7841D01*
X14Y7896D01*
X74Y8002D01*
X201Y8000D01*
Y7910D01*
X248Y7798D01*
X316Y7729D01*
X248Y7661D01*
X201Y7549D01*
Y7428D01*
X248Y7316D01*
X334Y7230D01*
X446Y7183D01*
X567D01*
X679Y7230D01*
X765Y7316D01*
X811Y7428D01*
Y7549D01*
X765Y7661D01*
X696Y7729D01*
X765Y7798D01*
X811Y7910D01*
Y8000D01*
X938Y8002D01*
X999Y7896D01*
X976Y7841D01*
Y7720D01*
X1023Y7608D01*
X1108Y7522D01*
X1220Y7476D01*
X1342D01*
X1454Y7522D01*
X1539Y7608D01*
X1586Y7720D01*
Y7841D01*
X1539Y7953D01*
X1524Y7969D01*
X1533Y8086D01*
X1550Y8122D01*
X1671Y8215D01*
X1775Y8351D01*
X1841Y8510D01*
X1863Y8680D01*
X1841Y8850D01*
X1775Y9009D01*
X1671Y9145D01*
X1576Y9217D01*
X1539Y9360D01*
X1586Y9472D01*
Y9594D01*
X1539Y9706D01*
X1454Y9791D01*
X1342Y9838D01*
X1220D01*
X1108Y9791D01*
X1023Y9706D01*
X976Y9594D01*
Y9513D01*
X892Y9417D01*
X873Y9404D01*
X801Y9426D01*
X765Y9515D01*
X696Y9584D01*
X765Y9652D01*
X811Y9764D01*
Y9886D01*
X765Y9998D01*
X679Y10083D01*
X567Y10130D01*
X446D01*
X334Y10083D01*
X248Y9998D01*
X201Y9886D01*
Y9764D01*
X248Y9652D01*
X316Y9584D01*
X248Y9515D01*
X211Y9426D01*
X139Y9404D01*
X121Y9417D01*
X36Y9513D01*
Y9594D01*
X-10Y9706D01*
X-96Y9791D01*
X-208Y9838D01*
X-329D01*
X-441Y9791D01*
X-527Y9706D01*
X-573Y9594D01*
Y9472D01*
X-527Y9360D01*
X-564Y9217D01*
X-640Y9159D01*
X-711Y9177D01*
X-767Y9212D01*
Y16788D01*
X-711Y16823D01*
X-640Y16841D01*
X-522Y16751D01*
X-513Y16747D01*
X-490Y16600D01*
X-527Y16564D01*
X-573Y16452D01*
Y16330D01*
X-527Y16218D01*
X-441Y16132D01*
X-329Y16086D01*
X-208D01*
X-96Y16132D01*
X-10Y16218D01*
X36Y16330D01*
Y16452D01*
X1Y16536D01*
X41Y16626D01*
X68Y16660D01*
X191Y16657D01*
X201Y16642D01*
Y16521D01*
X248Y16409D01*
X316Y16340D01*
X248Y16271D01*
X201Y16159D01*
Y16038D01*
X248Y15926D01*
X334Y15840D01*
X446Y15794D01*
X567D01*
X679Y15840D01*
X765Y15926D01*
X811Y16038D01*
Y16159D01*
X765Y16271D01*
X696Y16340D01*
X765Y16409D01*
X811Y16521D01*
Y16642D01*
X821Y16657D01*
X944Y16660D01*
X972Y16626D01*
X1011Y16536D01*
X976Y16452D01*
Y16330D01*
X1023Y16218D01*
X1108Y16132D01*
X1220Y16086D01*
X1342D01*
X1454Y16132D01*
X1539Y16218D01*
X1586Y16330D01*
Y16452D01*
X1539Y16564D01*
X1503Y16600D01*
X1525Y16747D01*
X1535Y16751D01*
X1671Y16855D01*
X1775Y16991D01*
X1841Y17150D01*
X1863Y17320D01*
X1841Y17490D01*
X1775Y17649D01*
X1671Y17785D01*
X1535Y17889D01*
X1528Y17892D01*
X1503Y18040D01*
X1536Y18072D01*
X1582Y18184D01*
Y18306D01*
X1536Y18418D01*
X1450Y18503D01*
X1338Y18550D01*
X1217D01*
X1105Y18503D01*
X1019Y18418D01*
X973Y18306D01*
Y18184D01*
X1006Y18104D01*
X963Y18009D01*
X938Y17981D01*
X813Y17985D01*
X808Y17994D01*
Y18115D01*
X761Y18227D01*
X693Y18296D01*
X761Y18365D01*
X808Y18477D01*
Y18598D01*
X761Y18710D01*
X676Y18796D01*
X564Y18842D01*
X442D01*
X330Y18796D01*
X245Y18710D01*
X198Y18598D01*
Y18477D01*
X245Y18365D01*
X313Y18296D01*
X245Y18227D01*
X198Y18115D01*
Y17994D01*
X192Y17985D01*
X68Y17981D01*
X43Y18009D01*
X-0Y18104D01*
X33Y18184D01*
Y18306D01*
X-13Y18418D01*
X-99Y18503D01*
X-211Y18550D01*
X-332D01*
X-444Y18503D01*
X-530Y18418D01*
X-577Y18306D01*
Y18184D01*
X-530Y18072D01*
X-496Y18038D01*
X-519Y17891D01*
X-522Y17889D01*
X-640Y17799D01*
X-711Y17817D01*
X-767Y17852D01*
Y25000D01*
X-765D01*
X-739Y25198D01*
X-663Y25383D01*
X-541Y25541D01*
X-383Y25663D01*
X-198Y25739D01*
X0Y25765D01*
Y25767D01*
X12380D01*
X12433Y25640D01*
X12391Y25598D01*
X12344Y25486D01*
Y25365D01*
X12391Y25253D01*
X12477Y25167D01*
X12589Y25121D01*
X12710D01*
X12822Y25167D01*
X12908Y25253D01*
X12954Y25365D01*
Y25486D01*
X12908Y25598D01*
X12866Y25640D01*
X12918Y25767D01*
X18227D01*
X18279Y25640D01*
X18238Y25598D01*
X18191Y25486D01*
Y25365D01*
X18238Y25253D01*
X18323Y25167D01*
X18435Y25121D01*
X18557D01*
X18669Y25167D01*
X18754Y25253D01*
X18801Y25365D01*
Y25486D01*
X18754Y25598D01*
X18713Y25640D01*
X18765Y25767D01*
X22747D01*
X22789Y25640D01*
X22733Y25584D01*
X22686Y25472D01*
Y25350D01*
X22733Y25238D01*
X22819Y25153D01*
X22931Y25106D01*
X23052D01*
X23164Y25153D01*
X23250Y25238D01*
X23296Y25350D01*
Y25472D01*
X23250Y25584D01*
X23193Y25640D01*
X23235Y25767D01*
X23685D01*
X23696Y25748D01*
X23724Y25640D01*
X23661Y25577D01*
X23615Y25465D01*
Y25344D01*
X23661Y25232D01*
X23747Y25146D01*
X23859Y25100D01*
X23980D01*
X24092Y25146D01*
X24178Y25232D01*
X24224Y25344D01*
Y25465D01*
X24178Y25577D01*
X24115Y25640D01*
X24143Y25748D01*
X24154Y25767D01*
X26090D01*
X26155Y25640D01*
X26127Y25573D01*
Y25452D01*
X26174Y25340D01*
X26260Y25254D01*
X26372Y25207D01*
X26493D01*
X26605Y25254D01*
X26691Y25340D01*
X26737Y25452D01*
Y25573D01*
X26709Y25640D01*
X26774Y25767D01*
X27394D01*
X27446Y25640D01*
X27437Y25631D01*
X27391Y25519D01*
Y25398D01*
X27437Y25286D01*
X27523Y25200D01*
X27635Y25154D01*
X27756D01*
X27868Y25200D01*
X27930Y25262D01*
X28047Y25259D01*
X28077Y25251D01*
X28155Y25173D01*
X28267Y25127D01*
X28388D01*
X28500Y25173D01*
X28562Y25235D01*
X28679Y25232D01*
X28709Y25224D01*
X28786Y25146D01*
X28898Y25100D01*
X29020D01*
X29132Y25146D01*
X29217Y25232D01*
X29264Y25344D01*
Y25465D01*
X29217Y25577D01*
X29155Y25640D01*
X29182Y25748D01*
X29194Y25767D01*
X31071D01*
X31123Y25640D01*
D02*
G37*
G36*
X49444Y23449D02*
X49392Y23322D01*
X49349D01*
X49237Y23276D01*
X49151Y23190D01*
X49105Y23078D01*
Y22957D01*
X49151Y22845D01*
X49237Y22759D01*
X49349Y22713D01*
X49470D01*
X49492Y22629D01*
X49381Y22522D01*
X49349D01*
X49237Y22476D01*
X49151Y22390D01*
X49105Y22278D01*
Y22157D01*
X49151Y22045D01*
X49237Y21959D01*
X49349Y21913D01*
X49470D01*
X49582Y21959D01*
X49646Y22023D01*
X50582Y21087D01*
X50660Y21055D01*
X52749D01*
X52750Y21052D01*
Y20931D01*
X52797Y20819D01*
X52883Y20733D01*
X52995Y20687D01*
X53116D01*
X53228Y20733D01*
X53314Y20819D01*
X53360Y20931D01*
Y21052D01*
X53361Y21055D01*
X53847D01*
X53848Y21052D01*
Y20931D01*
X53894Y20819D01*
X53980Y20733D01*
X54092Y20687D01*
X54213D01*
X54325Y20733D01*
X54411Y20819D01*
X54458Y20931D01*
Y21052D01*
X54459Y21055D01*
X55245D01*
X55434Y20865D01*
X55451Y20840D01*
X55463Y20810D01*
X55474Y20806D01*
X55480Y20797D01*
X55555Y20747D01*
X55587Y20740D01*
X55616Y20728D01*
X55716D01*
X55787Y20698D01*
X55842Y20644D01*
X55872Y20572D01*
Y20494D01*
X55842Y20423D01*
X55787Y20368D01*
X55716Y20338D01*
X55616D01*
X55587Y20326D01*
X55555Y20320D01*
X55480Y20270D01*
X55474Y20260D01*
X55463Y20256D01*
X55451Y20226D01*
X55433Y20200D01*
X55436Y20189D01*
X55431Y20178D01*
Y19007D01*
X55463Y18929D01*
X55541Y18897D01*
X55580D01*
X55652Y18867D01*
X55706Y18812D01*
X55736Y18741D01*
Y18663D01*
X55706Y18591D01*
X55652Y18537D01*
X55580Y18507D01*
X55541D01*
X55463Y18475D01*
X55431Y18397D01*
Y17207D01*
X55463Y17129D01*
X55541Y17097D01*
X55580D01*
X55652Y17067D01*
X55706Y17012D01*
X55736Y16941D01*
Y16863D01*
X55706Y16792D01*
X55652Y16737D01*
X55580Y16707D01*
X55541D01*
X55463Y16675D01*
X55431Y16597D01*
Y15407D01*
X55463Y15329D01*
X55541Y15297D01*
X55580D01*
X55652Y15267D01*
X55706Y15212D01*
X55736Y15141D01*
Y15063D01*
X55706Y14991D01*
X55652Y14937D01*
X55580Y14907D01*
X55541D01*
X55463Y14875D01*
X55431Y14797D01*
Y14207D01*
X55438Y14189D01*
X55369Y14160D01*
X55283Y14075D01*
X55236Y13962D01*
Y13841D01*
X55283Y13729D01*
X55330Y13682D01*
X55355Y13602D01*
X55330Y13522D01*
X55283Y13475D01*
X55236Y13362D01*
Y13241D01*
X55283Y13129D01*
X55330Y13082D01*
X55355Y13002D01*
X55330Y12922D01*
X55283Y12875D01*
X55236Y12762D01*
Y12641D01*
X55283Y12529D01*
X55330Y12482D01*
X55355Y12402D01*
X55330Y12322D01*
X55283Y12275D01*
X55236Y12162D01*
Y12041D01*
X55283Y11929D01*
X55330Y11882D01*
X55355Y11802D01*
X55330Y11722D01*
X55283Y11675D01*
X55236Y11562D01*
Y11441D01*
X55283Y11329D01*
X55330Y11282D01*
X55355Y11202D01*
X55330Y11122D01*
X55283Y11075D01*
X55236Y10962D01*
Y10841D01*
X55283Y10729D01*
X55330Y10682D01*
X55355Y10602D01*
X55330Y10522D01*
X55283Y10475D01*
X55236Y10362D01*
Y10241D01*
X55283Y10129D01*
X55330Y10082D01*
X55355Y10002D01*
X55330Y9922D01*
X55283Y9875D01*
X55236Y9762D01*
Y9641D01*
X55283Y9529D01*
X55369Y9443D01*
X55438Y9415D01*
X55431Y9397D01*
Y9121D01*
X55463Y9043D01*
X55618Y8888D01*
X55622Y8887D01*
X55636Y8849D01*
X55641Y8741D01*
X55581Y8682D01*
X55535Y8570D01*
Y8448D01*
X55581Y8336D01*
X55667Y8251D01*
X55779Y8204D01*
X55900D01*
X56012Y8251D01*
X56098Y8336D01*
X56129Y8411D01*
X56172Y8415D01*
X56261Y8399D01*
X56297Y8311D01*
X56383Y8225D01*
X56495Y8179D01*
X56616D01*
X56728Y8225D01*
X56814Y8311D01*
X56860Y8423D01*
Y8544D01*
X56814Y8656D01*
X56741Y8729D01*
X56750Y8789D01*
X56780Y8856D01*
X57027D01*
Y5500D01*
X57021D01*
X57063Y5179D01*
X57187Y4880D01*
X57384Y4624D01*
X57640Y4427D01*
X57939Y4303D01*
X58260Y4261D01*
Y4261D01*
X58264Y4265D01*
X58458Y4239D01*
X58643Y4163D01*
X58801Y4041D01*
X58923Y3883D01*
X58999Y3698D01*
X59025Y3500D01*
X59027D01*
Y1000D01*
X59025D01*
X58999Y802D01*
X58923Y617D01*
X58801Y459D01*
X58643Y337D01*
X58458Y261D01*
X58260Y235D01*
Y233D01*
X55101D01*
X55072Y267D01*
X55031Y360D01*
X55065Y442D01*
Y564D01*
X55019Y676D01*
X54933Y762D01*
X54876Y785D01*
X54838Y921D01*
X54839Y928D01*
X54870Y958D01*
X54916Y1070D01*
Y1191D01*
X54870Y1303D01*
X54784Y1389D01*
X54777Y1452D01*
X54780Y1528D01*
X54856Y1604D01*
X54903Y1716D01*
Y1837D01*
X54856Y1949D01*
X54891Y2094D01*
X54910Y2102D01*
X54996Y2188D01*
X55042Y2300D01*
Y2421D01*
X54996Y2533D01*
X54910Y2619D01*
X54798Y2665D01*
X54677D01*
X54565Y2619D01*
X54479Y2533D01*
X54432Y2421D01*
Y2300D01*
X54479Y2188D01*
X54444Y2043D01*
X54425Y2035D01*
X54340Y1949D01*
X54293Y1837D01*
Y1716D01*
X54340Y1604D01*
X54425Y1518D01*
X54432Y1455D01*
X54429Y1379D01*
X54353Y1303D01*
X54306Y1191D01*
Y1070D01*
X54353Y958D01*
X54438Y872D01*
X54495Y849D01*
X54534Y713D01*
X54533Y706D01*
X54502Y676D01*
X54456Y564D01*
Y442D01*
X54490Y360D01*
X54449Y267D01*
X54420Y233D01*
X53314D01*
X53286Y267D01*
X53244Y360D01*
X53278Y442D01*
Y564D01*
X53232Y676D01*
X53146Y762D01*
X53034Y808D01*
X52913D01*
X52801Y762D01*
X52715Y676D01*
X52669Y564D01*
Y442D01*
X52703Y360D01*
X52662Y267D01*
X52633Y233D01*
X50347D01*
X50310Y296D01*
X50286Y360D01*
X50327Y458D01*
Y579D01*
X50280Y691D01*
X50194Y777D01*
X50082Y824D01*
X49961D01*
X49849Y777D01*
X49763Y691D01*
X49717Y579D01*
Y458D01*
X49758Y360D01*
X49734Y296D01*
X49697Y233D01*
X48970D01*
X48941Y267D01*
X48900Y360D01*
X48934Y442D01*
Y564D01*
X48887Y676D01*
X48802Y762D01*
X48690Y808D01*
X48568D01*
X48456Y762D01*
X48371Y676D01*
X48324Y564D01*
Y442D01*
X48358Y360D01*
X48317Y267D01*
X48288Y233D01*
X46924D01*
X46841Y360D01*
X46856Y397D01*
Y518D01*
X46826Y591D01*
X46876Y694D01*
X46900Y718D01*
X47114D01*
X47226Y765D01*
X47661Y1199D01*
X47769Y1127D01*
X47748Y1078D01*
Y957D01*
X47795Y845D01*
X47880Y759D01*
X47992Y713D01*
X48114D01*
X48226Y759D01*
X48311Y845D01*
X48358Y957D01*
Y1078D01*
X48457Y1171D01*
X48510Y1149D01*
X48632D01*
X48744Y1195D01*
X48829Y1281D01*
X48876Y1393D01*
Y1514D01*
X48829Y1626D01*
X48744Y1712D01*
X48632Y1758D01*
X48510D01*
X48398Y1712D01*
X48313Y1626D01*
X48266Y1514D01*
Y1393D01*
X48167Y1300D01*
X48114Y1322D01*
X47992D01*
X47910Y1288D01*
X47821Y1355D01*
X47808Y1373D01*
X47836Y1439D01*
Y1994D01*
X48224Y2382D01*
X49788D01*
X49801Y2360D01*
X49827Y2255D01*
X49763Y2191D01*
X49717Y2079D01*
Y1958D01*
X49763Y1846D01*
X49849Y1760D01*
X49961Y1714D01*
X50082D01*
X50194Y1760D01*
X50280Y1846D01*
X50327Y1958D01*
Y2079D01*
X50280Y2191D01*
X50217Y2255D01*
X50243Y2360D01*
X50256Y2382D01*
X53091D01*
X53203Y2428D01*
X54461Y3686D01*
X55928D01*
X55934Y3684D01*
X55943Y3679D01*
X55954Y3673D01*
X55965Y3665D01*
X55996Y3639D01*
X56012Y3624D01*
X56031Y3616D01*
X56061Y3586D01*
X56173Y3540D01*
X56294D01*
X56406Y3586D01*
X56492Y3672D01*
X56539Y3784D01*
Y3905D01*
X56492Y4017D01*
X56462Y4047D01*
X56442Y4203D01*
X56449Y4223D01*
X56488Y4317D01*
Y4438D01*
X56441Y4550D01*
X56356Y4636D01*
X56244Y4683D01*
X56122D01*
X56010Y4636D01*
X55981Y4607D01*
X55961Y4599D01*
X55944Y4582D01*
X55929Y4569D01*
X55916Y4558D01*
X55903Y4549D01*
X55893Y4543D01*
X55883Y4538D01*
X55878Y4536D01*
X53514D01*
X53402Y4490D01*
X52623Y3711D01*
X52502Y3769D01*
Y3847D01*
X52456Y3959D01*
X52431Y3984D01*
X52395Y4085D01*
X52433Y4148D01*
X52474Y4189D01*
X52521Y4301D01*
Y4422D01*
X52474Y4534D01*
X52388Y4620D01*
X52276Y4666D01*
X52155D01*
X52043Y4620D01*
X52014Y4590D01*
X51994Y4582D01*
X51977Y4566D01*
X51962Y4553D01*
X51949Y4542D01*
X51936Y4533D01*
X51925Y4527D01*
X51916Y4522D01*
X51911Y4520D01*
X51706D01*
X51594Y4473D01*
X51018Y3897D01*
X48483D01*
X48391Y4007D01*
Y4118D01*
X48348Y4221D01*
X48270Y4299D01*
X48223Y4319D01*
Y4456D01*
X48270Y4476D01*
X48348Y4554D01*
X48391Y4657D01*
Y4768D01*
X48348Y4871D01*
X48270Y4949D01*
X48223Y4969D01*
Y5106D01*
X48270Y5126D01*
X48348Y5204D01*
X48391Y5307D01*
Y5418D01*
X48482Y5530D01*
X49708D01*
X49820Y5577D01*
X50631Y6388D01*
X50636Y6390D01*
X50646Y6393D01*
X50659Y6396D01*
X50672Y6398D01*
X50712Y6402D01*
X50734Y6402D01*
X50754Y6410D01*
X50796D01*
X50908Y6457D01*
X50993Y6543D01*
X51040Y6655D01*
Y6776D01*
X50993Y6888D01*
X50908Y6974D01*
X50796Y7020D01*
X50674D01*
X50562Y6974D01*
X50477Y6888D01*
X50430Y6776D01*
Y6734D01*
X50422Y6714D01*
X50422Y6690D01*
X50420Y6671D01*
X50419Y6654D01*
X50416Y6639D01*
X50413Y6627D01*
X50410Y6617D01*
X50407Y6611D01*
X49643Y5847D01*
X48483D01*
X48391Y5957D01*
Y6068D01*
X48483Y6179D01*
X49328D01*
X49440Y6225D01*
X50531Y7316D01*
X50577Y7428D01*
Y8895D01*
X50756Y9074D01*
X50762Y9077D01*
X50772Y9080D01*
X50784Y9083D01*
X50797Y9085D01*
X50837Y9088D01*
X50859Y9089D01*
X50879Y9097D01*
X50921D01*
X51033Y9143D01*
X51119Y9229D01*
X51165Y9341D01*
Y9462D01*
X51119Y9575D01*
X51033Y9660D01*
X50921Y9707D01*
X50800D01*
X50688Y9660D01*
X50602Y9575D01*
X50555Y9462D01*
Y9421D01*
X50547Y9401D01*
X50547Y9377D01*
X50546Y9358D01*
X50544Y9340D01*
X50541Y9326D01*
X50538Y9313D01*
X50535Y9303D01*
X50533Y9298D01*
X50307Y9072D01*
X50261Y8961D01*
Y7493D01*
X49263Y6495D01*
X48482D01*
X48391Y6607D01*
Y6718D01*
X48348Y6821D01*
X48270Y6899D01*
X48223Y6919D01*
Y7056D01*
X48270Y7076D01*
X48348Y7154D01*
X48391Y7257D01*
Y7368D01*
X48348Y7471D01*
X48270Y7549D01*
X48223Y7569D01*
Y7706D01*
X48270Y7726D01*
X48348Y7804D01*
X48391Y7907D01*
Y8018D01*
X48348Y8121D01*
X48270Y8199D01*
X48167Y8242D01*
X48056D01*
X47953Y8199D01*
X47875Y8121D01*
X47855Y8074D01*
X47718D01*
X47698Y8121D01*
X47620Y8199D01*
X47517Y8242D01*
X47406D01*
X47303Y8199D01*
X47225Y8121D01*
X47205Y8074D01*
X47068D01*
X47048Y8121D01*
X46997Y8232D01*
X47045Y8290D01*
X47265Y8543D01*
X47277Y8579D01*
X47292Y8615D01*
Y8646D01*
X47318Y8708D01*
X47366Y8756D01*
X47430Y8783D01*
X47431Y8782D01*
X47441Y8787D01*
X47448Y8790D01*
X47449Y8791D01*
X47465Y8799D01*
X47501Y8814D01*
X47502Y8818D01*
X47506Y8820D01*
X47749Y9100D01*
X47900Y9079D01*
X47953Y9026D01*
X48056Y8983D01*
X48167D01*
X48270Y9026D01*
X48348Y9104D01*
X48391Y9207D01*
Y9318D01*
X48348Y9421D01*
X48270Y9499D01*
X48266Y9501D01*
X48230Y9653D01*
X48410Y9861D01*
X48419Y9888D01*
X48435Y9912D01*
X48907Y12385D01*
X48904Y12395D01*
X48908Y12405D01*
X48896Y12435D01*
X48889Y12467D01*
X48880Y12473D01*
X48876Y12483D01*
X48546Y12813D01*
X48468Y12846D01*
X47930D01*
X47852Y12813D01*
X46735Y11697D01*
X46727Y11676D01*
X46711Y11661D01*
Y11639D01*
X46703Y11619D01*
X46711Y11599D01*
Y11577D01*
X46748Y11488D01*
X46653Y11449D01*
X46575Y11371D01*
X46536Y11276D01*
X46447Y11313D01*
X46425D01*
X46405Y11321D01*
X46385Y11313D01*
X46363D01*
X46348Y11297D01*
X46327Y11289D01*
X45191Y10153D01*
X45020Y10149D01*
X44917Y10192D01*
X44806D01*
X44703Y10149D01*
X44625Y10071D01*
X44605Y10024D01*
X44468D01*
X44448Y10071D01*
X44370Y10149D01*
X44267Y10192D01*
X44156D01*
X44053Y10149D01*
X43975Y10071D01*
X43932Y9968D01*
Y9857D01*
X43975Y9754D01*
X44053Y9676D01*
X44156Y9633D01*
X44267D01*
X44370Y9676D01*
X44448Y9754D01*
X44468Y9801D01*
X44605D01*
X44625Y9754D01*
X44703Y9676D01*
X44750Y9656D01*
Y9519D01*
X44703Y9499D01*
X44625Y9421D01*
X44582Y9318D01*
Y9261D01*
X44468D01*
X44448Y9253D01*
X44426D01*
X44410Y9237D01*
X44390Y9229D01*
X44382Y9209D01*
X44366Y9193D01*
X44355Y9166D01*
X44308Y9119D01*
X44245Y9093D01*
X44177D01*
X44112Y9066D01*
X43920D01*
X43835Y9193D01*
X43841Y9207D01*
Y9318D01*
X43798Y9421D01*
X43720Y9499D01*
X43617Y9542D01*
X43506D01*
X43403Y9499D01*
X43325Y9421D01*
X43282Y9318D01*
Y9207D01*
X43288Y9193D01*
X43203Y9066D01*
X41970D01*
X41885Y9193D01*
X41891Y9207D01*
Y9318D01*
X41848Y9421D01*
X41907Y9542D01*
X42936D01*
X43370Y9976D01*
Y10202D01*
X43497Y10287D01*
X43506Y10283D01*
X43617D01*
X43720Y10326D01*
X43798Y10404D01*
X43841Y10507D01*
Y10618D01*
X43798Y10721D01*
X43720Y10799D01*
X43617Y10842D01*
X43506D01*
X43497Y10838D01*
X43370Y10923D01*
Y11502D01*
X43497Y11587D01*
X43506Y11583D01*
X43617D01*
X43720Y11626D01*
X43798Y11704D01*
X43841Y11807D01*
Y11918D01*
X43798Y12021D01*
X43720Y12099D01*
X43673Y12119D01*
Y12256D01*
X43720Y12276D01*
X43798Y12354D01*
X43818Y12401D01*
X43955D01*
X43975Y12354D01*
X44053Y12276D01*
X44156Y12233D01*
X44267D01*
X44370Y12276D01*
X44448Y12354D01*
X44491Y12457D01*
Y12568D01*
X44448Y12671D01*
X44370Y12749D01*
X44323Y12769D01*
Y12906D01*
X44370Y12926D01*
X44448Y13004D01*
X44468Y13051D01*
X44605D01*
X44625Y13004D01*
X44703Y12926D01*
X44806Y12883D01*
X44917D01*
X45020Y12926D01*
X45098Y13004D01*
X45118Y13051D01*
X45255D01*
X45275Y13004D01*
X45353Y12926D01*
X45400Y12906D01*
Y12769D01*
X45353Y12749D01*
X45275Y12671D01*
X45232Y12568D01*
Y12457D01*
X45275Y12354D01*
X45353Y12276D01*
X45456Y12233D01*
X45567D01*
X45670Y12276D01*
X45748Y12354D01*
X45768Y12401D01*
X45905D01*
X45925Y12354D01*
X46003Y12276D01*
X46106Y12233D01*
X46217D01*
X46320Y12276D01*
X46398Y12354D01*
X46441Y12457D01*
Y12568D01*
X46398Y12671D01*
X46320Y12749D01*
X46273Y12769D01*
Y12906D01*
X46320Y12926D01*
X46398Y13004D01*
X46441Y13107D01*
Y13218D01*
X46398Y13321D01*
X46320Y13399D01*
X46217Y13442D01*
X46106D01*
X46003Y13399D01*
X45925Y13321D01*
X45905Y13274D01*
X45768D01*
X45748Y13321D01*
X45670Y13399D01*
X45567Y13442D01*
X45456D01*
X45353Y13399D01*
X45275Y13321D01*
X45255Y13274D01*
X45118D01*
X45098Y13321D01*
X45020Y13399D01*
X44917Y13442D01*
X44806D01*
X44703Y13399D01*
X44625Y13321D01*
X44605Y13274D01*
X44468D01*
X44448Y13321D01*
X44370Y13399D01*
X44323Y13419D01*
Y13556D01*
X44370Y13576D01*
X44448Y13654D01*
X44491Y13757D01*
Y13868D01*
X44448Y13971D01*
X44370Y14049D01*
X44323Y14069D01*
Y14206D01*
X44370Y14226D01*
X44448Y14304D01*
X44468Y14351D01*
X44605D01*
X44625Y14304D01*
X44703Y14226D01*
X44806Y14183D01*
X44917D01*
X45020Y14226D01*
X45098Y14304D01*
X45141Y14407D01*
Y14518D01*
X45098Y14621D01*
X45020Y14699D01*
X44917Y14742D01*
X44806D01*
X44703Y14699D01*
X44625Y14621D01*
X44605Y14574D01*
X44468D01*
X44448Y14621D01*
X44370Y14699D01*
X44267Y14742D01*
X44156D01*
X44053Y14699D01*
X43975Y14621D01*
X43932Y14518D01*
Y14407D01*
X43975Y14304D01*
X44053Y14226D01*
X44100Y14206D01*
Y14069D01*
X44053Y14049D01*
X43975Y13971D01*
X43955Y13924D01*
X43818D01*
X43798Y13971D01*
X43720Y14049D01*
X43617Y14092D01*
X43506D01*
X43497Y14088D01*
X43370Y14173D01*
Y15821D01*
X42957Y16234D01*
X43028Y16342D01*
X43099Y16313D01*
X43220D01*
X43332Y16359D01*
X43418Y16445D01*
X43465Y16557D01*
Y16678D01*
X43418Y16790D01*
X43332Y16876D01*
X43220Y16922D01*
X43099D01*
X42987Y16876D01*
X42901Y16790D01*
X42855Y16678D01*
Y16557D01*
X42884Y16486D01*
X42777Y16414D01*
X42262Y16929D01*
Y17113D01*
X42270D01*
X42382Y17159D01*
X42468Y17245D01*
X42515Y17357D01*
Y17478D01*
X42468Y17590D01*
X42382Y17676D01*
X42270Y17722D01*
X42262D01*
Y18538D01*
X42299Y18563D01*
X42420D01*
X42532Y18609D01*
X42618Y18695D01*
X42665Y18807D01*
Y18928D01*
X42618Y19040D01*
X42532Y19126D01*
X42420Y19172D01*
X42299D01*
X42262Y19197D01*
Y19514D01*
X42352D01*
X42464Y19561D01*
X42549Y19646D01*
X42596Y19758D01*
Y19880D01*
X42549Y19992D01*
X42497Y20044D01*
X42491Y20151D01*
X42507Y20197D01*
X42575Y20264D01*
X42621Y20376D01*
Y20497D01*
X42575Y20609D01*
X42489Y20695D01*
X42377Y20742D01*
X42262D01*
Y21131D01*
X42380Y21152D01*
X42426Y21040D01*
X42512Y20954D01*
X42624Y20907D01*
X42745D01*
X42857Y20954D01*
X42943Y21040D01*
X42990Y21152D01*
Y21273D01*
X42943Y21385D01*
X42857Y21471D01*
X42745Y21517D01*
X42624D01*
X42512Y21471D01*
X42426Y21385D01*
X42380Y21273D01*
X42262Y21294D01*
Y21515D01*
X41687Y22090D01*
X41715Y22157D01*
Y22278D01*
X41668Y22390D01*
X41582Y22476D01*
X41470Y22522D01*
X41349D01*
X41282Y22494D01*
X40586Y23190D01*
X40068D01*
X39982Y23276D01*
X39870Y23322D01*
X39749D01*
X39637Y23276D01*
X39551Y23190D01*
X38468D01*
X38382Y23276D01*
X38270Y23322D01*
X38149D01*
X38037Y23276D01*
X37951Y23190D01*
X35888D01*
X34428Y21730D01*
X33983Y22175D01*
X33908Y22226D01*
X33819Y22244D01*
X32830D01*
X32792Y22308D01*
X32769Y22371D01*
X32810Y22469D01*
Y22590D01*
X32763Y22702D01*
X32678Y22788D01*
X32566Y22835D01*
X32444D01*
X32332Y22788D01*
X32247Y22702D01*
X32200Y22590D01*
Y22549D01*
X32130Y22491D01*
X30239D01*
X30158Y22475D01*
X30150Y22481D01*
X30107Y22604D01*
X30906Y23403D01*
X31056Y23373D01*
X31065Y23350D01*
X31151Y23265D01*
X31263Y23218D01*
X31384D01*
X31496Y23265D01*
X31556Y23324D01*
X31615Y23265D01*
X31727Y23218D01*
X31849D01*
X31961Y23265D01*
X32018Y23322D01*
X32076Y23265D01*
X32188Y23218D01*
X32309D01*
X32421Y23265D01*
X32507Y23350D01*
X32553Y23462D01*
Y23584D01*
X32608Y23666D01*
X49222D01*
X49444Y23449D01*
D02*
G37*
G36*
X15576Y22919D02*
X15574Y22913D01*
X15571Y22905D01*
X15569Y22895D01*
X15568Y22882D01*
X15565Y22851D01*
X15564Y22788D01*
X15310D01*
X15310Y22811D01*
X15305Y22895D01*
X15303Y22905D01*
X15300Y22913D01*
X15298Y22919D01*
X15295Y22923D01*
X15579D01*
X15576Y22919D01*
D02*
G37*
G36*
X58260Y25765D02*
X58458Y25739D01*
X58643Y25663D01*
X58801Y25541D01*
X58923Y25383D01*
X58999Y25198D01*
X59025Y25000D01*
X59027D01*
Y22500D01*
X59025D01*
X58999Y22302D01*
X58923Y22117D01*
X58801Y21959D01*
X58643Y21837D01*
X58458Y21761D01*
X58264Y21735D01*
X58260Y21739D01*
Y21739D01*
X57939Y21697D01*
X57640Y21573D01*
X57384Y21376D01*
X57188Y21122D01*
X57187Y21120D01*
X57038Y21092D01*
X55883Y22247D01*
X55805Y22280D01*
X54547D01*
X54458Y22396D01*
Y22518D01*
X54411Y22630D01*
X54325Y22715D01*
X54298Y22864D01*
X54375Y22941D01*
X54424Y23061D01*
X54562D01*
X54611Y22941D01*
X54783Y22770D01*
X55007Y22677D01*
X55249D01*
X55473Y22770D01*
X55645Y22941D01*
X55738Y23165D01*
Y23408D01*
X55645Y23632D01*
X55473Y23804D01*
X55354Y23853D01*
Y23990D01*
X55473Y24040D01*
X55645Y24211D01*
X55738Y24435D01*
Y24678D01*
X55645Y24902D01*
X55473Y25074D01*
X55249Y25166D01*
X55007D01*
X54783Y25074D01*
X54611Y24902D01*
X54519Y24678D01*
Y24435D01*
X54611Y24211D01*
X54783Y24040D01*
X54902Y23990D01*
Y23853D01*
X54783Y23804D01*
X54611Y23632D01*
X54562Y23513D01*
X54424D01*
X54375Y23632D01*
X54203Y23804D01*
X53979Y23896D01*
X53737D01*
X53513Y23804D01*
X53341Y23632D01*
X53292Y23513D01*
X53154D01*
X53105Y23632D01*
X52933Y23804D01*
X52814Y23853D01*
Y23990D01*
X52933Y24040D01*
X53105Y24211D01*
X53198Y24435D01*
Y24678D01*
X53105Y24902D01*
X52933Y25074D01*
X52709Y25166D01*
X52467D01*
X52243Y25074D01*
X52071Y24902D01*
X52022Y24783D01*
X51884D01*
X51835Y24902D01*
X51663Y25074D01*
X51439Y25166D01*
X51197D01*
X50973Y25074D01*
X50801Y24902D01*
X50709Y24678D01*
Y24435D01*
X50801Y24211D01*
X50944Y24069D01*
X50949Y23948D01*
X50946Y23936D01*
X50813Y23981D01*
X50813Y23982D01*
X49507Y25288D01*
X49429Y25320D01*
X37095D01*
X37065Y25365D01*
Y25486D01*
X37018Y25598D01*
X36976Y25640D01*
X37029Y25767D01*
X58260D01*
Y25765D01*
D02*
G37*
G36*
X40427Y22465D02*
X40440Y22455D01*
X40456Y22447D01*
X40473Y22440D01*
X40491Y22434D01*
X40511Y22429D01*
X40533Y22425D01*
X40556Y22422D01*
X40581Y22421D01*
X40608Y22421D01*
X40407Y22219D01*
X40406Y22246D01*
X40402Y22294D01*
X40399Y22316D01*
X40394Y22336D01*
X40388Y22355D01*
X40380Y22371D01*
X40372Y22387D01*
X40363Y22400D01*
X40352Y22412D01*
X40415Y22475D01*
X40427Y22465D01*
D02*
G37*
G36*
X38827D02*
X38840Y22455D01*
X38856Y22447D01*
X38873Y22440D01*
X38891Y22434D01*
X38911Y22429D01*
X38933Y22425D01*
X38956Y22422D01*
X38981Y22421D01*
X39008Y22421D01*
X38807Y22219D01*
X38806Y22246D01*
X38802Y22294D01*
X38799Y22316D01*
X38794Y22336D01*
X38788Y22355D01*
X38780Y22371D01*
X38772Y22387D01*
X38763Y22400D01*
X38752Y22412D01*
X38815Y22475D01*
X38827Y22465D01*
D02*
G37*
G36*
X37227D02*
X37240Y22455D01*
X37256Y22447D01*
X37273Y22440D01*
X37291Y22434D01*
X37311Y22429D01*
X37333Y22425D01*
X37356Y22422D01*
X37381Y22421D01*
X37408Y22421D01*
X37207Y22219D01*
X37206Y22246D01*
X37202Y22294D01*
X37199Y22316D01*
X37194Y22336D01*
X37188Y22355D01*
X37180Y22371D01*
X37172Y22387D01*
X37163Y22400D01*
X37152Y22412D01*
X37215Y22475D01*
X37227Y22465D01*
D02*
G37*
G36*
X40013Y22189D02*
X40017Y22140D01*
X40021Y22119D01*
X40026Y22099D01*
X40032Y22080D01*
X40039Y22063D01*
X40048Y22048D01*
X40057Y22034D01*
X40068Y22022D01*
X40005Y21960D01*
X39993Y21970D01*
X39979Y21980D01*
X39964Y21988D01*
X39947Y21995D01*
X39929Y22001D01*
X39908Y22006D01*
X39887Y22010D01*
X39863Y22012D01*
X39838Y22014D01*
X39812Y22014D01*
X40013Y22215D01*
X40013Y22189D01*
D02*
G37*
G36*
X24329Y21358D02*
X24324Y21360D01*
X24318Y21363D01*
X24310Y21365D01*
X24300Y21367D01*
X24287Y21369D01*
X24256Y21371D01*
X24193Y21373D01*
Y21627D01*
X24216Y21627D01*
X24300Y21632D01*
X24310Y21634D01*
X24318Y21637D01*
X24324Y21639D01*
X24329Y21642D01*
Y21358D01*
D02*
G37*
G36*
X39302Y21459D02*
X39315Y21450D01*
X39331Y21442D01*
X39348Y21434D01*
X39366Y21428D01*
X39386Y21423D01*
X39408Y21420D01*
X39431Y21417D01*
X39456Y21416D01*
X39483Y21415D01*
X39282Y21214D01*
X39281Y21241D01*
X39277Y21289D01*
X39274Y21311D01*
X39269Y21331D01*
X39263Y21349D01*
X39255Y21366D01*
X39247Y21382D01*
X39238Y21395D01*
X39227Y21407D01*
X39290Y21470D01*
X39302Y21459D01*
D02*
G37*
G36*
X24623Y21639D02*
X24629Y21637D01*
X24637Y21634D01*
X24648Y21632D01*
X24660Y21631D01*
X24691Y21628D01*
X24754Y21627D01*
Y21399D01*
X24762Y21391D01*
X24754Y21384D01*
Y21373D01*
X24743Y21373D01*
X24582Y21212D01*
X24566Y21228D01*
X24503Y21283D01*
X24494Y21289D01*
X24487Y21293D01*
X24481Y21296D01*
X24476Y21297D01*
X24619Y21440D01*
Y21642D01*
X24623Y21639D01*
D02*
G37*
G36*
X34689Y21140D02*
X34996Y20654D01*
X34962Y20685D01*
X34931Y20708D01*
X34904Y20722D01*
X34881Y20728D01*
X34861Y20725D01*
X34845Y20713D01*
X34832Y20693D01*
X34823Y20664D01*
X34818Y20626D01*
X34816Y20579D01*
X34562Y20833D01*
X34561Y20883D01*
X34555Y20932D01*
X34546Y20979D01*
X34534Y21025D01*
X34517Y21069D01*
X34498Y21111D01*
X34474Y21152D01*
X34447Y21192D01*
X34417Y21230D01*
X34383Y21267D01*
X34689Y21140D01*
D02*
G37*
G36*
X35468Y20541D02*
X35531Y20486D01*
X35539Y20480D01*
X35547Y20476D01*
X35553Y20473D01*
X35558Y20472D01*
X35357Y20271D01*
X35356Y20276D01*
X35353Y20282D01*
X35349Y20290D01*
X35343Y20299D01*
X35336Y20309D01*
X35315Y20332D01*
X35272Y20378D01*
X35451Y20557D01*
X35468Y20541D01*
D02*
G37*
G36*
X25810Y20216D02*
X25815Y20145D01*
X25817Y20133D01*
X25820Y20122D01*
X25823Y20114D01*
X25827Y20107D01*
X25831Y20103D01*
X25550Y20062D01*
X25551Y20065D01*
X25552Y20070D01*
X25553Y20077D01*
X25554Y20112D01*
X25555Y20191D01*
X25809Y20239D01*
X25810Y20216D01*
D02*
G37*
G36*
X35483Y19173D02*
X35546Y19118D01*
X35555Y19112D01*
X35562Y19108D01*
X35569Y19105D01*
X35574Y19105D01*
X35372Y18903D01*
X35372Y18908D01*
X35369Y18915D01*
X35365Y18922D01*
X35359Y18931D01*
X35351Y18941D01*
X35331Y18965D01*
X35287Y19010D01*
X35467Y19190D01*
X35483Y19173D01*
D02*
G37*
G36*
X38472Y18696D02*
X38458Y18682D01*
X38445Y18667D01*
X38434Y18652D01*
X38425Y18637D01*
X38418Y18621D01*
X38412Y18605D01*
X38408Y18589D01*
X38405Y18572D01*
X38404Y18555D01*
X38315D01*
X38314Y18572D01*
X38312Y18589D01*
X38308Y18605D01*
X38302Y18621D01*
X38294Y18637D01*
X38285Y18652D01*
X38274Y18667D01*
X38262Y18682D01*
X38248Y18696D01*
X38232Y18710D01*
X38488D01*
X38472Y18696D01*
D02*
G37*
G36*
X36577Y17665D02*
X36590Y17655D01*
X36606Y17647D01*
X36623Y17640D01*
X36641Y17634D01*
X36661Y17629D01*
X36683Y17625D01*
X36706Y17622D01*
X36731Y17621D01*
X36758Y17621D01*
X36557Y17419D01*
X36556Y17446D01*
X36552Y17494D01*
X36549Y17516D01*
X36544Y17536D01*
X36538Y17555D01*
X36530Y17571D01*
X36522Y17587D01*
X36513Y17600D01*
X36502Y17612D01*
X36565Y17675D01*
X36577Y17665D01*
D02*
G37*
G36*
X41763Y16589D02*
X41767Y16540D01*
X41771Y16519D01*
X41776Y16499D01*
X41782Y16480D01*
X41789Y16463D01*
X41798Y16448D01*
X41807Y16434D01*
X41818Y16422D01*
X41755Y16360D01*
X41743Y16370D01*
X41729Y16380D01*
X41714Y16388D01*
X41697Y16395D01*
X41679Y16401D01*
X41658Y16406D01*
X41637Y16410D01*
X41613Y16412D01*
X41588Y16414D01*
X41562Y16414D01*
X41763Y16615D01*
X41763Y16589D01*
D02*
G37*
G36*
X37529Y14060D02*
X37542Y14050D01*
X37557Y14042D01*
X37574Y14035D01*
X37593Y14029D01*
X37613Y14024D01*
X37635Y14020D01*
X37658Y14017D01*
X37683Y14016D01*
X37710Y14016D01*
X37508Y13814D01*
X37508Y13841D01*
X37504Y13889D01*
X37500Y13911D01*
X37495Y13931D01*
X37489Y13950D01*
X37482Y13967D01*
X37474Y13982D01*
X37464Y13995D01*
X37454Y14007D01*
X37517Y14070D01*
X37529Y14060D01*
D02*
G37*
G36*
X39269Y13357D02*
X39259Y13345D01*
X39249Y13332D01*
X39241Y13317D01*
X39234Y13300D01*
X39228Y13281D01*
X39223Y13261D01*
X39219Y13239D01*
X39217Y13216D01*
X39215Y13191D01*
X39215Y13164D01*
X39014Y13366D01*
X39040Y13366D01*
X39088Y13370D01*
X39110Y13374D01*
X39130Y13379D01*
X39149Y13385D01*
X39166Y13392D01*
X39181Y13400D01*
X39195Y13410D01*
X39207Y13420D01*
X39269Y13357D01*
D02*
G37*
G36*
X38829Y12760D02*
X38842Y12750D01*
X38857Y12742D01*
X38874Y12735D01*
X38893Y12729D01*
X38913Y12724D01*
X38935Y12720D01*
X38958Y12717D01*
X38983Y12716D01*
X39010Y12716D01*
X38808Y12514D01*
X38808Y12541D01*
X38804Y12589D01*
X38800Y12611D01*
X38795Y12631D01*
X38789Y12650D01*
X38782Y12667D01*
X38774Y12682D01*
X38764Y12695D01*
X38754Y12707D01*
X38817Y12770D01*
X38829Y12760D01*
D02*
G37*
G36*
X37710Y12309D02*
X37683Y12309D01*
X37635Y12305D01*
X37613Y12301D01*
X37593Y12296D01*
X37574Y12290D01*
X37557Y12283D01*
X37542Y12275D01*
X37529Y12265D01*
X37517Y12255D01*
X37454Y12317D01*
X37464Y12329D01*
X37474Y12343D01*
X37482Y12358D01*
X37489Y12375D01*
X37495Y12394D01*
X37500Y12414D01*
X37504Y12436D01*
X37507Y12459D01*
X37508Y12484D01*
X37508Y12510D01*
X37710Y12309D01*
D02*
G37*
G36*
X37969Y12057D02*
X37959Y12045D01*
X37949Y12032D01*
X37941Y12017D01*
X37934Y12000D01*
X37928Y11981D01*
X37923Y11961D01*
X37919Y11939D01*
X37917Y11916D01*
X37915Y11891D01*
X37915Y11864D01*
X37714Y12066D01*
X37740Y12066D01*
X37788Y12070D01*
X37810Y12074D01*
X37830Y12079D01*
X37849Y12085D01*
X37866Y12092D01*
X37881Y12100D01*
X37895Y12110D01*
X37907Y12120D01*
X37969Y12057D01*
D02*
G37*
G36*
X39269Y11407D02*
X39259Y11395D01*
X39249Y11382D01*
X39241Y11367D01*
X39234Y11350D01*
X39228Y11331D01*
X39223Y11311D01*
X39219Y11289D01*
X39217Y11266D01*
X39215Y11241D01*
X39215Y11214D01*
X39014Y11416D01*
X39040Y11416D01*
X39088Y11420D01*
X39110Y11424D01*
X39130Y11429D01*
X39149Y11435D01*
X39166Y11442D01*
X39181Y11450D01*
X39195Y11460D01*
X39207Y11470D01*
X39269Y11407D01*
D02*
G37*
G36*
X39865Y10534D02*
X39869Y10486D01*
X39873Y10464D01*
X39878Y10444D01*
X39884Y10425D01*
X39891Y10408D01*
X39899Y10393D01*
X39909Y10379D01*
X39919Y10367D01*
X39857Y10305D01*
X39845Y10315D01*
X39831Y10325D01*
X39816Y10333D01*
X39799Y10340D01*
X39780Y10346D01*
X39760Y10351D01*
X39738Y10355D01*
X39715Y10357D01*
X39690Y10359D01*
X39664Y10359D01*
X39865Y10560D01*
X39865Y10534D01*
D02*
G37*
G36*
X50858Y9199D02*
X50832Y9198D01*
X50783Y9194D01*
X50762Y9191D01*
X50741Y9186D01*
X50723Y9180D01*
X50706Y9172D01*
X50691Y9164D01*
X50677Y9155D01*
X50665Y9144D01*
X50602Y9207D01*
X50613Y9219D01*
X50622Y9233D01*
X50631Y9248D01*
X50638Y9265D01*
X50644Y9283D01*
X50649Y9303D01*
X50653Y9325D01*
X50655Y9348D01*
X50657Y9373D01*
X50657Y9400D01*
X50858Y9199D01*
D02*
G37*
G36*
X22300Y20826D02*
X22676Y20449D01*
X22677Y17207D01*
X23429Y16454D01*
X25019D01*
Y16424D01*
X25065Y16312D01*
X25151Y16226D01*
X25263Y16180D01*
X25384D01*
X25496Y16226D01*
X25582Y16312D01*
X25629Y16424D01*
Y16454D01*
X26456D01*
X27665Y15245D01*
X28365D01*
X28395Y15215D01*
X28507Y15169D01*
X28628D01*
X28740Y15215D01*
X28770Y15245D01*
X28970D01*
X29027Y15188D01*
X29139Y15142D01*
X29260D01*
X29372Y15188D01*
X29429Y15245D01*
X30460D01*
X30490Y15215D01*
X30602Y15169D01*
X30724D01*
X30836Y15215D01*
X30866Y15245D01*
X31065D01*
X31122Y15188D01*
X31234Y15142D01*
X31355D01*
X31468Y15188D01*
X31524Y15245D01*
X33812D01*
X35047Y14011D01*
Y10196D01*
X36286Y8956D01*
X44150D01*
X44177Y8983D01*
X44267D01*
X44370Y9026D01*
X44448Y9104D01*
X44468Y9151D01*
X44605D01*
X44625Y9104D01*
X44703Y9026D01*
X44806Y8983D01*
X44917D01*
X45020Y9026D01*
X45098Y9104D01*
X45118Y9151D01*
X45255D01*
X45275Y9104D01*
X45353Y9026D01*
X45456Y8983D01*
X45567D01*
X45670Y9026D01*
X45748Y9104D01*
X45791Y9207D01*
Y9318D01*
X45748Y9421D01*
X45670Y9499D01*
X45567Y9542D01*
X45456D01*
X45353Y9499D01*
X45275Y9421D01*
X45255Y9374D01*
X45118D01*
X45098Y9421D01*
X45020Y9499D01*
X44973Y9519D01*
Y9656D01*
X45020Y9676D01*
X45098Y9754D01*
X45141Y9857D01*
Y9947D01*
X46405Y11211D01*
X46532Y11158D01*
Y11157D01*
X46575Y11054D01*
X46653Y10976D01*
X46700Y10956D01*
Y10819D01*
X46653Y10799D01*
X46575Y10721D01*
X46532Y10618D01*
Y10507D01*
X46575Y10404D01*
X46653Y10326D01*
X46700Y10306D01*
Y10169D01*
X46653Y10149D01*
X46575Y10071D01*
X46532Y9968D01*
Y9857D01*
X46575Y9754D01*
X46653Y9676D01*
X46700Y9656D01*
Y9519D01*
X46653Y9499D01*
X46575Y9421D01*
X46532Y9318D01*
Y9207D01*
X46575Y9104D01*
X46653Y9026D01*
X46756Y8983D01*
X46867D01*
X46970Y9026D01*
X47048Y9104D01*
X47091Y9207D01*
Y9318D01*
X47048Y9421D01*
X46970Y9499D01*
X46923Y9519D01*
Y9656D01*
X46970Y9676D01*
X47048Y9754D01*
X47091Y9857D01*
Y9968D01*
X47048Y10071D01*
X46970Y10149D01*
X46923Y10169D01*
Y10306D01*
X46970Y10326D01*
X47048Y10404D01*
X47091Y10507D01*
Y10618D01*
X47048Y10721D01*
X46970Y10799D01*
X46923Y10819D01*
Y10956D01*
X46970Y10976D01*
X47048Y11054D01*
X47068Y11101D01*
X47205D01*
X47225Y11054D01*
X47303Y10976D01*
X47406Y10933D01*
X47517D01*
X47620Y10976D01*
X47698Y11054D01*
X47741Y11157D01*
Y11268D01*
X47698Y11371D01*
X47620Y11449D01*
X47517Y11492D01*
X47406D01*
X47303Y11449D01*
X47225Y11371D01*
X47205Y11324D01*
X47068D01*
X47048Y11371D01*
X46970Y11449D01*
X46867Y11492D01*
X46866D01*
X46813Y11619D01*
X47930Y12736D01*
X48468D01*
X48798Y12405D01*
X48327Y9933D01*
X47934Y9480D01*
X47875Y9421D01*
X47868Y9404D01*
X47423Y8892D01*
X47406D01*
X47303Y8849D01*
X47225Y8771D01*
X47182Y8668D01*
Y8615D01*
X46914Y8306D01*
X35992D01*
X34219Y10079D01*
Y13498D01*
X33157Y14559D01*
X32278D01*
X32257Y14580D01*
X32145Y14626D01*
X32024D01*
X31912Y14580D01*
X31892Y14559D01*
X31233D01*
X31190Y14602D01*
X31078Y14649D01*
X30957D01*
X30844Y14602D01*
X30802Y14559D01*
X29827D01*
X29815Y14571D01*
X29703Y14618D01*
X29581D01*
X29469Y14571D01*
X29457Y14559D01*
X26632D01*
X26580Y14686D01*
X26622Y14728D01*
X26668Y14841D01*
Y14962D01*
X26622Y15074D01*
X26536Y15160D01*
X26424Y15206D01*
X26407Y15242D01*
X26374Y15333D01*
X26416Y15433D01*
Y15555D01*
X26370Y15667D01*
X26284Y15752D01*
X26172Y15799D01*
X26051D01*
X25939Y15752D01*
X25853Y15667D01*
X25806Y15555D01*
Y15433D01*
X25853Y15321D01*
X25939Y15236D01*
X26051Y15189D01*
X26068Y15153D01*
X26100Y15062D01*
X26059Y14962D01*
Y14841D01*
X26105Y14728D01*
X26147Y14686D01*
X26095Y14559D01*
X23515D01*
X21974Y16100D01*
X21990Y16264D01*
X22023Y16298D01*
X22070Y16410D01*
Y16531D01*
X22023Y16643D01*
X21937Y16729D01*
X21825Y16775D01*
X21704D01*
X21592Y16729D01*
X21506Y16643D01*
X21444Y16631D01*
X21199Y16876D01*
X21220Y20433D01*
X21617Y20829D01*
X22300Y20826D01*
D02*
G37*
G36*
X46553Y8069D02*
X46532Y8018D01*
Y7907D01*
X46575Y7804D01*
X46653Y7726D01*
X46700Y7706D01*
Y7569D01*
X46653Y7549D01*
X46575Y7471D01*
X46555Y7424D01*
X46418D01*
X46398Y7471D01*
X46320Y7549D01*
X46217Y7592D01*
X46106D01*
X46003Y7549D01*
X45925Y7471D01*
X45882Y7368D01*
Y7257D01*
X45925Y7154D01*
X46003Y7076D01*
X46050Y7056D01*
Y6919D01*
X46003Y6899D01*
X45925Y6821D01*
X45905Y6774D01*
X45768D01*
X45748Y6821D01*
X45670Y6899D01*
X45567Y6942D01*
X45456D01*
X45353Y6899D01*
X45275Y6821D01*
X45255Y6774D01*
X45118D01*
X45098Y6821D01*
X45020Y6899D01*
X44917Y6942D01*
X44806D01*
X44703Y6899D01*
X44625Y6821D01*
X44605Y6774D01*
X44468D01*
X44448Y6821D01*
X44370Y6899D01*
X44267Y6942D01*
X44156D01*
X44053Y6899D01*
X43975Y6821D01*
X43932Y6718D01*
Y6607D01*
X43841Y6495D01*
X43282D01*
X43191Y6607D01*
Y6718D01*
X43148Y6821D01*
X43070Y6899D01*
X42967Y6942D01*
X42856D01*
X42753Y6899D01*
X42675Y6821D01*
X42632Y6718D01*
Y6607D01*
X42541Y6495D01*
X42534D01*
X42422Y6449D01*
X42394Y6382D01*
X42018Y6006D01*
X41891Y6058D01*
Y6068D01*
X41848Y6171D01*
X41770Y6249D01*
X41667Y6292D01*
X41556D01*
X41453Y6249D01*
X41375Y6171D01*
X41355Y6124D01*
X41218D01*
X41198Y6171D01*
X41120Y6249D01*
X41073Y6269D01*
Y6406D01*
X41120Y6426D01*
X41198Y6504D01*
X41241Y6607D01*
Y6718D01*
X41198Y6821D01*
X41120Y6899D01*
X41017Y6942D01*
X40906D01*
X40803Y6899D01*
X40725Y6821D01*
X40682Y6718D01*
Y6607D01*
X40725Y6504D01*
X40803Y6426D01*
X40850Y6406D01*
Y6269D01*
X40803Y6249D01*
X40725Y6171D01*
X40705Y6124D01*
X40568D01*
X40548Y6171D01*
X40470Y6249D01*
X40367Y6292D01*
X40256D01*
X40153Y6249D01*
X40075Y6171D01*
X40055Y6124D01*
X39918D01*
X39898Y6171D01*
X39820Y6249D01*
X39773Y6269D01*
Y6406D01*
X39820Y6426D01*
X39898Y6504D01*
X39941Y6607D01*
Y6718D01*
X39898Y6821D01*
X39820Y6899D01*
X39773Y6919D01*
Y7056D01*
X39820Y7076D01*
X39898Y7154D01*
X39918Y7201D01*
X40055D01*
X40075Y7154D01*
X40153Y7076D01*
X40256Y7033D01*
X40367D01*
X40470Y7076D01*
X40548Y7154D01*
X40591Y7257D01*
Y7368D01*
X40548Y7471D01*
X40470Y7549D01*
X40367Y7592D01*
X40256D01*
X40153Y7549D01*
X40075Y7471D01*
X40055Y7424D01*
X39918D01*
X39898Y7471D01*
X39820Y7549D01*
X39773Y7569D01*
Y7706D01*
X39820Y7726D01*
X39898Y7804D01*
X39941Y7907D01*
Y8018D01*
X39920Y8069D01*
X39989Y8196D01*
X40634D01*
X40703Y8069D01*
X40682Y8018D01*
Y7907D01*
X40725Y7804D01*
X40803Y7726D01*
X40906Y7683D01*
X41017D01*
X41120Y7726D01*
X41198Y7804D01*
X41241Y7907D01*
Y8018D01*
X41220Y8069D01*
X41289Y8196D01*
X42584D01*
X42653Y8069D01*
X42632Y8018D01*
Y7907D01*
X42675Y7804D01*
X42753Y7726D01*
X42856Y7683D01*
X42967D01*
X43070Y7726D01*
X43148Y7804D01*
X43191Y7907D01*
Y8018D01*
X43170Y8069D01*
X43239Y8196D01*
X43884D01*
X43953Y8069D01*
X43932Y8018D01*
Y7907D01*
X43975Y7804D01*
X44053Y7726D01*
X44156Y7683D01*
X44267D01*
X44370Y7726D01*
X44448Y7804D01*
X44491Y7907D01*
Y8018D01*
X44470Y8069D01*
X44539Y8196D01*
X45184D01*
X45253Y8069D01*
X45232Y8018D01*
Y7907D01*
X45275Y7804D01*
X45353Y7726D01*
X45456Y7683D01*
X45567D01*
X45670Y7726D01*
X45748Y7804D01*
X45791Y7907D01*
Y8018D01*
X45770Y8069D01*
X45839Y8196D01*
X46484D01*
X46553Y8069D01*
D02*
G37*
G36*
X50733Y6512D02*
X50706Y6512D01*
X50658Y6508D01*
X50636Y6504D01*
X50616Y6499D01*
X50598Y6493D01*
X50581Y6486D01*
X50566Y6477D01*
X50552Y6468D01*
X50540Y6457D01*
X50477Y6520D01*
X50488Y6532D01*
X50497Y6546D01*
X50506Y6561D01*
X50513Y6578D01*
X50519Y6596D01*
X50524Y6617D01*
X50527Y6638D01*
X50530Y6662D01*
X50532Y6687D01*
X50532Y6713D01*
X50733Y6512D01*
D02*
G37*
G36*
X40569Y5557D02*
X40559Y5545D01*
X40549Y5532D01*
X40541Y5516D01*
X40534Y5500D01*
X40528Y5481D01*
X40523Y5461D01*
X40519Y5439D01*
X40517Y5416D01*
X40515Y5391D01*
X40515Y5364D01*
X40314Y5566D01*
X40340Y5566D01*
X40388Y5570D01*
X40410Y5574D01*
X40430Y5579D01*
X40449Y5585D01*
X40466Y5592D01*
X40481Y5600D01*
X40495Y5610D01*
X40507Y5620D01*
X40569Y5557D01*
D02*
G37*
G36*
X43560Y5159D02*
X43533Y5159D01*
X43485Y5155D01*
X43463Y5151D01*
X43443Y5146D01*
X43424Y5140D01*
X43408Y5133D01*
X43392Y5125D01*
X43379Y5115D01*
X43367Y5105D01*
X43304Y5167D01*
X43314Y5179D01*
X43324Y5193D01*
X43332Y5208D01*
X43339Y5225D01*
X43345Y5244D01*
X43350Y5264D01*
X43354Y5286D01*
X43357Y5309D01*
X43358Y5334D01*
X43358Y5360D01*
X43560Y5159D01*
D02*
G37*
G36*
X46160Y5159D02*
X46133Y5159D01*
X46085Y5155D01*
X46063Y5151D01*
X46043Y5146D01*
X46024Y5140D01*
X46008Y5133D01*
X45992Y5125D01*
X45979Y5115D01*
X45967Y5105D01*
X45904Y5167D01*
X45914Y5179D01*
X45924Y5193D01*
X45932Y5208D01*
X45939Y5225D01*
X45945Y5244D01*
X45950Y5264D01*
X45954Y5285D01*
X45957Y5309D01*
X45958Y5334D01*
X45958Y5360D01*
X46160Y5159D01*
D02*
G37*
G36*
X45510D02*
X45483Y5159D01*
X45435Y5155D01*
X45413Y5151D01*
X45393Y5146D01*
X45374Y5140D01*
X45358Y5133D01*
X45342Y5125D01*
X45329Y5115D01*
X45317Y5105D01*
X45254Y5167D01*
X45264Y5179D01*
X45274Y5193D01*
X45282Y5208D01*
X45289Y5225D01*
X45295Y5244D01*
X45300Y5264D01*
X45304Y5285D01*
X45307Y5309D01*
X45308Y5334D01*
X45308Y5360D01*
X45510Y5159D01*
D02*
G37*
G36*
X41126Y4836D02*
X41163Y4805D01*
X41181Y4792D01*
X41198Y4781D01*
X41216Y4773D01*
X41233Y4766D01*
X41249Y4761D01*
X41266Y4758D01*
X41282Y4757D01*
Y4668D01*
X41266Y4667D01*
X41249Y4664D01*
X41233Y4659D01*
X41216Y4652D01*
X41198Y4644D01*
X41181Y4633D01*
X41163Y4620D01*
X41144Y4605D01*
X41126Y4589D01*
X41107Y4570D01*
Y4855D01*
X41126Y4836D01*
D02*
G37*
G36*
X23304Y4829D02*
X23341Y4798D01*
X23359Y4785D01*
X23376Y4775D01*
X23394Y4766D01*
X23411Y4759D01*
X23427Y4754D01*
X23444Y4751D01*
X23460Y4750D01*
Y4661D01*
X23444Y4660D01*
X23427Y4657D01*
X23411Y4652D01*
X23394Y4646D01*
X23376Y4637D01*
X23359Y4626D01*
X23341Y4613D01*
X23322Y4599D01*
X23304Y4582D01*
X23285Y4563D01*
Y4848D01*
X23304Y4829D01*
D02*
G37*
G36*
X43560Y4509D02*
X43533Y4509D01*
X43485Y4505D01*
X43463Y4501D01*
X43443Y4496D01*
X43424Y4490D01*
X43408Y4483D01*
X43392Y4475D01*
X43379Y4465D01*
X43367Y4455D01*
X43304Y4517D01*
X43314Y4529D01*
X43324Y4543D01*
X43332Y4558D01*
X43339Y4575D01*
X43345Y4594D01*
X43350Y4614D01*
X43354Y4635D01*
X43357Y4659D01*
X43358Y4684D01*
X43358Y4710D01*
X43560Y4509D01*
D02*
G37*
G36*
X20222Y4548D02*
X20288Y4511D01*
X20308Y4502D01*
X20345Y4489D01*
X20361Y4485D01*
X20377Y4482D01*
X20391Y4481D01*
X20411Y4393D01*
X20394Y4392D01*
X20377Y4388D01*
X20361Y4383D01*
X20345Y4375D01*
X20330Y4366D01*
X20314Y4354D01*
X20300Y4340D01*
X20285Y4324D01*
X20271Y4306D01*
X20258Y4286D01*
X20197Y4564D01*
X20222Y4548D01*
D02*
G37*
G36*
X56038Y4236D02*
X56019Y4254D01*
X55982Y4285D01*
X55964Y4298D01*
X55946Y4309D01*
X55929Y4318D01*
X55912Y4325D01*
X55895Y4329D01*
X55879Y4332D01*
X55863Y4333D01*
Y4422D01*
X55879Y4423D01*
X55895Y4426D01*
X55912Y4431D01*
X55929Y4438D01*
X55946Y4447D01*
X55964Y4457D01*
X55982Y4470D01*
X56000Y4485D01*
X56019Y4501D01*
X56038Y4520D01*
Y4236D01*
D02*
G37*
G36*
X52071Y4219D02*
X52052Y4238D01*
X52015Y4269D01*
X51997Y4282D01*
X51979Y4293D01*
X51962Y4301D01*
X51945Y4308D01*
X51928Y4313D01*
X51912Y4316D01*
X51896Y4317D01*
Y4406D01*
X51912Y4407D01*
X51928Y4410D01*
X51945Y4415D01*
X51962Y4422D01*
X51979Y4430D01*
X51997Y4441D01*
X52015Y4454D01*
X52033Y4469D01*
X52052Y4485D01*
X52071Y4504D01*
Y4219D01*
D02*
G37*
G36*
X22986Y4156D02*
X23023Y4125D01*
X23041Y4112D01*
X23059Y4101D01*
X23076Y4093D01*
X23093Y4086D01*
X23110Y4081D01*
X23126Y4078D01*
X23142Y4077D01*
Y3988D01*
X23126Y3987D01*
X23110Y3984D01*
X23093Y3979D01*
X23076Y3972D01*
X23059Y3964D01*
X23041Y3953D01*
X23023Y3940D01*
X23005Y3926D01*
X22986Y3909D01*
X22967Y3890D01*
Y4175D01*
X22986Y4156D01*
D02*
G37*
G36*
X43560Y3859D02*
X43533Y3859D01*
X43485Y3855D01*
X43463Y3851D01*
X43443Y3846D01*
X43424Y3840D01*
X43408Y3833D01*
X43392Y3825D01*
X43379Y3815D01*
X43367Y3805D01*
X43304Y3867D01*
X43314Y3879D01*
X43324Y3893D01*
X43332Y3908D01*
X43339Y3925D01*
X43345Y3944D01*
X43350Y3964D01*
X43354Y3985D01*
X43357Y4009D01*
X43358Y4034D01*
X43358Y4060D01*
X43560Y3859D01*
D02*
G37*
G36*
X21046Y3898D02*
X21015Y3861D01*
X21002Y3843D01*
X20991Y3826D01*
X20982Y3808D01*
X20975Y3791D01*
X20971Y3775D01*
X20968Y3758D01*
X20967Y3742D01*
X20878D01*
X20877Y3758D01*
X20874Y3775D01*
X20869Y3791D01*
X20862Y3808D01*
X20853Y3826D01*
X20842Y3843D01*
X20830Y3861D01*
X20815Y3880D01*
X20798Y3898D01*
X20780Y3917D01*
X21064D01*
X21046Y3898D01*
D02*
G37*
G36*
X56089Y3702D02*
X56070Y3721D01*
X56033Y3752D01*
X56015Y3765D01*
X55997Y3775D01*
X55980Y3784D01*
X55963Y3791D01*
X55946Y3796D01*
X55930Y3799D01*
X55914Y3800D01*
Y3889D01*
X55930Y3890D01*
X55946Y3893D01*
X55963Y3898D01*
X55980Y3904D01*
X55997Y3913D01*
X56015Y3924D01*
X56033Y3937D01*
X56051Y3951D01*
X56070Y3968D01*
X56089Y3987D01*
Y3702D01*
D02*
G37*
G36*
X52052Y3644D02*
X52033Y3663D01*
X51996Y3694D01*
X51978Y3707D01*
X51961Y3718D01*
X51943Y3726D01*
X51926Y3733D01*
X51910Y3738D01*
X51893Y3741D01*
X51877Y3742D01*
Y3831D01*
X51893Y3832D01*
X51910Y3835D01*
X51926Y3840D01*
X51943Y3847D01*
X51961Y3855D01*
X51978Y3866D01*
X51996Y3879D01*
X52015Y3894D01*
X52033Y3910D01*
X52052Y3929D01*
Y3644D01*
D02*
G37*
G36*
X23178Y3252D02*
X23182Y3204D01*
X23186Y3182D01*
X23191Y3162D01*
X23197Y3143D01*
X23204Y3126D01*
X23212Y3111D01*
X23222Y3098D01*
X23232Y3086D01*
X23169Y3023D01*
X23157Y3033D01*
X23144Y3043D01*
X23128Y3051D01*
X23112Y3058D01*
X23093Y3064D01*
X23073Y3069D01*
X23051Y3073D01*
X23028Y3076D01*
X23003Y3077D01*
X22976Y3077D01*
X23178Y3279D01*
X23178Y3252D01*
D02*
G37*
G36*
X28456Y1976D02*
X28446Y1964D01*
X28436Y1950D01*
X28428Y1935D01*
X28420Y1918D01*
X28414Y1899D01*
X28410Y1879D01*
X28406Y1858D01*
X28403Y1834D01*
X28402Y1809D01*
X28401Y1783D01*
X28200Y1984D01*
X28227Y1984D01*
X28275Y1988D01*
X28297Y1992D01*
X28317Y1997D01*
X28336Y2003D01*
X28352Y2010D01*
X28368Y2018D01*
X28381Y2028D01*
X28393Y2039D01*
X28456Y1976D01*
D02*
G37*
G36*
X34033Y1752D02*
X34037Y1704D01*
X34040Y1682D01*
X34045Y1662D01*
X34051Y1643D01*
X34058Y1627D01*
X34067Y1611D01*
X34076Y1598D01*
X34087Y1586D01*
X34024Y1523D01*
X34012Y1533D01*
X33998Y1543D01*
X33983Y1551D01*
X33966Y1559D01*
X33948Y1565D01*
X33928Y1569D01*
X33906Y1573D01*
X33883Y1576D01*
X33858Y1577D01*
X33831Y1578D01*
X34032Y1779D01*
X34033Y1752D01*
D02*
G37*
G36*
X28070Y1287D02*
X28107Y1255D01*
X28125Y1243D01*
X28142Y1232D01*
X28160Y1223D01*
X28177Y1216D01*
X28193Y1211D01*
X28210Y1208D01*
X28226Y1207D01*
Y1119D01*
X28210Y1118D01*
X28193Y1115D01*
X28177Y1110D01*
X28160Y1103D01*
X28142Y1094D01*
X28125Y1083D01*
X28107Y1071D01*
X28088Y1056D01*
X28070Y1039D01*
X28051Y1021D01*
Y1305D01*
X28070Y1287D01*
D02*
G37*
G36*
X33828Y1154D02*
X33836Y1105D01*
X33842Y1083D01*
X33848Y1062D01*
X33855Y1044D01*
X33863Y1027D01*
X33871Y1012D01*
X33881Y998D01*
X33891Y987D01*
X33835Y917D01*
X33822Y928D01*
X33808Y938D01*
X33793Y946D01*
X33776Y952D01*
X33758Y958D01*
X33738Y961D01*
X33717Y963D01*
X33695Y964D01*
X33671Y963D01*
X33645Y961D01*
X33825Y1182D01*
X33828Y1154D01*
D02*
G37*
%LPC*%
G36*
X49189Y24658D02*
X49068D01*
X48956Y24611D01*
X48870Y24525D01*
X48824Y24413D01*
Y24292D01*
X48870Y24180D01*
X48956Y24094D01*
X49068Y24048D01*
X49189D01*
X49301Y24094D01*
X49387Y24180D01*
X49433Y24292D01*
Y24413D01*
X49387Y24525D01*
X49301Y24611D01*
X49189Y24658D01*
D02*
G37*
G36*
X45882Y24613D02*
X45761D01*
X45649Y24566D01*
X45563Y24480D01*
X45517Y24368D01*
Y24247D01*
X45563Y24135D01*
X45649Y24049D01*
X45761Y24003D01*
X45882D01*
X45994Y24049D01*
X46080Y24135D01*
X46126Y24247D01*
Y24368D01*
X46080Y24480D01*
X45994Y24566D01*
X45882Y24613D01*
D02*
G37*
G36*
X36678D02*
X36557D01*
X36444Y24566D01*
X36359Y24480D01*
X36312Y24368D01*
Y24247D01*
X36359Y24135D01*
X36444Y24049D01*
X36557Y24003D01*
X36678D01*
X36790Y24049D01*
X36876Y24135D01*
X36922Y24247D01*
Y24368D01*
X36876Y24480D01*
X36790Y24566D01*
X36678Y24613D01*
D02*
G37*
G36*
X35925Y24523D02*
X35803D01*
X35691Y24477D01*
X35606Y24391D01*
X35559Y24279D01*
Y24158D01*
X35606Y24046D01*
X35691Y23960D01*
X35803Y23913D01*
X35925D01*
X36037Y23960D01*
X36122Y24046D01*
X36169Y24158D01*
Y24279D01*
X36122Y24391D01*
X36037Y24477D01*
X35925Y24523D01*
D02*
G37*
G36*
X18603Y23698D02*
X18481D01*
X18369Y23652D01*
X18284Y23566D01*
X18237Y23454D01*
Y23333D01*
X18284Y23221D01*
X18369Y23135D01*
X18481Y23089D01*
X18603D01*
X18715Y23135D01*
X18800Y23221D01*
X18847Y23333D01*
Y23454D01*
X18800Y23566D01*
X18715Y23652D01*
X18603Y23698D01*
D02*
G37*
G36*
X25945Y23270D02*
X25823D01*
X25711Y23224D01*
X25626Y23138D01*
X25579Y23026D01*
Y22905D01*
X25626Y22793D01*
X25711Y22707D01*
X25823Y22661D01*
X25945D01*
X26057Y22707D01*
X26142Y22793D01*
X26189Y22905D01*
Y23026D01*
X26142Y23138D01*
X26057Y23224D01*
X25945Y23270D01*
D02*
G37*
G36*
X21981Y23038D02*
X21860D01*
X21748Y22991D01*
X21662Y22906D01*
X21615Y22794D01*
Y22672D01*
X21662Y22560D01*
X21748Y22475D01*
X21860Y22428D01*
X21981D01*
X22093Y22475D01*
X22179Y22560D01*
X22225Y22672D01*
Y22794D01*
X22179Y22906D01*
X22093Y22991D01*
X21981Y23038D01*
D02*
G37*
G36*
X18111Y22652D02*
X17990D01*
X17878Y22605D01*
X17792Y22519D01*
X17745Y22407D01*
Y22286D01*
X17792Y22174D01*
X17878Y22088D01*
X17990Y22042D01*
X18111D01*
X18223Y22088D01*
X18309Y22174D01*
X18355Y22286D01*
Y22407D01*
X18309Y22519D01*
X18223Y22605D01*
X18111Y22652D01*
D02*
G37*
G36*
X20178Y23331D02*
X20056D01*
X19944Y23284D01*
X19859Y23198D01*
X19812Y23086D01*
Y23070D01*
X19795Y22963D01*
X19695Y22953D01*
X19672D01*
X19560Y22907D01*
X19475Y22821D01*
X19428Y22709D01*
Y22588D01*
X19475Y22476D01*
X19560Y22390D01*
X19672Y22343D01*
X19688D01*
X19795Y22326D01*
X19806Y22226D01*
Y22203D01*
X19852Y22091D01*
X19938Y22006D01*
X20050Y21959D01*
X20171D01*
X20283Y22006D01*
X20369Y22091D01*
X20415Y22203D01*
Y22219D01*
X20432Y22326D01*
X20533Y22337D01*
X20555D01*
X20667Y22383D01*
X20753Y22469D01*
X20799Y22581D01*
Y22702D01*
X20753Y22814D01*
X20667Y22900D01*
X20555Y22946D01*
X20539D01*
X20432Y22963D01*
X20422Y23064D01*
Y23086D01*
X20375Y23198D01*
X20290Y23284D01*
X20178Y23331D01*
D02*
G37*
G36*
X9037Y21173D02*
X8916D01*
X8804Y21126D01*
X8718Y21040D01*
X8672Y20928D01*
Y20807D01*
X8718Y20695D01*
X8804Y20609D01*
X8916Y20563D01*
X9037D01*
X9149Y20609D01*
X9235Y20695D01*
X9281Y20807D01*
Y20928D01*
X9235Y21040D01*
X9149Y21126D01*
X9037Y21173D01*
D02*
G37*
G36*
X8723Y25578D02*
X8488Y25531D01*
X8289Y25398D01*
X8166Y25214D01*
X8098Y25206D01*
X8030Y25214D01*
X7907Y25398D01*
X7708Y25531D01*
X7473Y25578D01*
X7238Y25531D01*
X7039Y25398D01*
X6916Y25214D01*
X6848Y25206D01*
X6780Y25214D01*
X6657Y25398D01*
X6458Y25531D01*
X6223Y25578D01*
X5988Y25531D01*
X5789Y25398D01*
X5656Y25199D01*
X5610Y24964D01*
Y24464D01*
X5656Y24229D01*
X5789Y24030D01*
X5988Y23898D01*
X6223Y23851D01*
X6458Y23898D01*
X6657Y24030D01*
X6780Y24215D01*
X6848Y24223D01*
X6916Y24215D01*
X7039Y24030D01*
X7238Y23898D01*
X7473Y23851D01*
X7708Y23898D01*
X7907Y24030D01*
X8030Y24215D01*
X8098Y24223D01*
X8166Y24215D01*
X8289Y24030D01*
X8488Y23898D01*
X8723Y23851D01*
X8958Y23898D01*
X9157Y24030D01*
X9290Y24229D01*
X9336Y24464D01*
Y24964D01*
X9290Y25199D01*
X9157Y25398D01*
X8958Y25531D01*
X8723Y25578D01*
D02*
G37*
G36*
X16012Y25462D02*
X15891D01*
X15779Y25416D01*
X15693Y25330D01*
X15646Y25218D01*
Y25097D01*
X15693Y24985D01*
X15779Y24899D01*
X15891Y24853D01*
X16012D01*
X16124Y24899D01*
X16210Y24985D01*
X16256Y25097D01*
Y25218D01*
X16210Y25330D01*
X16124Y25416D01*
X16012Y25462D01*
D02*
G37*
G36*
X6773Y23373D02*
X6651D01*
X6539Y23327D01*
X6454Y23241D01*
X6407Y23129D01*
Y23008D01*
X6454Y22896D01*
X6539Y22810D01*
X6651Y22764D01*
X6773D01*
X6885Y22810D01*
X6970Y22896D01*
X7017Y23008D01*
Y23129D01*
X6970Y23241D01*
X6885Y23327D01*
X6773Y23373D01*
D02*
G37*
G36*
X2658Y25102D02*
X2342D01*
X2036Y25020D01*
X1762Y24862D01*
X1538Y24638D01*
X1380Y24364D01*
X1298Y24058D01*
Y23742D01*
X1380Y23436D01*
X1538Y23162D01*
X1762Y22938D01*
X2036Y22780D01*
X2342Y22698D01*
X2658D01*
X2964Y22780D01*
X3238Y22938D01*
X3462Y23162D01*
X3620Y23436D01*
X3702Y23742D01*
Y24058D01*
X3620Y24364D01*
X3462Y24638D01*
X3238Y24862D01*
X2964Y25020D01*
X2658Y25102D01*
D02*
G37*
G36*
X14513Y23037D02*
X14392D01*
X14280Y22991D01*
X14194Y22905D01*
X14148Y22793D01*
Y22672D01*
X14194Y22560D01*
X14280Y22474D01*
X14392Y22427D01*
X14513D01*
X14625Y22474D01*
X14711Y22560D01*
X14757Y22672D01*
Y22793D01*
X14711Y22905D01*
X14625Y22991D01*
X14513Y23037D01*
D02*
G37*
G36*
Y22105D02*
X14392D01*
X14280Y22058D01*
X14194Y21973D01*
X14148Y21861D01*
Y21739D01*
X14194Y21627D01*
X14280Y21542D01*
X14392Y21495D01*
X14513D01*
X14625Y21542D01*
X14711Y21627D01*
X14757Y21739D01*
Y21861D01*
X14711Y21973D01*
X14625Y22058D01*
X14513Y22105D01*
D02*
G37*
G36*
Y21173D02*
X14392D01*
X14280Y21126D01*
X14194Y21040D01*
X14148Y20928D01*
Y20807D01*
X14194Y20695D01*
X14280Y20609D01*
X14392Y20563D01*
X14513D01*
X14625Y20609D01*
X14711Y20695D01*
X14757Y20807D01*
Y20928D01*
X14711Y21040D01*
X14625Y21126D01*
X14513Y21173D01*
D02*
G37*
G36*
X27518Y21017D02*
X27397D01*
X27285Y20971D01*
X27199Y20885D01*
X27152Y20773D01*
Y20652D01*
X27199Y20540D01*
X27285Y20454D01*
X27397Y20408D01*
X27518D01*
X27630Y20454D01*
X27716Y20540D01*
X27762Y20652D01*
Y20773D01*
X27716Y20885D01*
X27630Y20971D01*
X27518Y21017D01*
D02*
G37*
G36*
X3452Y21511D02*
X3254D01*
X3063Y21460D01*
X2891Y21361D01*
X2751Y21221D01*
X2652Y21050D01*
X2601Y20859D01*
Y20661D01*
X2652Y20470D01*
X2751Y20298D01*
X2891Y20158D01*
X3063Y20059D01*
X3254Y20008D01*
X3452D01*
X3643Y20059D01*
X3814Y20158D01*
X3954Y20298D01*
X4053Y20470D01*
X4104Y20661D01*
Y20859D01*
X4053Y21050D01*
X3954Y21221D01*
X3814Y21361D01*
X3643Y21460D01*
X3452Y21511D01*
D02*
G37*
G36*
X32477Y19526D02*
X32356D01*
X32244Y19480D01*
X32158Y19394D01*
X32111Y19282D01*
Y19161D01*
X32158Y19049D01*
X32244Y18963D01*
X32356Y18917D01*
X32477D01*
X32589Y18963D01*
X32675Y19049D01*
X32721Y19161D01*
Y19282D01*
X32675Y19394D01*
X32589Y19480D01*
X32477Y19526D01*
D02*
G37*
G36*
X27391Y19406D02*
X27270D01*
X27158Y19360D01*
X27072Y19274D01*
X27026Y19162D01*
Y19041D01*
X27072Y18929D01*
X27158Y18843D01*
X27270Y18797D01*
X27391D01*
X27503Y18843D01*
X27589Y18929D01*
X27635Y19041D01*
Y19162D01*
X27589Y19274D01*
X27503Y19360D01*
X27391Y19406D01*
D02*
G37*
G36*
X25846D02*
X25725D01*
X25613Y19360D01*
X25527Y19274D01*
X25481Y19162D01*
Y19041D01*
X25527Y18929D01*
X25613Y18843D01*
X25725Y18797D01*
X25846D01*
X25958Y18843D01*
X26044Y18929D01*
X26091Y19041D01*
Y19162D01*
X26044Y19274D01*
X25958Y19360D01*
X25846Y19406D01*
D02*
G37*
G36*
X19365Y20105D02*
X19244D01*
X19132Y20058D01*
X19046Y19973D01*
X18999Y19861D01*
Y19845D01*
X18982Y19738D01*
X18882Y19727D01*
X18860D01*
X18747Y19681D01*
X18662Y19595D01*
X18615Y19483D01*
Y19362D01*
X18662Y19250D01*
X18747Y19164D01*
X18860Y19118D01*
X18876D01*
X18983Y19101D01*
X18993Y19000D01*
Y18978D01*
X19039Y18866D01*
X19125Y18780D01*
X19237Y18733D01*
X19358D01*
X19470Y18780D01*
X19556Y18866D01*
X19603Y18978D01*
Y18994D01*
X19620Y19101D01*
X19720Y19111D01*
X19742D01*
X19854Y19157D01*
X19940Y19243D01*
X19987Y19355D01*
Y19476D01*
X19940Y19588D01*
X19854Y19674D01*
X19742Y19721D01*
X19726D01*
X19619Y19738D01*
X19609Y19838D01*
Y19861D01*
X19563Y19973D01*
X19477Y20058D01*
X19365Y20105D01*
D02*
G37*
G36*
X31269Y18705D02*
X31148D01*
X31036Y18658D01*
X30950Y18573D01*
X30904Y18461D01*
Y18339D01*
X30950Y18227D01*
X31036Y18142D01*
X31148Y18095D01*
X31269D01*
X31381Y18142D01*
X31467Y18227D01*
X31513Y18339D01*
Y18461D01*
X31467Y18573D01*
X31381Y18658D01*
X31269Y18705D01*
D02*
G37*
G36*
X30181D02*
X30060D01*
X29948Y18658D01*
X29862Y18573D01*
X29816Y18461D01*
Y18339D01*
X29862Y18227D01*
X29948Y18142D01*
X30060Y18095D01*
X30181D01*
X30293Y18142D01*
X30379Y18227D01*
X30426Y18339D01*
Y18461D01*
X30379Y18573D01*
X30293Y18658D01*
X30181Y18705D01*
D02*
G37*
G36*
X29076Y18593D02*
X28955D01*
X28843Y18546D01*
X28757Y18461D01*
X28711Y18349D01*
Y18227D01*
X28757Y18115D01*
X28843Y18030D01*
X28955Y17983D01*
X29076D01*
X29188Y18030D01*
X29274Y18115D01*
X29321Y18227D01*
Y18349D01*
X29274Y18461D01*
X29188Y18546D01*
X29076Y18593D01*
D02*
G37*
G36*
X30203Y17653D02*
X30081D01*
X29969Y17607D01*
X29892Y17529D01*
X29815Y17607D01*
X29703Y17653D01*
X29581D01*
X29469Y17607D01*
X29384Y17521D01*
X29337Y17409D01*
Y17288D01*
X29384Y17176D01*
X29469Y17090D01*
X29581Y17043D01*
X29703D01*
X29815Y17090D01*
X29892Y17167D01*
X29969Y17090D01*
X30081Y17043D01*
X30203D01*
X30315Y17090D01*
X30400Y17176D01*
X30447Y17288D01*
Y17409D01*
X30400Y17521D01*
X30315Y17607D01*
X30203Y17653D01*
D02*
G37*
G36*
X32203Y17903D02*
X32081D01*
X31969Y17857D01*
X31884Y17771D01*
X31837Y17659D01*
Y17538D01*
X31884Y17426D01*
X31969Y17340D01*
X32081Y17294D01*
X32203D01*
X32315Y17340D01*
X32400Y17426D01*
X32447Y17538D01*
Y17659D01*
X32400Y17771D01*
X32315Y17857D01*
X32203Y17903D01*
D02*
G37*
G36*
X27703D02*
X27581D01*
X27469Y17857D01*
X27384Y17771D01*
X27337Y17659D01*
Y17538D01*
X27384Y17426D01*
X27469Y17340D01*
X27581Y17294D01*
X27703D01*
X27815Y17340D01*
X27900Y17426D01*
X27947Y17538D01*
Y17659D01*
X27900Y17771D01*
X27815Y17857D01*
X27703Y17903D01*
D02*
G37*
G36*
X24440Y17390D02*
X24319D01*
X24207Y17343D01*
X24121Y17258D01*
X24074Y17146D01*
Y17024D01*
X24121Y16912D01*
X24207Y16827D01*
X24319Y16780D01*
X24440D01*
X24552Y16827D01*
X24638Y16912D01*
X24684Y17024D01*
Y17146D01*
X24638Y17258D01*
X24552Y17343D01*
X24440Y17390D01*
D02*
G37*
G36*
X5556Y17977D02*
X4556D01*
X4386Y17955D01*
X4228Y17889D01*
X4091Y17785D01*
X3987Y17649D01*
X3921Y17490D01*
X3899Y17320D01*
X3906Y17270D01*
X3899Y17220D01*
Y16838D01*
X3860Y16797D01*
X3780Y16750D01*
X3776Y16752D01*
X3636D01*
X3507Y16698D01*
X3408Y16599D01*
X3355Y16470D01*
Y16330D01*
X3408Y16201D01*
X3507Y16102D01*
X3636Y16048D01*
X3776D01*
X3905Y16102D01*
X4004Y16201D01*
X4024Y16247D01*
X4175Y16291D01*
X4228Y16251D01*
X4386Y16185D01*
X4556Y16163D01*
X4726Y16185D01*
X4885Y16251D01*
X5021Y16355D01*
X5125Y16491D01*
X5191Y16650D01*
X5193Y16663D01*
X5556D01*
X5726Y16685D01*
X5885Y16751D01*
X6021Y16855D01*
X6125Y16991D01*
X6191Y17150D01*
X6213Y17320D01*
X6191Y17490D01*
X6125Y17649D01*
X6021Y17785D01*
X5885Y17889D01*
X5726Y17955D01*
X5556Y17977D01*
D02*
G37*
G36*
X12126Y17043D02*
X12004D01*
X11892Y16997D01*
X11807Y16911D01*
X11760Y16799D01*
Y16678D01*
X11807Y16566D01*
X11892Y16480D01*
X12004Y16434D01*
X12126D01*
X12238Y16480D01*
X12323Y16566D01*
X12370Y16678D01*
Y16799D01*
X12323Y16911D01*
X12238Y16997D01*
X12126Y17043D01*
D02*
G37*
G36*
X14106Y16107D02*
X13985D01*
X13873Y16061D01*
X13787Y15975D01*
X13741Y15863D01*
Y15742D01*
X13787Y15630D01*
X13873Y15544D01*
X13985Y15498D01*
X14106D01*
X14218Y15544D01*
X14304Y15630D01*
X14350Y15742D01*
Y15863D01*
X14304Y15975D01*
X14218Y16061D01*
X14106Y16107D01*
D02*
G37*
G36*
X7274Y16562D02*
X7153D01*
X7041Y16515D01*
X6955Y16429D01*
X6909Y16317D01*
Y16196D01*
X6955Y16084D01*
X6966Y16073D01*
X7034Y15990D01*
X6966Y15907D01*
X6955Y15896D01*
X6909Y15784D01*
Y15663D01*
X6955Y15551D01*
X7041Y15465D01*
X7153Y15418D01*
X7274D01*
X7386Y15465D01*
X7472Y15551D01*
X7518Y15663D01*
Y15784D01*
X7472Y15896D01*
X7461Y15907D01*
X7393Y15990D01*
X7461Y16073D01*
X7472Y16084D01*
X7518Y16196D01*
Y16317D01*
X7472Y16429D01*
X7386Y16515D01*
X7274Y16562D01*
D02*
G37*
G36*
X16698Y15185D02*
X16576D01*
X16464Y15138D01*
X16379Y15053D01*
X16332Y14941D01*
Y14819D01*
X16379Y14707D01*
X16464Y14622D01*
X16576Y14575D01*
X16698D01*
X16810Y14622D01*
X16895Y14707D01*
X16942Y14819D01*
Y14941D01*
X16895Y15053D01*
X16810Y15138D01*
X16698Y15185D01*
D02*
G37*
G36*
X12896Y15469D02*
X12775D01*
X12663Y15422D01*
X12577Y15336D01*
X12531Y15224D01*
Y15103D01*
X12577Y14991D01*
X12588Y14980D01*
X12656Y14897D01*
X12588Y14814D01*
X12577Y14803D01*
X12531Y14691D01*
Y14570D01*
X12577Y14458D01*
X12663Y14372D01*
X12775Y14326D01*
X12896D01*
X13008Y14372D01*
X13094Y14458D01*
X13141Y14570D01*
Y14691D01*
X13094Y14803D01*
X13083Y14814D01*
X13015Y14897D01*
X13083Y14980D01*
X13094Y14991D01*
X13141Y15103D01*
Y15224D01*
X13094Y15336D01*
X13008Y15422D01*
X12896Y15469D01*
D02*
G37*
G36*
X3693Y15451D02*
X3572D01*
X3460Y15405D01*
X3374Y15319D01*
X3327Y15207D01*
Y15086D01*
X3374Y14974D01*
X3385Y14963D01*
X3453Y14880D01*
X3385Y14797D01*
X3374Y14786D01*
X3327Y14674D01*
Y14553D01*
X3374Y14441D01*
X3460Y14355D01*
X3572Y14308D01*
X3693D01*
X3805Y14355D01*
X3891Y14441D01*
X3937Y14553D01*
Y14674D01*
X3891Y14786D01*
X3880Y14797D01*
X3812Y14880D01*
X3880Y14963D01*
X3891Y14974D01*
X3937Y15086D01*
Y15207D01*
X3891Y15319D01*
X3805Y15405D01*
X3693Y15451D01*
D02*
G37*
G36*
X20245Y14757D02*
X20124D01*
X20012Y14710D01*
X19926Y14624D01*
X19880Y14512D01*
Y14391D01*
X19926Y14279D01*
X20012Y14193D01*
X20124Y14147D01*
X20245D01*
X20357Y14193D01*
X20419Y14255D01*
X20536Y14253D01*
X20566Y14244D01*
X20643Y14166D01*
X20755Y14120D01*
X20877D01*
X20989Y14166D01*
X21074Y14252D01*
X21121Y14364D01*
Y14485D01*
X21074Y14598D01*
X20989Y14683D01*
X20877Y14730D01*
X20755D01*
X20643Y14683D01*
X20582Y14621D01*
X20465Y14624D01*
X20435Y14632D01*
X20357Y14710D01*
X20245Y14757D01*
D02*
G37*
G36*
X15376Y14452D02*
X15255D01*
X15143Y14405D01*
X15057Y14320D01*
X15011Y14208D01*
Y14086D01*
X15057Y13974D01*
X15143Y13889D01*
X15255Y13842D01*
X15376D01*
X15488Y13889D01*
X15574Y13974D01*
X15620Y14086D01*
Y14208D01*
X15574Y14320D01*
X15488Y14405D01*
X15376Y14452D01*
D02*
G37*
G36*
X28458Y14245D02*
X28337D01*
X28225Y14199D01*
X28139Y14113D01*
X28092Y14001D01*
Y13880D01*
X28139Y13768D01*
X28225Y13682D01*
X28337Y13635D01*
X28458D01*
X28570Y13682D01*
X28656Y13768D01*
X28702Y13880D01*
Y14001D01*
X28656Y14113D01*
X28570Y14199D01*
X28458Y14245D01*
D02*
G37*
G36*
X4683Y13945D02*
X4562D01*
X4450Y13898D01*
X4364Y13812D01*
X4318Y13700D01*
Y13579D01*
X4364Y13467D01*
X4450Y13381D01*
X4562Y13335D01*
X4683D01*
X4795Y13381D01*
X4881Y13467D01*
X4928Y13579D01*
Y13700D01*
X4881Y13812D01*
X4795Y13898D01*
X4683Y13945D01*
D02*
G37*
G36*
X32297Y13785D02*
X32176D01*
X32063Y13739D01*
X31978Y13653D01*
X31931Y13541D01*
Y13420D01*
X31978Y13308D01*
X32063Y13222D01*
X32176Y13175D01*
X32297D01*
X32409Y13222D01*
X32495Y13308D01*
X32541Y13420D01*
Y13541D01*
X32495Y13653D01*
X32409Y13739D01*
X32297Y13785D01*
D02*
G37*
G36*
X31497D02*
X31376D01*
X31264Y13739D01*
X31178Y13653D01*
X31131Y13541D01*
Y13420D01*
X31178Y13308D01*
X31264Y13222D01*
X31376Y13175D01*
X31497D01*
X31609Y13222D01*
X31695Y13308D01*
X31741Y13420D01*
Y13541D01*
X31695Y13653D01*
X31609Y13739D01*
X31497Y13785D01*
D02*
G37*
G36*
X30697D02*
X30576D01*
X30463Y13739D01*
X30378Y13653D01*
X30331Y13541D01*
Y13420D01*
X30378Y13308D01*
X30463Y13222D01*
X30576Y13175D01*
X30697D01*
X30809Y13222D01*
X30895Y13308D01*
X30941Y13420D01*
Y13541D01*
X30895Y13653D01*
X30809Y13739D01*
X30697Y13785D01*
D02*
G37*
G36*
X29097D02*
X28976D01*
X28864Y13739D01*
X28778Y13653D01*
X28731Y13541D01*
Y13420D01*
X28778Y13308D01*
X28864Y13222D01*
X28976Y13175D01*
X29097D01*
X29209Y13222D01*
X29295Y13308D01*
X29341Y13420D01*
Y13541D01*
X29295Y13653D01*
X29209Y13739D01*
X29097Y13785D01*
D02*
G37*
G36*
X25897D02*
X25776D01*
X25663Y13739D01*
X25578Y13653D01*
X25531Y13541D01*
Y13420D01*
X25578Y13308D01*
X25663Y13222D01*
X25776Y13175D01*
X25897D01*
X26009Y13222D01*
X26095Y13308D01*
X26141Y13420D01*
Y13541D01*
X26095Y13653D01*
X26009Y13739D01*
X25897Y13785D01*
D02*
G37*
G36*
X6385Y13701D02*
X6264D01*
X6152Y13655D01*
X6066Y13569D01*
X6020Y13457D01*
Y13336D01*
X6066Y13224D01*
X6077Y13213D01*
X6145Y13130D01*
X6077Y13047D01*
X6066Y13036D01*
X6020Y12924D01*
Y12803D01*
X6066Y12691D01*
X6152Y12605D01*
X6264Y12558D01*
X6385D01*
X6497Y12605D01*
X6583Y12691D01*
X6629Y12803D01*
Y12924D01*
X6583Y13036D01*
X6572Y13047D01*
X6504Y13130D01*
X6572Y13213D01*
X6583Y13224D01*
X6629Y13336D01*
Y13457D01*
X6583Y13569D01*
X6497Y13655D01*
X6385Y13701D01*
D02*
G37*
G36*
X33097Y12985D02*
X32976D01*
X32863Y12939D01*
X32778Y12853D01*
X32731Y12741D01*
Y12620D01*
X32778Y12508D01*
X32863Y12422D01*
X32976Y12375D01*
X33097D01*
X33209Y12422D01*
X33295Y12508D01*
X33341Y12620D01*
Y12741D01*
X33295Y12853D01*
X33209Y12939D01*
X33097Y12985D01*
D02*
G37*
G36*
X32297D02*
X32176D01*
X32063Y12939D01*
X31978Y12853D01*
X31931Y12741D01*
Y12620D01*
X31978Y12508D01*
X32063Y12422D01*
X32176Y12375D01*
X32297D01*
X32409Y12422D01*
X32495Y12508D01*
X32541Y12620D01*
Y12741D01*
X32495Y12853D01*
X32409Y12939D01*
X32297Y12985D01*
D02*
G37*
G36*
X31497D02*
X31376D01*
X31264Y12939D01*
X31178Y12853D01*
X31131Y12741D01*
Y12620D01*
X31178Y12508D01*
X31264Y12422D01*
X31376Y12375D01*
X31497D01*
X31609Y12422D01*
X31695Y12508D01*
X31741Y12620D01*
Y12741D01*
X31695Y12853D01*
X31609Y12939D01*
X31497Y12985D01*
D02*
G37*
G36*
X30697D02*
X30576D01*
X30463Y12939D01*
X30378Y12853D01*
X30331Y12741D01*
Y12620D01*
X30378Y12508D01*
X30463Y12422D01*
X30576Y12375D01*
X30697D01*
X30809Y12422D01*
X30895Y12508D01*
X30941Y12620D01*
Y12741D01*
X30895Y12853D01*
X30809Y12939D01*
X30697Y12985D01*
D02*
G37*
G36*
X29897D02*
X29776D01*
X29663Y12939D01*
X29578Y12853D01*
X29531Y12741D01*
Y12620D01*
X29578Y12508D01*
X29663Y12422D01*
X29776Y12375D01*
X29897D01*
X30009Y12422D01*
X30095Y12508D01*
X30141Y12620D01*
Y12741D01*
X30095Y12853D01*
X30009Y12939D01*
X29897Y12985D01*
D02*
G37*
G36*
X29097D02*
X28976D01*
X28864Y12939D01*
X28778Y12853D01*
X28731Y12741D01*
Y12620D01*
X28778Y12508D01*
X28864Y12422D01*
X28976Y12375D01*
X29097D01*
X29209Y12422D01*
X29295Y12508D01*
X29341Y12620D01*
Y12741D01*
X29295Y12853D01*
X29209Y12939D01*
X29097Y12985D01*
D02*
G37*
G36*
X26697D02*
X26576D01*
X26463Y12939D01*
X26378Y12853D01*
X26331Y12741D01*
Y12620D01*
X26378Y12508D01*
X26463Y12422D01*
X26576Y12375D01*
X26697D01*
X26809Y12422D01*
X26895Y12508D01*
X26941Y12620D01*
Y12741D01*
X26895Y12853D01*
X26809Y12939D01*
X26697Y12985D01*
D02*
G37*
G36*
X25097D02*
X24976D01*
X24864Y12939D01*
X24778Y12853D01*
X24731Y12741D01*
Y12620D01*
X24778Y12508D01*
X24864Y12422D01*
X24976Y12375D01*
X25097D01*
X25209Y12422D01*
X25295Y12508D01*
X25341Y12620D01*
Y12741D01*
X25295Y12853D01*
X25209Y12939D01*
X25097Y12985D01*
D02*
G37*
G36*
X27497Y12985D02*
X27376D01*
X27264Y12939D01*
X27178Y12853D01*
X27131Y12741D01*
Y12620D01*
X27178Y12508D01*
X27264Y12422D01*
X27376Y12375D01*
X27497D01*
X27609Y12422D01*
X27695Y12508D01*
X27741Y12620D01*
Y12741D01*
X27695Y12853D01*
X27609Y12939D01*
X27497Y12985D01*
D02*
G37*
G36*
X3726Y13451D02*
X3605D01*
X3493Y13405D01*
X3407Y13319D01*
X3361Y13207D01*
Y13086D01*
X3407Y12974D01*
X3418Y12963D01*
X3486Y12880D01*
X3418Y12797D01*
X3407Y12786D01*
X3361Y12674D01*
Y12553D01*
X3407Y12441D01*
X3493Y12355D01*
X3605Y12308D01*
X3726D01*
X3838Y12355D01*
X3924Y12441D01*
X3970Y12553D01*
Y12674D01*
X3924Y12786D01*
X3913Y12797D01*
X3845Y12880D01*
X3913Y12963D01*
X3924Y12974D01*
X3970Y13086D01*
Y13207D01*
X3924Y13319D01*
X3838Y13405D01*
X3726Y13451D01*
D02*
G37*
G36*
X13116Y14173D02*
X12995D01*
X12883Y14127D01*
X12797Y14041D01*
X12751Y13929D01*
Y13808D01*
X12797Y13696D01*
X12883Y13610D01*
X12941Y13586D01*
X12896Y13469D01*
X12775Y13469D01*
X12663Y13422D01*
X12577Y13336D01*
X12531Y13224D01*
Y13103D01*
X12577Y12991D01*
X12614Y12955D01*
X12649Y12872D01*
X12614Y12789D01*
X12577Y12752D01*
X12531Y12640D01*
Y12519D01*
X12577Y12407D01*
X12663Y12321D01*
X12775Y12275D01*
X12896D01*
X13008Y12321D01*
X13094Y12407D01*
X13141Y12519D01*
Y12640D01*
X13094Y12752D01*
X13058Y12789D01*
X13023Y12872D01*
X13058Y12955D01*
X13094Y12991D01*
X13141Y13103D01*
Y13224D01*
X13094Y13336D01*
X13008Y13422D01*
X12950Y13446D01*
X12995Y13564D01*
X13116Y13564D01*
X13228Y13610D01*
X13314Y13696D01*
X13360Y13808D01*
Y13929D01*
X13314Y14041D01*
X13228Y14127D01*
X13116Y14173D01*
D02*
G37*
G36*
X21551Y12817D02*
X21430D01*
X21318Y12771D01*
X21232Y12685D01*
X21186Y12573D01*
Y12452D01*
X21232Y12340D01*
X21318Y12254D01*
X21430Y12208D01*
X21551D01*
X21663Y12254D01*
X21749Y12340D01*
X21795Y12452D01*
Y12573D01*
X21749Y12685D01*
X21663Y12771D01*
X21551Y12817D01*
D02*
G37*
G36*
X18785Y12675D02*
X18664D01*
X18552Y12628D01*
X18466Y12542D01*
X18419Y12430D01*
Y12309D01*
X18466Y12197D01*
X18552Y12111D01*
X18664Y12065D01*
X18785D01*
X18897Y12111D01*
X18983Y12197D01*
X19029Y12309D01*
Y12430D01*
X18983Y12542D01*
X18897Y12628D01*
X18785Y12675D01*
D02*
G37*
G36*
X5260Y12665D02*
X5139D01*
X5027Y12619D01*
X4941Y12533D01*
X4894Y12421D01*
Y12299D01*
X4941Y12187D01*
X5027Y12102D01*
X5139Y12055D01*
X5260D01*
X5372Y12102D01*
X5458Y12187D01*
X5504Y12299D01*
Y12421D01*
X5458Y12533D01*
X5372Y12619D01*
X5260Y12665D01*
D02*
G37*
G36*
X23153Y12483D02*
X23032D01*
X22920Y12437D01*
X22834Y12351D01*
X22788Y12239D01*
Y12118D01*
X22834Y12006D01*
X22920Y11920D01*
X23032Y11874D01*
X23153D01*
X23266Y11920D01*
X23351Y12006D01*
X23398Y12118D01*
Y12239D01*
X23351Y12351D01*
X23266Y12437D01*
X23153Y12483D01*
D02*
G37*
G36*
X33097Y12185D02*
X32976D01*
X32863Y12139D01*
X32778Y12053D01*
X32731Y11941D01*
Y11820D01*
X32778Y11708D01*
X32863Y11622D01*
X32976Y11575D01*
X33097D01*
X33209Y11622D01*
X33295Y11708D01*
X33341Y11820D01*
Y11941D01*
X33295Y12053D01*
X33209Y12139D01*
X33097Y12185D01*
D02*
G37*
G36*
X32297D02*
X32176D01*
X32063Y12139D01*
X31978Y12053D01*
X31931Y11941D01*
Y11820D01*
X31978Y11708D01*
X32063Y11622D01*
X32176Y11575D01*
X32297D01*
X32409Y11622D01*
X32495Y11708D01*
X32541Y11820D01*
Y11941D01*
X32495Y12053D01*
X32409Y12139D01*
X32297Y12185D01*
D02*
G37*
G36*
X31497D02*
X31376D01*
X31264Y12139D01*
X31178Y12053D01*
X31131Y11941D01*
Y11820D01*
X31178Y11708D01*
X31264Y11622D01*
X31376Y11575D01*
X31497D01*
X31609Y11622D01*
X31695Y11708D01*
X31741Y11820D01*
Y11941D01*
X31695Y12053D01*
X31609Y12139D01*
X31497Y12185D01*
D02*
G37*
G36*
X30697D02*
X30576D01*
X30463Y12139D01*
X30378Y12053D01*
X30331Y11941D01*
Y11820D01*
X30378Y11708D01*
X30463Y11622D01*
X30576Y11575D01*
X30697D01*
X30809Y11622D01*
X30895Y11708D01*
X30941Y11820D01*
Y11941D01*
X30895Y12053D01*
X30809Y12139D01*
X30697Y12185D01*
D02*
G37*
G36*
X29897D02*
X29776D01*
X29663Y12139D01*
X29578Y12053D01*
X29531Y11941D01*
Y11820D01*
X29578Y11708D01*
X29663Y11622D01*
X29776Y11575D01*
X29897D01*
X30009Y11622D01*
X30095Y11708D01*
X30141Y11820D01*
Y11941D01*
X30095Y12053D01*
X30009Y12139D01*
X29897Y12185D01*
D02*
G37*
G36*
X27497D02*
X27376D01*
X27264Y12139D01*
X27178Y12053D01*
X27131Y11941D01*
Y11820D01*
X27178Y11708D01*
X27264Y11622D01*
X27376Y11575D01*
X27497D01*
X27609Y11622D01*
X27695Y11708D01*
X27741Y11820D01*
Y11941D01*
X27695Y12053D01*
X27609Y12139D01*
X27497Y12185D01*
D02*
G37*
G36*
X26697D02*
X26576D01*
X26463Y12139D01*
X26378Y12053D01*
X26331Y11941D01*
Y11820D01*
X26378Y11708D01*
X26463Y11622D01*
X26576Y11575D01*
X26697D01*
X26809Y11622D01*
X26895Y11708D01*
X26941Y11820D01*
Y11941D01*
X26895Y12053D01*
X26809Y12139D01*
X26697Y12185D01*
D02*
G37*
G36*
X25897D02*
X25776D01*
X25663Y12139D01*
X25578Y12053D01*
X25531Y11941D01*
Y11820D01*
X25578Y11708D01*
X25663Y11622D01*
X25776Y11575D01*
X25897D01*
X26009Y11622D01*
X26095Y11708D01*
X26141Y11820D01*
Y11941D01*
X26095Y12053D01*
X26009Y12139D01*
X25897Y12185D01*
D02*
G37*
G36*
X29097Y12185D02*
X28976D01*
X28864Y12139D01*
X28778Y12053D01*
X28731Y11941D01*
Y11820D01*
X28778Y11708D01*
X28864Y11622D01*
X28976Y11575D01*
X29097D01*
X29209Y11622D01*
X29295Y11708D01*
X29341Y11820D01*
Y11941D01*
X29295Y12053D01*
X29209Y12139D01*
X29097Y12185D01*
D02*
G37*
G36*
X7249Y12360D02*
X7128D01*
X7016Y12313D01*
X6930Y12228D01*
X6883Y12116D01*
Y11994D01*
X6930Y11882D01*
X6941Y11871D01*
X7009Y11788D01*
X6941Y11705D01*
X6930Y11694D01*
X6883Y11582D01*
Y11461D01*
X6930Y11349D01*
X7016Y11263D01*
X7128Y11217D01*
X7249D01*
X7361Y11263D01*
X7447Y11349D01*
X7493Y11461D01*
Y11582D01*
X7447Y11694D01*
X7436Y11705D01*
X7368Y11788D01*
X7436Y11871D01*
X7447Y11882D01*
X7493Y11994D01*
Y12116D01*
X7447Y12228D01*
X7361Y12313D01*
X7249Y12360D01*
D02*
G37*
G36*
X18785Y11404D02*
X18664D01*
X18552Y11358D01*
X18466Y11272D01*
X18419Y11160D01*
Y11039D01*
X18466Y10927D01*
X18552Y10841D01*
X18664Y10795D01*
X18785D01*
X18897Y10841D01*
X18983Y10927D01*
X19029Y11039D01*
Y11160D01*
X18983Y11272D01*
X18897Y11358D01*
X18785Y11404D01*
D02*
G37*
G36*
X31497Y11385D02*
X31376D01*
X31264Y11339D01*
X31178Y11253D01*
X31131Y11141D01*
Y11020D01*
X31178Y10908D01*
X31264Y10822D01*
X31376Y10775D01*
X31497D01*
X31609Y10822D01*
X31695Y10908D01*
X31741Y11020D01*
Y11141D01*
X31695Y11253D01*
X31609Y11339D01*
X31497Y11385D01*
D02*
G37*
G36*
X30697D02*
X30576D01*
X30463Y11339D01*
X30378Y11253D01*
X30331Y11141D01*
Y11020D01*
X30378Y10908D01*
X30463Y10822D01*
X30576Y10775D01*
X30697D01*
X30809Y10822D01*
X30895Y10908D01*
X30941Y11020D01*
Y11141D01*
X30895Y11253D01*
X30809Y11339D01*
X30697Y11385D01*
D02*
G37*
G36*
X29897D02*
X29776D01*
X29663Y11339D01*
X29578Y11253D01*
X29531Y11141D01*
Y11020D01*
X29578Y10908D01*
X29663Y10822D01*
X29776Y10775D01*
X29897D01*
X30009Y10822D01*
X30095Y10908D01*
X30141Y11020D01*
Y11141D01*
X30095Y11253D01*
X30009Y11339D01*
X29897Y11385D01*
D02*
G37*
G36*
X25897D02*
X25776D01*
X25663Y11339D01*
X25578Y11253D01*
X25531Y11141D01*
Y11020D01*
X25578Y10908D01*
X25663Y10822D01*
X25776Y10775D01*
X25897D01*
X26009Y10822D01*
X26095Y10908D01*
X26141Y11020D01*
Y11141D01*
X26095Y11253D01*
X26009Y11339D01*
X25897Y11385D01*
D02*
G37*
G36*
X29097Y11385D02*
X28976D01*
X28864Y11339D01*
X28778Y11253D01*
X28731Y11141D01*
Y11020D01*
X28778Y10908D01*
X28864Y10822D01*
X28976Y10775D01*
X29097D01*
X29209Y10822D01*
X29295Y10908D01*
X29341Y11020D01*
Y11141D01*
X29295Y11253D01*
X29209Y11339D01*
X29097Y11385D01*
D02*
G37*
G36*
X27518Y11354D02*
X27397D01*
X27285Y11307D01*
X27199Y11222D01*
X27152Y11110D01*
Y10988D01*
X27199Y10876D01*
X27285Y10791D01*
X27397Y10744D01*
X27518D01*
X27630Y10791D01*
X27716Y10876D01*
X27762Y10988D01*
Y11110D01*
X27716Y11222D01*
X27630Y11307D01*
X27518Y11354D01*
D02*
G37*
G36*
X3710Y11451D02*
X3588D01*
X3476Y11405D01*
X3391Y11319D01*
X3344Y11207D01*
Y11086D01*
X3391Y10974D01*
X3402Y10963D01*
X3469Y10880D01*
X3402Y10797D01*
X3391Y10786D01*
X3344Y10674D01*
Y10553D01*
X3391Y10441D01*
X3476Y10355D01*
X3588Y10309D01*
X3710D01*
X3822Y10355D01*
X3907Y10441D01*
X3954Y10553D01*
Y10674D01*
X3907Y10786D01*
X3896Y10797D01*
X3828Y10880D01*
X3896Y10963D01*
X3907Y10974D01*
X3954Y11086D01*
Y11207D01*
X3907Y11319D01*
X3822Y11405D01*
X3710Y11451D01*
D02*
G37*
G36*
X11404Y10735D02*
X11283D01*
X11171Y10689D01*
X11085Y10603D01*
X11039Y10491D01*
Y10370D01*
X11085Y10258D01*
X11171Y10172D01*
X11283Y10126D01*
X11404D01*
X11516Y10172D01*
X11602Y10258D01*
X11648Y10370D01*
Y10491D01*
X11602Y10603D01*
X11516Y10689D01*
X11404Y10735D01*
D02*
G37*
G36*
X29097Y10585D02*
X28976D01*
X28864Y10539D01*
X28778Y10453D01*
X28731Y10341D01*
Y10220D01*
X28778Y10108D01*
X28864Y10022D01*
X28976Y9975D01*
X29097D01*
X29209Y10022D01*
X29295Y10108D01*
X29341Y10220D01*
Y10341D01*
X29295Y10453D01*
X29209Y10539D01*
X29097Y10585D01*
D02*
G37*
G36*
X33097Y10585D02*
X32976D01*
X32863Y10539D01*
X32778Y10453D01*
X32731Y10341D01*
Y10220D01*
X32778Y10108D01*
X32863Y10022D01*
X32976Y9975D01*
X33097D01*
X33209Y10022D01*
X33295Y10108D01*
X33341Y10220D01*
Y10341D01*
X33295Y10453D01*
X33209Y10539D01*
X33097Y10585D01*
D02*
G37*
G36*
X32297D02*
X32176D01*
X32063Y10539D01*
X31978Y10453D01*
X31931Y10341D01*
Y10220D01*
X31978Y10108D01*
X32063Y10022D01*
X32176Y9975D01*
X32297D01*
X32409Y10022D01*
X32495Y10108D01*
X32541Y10220D01*
Y10341D01*
X32495Y10453D01*
X32409Y10539D01*
X32297Y10585D01*
D02*
G37*
G36*
X31497D02*
X31376D01*
X31264Y10539D01*
X31178Y10453D01*
X31131Y10341D01*
Y10220D01*
X31178Y10108D01*
X31264Y10022D01*
X31376Y9975D01*
X31497D01*
X31609Y10022D01*
X31695Y10108D01*
X31741Y10220D01*
Y10341D01*
X31695Y10453D01*
X31609Y10539D01*
X31497Y10585D01*
D02*
G37*
G36*
X30697D02*
X30576D01*
X30463Y10539D01*
X30378Y10453D01*
X30331Y10341D01*
Y10220D01*
X30378Y10108D01*
X30463Y10022D01*
X30576Y9975D01*
X30697D01*
X30809Y10022D01*
X30895Y10108D01*
X30941Y10220D01*
Y10341D01*
X30895Y10453D01*
X30809Y10539D01*
X30697Y10585D01*
D02*
G37*
G36*
X29897D02*
X29776D01*
X29663Y10539D01*
X29578Y10453D01*
X29531Y10341D01*
Y10220D01*
X29578Y10108D01*
X29663Y10022D01*
X29776Y9975D01*
X29897D01*
X30009Y10022D01*
X30095Y10108D01*
X30141Y10220D01*
Y10341D01*
X30095Y10453D01*
X30009Y10539D01*
X29897Y10585D01*
D02*
G37*
G36*
X25897D02*
X25776D01*
X25663Y10539D01*
X25578Y10453D01*
X25531Y10341D01*
Y10220D01*
X25578Y10108D01*
X25663Y10022D01*
X25776Y9975D01*
X25897D01*
X26009Y10022D01*
X26095Y10108D01*
X26141Y10220D01*
Y10341D01*
X26095Y10453D01*
X26009Y10539D01*
X25897Y10585D01*
D02*
G37*
G36*
X24297D02*
X24176D01*
X24063Y10539D01*
X23978Y10453D01*
X23931Y10341D01*
Y10220D01*
X23978Y10108D01*
X24063Y10022D01*
X24176Y9975D01*
X24297D01*
X24409Y10022D01*
X24495Y10108D01*
X24541Y10220D01*
Y10341D01*
X24495Y10453D01*
X24409Y10539D01*
X24297Y10585D01*
D02*
G37*
G36*
X19949D02*
X19828D01*
X19716Y10539D01*
X19630Y10453D01*
X19583Y10341D01*
Y10220D01*
X19630Y10108D01*
X19716Y10022D01*
X19828Y9975D01*
X19949D01*
X20061Y10022D01*
X20147Y10108D01*
X20193Y10220D01*
Y10341D01*
X20147Y10453D01*
X20061Y10539D01*
X19949Y10585D01*
D02*
G37*
G36*
X6773Y11035D02*
X6651D01*
X6539Y10988D01*
X6454Y10903D01*
X6407Y10791D01*
Y10669D01*
X6454Y10557D01*
X6539Y10472D01*
X6588Y10452D01*
Y10314D01*
X6526Y10288D01*
X6440Y10203D01*
X6394Y10091D01*
Y9969D01*
X6440Y9857D01*
X6526Y9772D01*
X6638Y9725D01*
X6759D01*
X6871Y9772D01*
X6957Y9857D01*
X7003Y9969D01*
Y10091D01*
X6957Y10203D01*
X6871Y10288D01*
X6823Y10308D01*
Y10446D01*
X6885Y10472D01*
X6970Y10557D01*
X7017Y10669D01*
Y10791D01*
X6970Y10903D01*
X6885Y10988D01*
X6773Y11035D01*
D02*
G37*
G36*
X18785Y10134D02*
X18664D01*
X18552Y10088D01*
X18466Y10002D01*
X18419Y9890D01*
Y9769D01*
X18466Y9657D01*
X18552Y9571D01*
X18664Y9525D01*
X18785D01*
X18897Y9571D01*
X18983Y9657D01*
X19029Y9769D01*
Y9890D01*
X18983Y10002D01*
X18897Y10088D01*
X18785Y10134D01*
D02*
G37*
G36*
X25897Y9785D02*
X25776D01*
X25663Y9739D01*
X25578Y9653D01*
X25531Y9541D01*
Y9420D01*
X25578Y9308D01*
X25663Y9222D01*
X25776Y9175D01*
X25897D01*
X26009Y9222D01*
X26095Y9308D01*
X26141Y9420D01*
Y9541D01*
X26095Y9653D01*
X26009Y9739D01*
X25897Y9785D01*
D02*
G37*
G36*
X32297Y8985D02*
X32176D01*
X32063Y8939D01*
X31978Y8853D01*
X31931Y8741D01*
Y8620D01*
X31978Y8508D01*
X32063Y8422D01*
X32176Y8375D01*
X32297D01*
X32409Y8422D01*
X32495Y8508D01*
X32541Y8620D01*
Y8741D01*
X32495Y8853D01*
X32409Y8939D01*
X32297Y8985D01*
D02*
G37*
G36*
X31497D02*
X31376D01*
X31264Y8939D01*
X31178Y8853D01*
X31131Y8741D01*
Y8620D01*
X31178Y8508D01*
X31264Y8422D01*
X31376Y8375D01*
X31497D01*
X31609Y8422D01*
X31695Y8508D01*
X31741Y8620D01*
Y8741D01*
X31695Y8853D01*
X31609Y8939D01*
X31497Y8985D01*
D02*
G37*
G36*
X29897D02*
X29776D01*
X29663Y8939D01*
X29578Y8853D01*
X29531Y8741D01*
Y8620D01*
X29578Y8508D01*
X29663Y8422D01*
X29776Y8375D01*
X29897D01*
X30009Y8422D01*
X30095Y8508D01*
X30141Y8620D01*
Y8741D01*
X30095Y8853D01*
X30009Y8939D01*
X29897Y8985D01*
D02*
G37*
G36*
X29097D02*
X28976D01*
X28864Y8939D01*
X28778Y8853D01*
X28731Y8741D01*
Y8620D01*
X28778Y8508D01*
X28864Y8422D01*
X28976Y8375D01*
X29097D01*
X29209Y8422D01*
X29295Y8508D01*
X29341Y8620D01*
Y8741D01*
X29295Y8853D01*
X29209Y8939D01*
X29097Y8985D01*
D02*
G37*
G36*
X25897D02*
X25776D01*
X25663Y8939D01*
X25578Y8853D01*
X25531Y8741D01*
Y8620D01*
X25578Y8508D01*
X25663Y8422D01*
X25776Y8375D01*
X25897D01*
X26009Y8422D01*
X26095Y8508D01*
X26141Y8620D01*
Y8741D01*
X26095Y8853D01*
X26009Y8939D01*
X25897Y8985D01*
D02*
G37*
G36*
X25097D02*
X24976D01*
X24864Y8939D01*
X24778Y8853D01*
X24731Y8741D01*
Y8620D01*
X24778Y8508D01*
X24864Y8422D01*
X24976Y8375D01*
X25097D01*
X25209Y8422D01*
X25295Y8508D01*
X25341Y8620D01*
Y8741D01*
X25295Y8853D01*
X25209Y8939D01*
X25097Y8985D01*
D02*
G37*
G36*
X3776Y9952D02*
X3636D01*
X3507Y9898D01*
X3408Y9799D01*
X3355Y9670D01*
Y9530D01*
X3408Y9401D01*
X3507Y9302D01*
X3636Y9248D01*
X3776D01*
X3780Y9250D01*
X3860Y9203D01*
X3899Y9162D01*
Y8780D01*
X3906Y8730D01*
X3899Y8680D01*
X3921Y8510D01*
X3987Y8351D01*
X4091Y8215D01*
X4228Y8111D01*
X4386Y8045D01*
X4556Y8023D01*
X5556D01*
X5726Y8045D01*
X5885Y8111D01*
X6021Y8215D01*
X6125Y8351D01*
X6191Y8510D01*
X6213Y8680D01*
X6191Y8850D01*
X6125Y9009D01*
X6021Y9145D01*
X5885Y9249D01*
X5726Y9315D01*
X5556Y9337D01*
X5193D01*
X5191Y9350D01*
X5125Y9509D01*
X5021Y9645D01*
X4885Y9749D01*
X4726Y9815D01*
X4556Y9837D01*
X4386Y9815D01*
X4228Y9749D01*
X4175Y9709D01*
X4024Y9753D01*
X4004Y9799D01*
X3905Y9898D01*
X3776Y9952D01*
D02*
G37*
G36*
X29097Y8185D02*
X28976D01*
X28864Y8139D01*
X28778Y8053D01*
X28731Y7941D01*
Y7820D01*
X28778Y7708D01*
X28864Y7622D01*
X28976Y7575D01*
X29097D01*
X29209Y7622D01*
X29295Y7708D01*
X29341Y7820D01*
Y7941D01*
X29295Y8053D01*
X29209Y8139D01*
X29097Y8185D01*
D02*
G37*
G36*
X33097Y8185D02*
X32976D01*
X32863Y8139D01*
X32778Y8053D01*
X32731Y7941D01*
Y7820D01*
X32778Y7708D01*
X32863Y7622D01*
X32976Y7575D01*
X33097D01*
X33209Y7622D01*
X33295Y7708D01*
X33341Y7820D01*
Y7941D01*
X33295Y8053D01*
X33209Y8139D01*
X33097Y8185D01*
D02*
G37*
G36*
X31497D02*
X31376D01*
X31264Y8139D01*
X31178Y8053D01*
X31131Y7941D01*
Y7820D01*
X31178Y7708D01*
X31264Y7622D01*
X31376Y7575D01*
X31497D01*
X31609Y7622D01*
X31695Y7708D01*
X31741Y7820D01*
Y7941D01*
X31695Y8053D01*
X31609Y8139D01*
X31497Y8185D01*
D02*
G37*
G36*
X30697D02*
X30576D01*
X30463Y8139D01*
X30378Y8053D01*
X30331Y7941D01*
Y7820D01*
X30378Y7708D01*
X30463Y7622D01*
X30576Y7575D01*
X30697D01*
X30809Y7622D01*
X30895Y7708D01*
X30941Y7820D01*
Y7941D01*
X30895Y8053D01*
X30809Y8139D01*
X30697Y8185D01*
D02*
G37*
G36*
X28297D02*
X28176D01*
X28063Y8139D01*
X27978Y8053D01*
X27931Y7941D01*
Y7820D01*
X27978Y7708D01*
X28063Y7622D01*
X28176Y7575D01*
X28297D01*
X28409Y7622D01*
X28495Y7708D01*
X28541Y7820D01*
Y7941D01*
X28495Y8053D01*
X28409Y8139D01*
X28297Y8185D01*
D02*
G37*
G36*
X26697D02*
X26576D01*
X26463Y8139D01*
X26378Y8053D01*
X26331Y7941D01*
Y7820D01*
X26378Y7708D01*
X26463Y7622D01*
X26576Y7575D01*
X26697D01*
X26809Y7622D01*
X26895Y7708D01*
X26941Y7820D01*
Y7941D01*
X26895Y8053D01*
X26809Y8139D01*
X26697Y8185D01*
D02*
G37*
G36*
X25897D02*
X25776D01*
X25663Y8139D01*
X25578Y8053D01*
X25531Y7941D01*
Y7820D01*
X25578Y7708D01*
X25663Y7622D01*
X25776Y7575D01*
X25897D01*
X26009Y7622D01*
X26095Y7708D01*
X26141Y7820D01*
Y7941D01*
X26095Y8053D01*
X26009Y8139D01*
X25897Y8185D01*
D02*
G37*
G36*
X25097D02*
X24976D01*
X24864Y8139D01*
X24778Y8053D01*
X24731Y7941D01*
Y7820D01*
X24778Y7708D01*
X24864Y7622D01*
X24976Y7575D01*
X25097D01*
X25209Y7622D01*
X25295Y7708D01*
X25341Y7820D01*
Y7941D01*
X25295Y8053D01*
X25209Y8139D01*
X25097Y8185D01*
D02*
G37*
G36*
X31497Y7385D02*
X31376D01*
X31264Y7339D01*
X31178Y7253D01*
X31131Y7141D01*
Y7020D01*
X31178Y6908D01*
X31264Y6822D01*
X31376Y6775D01*
X31497D01*
X31609Y6822D01*
X31695Y6908D01*
X31741Y7020D01*
Y7141D01*
X31695Y7253D01*
X31609Y7339D01*
X31497Y7385D01*
D02*
G37*
G36*
X30697D02*
X30576D01*
X30463Y7339D01*
X30378Y7253D01*
X30331Y7141D01*
Y7020D01*
X30378Y6908D01*
X30463Y6822D01*
X30576Y6775D01*
X30697D01*
X30809Y6822D01*
X30895Y6908D01*
X30941Y7020D01*
Y7141D01*
X30895Y7253D01*
X30809Y7339D01*
X30697Y7385D01*
D02*
G37*
G36*
X29097D02*
X28976D01*
X28864Y7339D01*
X28778Y7253D01*
X28731Y7141D01*
Y7020D01*
X28778Y6908D01*
X28864Y6822D01*
X28976Y6775D01*
X29097D01*
X29209Y6822D01*
X29295Y6908D01*
X29341Y7020D01*
Y7141D01*
X29295Y7253D01*
X29209Y7339D01*
X29097Y7385D01*
D02*
G37*
G36*
X28297D02*
X28176D01*
X28063Y7339D01*
X27978Y7253D01*
X27931Y7141D01*
Y7020D01*
X27978Y6908D01*
X28063Y6822D01*
X28176Y6775D01*
X28297D01*
X28409Y6822D01*
X28495Y6908D01*
X28541Y7020D01*
Y7141D01*
X28495Y7253D01*
X28409Y7339D01*
X28297Y7385D01*
D02*
G37*
G36*
X26697D02*
X26576D01*
X26463Y7339D01*
X26378Y7253D01*
X26331Y7141D01*
Y7020D01*
X26378Y6908D01*
X26463Y6822D01*
X26576Y6775D01*
X26697D01*
X26809Y6822D01*
X26895Y6908D01*
X26941Y7020D01*
Y7141D01*
X26895Y7253D01*
X26809Y7339D01*
X26697Y7385D01*
D02*
G37*
G36*
X17968D02*
X17846D01*
X17734Y7339D01*
X17649Y7253D01*
X17602Y7141D01*
Y7020D01*
X17649Y6908D01*
X17734Y6822D01*
X17846Y6775D01*
X17968D01*
X18080Y6822D01*
X18165Y6908D01*
X18212Y7020D01*
Y7141D01*
X18165Y7253D01*
X18080Y7339D01*
X17968Y7385D01*
D02*
G37*
G36*
X15376D02*
X15255D01*
X15143Y7339D01*
X15057Y7253D01*
X15011Y7141D01*
Y7020D01*
X15057Y6908D01*
X15143Y6822D01*
X15255Y6775D01*
X15376D01*
X15488Y6822D01*
X15574Y6908D01*
X15620Y7020D01*
Y7141D01*
X15574Y7253D01*
X15488Y7339D01*
X15376Y7385D01*
D02*
G37*
G36*
X11646Y7331D02*
X11525D01*
X11413Y7284D01*
X11327Y7199D01*
X11280Y7087D01*
Y6965D01*
X11327Y6853D01*
X11413Y6768D01*
X11525Y6721D01*
X11646D01*
X11758Y6768D01*
X11844Y6853D01*
X11890Y6965D01*
Y7087D01*
X11844Y7199D01*
X11758Y7284D01*
X11646Y7331D01*
D02*
G37*
G36*
X20406Y7315D02*
X20285D01*
X20173Y7269D01*
X20087Y7183D01*
X20041Y7071D01*
Y6950D01*
X20087Y6838D01*
X20173Y6752D01*
X20285Y6706D01*
X20406D01*
X20518Y6752D01*
X20604Y6838D01*
X20650Y6950D01*
Y7071D01*
X20604Y7183D01*
X20518Y7269D01*
X20406Y7315D01*
D02*
G37*
G36*
X18679Y7061D02*
X18558D01*
X18446Y7015D01*
X18360Y6929D01*
X18313Y6817D01*
Y6696D01*
X18360Y6584D01*
X18446Y6498D01*
X18558Y6452D01*
X18679D01*
X18791Y6498D01*
X18877Y6584D01*
X18923Y6696D01*
Y6817D01*
X18877Y6929D01*
X18791Y7015D01*
X18679Y7061D01*
D02*
G37*
G36*
X23352Y6883D02*
X23231D01*
X23119Y6837D01*
X23033Y6751D01*
X22987Y6639D01*
Y6518D01*
X23033Y6406D01*
X23119Y6320D01*
X23231Y6274D01*
X23352D01*
X23464Y6320D01*
X23550Y6406D01*
X23597Y6518D01*
Y6639D01*
X23550Y6751D01*
X23464Y6837D01*
X23352Y6883D01*
D02*
G37*
G36*
X27497Y6585D02*
X27376D01*
X27264Y6539D01*
X27178Y6453D01*
X27131Y6341D01*
Y6220D01*
X27178Y6108D01*
X27264Y6022D01*
X27376Y5975D01*
X27497D01*
X27609Y6022D01*
X27695Y6108D01*
X27741Y6220D01*
Y6341D01*
X27695Y6453D01*
X27609Y6539D01*
X27497Y6585D01*
D02*
G37*
G36*
X31497Y6585D02*
X31376D01*
X31264Y6539D01*
X31178Y6453D01*
X31131Y6341D01*
Y6220D01*
X31178Y6108D01*
X31264Y6022D01*
X31376Y5975D01*
X31497D01*
X31609Y6022D01*
X31695Y6108D01*
X31741Y6220D01*
Y6341D01*
X31695Y6453D01*
X31609Y6539D01*
X31497Y6585D01*
D02*
G37*
G36*
X30697D02*
X30576D01*
X30463Y6539D01*
X30378Y6453D01*
X30331Y6341D01*
Y6220D01*
X30378Y6108D01*
X30463Y6022D01*
X30576Y5975D01*
X30697D01*
X30809Y6022D01*
X30895Y6108D01*
X30941Y6220D01*
Y6341D01*
X30895Y6453D01*
X30809Y6539D01*
X30697Y6585D01*
D02*
G37*
G36*
X29897D02*
X29776D01*
X29663Y6539D01*
X29578Y6453D01*
X29531Y6341D01*
Y6220D01*
X29578Y6108D01*
X29663Y6022D01*
X29776Y5975D01*
X29897D01*
X30009Y6022D01*
X30095Y6108D01*
X30141Y6220D01*
Y6341D01*
X30095Y6453D01*
X30009Y6539D01*
X29897Y6585D01*
D02*
G37*
G36*
X29097D02*
X28976D01*
X28864Y6539D01*
X28778Y6453D01*
X28731Y6341D01*
Y6220D01*
X28778Y6108D01*
X28864Y6022D01*
X28976Y5975D01*
X29097D01*
X29209Y6022D01*
X29295Y6108D01*
X29341Y6220D01*
Y6341D01*
X29295Y6453D01*
X29209Y6539D01*
X29097Y6585D01*
D02*
G37*
G36*
X25897D02*
X25776D01*
X25663Y6539D01*
X25578Y6453D01*
X25531Y6341D01*
Y6220D01*
X25578Y6108D01*
X25663Y6022D01*
X25776Y5975D01*
X25897D01*
X26009Y6022D01*
X26095Y6108D01*
X26141Y6220D01*
Y6341D01*
X26095Y6453D01*
X26009Y6539D01*
X25897Y6585D01*
D02*
G37*
G36*
X25097D02*
X24976D01*
X24864Y6539D01*
X24778Y6453D01*
X24731Y6341D01*
Y6220D01*
X24778Y6108D01*
X24864Y6022D01*
X24976Y5975D01*
X25097D01*
X25209Y6022D01*
X25295Y6108D01*
X25341Y6220D01*
Y6341D01*
X25295Y6453D01*
X25209Y6539D01*
X25097Y6585D01*
D02*
G37*
G36*
X20304Y6518D02*
X20183D01*
X20071Y6472D01*
X19985Y6386D01*
X19939Y6274D01*
Y6153D01*
X19985Y6040D01*
X20071Y5955D01*
X20183Y5908D01*
X20304D01*
X20416Y5955D01*
X20502Y6040D01*
X20549Y6153D01*
Y6274D01*
X20502Y6386D01*
X20416Y6472D01*
X20304Y6518D01*
D02*
G37*
G36*
X17790Y6481D02*
X17669D01*
X17557Y6434D01*
X17471Y6349D01*
X17424Y6237D01*
Y6115D01*
X17471Y6003D01*
X17557Y5918D01*
X17669Y5871D01*
X17790D01*
X17902Y5918D01*
X17988Y6003D01*
X18034Y6115D01*
Y6237D01*
X17988Y6349D01*
X17902Y6434D01*
X17790Y6481D01*
D02*
G37*
G36*
X16901D02*
X16780D01*
X16668Y6434D01*
X16582Y6349D01*
X16535Y6237D01*
Y6115D01*
X16582Y6003D01*
X16668Y5918D01*
X16780Y5871D01*
X16901D01*
X17013Y5918D01*
X17099Y6003D01*
X17145Y6115D01*
Y6237D01*
X17099Y6349D01*
X17013Y6434D01*
X16901Y6481D01*
D02*
G37*
G36*
X623Y6105D02*
X502D01*
X390Y6058D01*
X304Y5973D01*
X258Y5861D01*
Y5739D01*
X304Y5627D01*
X390Y5542D01*
X502Y5495D01*
X623D01*
X735Y5542D01*
X821Y5627D01*
X867Y5739D01*
Y5861D01*
X821Y5973D01*
X735Y6058D01*
X623Y6105D01*
D02*
G37*
G36*
X15834Y6045D02*
X15713D01*
X15601Y5999D01*
X15515Y5913D01*
X15469Y5801D01*
Y5680D01*
X15515Y5568D01*
X15601Y5482D01*
X15713Y5436D01*
X15834D01*
X15946Y5482D01*
X16032Y5568D01*
X16078Y5680D01*
Y5801D01*
X16032Y5913D01*
X15946Y5999D01*
X15834Y6045D01*
D02*
G37*
G36*
X10413Y6020D02*
X10291D01*
X10179Y5973D01*
X10094Y5888D01*
X10047Y5776D01*
Y5654D01*
X10094Y5542D01*
X10179Y5457D01*
X10291Y5410D01*
X10413D01*
X10525Y5457D01*
X10610Y5542D01*
X10657Y5654D01*
Y5776D01*
X10610Y5888D01*
X10525Y5973D01*
X10413Y6020D01*
D02*
G37*
G36*
X7467Y5969D02*
X7345D01*
X7233Y5923D01*
X7148Y5837D01*
X7101Y5725D01*
Y5604D01*
X7148Y5492D01*
X7233Y5406D01*
X7345Y5359D01*
X7467D01*
X7579Y5406D01*
X7664Y5492D01*
X7711Y5604D01*
Y5725D01*
X7664Y5837D01*
X7579Y5923D01*
X7467Y5969D01*
D02*
G37*
G36*
X32297Y5785D02*
X32176D01*
X32063Y5739D01*
X31978Y5653D01*
X31931Y5541D01*
Y5420D01*
X31978Y5308D01*
X32063Y5222D01*
X32176Y5175D01*
X32297D01*
X32409Y5222D01*
X32495Y5308D01*
X32541Y5420D01*
Y5541D01*
X32495Y5653D01*
X32409Y5739D01*
X32297Y5785D01*
D02*
G37*
G36*
X31497D02*
X31376D01*
X31264Y5739D01*
X31178Y5653D01*
X31131Y5541D01*
Y5420D01*
X31178Y5308D01*
X31264Y5222D01*
X31376Y5175D01*
X31497D01*
X31609Y5222D01*
X31695Y5308D01*
X31741Y5420D01*
Y5541D01*
X31695Y5653D01*
X31609Y5739D01*
X31497Y5785D01*
D02*
G37*
G36*
X30697D02*
X30576D01*
X30463Y5739D01*
X30378Y5653D01*
X30331Y5541D01*
Y5420D01*
X30378Y5308D01*
X30463Y5222D01*
X30576Y5175D01*
X30697D01*
X30809Y5222D01*
X30895Y5308D01*
X30941Y5420D01*
Y5541D01*
X30895Y5653D01*
X30809Y5739D01*
X30697Y5785D01*
D02*
G37*
G36*
X29897D02*
X29776D01*
X29663Y5739D01*
X29578Y5653D01*
X29531Y5541D01*
Y5420D01*
X29578Y5308D01*
X29663Y5222D01*
X29776Y5175D01*
X29897D01*
X30009Y5222D01*
X30095Y5308D01*
X30141Y5420D01*
Y5541D01*
X30095Y5653D01*
X30009Y5739D01*
X29897Y5785D01*
D02*
G37*
G36*
X25897D02*
X25776D01*
X25663Y5739D01*
X25578Y5653D01*
X25531Y5541D01*
Y5420D01*
X25578Y5308D01*
X25663Y5222D01*
X25776Y5175D01*
X25897D01*
X26009Y5222D01*
X26095Y5308D01*
X26141Y5420D01*
Y5541D01*
X26095Y5653D01*
X26009Y5739D01*
X25897Y5785D01*
D02*
G37*
G36*
X28297Y5785D02*
X28176D01*
X28063Y5739D01*
X27978Y5653D01*
X27931Y5541D01*
Y5420D01*
X27978Y5308D01*
X28063Y5222D01*
X28176Y5175D01*
X28297D01*
X28409Y5222D01*
X28495Y5308D01*
X28541Y5420D01*
Y5541D01*
X28495Y5653D01*
X28409Y5739D01*
X28297Y5785D01*
D02*
G37*
G36*
X20146Y5699D02*
X20025D01*
X19913Y5652D01*
X19827Y5567D01*
X19781Y5455D01*
Y5333D01*
X19827Y5221D01*
X19913Y5136D01*
X20025Y5089D01*
X20146D01*
X20258Y5136D01*
X20344Y5221D01*
X20391Y5333D01*
Y5455D01*
X20344Y5567D01*
X20258Y5652D01*
X20146Y5699D01*
D02*
G37*
G36*
X17790Y5626D02*
X17669D01*
X17557Y5579D01*
X17471Y5493D01*
X17424Y5381D01*
Y5260D01*
X17471Y5148D01*
X17557Y5062D01*
X17669Y5016D01*
X17790D01*
X17902Y5062D01*
X17988Y5148D01*
X18034Y5260D01*
Y5381D01*
X17988Y5493D01*
X17902Y5579D01*
X17790Y5626D01*
D02*
G37*
G36*
X16901D02*
X16780D01*
X16668Y5579D01*
X16582Y5493D01*
X16535Y5381D01*
Y5260D01*
X16582Y5148D01*
X16668Y5062D01*
X16780Y5016D01*
X16901D01*
X17013Y5062D01*
X17099Y5148D01*
X17145Y5260D01*
Y5381D01*
X17099Y5493D01*
X17013Y5579D01*
X16901Y5626D01*
D02*
G37*
G36*
X623Y5141D02*
X502D01*
X390Y5095D01*
X304Y5009D01*
X258Y4897D01*
Y4776D01*
X304Y4664D01*
X390Y4578D01*
X502Y4531D01*
X623D01*
X735Y4578D01*
X821Y4664D01*
X867Y4776D01*
Y4897D01*
X821Y5009D01*
X735Y5095D01*
X623Y5141D01*
D02*
G37*
G36*
X10413Y4784D02*
X10291D01*
X10179Y4737D01*
X10094Y4652D01*
X10047Y4540D01*
Y4418D01*
X10094Y4306D01*
X10179Y4221D01*
X10291Y4174D01*
X10413D01*
X10525Y4221D01*
X10610Y4306D01*
X10657Y4418D01*
Y4540D01*
X10610Y4652D01*
X10525Y4737D01*
X10413Y4784D01*
D02*
G37*
G36*
X17790Y4770D02*
X17669D01*
X17557Y4724D01*
X17471Y4638D01*
X17424Y4526D01*
Y4405D01*
X17471Y4293D01*
X17557Y4207D01*
X17669Y4161D01*
X17790D01*
X17902Y4207D01*
X17988Y4293D01*
X18034Y4405D01*
Y4526D01*
X17988Y4638D01*
X17902Y4724D01*
X17790Y4770D01*
D02*
G37*
G36*
X16901D02*
X16780D01*
X16668Y4724D01*
X16582Y4638D01*
X16535Y4526D01*
Y4405D01*
X16582Y4293D01*
X16668Y4207D01*
X16780Y4161D01*
X16901D01*
X17013Y4207D01*
X17099Y4293D01*
X17145Y4405D01*
Y4526D01*
X17099Y4638D01*
X17013Y4724D01*
X16901Y4770D01*
D02*
G37*
G36*
X7467Y4692D02*
X7345D01*
X7233Y4646D01*
X7148Y4560D01*
X7101Y4448D01*
Y4327D01*
X7148Y4215D01*
X7233Y4129D01*
X7345Y4083D01*
X7467D01*
X7579Y4129D01*
X7664Y4215D01*
X7711Y4327D01*
Y4448D01*
X7664Y4560D01*
X7579Y4646D01*
X7467Y4692D01*
D02*
G37*
G36*
X623Y4177D02*
X502D01*
X390Y4131D01*
X304Y4045D01*
X258Y3933D01*
Y3812D01*
X304Y3700D01*
X390Y3614D01*
X502Y3568D01*
X623D01*
X735Y3614D01*
X821Y3700D01*
X867Y3812D01*
Y3933D01*
X821Y4045D01*
X735Y4131D01*
X623Y4177D01*
D02*
G37*
G36*
X17790Y3915D02*
X17669D01*
X17557Y3869D01*
X17471Y3783D01*
X17424Y3671D01*
Y3550D01*
X17471Y3438D01*
X17557Y3352D01*
X17669Y3306D01*
X17790D01*
X17902Y3352D01*
X17988Y3438D01*
X18034Y3550D01*
Y3671D01*
X17988Y3783D01*
X17902Y3869D01*
X17790Y3915D01*
D02*
G37*
G36*
X9906Y2101D02*
X9671Y2055D01*
X9472Y1922D01*
X9349Y1738D01*
X9281Y1730D01*
X9213Y1738D01*
X9090Y1922D01*
X8891Y2055D01*
X8656Y2101D01*
X8421Y2055D01*
X8222Y1922D01*
X8099Y1738D01*
X8031Y1730D01*
X7963Y1738D01*
X7840Y1922D01*
X7641Y2055D01*
X7406Y2101D01*
X7171Y2055D01*
X6972Y1922D01*
X6849Y1738D01*
X6781Y1730D01*
X6713Y1738D01*
X6590Y1922D01*
X6391Y2055D01*
X6156Y2101D01*
X5921Y2055D01*
X5722Y1922D01*
X5589Y1723D01*
X5543Y1488D01*
Y988D01*
X5589Y753D01*
X5722Y554D01*
X5921Y421D01*
X6156Y375D01*
X6391Y421D01*
X6590Y554D01*
X6713Y738D01*
X6781Y746D01*
X6849Y738D01*
X6972Y554D01*
X7171Y421D01*
X7406Y375D01*
X7641Y421D01*
X7840Y554D01*
X7963Y738D01*
X8031Y746D01*
X8099Y738D01*
X8222Y554D01*
X8421Y421D01*
X8656Y375D01*
X8891Y421D01*
X9090Y554D01*
X9213Y738D01*
X9281Y746D01*
X9349Y738D01*
X9472Y554D01*
X9671Y421D01*
X9906Y375D01*
X10141Y421D01*
X10340Y554D01*
X10473Y753D01*
X10519Y988D01*
Y1488D01*
X10473Y1723D01*
X10340Y1922D01*
X10141Y2055D01*
X9906Y2101D01*
D02*
G37*
G36*
X12051Y3553D02*
X11929D01*
X11817Y3506D01*
X11732Y3420D01*
X11685Y3308D01*
Y3187D01*
X11732Y3075D01*
X11817Y2989D01*
X11861Y2971D01*
Y2834D01*
X11811Y2813D01*
X11725Y2727D01*
X11679Y2615D01*
Y2494D01*
X11725Y2382D01*
X11811Y2296D01*
X11850Y2280D01*
Y2143D01*
X11812Y2127D01*
X11726Y2041D01*
X11680Y1929D01*
Y1808D01*
X11726Y1696D01*
X11812Y1610D01*
X11924Y1564D01*
X12045D01*
X12157Y1610D01*
X12243Y1696D01*
X12290Y1808D01*
Y1929D01*
X12243Y2041D01*
X12157Y2127D01*
X12119Y2143D01*
Y2281D01*
X12157Y2296D01*
X12242Y2382D01*
X12289Y2494D01*
Y2615D01*
X12242Y2727D01*
X12157Y2813D01*
X12113Y2831D01*
Y2969D01*
X12163Y2989D01*
X12248Y3075D01*
X12295Y3187D01*
Y3308D01*
X12248Y3420D01*
X12163Y3506D01*
X12051Y3553D01*
D02*
G37*
G36*
X2658Y3302D02*
X2342D01*
X2036Y3220D01*
X1762Y3062D01*
X1538Y2838D01*
X1380Y2564D01*
X1298Y2258D01*
Y1942D01*
X1380Y1636D01*
X1538Y1362D01*
X1762Y1138D01*
X2036Y980D01*
X2342Y898D01*
X2658D01*
X2964Y980D01*
X3238Y1138D01*
X3462Y1362D01*
X3620Y1636D01*
X3702Y1942D01*
Y2258D01*
X3620Y2564D01*
X3462Y2838D01*
X3238Y3062D01*
X2964Y3220D01*
X2658Y3302D01*
D02*
G37*
G36*
X21584Y1162D02*
X21463D01*
X21351Y1116D01*
X21265Y1030D01*
X21219Y918D01*
Y797D01*
X21265Y685D01*
X21351Y599D01*
X21463Y552D01*
X21584D01*
X21696Y599D01*
X21782Y685D01*
X21828Y797D01*
Y918D01*
X21782Y1030D01*
X21696Y1116D01*
X21584Y1162D01*
D02*
G37*
G36*
X18050Y2095D02*
X17815Y2049D01*
X17616Y1916D01*
X17484Y1717D01*
X17437Y1482D01*
Y982D01*
X17484Y747D01*
X17616Y548D01*
X17815Y415D01*
X18050Y369D01*
X18285Y415D01*
X18484Y548D01*
X18617Y747D01*
X18664Y982D01*
Y1482D01*
X18617Y1717D01*
X18484Y1916D01*
X18285Y2049D01*
X18050Y2095D01*
D02*
G37*
G36*
X13487Y3523D02*
X13365D01*
X13253Y3477D01*
X13168Y3391D01*
X13121Y3279D01*
Y3158D01*
X13168Y3046D01*
X13253Y2960D01*
X13297Y2942D01*
Y2804D01*
X13247Y2784D01*
X13161Y2698D01*
X13115Y2586D01*
Y2465D01*
X13161Y2353D01*
X13247Y2267D01*
X13286Y2251D01*
Y2113D01*
X13248Y2098D01*
X13162Y2012D01*
X13116Y1900D01*
Y1779D01*
X13162Y1667D01*
X13248Y1581D01*
X13360Y1535D01*
X13481D01*
X13576Y1574D01*
X13638Y1543D01*
X13690Y1498D01*
X13687Y1482D01*
Y982D01*
X13734Y747D01*
X13866Y548D01*
X14065Y415D01*
X14300Y369D01*
X14535Y415D01*
X14734Y548D01*
X14857Y732D01*
X14925Y740D01*
X14993Y732D01*
X15116Y548D01*
X15315Y415D01*
X15550Y369D01*
X15785Y415D01*
X15984Y548D01*
X16117Y747D01*
X16164Y982D01*
Y1482D01*
X16117Y1717D01*
X15984Y1916D01*
X15785Y2049D01*
X15550Y2095D01*
X15315Y2049D01*
X15116Y1916D01*
X14993Y1731D01*
X14925Y1723D01*
X14857Y1731D01*
X14734Y1916D01*
X14535Y2049D01*
X14300Y2095D01*
X14065Y2049D01*
X13866Y1916D01*
X13853Y1895D01*
X13789Y1897D01*
X13717Y1921D01*
X13679Y2012D01*
X13593Y2098D01*
X13555Y2114D01*
Y2251D01*
X13593Y2267D01*
X13678Y2353D01*
X13725Y2465D01*
Y2586D01*
X13678Y2698D01*
X13593Y2784D01*
X13549Y2802D01*
Y2939D01*
X13599Y2960D01*
X13684Y3046D01*
X13731Y3158D01*
Y3279D01*
X13684Y3391D01*
X13599Y3477D01*
X13487Y3523D01*
D02*
G37*
G36*
X34176Y23442D02*
X34054D01*
X33942Y23395D01*
X33857Y23310D01*
X33810Y23198D01*
Y23076D01*
X33857Y22964D01*
X33942Y22879D01*
X34054Y22832D01*
X34176D01*
X34288Y22879D01*
X34374Y22964D01*
X34420Y23076D01*
Y23198D01*
X34374Y23310D01*
X34288Y23395D01*
X34176Y23442D01*
D02*
G37*
G36*
X45470Y23322D02*
X45349D01*
X45237Y23276D01*
X45151Y23190D01*
X45105Y23078D01*
Y22957D01*
X45151Y22845D01*
X45237Y22759D01*
X45349Y22713D01*
X45470D01*
X45582Y22759D01*
X45668Y22845D01*
X45715Y22957D01*
Y23078D01*
X45668Y23190D01*
X45582Y23276D01*
X45470Y23322D01*
D02*
G37*
G36*
X43870D02*
X43749D01*
X43637Y23276D01*
X43551Y23190D01*
X43505Y23078D01*
Y22957D01*
X43551Y22845D01*
X43637Y22759D01*
X43749Y22713D01*
X43870D01*
X43982Y22759D01*
X44068Y22845D01*
X44115Y22957D01*
Y23078D01*
X44068Y23190D01*
X43982Y23276D01*
X43870Y23322D01*
D02*
G37*
G36*
X47870Y23322D02*
X47749D01*
X47637Y23276D01*
X47551Y23190D01*
X47505Y23078D01*
Y22957D01*
X47551Y22845D01*
X47637Y22759D01*
X47749Y22713D01*
X47870D01*
X47982Y22759D01*
X48068Y22845D01*
X48115Y22957D01*
Y23078D01*
X48068Y23190D01*
X47982Y23276D01*
X47870Y23322D01*
D02*
G37*
G36*
X41620D02*
X41499D01*
X41387Y23276D01*
X41301Y23190D01*
X41255Y23078D01*
Y22957D01*
X41301Y22845D01*
X41387Y22759D01*
X41499Y22713D01*
X41620D01*
X41732Y22759D01*
X41818Y22845D01*
X41865Y22957D01*
Y23078D01*
X41818Y23190D01*
X41732Y23276D01*
X41620Y23322D01*
D02*
G37*
G36*
X48670Y22522D02*
X48549D01*
X48437Y22476D01*
X48351Y22390D01*
X48305Y22278D01*
Y22157D01*
X48351Y22045D01*
X48437Y21959D01*
X48549Y21913D01*
X48670D01*
X48782Y21959D01*
X48868Y22045D01*
X48915Y22157D01*
Y22278D01*
X48868Y22390D01*
X48782Y22476D01*
X48670Y22522D01*
D02*
G37*
G36*
X45470D02*
X45349D01*
X45237Y22476D01*
X45151Y22390D01*
X45105Y22278D01*
Y22157D01*
X45151Y22045D01*
X45237Y21959D01*
X45349Y21913D01*
X45470D01*
X45582Y21959D01*
X45668Y22045D01*
X45715Y22157D01*
Y22278D01*
X45668Y22390D01*
X45582Y22476D01*
X45470Y22522D01*
D02*
G37*
G36*
X44670D02*
X44549D01*
X44437Y22476D01*
X44351Y22390D01*
X44305Y22278D01*
Y22157D01*
X44351Y22045D01*
X44437Y21959D01*
X44549Y21913D01*
X44670D01*
X44782Y21959D01*
X44868Y22045D01*
X44915Y22157D01*
Y22278D01*
X44868Y22390D01*
X44782Y22476D01*
X44670Y22522D01*
D02*
G37*
G36*
X43870D02*
X43749D01*
X43637Y22476D01*
X43551Y22390D01*
X43505Y22278D01*
Y22157D01*
X43551Y22045D01*
X43637Y21959D01*
X43749Y21913D01*
X43870D01*
X43982Y21959D01*
X44068Y22045D01*
X44115Y22157D01*
Y22278D01*
X44068Y22390D01*
X43982Y22476D01*
X43870Y22522D01*
D02*
G37*
G36*
X47870Y22522D02*
X47749D01*
X47637Y22476D01*
X47551Y22390D01*
X47505Y22278D01*
Y22157D01*
X47551Y22045D01*
X47637Y21959D01*
X47749Y21913D01*
X47870D01*
X47982Y21959D01*
X48068Y22045D01*
X48115Y22157D01*
Y22278D01*
X48068Y22390D01*
X47982Y22476D01*
X47870Y22522D01*
D02*
G37*
G36*
X47070D02*
X46949D01*
X46837Y22476D01*
X46751Y22390D01*
X46705Y22278D01*
Y22157D01*
X46751Y22045D01*
X46837Y21959D01*
X46949Y21913D01*
X47070D01*
X47182Y21959D01*
X47268Y22045D01*
X47315Y22157D01*
Y22278D01*
X47268Y22390D01*
X47182Y22476D01*
X47070Y22522D01*
D02*
G37*
G36*
X42270D02*
X42149D01*
X42037Y22476D01*
X41951Y22390D01*
X41905Y22278D01*
Y22157D01*
X41951Y22045D01*
X42037Y21959D01*
X42149Y21913D01*
X42270D01*
X42382Y21959D01*
X42468Y22045D01*
X42515Y22157D01*
Y22278D01*
X42468Y22390D01*
X42382Y22476D01*
X42270Y22522D01*
D02*
G37*
G36*
X44345Y21517D02*
X44224D01*
X44112Y21471D01*
X44026Y21385D01*
X43980Y21273D01*
Y21152D01*
X44026Y21040D01*
X44112Y20954D01*
X44224Y20907D01*
X44345D01*
X44457Y20954D01*
X44543Y21040D01*
X44590Y21152D01*
Y21273D01*
X44543Y21385D01*
X44457Y21471D01*
X44345Y21517D01*
D02*
G37*
G36*
X49145Y21517D02*
X49024D01*
X48912Y21471D01*
X48826Y21385D01*
X48780Y21273D01*
Y21152D01*
X48826Y21040D01*
X48912Y20954D01*
X49024Y20907D01*
X49145D01*
X49257Y20954D01*
X49343Y21040D01*
X49390Y21152D01*
Y21273D01*
X49343Y21385D01*
X49257Y21471D01*
X49145Y21517D01*
D02*
G37*
G36*
X47545D02*
X47424D01*
X47312Y21471D01*
X47226Y21385D01*
X47180Y21273D01*
Y21152D01*
X47226Y21040D01*
X47312Y20954D01*
X47424Y20907D01*
X47545D01*
X47657Y20954D01*
X47743Y21040D01*
X47790Y21152D01*
Y21273D01*
X47743Y21385D01*
X47657Y21471D01*
X47545Y21517D01*
D02*
G37*
G36*
X45945D02*
X45824D01*
X45712Y21471D01*
X45626Y21385D01*
X45580Y21273D01*
Y21152D01*
X45626Y21040D01*
X45712Y20954D01*
X45824Y20907D01*
X45945D01*
X46057Y20954D01*
X46143Y21040D01*
X46190Y21152D01*
Y21273D01*
X46143Y21385D01*
X46057Y21471D01*
X45945Y21517D01*
D02*
G37*
G36*
X46745Y21517D02*
X46624D01*
X46512Y21471D01*
X46426Y21385D01*
X46380Y21273D01*
Y21152D01*
X46426Y21040D01*
X46512Y20954D01*
X46624Y20907D01*
X46745D01*
X46857Y20954D01*
X46943Y21040D01*
X46990Y21152D01*
Y21273D01*
X46943Y21385D01*
X46857Y21471D01*
X46745Y21517D01*
D02*
G37*
G36*
X45145D02*
X45024D01*
X44912Y21471D01*
X44826Y21385D01*
X44780Y21273D01*
Y21152D01*
X44826Y21040D01*
X44912Y20954D01*
X45024Y20907D01*
X45145D01*
X45257Y20954D01*
X45343Y21040D01*
X45390Y21152D01*
Y21273D01*
X45343Y21385D01*
X45257Y21471D01*
X45145Y21517D01*
D02*
G37*
G36*
X43545D02*
X43424D01*
X43312Y21471D01*
X43226Y21385D01*
X43180Y21273D01*
Y21152D01*
X43226Y21040D01*
X43312Y20954D01*
X43424Y20907D01*
X43545D01*
X43657Y20954D01*
X43743Y21040D01*
X43790Y21152D01*
Y21273D01*
X43743Y21385D01*
X43657Y21471D01*
X43545Y21517D01*
D02*
G37*
G36*
X50982Y20687D02*
X50860D01*
X50748Y20641D01*
X50663Y20555D01*
X50616Y20443D01*
Y20322D01*
X50663Y20210D01*
X50748Y20124D01*
X50860Y20077D01*
X50982D01*
X51094Y20124D01*
X51179Y20210D01*
X51226Y20322D01*
Y20443D01*
X51179Y20555D01*
X51094Y20641D01*
X50982Y20687D01*
D02*
G37*
G36*
X47305Y20650D02*
X47183D01*
X47071Y20603D01*
X46986Y20518D01*
X46939Y20406D01*
Y20284D01*
X46986Y20172D01*
X47071Y20087D01*
X47183Y20040D01*
X47305D01*
X47417Y20087D01*
X47502Y20172D01*
X47549Y20284D01*
Y20406D01*
X47502Y20518D01*
X47417Y20603D01*
X47305Y20650D01*
D02*
G37*
G36*
X43749Y20687D02*
X43627D01*
X43515Y20641D01*
X43430Y20555D01*
X43383Y20443D01*
Y20322D01*
X43430Y20210D01*
X43509Y20130D01*
X43435Y20056D01*
X43389Y19944D01*
Y19822D01*
X43435Y19710D01*
X43521Y19625D01*
X43633Y19578D01*
X43754D01*
X43866Y19625D01*
X43952Y19710D01*
X43998Y19822D01*
Y19944D01*
X43952Y20056D01*
X43872Y20135D01*
X43946Y20210D01*
X43993Y20322D01*
Y20443D01*
X43946Y20555D01*
X43861Y20641D01*
X43749Y20687D01*
D02*
G37*
G36*
X52169D02*
X52047D01*
X51935Y20641D01*
X51849Y20555D01*
X51803Y20443D01*
Y20322D01*
X51808Y20309D01*
X51810Y20189D01*
X51745Y20156D01*
X51698Y20137D01*
X51612Y20051D01*
X51566Y19939D01*
Y19818D01*
X51612Y19706D01*
X51698Y19620D01*
X51810Y19574D01*
X51931D01*
X52043Y19620D01*
X52129Y19706D01*
X52175Y19818D01*
Y19939D01*
X52170Y19951D01*
X52169Y20071D01*
X52234Y20104D01*
X52281Y20124D01*
X52366Y20210D01*
X52413Y20322D01*
Y20443D01*
X52366Y20555D01*
X52281Y20641D01*
X52169Y20687D01*
D02*
G37*
G36*
X47920Y20183D02*
X47799D01*
X47687Y20137D01*
X47601Y20051D01*
X47555Y19939D01*
Y19818D01*
X47601Y19706D01*
X47687Y19620D01*
X47799Y19574D01*
X47920D01*
X48032Y19620D01*
X48118Y19706D01*
X48164Y19818D01*
Y19939D01*
X48118Y20051D01*
X48032Y20137D01*
X47920Y20183D01*
D02*
G37*
G36*
X45945Y20687D02*
X45824D01*
X45712Y20641D01*
X45626Y20555D01*
X45580Y20443D01*
Y20322D01*
X45626Y20210D01*
X45706Y20130D01*
X45626Y20051D01*
X45580Y19939D01*
Y19818D01*
X45626Y19706D01*
X45712Y19620D01*
X45824Y19574D01*
X45945D01*
X46057Y19620D01*
X46143Y19706D01*
X46190Y19818D01*
Y19939D01*
X46143Y20051D01*
X46064Y20130D01*
X46143Y20210D01*
X46190Y20322D01*
Y20443D01*
X46143Y20555D01*
X46057Y20641D01*
X45945Y20687D01*
D02*
G37*
G36*
X50454Y20124D02*
X50333D01*
X50221Y20077D01*
X50135Y19992D01*
X50088Y19880D01*
Y19758D01*
X50135Y19646D01*
X50221Y19561D01*
X50333Y19514D01*
X50454D01*
X50566Y19561D01*
X50652Y19646D01*
X50698Y19758D01*
Y19880D01*
X50652Y19992D01*
X50566Y20077D01*
X50454Y20124D01*
D02*
G37*
G36*
X49145Y20641D02*
X49024D01*
X48912Y20594D01*
X48826Y20508D01*
X48780Y20396D01*
Y20275D01*
X48826Y20163D01*
X48887Y20103D01*
X48902Y20027D01*
X48887Y19951D01*
X48826Y19890D01*
X48780Y19778D01*
Y19657D01*
X48826Y19545D01*
X48912Y19459D01*
X49024Y19413D01*
X49145D01*
X49257Y19459D01*
X49343Y19545D01*
X49390Y19657D01*
Y19778D01*
X49343Y19890D01*
X49283Y19951D01*
X49268Y20027D01*
X49283Y20103D01*
X49343Y20163D01*
X49390Y20275D01*
Y20396D01*
X49343Y20508D01*
X49257Y20594D01*
X49145Y20641D01*
D02*
G37*
G36*
X45400Y19431D02*
X45278D01*
X45166Y19385D01*
X45081Y19299D01*
X45051Y19227D01*
X45018Y19183D01*
X44907Y19160D01*
X44866Y19177D01*
X44745D01*
X44633Y19131D01*
X44547Y19045D01*
X44501Y18933D01*
Y18812D01*
X44547Y18700D01*
X44633Y18614D01*
X44745Y18567D01*
X44866D01*
X44978Y18614D01*
X45064Y18700D01*
X45094Y18771D01*
X45127Y18815D01*
X45237Y18838D01*
X45278Y18821D01*
X45400D01*
X45512Y18868D01*
X45597Y18954D01*
X45644Y19066D01*
Y19187D01*
X45597Y19299D01*
X45512Y19385D01*
X45400Y19431D01*
D02*
G37*
G36*
X43805D02*
X43683D01*
X43571Y19385D01*
X43485Y19299D01*
X43439Y19187D01*
X43429Y19181D01*
X43312Y19134D01*
X43220Y19172D01*
X43099D01*
X42987Y19126D01*
X42901Y19040D01*
X42855Y18928D01*
Y18807D01*
X42901Y18695D01*
X42987Y18609D01*
X43099Y18563D01*
X43220D01*
X43332Y18609D01*
X43418Y18695D01*
X43465Y18807D01*
X43475Y18813D01*
X43592Y18859D01*
X43683Y18821D01*
X43805D01*
X43917Y18868D01*
X44002Y18954D01*
X44049Y19066D01*
Y19187D01*
X44002Y19299D01*
X43917Y19385D01*
X43805Y19431D01*
D02*
G37*
G36*
X53705Y19135D02*
X53584D01*
X53472Y19088D01*
X53461Y19077D01*
X53378Y19009D01*
X53295Y19077D01*
X53284Y19088D01*
X53172Y19135D01*
X53051D01*
X52939Y19088D01*
X52853Y19003D01*
X52807Y18891D01*
Y18769D01*
X52853Y18657D01*
X52939Y18572D01*
X53051Y18525D01*
X53172D01*
X53284Y18572D01*
X53295Y18583D01*
X53378Y18651D01*
X53461Y18583D01*
X53472Y18572D01*
X53584Y18525D01*
X53705D01*
X53817Y18572D01*
X53903Y18657D01*
X53950Y18769D01*
Y18891D01*
X53903Y19003D01*
X53817Y19088D01*
X53705Y19135D01*
D02*
G37*
G36*
X48820Y19172D02*
X48699D01*
X48587Y19126D01*
X48501Y19040D01*
X48455Y18928D01*
Y18807D01*
X48501Y18695D01*
X48587Y18609D01*
X48699Y18563D01*
X48820D01*
X48932Y18609D01*
X49018Y18695D01*
X49065Y18807D01*
Y18928D01*
X49018Y19040D01*
X48932Y19126D01*
X48820Y19172D01*
D02*
G37*
G36*
X48020D02*
X47899D01*
X47787Y19126D01*
X47701Y19040D01*
X47655Y18928D01*
Y18807D01*
X47701Y18695D01*
X47787Y18609D01*
X47899Y18563D01*
X48020D01*
X48132Y18609D01*
X48218Y18695D01*
X48265Y18807D01*
Y18928D01*
X48218Y19040D01*
X48132Y19126D01*
X48020Y19172D01*
D02*
G37*
G36*
X47220D02*
X47099D01*
X46987Y19126D01*
X46901Y19040D01*
X46855Y18928D01*
Y18807D01*
X46901Y18695D01*
X46948Y18649D01*
X46948Y18610D01*
X46920Y18510D01*
X46837Y18476D01*
X46751Y18390D01*
X46705Y18278D01*
Y18157D01*
X46751Y18045D01*
X46837Y17959D01*
X46949Y17913D01*
X47070D01*
X47182Y17959D01*
X47268Y18045D01*
X47315Y18157D01*
Y18278D01*
X47268Y18390D01*
X47222Y18436D01*
X47222Y18475D01*
X47250Y18575D01*
X47332Y18609D01*
X47418Y18695D01*
X47465Y18807D01*
Y18928D01*
X47418Y19040D01*
X47332Y19126D01*
X47220Y19172D01*
D02*
G37*
G36*
X53713Y18020D02*
X53592D01*
X53480Y17974D01*
X53469Y17963D01*
X53386Y17895D01*
X53303Y17963D01*
X53292Y17974D01*
X53180Y18020D01*
X53058D01*
X52946Y17974D01*
X52861Y17888D01*
X52814Y17776D01*
Y17655D01*
X52861Y17543D01*
X52946Y17457D01*
X53058Y17410D01*
X53180D01*
X53292Y17457D01*
X53303Y17468D01*
X53386Y17536D01*
X53469Y17468D01*
X53480Y17457D01*
X53592Y17410D01*
X53713D01*
X53825Y17457D01*
X53911Y17543D01*
X53957Y17655D01*
Y17776D01*
X53911Y17888D01*
X53825Y17974D01*
X53713Y18020D01*
D02*
G37*
G36*
X49470Y17722D02*
X49349D01*
X49237Y17676D01*
X49151Y17590D01*
X49105Y17478D01*
Y17357D01*
X49151Y17245D01*
X49237Y17159D01*
X49349Y17113D01*
X49470D01*
X49582Y17159D01*
X49668Y17245D01*
X49715Y17357D01*
Y17478D01*
X49668Y17590D01*
X49582Y17676D01*
X49470Y17722D01*
D02*
G37*
G36*
X48670D02*
X48549D01*
X48437Y17676D01*
X48351Y17590D01*
X48305Y17478D01*
Y17357D01*
X48351Y17245D01*
X48437Y17159D01*
X48549Y17113D01*
X48670D01*
X48782Y17159D01*
X48868Y17245D01*
X48915Y17357D01*
Y17478D01*
X48868Y17590D01*
X48782Y17676D01*
X48670Y17722D01*
D02*
G37*
G36*
X47870D02*
X47749D01*
X47637Y17676D01*
X47551Y17590D01*
X47505Y17478D01*
Y17357D01*
X47551Y17245D01*
X47637Y17159D01*
X47749Y17113D01*
X47870D01*
X47982Y17159D01*
X48068Y17245D01*
X48115Y17357D01*
Y17478D01*
X48068Y17590D01*
X47982Y17676D01*
X47870Y17722D01*
D02*
G37*
G36*
X45470D02*
X45349D01*
X45237Y17676D01*
X45151Y17590D01*
X45105Y17478D01*
Y17357D01*
X45151Y17245D01*
X45237Y17159D01*
X45349Y17113D01*
X45470D01*
X45582Y17159D01*
X45668Y17245D01*
X45715Y17357D01*
Y17478D01*
X45668Y17590D01*
X45582Y17676D01*
X45470Y17722D01*
D02*
G37*
G36*
X43948Y17653D02*
X43827D01*
X43715Y17607D01*
X43629Y17521D01*
X43583Y17409D01*
Y17288D01*
X43629Y17176D01*
X43715Y17090D01*
X43827Y17043D01*
X43948D01*
X44060Y17090D01*
X44146Y17176D01*
X44192Y17288D01*
Y17409D01*
X44146Y17521D01*
X44060Y17607D01*
X43948Y17653D01*
D02*
G37*
G36*
X53713Y16916D02*
X53592D01*
X53480Y16870D01*
X53469Y16859D01*
X53386Y16791D01*
X53303Y16859D01*
X53292Y16870D01*
X53180Y16916D01*
X53058D01*
X52946Y16870D01*
X52861Y16784D01*
X52814Y16672D01*
Y16551D01*
X52861Y16439D01*
X52924Y16376D01*
X52941Y16314D01*
X52928Y16223D01*
X52872Y16167D01*
X52826Y16055D01*
Y15934D01*
X52872Y15822D01*
X52958Y15736D01*
X53070Y15690D01*
X53191Y15690D01*
X53218Y15573D01*
X53265Y15460D01*
X53313Y15412D01*
X53303Y15360D01*
X53217Y15275D01*
X53171Y15162D01*
Y15041D01*
X53217Y14929D01*
X53303Y14843D01*
X53415Y14797D01*
X53536D01*
X53648Y14843D01*
X53660Y14855D01*
X53742Y14922D01*
X53825Y14855D01*
X53837Y14844D01*
X53949Y14797D01*
X54070D01*
X54182Y14844D01*
X54268Y14929D01*
X54314Y15041D01*
Y15163D01*
X54268Y15275D01*
X54182Y15360D01*
X54070Y15407D01*
X53949D01*
X53873Y15376D01*
X53821Y15424D01*
X53789Y15478D01*
X53828Y15573D01*
Y15694D01*
X53782Y15806D01*
X53696Y15892D01*
X53584Y15938D01*
X53463Y15938D01*
X53436Y16055D01*
X53389Y16167D01*
X53345Y16211D01*
X53353Y16346D01*
X53440Y16388D01*
X53469Y16364D01*
X53480Y16353D01*
X53592Y16307D01*
X53713D01*
X53825Y16353D01*
X53911Y16439D01*
X53957Y16551D01*
Y16672D01*
X53911Y16784D01*
X53825Y16870D01*
X53713Y16916D01*
D02*
G37*
G36*
X46270Y16922D02*
X46149D01*
X46037Y16876D01*
X45951Y16790D01*
X45905Y16678D01*
Y16557D01*
X45951Y16445D01*
X46037Y16359D01*
X46149Y16313D01*
X46270D01*
X46382Y16359D01*
X46468Y16445D01*
X46515Y16557D01*
Y16678D01*
X46468Y16790D01*
X46382Y16876D01*
X46270Y16922D01*
D02*
G37*
G36*
X47870Y16922D02*
X47749D01*
X47637Y16876D01*
X47551Y16790D01*
X47505Y16678D01*
Y16557D01*
X47551Y16445D01*
X47637Y16359D01*
X47749Y16313D01*
X47870D01*
X47982Y16359D01*
X48068Y16445D01*
X48115Y16557D01*
Y16678D01*
X48068Y16790D01*
X47982Y16876D01*
X47870Y16922D01*
D02*
G37*
G36*
X47070D02*
X46949D01*
X46837Y16876D01*
X46751Y16790D01*
X46705Y16678D01*
Y16557D01*
X46751Y16445D01*
X46837Y16359D01*
X46949Y16313D01*
X47070D01*
X47182Y16359D01*
X47268Y16445D01*
X47315Y16557D01*
Y16678D01*
X47268Y16790D01*
X47182Y16876D01*
X47070Y16922D01*
D02*
G37*
G36*
X47511Y14092D02*
X47400D01*
X47297Y14049D01*
X47218Y13971D01*
X47176Y13868D01*
Y13757D01*
X47218Y13654D01*
X47297Y13576D01*
X47400Y13533D01*
X47511D01*
X47614Y13576D01*
X47692Y13654D01*
X47735Y13757D01*
Y13868D01*
X47692Y13971D01*
X47614Y14049D01*
X47511Y14092D01*
D02*
G37*
G36*
X51274Y13903D02*
X51152D01*
X51040Y13857D01*
X50955Y13771D01*
X50908Y13659D01*
Y13538D01*
X50955Y13425D01*
X51040Y13340D01*
X51152Y13293D01*
X51274D01*
X51386Y13340D01*
X51471Y13425D01*
X51518Y13538D01*
Y13659D01*
X51471Y13771D01*
X51386Y13857D01*
X51274Y13903D01*
D02*
G37*
G36*
X54061Y13300D02*
X53940D01*
X53828Y13254D01*
X53742Y13168D01*
X53696Y13056D01*
Y12935D01*
X53742Y12823D01*
X53789Y12775D01*
X53815Y12695D01*
X53789Y12615D01*
X53742Y12568D01*
X53696Y12456D01*
Y12335D01*
X53742Y12223D01*
X53828Y12137D01*
X53940Y12090D01*
X54061D01*
X54173Y12137D01*
X54259Y12223D01*
X54305Y12335D01*
Y12456D01*
X54259Y12568D01*
X54211Y12615D01*
X54186Y12695D01*
X54211Y12775D01*
X54259Y12823D01*
X54305Y12935D01*
Y13056D01*
X54259Y13168D01*
X54173Y13254D01*
X54061Y13300D01*
D02*
G37*
G36*
X46258Y12090D02*
X46147D01*
X46044Y12048D01*
X45966Y11969D01*
X45923Y11867D01*
Y11755D01*
X45966Y11653D01*
X46044Y11574D01*
X46147Y11532D01*
X46258D01*
X46361Y11574D01*
X46439Y11653D01*
X46482Y11755D01*
Y11867D01*
X46439Y11969D01*
X46361Y12048D01*
X46258Y12090D01*
D02*
G37*
G36*
X54061Y11518D02*
X53940D01*
X53828Y11472D01*
X53742Y11386D01*
X53696Y11274D01*
Y11153D01*
X53742Y11041D01*
X53828Y10955D01*
X53940Y10908D01*
X54061D01*
X54173Y10955D01*
X54259Y11041D01*
X54305Y11153D01*
Y11274D01*
X54259Y11386D01*
X54173Y11472D01*
X54061Y11518D01*
D02*
G37*
G36*
X53094Y10577D02*
X52973D01*
X52861Y10531D01*
X52775Y10445D01*
X52742Y10365D01*
X52725Y10332D01*
X52601Y10297D01*
X52577Y10307D01*
X52456D01*
X52344Y10260D01*
X52258Y10175D01*
X52212Y10062D01*
Y9941D01*
X52258Y9829D01*
X52306Y9782D01*
X52331Y9702D01*
X52306Y9622D01*
X52258Y9575D01*
X52212Y9462D01*
Y9341D01*
X52258Y9229D01*
X52344Y9143D01*
X52456Y9097D01*
X52577D01*
X52689Y9143D01*
X52775Y9229D01*
X52821Y9341D01*
Y9462D01*
X52775Y9575D01*
X52728Y9622D01*
X52702Y9702D01*
X52728Y9782D01*
X52775Y9829D01*
X52808Y9909D01*
X52825Y9942D01*
X52948Y9978D01*
X52973Y9968D01*
X53094D01*
X53206Y10014D01*
X53292Y10100D01*
X53338Y10212D01*
Y10333D01*
X53292Y10445D01*
X53206Y10531D01*
X53094Y10577D01*
D02*
G37*
G36*
X56438Y7960D02*
X56317D01*
X56205Y7914D01*
X56119Y7828D01*
X56073Y7716D01*
Y7595D01*
X56119Y7483D01*
X56205Y7397D01*
X56249Y7379D01*
Y7241D01*
X56205Y7223D01*
X56119Y7137D01*
X56073Y7025D01*
Y6904D01*
X56119Y6792D01*
X56205Y6706D01*
X56317Y6660D01*
X56438D01*
X56550Y6706D01*
X56636Y6792D01*
X56683Y6904D01*
Y7025D01*
X56636Y7137D01*
X56550Y7223D01*
X56506Y7241D01*
Y7379D01*
X56550Y7397D01*
X56636Y7483D01*
X56683Y7595D01*
Y7716D01*
X56636Y7828D01*
X56550Y7914D01*
X56438Y7960D01*
D02*
G37*
G36*
X52018Y6967D02*
X51897D01*
X51785Y6921D01*
X51699Y6835D01*
X51653Y6723D01*
Y6602D01*
X51699Y6490D01*
X51785Y6404D01*
X51897Y6358D01*
X52018D01*
X52130Y6404D01*
X52216Y6490D01*
X52263Y6602D01*
Y6723D01*
X52216Y6835D01*
X52130Y6921D01*
X52018Y6967D01*
D02*
G37*
G36*
X57658Y3702D02*
X57342D01*
X57036Y3620D01*
X56762Y3462D01*
X56538Y3238D01*
X56380Y2964D01*
X56298Y2658D01*
Y2342D01*
X56380Y2036D01*
X56538Y1762D01*
X56762Y1538D01*
X57036Y1380D01*
X57342Y1298D01*
X57658D01*
X57964Y1380D01*
X58238Y1538D01*
X58462Y1762D01*
X58620Y2036D01*
X58702Y2342D01*
Y2658D01*
X58620Y2964D01*
X58462Y3238D01*
X58238Y3462D01*
X57964Y3620D01*
X57658Y3702D01*
D02*
G37*
G36*
X51186Y1864D02*
X51064D01*
X50952Y1818D01*
X50867Y1732D01*
X50820Y1620D01*
Y1499D01*
X50867Y1387D01*
X50902Y1352D01*
X50938Y1269D01*
X50902Y1186D01*
X50867Y1151D01*
X50820Y1039D01*
Y917D01*
X50867Y805D01*
X50952Y720D01*
X51064Y673D01*
X51186D01*
X51298Y720D01*
X51383Y805D01*
X51430Y917D01*
Y1039D01*
X51383Y1151D01*
X51348Y1186D01*
X51312Y1269D01*
X51348Y1352D01*
X51383Y1387D01*
X51430Y1499D01*
Y1620D01*
X51383Y1732D01*
X51298Y1818D01*
X51186Y1864D01*
D02*
G37*
G36*
X51931Y1849D02*
X51810D01*
X51698Y1802D01*
X51612Y1716D01*
X51566Y1604D01*
Y1483D01*
X51612Y1371D01*
X51647Y1336D01*
X51684Y1253D01*
X51647Y1170D01*
X51612Y1135D01*
X51566Y1023D01*
Y902D01*
X51612Y790D01*
X51698Y704D01*
X51810Y658D01*
X51931D01*
X52043Y704D01*
X52129Y790D01*
X52175Y902D01*
Y1023D01*
X52129Y1135D01*
X52094Y1170D01*
X52057Y1253D01*
X52094Y1336D01*
X52129Y1371D01*
X52175Y1483D01*
Y1604D01*
X52129Y1716D01*
X52043Y1802D01*
X51931Y1849D01*
D02*
G37*
G36*
X57658Y24702D02*
X57342D01*
X57036Y24620D01*
X56762Y24462D01*
X56538Y24238D01*
X56380Y23964D01*
X56298Y23658D01*
Y23342D01*
X56380Y23036D01*
X56538Y22762D01*
X56762Y22538D01*
X57036Y22380D01*
X57342Y22298D01*
X57658D01*
X57964Y22380D01*
X58238Y22538D01*
X58462Y22762D01*
X58620Y23036D01*
X58702Y23342D01*
Y23658D01*
X58620Y23964D01*
X58462Y24238D01*
X58238Y24462D01*
X57964Y24620D01*
X57658Y24702D01*
D02*
G37*
G36*
X22737Y16789D02*
X22616D01*
X22504Y16743D01*
X22418Y16657D01*
X22372Y16545D01*
Y16424D01*
X22418Y16312D01*
X22504Y16226D01*
X22616Y16180D01*
X22737D01*
X22849Y16226D01*
X22935Y16312D01*
X22981Y16424D01*
Y16545D01*
X22935Y16657D01*
X22849Y16743D01*
X22737Y16789D01*
D02*
G37*
G36*
X43617Y7592D02*
X43506D01*
X43403Y7549D01*
X43325Y7471D01*
X43282Y7368D01*
Y7257D01*
X43325Y7154D01*
X43403Y7076D01*
X43506Y7033D01*
X43617D01*
X43720Y7076D01*
X43798Y7154D01*
X43841Y7257D01*
Y7368D01*
X43798Y7471D01*
X43720Y7549D01*
X43617Y7592D01*
D02*
G37*
G36*
X41667D02*
X41556D01*
X41453Y7549D01*
X41375Y7471D01*
X41332Y7368D01*
Y7257D01*
X41375Y7154D01*
X41453Y7076D01*
X41556Y7033D01*
X41667D01*
X41770Y7076D01*
X41848Y7154D01*
X41891Y7257D01*
Y7368D01*
X41848Y7471D01*
X41770Y7549D01*
X41667Y7592D01*
D02*
G37*
%LPD*%
D16*
X25682Y19968D02*
Y20291D01*
Y19968D02*
X25711Y19939D01*
X24474Y21500D02*
X25682Y20291D01*
X24474Y21500D02*
X26437D01*
X26948Y22011D02*
X28304D01*
X26437Y21500D02*
X26948Y22011D01*
X23781Y21500D02*
X24474D01*
X23606Y21325D02*
X23781Y21500D01*
X17558Y21325D02*
X23606D01*
X17390Y21494D02*
X17558Y21325D01*
X16058Y21494D02*
X17390D01*
X15437Y22115D02*
Y23068D01*
Y22115D02*
X16058Y21494D01*
X34689Y21140D02*
X35560Y20269D01*
X33819Y22011D02*
X34689Y21140D01*
Y19788D02*
Y21140D01*
Y19788D02*
X35576Y18901D01*
X32378Y22011D02*
X33819D01*
X32130Y22258D02*
X32378Y22011D01*
X30239Y22258D02*
X32130D01*
X29477Y21496D02*
X30239Y22258D01*
X28819Y21496D02*
X29477D01*
X28304Y22011D02*
X28819Y21496D01*
X57260Y5500D02*
G03*
X58260Y4500I1000J0D01*
G01*
X59260Y3500D02*
G03*
X58260Y4500I-1000J0D01*
G01*
Y0D02*
G03*
X59260Y1000I0J1000D01*
G01*
Y25000D02*
G03*
X58260Y26000I-1000J0D01*
G01*
Y21500D02*
G03*
X59260Y22500I0J1000D01*
G01*
X58260Y21500D02*
G03*
X57260Y20500I0J-1000D01*
G01*
X-1000Y1000D02*
G03*
X0Y0I1000J0D01*
G01*
Y26000D02*
G03*
X-1000Y25000I0J-1000D01*
G01*
X59260Y1000D02*
Y3500D01*
X56260Y0D02*
X58260D01*
X56260Y26000D02*
X58260D01*
X59260Y22500D02*
Y25000D01*
X57260Y5500D02*
Y20500D01*
X0Y0D02*
X56260D01*
X-1000Y1000D02*
Y25000D01*
X0Y26000D02*
X56260D01*
D97*
X22534Y13287D02*
D03*
X18313Y17907D02*
D03*
X23556Y23702D02*
D03*
X53964Y5753D02*
D03*
X23561Y24241D02*
D03*
X17652Y23951D02*
D03*
X17113Y23956D02*
D03*
X19444Y24289D02*
D03*
X16332Y19685D02*
D03*
X17607Y20437D02*
D03*
X23380Y18761D02*
D03*
X20831Y18756D02*
D03*
X21727Y20385D02*
D03*
X14453Y18567D02*
D03*
X15140Y18383D02*
D03*
X13233Y15691D02*
D03*
X14453Y19101D02*
D03*
X14046Y7473D02*
D03*
X52516Y11801D02*
D03*
X13388Y7082D02*
D03*
X49410Y16773D02*
D03*
X44579Y18034D02*
D03*
X43010Y18081D02*
D03*
X43238Y14964D02*
D03*
X53055Y14321D02*
D03*
X43060Y22940D02*
D03*
X52198Y3786D02*
D03*
X52216Y4362D02*
D03*
X4953Y15869D02*
D03*
X5097Y10105D02*
D03*
X16332Y7080D02*
D03*
X25711Y19939D02*
D03*
X3589Y21984D02*
D03*
X56368Y9977D02*
D03*
X56246Y9296D02*
D03*
X56769Y9449D02*
D03*
X9156Y18217D02*
D03*
X9160Y18756D02*
D03*
X8617Y18222D02*
D03*
X8622Y18760D02*
D03*
X7656Y17037D02*
D03*
X10147Y22822D02*
D03*
X22261Y19841D02*
D03*
X21722Y19846D02*
D03*
X22265Y20380D02*
D03*
X27436Y10188D02*
D03*
X20523Y4877D02*
D03*
X24704Y13880D02*
D03*
X12472Y11009D02*
D03*
X55677Y20533D02*
D03*
X31677Y21525D02*
D03*
X50972Y8198D02*
D03*
X12226Y21782D02*
D03*
X4953Y457D02*
D03*
X4991Y25543D02*
D03*
X15437Y23068D02*
D03*
X22822Y4033D02*
D03*
X22974Y3281D02*
D03*
X23139Y4706D02*
D03*
X12950Y5664D02*
D03*
X15773Y4441D02*
D03*
X19437Y4907D02*
D03*
X18592Y4902D02*
D03*
X8528Y15240D02*
D03*
X7678D02*
D03*
X8528Y12538D02*
D03*
X7678D02*
D03*
X8534Y8026D02*
D03*
X11070Y12830D02*
D03*
Y14964D02*
D03*
Y14430D02*
D03*
Y13364D02*
D03*
Y13897D02*
D03*
X10147Y10030D02*
D03*
Y10730D02*
D03*
X7849Y10389D02*
D03*
X21491Y11320D02*
D03*
X19888Y11480D02*
D03*
X20922Y4062D02*
D03*
X20086Y4394D02*
D03*
X34327Y15418D02*
D03*
X25324Y16485D02*
D03*
X24827Y24353D02*
D03*
X24342Y19003D02*
D03*
X24068Y19798D02*
D03*
Y20712D02*
D03*
X24474Y21500D02*
D03*
X35576Y18901D02*
D03*
X35560Y20269D02*
D03*
X25146Y17094D02*
D03*
X31017Y14344D02*
D03*
X29032Y19685D02*
D03*
X30642Y24714D02*
D03*
X30142Y23342D02*
D03*
X30642Y24218D02*
D03*
X30142Y24613D02*
D03*
Y25405D02*
D03*
X31579Y20760D02*
D03*
X30946D02*
D03*
Y19939D02*
D03*
Y21801D02*
D03*
X30121Y21494D02*
D03*
X30133Y20077D02*
D03*
X28762Y20760D02*
D03*
X28143Y21525D02*
D03*
X50860Y9402D02*
D03*
X50735Y6715D02*
D03*
X47462Y8612D02*
D03*
X53868Y1995D02*
D03*
X50860Y4216D02*
D03*
X50022D02*
D03*
X55461Y6715D02*
D03*
X55982Y2981D02*
D03*
X50972Y8798D02*
D03*
X55541Y7302D02*
D03*
X40962Y4712D02*
D03*
X43562Y4712D02*
D03*
X46162Y5362D02*
D03*
X43562Y4062D02*
D03*
X45512Y5362D02*
D03*
X43562Y5362D02*
D03*
X22949Y857D02*
D03*
X19609Y1781D02*
D03*
X4966Y3873D02*
D03*
X3429Y4479D02*
D03*
X3429Y5774D02*
D03*
X-390Y3873D02*
D03*
Y4836D02*
D03*
Y5800D02*
D03*
X9928Y3412D02*
D03*
X8678Y3412D02*
D03*
X7428D02*
D03*
X6178D02*
D03*
X29836Y1397D02*
D03*
X27905Y1163D02*
D03*
X28198Y1781D02*
D03*
X33622Y1163D02*
D03*
X33829Y1781D02*
D03*
X36760Y17417D02*
D03*
X37410Y23017D02*
D03*
X39010D02*
D03*
X40610D02*
D03*
X47010Y23017D02*
D03*
X48610Y23017D02*
D03*
X41560Y16617D02*
D03*
X48610D02*
D03*
X45410D02*
D03*
X44610D02*
D03*
X38360Y18867D02*
D03*
X32236Y11080D02*
D03*
X33036Y13480D02*
D03*
Y8680D02*
D03*
X38362Y13162D02*
D03*
X37712Y12512D02*
D03*
X39012Y13162D02*
D03*
X37712Y11862D02*
D03*
X39012Y12512D02*
D03*
Y11212D02*
D03*
X39662Y10562D02*
D03*
X56183Y4378D02*
D03*
X56234Y3844D02*
D03*
X48247Y2031D02*
D03*
X52974Y2003D02*
D03*
X52425Y17715D02*
D03*
X55541Y15102D02*
D03*
Y16902D02*
D03*
Y18702D02*
D03*
X52598Y16027D02*
D03*
X48262Y12233D02*
D03*
X48112Y13812D02*
D03*
X47462Y13162D02*
D03*
X45512Y11862D02*
D03*
X45513Y14462D02*
D03*
X33036Y6280D02*
D03*
X29836Y13480D02*
D03*
X26636Y11080D02*
D03*
X25036Y7080D02*
D03*
X24236Y4680D02*
D03*
X32236Y6280D02*
D03*
X25036Y11080D02*
D03*
X29836Y4680D02*
D03*
X25036Y11880D02*
D03*
X32236Y7080D02*
D03*
X24236Y11080D02*
D03*
X25036Y10280D02*
D03*
X27436Y8680D02*
D03*
X33036Y5480D02*
D03*
X27436D02*
D03*
X25036D02*
D03*
X44862Y11212D02*
D03*
X47010Y17417D02*
D03*
X46210D02*
D03*
Y22217D02*
D03*
X46210Y23017D02*
D03*
X44610D02*
D03*
X43010Y22217D02*
D03*
X40610Y22217D02*
D03*
X39810D02*
D03*
X39010D02*
D03*
X37410D02*
D03*
X48285Y21212D02*
D03*
X39485Y21212D02*
D03*
X37712Y13812D02*
D03*
X44862Y12512D02*
D03*
X46162Y10562D02*
D03*
Y7962D02*
D03*
X40312Y5362D02*
D03*
X44212Y10562D02*
D03*
X40312Y6662D02*
D03*
X44212Y7312D02*
D03*
X43562Y6662D02*
D03*
X44212Y9262D02*
D03*
X40312Y7962D02*
D03*
X41612Y6662D02*
D03*
X43562Y9912D02*
D03*
X40962Y7312D02*
D03*
X43562Y7962D02*
D03*
X42912Y7312D02*
D03*
Y9262D02*
D03*
X41612Y7962D02*
D03*
D115*
X41153Y20352D02*
G03*
X41274Y20231I121J0D01*
G01*
X41274Y19990D02*
G03*
X41274Y20231I0J121D01*
G01*
X40946Y19990D02*
G03*
X40946Y19749I0J-121D01*
G01*
X41153Y19628D02*
G03*
X41032Y19749I-121J0D01*
G01*
X37970Y20433D02*
G03*
X38055Y20398I85J85D01*
G01*
X38460Y20156D02*
G03*
X38460Y20398I0J121D01*
G01*
X37847Y20156D02*
G03*
X37847Y19915I0J-121D01*
G01*
X38548Y19855D02*
G03*
X38402Y19915I-146J-146D01*
G01*
X38239Y18434D02*
G03*
X38360Y18555I0J121D01*
G01*
X38239Y18434D02*
G03*
X38239Y18193I0J-121D01*
G01*
X38845Y17951D02*
G03*
X38845Y18193I0J121D01*
G01*
X38808Y17951D02*
G03*
X38688Y17831I0J-121D01*
G01*
X42158Y13716D02*
G03*
X42291Y13849I0J133D01*
G01*
X42158Y13716D02*
G03*
X42158Y13449I0J-133D01*
G01*
X42294Y13183D02*
G03*
X42294Y13449I0J133D01*
G01*
X42145Y13183D02*
G03*
X42145Y12916I0J-133D01*
G01*
X42437Y12649D02*
G03*
X42437Y12916I0J133D01*
G01*
X42145Y12649D02*
G03*
X42145Y12383I0J-133D01*
G01*
X42437Y12116D02*
G03*
X42437Y12383I0J133D01*
G01*
X42145Y12116D02*
G03*
X42145Y11849I0J-133D01*
G01*
X42437Y11583D02*
G03*
X42437Y11849I0J133D01*
G01*
X42145Y11583D02*
G03*
X42145Y11316I0J-133D01*
G01*
X42437Y11049D02*
G03*
X42437Y11316I0J133D01*
G01*
X42145Y11049D02*
G03*
X42145Y10782I0J-133D01*
G01*
X42291Y10649D02*
G03*
X42158Y10782I-133J0D01*
G01*
X35503Y15709D02*
G03*
X35636Y15842I0J133D01*
G01*
X35418Y15709D02*
G03*
X35418Y15442I0J-133D01*
G01*
X35599Y15175D02*
G03*
X35599Y15442I0J133D01*
G01*
X35262Y15175D02*
G03*
X35262Y14909I0J-133D01*
G01*
X35636Y14775D02*
G03*
X35503Y14909I-133J0D01*
G01*
X40893Y20829D02*
X41153Y20570D01*
Y20352D02*
Y20570D01*
X41274Y20231D02*
X41274D01*
X40946Y19990D02*
X41274D01*
X40946Y19749D02*
X41032D01*
X41153Y19584D02*
Y19628D01*
X40710Y21013D02*
X40893Y20829D01*
X41153Y18598D02*
Y19584D01*
X40710Y21013D02*
Y21317D01*
X39810Y22217D02*
X40710Y21317D01*
X37665Y20738D02*
X37970Y20433D01*
X37970Y20433D02*
X37970Y20433D01*
X38055Y20398D02*
X38460D01*
X37847Y20156D02*
X38460D01*
X37847Y19915D02*
X38402D01*
X38548Y19855D02*
X38592Y19810D01*
X37510Y20892D02*
X37665Y20738D01*
X37510Y20892D02*
Y21367D01*
X38360Y18555D02*
Y18754D01*
X38239Y18434D02*
X38239D01*
X38239Y18193D02*
X38845D01*
X38808Y17951D02*
X38845D01*
X38688Y17718D02*
Y17831D01*
Y17718D02*
X38785Y17621D01*
Y17605D02*
Y17621D01*
X38360Y18754D02*
Y18867D01*
X38785Y16382D02*
Y17605D01*
X38362Y16105D02*
X38468Y15998D01*
X38271Y15627D02*
X38468Y15824D01*
Y15998D01*
X38137Y16105D02*
X38362D01*
X38688Y16285D02*
X38785Y16382D01*
X38688Y15494D02*
Y16285D01*
Y15494D02*
X38849Y15333D01*
X39012D01*
X39091Y15627D02*
X39143Y15574D01*
X39012Y15333D02*
X39143Y15465D01*
X39088Y15627D02*
X39091D01*
X39143Y15465D02*
Y15574D01*
X39012Y15703D02*
X39088Y15627D01*
X39143Y16027D02*
X39384D01*
X39012Y15896D02*
X39143Y16027D01*
X39534Y15508D02*
Y15877D01*
X39384Y16027D02*
X39534Y15877D01*
X39089Y15062D02*
X39534Y15508D01*
X39012Y15703D02*
Y15896D01*
X38761Y15062D02*
X39089D01*
X38688Y12836D02*
Y14728D01*
X38271Y15553D02*
X38761Y15062D01*
X38271Y15553D02*
Y15627D01*
X37665Y15633D02*
X38137Y16105D01*
X37665Y15380D02*
Y15633D01*
Y15380D02*
X37770Y15275D01*
X38142D01*
X38688Y14728D01*
X42291Y13849D02*
Y14075D01*
X42158Y13716D02*
X42158D01*
X42158Y13449D02*
X42294D01*
X42145Y13183D02*
X42294D01*
X42145Y12916D02*
X42437D01*
X42145Y12649D02*
X42437D01*
X42145Y12383D02*
X42437D01*
X42145Y12116D02*
X42437D01*
X42145Y11849D02*
X42437D01*
X42145Y11583D02*
X42437D01*
X42145Y11316D02*
X42437D01*
X42145Y11049D02*
X42437D01*
X42145Y10782D02*
X42158D01*
X42291Y10605D02*
Y10649D01*
Y14075D02*
Y14207D01*
Y10592D02*
Y10605D01*
X41938Y10239D02*
X42291Y10592D01*
Y14207D02*
Y15326D01*
X35636Y15842D02*
Y16357D01*
X35418Y15709D02*
X35503D01*
X35418Y15442D02*
X35599D01*
X35262Y15175D02*
X35599D01*
X35262Y14909D02*
X35503D01*
X35636Y14731D02*
Y14775D01*
Y16357D02*
Y17160D01*
Y10824D02*
Y14731D01*
X48976Y2941D02*
X52077D01*
X47320Y2083D02*
X47321Y2083D01*
X48179Y2941D02*
X48976D01*
X47321Y2083D02*
X48179Y2941D01*
X47320Y1537D02*
Y2083D01*
X47677Y2059D02*
X48158Y2540D01*
X53091D01*
X47677Y1439D02*
Y2059D01*
X23506Y3891D02*
X33172D01*
X33416Y4135D01*
X23365Y4033D02*
X23506Y3891D01*
X22822Y4033D02*
X23365D01*
X33416Y4135D02*
X33990D01*
X35688D01*
X33528Y3866D02*
X33990D01*
X32513Y2851D02*
X33388Y3726D01*
X33528Y3866D01*
X23404Y2851D02*
X32513D01*
X33630Y3607D02*
X34950D01*
X27905Y2618D02*
X32641D01*
X33630Y3607D01*
X33767Y3368D02*
X34865D01*
X28143Y2318D02*
X32716D01*
X33767Y3368D01*
X35688Y4135D02*
X36085Y3739D01*
X33990Y3866D02*
X35413D01*
X35733Y3546D01*
X34950Y3607D02*
X35733Y2825D01*
X33990Y4386D02*
X35733D01*
X33302D02*
X33990D01*
X35733D02*
X41884D01*
X33132Y4216D02*
X33302Y4386D01*
X35733Y3546D02*
X36190Y3089D01*
X35733Y2500D02*
X36149Y2083D01*
X36202Y2031D01*
X34865Y3368D02*
X35733Y2500D01*
X33941Y874D02*
X36058D01*
X36200Y1016D02*
X38422D01*
X36058Y874D02*
X36200Y1016D01*
X33829Y1781D02*
X34370Y1240D01*
X36081D02*
X36149Y1308D01*
X34370Y1240D02*
X36081D01*
X36149Y1308D02*
X38468D01*
X33652Y1163D02*
X33941Y874D01*
X21734Y2210D02*
X28035D01*
X20922Y3022D02*
Y4062D01*
Y3022D02*
X21734Y2210D01*
X45829Y1308D02*
X47239Y2718D01*
X47631D01*
X40179Y1308D02*
X45829D01*
X40374Y876D02*
X47114D01*
X47677Y1439D01*
X46876Y1092D02*
X47320Y1537D01*
X47631Y2718D02*
X48251Y3338D01*
X48280Y3739D02*
X51083D01*
X47123Y3074D02*
X47615D01*
X48280Y3739D01*
X54395Y3844D02*
X56234D01*
X53091Y2540D02*
X54395Y3844D01*
X51772Y3786D02*
X52198D01*
X51323Y3338D02*
X51772Y3786D01*
X48251Y3338D02*
X51323D01*
X52077Y2941D02*
X53514Y4378D01*
X51083Y3739D02*
X51706Y4362D01*
X52216D01*
X38592Y19259D02*
Y19810D01*
Y19259D02*
X38785Y19066D01*
X39110Y21587D02*
X39485Y21212D01*
X37730Y21587D02*
X39110D01*
X37510Y21367D02*
X37730Y21587D01*
X39534Y16344D02*
Y17963D01*
X38785Y18712D02*
X39534Y17963D01*
X38785Y18712D02*
Y19066D01*
X39338Y13489D02*
Y14915D01*
X39993Y15570D02*
Y15886D01*
X39338Y14915D02*
X39993Y15570D01*
X39534Y16344D02*
X39993Y15886D01*
X36876Y20760D02*
X37127D01*
X37510Y19809D02*
Y20376D01*
X37127Y20760D02*
X37510Y20376D01*
X36657Y20978D02*
X36876Y20760D01*
X36657Y21478D02*
X36991Y21811D01*
X36657Y20978D02*
Y21478D01*
X36991Y21811D02*
X37665D01*
X38057Y22595D02*
X38633D01*
X37835Y22373D02*
X38057Y22595D01*
X37835Y21982D02*
Y22373D01*
X38633Y22595D02*
X39010Y22217D01*
X37665Y21811D02*
X37835Y21982D01*
X37062Y15359D02*
Y15763D01*
X37404Y16105D01*
X37770D01*
X37062Y15359D02*
X37353Y15068D01*
X37097Y22530D02*
X37410Y22217D01*
X36657Y22530D02*
X37097D01*
X36130Y22002D02*
X36657Y22530D01*
X36130Y18679D02*
Y22002D01*
X37353Y15068D02*
X37699D01*
X36544Y16027D02*
X36773D01*
X37185Y16439D02*
Y17624D01*
X36773Y16027D02*
X37185Y16439D01*
X38038Y13678D02*
Y14728D01*
X37699Y15068D02*
X38038Y14728D01*
X37770Y16105D02*
X37985Y16320D01*
X37385Y14139D02*
Y14693D01*
X37062Y15017D02*
X37385Y14693D01*
X36547Y15017D02*
X37062D01*
X36297Y15267D02*
Y15779D01*
Y15267D02*
X36547Y15017D01*
X36297Y15779D02*
X36544Y16027D01*
X41153Y17138D02*
Y18598D01*
X40235Y22592D02*
X40610Y22217D01*
X39887Y19470D02*
X40334Y19023D01*
Y14822D02*
Y19023D01*
X39988Y14475D02*
X40334Y14822D01*
X39988Y13031D02*
Y14475D01*
X39794Y12837D02*
X39988Y13031D01*
X39528Y12837D02*
X39794D01*
X39337Y12645D02*
X39528Y12837D01*
X39337Y12379D02*
Y12645D01*
X39143Y12186D02*
X39337Y12379D01*
X39887Y19470D02*
Y21490D01*
X38035Y12186D02*
X39143D01*
X37712Y11862D02*
X38035Y12186D01*
X39384Y21993D02*
Y22327D01*
Y21993D02*
X39887Y21490D01*
X39649Y22592D02*
X40235D01*
X39384Y22327D02*
X39649Y22592D01*
X40635Y16621D02*
X41153Y17138D01*
X40635Y12378D02*
Y16621D01*
X40444Y12187D02*
X40635Y12378D01*
X40178Y12187D02*
X40444D01*
X39987Y11995D02*
X40178Y12187D01*
X39987Y11729D02*
Y11995D01*
X39793Y11536D02*
X39987Y11729D01*
X39335Y11536D02*
X39793D01*
X39012Y11212D02*
X39335Y11536D01*
X42291Y15326D02*
Y15886D01*
X41560Y16617D02*
X42291Y15886D01*
X37985Y16320D02*
Y17798D01*
X37185Y19484D02*
X37510Y19809D01*
X37185Y18598D02*
Y19484D01*
Y18598D02*
X37985Y17798D01*
X36130Y18679D02*
X37185Y17624D01*
X35636Y17160D02*
Y17334D01*
X36017Y17715D01*
X35636Y10824D02*
X36272Y10188D01*
X37145D01*
X37388Y10431D01*
Y12189D01*
X37712Y12512D01*
X53514Y4378D02*
X56183D01*
X33498Y2397D02*
X35524D01*
X33157Y2055D02*
X33498Y2397D01*
X35567Y2360D02*
X36149Y1778D01*
X35560Y2360D02*
X35567D01*
X35524Y2397D02*
X35560Y2360D01*
X24062Y4216D02*
X33132D01*
X35733Y2825D02*
X36297Y2261D01*
X36190Y3089D02*
X41556D01*
X36085Y3739D02*
X41886D01*
X21077Y4437D02*
X23014Y2500D01*
X27788D01*
X23139Y4706D02*
X23573D01*
X24062Y4216D01*
X27788Y2500D02*
X27905Y2618D01*
X28198Y1781D02*
X28473Y2055D01*
X33157D01*
X28035Y2210D02*
X28143Y2318D01*
X33652Y2181D02*
X35434D01*
X33311Y1839D02*
X33652Y2181D01*
X28913Y1839D02*
X33311D01*
X28236Y1163D02*
X28913Y1839D01*
X40082Y584D02*
X40374Y876D01*
X38854Y584D02*
X40082D01*
X39993Y800D02*
X40285Y1092D01*
X38976Y800D02*
X39993D01*
X40285Y1092D02*
X46876D01*
X39116Y1016D02*
X39887D01*
X40179Y1308D01*
X45611Y1562D02*
X47123Y3074D01*
X39230Y1232D02*
X39798D01*
X40128Y1562D02*
X45611D01*
X39798Y1232D02*
X40128Y1562D01*
X44438Y2083D02*
X44793Y2439D01*
X41896Y2083D02*
X44438D01*
X41594Y1781D02*
X41896Y2083D01*
X41221Y1781D02*
X41594D01*
X42460Y2360D02*
X43081Y2981D01*
X41593Y2360D02*
X42460D01*
X41454Y2500D02*
X41593Y2360D01*
X36017Y17715D02*
X36462D01*
X36760Y17417D01*
X43588Y2981D02*
X43888Y3281D01*
X43081Y2981D02*
X43588D01*
X44793Y2439D02*
X45353D01*
X45624Y2709D02*
Y4367D01*
X45353Y2439D02*
X45624Y2709D01*
X22974Y3281D02*
X23404Y2851D01*
X20129Y4437D02*
X21077D01*
X20086Y4394D02*
X20129Y4437D01*
X27905Y1163D02*
X28236D01*
X41884Y4386D02*
X42534Y5036D01*
X44761Y3739D02*
X45185Y4163D01*
Y5036D01*
X44080Y3739D02*
X44761D01*
X45624Y4367D02*
X45838Y4581D01*
X41883Y5686D02*
X42534Y6337D01*
X40962Y4712D02*
X41593D01*
X42569Y5689D02*
X49708D01*
X41593Y4712D02*
X42569Y5689D01*
X42534Y5036D02*
X43235D01*
X42534Y4386D02*
X43235D01*
X41886Y3739D02*
X42534Y4386D01*
X41556Y3089D02*
X41896Y3429D01*
X42928D02*
X43562Y4062D01*
X41896Y3429D02*
X42928D01*
X33622Y1163D02*
X33652D01*
X49328Y6337D02*
X50419Y7428D01*
Y8961D02*
X50860Y9402D01*
X50419Y7428D02*
Y8961D01*
X42534Y6337D02*
X49328D01*
X49708Y5689D02*
X50735Y6715D01*
X40635Y5686D02*
X41883D01*
X40312Y5362D02*
X40635Y5686D01*
X38422Y1016D02*
X38854Y584D01*
X38468Y1308D02*
X38976Y800D01*
X38608Y1524D02*
X39116Y1016D01*
X36098Y1524D02*
X38608D01*
X38684Y1778D02*
X39230Y1232D01*
X36149Y1778D02*
X38684D01*
X35844D02*
X36098Y1524D01*
X35837Y1778D02*
X35844D01*
X35434Y2181D02*
X35837Y1778D01*
X36202Y2031D02*
X39859D01*
X36297Y2261D02*
X40223D01*
X40462Y2500D01*
X41454D01*
X41219Y1778D02*
X41221Y1781D01*
X40112Y1778D02*
X41219D01*
X39859Y2031D02*
X40112Y1778D01*
X43235Y4386D02*
X43562Y4712D01*
X45838Y5039D02*
X46162Y5362D01*
X45838Y4581D02*
Y5039D01*
X45185Y5036D02*
X45512Y5362D01*
X43888Y3547D02*
X44080Y3739D01*
X43888Y3281D02*
Y3547D01*
X43235Y5036D02*
X43562Y5362D01*
X38038Y13678D02*
X38278Y13438D01*
X38301Y13223D02*
Y13350D01*
X38278Y13373D02*
X38301Y13350D01*
X38278Y13373D02*
Y13438D01*
X38301Y13223D02*
X38362Y13162D01*
X39985Y10239D02*
X41938D01*
X37385Y14139D02*
X37712Y13812D01*
X39012Y13162D02*
X39338Y13489D01*
X38688Y12836D02*
X39012Y12512D01*
X40610Y22217D02*
X40659Y22168D01*
X39662Y10562D02*
X39985Y10239D01*
D122*
X53858Y24557D02*
D03*
D125*
X16800Y1232D02*
D03*
X11156Y1238D02*
D03*
X11223Y24714D02*
D03*
X9973D02*
D03*
M02*
