G04*
G04 #@! TF.GenerationSoftware,Altium Limited,Altium Designer,21.3.2 (30)*
G04*
G04 Layer_Physical_Order=8*
G04 Layer_Color=6736896*
%FSLAX43Y43*%
%MOMM*%
G71*
G04*
G04 #@! TF.SameCoordinates,AF92D2DE-8466-4D58-AFAE-29A769C4C8C3*
G04*
G04*
G04 #@! TF.FilePolarity,Positive*
G04*
G01*
G75*
%ADD16C,0.254*%
%ADD97C,0.406*%
%ADD115C,0.089*%
%ADD122C,1.016*%
%ADD125O,1.000X1.500*%
G36*
X32700Y25700D02*
X32722Y25640D01*
X32733Y25613D01*
X32737Y25584D01*
X32749Y25575D01*
X32754Y25562D01*
X32801Y25515D01*
X32831Y25443D01*
Y25366D01*
X32801Y25294D01*
X32747Y25239D01*
X32675Y25210D01*
X32597D01*
X32526Y25239D01*
X32464Y25302D01*
X32438Y25312D01*
X32416Y25330D01*
X32386Y25338D01*
X32371Y25336D01*
X32358Y25342D01*
X32241Y25345D01*
X32240Y25344D01*
X32239Y25345D01*
X32201Y25329D01*
X32163Y25314D01*
X32162Y25313D01*
X32161Y25313D01*
X32110Y25262D01*
X32109Y25262D01*
X32107Y25258D01*
X32099Y25251D01*
X32095Y25241D01*
X32091Y25235D01*
X32069Y25212D01*
Y25201D01*
X32062Y25192D01*
X32032Y25042D01*
X32035Y25031D01*
X32030Y25020D01*
X32043Y24991D01*
X32049Y24959D01*
X32058Y24953D01*
X32063Y24943D01*
X33211Y23795D01*
X33243Y23746D01*
X33254Y23689D01*
Y16360D01*
X33243Y16303D01*
X33211Y16255D01*
X31861Y14905D01*
X31813Y14873D01*
X31756Y14862D01*
X28421D01*
X28363Y14873D01*
X28315Y14905D01*
X27361Y15859D01*
X27283Y15892D01*
X23905D01*
X23848Y15903D01*
X23799Y15935D01*
X23419Y16315D01*
X23341Y16347D01*
X22955D01*
X22945Y16344D01*
X22945Y16344D01*
X22944Y16344D01*
X22925Y16344D01*
X22922Y16342D01*
X22918Y16343D01*
X22844Y16338D01*
X22823Y16328D01*
X22807D01*
X22715Y16290D01*
X22638D01*
X22546Y16328D01*
X22530D01*
X22509Y16338D01*
X22435Y16343D01*
X22431Y16342D01*
X22428Y16344D01*
X22409Y16344D01*
X22408Y16344D01*
X22408Y16344D01*
X22398Y16347D01*
X22055D01*
X22046Y16343D01*
X22045Y16344D01*
X22044Y16344D01*
X22025Y16343D01*
X22022Y16342D01*
X22019Y16343D01*
X21947Y16339D01*
X21912Y16322D01*
X21876Y16307D01*
X21875Y16305D01*
X21804Y16276D01*
X21726D01*
X21654Y16305D01*
X21600Y16360D01*
X21570Y16432D01*
Y16509D01*
X21600Y16581D01*
X21654Y16636D01*
X21726Y16665D01*
X21804D01*
X21875Y16636D01*
X21877Y16634D01*
X21907Y16622D01*
X21934Y16604D01*
X21936Y16604D01*
X21939Y16604D01*
X21942Y16603D01*
X21944Y16602D01*
X21948Y16602D01*
X21951Y16603D01*
X21954Y16601D01*
X21979Y16599D01*
X21983Y16600D01*
X21986Y16599D01*
X22045Y16598D01*
X22046Y16598D01*
X22057Y16594D01*
X22369D01*
X22382Y16599D01*
X22386Y16598D01*
X22387Y16598D01*
X22407Y16598D01*
X22409Y16598D01*
X22410Y16598D01*
X22434Y16599D01*
X22445Y16599D01*
X22448Y16601D01*
X22452Y16600D01*
X22476Y16602D01*
X22480Y16604D01*
X22483Y16603D01*
X22489Y16604D01*
X22492Y16606D01*
X22496Y16605D01*
X22496Y16605D01*
X22498Y16606D01*
X22502Y16609D01*
X22508Y16609D01*
X22509Y16609D01*
X22528Y16626D01*
X22552Y16635D01*
X22566Y16650D01*
X22638Y16679D01*
X22715D01*
X22787Y16650D01*
X22801Y16635D01*
X22825Y16626D01*
X22844Y16609D01*
X22845Y16609D01*
X22851Y16609D01*
X22855Y16606D01*
X22856Y16606D01*
X22857Y16605D01*
X22861Y16606D01*
X22864Y16604D01*
X22869Y16603D01*
X22870Y16603D01*
X22873Y16604D01*
X22877Y16602D01*
X22901Y16600D01*
X22905Y16601D01*
X22908Y16599D01*
X22918Y16599D01*
X22943Y16598D01*
X22944Y16598D01*
X22946Y16598D01*
X22966Y16598D01*
X22967Y16598D01*
X22971Y16599D01*
X22984Y16594D01*
X23427D01*
X23484Y16582D01*
X23533Y16550D01*
X23913Y16170D01*
X23990Y16138D01*
X27369D01*
X27426Y16126D01*
X27474Y16094D01*
X28068Y15501D01*
X28079Y15496D01*
X28085Y15487D01*
X28116Y15481D01*
X28146Y15469D01*
X28260Y15415D01*
X28263Y15413D01*
X28309Y15301D01*
X28395Y15215D01*
X28507Y15169D01*
X28628D01*
X28740Y15215D01*
X28802Y15277D01*
X28919Y15274D01*
X28949Y15266D01*
X29027Y15188D01*
X29139Y15142D01*
X29260D01*
X29372Y15188D01*
X29490Y15140D01*
X29519Y15128D01*
X29544Y15111D01*
X29556Y15113D01*
X29568Y15108D01*
X30322D01*
X30338Y15115D01*
X30356Y15113D01*
X30375Y15130D01*
X30399Y15140D01*
X30490Y15215D01*
X30602Y15169D01*
X30724D01*
X30836Y15215D01*
X30898Y15277D01*
X31014Y15274D01*
X31044Y15266D01*
X31122Y15188D01*
X31234Y15142D01*
X31355D01*
X31468Y15188D01*
X31553Y15274D01*
X31564Y15277D01*
X31643Y15221D01*
X31670Y15215D01*
X31694Y15202D01*
X31746Y15196D01*
X31752Y15198D01*
X31758Y15196D01*
X31792Y15210D01*
X31827Y15220D01*
X31830Y15226D01*
X31836Y15228D01*
X32976Y16368D01*
X33008Y16446D01*
Y21441D01*
X32996Y21470D01*
X32993Y21484D01*
X32990Y21605D01*
X33008Y21666D01*
X33008Y21722D01*
X33008Y21722D01*
X33008Y21730D01*
Y22350D01*
X32996Y22380D01*
X32990Y22412D01*
X32980Y22418D01*
X32976Y22428D01*
X32946Y22440D01*
X32920Y22458D01*
X32886Y22465D01*
Y22595D01*
X32920Y22601D01*
X32946Y22619D01*
X32976Y22631D01*
X32980Y22642D01*
X32990Y22648D01*
X32996Y22680D01*
X33008Y22709D01*
Y23603D01*
X32976Y23681D01*
X31491Y25166D01*
X31481Y25170D01*
X31481Y25170D01*
X31481Y25171D01*
X31467Y25184D01*
X31464Y25185D01*
X31463Y25188D01*
X31427Y25220D01*
X31408Y25236D01*
X31372Y25249D01*
X31336Y25264D01*
X31334D01*
X31262Y25293D01*
X31208Y25348D01*
X31178Y25420D01*
Y25497D01*
X31216Y25589D01*
X31225Y25598D01*
Y25620D01*
X31233Y25640D01*
X31256Y25696D01*
X31317Y25767D01*
X32648D01*
X32700Y25700D01*
D02*
G37*
G36*
X23917Y25201D02*
X23891Y25201D01*
X23842Y25197D01*
X23821Y25193D01*
X23801Y25188D01*
X23782Y25182D01*
X23765Y25175D01*
X23750Y25167D01*
X23736Y25157D01*
X23724Y25147D01*
X23662Y25210D01*
X23672Y25222D01*
X23682Y25235D01*
X23690Y25250D01*
X23697Y25267D01*
X23703Y25286D01*
X23708Y25306D01*
X23712Y25328D01*
X23714Y25351D01*
X23716Y25376D01*
X23716Y25403D01*
X23917Y25201D01*
D02*
G37*
G36*
X58260Y25765D02*
X58458Y25739D01*
X58643Y25663D01*
X58801Y25541D01*
X58923Y25383D01*
X58999Y25198D01*
X59025Y25000D01*
X59027D01*
Y22500D01*
X59025D01*
X58999Y22302D01*
X58923Y22117D01*
X58801Y21959D01*
X58643Y21837D01*
X58458Y21761D01*
X58264Y21735D01*
X58260Y21739D01*
Y21739D01*
X57939Y21697D01*
X57640Y21573D01*
X57384Y21376D01*
X57187Y21120D01*
X57063Y20821D01*
X57021Y20500D01*
X57027D01*
Y9788D01*
X56900Y9724D01*
X56830Y9754D01*
X56741D01*
X56671Y9829D01*
X56652Y9868D01*
X56672Y9916D01*
Y10038D01*
X56626Y10150D01*
X56540Y10236D01*
X56428Y10282D01*
X56307D01*
X56195Y10236D01*
X56109Y10150D01*
X56063Y10038D01*
Y9916D01*
X56109Y9804D01*
X56186Y9728D01*
X56185Y9676D01*
X56166Y9593D01*
X56073Y9555D01*
X55987Y9469D01*
X55941Y9357D01*
Y9236D01*
X55987Y9124D01*
X56073Y9038D01*
X56185Y8992D01*
X56306D01*
X56418Y9038D01*
X56504Y9124D01*
X56596Y9190D01*
X56650Y9168D01*
X56708Y9144D01*
X56830D01*
X56900Y9173D01*
X57027Y9110D01*
Y5500D01*
X57021D01*
X57063Y5179D01*
X57187Y4880D01*
X57384Y4624D01*
X57640Y4427D01*
X57939Y4303D01*
X58260Y4261D01*
Y4261D01*
X58264Y4265D01*
X58458Y4239D01*
X58643Y4163D01*
X58801Y4041D01*
X58923Y3883D01*
X58999Y3698D01*
X59025Y3500D01*
X59027D01*
Y1000D01*
X59025D01*
X58999Y802D01*
X58923Y617D01*
X58801Y459D01*
X58643Y337D01*
X58458Y261D01*
X58260Y235D01*
Y233D01*
X55101D01*
X55072Y267D01*
X55031Y360D01*
X55065Y442D01*
Y564D01*
X55019Y676D01*
X54933Y762D01*
X54876Y785D01*
X54838Y921D01*
X54839Y928D01*
X54870Y958D01*
X54916Y1070D01*
Y1191D01*
X54870Y1303D01*
X54784Y1389D01*
X54777Y1452D01*
X54780Y1528D01*
X54856Y1604D01*
X54903Y1716D01*
Y1837D01*
X54856Y1949D01*
X54891Y2094D01*
X54910Y2102D01*
X54996Y2188D01*
X55042Y2300D01*
Y2421D01*
X54996Y2533D01*
X54910Y2619D01*
X54798Y2665D01*
X54677D01*
X54565Y2619D01*
X54479Y2533D01*
X54432Y2421D01*
Y2300D01*
X54479Y2188D01*
X54444Y2043D01*
X54425Y2035D01*
X54340Y1949D01*
X54293Y1837D01*
Y1716D01*
X54340Y1604D01*
X54425Y1518D01*
X54432Y1455D01*
X54429Y1379D01*
X54353Y1303D01*
X54306Y1191D01*
Y1070D01*
X54353Y958D01*
X54438Y872D01*
X54495Y849D01*
X54534Y713D01*
X54533Y706D01*
X54502Y676D01*
X54456Y564D01*
Y442D01*
X54490Y360D01*
X54449Y267D01*
X54420Y233D01*
X53314D01*
X53286Y267D01*
X53244Y360D01*
X53278Y442D01*
Y564D01*
X53232Y676D01*
X53146Y762D01*
X53034Y808D01*
X52913D01*
X52801Y762D01*
X52715Y676D01*
X52669Y564D01*
Y442D01*
X52703Y360D01*
X52662Y267D01*
X52633Y233D01*
X50347D01*
X50310Y296D01*
X50286Y360D01*
X50327Y458D01*
Y579D01*
X50309Y621D01*
X50373Y761D01*
X50377Y764D01*
X50389Y766D01*
X50748Y407D01*
X50860Y361D01*
X51386D01*
X51498Y407D01*
X51742Y651D01*
X51744Y652D01*
X51752Y654D01*
X51761Y655D01*
X51773Y656D01*
X51788Y656D01*
X51804Y655D01*
X51826Y652D01*
X51845Y658D01*
X51931D01*
X52043Y704D01*
X52129Y790D01*
X52175Y902D01*
Y1023D01*
X52129Y1135D01*
X52094Y1170D01*
X52057Y1253D01*
X52094Y1336D01*
X52129Y1371D01*
X52175Y1483D01*
Y1604D01*
X52129Y1716D01*
X52043Y1802D01*
X51931Y1849D01*
X51845D01*
X51826Y1854D01*
X51804Y1851D01*
X51788Y1850D01*
X51773Y1850D01*
X51761Y1851D01*
X51752Y1852D01*
X51744Y1854D01*
X51742Y1855D01*
X51482Y2115D01*
X51370Y2161D01*
X50860D01*
X50748Y2115D01*
X50288Y1655D01*
X50263Y1662D01*
X50235Y1801D01*
X50280Y1846D01*
X50327Y1958D01*
Y2079D01*
X50280Y2191D01*
X50194Y2277D01*
X50082Y2324D01*
X49961D01*
X49849Y2277D01*
X49763Y2191D01*
X49717Y2079D01*
Y1958D01*
X49763Y1846D01*
X49849Y1760D01*
X49902Y1739D01*
X49876Y1612D01*
X48876D01*
X48871Y1614D01*
X48861Y1619D01*
X48850Y1625D01*
X48839Y1633D01*
X48809Y1659D01*
X48793Y1674D01*
X48773Y1682D01*
X48744Y1712D01*
X48632Y1758D01*
X48510D01*
X48398Y1712D01*
X48313Y1626D01*
X48266Y1514D01*
Y1393D01*
X48167Y1300D01*
X48114Y1322D01*
X47992D01*
X47880Y1276D01*
X47795Y1190D01*
X47748Y1078D01*
Y957D01*
X47795Y845D01*
X47869Y770D01*
X47862Y717D01*
X47830Y643D01*
X47245D01*
X46762Y1126D01*
X46815Y1253D01*
X46872D01*
X46984Y1300D01*
X47070Y1385D01*
X47116Y1497D01*
Y1619D01*
X47070Y1731D01*
X46984Y1816D01*
X46872Y1863D01*
X46751D01*
X46639Y1816D01*
X46553Y1731D01*
X46507Y1619D01*
Y1561D01*
X46380Y1508D01*
X45926Y1962D01*
X45926Y1963D01*
X45925Y1968D01*
X45924Y1976D01*
X45923Y1987D01*
X45924Y2000D01*
X45926Y2015D01*
X45930Y2035D01*
X45922Y2076D01*
X45915Y2116D01*
X45914Y2117D01*
X45914Y2118D01*
X45932Y2238D01*
X45979Y2308D01*
X46574D01*
X46666Y2346D01*
X47230Y2910D01*
X47268Y3003D01*
Y3703D01*
X47344Y3774D01*
X47382Y3793D01*
X47406Y3783D01*
X47517D01*
X47620Y3826D01*
X47698Y3904D01*
X47718Y3951D01*
X47855D01*
X47875Y3904D01*
X47953Y3826D01*
X48056Y3783D01*
X48167D01*
X48270Y3826D01*
X48348Y3904D01*
X48391Y4007D01*
Y4118D01*
X48348Y4221D01*
X48270Y4299D01*
X48223Y4319D01*
Y4456D01*
X48270Y4476D01*
X48348Y4554D01*
X48391Y4657D01*
Y4768D01*
X48348Y4871D01*
X48270Y4949D01*
X48223Y4969D01*
Y5106D01*
X48270Y5126D01*
X48348Y5204D01*
X48391Y5307D01*
Y5418D01*
X48348Y5521D01*
X48270Y5599D01*
X48223Y5619D01*
Y5756D01*
X48270Y5776D01*
X48348Y5854D01*
X48391Y5957D01*
Y6068D01*
X48348Y6171D01*
X48270Y6249D01*
X48223Y6269D01*
Y6406D01*
X48270Y6426D01*
X48348Y6504D01*
X48391Y6607D01*
Y6718D01*
X48348Y6821D01*
X48270Y6899D01*
X48223Y6919D01*
Y7056D01*
X48270Y7076D01*
X48348Y7154D01*
X48391Y7257D01*
Y7368D01*
X48348Y7471D01*
X48270Y7549D01*
X48223Y7569D01*
Y7706D01*
X48270Y7726D01*
X48348Y7804D01*
X48391Y7907D01*
Y8018D01*
X48348Y8121D01*
X48270Y8199D01*
X48167Y8242D01*
X48056D01*
X47953Y8199D01*
X47875Y8121D01*
X47855Y8074D01*
X47718D01*
X47698Y8121D01*
X47620Y8199D01*
X47517Y8242D01*
X47406D01*
X47303Y8199D01*
X47225Y8121D01*
X47205Y8074D01*
X47068D01*
X47048Y8121D01*
X46970Y8199D01*
X46867Y8242D01*
X46756D01*
X46653Y8199D01*
X46575Y8121D01*
X46532Y8018D01*
Y7907D01*
X46575Y7804D01*
X46653Y7726D01*
X46700Y7706D01*
Y7569D01*
X46653Y7549D01*
X46575Y7471D01*
X46555Y7424D01*
X46418D01*
X46398Y7471D01*
X46320Y7549D01*
X46217Y7592D01*
X46106D01*
X46003Y7549D01*
X45925Y7471D01*
X45882Y7368D01*
Y7257D01*
X45925Y7154D01*
X46003Y7076D01*
X46050Y7056D01*
Y6919D01*
X46003Y6899D01*
X45925Y6821D01*
X45905Y6774D01*
X45768D01*
X45748Y6821D01*
X45670Y6899D01*
X45567Y6942D01*
X45456D01*
X45404Y6920D01*
X45280Y6887D01*
X45088Y7079D01*
X44996Y7117D01*
X43921D01*
X43836Y7244D01*
X43841Y7257D01*
Y7368D01*
X43798Y7471D01*
X43720Y7549D01*
X43617Y7592D01*
X43506D01*
X43403Y7549D01*
X43325Y7471D01*
X43282Y7368D01*
Y7257D01*
X43288Y7244D01*
X43203Y7117D01*
X42465D01*
X42373Y7079D01*
X41764Y6469D01*
X41480D01*
X41375Y6563D01*
Y6988D01*
X41502Y7055D01*
X41556Y7033D01*
X41667D01*
X41770Y7076D01*
X41848Y7154D01*
X41891Y7257D01*
Y7368D01*
X41848Y7471D01*
X41770Y7549D01*
X41667Y7592D01*
X41556D01*
X41502Y7569D01*
X41375Y7637D01*
Y8938D01*
X41502Y9006D01*
X41556Y8983D01*
X41667D01*
X41770Y9026D01*
X41848Y9104D01*
X41891Y9207D01*
Y9318D01*
X41848Y9421D01*
X41770Y9499D01*
X41667Y9542D01*
X41556D01*
X41502Y9519D01*
X41375Y9587D01*
Y10238D01*
X41502Y10306D01*
X41556Y10283D01*
X41667D01*
X41770Y10326D01*
X41848Y10404D01*
X41891Y10507D01*
Y10618D01*
X41848Y10721D01*
X41770Y10799D01*
X41716Y10822D01*
X41673Y10959D01*
X41885Y11171D01*
X42398D01*
X42450Y11044D01*
X42170Y10764D01*
X42125Y10696D01*
X42109Y10617D01*
X42109Y10617D01*
Y8971D01*
X42109Y8971D01*
X42125Y8891D01*
X42170Y8824D01*
X42687Y8307D01*
X42687Y8307D01*
X42692Y8304D01*
X42695Y8299D01*
X42706Y8152D01*
X42675Y8121D01*
X42632Y8018D01*
Y7907D01*
X42675Y7804D01*
X42753Y7726D01*
X42856Y7683D01*
X42967D01*
X43070Y7726D01*
X43148Y7804D01*
X43191Y7907D01*
Y8018D01*
X43148Y8121D01*
X43202Y8246D01*
X43921D01*
X43975Y8121D01*
X43932Y8018D01*
Y7907D01*
X43975Y7804D01*
X44053Y7726D01*
X44156Y7683D01*
X44267D01*
X44370Y7726D01*
X44448Y7804D01*
X44491Y7907D01*
Y8018D01*
X44448Y8121D01*
X44502Y8246D01*
X44935D01*
X45162Y8019D01*
X45164Y8014D01*
X45206Y7970D01*
X45223Y7950D01*
X45228Y7943D01*
X45231Y7939D01*
X45231Y7938D01*
X45232Y7938D01*
X45232Y7937D01*
Y7907D01*
X45275Y7804D01*
X45353Y7726D01*
X45456Y7683D01*
X45567D01*
X45670Y7726D01*
X45748Y7804D01*
X45791Y7907D01*
Y8018D01*
X45748Y8121D01*
X45670Y8199D01*
X45567Y8242D01*
X45537D01*
X45536Y8242D01*
X45536Y8243D01*
X45535Y8243D01*
X45533Y8244D01*
X45476Y8295D01*
X45461Y8309D01*
X45456Y8311D01*
X45167Y8600D01*
X45100Y8645D01*
X45020Y8661D01*
X45020Y8661D01*
X42919D01*
X42524Y9056D01*
Y9787D01*
X42651Y9813D01*
X42675Y9754D01*
X42753Y9676D01*
X42856Y9633D01*
X42967D01*
X43070Y9676D01*
X43148Y9754D01*
X43191Y9857D01*
Y9968D01*
X43148Y10071D01*
X43070Y10149D01*
X42967Y10192D01*
X42856D01*
X42753Y10149D01*
X42675Y10071D01*
X42651Y10012D01*
X42524Y10038D01*
Y10531D01*
X42855Y10863D01*
X42860Y10865D01*
X42904Y10906D01*
X42924Y10924D01*
X42931Y10929D01*
X42935Y10932D01*
X42936Y10932D01*
X42936Y10933D01*
X42937Y10933D01*
X42967D01*
X43070Y10976D01*
X43148Y11054D01*
X43191Y11157D01*
Y11171D01*
X46227D01*
X46445Y11388D01*
X46552Y11317D01*
X46532Y11268D01*
Y11157D01*
X46575Y11054D01*
X46653Y10976D01*
X46756Y10933D01*
X46867D01*
X46970Y10976D01*
X47048Y11054D01*
X47091Y11157D01*
Y11268D01*
X47048Y11371D01*
X46970Y11449D01*
X46867Y11492D01*
X46756D01*
X46707Y11472D01*
X46636Y11579D01*
X50562Y15506D01*
Y19559D01*
X50566Y19561D01*
X50652Y19646D01*
X50698Y19758D01*
Y19880D01*
X50652Y19992D01*
X50615Y20028D01*
X50625Y20068D01*
X50715Y20109D01*
X50766Y20116D01*
X50860Y20077D01*
X50982D01*
X51094Y20124D01*
X51179Y20210D01*
X51226Y20322D01*
Y20443D01*
X51179Y20555D01*
X51094Y20641D01*
X50982Y20687D01*
X50860D01*
X50748Y20641D01*
X50689Y20582D01*
X50565Y20619D01*
X50562Y20621D01*
Y20929D01*
X49637Y21854D01*
X49647Y22024D01*
X49668Y22045D01*
X49715Y22157D01*
Y22278D01*
X49668Y22390D01*
X49582Y22476D01*
X49470Y22522D01*
X49349D01*
X49237Y22476D01*
X49151Y22390D01*
X49109Y22382D01*
X48121Y23370D01*
Y23408D01*
X37186D01*
X36058Y22280D01*
X35917Y22319D01*
X35895Y22372D01*
X35809Y22458D01*
X35697Y22504D01*
X35576D01*
X35464Y22458D01*
X35378Y22372D01*
X35331Y22260D01*
Y22139D01*
X35378Y22027D01*
X35402Y22003D01*
X35451Y21920D01*
X35402Y21837D01*
X35378Y21813D01*
X35331Y21701D01*
Y21580D01*
X35339Y21561D01*
X35097Y21319D01*
Y14255D01*
X34316Y13475D01*
X32541D01*
Y13541D01*
X32495Y13653D01*
X32409Y13739D01*
X32297Y13785D01*
X32176D01*
X32063Y13739D01*
X31978Y13653D01*
X31931Y13541D01*
Y13475D01*
X31741D01*
Y13541D01*
X31695Y13653D01*
X31755Y13768D01*
X31757Y13770D01*
X31981Y13993D01*
X31986Y13996D01*
X31996Y13999D01*
X32008Y14002D01*
X32022Y14004D01*
X32061Y14008D01*
X32084Y14008D01*
X32103Y14016D01*
X32145D01*
X32257Y14063D01*
X32343Y14148D01*
X32389Y14260D01*
Y14382D01*
X32343Y14494D01*
X32257Y14580D01*
X32145Y14626D01*
X32024D01*
X31912Y14580D01*
X31826Y14494D01*
X31780Y14382D01*
Y14340D01*
X31772Y14320D01*
X31771Y14296D01*
X31770Y14277D01*
X31768Y14260D01*
X31766Y14245D01*
X31763Y14233D01*
X31759Y14223D01*
X31757Y14217D01*
X31578Y14038D01*
X29978D01*
X29947Y14079D01*
X29911Y14165D01*
X29947Y14252D01*
Y14374D01*
X29900Y14486D01*
X29815Y14571D01*
X29703Y14618D01*
X29581D01*
X29469Y14571D01*
X29384Y14486D01*
X29337Y14374D01*
Y14252D01*
X29368Y14177D01*
X29261Y14106D01*
X28971Y14395D01*
X28965Y14397D01*
X28788Y14574D01*
X28676Y14620D01*
X26868D01*
X26691Y14797D01*
X26689Y14803D01*
X26686Y14813D01*
X26683Y14825D01*
X26680Y14838D01*
X26677Y14878D01*
X26677Y14900D01*
X26668Y14920D01*
Y14962D01*
X26622Y15074D01*
X26536Y15160D01*
X26424Y15206D01*
X26303D01*
X26196Y15162D01*
X26187Y15160D01*
X26165Y15145D01*
X26146Y15133D01*
X26109Y15113D01*
X26095Y15106D01*
X26083Y15101D01*
X26073Y15098D01*
X21722D01*
X20501Y16319D01*
Y20972D01*
X20455Y21083D01*
X20093Y21445D01*
X21696Y23047D01*
X21720D01*
X21832Y23094D01*
X23174Y24436D01*
X23282Y24364D01*
X23256Y24302D01*
Y24180D01*
X23302Y24068D01*
X23314Y24057D01*
X23377Y23969D01*
X23314Y23891D01*
X23298Y23875D01*
X23251Y23763D01*
Y23642D01*
X23298Y23530D01*
X23384Y23444D01*
X23496Y23397D01*
X23617D01*
X23729Y23444D01*
X23815Y23530D01*
X23861Y23642D01*
Y23763D01*
X23815Y23875D01*
X23803Y23886D01*
X23740Y23974D01*
X23803Y24052D01*
X23819Y24068D01*
X23866Y24180D01*
Y24302D01*
X23819Y24414D01*
X23733Y24499D01*
X23621Y24546D01*
X23500D01*
X23438Y24520D01*
X23366Y24628D01*
X23815Y25077D01*
X23821Y25079D01*
X23831Y25083D01*
X23843Y25086D01*
X23856Y25088D01*
X23896Y25091D01*
X23919Y25091D01*
X23938Y25100D01*
X23980D01*
X24092Y25146D01*
X24178Y25232D01*
X24224Y25344D01*
Y25465D01*
X24178Y25577D01*
X24115Y25640D01*
X24143Y25748D01*
X24154Y25767D01*
X26090D01*
X26155Y25640D01*
X26127Y25573D01*
Y25452D01*
X26174Y25340D01*
X26260Y25254D01*
X26372Y25207D01*
X26493D01*
X26605Y25254D01*
X26691Y25340D01*
X26737Y25452D01*
Y25573D01*
X26709Y25640D01*
X26774Y25767D01*
X27394D01*
X27446Y25640D01*
X27437Y25631D01*
X27391Y25519D01*
Y25398D01*
X27437Y25286D01*
X27523Y25200D01*
X27635Y25154D01*
X27756D01*
X27868Y25200D01*
X27930Y25262D01*
X28047Y25259D01*
X28077Y25251D01*
X28155Y25173D01*
X28267Y25127D01*
X28388D01*
X28500Y25173D01*
X28562Y25235D01*
X28679Y25232D01*
X28709Y25224D01*
X28786Y25146D01*
X28898Y25100D01*
X29020D01*
X29132Y25146D01*
X29217Y25232D01*
X29264Y25344D01*
Y25465D01*
X29217Y25577D01*
X29155Y25640D01*
X29182Y25748D01*
X29194Y25767D01*
X31071D01*
X31123Y25640D01*
X31114Y25631D01*
X31068Y25519D01*
Y25398D01*
X31114Y25286D01*
X31200Y25200D01*
X31312Y25154D01*
X31336D01*
X31390Y25106D01*
X31404Y25092D01*
X31413Y25088D01*
X32898Y23603D01*
Y22709D01*
X32771Y22684D01*
X32763Y22702D01*
X32678Y22788D01*
X32566Y22835D01*
X32444D01*
X32332Y22788D01*
X32247Y22702D01*
X32200Y22590D01*
Y22469D01*
X32247Y22357D01*
X32332Y22271D01*
X32444Y22225D01*
X32566D01*
X32678Y22271D01*
X32763Y22357D01*
X32771Y22376D01*
X32898Y22350D01*
Y21666D01*
X32771Y21641D01*
X32736Y21726D01*
X32650Y21812D01*
X32538Y21858D01*
X32417D01*
X32305Y21812D01*
X32219Y21726D01*
X32173Y21614D01*
Y21493D01*
X32219Y21381D01*
X32305Y21295D01*
X32417Y21249D01*
X32538D01*
X32650Y21295D01*
X32736Y21381D01*
X32771Y21466D01*
X32898Y21441D01*
Y16446D01*
X31758Y15306D01*
X31706Y15311D01*
X31600Y15386D01*
Y15507D01*
X31553Y15619D01*
X31491Y15681D01*
X31494Y15798D01*
X31502Y15828D01*
X31580Y15906D01*
X31627Y16018D01*
Y16139D01*
X31580Y16251D01*
X31494Y16337D01*
X31382Y16383D01*
X31261D01*
X31149Y16337D01*
X31087Y16275D01*
X30970Y16277D01*
X30940Y16286D01*
X30863Y16364D01*
X30751Y16410D01*
X30629D01*
X30517Y16364D01*
X30432Y16278D01*
X30385Y16166D01*
Y16044D01*
X30432Y15932D01*
X30494Y15871D01*
X30491Y15754D01*
X30482Y15724D01*
X30405Y15646D01*
X30358Y15534D01*
Y15413D01*
X30386Y15345D01*
X30322Y15218D01*
X29568D01*
X29487Y15345D01*
X29504Y15386D01*
Y15507D01*
X29458Y15619D01*
X29396Y15681D01*
X29399Y15798D01*
X29407Y15828D01*
X29485Y15906D01*
X29531Y16018D01*
Y16139D01*
X29485Y16251D01*
X29399Y16337D01*
X29287Y16383D01*
X29166D01*
X29054Y16337D01*
X28992Y16275D01*
X28875Y16277D01*
X28845Y16286D01*
X28767Y16364D01*
X28655Y16410D01*
X28534D01*
X28422Y16364D01*
X28336Y16278D01*
X28290Y16166D01*
Y16044D01*
X28336Y15932D01*
X28398Y15871D01*
X28396Y15754D01*
X28387Y15724D01*
X28309Y15646D01*
X28294Y15610D01*
X28146Y15579D01*
X27545Y16180D01*
X27469Y16230D01*
X27380Y16248D01*
X23990D01*
X23603Y16635D01*
X23527Y16686D01*
X23438Y16704D01*
X22984D01*
X22977Y16707D01*
X22973Y16706D01*
X22968Y16708D01*
X22947Y16708D01*
X22912Y16709D01*
X22887Y16711D01*
X22882Y16712D01*
X22880Y16713D01*
X22879Y16713D01*
X22849Y16743D01*
X22737Y16789D01*
X22616D01*
X22504Y16743D01*
X22474Y16713D01*
X22473Y16713D01*
X22471Y16712D01*
X22466Y16711D01*
X22441Y16709D01*
X22406Y16708D01*
X22385Y16708D01*
X22380Y16706D01*
X22376Y16707D01*
X22369Y16704D01*
X22057D01*
X22048Y16708D01*
X21988Y16709D01*
X21963Y16711D01*
X21956Y16712D01*
X21954Y16712D01*
X21937Y16729D01*
X21825Y16775D01*
X21704D01*
X21592Y16729D01*
X21506Y16643D01*
X21460Y16531D01*
Y16410D01*
X21506Y16298D01*
X21592Y16212D01*
X21704Y16166D01*
X21825D01*
X21937Y16212D01*
X21954Y16229D01*
X22026Y16233D01*
X22046Y16234D01*
X22055Y16238D01*
X22398D01*
X22408Y16234D01*
X22427Y16234D01*
X22502Y16228D01*
X22504Y16226D01*
X22616Y16180D01*
X22737D01*
X22849Y16226D01*
X22851Y16228D01*
X22926Y16234D01*
X22945Y16234D01*
X22955Y16238D01*
X23341D01*
X23729Y15850D01*
X23805Y15799D01*
X23894Y15782D01*
X27283D01*
X28245Y14820D01*
X28320Y14769D01*
X28410Y14752D01*
X31767D01*
X31856Y14769D01*
X31931Y14820D01*
X33296Y16185D01*
X33347Y16260D01*
X33364Y16349D01*
Y23700D01*
X33347Y23789D01*
X33296Y23865D01*
X32140Y25020D01*
X32170Y25170D01*
X32177Y25173D01*
X32239Y25235D01*
X32356Y25232D01*
X32386Y25224D01*
X32464Y25146D01*
X32576Y25100D01*
X32697D01*
X32809Y25146D01*
X32895Y25232D01*
X32941Y25344D01*
Y25465D01*
X32895Y25577D01*
X32832Y25640D01*
X32860Y25748D01*
X32871Y25767D01*
X33422D01*
X33433Y25748D01*
X33461Y25640D01*
X33398Y25577D01*
X33352Y25465D01*
Y25344D01*
X33398Y25232D01*
X33484Y25146D01*
X33596Y25100D01*
X33717D01*
X33829Y25146D01*
X33915Y25232D01*
X33961Y25344D01*
Y25465D01*
X33915Y25577D01*
X33852Y25640D01*
X33880Y25748D01*
X33891Y25767D01*
X36491D01*
X36543Y25640D01*
X36501Y25598D01*
X36455Y25486D01*
Y25365D01*
X36501Y25253D01*
X36587Y25167D01*
X36699Y25121D01*
X36820D01*
X36932Y25167D01*
X37018Y25253D01*
X37065Y25365D01*
Y25486D01*
X37018Y25598D01*
X36976Y25640D01*
X37029Y25767D01*
X58260D01*
Y25765D01*
D02*
G37*
G36*
X23696Y25748D02*
X23724Y25640D01*
X23661Y25577D01*
X23615Y25465D01*
Y25423D01*
X23606Y25404D01*
X23606Y25380D01*
X23605Y25360D01*
X23603Y25343D01*
X23600Y25328D01*
X23597Y25316D01*
X23594Y25306D01*
X23592Y25300D01*
X21655Y23364D01*
X21630D01*
X21519Y23317D01*
X20917Y22715D01*
X20777Y22756D01*
X20753Y22814D01*
X20667Y22900D01*
X20555Y22946D01*
X20539D01*
X20432Y22963D01*
X20422Y23064D01*
Y23086D01*
X20375Y23198D01*
X20290Y23284D01*
X20178Y23331D01*
X20056D01*
X19944Y23284D01*
X19859Y23198D01*
X19812Y23086D01*
Y23070D01*
X19795Y22963D01*
X19695Y22953D01*
X19672D01*
X19560Y22907D01*
X19475Y22821D01*
X19428Y22709D01*
Y22588D01*
X19475Y22476D01*
X19560Y22390D01*
X19672Y22343D01*
X19688D01*
X19795Y22326D01*
X19806Y22226D01*
Y22203D01*
X19852Y22091D01*
X19938Y22006D01*
X20001Y21979D01*
X20043Y21842D01*
X19786Y21584D01*
X14892D01*
X14780Y21696D01*
X14778Y21701D01*
X14775Y21711D01*
X14772Y21724D01*
X14769Y21737D01*
X14766Y21777D01*
X14766Y21799D01*
X14757Y21819D01*
Y21861D01*
X14711Y21973D01*
X14625Y22058D01*
X14513Y22105D01*
X14392D01*
X14280Y22058D01*
X14194Y21973D01*
X14148Y21861D01*
Y21739D01*
X14194Y21627D01*
X14280Y21542D01*
X14392Y21495D01*
X14434D01*
X14453Y21487D01*
X14477Y21487D01*
X14497Y21485D01*
X14514Y21483D01*
X14529Y21481D01*
X14541Y21478D01*
X14551Y21475D01*
X14557Y21472D01*
X14715Y21314D01*
X14826Y21268D01*
X19823D01*
X20185Y20906D01*
Y16253D01*
X20231Y16142D01*
X21545Y14828D01*
X21656Y14782D01*
X22834D01*
X22882Y14655D01*
X22830Y14603D01*
X22784Y14491D01*
Y14370D01*
X22830Y14258D01*
X22916Y14172D01*
X23028Y14126D01*
X23149D01*
X23261Y14172D01*
X23347Y14258D01*
X23393Y14370D01*
Y14491D01*
X23347Y14603D01*
X23295Y14655D01*
X23344Y14782D01*
X26051D01*
X26053Y14781D01*
X26058Y14778D01*
X26065Y14773D01*
X26073Y14765D01*
X26082Y14755D01*
X26092Y14743D01*
X26104Y14726D01*
X26114Y14719D01*
X26191Y14643D01*
X26303Y14596D01*
X26345D01*
X26364Y14588D01*
X26388Y14588D01*
X26408Y14587D01*
X26425Y14585D01*
X26440Y14582D01*
X26452Y14579D01*
X26462Y14576D01*
X26468Y14574D01*
X26691Y14351D01*
X26802Y14304D01*
X28164D01*
X28180Y14278D01*
X28203Y14177D01*
X28139Y14113D01*
X28092Y14001D01*
Y13880D01*
X28139Y13768D01*
X28225Y13682D01*
X28337Y13635D01*
X28458D01*
X28570Y13682D01*
X28656Y13768D01*
X28702Y13880D01*
Y14001D01*
X28676Y14063D01*
X28784Y14135D01*
X29007Y13912D01*
X28990Y13844D01*
X28960Y13779D01*
X28864Y13739D01*
X28778Y13653D01*
X28731Y13541D01*
Y13420D01*
X28778Y13308D01*
X28864Y13222D01*
X28976Y13175D01*
X29097D01*
X29209Y13222D01*
X29295Y13308D01*
X29341Y13420D01*
Y13541D01*
X29319Y13595D01*
X29390Y13720D01*
X29393Y13722D01*
X30281D01*
X30354Y13595D01*
X30331Y13541D01*
Y13420D01*
X29897Y12985D01*
X29776D01*
X29663Y12939D01*
X29578Y12853D01*
X29531Y12741D01*
Y12620D01*
X29441Y12529D01*
X29333Y12601D01*
X29341Y12620D01*
Y12741D01*
X29295Y12853D01*
X29209Y12939D01*
X29097Y12985D01*
X28976D01*
X28864Y12939D01*
X28778Y12853D01*
X28731Y12741D01*
Y12620D01*
X28778Y12508D01*
X28864Y12422D01*
X28976Y12375D01*
X29097D01*
X29115Y12383D01*
X29187Y12275D01*
X29097Y12185D01*
X28976D01*
X28864Y12139D01*
X28778Y12053D01*
X28731Y11941D01*
Y10666D01*
X27851Y9785D01*
X26989D01*
X26141Y8937D01*
X26014Y8934D01*
X26009Y8939D01*
X25897Y8985D01*
X25776D01*
X25663Y8939D01*
X25578Y8853D01*
X25531Y8741D01*
Y8620D01*
X25578Y8508D01*
X25663Y8422D01*
X25776Y8375D01*
X25897D01*
X26009Y8422D01*
X26014Y8427D01*
X26141Y8374D01*
Y8186D01*
X26014Y8134D01*
X26009Y8139D01*
X25897Y8185D01*
X25776D01*
X25663Y8139D01*
X25578Y8053D01*
X25531Y7941D01*
Y7820D01*
X25578Y7708D01*
X25607Y7678D01*
X25615Y7658D01*
X25632Y7641D01*
X25645Y7626D01*
X25656Y7613D01*
X25664Y7601D01*
X25671Y7590D01*
X25676Y7581D01*
X25678Y7575D01*
Y6877D01*
X25364Y6563D01*
X25209Y6539D01*
X25097Y6585D01*
X24976D01*
X24864Y6539D01*
X24778Y6453D01*
X24731Y6341D01*
Y6220D01*
X24778Y6108D01*
X24864Y6022D01*
X24976Y5975D01*
X25097D01*
X25140Y5993D01*
X25267Y5914D01*
Y5046D01*
X25140Y4967D01*
X25097Y4985D01*
X24976D01*
X24864Y4939D01*
X24778Y4853D01*
X24731Y4741D01*
Y4620D01*
X24778Y4508D01*
X24864Y4422D01*
X24898Y4408D01*
X24873Y4281D01*
X24059D01*
X23882Y4458D01*
Y4945D01*
X23835Y5057D01*
X23300Y5592D01*
X23188Y5638D01*
X21042D01*
X20571Y6109D01*
X20569Y6115D01*
X20566Y6125D01*
X20563Y6137D01*
X20561Y6150D01*
X20557Y6190D01*
X20557Y6212D01*
X20549Y6232D01*
Y6274D01*
X20502Y6386D01*
X20416Y6472D01*
X20304Y6518D01*
X20183D01*
X20071Y6472D01*
X19985Y6386D01*
X19939Y6274D01*
Y6153D01*
X19985Y6040D01*
X20071Y5955D01*
X20183Y5908D01*
X20225D01*
X20245Y5900D01*
X20269Y5900D01*
X20288Y5899D01*
X20305Y5897D01*
X20320Y5894D01*
X20332Y5891D01*
X20342Y5888D01*
X20348Y5886D01*
X20554Y5679D01*
X20503Y5555D01*
X20384Y5555D01*
X20376Y5559D01*
X20365Y5566D01*
X20354Y5573D01*
X20324Y5599D01*
X20308Y5615D01*
X20288Y5623D01*
X20258Y5652D01*
X20146Y5699D01*
X20025D01*
X19913Y5652D01*
X19827Y5567D01*
X19781Y5455D01*
Y5333D01*
X19827Y5221D01*
X19913Y5136D01*
X20025Y5089D01*
X20146D01*
X20258Y5136D01*
X20288Y5165D01*
X20308Y5173D01*
X20325Y5190D01*
X20339Y5203D01*
X20353Y5214D01*
X20365Y5222D01*
X20376Y5229D01*
X20385Y5234D01*
X20391Y5236D01*
X20493D01*
X21672Y4057D01*
Y3601D01*
X21718Y3489D01*
X22407Y2800D01*
X22355Y2673D01*
X21654D01*
X21628Y2800D01*
X21650Y2809D01*
X21736Y2894D01*
X21782Y3006D01*
Y3128D01*
X21736Y3240D01*
X21650Y3325D01*
X21538Y3372D01*
X21417D01*
X21305Y3325D01*
X21219Y3240D01*
X21173Y3128D01*
Y3006D01*
X21219Y2894D01*
X21305Y2809D01*
X21326Y2800D01*
X21301Y2673D01*
X15333D01*
X15221Y2626D01*
X14600Y2005D01*
X14535Y2049D01*
X14300Y2095D01*
X14065Y2049D01*
X13866Y1916D01*
X13853Y1895D01*
X13789Y1897D01*
X13717Y1921D01*
X13679Y2012D01*
X13593Y2098D01*
X13555Y2114D01*
Y2251D01*
X13593Y2267D01*
X13678Y2353D01*
X13725Y2465D01*
Y2586D01*
X13678Y2698D01*
X13593Y2784D01*
X13549Y2802D01*
Y2939D01*
X13599Y2960D01*
X13684Y3046D01*
X13731Y3158D01*
Y3279D01*
X13707Y3337D01*
X13777Y3464D01*
X17421D01*
X17425Y3462D01*
X17433Y3458D01*
X17443Y3452D01*
X17453Y3444D01*
X17480Y3419D01*
X17495Y3403D01*
X17516Y3393D01*
X17557Y3352D01*
X17669Y3306D01*
X17790D01*
X17902Y3352D01*
X17988Y3438D01*
X18034Y3550D01*
Y3671D01*
X17988Y3783D01*
X17902Y3869D01*
X17790Y3915D01*
X17669D01*
X17557Y3869D01*
X17538Y3850D01*
X17522Y3845D01*
X17484Y3814D01*
X17470Y3804D01*
X17457Y3795D01*
X17445Y3788D01*
X17434Y3783D01*
X17428Y3780D01*
X11649D01*
X11537Y3734D01*
X9957Y2155D01*
X9933Y2096D01*
X9906Y2101D01*
X9671Y2055D01*
X9534Y1963D01*
X9453Y2062D01*
X11300Y3909D01*
X17330D01*
X17442Y3955D01*
X17625Y4138D01*
X17631Y4140D01*
X17641Y4144D01*
X17653Y4147D01*
X17666Y4149D01*
X17706Y4152D01*
X17728Y4153D01*
X17748Y4161D01*
X17790D01*
X17902Y4207D01*
X17988Y4293D01*
X18034Y4405D01*
Y4526D01*
X17988Y4638D01*
X17902Y4724D01*
X17790Y4770D01*
X17669D01*
X17557Y4724D01*
X17471Y4638D01*
X17424Y4526D01*
Y4484D01*
X17416Y4465D01*
X17416Y4441D01*
X17415Y4421D01*
X17413Y4404D01*
X17410Y4389D01*
X17407Y4377D01*
X17404Y4367D01*
X17402Y4362D01*
X17309Y4269D01*
X17215Y4278D01*
X17143Y4401D01*
X17145Y4405D01*
Y4526D01*
X17099Y4638D01*
X17076Y4661D01*
X17128Y4788D01*
X17355D01*
X17466Y4834D01*
X17625Y4993D01*
X17631Y4996D01*
X17641Y4999D01*
X17653Y5002D01*
X17666Y5004D01*
X17706Y5007D01*
X17728Y5008D01*
X17748Y5016D01*
X17790D01*
X17902Y5062D01*
X17988Y5148D01*
X18034Y5260D01*
Y5381D01*
X17988Y5493D01*
X17902Y5579D01*
X17790Y5626D01*
X17669D01*
X17557Y5579D01*
X17471Y5493D01*
X17424Y5381D01*
Y5340D01*
X17416Y5320D01*
X17416Y5296D01*
X17415Y5277D01*
X17413Y5259D01*
X17410Y5245D01*
X17407Y5232D01*
X17404Y5222D01*
X17402Y5217D01*
X17329Y5145D01*
X17221Y5153D01*
X17145Y5260D01*
Y5381D01*
X17133Y5410D01*
X17218Y5537D01*
X17249D01*
X17361Y5584D01*
X17625Y5848D01*
X17631Y5851D01*
X17641Y5854D01*
X17653Y5857D01*
X17666Y5859D01*
X17706Y5863D01*
X17728Y5863D01*
X17748Y5871D01*
X17790D01*
X17902Y5918D01*
X17988Y6003D01*
X18034Y6115D01*
Y6237D01*
X17988Y6349D01*
X17902Y6434D01*
X17790Y6481D01*
X17669D01*
X17557Y6434D01*
X17471Y6349D01*
X17424Y6237D01*
Y6195D01*
X17416Y6175D01*
X17416Y6151D01*
X17415Y6132D01*
X17413Y6114D01*
X17410Y6100D01*
X17407Y6087D01*
X17404Y6077D01*
X17402Y6072D01*
X17242Y5912D01*
X17192Y5922D01*
X17181Y5931D01*
X17124Y6064D01*
X17145Y6115D01*
Y6237D01*
X17099Y6349D01*
X17013Y6434D01*
X16901Y6481D01*
X16780D01*
X16668Y6434D01*
X16582Y6349D01*
X16535Y6237D01*
Y6119D01*
X16526Y6110D01*
X16425Y6049D01*
X16216Y6259D01*
X16104Y6305D01*
X11557D01*
X11445Y6259D01*
X10761Y5575D01*
X10654Y5647D01*
X10657Y5654D01*
Y5776D01*
X10610Y5888D01*
X10525Y5973D01*
X10413Y6020D01*
X10291D01*
X10179Y5973D01*
X10094Y5888D01*
X10047Y5776D01*
Y5654D01*
X10094Y5542D01*
X10169Y5467D01*
X10164Y5420D01*
X10130Y5340D01*
X9850D01*
X9738Y5293D01*
X6456Y2011D01*
X6391Y2055D01*
X6156Y2101D01*
X5921Y2055D01*
X5722Y1922D01*
X5589Y1723D01*
X5543Y1488D01*
Y988D01*
X5589Y753D01*
X5722Y554D01*
X5921Y421D01*
X6156Y375D01*
X6391Y421D01*
X6590Y554D01*
X6713Y738D01*
X6781Y746D01*
X6849Y738D01*
X6972Y554D01*
X7171Y421D01*
X7406Y375D01*
X7641Y421D01*
X7840Y554D01*
X7963Y738D01*
X8031Y746D01*
X8099Y738D01*
X8222Y554D01*
X8421Y421D01*
X8656Y375D01*
X8891Y421D01*
X9090Y554D01*
X9213Y738D01*
X9281Y746D01*
X9349Y738D01*
X9472Y554D01*
X9671Y421D01*
X9906Y375D01*
X10141Y421D01*
X10340Y554D01*
X10473Y753D01*
X10519Y988D01*
Y1488D01*
X10473Y1723D01*
X10340Y1922D01*
X10322Y1933D01*
X10310Y2060D01*
X11558Y3308D01*
X11685Y3256D01*
Y3187D01*
X11732Y3075D01*
X11817Y2989D01*
X11861Y2971D01*
Y2834D01*
X11811Y2813D01*
X11725Y2727D01*
X11679Y2615D01*
Y2494D01*
X11725Y2382D01*
X11811Y2296D01*
X11850Y2280D01*
Y2143D01*
X11812Y2127D01*
X11726Y2041D01*
X11680Y1929D01*
Y1808D01*
X11726Y1696D01*
X11812Y1610D01*
X11924Y1564D01*
X12045D01*
X12157Y1610D01*
X12243Y1696D01*
X12290Y1808D01*
Y1929D01*
X12243Y2041D01*
X12157Y2127D01*
X12119Y2143D01*
Y2281D01*
X12157Y2296D01*
X12242Y2382D01*
X12289Y2494D01*
Y2615D01*
X12242Y2727D01*
X12157Y2813D01*
X12113Y2831D01*
Y2969D01*
X12163Y2989D01*
X12248Y3075D01*
X12295Y3187D01*
Y3308D01*
X12283Y3337D01*
X12368Y3464D01*
X13075D01*
X13145Y3337D01*
X13121Y3279D01*
Y3158D01*
X13168Y3046D01*
X13253Y2960D01*
X13297Y2942D01*
Y2804D01*
X13247Y2784D01*
X13161Y2698D01*
X13115Y2586D01*
Y2465D01*
X13161Y2353D01*
X13247Y2267D01*
X13286Y2251D01*
Y2113D01*
X13248Y2098D01*
X13162Y2012D01*
X13116Y1900D01*
Y1779D01*
X13162Y1667D01*
X13248Y1581D01*
X13360Y1535D01*
X13481D01*
X13576Y1574D01*
X13638Y1543D01*
X13690Y1498D01*
X13687Y1482D01*
Y982D01*
X13734Y747D01*
X13866Y548D01*
X14065Y415D01*
X14300Y369D01*
X14535Y415D01*
X14734Y548D01*
X14857Y732D01*
X14925Y740D01*
X14993Y732D01*
X15116Y548D01*
X15315Y415D01*
X15550Y369D01*
X15785Y415D01*
X15984Y548D01*
X16117Y747D01*
X16164Y982D01*
Y1482D01*
X16117Y1717D01*
X16073Y1782D01*
X16318Y2026D01*
X17571D01*
X17606Y1899D01*
X17484Y1717D01*
X17437Y1482D01*
Y982D01*
X17484Y747D01*
X17616Y548D01*
X17815Y415D01*
X18050Y369D01*
X18285Y415D01*
X18484Y548D01*
X18617Y747D01*
X18664Y982D01*
Y1074D01*
X21146D01*
X21231Y947D01*
X21219Y918D01*
Y797D01*
X21265Y685D01*
X21351Y599D01*
X21463Y552D01*
X21584D01*
X21696Y599D01*
X21782Y685D01*
X21828Y797D01*
Y918D01*
X21816Y947D01*
X21901Y1074D01*
X25376D01*
X25401Y947D01*
X25339Y921D01*
X25253Y835D01*
X25206Y723D01*
Y602D01*
X25253Y490D01*
X25339Y404D01*
X25451Y358D01*
X25445Y233D01*
X0D01*
Y235D01*
X-198Y261D01*
X-383Y337D01*
X-541Y459D01*
X-663Y617D01*
X-739Y802D01*
X-765Y1000D01*
X-767D01*
Y8148D01*
X-711Y8183D01*
X-640Y8201D01*
X-537Y8122D01*
X-520Y8086D01*
X-511Y7969D01*
X-527Y7953D01*
X-573Y7841D01*
Y7720D01*
X-527Y7608D01*
X-441Y7522D01*
X-329Y7476D01*
X-208D01*
X-96Y7522D01*
X-10Y7608D01*
X36Y7720D01*
Y7841D01*
X14Y7896D01*
X74Y8002D01*
X201Y8000D01*
Y7910D01*
X248Y7798D01*
X316Y7729D01*
X248Y7661D01*
X201Y7549D01*
Y7428D01*
X248Y7316D01*
X334Y7230D01*
X446Y7183D01*
X567D01*
X679Y7230D01*
X765Y7316D01*
X811Y7428D01*
Y7549D01*
X765Y7661D01*
X696Y7729D01*
X765Y7798D01*
X811Y7910D01*
Y8000D01*
X938Y8002D01*
X999Y7896D01*
X976Y7841D01*
Y7720D01*
X1023Y7608D01*
X1108Y7522D01*
X1220Y7476D01*
X1342D01*
X1454Y7522D01*
X1539Y7608D01*
X1586Y7720D01*
Y7841D01*
X1539Y7953D01*
X1524Y7969D01*
X1533Y8086D01*
X1550Y8122D01*
X1671Y8215D01*
X1775Y8351D01*
X1841Y8510D01*
X1863Y8680D01*
X1841Y8850D01*
X1775Y9009D01*
X1671Y9145D01*
X1576Y9217D01*
X1539Y9360D01*
X1586Y9472D01*
Y9594D01*
X1539Y9706D01*
X1454Y9791D01*
X1342Y9838D01*
X1220D01*
X1108Y9791D01*
X1023Y9706D01*
X976Y9594D01*
Y9513D01*
X892Y9417D01*
X873Y9404D01*
X801Y9426D01*
X765Y9515D01*
X696Y9584D01*
X765Y9652D01*
X811Y9764D01*
Y9886D01*
X765Y9998D01*
X679Y10083D01*
X567Y10130D01*
X446D01*
X334Y10083D01*
X248Y9998D01*
X201Y9886D01*
Y9764D01*
X248Y9652D01*
X316Y9584D01*
X248Y9515D01*
X211Y9426D01*
X139Y9404D01*
X121Y9417D01*
X36Y9513D01*
Y9594D01*
X-10Y9706D01*
X-96Y9791D01*
X-208Y9838D01*
X-329D01*
X-441Y9791D01*
X-527Y9706D01*
X-573Y9594D01*
Y9472D01*
X-527Y9360D01*
X-564Y9217D01*
X-640Y9159D01*
X-711Y9177D01*
X-767Y9212D01*
Y16788D01*
X-711Y16823D01*
X-640Y16841D01*
X-522Y16751D01*
X-513Y16747D01*
X-490Y16600D01*
X-527Y16564D01*
X-573Y16452D01*
Y16330D01*
X-527Y16218D01*
X-441Y16132D01*
X-329Y16086D01*
X-208D01*
X-96Y16132D01*
X-10Y16218D01*
X36Y16330D01*
Y16452D01*
X1Y16536D01*
X41Y16626D01*
X68Y16660D01*
X191Y16657D01*
X201Y16642D01*
Y16521D01*
X248Y16409D01*
X316Y16340D01*
X248Y16271D01*
X201Y16159D01*
Y16038D01*
X248Y15926D01*
X334Y15840D01*
X446Y15794D01*
X567D01*
X679Y15840D01*
X765Y15926D01*
X811Y16038D01*
Y16159D01*
X765Y16271D01*
X696Y16340D01*
X765Y16409D01*
X811Y16521D01*
Y16642D01*
X821Y16657D01*
X944Y16660D01*
X972Y16626D01*
X1011Y16536D01*
X976Y16452D01*
Y16330D01*
X1023Y16218D01*
X1108Y16132D01*
X1220Y16086D01*
X1342D01*
X1454Y16132D01*
X1539Y16218D01*
X1586Y16330D01*
Y16452D01*
X1539Y16564D01*
X1503Y16600D01*
X1525Y16747D01*
X1535Y16751D01*
X1671Y16855D01*
X1775Y16991D01*
X1841Y17150D01*
X1863Y17320D01*
X1841Y17490D01*
X1775Y17649D01*
X1671Y17785D01*
X1535Y17889D01*
X1528Y17892D01*
X1503Y18040D01*
X1536Y18072D01*
X1582Y18184D01*
Y18306D01*
X1536Y18418D01*
X1450Y18503D01*
X1338Y18550D01*
X1217D01*
X1105Y18503D01*
X1019Y18418D01*
X973Y18306D01*
Y18184D01*
X1006Y18104D01*
X963Y18009D01*
X938Y17981D01*
X813Y17985D01*
X808Y17994D01*
Y18115D01*
X761Y18227D01*
X693Y18296D01*
X761Y18365D01*
X808Y18477D01*
Y18598D01*
X761Y18710D01*
X676Y18796D01*
X564Y18842D01*
X442D01*
X330Y18796D01*
X245Y18710D01*
X198Y18598D01*
Y18477D01*
X245Y18365D01*
X313Y18296D01*
X245Y18227D01*
X198Y18115D01*
Y17994D01*
X192Y17985D01*
X68Y17981D01*
X43Y18009D01*
X-0Y18104D01*
X33Y18184D01*
Y18306D01*
X-13Y18418D01*
X-99Y18503D01*
X-211Y18550D01*
X-332D01*
X-444Y18503D01*
X-530Y18418D01*
X-577Y18306D01*
Y18184D01*
X-530Y18072D01*
X-496Y18038D01*
X-519Y17891D01*
X-522Y17889D01*
X-640Y17799D01*
X-711Y17817D01*
X-767Y17852D01*
Y25000D01*
X-765D01*
X-739Y25198D01*
X-663Y25383D01*
X-541Y25541D01*
X-383Y25663D01*
X-198Y25739D01*
X0Y25765D01*
Y25767D01*
X12380D01*
X12433Y25640D01*
X12391Y25598D01*
X12344Y25486D01*
Y25365D01*
X12391Y25253D01*
X12477Y25167D01*
X12589Y25121D01*
X12710D01*
X12822Y25167D01*
X12908Y25253D01*
X12954Y25365D01*
Y25486D01*
X12908Y25598D01*
X12866Y25640D01*
X12918Y25767D01*
X18227D01*
X18279Y25640D01*
X18238Y25598D01*
X18191Y25486D01*
Y25365D01*
X18238Y25253D01*
X18323Y25167D01*
X18435Y25121D01*
X18557D01*
X18669Y25167D01*
X18754Y25253D01*
X18801Y25365D01*
Y25486D01*
X18754Y25598D01*
X18713Y25640D01*
X18765Y25767D01*
X22747D01*
X22789Y25640D01*
X22733Y25584D01*
X22686Y25472D01*
Y25350D01*
X22733Y25238D01*
X22819Y25153D01*
X22931Y25106D01*
X23052D01*
X23164Y25153D01*
X23250Y25238D01*
X23296Y25350D01*
Y25472D01*
X23250Y25584D01*
X23193Y25640D01*
X23235Y25767D01*
X23685D01*
X23696Y25748D01*
D02*
G37*
G36*
X38208Y22014D02*
X38181Y22014D01*
X38133Y22010D01*
X38111Y22006D01*
X38091Y22001D01*
X38073Y21995D01*
X38056Y21988D01*
X38040Y21980D01*
X38027Y21970D01*
X38015Y21960D01*
X37952Y22022D01*
X37963Y22034D01*
X37972Y22048D01*
X37980Y22063D01*
X37988Y22080D01*
X37994Y22099D01*
X37999Y22119D01*
X38002Y22140D01*
X38005Y22164D01*
X38006Y22189D01*
X38007Y22215D01*
X38208Y22014D01*
D02*
G37*
G36*
X44768Y22086D02*
X44732Y22018D01*
X44724Y21998D01*
X44711Y21961D01*
X44707Y21944D01*
X44705Y21929D01*
X44704Y21915D01*
X44615Y21892D01*
X44614Y21909D01*
X44611Y21926D01*
X44605Y21942D01*
X44598Y21958D01*
X44588Y21973D01*
X44576Y21988D01*
X44562Y22002D01*
X44546Y22016D01*
X44528Y22029D01*
X44507Y22042D01*
X44783Y22111D01*
X44768Y22086D01*
D02*
G37*
G36*
X47968D02*
X47932Y22018D01*
X47924Y21998D01*
X47911Y21961D01*
X47907Y21944D01*
X47905Y21929D01*
X47904Y21915D01*
X47815Y21892D01*
X47814Y21909D01*
X47811Y21926D01*
X47805Y21942D01*
X47798Y21958D01*
X47788Y21973D01*
X47776Y21988D01*
X47762Y22002D01*
X47746Y22016D01*
X47728Y22029D01*
X47707Y22042D01*
X47983Y22111D01*
X47968Y22086D01*
D02*
G37*
G36*
X14656Y21771D02*
X14660Y21723D01*
X14664Y21701D01*
X14669Y21681D01*
X14675Y21663D01*
X14682Y21646D01*
X14690Y21631D01*
X14700Y21617D01*
X14710Y21605D01*
X14648Y21542D01*
X14636Y21553D01*
X14622Y21562D01*
X14607Y21571D01*
X14590Y21578D01*
X14571Y21584D01*
X14551Y21589D01*
X14530Y21592D01*
X14506Y21595D01*
X14481Y21596D01*
X14455Y21597D01*
X14656Y21798D01*
X14656Y21771D01*
D02*
G37*
G36*
X42502Y21459D02*
X42515Y21450D01*
X42531Y21442D01*
X42548Y21434D01*
X42566Y21428D01*
X42586Y21423D01*
X42608Y21420D01*
X42631Y21417D01*
X42656Y21416D01*
X42683Y21415D01*
X42482Y21214D01*
X42481Y21241D01*
X42477Y21289D01*
X42474Y21311D01*
X42469Y21331D01*
X42463Y21349D01*
X42455Y21366D01*
X42447Y21382D01*
X42438Y21395D01*
X42427Y21407D01*
X42490Y21470D01*
X42502Y21459D01*
D02*
G37*
G36*
X47311Y21107D02*
X47308Y21110D01*
X47305Y21113D01*
X47300Y21115D01*
X47294Y21117D01*
X47286Y21119D01*
X47278Y21120D01*
X47268Y21122D01*
X47245Y21123D01*
X47231Y21123D01*
Y21212D01*
X47241Y21212D01*
X47257Y21214D01*
X47263Y21215D01*
X47269Y21217D01*
X47273Y21219D01*
X47277Y21222D01*
X47280Y21225D01*
X47282Y21229D01*
X47283Y21233D01*
X47311Y21107D01*
D02*
G37*
G36*
X40490Y21198D02*
X40497Y21149D01*
X40502Y21127D01*
X40508Y21107D01*
X40515Y21088D01*
X40522Y21071D01*
X40531Y21056D01*
X40540Y21043D01*
X40551Y21031D01*
X40493Y20963D01*
X40480Y20974D01*
X40467Y20984D01*
X40451Y20992D01*
X40434Y20998D01*
X40416Y21004D01*
X40396Y21008D01*
X40375Y21010D01*
X40352Y21012D01*
X40328Y21011D01*
X40302Y21010D01*
X40488Y21226D01*
X40490Y21198D01*
D02*
G37*
G36*
X49288Y21184D02*
X49292Y21135D01*
X49296Y21114D01*
X49301Y21093D01*
X49307Y21075D01*
X49314Y21058D01*
X49323Y21043D01*
X49332Y21029D01*
X49343Y21017D01*
X49280Y20954D01*
X49268Y20965D01*
X49254Y20974D01*
X49239Y20983D01*
X49222Y20990D01*
X49204Y20996D01*
X49183Y21001D01*
X49162Y21005D01*
X49138Y21007D01*
X49113Y21009D01*
X49087Y21009D01*
X49288Y21210D01*
X49288Y21184D01*
D02*
G37*
G36*
X43483Y21009D02*
X43456Y21009D01*
X43408Y21005D01*
X43386Y21001D01*
X43366Y20996D01*
X43348Y20990D01*
X43331Y20983D01*
X43315Y20974D01*
X43302Y20965D01*
X43290Y20954D01*
X43227Y21017D01*
X43238Y21029D01*
X43247Y21043D01*
X43255Y21058D01*
X43263Y21075D01*
X43269Y21093D01*
X43274Y21114D01*
X43277Y21135D01*
X43280Y21159D01*
X43281Y21184D01*
X43282Y21210D01*
X43483Y21009D01*
D02*
G37*
G36*
X37083D02*
X37056Y21009D01*
X37008Y21005D01*
X36986Y21001D01*
X36966Y20996D01*
X36948Y20990D01*
X36931Y20983D01*
X36915Y20974D01*
X36902Y20965D01*
X36890Y20954D01*
X36827Y21017D01*
X36838Y21029D01*
X36847Y21043D01*
X36855Y21058D01*
X36863Y21075D01*
X36869Y21093D01*
X36874Y21114D01*
X36877Y21135D01*
X36880Y21159D01*
X36881Y21184D01*
X36882Y21210D01*
X37083Y21009D01*
D02*
G37*
G36*
X38043Y21081D02*
X38007Y21013D01*
X37999Y20992D01*
X37986Y20956D01*
X37982Y20939D01*
X37980Y20924D01*
X37979Y20910D01*
X37890Y20887D01*
X37889Y20904D01*
X37886Y20921D01*
X37880Y20937D01*
X37873Y20953D01*
X37863Y20968D01*
X37851Y20983D01*
X37837Y20997D01*
X37821Y21011D01*
X37803Y21024D01*
X37782Y21037D01*
X38058Y21106D01*
X38043Y21081D01*
D02*
G37*
G36*
X38843Y21081D02*
X38807Y21013D01*
X38799Y20992D01*
X38786Y20956D01*
X38782Y20939D01*
X38780Y20924D01*
X38779Y20910D01*
X38690Y20887D01*
X38689Y20904D01*
X38686Y20921D01*
X38680Y20937D01*
X38673Y20953D01*
X38663Y20968D01*
X38651Y20983D01*
X38637Y20997D01*
X38621Y21011D01*
X38603Y21024D01*
X38582Y21037D01*
X38858Y21106D01*
X38843Y21081D01*
D02*
G37*
G36*
X45156Y19373D02*
X45170Y19364D01*
X45185Y19356D01*
X45202Y19348D01*
X45220Y19342D01*
X45240Y19337D01*
X45262Y19334D01*
X45285Y19331D01*
X45310Y19330D01*
X45337Y19329D01*
X45136Y19128D01*
X45136Y19155D01*
X45131Y19203D01*
X45128Y19225D01*
X45123Y19245D01*
X45117Y19263D01*
X45110Y19280D01*
X45101Y19296D01*
X45092Y19309D01*
X45081Y19321D01*
X45144Y19384D01*
X45156Y19373D01*
D02*
G37*
G36*
X43205Y19172D02*
X43208Y19155D01*
X43213Y19139D01*
X43220Y19122D01*
X43229Y19104D01*
X43239Y19087D01*
X43252Y19069D01*
X43267Y19050D01*
X43283Y19032D01*
X43302Y19013D01*
X43018D01*
X43036Y19032D01*
X43067Y19069D01*
X43080Y19087D01*
X43091Y19104D01*
X43100Y19122D01*
X43107Y19139D01*
X43111Y19155D01*
X43114Y19172D01*
X43115Y19188D01*
X43204D01*
X43205Y19172D01*
D02*
G37*
G36*
X48960Y18821D02*
X48959Y18797D01*
X48960Y18774D01*
X48963Y18753D01*
X48966Y18733D01*
X48972Y18715D01*
X48978Y18698D01*
X48986Y18683D01*
X48996Y18669D01*
X49007Y18657D01*
X48938Y18600D01*
X48926Y18610D01*
X48913Y18620D01*
X48898Y18628D01*
X48881Y18636D01*
X48862Y18643D01*
X48842Y18649D01*
X48820Y18654D01*
X48770Y18662D01*
X48743Y18665D01*
X48962Y18847D01*
X48960Y18821D01*
D02*
G37*
G36*
X40883Y18703D02*
X40852Y18666D01*
X40839Y18648D01*
X40829Y18631D01*
X40820Y18613D01*
X40813Y18596D01*
X40808Y18580D01*
X40805Y18563D01*
X40804Y18547D01*
X40715D01*
X40714Y18563D01*
X40711Y18580D01*
X40707Y18596D01*
X40700Y18613D01*
X40691Y18631D01*
X40680Y18648D01*
X40667Y18666D01*
X40653Y18685D01*
X40636Y18703D01*
X40618Y18722D01*
X40902D01*
X40883Y18703D01*
D02*
G37*
G36*
X47136Y18380D02*
X47227Y18337D01*
X47246Y18330D01*
X47280Y18321D01*
X47295Y18319D01*
X47308Y18318D01*
X47335Y18229D01*
X47317Y18228D01*
X47301Y18225D01*
X47285Y18220D01*
X47269Y18212D01*
X47254Y18202D01*
X47240Y18190D01*
X47226Y18176D01*
X47213Y18160D01*
X47201Y18142D01*
X47189Y18121D01*
X47110Y18394D01*
X47136Y18380D01*
D02*
G37*
G36*
X47855Y17722D02*
X47858Y17705D01*
X47863Y17689D01*
X47870Y17672D01*
X47879Y17654D01*
X47889Y17637D01*
X47902Y17619D01*
X47917Y17600D01*
X47933Y17581D01*
X47952Y17562D01*
X47668D01*
X47686Y17581D01*
X47717Y17619D01*
X47730Y17637D01*
X47741Y17654D01*
X47750Y17672D01*
X47757Y17689D01*
X47761Y17705D01*
X47764Y17722D01*
X47765Y17738D01*
X47854D01*
X47855Y17722D01*
D02*
G37*
G36*
X43920Y17606D02*
X43921Y17594D01*
X43922Y17583D01*
X43925Y17574D01*
X43928Y17566D01*
X43932Y17558D01*
X43936Y17552D01*
X43941Y17547D01*
X43947Y17543D01*
X43954Y17540D01*
X43798Y17530D01*
X43804Y17534D01*
X43809Y17539D01*
X43814Y17545D01*
X43819Y17552D01*
X43822Y17560D01*
X43825Y17570D01*
X43827Y17580D01*
X43829Y17592D01*
X43830Y17604D01*
X43830Y17618D01*
X43919D01*
X43920Y17606D01*
D02*
G37*
G36*
X41657Y15209D02*
X41660Y15193D01*
X41665Y15176D01*
X41672Y15159D01*
X41680Y15142D01*
X41691Y15124D01*
X41704Y15106D01*
X41719Y15088D01*
X41735Y15069D01*
X41754Y15050D01*
X41469D01*
X41488Y15069D01*
X41519Y15106D01*
X41532Y15124D01*
X41543Y15142D01*
X41551Y15159D01*
X41558Y15176D01*
X41563Y15193D01*
X41566Y15209D01*
X41567Y15225D01*
X41656D01*
X41657Y15209D01*
D02*
G37*
G36*
X26194Y14789D02*
X26180Y14809D01*
X26165Y14827D01*
X26151Y14843D01*
X26136Y14857D01*
X26120Y14869D01*
X26104Y14878D01*
X26088Y14886D01*
X26072Y14891D01*
X26056Y14894D01*
X26039Y14895D01*
X26056Y14984D01*
X26071Y14985D01*
X26086Y14988D01*
X26103Y14992D01*
X26121Y14998D01*
X26139Y15005D01*
X26159Y15015D01*
X26202Y15038D01*
X26224Y15052D01*
X26248Y15068D01*
X26194Y14789D01*
D02*
G37*
G36*
X26567Y14873D02*
X26571Y14824D01*
X26575Y14803D01*
X26580Y14782D01*
X26586Y14764D01*
X26593Y14747D01*
X26601Y14732D01*
X26611Y14718D01*
X26622Y14706D01*
X26559Y14643D01*
X26547Y14654D01*
X26533Y14663D01*
X26518Y14672D01*
X26501Y14679D01*
X26482Y14685D01*
X26462Y14690D01*
X26441Y14694D01*
X26417Y14696D01*
X26392Y14698D01*
X26366Y14698D01*
X26567Y14899D01*
X26567Y14873D01*
D02*
G37*
G36*
X42016Y14809D02*
X42017Y14794D01*
X42019Y14779D01*
X42024Y14762D01*
X42030Y14744D01*
X42037Y14726D01*
X42047Y14706D01*
X42071Y14664D01*
X42085Y14642D01*
X42102Y14618D01*
X41821Y14667D01*
X41842Y14682D01*
X41859Y14697D01*
X41875Y14712D01*
X41889Y14727D01*
X41901Y14743D01*
X41910Y14759D01*
X41918Y14775D01*
X41923Y14791D01*
X41926Y14808D01*
X41927Y14825D01*
X42016Y14809D01*
D02*
G37*
G36*
X43076Y14586D02*
X43113Y14555D01*
X43131Y14542D01*
X43148Y14531D01*
X43166Y14523D01*
X43183Y14516D01*
X43199Y14511D01*
X43216Y14508D01*
X43232Y14507D01*
Y14418D01*
X43216Y14417D01*
X43199Y14414D01*
X43183Y14409D01*
X43166Y14402D01*
X43148Y14394D01*
X43131Y14383D01*
X43113Y14370D01*
X43094Y14355D01*
X43076Y14339D01*
X43057Y14320D01*
Y14605D01*
X43076Y14586D01*
D02*
G37*
G36*
X32083Y14118D02*
X32056Y14118D01*
X32008Y14114D01*
X31986Y14110D01*
X31966Y14105D01*
X31947Y14099D01*
X31931Y14092D01*
X31915Y14083D01*
X31902Y14074D01*
X31890Y14063D01*
X31827Y14126D01*
X31837Y14138D01*
X31847Y14152D01*
X31855Y14167D01*
X31862Y14184D01*
X31869Y14202D01*
X31873Y14222D01*
X31877Y14244D01*
X31880Y14268D01*
X31881Y14293D01*
X31882Y14319D01*
X32083Y14118D01*
D02*
G37*
G36*
X41776Y13936D02*
X41813Y13905D01*
X41831Y13892D01*
X41848Y13881D01*
X41866Y13873D01*
X41883Y13866D01*
X41899Y13861D01*
X41916Y13858D01*
X41932Y13857D01*
Y13768D01*
X41916Y13767D01*
X41899Y13764D01*
X41883Y13759D01*
X41866Y13752D01*
X41848Y13744D01*
X41831Y13733D01*
X41813Y13720D01*
X41794Y13705D01*
X41776Y13689D01*
X41757Y13670D01*
Y13955D01*
X41776Y13936D01*
D02*
G37*
G36*
X43169Y13357D02*
X43159Y13345D01*
X43149Y13332D01*
X43141Y13317D01*
X43134Y13300D01*
X43128Y13281D01*
X43123Y13261D01*
X43119Y13239D01*
X43117Y13216D01*
X43115Y13191D01*
X43115Y13164D01*
X42914Y13366D01*
X42940Y13366D01*
X42989Y13370D01*
X43010Y13374D01*
X43030Y13379D01*
X43049Y13385D01*
X43066Y13392D01*
X43081Y13400D01*
X43095Y13410D01*
X43107Y13420D01*
X43169Y13357D01*
D02*
G37*
G36*
X41869D02*
X41859Y13345D01*
X41849Y13332D01*
X41841Y13317D01*
X41834Y13300D01*
X41828Y13281D01*
X41823Y13261D01*
X41819Y13239D01*
X41817Y13216D01*
X41815Y13191D01*
X41815Y13164D01*
X41614Y13366D01*
X41640Y13366D01*
X41688Y13370D01*
X41710Y13374D01*
X41730Y13379D01*
X41749Y13385D01*
X41766Y13392D01*
X41781Y13400D01*
X41795Y13410D01*
X41807Y13420D01*
X41869Y13357D01*
D02*
G37*
G36*
X41219D02*
X41209Y13345D01*
X41199Y13332D01*
X41191Y13317D01*
X41184Y13300D01*
X41178Y13281D01*
X41173Y13261D01*
X41169Y13239D01*
X41167Y13216D01*
X41165Y13191D01*
X41165Y13164D01*
X40964Y13366D01*
X40990Y13366D01*
X41038Y13370D01*
X41060Y13374D01*
X41080Y13379D01*
X41099Y13385D01*
X41116Y13392D01*
X41131Y13400D01*
X41145Y13410D01*
X41157Y13420D01*
X41219Y13357D01*
D02*
G37*
G36*
X37529Y13410D02*
X37542Y13400D01*
X37557Y13392D01*
X37574Y13385D01*
X37593Y13379D01*
X37613Y13374D01*
X37635Y13370D01*
X37658Y13367D01*
X37683Y13366D01*
X37710Y13366D01*
X37508Y13164D01*
X37508Y13191D01*
X37504Y13239D01*
X37500Y13261D01*
X37495Y13281D01*
X37489Y13300D01*
X37482Y13317D01*
X37474Y13332D01*
X37464Y13345D01*
X37454Y13357D01*
X37517Y13420D01*
X37529Y13410D01*
D02*
G37*
G36*
X36669Y13357D02*
X36659Y13345D01*
X36649Y13332D01*
X36641Y13317D01*
X36634Y13300D01*
X36628Y13281D01*
X36623Y13261D01*
X36619Y13239D01*
X36617Y13216D01*
X36615Y13191D01*
X36615Y13164D01*
X36414Y13366D01*
X36440Y13366D01*
X36488Y13370D01*
X36510Y13374D01*
X36530Y13379D01*
X36549Y13385D01*
X36566Y13392D01*
X36581Y13400D01*
X36595Y13410D01*
X36607Y13420D01*
X36669Y13357D01*
D02*
G37*
G36*
X31694Y12875D02*
X31683Y12863D01*
X31674Y12850D01*
X31666Y12834D01*
X31658Y12817D01*
X31652Y12799D01*
X31647Y12779D01*
X31644Y12757D01*
X31641Y12734D01*
X31640Y12709D01*
X31639Y12682D01*
X31438Y12883D01*
X31465Y12884D01*
X31513Y12888D01*
X31535Y12892D01*
X31555Y12896D01*
X31573Y12902D01*
X31590Y12910D01*
X31605Y12918D01*
X31619Y12927D01*
X31631Y12938D01*
X31694Y12875D01*
D02*
G37*
G36*
X44469Y12707D02*
X44459Y12695D01*
X44449Y12682D01*
X44441Y12667D01*
X44434Y12650D01*
X44428Y12631D01*
X44423Y12611D01*
X44419Y12589D01*
X44417Y12566D01*
X44415Y12541D01*
X44415Y12514D01*
X44214Y12716D01*
X44240Y12716D01*
X44289Y12720D01*
X44310Y12724D01*
X44330Y12729D01*
X44349Y12735D01*
X44366Y12742D01*
X44381Y12750D01*
X44395Y12760D01*
X44407Y12770D01*
X44469Y12707D01*
D02*
G37*
G36*
X43169D02*
X43159Y12695D01*
X43149Y12682D01*
X43141Y12667D01*
X43134Y12650D01*
X43128Y12631D01*
X43123Y12611D01*
X43119Y12589D01*
X43117Y12566D01*
X43115Y12541D01*
X43115Y12514D01*
X42914Y12716D01*
X42940Y12716D01*
X42989Y12720D01*
X43010Y12724D01*
X43030Y12729D01*
X43049Y12735D01*
X43066Y12742D01*
X43081Y12750D01*
X43095Y12760D01*
X43107Y12770D01*
X43169Y12707D01*
D02*
G37*
G36*
X40779Y12760D02*
X40792Y12750D01*
X40807Y12742D01*
X40824Y12735D01*
X40843Y12729D01*
X40863Y12724D01*
X40885Y12720D01*
X40908Y12717D01*
X40933Y12716D01*
X40960Y12716D01*
X40758Y12514D01*
X40758Y12541D01*
X40754Y12589D01*
X40750Y12611D01*
X40745Y12631D01*
X40739Y12650D01*
X40732Y12667D01*
X40724Y12682D01*
X40714Y12695D01*
X40704Y12707D01*
X40767Y12770D01*
X40779Y12760D01*
D02*
G37*
G36*
X40129D02*
X40142Y12750D01*
X40157Y12742D01*
X40174Y12735D01*
X40193Y12729D01*
X40213Y12724D01*
X40235Y12720D01*
X40258Y12717D01*
X40283Y12716D01*
X40310Y12716D01*
X40108Y12514D01*
X40108Y12541D01*
X40104Y12589D01*
X40100Y12611D01*
X40095Y12631D01*
X40089Y12650D01*
X40082Y12667D01*
X40074Y12682D01*
X40064Y12695D01*
X40054Y12707D01*
X40117Y12770D01*
X40129Y12760D01*
D02*
G37*
G36*
X30840Y12652D02*
X30844Y12603D01*
X30847Y12582D01*
X30852Y12562D01*
X30858Y12543D01*
X30866Y12526D01*
X30874Y12511D01*
X30883Y12497D01*
X30894Y12485D01*
X30831Y12422D01*
X30819Y12433D01*
X30805Y12443D01*
X30790Y12451D01*
X30773Y12458D01*
X30755Y12464D01*
X30735Y12469D01*
X30713Y12473D01*
X30690Y12475D01*
X30665Y12477D01*
X30638Y12477D01*
X30839Y12678D01*
X30840Y12652D01*
D02*
G37*
G36*
X38619Y12057D02*
X38609Y12045D01*
X38599Y12032D01*
X38591Y12017D01*
X38584Y12000D01*
X38578Y11981D01*
X38573Y11961D01*
X38569Y11939D01*
X38567Y11916D01*
X38565Y11891D01*
X38565Y11864D01*
X38364Y12066D01*
X38390Y12066D01*
X38438Y12070D01*
X38460Y12074D01*
X38480Y12079D01*
X38499Y12085D01*
X38516Y12092D01*
X38531Y12100D01*
X38545Y12110D01*
X38557Y12120D01*
X38619Y12057D01*
D02*
G37*
G36*
X30840Y11852D02*
X30844Y11803D01*
X30847Y11782D01*
X30852Y11762D01*
X30858Y11743D01*
X30866Y11726D01*
X30874Y11711D01*
X30883Y11697D01*
X30894Y11685D01*
X30831Y11622D01*
X30819Y11633D01*
X30805Y11643D01*
X30790Y11651D01*
X30773Y11658D01*
X30755Y11664D01*
X30735Y11669D01*
X30713Y11673D01*
X30690Y11675D01*
X30665Y11677D01*
X30638Y11677D01*
X30839Y11878D01*
X30840Y11852D01*
D02*
G37*
G36*
X30040D02*
X30044Y11803D01*
X30047Y11782D01*
X30052Y11762D01*
X30058Y11743D01*
X30066Y11726D01*
X30074Y11711D01*
X30083Y11697D01*
X30094Y11685D01*
X30031Y11622D01*
X30019Y11633D01*
X30005Y11643D01*
X29990Y11651D01*
X29973Y11658D01*
X29955Y11664D01*
X29935Y11669D01*
X29913Y11673D01*
X29890Y11675D01*
X29865Y11677D01*
X29838Y11677D01*
X30039Y11878D01*
X30040Y11852D01*
D02*
G37*
G36*
X38179Y11460D02*
X38192Y11450D01*
X38208Y11442D01*
X38224Y11435D01*
X38243Y11429D01*
X38263Y11424D01*
X38285Y11420D01*
X38308Y11417D01*
X38333Y11416D01*
X38360Y11416D01*
X38158Y11214D01*
X38158Y11241D01*
X38154Y11289D01*
X38150Y11311D01*
X38145Y11331D01*
X38139Y11350D01*
X38132Y11367D01*
X38124Y11382D01*
X38114Y11395D01*
X38104Y11407D01*
X38167Y11470D01*
X38179Y11460D01*
D02*
G37*
G36*
X37710Y11009D02*
X37683Y11009D01*
X37635Y11005D01*
X37613Y11001D01*
X37593Y10996D01*
X37574Y10990D01*
X37557Y10983D01*
X37542Y10975D01*
X37529Y10965D01*
X37517Y10955D01*
X37454Y11017D01*
X37464Y11029D01*
X37474Y11043D01*
X37482Y11058D01*
X37489Y11075D01*
X37495Y11094D01*
X37500Y11114D01*
X37504Y11136D01*
X37507Y11159D01*
X37508Y11184D01*
X37508Y11210D01*
X37710Y11009D01*
D02*
G37*
G36*
X42910D02*
X42905Y11008D01*
X42898Y11006D01*
X42891Y11002D01*
X42882Y10996D01*
X42872Y10988D01*
X42848Y10968D01*
X42803Y10924D01*
X42623Y11104D01*
X42640Y11120D01*
X42695Y11183D01*
X42701Y11192D01*
X42705Y11199D01*
X42708Y11205D01*
X42708Y11210D01*
X42910Y11009D01*
D02*
G37*
G36*
X29240Y11052D02*
X29244Y11003D01*
X29247Y10982D01*
X29252Y10962D01*
X29258Y10943D01*
X29266Y10926D01*
X29274Y10911D01*
X29283Y10897D01*
X29294Y10885D01*
X29231Y10822D01*
X29219Y10833D01*
X29205Y10843D01*
X29190Y10851D01*
X29173Y10858D01*
X29155Y10864D01*
X29135Y10869D01*
X29113Y10873D01*
X29090Y10875D01*
X29065Y10877D01*
X29038Y10877D01*
X29239Y11078D01*
X29240Y11052D01*
D02*
G37*
G36*
X36615Y10534D02*
X36619Y10486D01*
X36623Y10464D01*
X36628Y10444D01*
X36634Y10425D01*
X36641Y10408D01*
X36649Y10393D01*
X36659Y10379D01*
X36669Y10367D01*
X36607Y10305D01*
X36595Y10315D01*
X36581Y10325D01*
X36566Y10333D01*
X36549Y10340D01*
X36530Y10346D01*
X36510Y10351D01*
X36488Y10355D01*
X36465Y10357D01*
X36440Y10359D01*
X36414Y10359D01*
X36615Y10560D01*
X36615Y10534D01*
D02*
G37*
G36*
X30040Y10252D02*
X30044Y10203D01*
X30047Y10182D01*
X30052Y10162D01*
X30058Y10143D01*
X30066Y10126D01*
X30074Y10111D01*
X30083Y10097D01*
X30094Y10085D01*
X30031Y10022D01*
X30019Y10033D01*
X30005Y10043D01*
X29990Y10051D01*
X29973Y10058D01*
X29955Y10064D01*
X29935Y10069D01*
X29913Y10073D01*
X29890Y10075D01*
X29865Y10077D01*
X29838Y10077D01*
X30039Y10278D01*
X30040Y10252D01*
D02*
G37*
G36*
X35860Y10160D02*
X35873Y10150D01*
X35889Y10142D01*
X35905Y10135D01*
X35924Y10129D01*
X35944Y10124D01*
X35966Y10120D01*
X35989Y10117D01*
X36014Y10116D01*
X36041Y10116D01*
X35839Y9914D01*
X35839Y9941D01*
X35835Y9989D01*
X35831Y10011D01*
X35826Y10031D01*
X35820Y10050D01*
X35813Y10067D01*
X35805Y10082D01*
X35795Y10095D01*
X35785Y10107D01*
X35848Y10170D01*
X35860Y10160D01*
D02*
G37*
G36*
X39479Y9510D02*
X39492Y9500D01*
X39507Y9492D01*
X39524Y9485D01*
X39543Y9479D01*
X39563Y9474D01*
X39585Y9470D01*
X39608Y9467D01*
X39633Y9466D01*
X39660Y9466D01*
X39458Y9264D01*
X39458Y9291D01*
X39454Y9339D01*
X39450Y9361D01*
X39445Y9381D01*
X39439Y9400D01*
X39432Y9417D01*
X39424Y9432D01*
X39414Y9445D01*
X39404Y9457D01*
X39467Y9520D01*
X39479Y9510D01*
D02*
G37*
G36*
X39057Y8267D02*
X39060Y8250D01*
X39065Y8234D01*
X39072Y8217D01*
X39080Y8199D01*
X39091Y8182D01*
X39104Y8164D01*
X39119Y8145D01*
X39135Y8127D01*
X39154Y8107D01*
X38869D01*
X38888Y8127D01*
X38919Y8164D01*
X38932Y8182D01*
X38943Y8199D01*
X38951Y8217D01*
X38958Y8234D01*
X38963Y8250D01*
X38966Y8267D01*
X38967Y8283D01*
X39056D01*
X39057Y8267D01*
D02*
G37*
G36*
X28282Y8184D02*
X28285Y8168D01*
X28289Y8151D01*
X28296Y8134D01*
X28305Y8117D01*
X28316Y8099D01*
X28329Y8081D01*
X28343Y8063D01*
X28360Y8044D01*
X28378Y8025D01*
X28094D01*
X28112Y8044D01*
X28144Y8081D01*
X28156Y8099D01*
X28167Y8117D01*
X28176Y8134D01*
X28183Y8151D01*
X28188Y8168D01*
X28191Y8184D01*
X28192Y8200D01*
X28281D01*
X28282Y8184D01*
D02*
G37*
G36*
X45419Y8234D02*
X45482Y8179D01*
X45491Y8173D01*
X45499Y8169D01*
X45505Y8166D01*
X45510Y8166D01*
X45308Y7964D01*
X45308Y7969D01*
X45305Y7976D01*
X45301Y7983D01*
X45295Y7992D01*
X45287Y8002D01*
X45267Y8026D01*
X45223Y8071D01*
X45403Y8251D01*
X45419Y8234D01*
D02*
G37*
G36*
X36879Y8210D02*
X36892Y8200D01*
X36908Y8192D01*
X36924Y8185D01*
X36943Y8179D01*
X36963Y8174D01*
X36985Y8170D01*
X37008Y8167D01*
X37033Y8166D01*
X37060Y8166D01*
X36858Y7964D01*
X36858Y7991D01*
X36854Y8039D01*
X36850Y8061D01*
X36845Y8081D01*
X36839Y8100D01*
X36832Y8116D01*
X36824Y8132D01*
X36814Y8145D01*
X36804Y8157D01*
X36867Y8220D01*
X36879Y8210D01*
D02*
G37*
G36*
X29294Y8075D02*
X29283Y8063D01*
X29274Y8050D01*
X29266Y8034D01*
X29258Y8017D01*
X29252Y7999D01*
X29247Y7979D01*
X29244Y7957D01*
X29241Y7934D01*
X29240Y7909D01*
X29239Y7882D01*
X29038Y8083D01*
X29065Y8084D01*
X29113Y8088D01*
X29135Y8092D01*
X29155Y8096D01*
X29173Y8102D01*
X29190Y8110D01*
X29205Y8118D01*
X29219Y8127D01*
X29231Y8138D01*
X29294Y8075D01*
D02*
G37*
G36*
X36266Y7820D02*
X36247Y7839D01*
X36210Y7870D01*
X36192Y7883D01*
X36175Y7893D01*
X36157Y7902D01*
X36140Y7909D01*
X36124Y7914D01*
X36107Y7917D01*
X36091Y7918D01*
Y8007D01*
X36107Y8008D01*
X36124Y8011D01*
X36140Y8016D01*
X36157Y8022D01*
X36175Y8031D01*
X36192Y8042D01*
X36210Y8055D01*
X36229Y8069D01*
X36247Y8086D01*
X36266Y8105D01*
Y7820D01*
D02*
G37*
G36*
X26840Y7852D02*
X26844Y7803D01*
X26847Y7782D01*
X26852Y7762D01*
X26858Y7743D01*
X26866Y7726D01*
X26874Y7711D01*
X26883Y7697D01*
X26894Y7685D01*
X26831Y7622D01*
X26819Y7633D01*
X26805Y7643D01*
X26790Y7651D01*
X26773Y7658D01*
X26755Y7664D01*
X26735Y7669D01*
X26713Y7673D01*
X26690Y7675D01*
X26665Y7677D01*
X26638Y7677D01*
X26839Y7878D01*
X26840Y7852D01*
D02*
G37*
G36*
X25960Y7716D02*
X25929Y7679D01*
X25916Y7661D01*
X25905Y7643D01*
X25896Y7626D01*
X25889Y7609D01*
X25885Y7592D01*
X25882Y7576D01*
X25881Y7560D01*
X25792D01*
X25791Y7576D01*
X25788Y7592D01*
X25783Y7609D01*
X25776Y7626D01*
X25767Y7643D01*
X25757Y7661D01*
X25744Y7679D01*
X25729Y7697D01*
X25712Y7716D01*
X25694Y7735D01*
X25978D01*
X25960Y7716D01*
D02*
G37*
G36*
X38829Y7560D02*
X38842Y7550D01*
X38857Y7542D01*
X38874Y7535D01*
X38893Y7529D01*
X38913Y7524D01*
X38935Y7520D01*
X38958Y7517D01*
X38983Y7516D01*
X39010Y7516D01*
X38808Y7314D01*
X38808Y7341D01*
X38804Y7389D01*
X38800Y7411D01*
X38795Y7431D01*
X38789Y7450D01*
X38782Y7466D01*
X38774Y7482D01*
X38764Y7495D01*
X38754Y7507D01*
X38817Y7570D01*
X38829Y7560D01*
D02*
G37*
G36*
X37529D02*
X37542Y7550D01*
X37557Y7542D01*
X37574Y7535D01*
X37593Y7529D01*
X37613Y7524D01*
X37635Y7520D01*
X37658Y7517D01*
X37683Y7516D01*
X37710Y7516D01*
X37508Y7314D01*
X37508Y7341D01*
X37504Y7389D01*
X37500Y7411D01*
X37495Y7431D01*
X37489Y7450D01*
X37482Y7466D01*
X37474Y7482D01*
X37464Y7495D01*
X37454Y7507D01*
X37517Y7570D01*
X37529Y7560D01*
D02*
G37*
G36*
X28494Y7275D02*
X28483Y7263D01*
X28474Y7250D01*
X28466Y7234D01*
X28458Y7217D01*
X28452Y7199D01*
X28447Y7179D01*
X28444Y7157D01*
X28441Y7134D01*
X28440Y7109D01*
X28439Y7082D01*
X28238Y7283D01*
X28265Y7284D01*
X28313Y7288D01*
X28335Y7292D01*
X28355Y7296D01*
X28373Y7302D01*
X28390Y7310D01*
X28405Y7318D01*
X28419Y7327D01*
X28431Y7338D01*
X28494Y7275D01*
D02*
G37*
G36*
X29200Y7204D02*
X29237Y7173D01*
X29255Y7160D01*
X29273Y7149D01*
X29290Y7140D01*
X29307Y7134D01*
X29324Y7129D01*
X29340Y7126D01*
X29356Y7125D01*
Y7036D01*
X29340Y7035D01*
X29324Y7032D01*
X29307Y7027D01*
X29290Y7020D01*
X29273Y7011D01*
X29255Y7001D01*
X29237Y6988D01*
X29219Y6973D01*
X29200Y6957D01*
X29181Y6938D01*
Y7222D01*
X29200Y7204D01*
D02*
G37*
G36*
X37529Y6910D02*
X37542Y6900D01*
X37557Y6892D01*
X37574Y6885D01*
X37593Y6879D01*
X37613Y6874D01*
X37635Y6870D01*
X37658Y6867D01*
X37683Y6866D01*
X37710Y6866D01*
X37508Y6664D01*
X37508Y6691D01*
X37504Y6739D01*
X37500Y6761D01*
X37495Y6781D01*
X37489Y6800D01*
X37482Y6816D01*
X37474Y6832D01*
X37464Y6845D01*
X37454Y6857D01*
X37517Y6920D01*
X37529Y6910D01*
D02*
G37*
G36*
X30453Y6527D02*
X30467Y6518D01*
X30482Y6510D01*
X30499Y6502D01*
X30517Y6496D01*
X30538Y6492D01*
X30559Y6488D01*
X30583Y6485D01*
X30608Y6484D01*
X30634Y6483D01*
X30433Y6282D01*
X30433Y6309D01*
X30429Y6357D01*
X30425Y6379D01*
X30420Y6399D01*
X30414Y6417D01*
X30407Y6434D01*
X30398Y6450D01*
X30389Y6463D01*
X30378Y6475D01*
X30441Y6538D01*
X30453Y6527D01*
D02*
G37*
G36*
X45329Y6260D02*
X45342Y6250D01*
X45358Y6242D01*
X45374Y6235D01*
X45393Y6229D01*
X45413Y6224D01*
X45435Y6220D01*
X45458Y6217D01*
X45483Y6216D01*
X45510Y6216D01*
X45308Y6014D01*
X45308Y6041D01*
X45304Y6089D01*
X45300Y6111D01*
X45295Y6131D01*
X45289Y6150D01*
X45282Y6166D01*
X45274Y6182D01*
X45264Y6195D01*
X45254Y6207D01*
X45317Y6270D01*
X45329Y6260D01*
D02*
G37*
G36*
X44679D02*
X44692Y6250D01*
X44708Y6242D01*
X44724Y6235D01*
X44743Y6229D01*
X44763Y6224D01*
X44785Y6220D01*
X44808Y6217D01*
X44833Y6216D01*
X44860Y6216D01*
X44658Y6014D01*
X44658Y6041D01*
X44654Y6089D01*
X44650Y6111D01*
X44645Y6131D01*
X44639Y6150D01*
X44632Y6166D01*
X44624Y6182D01*
X44614Y6195D01*
X44604Y6207D01*
X44667Y6270D01*
X44679Y6260D01*
D02*
G37*
G36*
X36879D02*
X36892Y6250D01*
X36908Y6242D01*
X36924Y6235D01*
X36943Y6229D01*
X36963Y6224D01*
X36985Y6220D01*
X37008Y6217D01*
X37033Y6216D01*
X37060Y6216D01*
X36858Y6014D01*
X36858Y6041D01*
X36854Y6089D01*
X36850Y6111D01*
X36845Y6131D01*
X36839Y6150D01*
X36832Y6166D01*
X36824Y6182D01*
X36814Y6195D01*
X36804Y6207D01*
X36867Y6270D01*
X36879Y6260D01*
D02*
G37*
G36*
X20447Y6185D02*
X20451Y6136D01*
X20455Y6115D01*
X20460Y6094D01*
X20466Y6076D01*
X20473Y6059D01*
X20482Y6044D01*
X20491Y6030D01*
X20502Y6018D01*
X20439Y5955D01*
X20427Y5966D01*
X20413Y5975D01*
X20398Y5984D01*
X20381Y5991D01*
X20363Y5997D01*
X20342Y6002D01*
X20321Y6006D01*
X20297Y6008D01*
X20272Y6010D01*
X20246Y6010D01*
X20447Y6211D01*
X20447Y6185D01*
D02*
G37*
G36*
X17727Y5973D02*
X17701Y5972D01*
X17652Y5968D01*
X17631Y5965D01*
X17610Y5960D01*
X17592Y5954D01*
X17575Y5947D01*
X17560Y5938D01*
X17546Y5929D01*
X17534Y5918D01*
X17471Y5981D01*
X17482Y5993D01*
X17491Y6007D01*
X17500Y6022D01*
X17507Y6039D01*
X17513Y6057D01*
X17518Y6077D01*
X17522Y6099D01*
X17524Y6122D01*
X17526Y6147D01*
X17526Y6174D01*
X17727Y5973D01*
D02*
G37*
G36*
X46810Y5809D02*
X46783Y5809D01*
X46735Y5805D01*
X46713Y5801D01*
X46693Y5796D01*
X46674Y5790D01*
X46658Y5783D01*
X46642Y5775D01*
X46629Y5765D01*
X46617Y5755D01*
X46554Y5817D01*
X46564Y5829D01*
X46574Y5843D01*
X46582Y5858D01*
X46589Y5875D01*
X46595Y5894D01*
X46600Y5914D01*
X46604Y5935D01*
X46607Y5959D01*
X46608Y5984D01*
X46608Y6010D01*
X46810Y5809D01*
D02*
G37*
G36*
X46160Y5809D02*
X46133Y5809D01*
X46085Y5805D01*
X46063Y5801D01*
X46043Y5796D01*
X46024Y5790D01*
X46008Y5783D01*
X45992Y5775D01*
X45979Y5765D01*
X45967Y5755D01*
X45904Y5817D01*
X45914Y5829D01*
X45924Y5843D01*
X45932Y5858D01*
X45939Y5875D01*
X45945Y5894D01*
X45950Y5914D01*
X45954Y5935D01*
X45957Y5959D01*
X45958Y5984D01*
X45958Y6010D01*
X46160Y5809D01*
D02*
G37*
G36*
X36209Y5348D02*
X36208Y5352D01*
X36207Y5355D01*
X36204Y5357D01*
X36201Y5360D01*
X36196Y5361D01*
X36191Y5363D01*
X36185Y5364D01*
X36178Y5365D01*
X36170Y5366D01*
X36161Y5366D01*
Y5455D01*
X36174Y5455D01*
X36215Y5458D01*
X36222Y5459D01*
X36228Y5461D01*
X36232Y5463D01*
X36236Y5465D01*
X36238Y5468D01*
X36209Y5348D01*
D02*
G37*
G36*
X20250Y5518D02*
X20287Y5486D01*
X20305Y5474D01*
X20323Y5463D01*
X20340Y5454D01*
X20357Y5447D01*
X20374Y5442D01*
X20390Y5439D01*
X20406Y5438D01*
Y5350D01*
X20390Y5349D01*
X20374Y5346D01*
X20357Y5341D01*
X20340Y5334D01*
X20323Y5325D01*
X20305Y5314D01*
X20287Y5302D01*
X20269Y5287D01*
X20250Y5270D01*
X20231Y5252D01*
Y5536D01*
X20250Y5518D01*
D02*
G37*
G36*
X31640Y5452D02*
X31644Y5403D01*
X31647Y5382D01*
X31652Y5362D01*
X31658Y5343D01*
X31666Y5326D01*
X31674Y5311D01*
X31683Y5297D01*
X31694Y5285D01*
X31631Y5222D01*
X31619Y5233D01*
X31605Y5243D01*
X31590Y5251D01*
X31573Y5258D01*
X31555Y5264D01*
X31535Y5269D01*
X31513Y5273D01*
X31490Y5275D01*
X31465Y5277D01*
X31438Y5277D01*
X31639Y5478D01*
X31640Y5452D01*
D02*
G37*
G36*
X26040D02*
X26044Y5403D01*
X26047Y5382D01*
X26052Y5362D01*
X26058Y5343D01*
X26066Y5326D01*
X26074Y5311D01*
X26083Y5297D01*
X26094Y5285D01*
X26031Y5222D01*
X26019Y5233D01*
X26005Y5243D01*
X25990Y5251D01*
X25973Y5258D01*
X25955Y5264D01*
X25935Y5269D01*
X25913Y5273D01*
X25890Y5275D01*
X25865Y5277D01*
X25838Y5277D01*
X26039Y5478D01*
X26040Y5452D01*
D02*
G37*
G36*
X17727Y5118D02*
X17701Y5117D01*
X17652Y5113D01*
X17631Y5110D01*
X17610Y5105D01*
X17592Y5099D01*
X17575Y5091D01*
X17560Y5083D01*
X17546Y5074D01*
X17534Y5063D01*
X17471Y5126D01*
X17482Y5138D01*
X17491Y5151D01*
X17500Y5167D01*
X17507Y5184D01*
X17513Y5202D01*
X17518Y5222D01*
X17522Y5244D01*
X17524Y5267D01*
X17526Y5292D01*
X17526Y5319D01*
X17727Y5118D01*
D02*
G37*
G36*
X38619Y4907D02*
X38609Y4895D01*
X38599Y4882D01*
X38591Y4866D01*
X38584Y4850D01*
X38578Y4831D01*
X38573Y4811D01*
X38569Y4789D01*
X38567Y4766D01*
X38565Y4741D01*
X38565Y4714D01*
X38364Y4916D01*
X38390Y4916D01*
X38438Y4920D01*
X38460Y4924D01*
X38480Y4929D01*
X38499Y4935D01*
X38516Y4942D01*
X38531Y4950D01*
X38545Y4960D01*
X38557Y4970D01*
X38619Y4907D01*
D02*
G37*
G36*
X37529Y4960D02*
X37542Y4950D01*
X37557Y4942D01*
X37574Y4935D01*
X37593Y4929D01*
X37613Y4924D01*
X37635Y4920D01*
X37658Y4917D01*
X37683Y4916D01*
X37710Y4916D01*
X37508Y4714D01*
X37508Y4741D01*
X37504Y4789D01*
X37500Y4811D01*
X37495Y4831D01*
X37489Y4850D01*
X37482Y4866D01*
X37474Y4882D01*
X37464Y4895D01*
X37454Y4907D01*
X37517Y4970D01*
X37529Y4960D01*
D02*
G37*
G36*
X36266Y4570D02*
X36247Y4589D01*
X36210Y4620D01*
X36192Y4633D01*
X36175Y4643D01*
X36157Y4652D01*
X36140Y4659D01*
X36124Y4664D01*
X36107Y4667D01*
X36091Y4668D01*
Y4757D01*
X36107Y4758D01*
X36124Y4761D01*
X36140Y4766D01*
X36157Y4772D01*
X36175Y4781D01*
X36192Y4792D01*
X36210Y4805D01*
X36229Y4819D01*
X36247Y4836D01*
X36266Y4855D01*
Y4570D01*
D02*
G37*
G36*
X46160Y4509D02*
X46133Y4509D01*
X46085Y4505D01*
X46063Y4501D01*
X46043Y4496D01*
X46024Y4490D01*
X46008Y4483D01*
X45992Y4475D01*
X45979Y4465D01*
X45967Y4455D01*
X45904Y4517D01*
X45914Y4529D01*
X45924Y4543D01*
X45932Y4558D01*
X45939Y4575D01*
X45945Y4594D01*
X45950Y4614D01*
X45954Y4635D01*
X45957Y4659D01*
X45958Y4684D01*
X45958Y4710D01*
X46160Y4509D01*
D02*
G37*
G36*
X45510D02*
X45483Y4509D01*
X45435Y4505D01*
X45413Y4501D01*
X45393Y4496D01*
X45374Y4490D01*
X45358Y4483D01*
X45342Y4475D01*
X45329Y4465D01*
X45317Y4455D01*
X45254Y4517D01*
X45264Y4529D01*
X45274Y4543D01*
X45282Y4558D01*
X45289Y4575D01*
X45295Y4594D01*
X45300Y4614D01*
X45304Y4635D01*
X45307Y4659D01*
X45308Y4684D01*
X45308Y4710D01*
X45510Y4509D01*
D02*
G37*
G36*
X15494Y5862D02*
X15469Y5801D01*
Y5680D01*
X15515Y5568D01*
X15601Y5482D01*
X15713Y5436D01*
X15834D01*
X15946Y5482D01*
X16032Y5568D01*
X16078Y5680D01*
Y5769D01*
X16171Y5825D01*
X16196Y5832D01*
X16444Y5584D01*
X16485Y5566D01*
X16554Y5514D01*
X16549Y5413D01*
X16535Y5381D01*
Y5260D01*
X16547Y5231D01*
X16463Y5104D01*
X11517D01*
X11405Y5058D01*
X10784Y4437D01*
X10657Y4489D01*
Y4540D01*
X10610Y4652D01*
X10525Y4737D01*
X10413Y4784D01*
X10291D01*
X10179Y4737D01*
X10094Y4652D01*
X10047Y4540D01*
Y4418D01*
X10094Y4306D01*
X10179Y4221D01*
X10225Y4202D01*
X10279Y4062D01*
X10278Y4053D01*
X10264Y4031D01*
X9791D01*
X9679Y3984D01*
X7706Y2011D01*
X7641Y2055D01*
X7406Y2101D01*
X7171Y2055D01*
X7034Y1963D01*
X6953Y2062D01*
X9915Y5024D01*
X10592D01*
X10704Y5070D01*
X11622Y5989D01*
X15425D01*
X15494Y5862D01*
D02*
G37*
G36*
X17727Y4262D02*
X17701Y4262D01*
X17652Y4258D01*
X17631Y4254D01*
X17610Y4249D01*
X17592Y4243D01*
X17575Y4236D01*
X17560Y4228D01*
X17546Y4218D01*
X17534Y4208D01*
X17471Y4271D01*
X17482Y4283D01*
X17491Y4296D01*
X17500Y4312D01*
X17507Y4328D01*
X17513Y4347D01*
X17518Y4367D01*
X17522Y4389D01*
X17524Y4412D01*
X17526Y4437D01*
X17526Y4464D01*
X17727Y4262D01*
D02*
G37*
G36*
X16605Y4661D02*
X16582Y4638D01*
X16535Y4526D01*
Y4405D01*
X16557Y4352D01*
X16484Y4225D01*
X11235D01*
X11173Y4199D01*
X11101Y4307D01*
X11582Y4788D01*
X16552D01*
X16605Y4661D01*
D02*
G37*
G36*
X46365Y4034D02*
X46369Y3985D01*
X46373Y3964D01*
X46378Y3944D01*
X46384Y3925D01*
X46391Y3908D01*
X46399Y3893D01*
X46409Y3879D01*
X46419Y3867D01*
X46357Y3805D01*
X46345Y3815D01*
X46331Y3825D01*
X46316Y3833D01*
X46299Y3840D01*
X46280Y3846D01*
X46260Y3851D01*
X46239Y3855D01*
X46215Y3857D01*
X46190Y3859D01*
X46164Y3859D01*
X46365Y4060D01*
X46365Y4034D01*
D02*
G37*
G36*
X47015Y4034D02*
X47019Y3985D01*
X47023Y3964D01*
X47028Y3944D01*
X47034Y3925D01*
X47041Y3908D01*
X47049Y3893D01*
X47059Y3879D01*
X47069Y3867D01*
X47007Y3805D01*
X46995Y3815D01*
X46981Y3825D01*
X46966Y3833D01*
X46949Y3840D01*
X46930Y3846D01*
X46910Y3851D01*
X46889Y3855D01*
X46865Y3857D01*
X46840Y3859D01*
X46814Y3859D01*
X47015Y4060D01*
X47015Y4034D01*
D02*
G37*
G36*
X17576Y3477D02*
X17559Y3496D01*
X17524Y3528D01*
X17507Y3542D01*
X17490Y3553D01*
X17473Y3562D01*
X17456Y3569D01*
X17440Y3574D01*
X17423Y3577D01*
X17407Y3578D01*
X17412Y3667D01*
X17428Y3668D01*
X17444Y3671D01*
X17461Y3675D01*
X17478Y3682D01*
X17496Y3690D01*
X17514Y3701D01*
X17533Y3713D01*
X17552Y3727D01*
X17593Y3761D01*
X17576Y3477D01*
D02*
G37*
G36*
X10114Y2029D02*
X10114Y2012D01*
X10115Y1996D01*
X10117Y1982D01*
X10120Y1970D01*
X10124Y1959D01*
X10128Y1949D01*
X10134Y1941D01*
X10140Y1935D01*
X10147Y1930D01*
X10155Y1926D01*
X9985Y1982D01*
X9993Y1980D01*
X9999Y1980D01*
X10005Y1982D01*
X10010Y1985D01*
X10015Y1991D01*
X10018Y1998D01*
X10021Y2006D01*
X10023Y2017D01*
X10024Y2029D01*
X10025Y2043D01*
X10114Y2029D01*
D02*
G37*
G36*
X9101Y1870D02*
X9088Y1856D01*
X9077Y1844D01*
X9068Y1832D01*
X9061Y1820D01*
X9057Y1810D01*
X9054Y1800D01*
X9053Y1792D01*
X9054Y1783D01*
X9057Y1776D01*
X9063Y1769D01*
X8937Y1895D01*
X8944Y1889D01*
X8951Y1886D01*
X8960Y1885D01*
X8968Y1886D01*
X8978Y1889D01*
X8988Y1893D01*
X9000Y1900D01*
X9012Y1909D01*
X9024Y1920D01*
X9038Y1933D01*
X9101Y1870D01*
D02*
G37*
G36*
X7851D02*
X7838Y1856D01*
X7827Y1844D01*
X7818Y1832D01*
X7811Y1820D01*
X7807Y1810D01*
X7804Y1800D01*
X7803Y1792D01*
X7804Y1783D01*
X7807Y1776D01*
X7813Y1769D01*
X7687Y1895D01*
X7694Y1889D01*
X7701Y1886D01*
X7710Y1885D01*
X7718Y1886D01*
X7728Y1889D01*
X7738Y1893D01*
X7750Y1900D01*
X7762Y1909D01*
X7774Y1920D01*
X7788Y1933D01*
X7851Y1870D01*
D02*
G37*
G36*
X6601D02*
X6588Y1856D01*
X6577Y1844D01*
X6568Y1832D01*
X6561Y1820D01*
X6557Y1810D01*
X6554Y1800D01*
X6553Y1792D01*
X6554Y1783D01*
X6557Y1776D01*
X6563Y1769D01*
X6437Y1895D01*
X6444Y1889D01*
X6451Y1886D01*
X6460Y1885D01*
X6468Y1886D01*
X6478Y1889D01*
X6488Y1893D01*
X6500Y1900D01*
X6512Y1909D01*
X6524Y1920D01*
X6538Y1933D01*
X6601Y1870D01*
D02*
G37*
G36*
X15995Y1864D02*
X15982Y1850D01*
X15971Y1837D01*
X15962Y1826D01*
X15956Y1814D01*
X15951Y1804D01*
X15948Y1794D01*
X15947Y1785D01*
X15948Y1777D01*
X15952Y1770D01*
X15957Y1763D01*
X15832Y1888D01*
X15838Y1883D01*
X15846Y1880D01*
X15854Y1879D01*
X15863Y1880D01*
X15872Y1882D01*
X15883Y1887D01*
X15894Y1894D01*
X15906Y1903D01*
X15918Y1914D01*
X15932Y1926D01*
X15995Y1864D01*
D02*
G37*
G36*
X14745D02*
X14732Y1850D01*
X14721Y1837D01*
X14712Y1826D01*
X14706Y1814D01*
X14701Y1804D01*
X14698Y1794D01*
X14697Y1785D01*
X14698Y1777D01*
X14702Y1770D01*
X14707Y1763D01*
X14582Y1888D01*
X14588Y1883D01*
X14596Y1880D01*
X14604Y1879D01*
X14613Y1880D01*
X14622Y1882D01*
X14633Y1887D01*
X14644Y1894D01*
X14656Y1903D01*
X14668Y1914D01*
X14682Y1926D01*
X14745Y1864D01*
D02*
G37*
G36*
X45818Y2033D02*
X45815Y2010D01*
X45813Y1988D01*
X45814Y1968D01*
X45816Y1949D01*
X45820Y1931D01*
X45826Y1915D01*
X45834Y1900D01*
X45844Y1886D01*
X45855Y1873D01*
X45778Y1824D01*
X45767Y1833D01*
X45755Y1843D01*
X45740Y1851D01*
X45723Y1860D01*
X45705Y1868D01*
X45662Y1883D01*
X45638Y1890D01*
X45583Y1903D01*
X45822Y2057D01*
X45818Y2033D01*
D02*
G37*
G36*
X35512Y1890D02*
X35623Y1844D01*
X38972D01*
X39012Y1861D01*
X39110D01*
X39185Y1747D01*
X39157Y1632D01*
X39040Y1590D01*
X38961Y1670D01*
X38849Y1716D01*
X36102D01*
X35990Y1670D01*
X35742Y1421D01*
X34896D01*
X34849Y1469D01*
Y1971D01*
X34802Y2083D01*
X34259Y2626D01*
X34147Y2673D01*
X33190D01*
X33138Y2800D01*
X33540Y3202D01*
X34200D01*
X35512Y1890D01*
D02*
G37*
G36*
X51665Y1773D02*
X51679Y1764D01*
X51694Y1756D01*
X51711Y1749D01*
X51729Y1745D01*
X51748Y1742D01*
X51769Y1740D01*
X51791Y1740D01*
X51815Y1741D01*
X51840Y1745D01*
X51669Y1517D01*
X51665Y1545D01*
X51655Y1595D01*
X51649Y1617D01*
X51635Y1656D01*
X51626Y1673D01*
X51618Y1688D01*
X51608Y1701D01*
X51598Y1712D01*
X51652Y1784D01*
X51665Y1773D01*
D02*
G37*
G36*
X25533Y1934D02*
X25536Y1899D01*
X25457Y1821D01*
X25411Y1709D01*
Y1587D01*
X25440Y1517D01*
X25377Y1390D01*
X18664D01*
Y1482D01*
X18617Y1717D01*
X18495Y1899D01*
X18529Y2026D01*
X25501D01*
X25533Y1934D01*
D02*
G37*
G36*
X48735Y1577D02*
X48772Y1546D01*
X48790Y1533D01*
X48808Y1522D01*
X48825Y1514D01*
X48842Y1507D01*
X48859Y1502D01*
X48875Y1499D01*
X48891Y1498D01*
Y1409D01*
X48875Y1408D01*
X48859Y1405D01*
X48842Y1400D01*
X48825Y1393D01*
X48808Y1385D01*
X48790Y1374D01*
X48772Y1361D01*
X48754Y1346D01*
X48735Y1330D01*
X48716Y1311D01*
Y1596D01*
X48735Y1577D01*
D02*
G37*
G36*
X18549Y1312D02*
X18552Y1305D01*
X18557Y1298D01*
X18563Y1292D01*
X18571Y1287D01*
X18581Y1283D01*
X18593Y1280D01*
X18607Y1278D01*
X18623Y1277D01*
X18640Y1276D01*
Y1187D01*
X18623Y1187D01*
X18607Y1186D01*
X18593Y1183D01*
X18581Y1180D01*
X18571Y1176D01*
X18563Y1171D01*
X18557Y1166D01*
X18552Y1159D01*
X18549Y1151D01*
X18548Y1143D01*
Y1321D01*
X18549Y1312D01*
D02*
G37*
G36*
X48216Y1142D02*
X48254Y1111D01*
X48272Y1098D01*
X48289Y1088D01*
X48307Y1079D01*
X48324Y1072D01*
X48341Y1067D01*
X48357Y1064D01*
X48373Y1063D01*
X48373Y974D01*
X48357Y973D01*
X48341Y970D01*
X48324Y965D01*
X48307Y959D01*
X48290Y950D01*
X48273Y939D01*
X48255Y926D01*
X48236Y911D01*
X48218Y895D01*
X48199Y876D01*
X48197Y1161D01*
X48216Y1142D01*
D02*
G37*
G36*
X33548Y1899D02*
X33524Y1841D01*
Y1720D01*
X33571Y1608D01*
X33584Y1595D01*
X33574Y1539D01*
X33540Y1459D01*
X33450Y1421D01*
X33364Y1336D01*
X33318Y1224D01*
Y1102D01*
X33364Y990D01*
X33306Y869D01*
X31161D01*
X31077Y962D01*
X31074Y991D01*
X31186Y1037D01*
X31272Y1123D01*
X31318Y1235D01*
Y1356D01*
X31272Y1468D01*
X31186Y1554D01*
X31074Y1600D01*
X30953D01*
X30841Y1554D01*
X30755Y1468D01*
X30709Y1356D01*
Y1235D01*
X30755Y1123D01*
X30841Y1037D01*
X30953Y991D01*
X30949Y962D01*
X30866Y869D01*
X28222D01*
X28164Y990D01*
X28210Y1102D01*
Y1224D01*
X28164Y1336D01*
X28151Y1349D01*
X28203Y1476D01*
X28259D01*
X28371Y1522D01*
X28457Y1608D01*
X28503Y1720D01*
Y1841D01*
X28479Y1899D01*
X28550Y2026D01*
X33478D01*
X33548Y1899D01*
D02*
G37*
G36*
X51840Y762D02*
X51815Y765D01*
X51791Y766D01*
X51769Y766D01*
X51748Y765D01*
X51729Y762D01*
X51711Y757D01*
X51694Y750D01*
X51679Y742D01*
X51665Y733D01*
X51652Y722D01*
X51598Y794D01*
X51608Y805D01*
X51618Y818D01*
X51626Y833D01*
X51635Y850D01*
X51642Y869D01*
X51649Y889D01*
X51660Y935D01*
X51665Y961D01*
X51669Y989D01*
X51840Y762D01*
D02*
G37*
G36*
X48497Y349D02*
X48476Y366D01*
X48435Y396D01*
X48416Y408D01*
X48397Y418D01*
X48379Y426D01*
X48362Y433D01*
X48345Y437D01*
X48329Y440D01*
X48314Y441D01*
X48306Y530D01*
X48322Y531D01*
X48339Y534D01*
X48355Y539D01*
X48372Y546D01*
X48388Y555D01*
X48405Y567D01*
X48422Y580D01*
X48438Y595D01*
X48455Y613D01*
X48472Y632D01*
X48497Y349D01*
D02*
G37*
G36*
X44815Y2182D02*
X44815Y2181D01*
X44805Y2157D01*
Y2046D01*
X44848Y1944D01*
X44927Y1865D01*
X45029Y1822D01*
X45140D01*
X45243Y1865D01*
X45272Y1893D01*
X45354Y1929D01*
X45437Y1893D01*
X45466Y1865D01*
X45487Y1856D01*
X45489Y1845D01*
X45490Y1844D01*
X45490Y1844D01*
X45524Y1820D01*
X45558Y1796D01*
X45610Y1784D01*
X45629Y1778D01*
X45665Y1765D01*
X45676Y1760D01*
X45685Y1756D01*
X46552Y889D01*
X46500Y762D01*
X46491D01*
X46379Y716D01*
X46293Y630D01*
X46247Y518D01*
Y397D01*
X46262Y360D01*
X46179Y233D01*
X45798D01*
X45715Y360D01*
X45730Y397D01*
Y518D01*
X45684Y630D01*
X45598Y716D01*
X45486Y762D01*
X45365D01*
X45253Y716D01*
X45167Y630D01*
X45034D01*
X44948Y716D01*
X44836Y762D01*
X44714D01*
X44602Y716D01*
X44517Y630D01*
X44470Y518D01*
Y397D01*
X44485Y360D01*
X44402Y233D01*
X43611D01*
X43527Y360D01*
X43543Y397D01*
Y518D01*
X43496Y630D01*
X43410Y716D01*
X43349Y741D01*
X43335Y802D01*
X43333Y879D01*
X44708Y2254D01*
X44815Y2182D01*
D02*
G37*
%LPC*%
G36*
X28722Y23838D02*
X28601D01*
X28489Y23792D01*
X28404Y23707D01*
X28320Y23792D01*
X28208Y23838D01*
X28087D01*
X27975Y23792D01*
X27890Y23707D01*
X27806Y23792D01*
X27694Y23838D01*
X27572D01*
X27460Y23792D01*
X27375Y23706D01*
X27328Y23594D01*
Y23473D01*
X27375Y23361D01*
X27460Y23275D01*
X27572Y23228D01*
X27694D01*
X27806Y23275D01*
X27890Y23359D01*
X27975Y23275D01*
X28087Y23228D01*
X28208D01*
X28320Y23275D01*
X28404Y23359D01*
X28489Y23275D01*
X28601Y23228D01*
X28722D01*
X28834Y23275D01*
X28920Y23361D01*
X28966Y23473D01*
Y23594D01*
X28920Y23706D01*
X28834Y23792D01*
X28722Y23838D01*
D02*
G37*
G36*
X55249Y25166D02*
X55007D01*
X54783Y25074D01*
X54611Y24902D01*
X54519Y24678D01*
Y24435D01*
X54611Y24211D01*
X54783Y24040D01*
X54902Y23990D01*
Y23853D01*
X54783Y23804D01*
X54611Y23632D01*
X54562Y23513D01*
X54424D01*
X54375Y23632D01*
X54203Y23804D01*
X53979Y23896D01*
X53737D01*
X53513Y23804D01*
X53341Y23632D01*
X53292Y23513D01*
X53154D01*
X53105Y23632D01*
X52933Y23804D01*
X52814Y23853D01*
Y23990D01*
X52933Y24040D01*
X53105Y24211D01*
X53198Y24435D01*
Y24678D01*
X53105Y24902D01*
X52933Y25074D01*
X52709Y25166D01*
X52467D01*
X52243Y25074D01*
X52071Y24902D01*
X52022Y24783D01*
X51884D01*
X51835Y24902D01*
X51663Y25074D01*
X51439Y25166D01*
X51197D01*
X50973Y25074D01*
X50801Y24902D01*
X50709Y24678D01*
Y24435D01*
X50801Y24211D01*
X50973Y24040D01*
X51013Y24023D01*
X51006Y23889D01*
X50709Y23592D01*
Y22982D01*
X50802Y22889D01*
X50801Y22850D01*
X50764Y22747D01*
X50688Y22715D01*
X50602Y22630D01*
X50555Y22518D01*
Y22396D01*
X50602Y22284D01*
X50688Y22199D01*
X50800Y22152D01*
X50921D01*
X51033Y22199D01*
X51119Y22284D01*
X51165Y22396D01*
Y22518D01*
X51152Y22550D01*
X51236Y22677D01*
X51582D01*
X51675Y22572D01*
X51653Y22518D01*
Y22396D01*
X51699Y22284D01*
X51785Y22199D01*
X51897Y22152D01*
X52018D01*
X52130Y22199D01*
X52216Y22284D01*
X52263Y22396D01*
Y22518D01*
X52216Y22630D01*
X52175Y22671D01*
X52243Y22770D01*
X52467Y22677D01*
X52679D01*
X52748Y22606D01*
X52770Y22565D01*
X52750Y22518D01*
Y22396D01*
X52797Y22284D01*
X52883Y22199D01*
X52995Y22152D01*
X53116D01*
X53228Y22199D01*
X53314Y22284D01*
X53360Y22396D01*
Y22518D01*
X53314Y22630D01*
X53228Y22715D01*
X53116Y22762D01*
X53105D01*
X53052Y22889D01*
X53105Y22941D01*
X53154Y23061D01*
X53292D01*
X53341Y22941D01*
X53513Y22770D01*
X53737Y22677D01*
X53777D01*
X53861Y22550D01*
X53848Y22518D01*
Y22396D01*
X53894Y22284D01*
X53980Y22199D01*
X54092Y22152D01*
X54213D01*
X54325Y22199D01*
X54411Y22284D01*
X54458Y22396D01*
Y22518D01*
X54411Y22630D01*
X54325Y22715D01*
X54298Y22864D01*
X54375Y22941D01*
X54424Y23061D01*
X54562D01*
X54611Y22941D01*
X54783Y22770D01*
X55007Y22677D01*
X55249D01*
X55473Y22770D01*
X55645Y22941D01*
X55738Y23165D01*
Y23408D01*
X55645Y23632D01*
X55473Y23804D01*
X55354Y23853D01*
Y23990D01*
X55473Y24040D01*
X55645Y24211D01*
X55738Y24435D01*
Y24678D01*
X55645Y24902D01*
X55473Y25074D01*
X55249Y25166D01*
D02*
G37*
G36*
X30856Y25177D02*
X29977D01*
X29899Y25145D01*
X29564Y24810D01*
X29532Y24732D01*
Y20757D01*
X28969Y20195D01*
X28962Y20177D01*
X28948Y20164D01*
X28946Y20139D01*
X28937Y20117D01*
X28944Y20099D01*
X28944Y20080D01*
X28989Y19952D01*
X28991Y19950D01*
Y19948D01*
X29019Y19920D01*
X29046Y19890D01*
X29049Y19890D01*
X29051Y19888D01*
X29143Y19850D01*
X29197Y19795D01*
X29227Y19724D01*
Y19646D01*
X29197Y19575D01*
X29143Y19520D01*
X29071Y19490D01*
X28993D01*
X28922Y19520D01*
X28867Y19575D01*
X28829Y19666D01*
X28827Y19668D01*
X28827Y19671D01*
X28798Y19698D01*
X28769Y19726D01*
X28767D01*
X28765Y19728D01*
X28638Y19774D01*
X28618Y19773D01*
X28600Y19780D01*
X28578Y19771D01*
X28554Y19770D01*
X28541Y19755D01*
X28523Y19748D01*
X28428Y19653D01*
X26036D01*
X25999Y19717D01*
X25975Y19780D01*
X26016Y19878D01*
Y20000D01*
X25970Y20112D01*
X25884Y20197D01*
X25772Y20244D01*
X25651D01*
X25539Y20197D01*
X25453Y20112D01*
X25407Y20000D01*
Y19878D01*
X25453Y19766D01*
X25476Y19744D01*
X25507Y19634D01*
X25472Y19582D01*
X23842Y17952D01*
X23809Y17874D01*
Y17007D01*
X23842Y16929D01*
X24076Y16695D01*
X24154Y16663D01*
X24857D01*
X24877Y16671D01*
X24899D01*
X24915Y16686D01*
X24935Y16695D01*
X24943Y16715D01*
X24959Y16730D01*
X25011Y16857D01*
Y16879D01*
X25020Y16900D01*
X25011Y16920D01*
Y16942D01*
X24996Y16957D01*
X24987Y16977D01*
X24981Y16984D01*
X24951Y17055D01*
Y17133D01*
X24981Y17205D01*
X25036Y17259D01*
X25107Y17289D01*
X25185D01*
X25256Y17259D01*
X25311Y17205D01*
X25341Y17133D01*
Y17055D01*
X25303Y16964D01*
Y16955D01*
X25303Y16955D01*
X25300Y16949D01*
X25298Y16948D01*
X25298Y16946D01*
X25285Y16921D01*
X25284Y16902D01*
X25290Y16884D01*
X25287Y16865D01*
X25314Y16761D01*
X25329Y16742D01*
X25337Y16718D01*
X25337Y16718D01*
X25351Y16701D01*
X25356Y16699D01*
X25357Y16695D01*
X25392Y16680D01*
X25426Y16663D01*
X25426Y16663D01*
X25431Y16664D01*
X25435Y16663D01*
X30348D01*
X30425Y16695D01*
X31400Y17669D01*
X31432Y17747D01*
Y18060D01*
X31427Y18070D01*
X31430Y18081D01*
X31412Y18108D01*
X31400Y18138D01*
X31467Y18227D01*
X31513Y18339D01*
Y18461D01*
X31467Y18573D01*
X31400Y18662D01*
X31412Y18692D01*
X31430Y18719D01*
X31427Y18730D01*
X31432Y18740D01*
Y19718D01*
X31423Y19738D01*
X31423Y19760D01*
X31408Y19775D01*
X31400Y19795D01*
X31379Y19804D01*
X31364Y19819D01*
X31282Y19853D01*
X31266Y19853D01*
X31252Y19861D01*
X31207Y19866D01*
X31201Y19864D01*
X31195Y19867D01*
X31161Y19853D01*
X31126Y19842D01*
X31123Y19837D01*
X31117Y19834D01*
X31057Y19774D01*
X30985Y19744D01*
X30907D01*
X30836Y19774D01*
X30781Y19829D01*
X30751Y19900D01*
Y19978D01*
X30781Y20049D01*
X30836Y20104D01*
X30907Y20134D01*
X30985D01*
X31057Y20104D01*
X31117Y20044D01*
X31123Y20041D01*
X31126Y20036D01*
X31161Y20025D01*
X31195Y20011D01*
X31201Y20014D01*
X31207Y20012D01*
X31252Y20017D01*
X31266Y20025D01*
X31282Y20025D01*
X31364Y20059D01*
X31379Y20074D01*
X31400Y20083D01*
X31408Y20103D01*
X31423Y20118D01*
X31423Y20140D01*
X31432Y20160D01*
Y20518D01*
X31425Y20535D01*
X31426Y20553D01*
X31409Y20572D01*
X31400Y20596D01*
X31383Y20603D01*
X31371Y20617D01*
X31259Y20673D01*
X31227Y20675D01*
X31197Y20684D01*
X31177Y20681D01*
X31145Y20664D01*
X31112Y20650D01*
X31057Y20595D01*
X30985Y20565D01*
X30907D01*
X30836Y20595D01*
X30781Y20649D01*
X30751Y20721D01*
Y20799D01*
X30781Y20870D01*
X30836Y20925D01*
X30907Y20955D01*
X30985D01*
X31057Y20925D01*
X31112Y20870D01*
X31145Y20856D01*
X31177Y20838D01*
X31197Y20836D01*
X31227Y20845D01*
X31259Y20847D01*
X31371Y20903D01*
X31383Y20917D01*
X31400Y20924D01*
X31409Y20947D01*
X31426Y20967D01*
X31425Y20985D01*
X31432Y21001D01*
Y21579D01*
X31423Y21600D01*
X31423Y21621D01*
X31408Y21637D01*
X31400Y21657D01*
X31379Y21666D01*
X31364Y21681D01*
X31282Y21715D01*
X31266Y21715D01*
X31252Y21723D01*
X31207Y21728D01*
X31201Y21726D01*
X31195Y21728D01*
X31161Y21714D01*
X31126Y21704D01*
X31123Y21699D01*
X31117Y21696D01*
X31057Y21636D01*
X30985Y21606D01*
X30907D01*
X30836Y21636D01*
X30781Y21690D01*
X30751Y21762D01*
Y21840D01*
X30781Y21911D01*
X30836Y21966D01*
X30907Y21996D01*
X30985D01*
X31057Y21966D01*
X31117Y21905D01*
X31123Y21903D01*
X31126Y21898D01*
X31161Y21887D01*
X31195Y21873D01*
X31201Y21876D01*
X31207Y21874D01*
X31252Y21879D01*
X31266Y21887D01*
X31282Y21887D01*
X31364Y21921D01*
X31379Y21936D01*
X31400Y21944D01*
X31408Y21965D01*
X31423Y21980D01*
X31423Y22002D01*
X31432Y22022D01*
Y23218D01*
X31425Y23235D01*
X31496Y23265D01*
X31556Y23324D01*
X31615Y23265D01*
X31727Y23218D01*
X31849D01*
X31961Y23265D01*
X32018Y23322D01*
X32076Y23265D01*
X32188Y23218D01*
X32309D01*
X32421Y23265D01*
X32507Y23350D01*
X32553Y23462D01*
Y23584D01*
X32507Y23696D01*
X32421Y23781D01*
X32309Y23828D01*
X32188D01*
X32076Y23781D01*
X32018Y23724D01*
X31961Y23781D01*
X31849Y23828D01*
X31727D01*
X31615Y23781D01*
X31556Y23722D01*
X31496Y23781D01*
X31425Y23811D01*
X31432Y23828D01*
Y24601D01*
X31400Y24679D01*
X30933Y25145D01*
X30856Y25177D01*
D02*
G37*
G36*
X34176Y23442D02*
X34054D01*
X33942Y23395D01*
X33857Y23310D01*
X33810Y23198D01*
Y23076D01*
X33857Y22964D01*
X33942Y22879D01*
X34054Y22832D01*
X34176D01*
X34288Y22879D01*
X34374Y22964D01*
X34420Y23076D01*
Y23198D01*
X34374Y23310D01*
X34288Y23395D01*
X34176Y23442D01*
D02*
G37*
G36*
X49470Y23322D02*
X49349D01*
X49237Y23276D01*
X49151Y23190D01*
X49105Y23078D01*
Y22957D01*
X49151Y22845D01*
X49237Y22759D01*
X49349Y22713D01*
X49470D01*
X49582Y22759D01*
X49668Y22845D01*
X49715Y22957D01*
Y23078D01*
X49668Y23190D01*
X49582Y23276D01*
X49470Y23322D01*
D02*
G37*
G36*
X25945Y23270D02*
X25823D01*
X25711Y23224D01*
X25626Y23138D01*
X25579Y23026D01*
Y22905D01*
X25626Y22793D01*
X25711Y22707D01*
X25823Y22661D01*
X25945D01*
X26057Y22707D01*
X26142Y22793D01*
X26189Y22905D01*
Y23026D01*
X26142Y23138D01*
X26057Y23224D01*
X25945Y23270D01*
D02*
G37*
G36*
X57658Y24702D02*
X57342D01*
X57036Y24620D01*
X56762Y24462D01*
X56538Y24238D01*
X56380Y23964D01*
X56298Y23658D01*
Y23342D01*
X56380Y23036D01*
X56538Y22762D01*
X56762Y22538D01*
X57036Y22380D01*
X57342Y22298D01*
X57658D01*
X57964Y22380D01*
X58238Y22538D01*
X58462Y22762D01*
X58620Y23036D01*
X58702Y23342D01*
Y23658D01*
X58620Y23964D01*
X58462Y24238D01*
X58238Y24462D01*
X57964Y24620D01*
X57658Y24702D01*
D02*
G37*
G36*
X27467Y22835D02*
X27346D01*
X27234Y22788D01*
X27148Y22702D01*
X27102Y22590D01*
Y22469D01*
X27148Y22357D01*
X27234Y22271D01*
X27346Y22225D01*
X27467D01*
X27579Y22271D01*
X27665Y22357D01*
X27711Y22469D01*
Y22590D01*
X27665Y22702D01*
X27579Y22788D01*
X27467Y22835D01*
D02*
G37*
G36*
X27497Y21858D02*
X27376D01*
X27264Y21812D01*
X27178Y21726D01*
X27131Y21614D01*
Y21493D01*
X27178Y21381D01*
X27264Y21295D01*
X27376Y21249D01*
X27497D01*
X27609Y21295D01*
X27695Y21381D01*
X27741Y21493D01*
Y21614D01*
X27695Y21726D01*
X27609Y21812D01*
X27497Y21858D01*
D02*
G37*
G36*
X24534Y21805D02*
X24413D01*
X24301Y21758D01*
X24215Y21672D01*
X24169Y21560D01*
Y21439D01*
X24215Y21327D01*
X24301Y21241D01*
X24413Y21195D01*
X24534D01*
X24646Y21241D01*
X24732Y21327D01*
X24778Y21439D01*
Y21560D01*
X24732Y21672D01*
X24646Y21758D01*
X24534Y21805D01*
D02*
G37*
G36*
X54213Y21297D02*
X54092D01*
X53980Y21250D01*
X53894Y21164D01*
X53848Y21052D01*
Y20931D01*
X53894Y20819D01*
X53980Y20733D01*
X54092Y20687D01*
X54213D01*
X54325Y20733D01*
X54411Y20819D01*
X54458Y20931D01*
Y21052D01*
X54411Y21164D01*
X54325Y21250D01*
X54213Y21297D01*
D02*
G37*
G36*
X53116D02*
X52995D01*
X52883Y21250D01*
X52797Y21164D01*
X52750Y21052D01*
Y20931D01*
X52797Y20819D01*
X52883Y20733D01*
X52995Y20687D01*
X53116D01*
X53228Y20733D01*
X53314Y20819D01*
X53360Y20931D01*
Y21052D01*
X53314Y21164D01*
X53228Y21250D01*
X53116Y21297D01*
D02*
G37*
G36*
X27518Y21017D02*
X27397D01*
X27285Y20971D01*
X27199Y20885D01*
X27152Y20773D01*
Y20652D01*
X27199Y20540D01*
X27285Y20454D01*
X27397Y20408D01*
X27518D01*
X27630Y20454D01*
X27716Y20540D01*
X27762Y20652D01*
Y20773D01*
X27716Y20885D01*
X27630Y20971D01*
X27518Y21017D01*
D02*
G37*
G36*
X52169Y20687D02*
X52047D01*
X51935Y20641D01*
X51849Y20555D01*
X51803Y20443D01*
Y20322D01*
X51808Y20309D01*
X51810Y20189D01*
X51745Y20156D01*
X51698Y20137D01*
X51612Y20051D01*
X51566Y19939D01*
Y19818D01*
X51612Y19706D01*
X51698Y19620D01*
X51810Y19574D01*
X51931D01*
X52043Y19620D01*
X52129Y19706D01*
X52175Y19818D01*
Y19939D01*
X52170Y19951D01*
X52169Y20071D01*
X52234Y20104D01*
X52281Y20124D01*
X52366Y20210D01*
X52413Y20322D01*
Y20443D01*
X52366Y20555D01*
X52281Y20641D01*
X52169Y20687D01*
D02*
G37*
G36*
X21787Y20689D02*
X21666D01*
X21554Y20643D01*
X21468Y20557D01*
X21422Y20445D01*
Y20324D01*
X21468Y20212D01*
X21480Y20201D01*
X21543Y20113D01*
X21480Y20035D01*
X21464Y20019D01*
X21417Y19907D01*
Y19785D01*
X21464Y19673D01*
X21550Y19588D01*
X21662Y19541D01*
X21783D01*
X21895Y19588D01*
X21906Y19599D01*
X21994Y19663D01*
X22072Y19599D01*
X22088Y19583D01*
X22200Y19537D01*
X22321D01*
X22433Y19583D01*
X22519Y19669D01*
X22566Y19781D01*
Y19902D01*
X22519Y20014D01*
X22508Y20025D01*
X22444Y20113D01*
X22508Y20191D01*
X22524Y20207D01*
X22570Y20319D01*
Y20441D01*
X22524Y20553D01*
X22438Y20638D01*
X22326Y20685D01*
X22205D01*
X22093Y20638D01*
X22081Y20627D01*
X21994Y20564D01*
X21915Y20627D01*
X21899Y20643D01*
X21787Y20689D01*
D02*
G37*
G36*
X53705Y19135D02*
X53584D01*
X53472Y19088D01*
X53461Y19077D01*
X53378Y19009D01*
X53295Y19077D01*
X53284Y19088D01*
X53172Y19135D01*
X53051D01*
X52939Y19088D01*
X52853Y19003D01*
X52807Y18891D01*
Y18769D01*
X52853Y18657D01*
X52939Y18572D01*
X53051Y18525D01*
X53172D01*
X53284Y18572D01*
X53295Y18583D01*
X53378Y18651D01*
X53461Y18583D01*
X53472Y18572D01*
X53584Y18525D01*
X53705D01*
X53817Y18572D01*
X53903Y18657D01*
X53950Y18769D01*
Y18891D01*
X53903Y19003D01*
X53817Y19088D01*
X53705Y19135D01*
D02*
G37*
G36*
X32477Y19526D02*
X32356D01*
X32244Y19480D01*
X32158Y19394D01*
X32111Y19282D01*
Y19161D01*
X32158Y19049D01*
X32244Y18963D01*
X32356Y18917D01*
X32477D01*
X32589Y18963D01*
X32675Y19049D01*
X32721Y19161D01*
Y19282D01*
X32675Y19394D01*
X32589Y19480D01*
X32477Y19526D01*
D02*
G37*
G36*
X53713Y18020D02*
X53592D01*
X53480Y17974D01*
X53469Y17963D01*
X53386Y17895D01*
X53303Y17963D01*
X53292Y17974D01*
X53180Y18020D01*
X53058D01*
X52946Y17974D01*
X52861Y17888D01*
X52814Y17776D01*
Y17655D01*
X52861Y17543D01*
X52946Y17457D01*
X53058Y17410D01*
X53180D01*
X53292Y17457D01*
X53303Y17468D01*
X53386Y17536D01*
X53469Y17468D01*
X53480Y17457D01*
X53592Y17410D01*
X53713D01*
X53825Y17457D01*
X53911Y17543D01*
X53957Y17655D01*
Y17776D01*
X53911Y17888D01*
X53825Y17974D01*
X53713Y18020D01*
D02*
G37*
G36*
X32203Y17903D02*
X32081D01*
X31969Y17857D01*
X31884Y17771D01*
X31837Y17659D01*
Y17538D01*
X31884Y17426D01*
X31969Y17340D01*
X32081Y17294D01*
X32203D01*
X32315Y17340D01*
X32400Y17426D01*
X32447Y17538D01*
Y17659D01*
X32400Y17771D01*
X32315Y17857D01*
X32203Y17903D01*
D02*
G37*
G36*
X23352Y17653D02*
X23231D01*
X23119Y17607D01*
X23033Y17521D01*
X22987Y17409D01*
Y17288D01*
X23033Y17176D01*
X23119Y17090D01*
X23231Y17043D01*
X23352D01*
X23464Y17090D01*
X23550Y17176D01*
X23597Y17288D01*
Y17409D01*
X23550Y17521D01*
X23464Y17607D01*
X23352Y17653D01*
D02*
G37*
G36*
X53713Y16916D02*
X53592D01*
X53480Y16870D01*
X53469Y16859D01*
X53386Y16791D01*
X53303Y16859D01*
X53292Y16870D01*
X53180Y16916D01*
X53058D01*
X52946Y16870D01*
X52861Y16784D01*
X52814Y16672D01*
Y16551D01*
X52861Y16439D01*
X52924Y16376D01*
X52941Y16314D01*
X52928Y16223D01*
X52872Y16167D01*
X52826Y16055D01*
Y15934D01*
X52872Y15822D01*
X52958Y15736D01*
X53070Y15690D01*
X53191Y15690D01*
X53218Y15573D01*
X53265Y15460D01*
X53313Y15412D01*
X53303Y15360D01*
X53217Y15275D01*
X53171Y15162D01*
Y15041D01*
X53217Y14929D01*
X53303Y14843D01*
X53415Y14797D01*
X53536D01*
X53648Y14843D01*
X53660Y14855D01*
X53742Y14922D01*
X53825Y14855D01*
X53837Y14844D01*
X53949Y14797D01*
X54070D01*
X54182Y14844D01*
X54268Y14929D01*
X54314Y15041D01*
Y15163D01*
X54268Y15275D01*
X54182Y15360D01*
X54070Y15407D01*
X53949D01*
X53873Y15376D01*
X53821Y15424D01*
X53789Y15478D01*
X53828Y15573D01*
Y15694D01*
X53782Y15806D01*
X53696Y15892D01*
X53584Y15938D01*
X53463Y15938D01*
X53436Y16055D01*
X53389Y16167D01*
X53345Y16211D01*
X53353Y16346D01*
X53440Y16388D01*
X53469Y16364D01*
X53480Y16353D01*
X53592Y16307D01*
X53713D01*
X53825Y16353D01*
X53911Y16439D01*
X53957Y16551D01*
Y16672D01*
X53911Y16784D01*
X53825Y16870D01*
X53713Y16916D01*
D02*
G37*
G36*
X51274Y13903D02*
X51152D01*
X51040Y13857D01*
X50955Y13771D01*
X50908Y13659D01*
Y13538D01*
X50955Y13425D01*
X51040Y13340D01*
X51152Y13293D01*
X51274D01*
X51386Y13340D01*
X51471Y13425D01*
X51518Y13538D01*
Y13659D01*
X51471Y13771D01*
X51386Y13857D01*
X51274Y13903D01*
D02*
G37*
G36*
X54061Y13300D02*
X53940D01*
X53828Y13254D01*
X53742Y13168D01*
X53696Y13056D01*
Y12935D01*
X53742Y12823D01*
X53789Y12775D01*
X53815Y12695D01*
X53789Y12615D01*
X53742Y12568D01*
X53696Y12456D01*
Y12335D01*
X53742Y12223D01*
X53828Y12137D01*
X53940Y12090D01*
X54061D01*
X54173Y12137D01*
X54259Y12223D01*
X54305Y12335D01*
Y12456D01*
X54259Y12568D01*
X54211Y12615D01*
X54186Y12695D01*
X54211Y12775D01*
X54259Y12823D01*
X54305Y12935D01*
Y13056D01*
X54259Y13168D01*
X54173Y13254D01*
X54061Y13300D01*
D02*
G37*
G36*
X48317Y12512D02*
X48206D01*
X48103Y12470D01*
X48025Y12391D01*
X47982Y12289D01*
Y12177D01*
X48025Y12075D01*
X48103Y11996D01*
X48206Y11954D01*
X48317D01*
X48420Y11996D01*
X48498Y12075D01*
X48541Y12177D01*
Y12289D01*
X48498Y12391D01*
X48420Y12470D01*
X48317Y12512D01*
D02*
G37*
G36*
X54061Y11518D02*
X53940D01*
X53828Y11472D01*
X53742Y11386D01*
X53696Y11274D01*
Y11153D01*
X53742Y11041D01*
X53828Y10955D01*
X53940Y10908D01*
X54061D01*
X54173Y10955D01*
X54259Y11041D01*
X54305Y11153D01*
Y11274D01*
X54259Y11386D01*
X54173Y11472D01*
X54061Y11518D01*
D02*
G37*
G36*
X53094Y10577D02*
X52973D01*
X52861Y10531D01*
X52775Y10445D01*
X52742Y10365D01*
X52725Y10332D01*
X52601Y10297D01*
X52577Y10307D01*
X52456D01*
X52344Y10260D01*
X52258Y10175D01*
X52212Y10062D01*
Y9941D01*
X52258Y9829D01*
X52306Y9782D01*
X52331Y9702D01*
X52306Y9622D01*
X52258Y9575D01*
X52212Y9462D01*
Y9341D01*
X52258Y9229D01*
X52344Y9143D01*
X52456Y9097D01*
X52577D01*
X52689Y9143D01*
X52775Y9229D01*
X52821Y9341D01*
Y9462D01*
X52775Y9575D01*
X52728Y9622D01*
X52702Y9702D01*
X52728Y9782D01*
X52775Y9829D01*
X52808Y9909D01*
X52825Y9942D01*
X52948Y9978D01*
X52973Y9968D01*
X53094D01*
X53206Y10014D01*
X53292Y10100D01*
X53338Y10212D01*
Y10333D01*
X53292Y10445D01*
X53206Y10531D01*
X53094Y10577D01*
D02*
G37*
G36*
X46217Y10842D02*
X46106D01*
X46003Y10799D01*
X45925Y10721D01*
X45882Y10618D01*
Y10507D01*
X45925Y10404D01*
X46003Y10326D01*
X46106Y10283D01*
X46217D01*
X46320Y10326D01*
X46398Y10404D01*
X46441Y10507D01*
Y10618D01*
X46398Y10721D01*
X46320Y10799D01*
X46217Y10842D01*
D02*
G37*
G36*
X43617D02*
X43506D01*
X43403Y10799D01*
X43325Y10721D01*
X43282Y10618D01*
Y10507D01*
X43325Y10404D01*
X43403Y10326D01*
X43506Y10283D01*
X43617D01*
X43720Y10326D01*
X43798Y10404D01*
X43841Y10507D01*
Y10618D01*
X43798Y10721D01*
X43720Y10799D01*
X43617Y10842D01*
D02*
G37*
G36*
X44917Y10192D02*
X44806D01*
X44703Y10149D01*
X44625Y10071D01*
X44605Y10024D01*
X44468D01*
X44448Y10071D01*
X44370Y10149D01*
X44267Y10192D01*
X44156D01*
X44053Y10149D01*
X43975Y10071D01*
X43932Y9968D01*
Y9857D01*
X43975Y9754D01*
X44053Y9676D01*
X44156Y9633D01*
X44267D01*
X44370Y9676D01*
X44448Y9754D01*
X44468Y9801D01*
X44605D01*
X44625Y9754D01*
X44703Y9676D01*
X44750Y9656D01*
Y9519D01*
X44703Y9499D01*
X44625Y9421D01*
X44582Y9318D01*
Y9207D01*
X44625Y9104D01*
X44703Y9026D01*
X44806Y8983D01*
X44917D01*
X45020Y9026D01*
X45098Y9104D01*
X45141Y9207D01*
Y9318D01*
X45098Y9421D01*
X45020Y9499D01*
X44973Y9519D01*
Y9656D01*
X45020Y9676D01*
X45098Y9754D01*
X45141Y9857D01*
Y9968D01*
X45098Y10071D01*
X45020Y10149D01*
X44917Y10192D01*
D02*
G37*
G36*
X55602Y14207D02*
X55481D01*
X55369Y14160D01*
X55283Y14075D01*
X55236Y13962D01*
Y13841D01*
X55283Y13729D01*
X55330Y13682D01*
X55355Y13602D01*
X55330Y13522D01*
X55283Y13475D01*
X55236Y13362D01*
Y13241D01*
X55283Y13129D01*
X55330Y13082D01*
X55355Y13002D01*
X55330Y12922D01*
X55283Y12875D01*
X55236Y12762D01*
Y12641D01*
X55283Y12529D01*
X55330Y12482D01*
X55355Y12402D01*
X55330Y12322D01*
X55283Y12275D01*
X55236Y12162D01*
Y12041D01*
X55283Y11929D01*
X55330Y11882D01*
X55355Y11802D01*
X55330Y11722D01*
X55283Y11675D01*
X55236Y11562D01*
Y11441D01*
X55283Y11329D01*
X55330Y11282D01*
X55355Y11202D01*
X55330Y11122D01*
X55283Y11075D01*
X55236Y10962D01*
Y10841D01*
X55283Y10729D01*
X55330Y10682D01*
X55355Y10602D01*
X55330Y10522D01*
X55283Y10475D01*
X55236Y10362D01*
Y10241D01*
X55283Y10129D01*
X55330Y10082D01*
X55355Y10002D01*
X55330Y9922D01*
X55283Y9875D01*
X55236Y9762D01*
Y9641D01*
X55283Y9529D01*
X55369Y9443D01*
X55481Y9397D01*
X55602D01*
X55714Y9443D01*
X55800Y9529D01*
X55846Y9641D01*
Y9762D01*
X55800Y9875D01*
X55752Y9922D01*
X55727Y10002D01*
X55752Y10082D01*
X55800Y10129D01*
X55846Y10241D01*
Y10362D01*
X55800Y10475D01*
X55752Y10522D01*
X55727Y10602D01*
X55752Y10682D01*
X55800Y10729D01*
X55846Y10841D01*
Y10962D01*
X55800Y11075D01*
X55752Y11122D01*
X55727Y11202D01*
X55752Y11282D01*
X55800Y11329D01*
X55846Y11441D01*
Y11562D01*
X55800Y11675D01*
X55752Y11722D01*
X55727Y11802D01*
X55752Y11882D01*
X55800Y11929D01*
X55846Y12041D01*
Y12162D01*
X55800Y12275D01*
X55752Y12322D01*
X55727Y12402D01*
X55752Y12482D01*
X55800Y12529D01*
X55846Y12641D01*
Y12762D01*
X55800Y12875D01*
X55752Y12922D01*
X55727Y13002D01*
X55752Y13082D01*
X55800Y13129D01*
X55846Y13241D01*
Y13362D01*
X55800Y13475D01*
X55752Y13522D01*
X55727Y13602D01*
X55752Y13682D01*
X55800Y13729D01*
X55846Y13841D01*
Y13962D01*
X55800Y14075D01*
X55714Y14160D01*
X55602Y14207D01*
D02*
G37*
G36*
X50921Y9707D02*
X50800D01*
X50688Y9660D01*
X50602Y9575D01*
X50555Y9462D01*
Y9341D01*
X50602Y9229D01*
X50688Y9143D01*
X50800Y9097D01*
X50921D01*
X51033Y9143D01*
X51119Y9229D01*
X51165Y9341D01*
Y9462D01*
X51119Y9575D01*
X51033Y9660D01*
X50921Y9707D01*
D02*
G37*
G36*
X48167Y9542D02*
X48056D01*
X47953Y9499D01*
X47875Y9421D01*
X47832Y9318D01*
Y9207D01*
X47875Y9104D01*
X47953Y9026D01*
X48056Y8983D01*
X48167D01*
X48270Y9026D01*
X48348Y9104D01*
X48391Y9207D01*
Y9318D01*
X48348Y9421D01*
X48270Y9499D01*
X48167Y9542D01*
D02*
G37*
G36*
X46867D02*
X46756D01*
X46653Y9499D01*
X46575Y9421D01*
X46532Y9318D01*
Y9207D01*
X46575Y9104D01*
X46653Y9026D01*
X46756Y8983D01*
X46867D01*
X46970Y9026D01*
X47048Y9104D01*
X47091Y9207D01*
Y9318D01*
X47048Y9421D01*
X46970Y9499D01*
X46867Y9542D01*
D02*
G37*
G36*
X43617D02*
X43506D01*
X43403Y9499D01*
X43325Y9421D01*
X43282Y9318D01*
Y9207D01*
X43325Y9104D01*
X43403Y9026D01*
X43506Y8983D01*
X43617D01*
X43720Y9026D01*
X43798Y9104D01*
X43841Y9207D01*
Y9318D01*
X43798Y9421D01*
X43720Y9499D01*
X43617Y9542D01*
D02*
G37*
G36*
X55900Y8814D02*
X55779D01*
X55667Y8767D01*
X55581Y8682D01*
X55535Y8570D01*
Y8448D01*
X55581Y8336D01*
X55667Y8251D01*
X55779Y8204D01*
X55900D01*
X56012Y8251D01*
X56098Y8336D01*
X56129Y8411D01*
X56172Y8415D01*
X56261Y8399D01*
X56297Y8311D01*
X56383Y8225D01*
X56495Y8179D01*
X56616D01*
X56728Y8225D01*
X56814Y8311D01*
X56860Y8423D01*
Y8544D01*
X56814Y8656D01*
X56728Y8742D01*
X56616Y8788D01*
X56495D01*
X56383Y8742D01*
X56297Y8656D01*
X56266Y8581D01*
X56223Y8577D01*
X56134Y8594D01*
X56098Y8682D01*
X56012Y8767D01*
X55900Y8814D01*
D02*
G37*
G36*
X56438Y7960D02*
X56317D01*
X56205Y7914D01*
X56119Y7828D01*
X56073Y7716D01*
Y7595D01*
X56119Y7483D01*
X56205Y7397D01*
X56249Y7379D01*
Y7241D01*
X56205Y7223D01*
X56119Y7137D01*
X56073Y7025D01*
Y6904D01*
X56119Y6792D01*
X56205Y6706D01*
X56317Y6660D01*
X56438D01*
X56550Y6706D01*
X56636Y6792D01*
X56683Y6904D01*
Y7025D01*
X56636Y7137D01*
X56550Y7223D01*
X56506Y7241D01*
Y7379D01*
X56550Y7397D01*
X56636Y7483D01*
X56683Y7595D01*
Y7716D01*
X56636Y7828D01*
X56550Y7914D01*
X56438Y7960D01*
D02*
G37*
G36*
X50796Y7020D02*
X50674D01*
X50562Y6974D01*
X50477Y6888D01*
X50430Y6776D01*
Y6655D01*
X50477Y6543D01*
X50562Y6457D01*
X50674Y6410D01*
X50796D01*
X50908Y6457D01*
X50993Y6543D01*
X51040Y6655D01*
Y6776D01*
X50993Y6888D01*
X50908Y6974D01*
X50796Y7020D01*
D02*
G37*
G36*
X52018Y6967D02*
X51897D01*
X51785Y6921D01*
X51699Y6835D01*
X51653Y6723D01*
Y6602D01*
X51699Y6490D01*
X51785Y6404D01*
X51897Y6358D01*
X52018D01*
X52130Y6404D01*
X52216Y6490D01*
X52263Y6602D01*
Y6723D01*
X52216Y6835D01*
X52130Y6921D01*
X52018Y6967D01*
D02*
G37*
G36*
X56244Y4683D02*
X56122D01*
X56010Y4636D01*
X55925Y4550D01*
X55878Y4438D01*
Y4317D01*
X55925Y4205D01*
X55954Y4175D01*
X55975Y4019D01*
X55968Y3999D01*
X55929Y3905D01*
Y3784D01*
X55975Y3672D01*
X56061Y3586D01*
X56173Y3540D01*
X56294D01*
X56406Y3586D01*
X56492Y3672D01*
X56539Y3784D01*
Y3905D01*
X56492Y4017D01*
X56462Y4047D01*
X56442Y4203D01*
X56449Y4223D01*
X56488Y4317D01*
Y4438D01*
X56441Y4550D01*
X56356Y4636D01*
X56244Y4683D01*
D02*
G37*
G36*
X52276Y4666D02*
X52155D01*
X52043Y4620D01*
X51957Y4534D01*
X51911Y4422D01*
Y4301D01*
X51957Y4189D01*
X51982Y4165D01*
X52018Y4063D01*
X51980Y4000D01*
X51939Y3959D01*
X51893Y3847D01*
Y3726D01*
X51939Y3614D01*
X52025Y3528D01*
X52137Y3482D01*
X52258D01*
X52370Y3528D01*
X52456Y3614D01*
X52502Y3726D01*
Y3847D01*
X52456Y3959D01*
X52431Y3984D01*
X52395Y4085D01*
X52433Y4148D01*
X52474Y4189D01*
X52521Y4301D01*
Y4422D01*
X52474Y4534D01*
X52388Y4620D01*
X52276Y4666D01*
D02*
G37*
G36*
X52760Y3334D02*
X52638D01*
X52526Y3287D01*
X52441Y3202D01*
X52394Y3090D01*
Y2968D01*
X52441Y2856D01*
X52526Y2771D01*
X52638Y2724D01*
X52760D01*
X52872Y2771D01*
X52957Y2856D01*
X53004Y2968D01*
Y3090D01*
X52957Y3202D01*
X52872Y3287D01*
X52760Y3334D01*
D02*
G37*
G36*
X57658Y3702D02*
X57342D01*
X57036Y3620D01*
X56762Y3462D01*
X56538Y3238D01*
X56380Y2964D01*
X56298Y2658D01*
Y2342D01*
X56380Y2036D01*
X56538Y1762D01*
X56762Y1538D01*
X57036Y1380D01*
X57342Y1298D01*
X57658D01*
X57964Y1380D01*
X58238Y1538D01*
X58462Y1762D01*
X58620Y2036D01*
X58702Y2342D01*
Y2658D01*
X58620Y2964D01*
X58462Y3238D01*
X58238Y3462D01*
X57964Y3620D01*
X57658Y3702D01*
D02*
G37*
%LPD*%
G36*
X31322Y24601D02*
Y23828D01*
X31263D01*
X31151Y23781D01*
X31065Y23696D01*
X31018Y23584D01*
Y23462D01*
X31065Y23350D01*
X31151Y23265D01*
X31263Y23218D01*
X31322D01*
Y22022D01*
X31240Y21988D01*
X31195Y21983D01*
X31119Y22059D01*
X31007Y22106D01*
X30886D01*
X30774Y22059D01*
X30688Y21973D01*
X30641Y21861D01*
Y21740D01*
X30688Y21628D01*
X30774Y21542D01*
X30886Y21496D01*
X31007D01*
X31119Y21542D01*
X31195Y21618D01*
X31240Y21613D01*
X31322Y21579D01*
Y21001D01*
X31210Y20945D01*
X31189Y20948D01*
X31119Y21018D01*
X31007Y21065D01*
X30886D01*
X30774Y21018D01*
X30688Y20932D01*
X30641Y20820D01*
Y20699D01*
X30688Y20587D01*
X30774Y20501D01*
X30886Y20455D01*
X31007D01*
X31119Y20501D01*
X31189Y20572D01*
X31210Y20574D01*
X31322Y20518D01*
Y20160D01*
X31240Y20126D01*
X31195Y20121D01*
X31119Y20197D01*
X31007Y20244D01*
X30886D01*
X30774Y20197D01*
X30688Y20112D01*
X30641Y20000D01*
Y19878D01*
X30688Y19766D01*
X30774Y19681D01*
X30886Y19634D01*
X31007D01*
X31119Y19681D01*
X31195Y19757D01*
X31240Y19752D01*
X31322Y19718D01*
Y18740D01*
X31269Y18705D01*
X31148D01*
X31036Y18658D01*
X30950Y18573D01*
X30904Y18461D01*
Y18339D01*
X30950Y18227D01*
X31036Y18142D01*
X31148Y18095D01*
X31269D01*
X31322Y18060D01*
Y17747D01*
X30348Y16773D01*
X25435D01*
X25421Y16789D01*
X25393Y16893D01*
X25395Y16912D01*
X25404Y16922D01*
X25451Y17034D01*
Y17155D01*
X25404Y17267D01*
X25319Y17353D01*
X25207Y17399D01*
X25085D01*
X24973Y17353D01*
X24888Y17267D01*
X24841Y17155D01*
Y17034D01*
X24888Y16922D01*
X24910Y16900D01*
X24857Y16773D01*
X24154D01*
X23919Y17007D01*
Y17874D01*
X25588Y19543D01*
X28473D01*
X28600Y19670D01*
X28727Y19624D01*
X28774Y19512D01*
X28860Y19427D01*
X28972Y19380D01*
X29093D01*
X29205Y19427D01*
X29291Y19512D01*
X29337Y19624D01*
Y19746D01*
X29291Y19858D01*
X29205Y19943D01*
X29093Y19990D01*
X29047Y20117D01*
X29642Y20712D01*
Y24732D01*
X29977Y25067D01*
X30856D01*
X31322Y24601D01*
D02*
G37*
%LPC*%
G36*
X30181Y21798D02*
X30060D01*
X29948Y21752D01*
X29862Y21666D01*
X29816Y21554D01*
Y21433D01*
X29862Y21321D01*
X29948Y21235D01*
X30060Y21189D01*
X30181D01*
X30293Y21235D01*
X30379Y21321D01*
X30426Y21433D01*
Y21554D01*
X30379Y21666D01*
X30293Y21752D01*
X30181Y21798D01*
D02*
G37*
G36*
X30194Y20382D02*
X30072D01*
X29960Y20336D01*
X29875Y20250D01*
X29828Y20138D01*
Y20017D01*
X29875Y19905D01*
X29960Y19819D01*
X30072Y19773D01*
X30194D01*
X30306Y19819D01*
X30392Y19905D01*
X30438Y20017D01*
Y20138D01*
X30392Y20250D01*
X30306Y20336D01*
X30194Y20382D01*
D02*
G37*
G36*
X27391Y19406D02*
X27270D01*
X27158Y19360D01*
X27072Y19274D01*
X27026Y19162D01*
Y19041D01*
X27072Y18929D01*
X27158Y18843D01*
X27270Y18797D01*
X27391D01*
X27503Y18843D01*
X27589Y18929D01*
X27635Y19041D01*
Y19162D01*
X27589Y19274D01*
X27503Y19360D01*
X27391Y19406D01*
D02*
G37*
G36*
X29076Y18593D02*
X28955D01*
X28843Y18546D01*
X28757Y18461D01*
X28711Y18349D01*
Y18227D01*
X28757Y18115D01*
X28843Y18030D01*
X28955Y17983D01*
X29076D01*
X29188Y18030D01*
X29274Y18115D01*
X29321Y18227D01*
Y18349D01*
X29274Y18461D01*
X29188Y18546D01*
X29076Y18593D01*
D02*
G37*
G36*
X27703Y17903D02*
X27581D01*
X27469Y17857D01*
X27384Y17771D01*
X27337Y17659D01*
Y17538D01*
X27384Y17426D01*
X27469Y17340D01*
X27581Y17294D01*
X27703D01*
X27815Y17340D01*
X27900Y17426D01*
X27947Y17538D01*
Y17659D01*
X27900Y17771D01*
X27815Y17857D01*
X27703Y17903D01*
D02*
G37*
%LPD*%
G36*
X23402Y17513D02*
X23457Y17459D01*
X23487Y17387D01*
Y17309D01*
X23457Y17238D01*
X23402Y17183D01*
X23331Y17153D01*
X23253D01*
X23181Y17183D01*
X23127Y17238D01*
X23097Y17309D01*
Y17387D01*
X23127Y17459D01*
X23181Y17513D01*
X23253Y17543D01*
X23331D01*
X23402Y17513D01*
D02*
G37*
%LPC*%
G36*
X8723Y25578D02*
X8488Y25531D01*
X8289Y25398D01*
X8166Y25214D01*
X8098Y25206D01*
X8030Y25214D01*
X7907Y25398D01*
X7708Y25531D01*
X7473Y25578D01*
X7238Y25531D01*
X7039Y25398D01*
X6916Y25214D01*
X6848Y25206D01*
X6780Y25214D01*
X6657Y25398D01*
X6458Y25531D01*
X6223Y25578D01*
X5988Y25531D01*
X5789Y25398D01*
X5656Y25199D01*
X5610Y24964D01*
Y24464D01*
X5656Y24229D01*
X5789Y24030D01*
X5988Y23898D01*
X6223Y23851D01*
X6458Y23898D01*
X6657Y24030D01*
X6780Y24215D01*
X6848Y24223D01*
X6916Y24215D01*
X7039Y24030D01*
X7238Y23898D01*
X7473Y23851D01*
X7708Y23898D01*
X7907Y24030D01*
X8030Y24215D01*
X8098Y24223D01*
X8166Y24215D01*
X8289Y24030D01*
X8488Y23898D01*
X8723Y23851D01*
X8958Y23898D01*
X9157Y24030D01*
X9290Y24229D01*
X9336Y24464D01*
Y24964D01*
X9290Y25199D01*
X9157Y25398D01*
X8958Y25531D01*
X8723Y25578D01*
D02*
G37*
G36*
X16012Y25462D02*
X15891D01*
X15779Y25416D01*
X15693Y25330D01*
X15646Y25218D01*
Y25097D01*
X15693Y24985D01*
X15779Y24899D01*
X15891Y24853D01*
X16012D01*
X16124Y24899D01*
X16210Y24985D01*
X16256Y25097D01*
Y25218D01*
X16210Y25330D01*
X16124Y25416D01*
X16012Y25462D01*
D02*
G37*
G36*
X17174Y24260D02*
X17053D01*
X16941Y24214D01*
X16855Y24128D01*
X16809Y24016D01*
Y23895D01*
X16855Y23783D01*
X16941Y23697D01*
X17053Y23651D01*
X17174D01*
X17286Y23697D01*
X17297Y23708D01*
X17385Y23772D01*
X17463Y23708D01*
X17479Y23693D01*
X17591Y23646D01*
X17713D01*
X17825Y23693D01*
X17910Y23778D01*
X17957Y23890D01*
Y24012D01*
X17910Y24124D01*
X17825Y24209D01*
X17713Y24256D01*
X17591D01*
X17479Y24209D01*
X17468Y24198D01*
X17380Y24134D01*
X17302Y24198D01*
X17286Y24214D01*
X17174Y24260D01*
D02*
G37*
G36*
X15498Y23373D02*
X15376D01*
X15264Y23327D01*
X15179Y23241D01*
X15132Y23129D01*
Y23008D01*
X15179Y22896D01*
X15264Y22810D01*
X15376Y22764D01*
X15498D01*
X15610Y22810D01*
X15695Y22896D01*
X15742Y23008D01*
Y23129D01*
X15695Y23241D01*
X15610Y23327D01*
X15498Y23373D01*
D02*
G37*
G36*
X6773D02*
X6651D01*
X6539Y23327D01*
X6454Y23241D01*
X6407Y23129D01*
Y23008D01*
X6454Y22896D01*
X6539Y22810D01*
X6651Y22764D01*
X6773D01*
X6885Y22810D01*
X6970Y22896D01*
X7017Y23008D01*
Y23129D01*
X6970Y23241D01*
X6885Y23327D01*
X6773Y23373D01*
D02*
G37*
G36*
X2658Y25102D02*
X2342D01*
X2036Y25020D01*
X1762Y24862D01*
X1538Y24638D01*
X1380Y24364D01*
X1298Y24058D01*
Y23742D01*
X1380Y23436D01*
X1538Y23162D01*
X1762Y22938D01*
X2036Y22780D01*
X2342Y22698D01*
X2658D01*
X2964Y22780D01*
X3238Y22938D01*
X3462Y23162D01*
X3620Y23436D01*
X3702Y23742D01*
Y24058D01*
X3620Y24364D01*
X3462Y24638D01*
X3238Y24862D01*
X2964Y25020D01*
X2658Y25102D01*
D02*
G37*
G36*
X10208Y23127D02*
X10086D01*
X9974Y23080D01*
X9889Y22995D01*
X9842Y22883D01*
Y22761D01*
X9889Y22649D01*
X9974Y22564D01*
X10086Y22517D01*
X10208D01*
X10320Y22564D01*
X10405Y22649D01*
X10452Y22761D01*
Y22883D01*
X10405Y22995D01*
X10320Y23080D01*
X10208Y23127D01*
D02*
G37*
G36*
X14513Y23037D02*
X14392D01*
X14280Y22991D01*
X14194Y22905D01*
X14148Y22793D01*
Y22672D01*
X14194Y22560D01*
X14280Y22474D01*
X14392Y22427D01*
X14513D01*
X14625Y22474D01*
X14711Y22560D01*
X14757Y22672D01*
Y22793D01*
X14711Y22905D01*
X14625Y22991D01*
X14513Y23037D01*
D02*
G37*
G36*
X18111Y22652D02*
X17990D01*
X17878Y22605D01*
X17792Y22519D01*
X17745Y22407D01*
Y22286D01*
X17792Y22174D01*
X17878Y22088D01*
X17990Y22042D01*
X18111D01*
X18223Y22088D01*
X18309Y22174D01*
X18355Y22286D01*
Y22407D01*
X18309Y22519D01*
X18223Y22605D01*
X18111Y22652D01*
D02*
G37*
G36*
X16393D02*
X16272D01*
X16160Y22605D01*
X16074Y22519D01*
X16027Y22407D01*
Y22286D01*
X16074Y22174D01*
X16160Y22088D01*
X16272Y22042D01*
X16393D01*
X16505Y22088D01*
X16591Y22174D01*
X16637Y22286D01*
Y22407D01*
X16591Y22519D01*
X16505Y22605D01*
X16393Y22652D01*
D02*
G37*
G36*
X8239Y21488D02*
X8118D01*
X8006Y21442D01*
X7920Y21356D01*
X7874Y21244D01*
Y21123D01*
X7920Y21011D01*
X8006Y20925D01*
X8118Y20879D01*
X8239D01*
X8351Y20925D01*
X8437Y21011D01*
X8484Y21123D01*
Y21244D01*
X8437Y21356D01*
X8351Y21442D01*
X8239Y21488D01*
D02*
G37*
G36*
X14513Y21173D02*
X14392D01*
X14280Y21126D01*
X14194Y21040D01*
X14148Y20928D01*
Y20807D01*
X14194Y20695D01*
X14280Y20609D01*
X14392Y20563D01*
X14513D01*
X14625Y20609D01*
X14711Y20695D01*
X14757Y20807D01*
Y20928D01*
X14711Y21040D01*
X14625Y21126D01*
X14513Y21173D01*
D02*
G37*
G36*
X3452Y21511D02*
X3254D01*
X3063Y21460D01*
X2891Y21361D01*
X2751Y21221D01*
X2652Y21050D01*
X2601Y20859D01*
Y20661D01*
X2652Y20470D01*
X2751Y20298D01*
X2891Y20158D01*
X3063Y20059D01*
X3254Y20008D01*
X3452D01*
X3643Y20059D01*
X3814Y20158D01*
X3954Y20298D01*
X4053Y20470D01*
X4104Y20661D01*
Y20859D01*
X4053Y21050D01*
X3954Y21221D01*
X3814Y21361D01*
X3643Y21460D01*
X3452Y21511D01*
D02*
G37*
G36*
X19365Y20105D02*
X19244D01*
X19132Y20058D01*
X19046Y19973D01*
X18999Y19861D01*
Y19845D01*
X18982Y19738D01*
X18882Y19727D01*
X18860D01*
X18747Y19681D01*
X18662Y19595D01*
X18615Y19483D01*
Y19362D01*
X18662Y19250D01*
X18747Y19164D01*
X18860Y19118D01*
X18876D01*
X18983Y19101D01*
X18993Y19000D01*
Y18978D01*
X19039Y18866D01*
X19125Y18780D01*
X19237Y18733D01*
X19358D01*
X19470Y18780D01*
X19556Y18866D01*
X19603Y18978D01*
Y18994D01*
X19620Y19101D01*
X19720Y19111D01*
X19742D01*
X19854Y19157D01*
X19940Y19243D01*
X19987Y19355D01*
Y19476D01*
X19940Y19588D01*
X19854Y19674D01*
X19742Y19721D01*
X19726D01*
X19619Y19738D01*
X19609Y19838D01*
Y19861D01*
X19563Y19973D01*
X19477Y20058D01*
X19365Y20105D01*
D02*
G37*
G36*
X8682Y19065D02*
X8561D01*
X8449Y19019D01*
X8363Y18933D01*
X8317Y18821D01*
Y18700D01*
X8363Y18588D01*
X8375Y18576D01*
X8438Y18489D01*
X8375Y18410D01*
X8359Y18394D01*
X8312Y18282D01*
Y18161D01*
X8359Y18049D01*
X8444Y17963D01*
X8556Y17917D01*
X8678D01*
X8790Y17963D01*
X8801Y17975D01*
X8889Y18038D01*
X8967Y17975D01*
X8983Y17959D01*
X9095Y17912D01*
X9216D01*
X9328Y17959D01*
X9414Y18044D01*
X9460Y18157D01*
Y18278D01*
X9414Y18390D01*
X9403Y18401D01*
X9339Y18489D01*
X9403Y18567D01*
X9419Y18583D01*
X9465Y18695D01*
Y18816D01*
X9419Y18928D01*
X9333Y19014D01*
X9221Y19061D01*
X9100D01*
X8988Y19014D01*
X8976Y19003D01*
X8889Y18939D01*
X8810Y19003D01*
X8794Y19019D01*
X8682Y19065D01*
D02*
G37*
G36*
X5556Y17977D02*
X4556D01*
X4386Y17955D01*
X4228Y17889D01*
X4091Y17785D01*
X3987Y17649D01*
X3921Y17490D01*
X3899Y17320D01*
X3906Y17270D01*
X3899Y17220D01*
Y16838D01*
X3860Y16797D01*
X3780Y16750D01*
X3776Y16752D01*
X3636D01*
X3507Y16698D01*
X3408Y16599D01*
X3355Y16470D01*
Y16330D01*
X3408Y16201D01*
X3507Y16102D01*
X3636Y16048D01*
X3776D01*
X3905Y16102D01*
X4004Y16201D01*
X4024Y16247D01*
X4175Y16291D01*
X4228Y16251D01*
X4386Y16185D01*
X4556Y16163D01*
X4726Y16185D01*
X4885Y16251D01*
X5021Y16355D01*
X5125Y16491D01*
X5191Y16650D01*
X5193Y16663D01*
X5556D01*
X5726Y16685D01*
X5885Y16751D01*
X6021Y16855D01*
X6125Y16991D01*
X6191Y17150D01*
X6213Y17320D01*
X6191Y17490D01*
X6125Y17649D01*
X6021Y17785D01*
X5885Y17889D01*
X5726Y17955D01*
X5556Y17977D01*
D02*
G37*
G36*
X12126Y17043D02*
X12004D01*
X11892Y16997D01*
X11807Y16911D01*
X11760Y16799D01*
Y16678D01*
X11807Y16566D01*
X11892Y16480D01*
X12004Y16434D01*
X12126D01*
X12238Y16480D01*
X12323Y16566D01*
X12370Y16678D01*
Y16799D01*
X12323Y16911D01*
X12238Y16997D01*
X12126Y17043D01*
D02*
G37*
G36*
X14106Y16107D02*
X13985D01*
X13873Y16061D01*
X13787Y15975D01*
X13741Y15863D01*
Y15742D01*
X13787Y15630D01*
X13873Y15544D01*
X13985Y15498D01*
X14106D01*
X14218Y15544D01*
X14304Y15630D01*
X14350Y15742D01*
Y15863D01*
X14304Y15975D01*
X14218Y16061D01*
X14106Y16107D01*
D02*
G37*
G36*
X7274Y16562D02*
X7153D01*
X7041Y16515D01*
X6955Y16429D01*
X6909Y16317D01*
Y16196D01*
X6955Y16084D01*
X6966Y16073D01*
X7034Y15990D01*
X6966Y15907D01*
X6955Y15896D01*
X6909Y15784D01*
Y15663D01*
X6955Y15551D01*
X7041Y15465D01*
X7153Y15418D01*
X7274D01*
X7386Y15465D01*
X7472Y15551D01*
X7518Y15663D01*
Y15784D01*
X7472Y15896D01*
X7461Y15907D01*
X7393Y15990D01*
X7461Y16073D01*
X7472Y16084D01*
X7518Y16196D01*
Y16317D01*
X7472Y16429D01*
X7386Y16515D01*
X7274Y16562D01*
D02*
G37*
G36*
X16698Y15185D02*
X16576D01*
X16464Y15138D01*
X16379Y15053D01*
X16332Y14941D01*
Y14819D01*
X16379Y14707D01*
X16464Y14622D01*
X16576Y14575D01*
X16698D01*
X16810Y14622D01*
X16895Y14707D01*
X16942Y14819D01*
Y14941D01*
X16895Y15053D01*
X16810Y15138D01*
X16698Y15185D01*
D02*
G37*
G36*
X12896Y15469D02*
X12775D01*
X12663Y15422D01*
X12577Y15336D01*
X12531Y15224D01*
Y15103D01*
X12577Y14991D01*
X12588Y14980D01*
X12656Y14897D01*
X12588Y14814D01*
X12577Y14803D01*
X12531Y14691D01*
Y14570D01*
X12577Y14458D01*
X12663Y14372D01*
X12775Y14326D01*
X12896D01*
X13008Y14372D01*
X13094Y14458D01*
X13141Y14570D01*
Y14691D01*
X13094Y14803D01*
X13083Y14814D01*
X13015Y14897D01*
X13083Y14980D01*
X13094Y14991D01*
X13141Y15103D01*
Y15224D01*
X13094Y15336D01*
X13008Y15422D01*
X12896Y15469D01*
D02*
G37*
G36*
X3693Y15451D02*
X3572D01*
X3460Y15405D01*
X3374Y15319D01*
X3327Y15207D01*
Y15086D01*
X3374Y14974D01*
X3385Y14963D01*
X3453Y14880D01*
X3385Y14797D01*
X3374Y14786D01*
X3327Y14674D01*
Y14553D01*
X3374Y14441D01*
X3460Y14355D01*
X3572Y14308D01*
X3693D01*
X3805Y14355D01*
X3891Y14441D01*
X3937Y14553D01*
Y14674D01*
X3891Y14786D01*
X3880Y14797D01*
X3812Y14880D01*
X3880Y14963D01*
X3891Y14974D01*
X3937Y15086D01*
Y15207D01*
X3891Y15319D01*
X3805Y15405D01*
X3693Y15451D01*
D02*
G37*
G36*
X20245Y14757D02*
X20124D01*
X20012Y14710D01*
X19926Y14624D01*
X19880Y14512D01*
Y14391D01*
X19926Y14279D01*
X20012Y14193D01*
X20124Y14147D01*
X20245D01*
X20357Y14193D01*
X20419Y14255D01*
X20536Y14253D01*
X20566Y14244D01*
X20643Y14166D01*
X20755Y14120D01*
X20877D01*
X20989Y14166D01*
X21074Y14252D01*
X21121Y14364D01*
Y14485D01*
X21074Y14598D01*
X20989Y14683D01*
X20877Y14730D01*
X20755D01*
X20643Y14683D01*
X20582Y14621D01*
X20465Y14624D01*
X20435Y14632D01*
X20357Y14710D01*
X20245Y14757D01*
D02*
G37*
G36*
X15376Y14452D02*
X15255D01*
X15143Y14405D01*
X15057Y14320D01*
X15011Y14208D01*
Y14086D01*
X15057Y13974D01*
X15143Y13889D01*
X15255Y13842D01*
X15376D01*
X15488Y13889D01*
X15574Y13974D01*
X15620Y14086D01*
Y14208D01*
X15574Y14320D01*
X15488Y14405D01*
X15376Y14452D01*
D02*
G37*
G36*
X4683Y13945D02*
X4562D01*
X4450Y13898D01*
X4364Y13812D01*
X4318Y13700D01*
Y13579D01*
X4364Y13467D01*
X4450Y13381D01*
X4562Y13335D01*
X4683D01*
X4795Y13381D01*
X4881Y13467D01*
X4928Y13579D01*
Y13700D01*
X4881Y13812D01*
X4795Y13898D01*
X4683Y13945D01*
D02*
G37*
G36*
X25897Y13785D02*
X25776D01*
X25663Y13739D01*
X25578Y13653D01*
X25531Y13541D01*
Y13420D01*
X25578Y13308D01*
X25663Y13222D01*
X25776Y13175D01*
X25897D01*
X26009Y13222D01*
X26095Y13308D01*
X26141Y13420D01*
Y13541D01*
X26095Y13653D01*
X26009Y13739D01*
X25897Y13785D01*
D02*
G37*
G36*
X6385Y13701D02*
X6264D01*
X6152Y13655D01*
X6066Y13569D01*
X6020Y13457D01*
Y13336D01*
X6066Y13224D01*
X6077Y13213D01*
X6145Y13130D01*
X6077Y13047D01*
X6066Y13036D01*
X6020Y12924D01*
Y12803D01*
X6066Y12691D01*
X6152Y12605D01*
X6264Y12558D01*
X6385D01*
X6497Y12605D01*
X6583Y12691D01*
X6629Y12803D01*
Y12924D01*
X6583Y13036D01*
X6572Y13047D01*
X6504Y13130D01*
X6572Y13213D01*
X6583Y13224D01*
X6629Y13336D01*
Y13457D01*
X6583Y13569D01*
X6497Y13655D01*
X6385Y13701D01*
D02*
G37*
G36*
X26697Y12985D02*
X26576D01*
X26463Y12939D01*
X26378Y12853D01*
X26331Y12741D01*
Y12620D01*
X26378Y12508D01*
X26463Y12422D01*
X26576Y12375D01*
X26697D01*
X26809Y12422D01*
X26895Y12508D01*
X26941Y12620D01*
Y12741D01*
X26895Y12853D01*
X26809Y12939D01*
X26697Y12985D01*
D02*
G37*
G36*
X25097D02*
X24976D01*
X24864Y12939D01*
X24778Y12853D01*
X24731Y12741D01*
Y12620D01*
X24778Y12508D01*
X24864Y12422D01*
X24976Y12375D01*
X25097D01*
X25209Y12422D01*
X25295Y12508D01*
X25341Y12620D01*
Y12741D01*
X25295Y12853D01*
X25209Y12939D01*
X25097Y12985D01*
D02*
G37*
G36*
X27497Y12985D02*
X27376D01*
X27264Y12939D01*
X27178Y12853D01*
X27131Y12741D01*
Y12620D01*
X27178Y12508D01*
X27264Y12422D01*
X27376Y12375D01*
X27497D01*
X27609Y12422D01*
X27695Y12508D01*
X27741Y12620D01*
Y12741D01*
X27695Y12853D01*
X27609Y12939D01*
X27497Y12985D01*
D02*
G37*
G36*
X3726Y13451D02*
X3605D01*
X3493Y13405D01*
X3407Y13319D01*
X3361Y13207D01*
Y13086D01*
X3407Y12974D01*
X3418Y12963D01*
X3486Y12880D01*
X3418Y12797D01*
X3407Y12786D01*
X3361Y12674D01*
Y12553D01*
X3407Y12441D01*
X3493Y12355D01*
X3605Y12308D01*
X3726D01*
X3838Y12355D01*
X3924Y12441D01*
X3970Y12553D01*
Y12674D01*
X3924Y12786D01*
X3913Y12797D01*
X3845Y12880D01*
X3913Y12963D01*
X3924Y12974D01*
X3970Y13086D01*
Y13207D01*
X3924Y13319D01*
X3838Y13405D01*
X3726Y13451D01*
D02*
G37*
G36*
X13116Y14173D02*
X12995D01*
X12883Y14127D01*
X12797Y14041D01*
X12751Y13929D01*
Y13808D01*
X12797Y13696D01*
X12883Y13610D01*
X12941Y13586D01*
X12896Y13469D01*
X12775Y13469D01*
X12663Y13422D01*
X12577Y13336D01*
X12531Y13224D01*
Y13103D01*
X12577Y12991D01*
X12614Y12955D01*
X12649Y12872D01*
X12614Y12789D01*
X12577Y12752D01*
X12531Y12640D01*
Y12519D01*
X12577Y12407D01*
X12663Y12321D01*
X12775Y12275D01*
X12896D01*
X13008Y12321D01*
X13094Y12407D01*
X13141Y12519D01*
Y12640D01*
X13094Y12752D01*
X13058Y12789D01*
X13023Y12872D01*
X13058Y12955D01*
X13094Y12991D01*
X13141Y13103D01*
Y13224D01*
X13094Y13336D01*
X13008Y13422D01*
X12950Y13446D01*
X12995Y13564D01*
X13116Y13564D01*
X13228Y13610D01*
X13314Y13696D01*
X13360Y13808D01*
Y13929D01*
X13314Y14041D01*
X13228Y14127D01*
X13116Y14173D01*
D02*
G37*
G36*
X21551Y12817D02*
X21430D01*
X21318Y12771D01*
X21232Y12685D01*
X21186Y12573D01*
Y12452D01*
X21232Y12340D01*
X21318Y12254D01*
X21430Y12208D01*
X21551D01*
X21663Y12254D01*
X21749Y12340D01*
X21795Y12452D01*
Y12573D01*
X21749Y12685D01*
X21663Y12771D01*
X21551Y12817D01*
D02*
G37*
G36*
X18785Y12675D02*
X18664D01*
X18552Y12628D01*
X18466Y12542D01*
X18419Y12430D01*
Y12309D01*
X18466Y12197D01*
X18552Y12111D01*
X18664Y12065D01*
X18785D01*
X18897Y12111D01*
X18983Y12197D01*
X19029Y12309D01*
Y12430D01*
X18983Y12542D01*
X18897Y12628D01*
X18785Y12675D01*
D02*
G37*
G36*
X5260Y12665D02*
X5139D01*
X5027Y12619D01*
X4941Y12533D01*
X4894Y12421D01*
Y12299D01*
X4941Y12187D01*
X5027Y12102D01*
X5139Y12055D01*
X5260D01*
X5372Y12102D01*
X5458Y12187D01*
X5504Y12299D01*
Y12421D01*
X5458Y12533D01*
X5372Y12619D01*
X5260Y12665D01*
D02*
G37*
G36*
X23153Y12483D02*
X23032D01*
X22920Y12437D01*
X22834Y12351D01*
X22788Y12239D01*
Y12118D01*
X22834Y12006D01*
X22920Y11920D01*
X23032Y11874D01*
X23153D01*
X23266Y11920D01*
X23351Y12006D01*
X23398Y12118D01*
Y12239D01*
X23351Y12351D01*
X23266Y12437D01*
X23153Y12483D01*
D02*
G37*
G36*
X27497Y12185D02*
X27376D01*
X27264Y12139D01*
X27178Y12053D01*
X27131Y11941D01*
Y11820D01*
X27178Y11708D01*
X27264Y11622D01*
X27376Y11575D01*
X27497D01*
X27609Y11622D01*
X27695Y11708D01*
X27741Y11820D01*
Y11941D01*
X27695Y12053D01*
X27609Y12139D01*
X27497Y12185D01*
D02*
G37*
G36*
X26697D02*
X26576D01*
X26463Y12139D01*
X26378Y12053D01*
X26331Y11941D01*
Y11820D01*
X26378Y11708D01*
X26463Y11622D01*
X26576Y11575D01*
X26697D01*
X26809Y11622D01*
X26895Y11708D01*
X26941Y11820D01*
Y11941D01*
X26895Y12053D01*
X26809Y12139D01*
X26697Y12185D01*
D02*
G37*
G36*
X25897D02*
X25776D01*
X25663Y12139D01*
X25578Y12053D01*
X25531Y11941D01*
Y11820D01*
X25578Y11708D01*
X25663Y11622D01*
X25776Y11575D01*
X25897D01*
X26009Y11622D01*
X26095Y11708D01*
X26141Y11820D01*
Y11941D01*
X26095Y12053D01*
X26009Y12139D01*
X25897Y12185D01*
D02*
G37*
G36*
X7249Y12360D02*
X7128D01*
X7016Y12313D01*
X6930Y12228D01*
X6883Y12116D01*
Y11994D01*
X6930Y11882D01*
X6941Y11871D01*
X7009Y11788D01*
X6941Y11705D01*
X6930Y11694D01*
X6883Y11582D01*
Y11461D01*
X6930Y11349D01*
X7016Y11263D01*
X7128Y11217D01*
X7249D01*
X7361Y11263D01*
X7447Y11349D01*
X7493Y11461D01*
Y11582D01*
X7447Y11694D01*
X7436Y11705D01*
X7368Y11788D01*
X7436Y11871D01*
X7447Y11882D01*
X7493Y11994D01*
Y12116D01*
X7447Y12228D01*
X7361Y12313D01*
X7249Y12360D01*
D02*
G37*
G36*
X18785Y11404D02*
X18664D01*
X18552Y11358D01*
X18466Y11272D01*
X18419Y11160D01*
Y11039D01*
X18466Y10927D01*
X18552Y10841D01*
X18664Y10795D01*
X18785D01*
X18897Y10841D01*
X18983Y10927D01*
X19029Y11039D01*
Y11160D01*
X18983Y11272D01*
X18897Y11358D01*
X18785Y11404D01*
D02*
G37*
G36*
X25897Y11385D02*
X25776D01*
X25663Y11339D01*
X25578Y11253D01*
X25531Y11141D01*
Y11020D01*
X25578Y10908D01*
X25663Y10822D01*
X25776Y10775D01*
X25897D01*
X26009Y10822D01*
X26095Y10908D01*
X26141Y11020D01*
Y11141D01*
X26095Y11253D01*
X26009Y11339D01*
X25897Y11385D01*
D02*
G37*
G36*
X27518Y11354D02*
X27397D01*
X27285Y11307D01*
X27199Y11222D01*
X27152Y11110D01*
Y10988D01*
X27199Y10876D01*
X27285Y10791D01*
X27397Y10744D01*
X27518D01*
X27630Y10791D01*
X27716Y10876D01*
X27762Y10988D01*
Y11110D01*
X27716Y11222D01*
X27630Y11307D01*
X27518Y11354D01*
D02*
G37*
G36*
X3710Y11451D02*
X3588D01*
X3476Y11405D01*
X3391Y11319D01*
X3344Y11207D01*
Y11086D01*
X3391Y10974D01*
X3402Y10963D01*
X3469Y10880D01*
X3402Y10797D01*
X3391Y10786D01*
X3344Y10674D01*
Y10553D01*
X3391Y10441D01*
X3476Y10355D01*
X3588Y10309D01*
X3710D01*
X3822Y10355D01*
X3907Y10441D01*
X3954Y10553D01*
Y10674D01*
X3907Y10786D01*
X3896Y10797D01*
X3828Y10880D01*
X3896Y10963D01*
X3907Y10974D01*
X3954Y11086D01*
Y11207D01*
X3907Y11319D01*
X3822Y11405D01*
X3710Y11451D01*
D02*
G37*
G36*
X11404Y10735D02*
X11283D01*
X11171Y10689D01*
X11085Y10603D01*
X11039Y10491D01*
Y10370D01*
X11085Y10258D01*
X11171Y10172D01*
X11283Y10126D01*
X11404D01*
X11516Y10172D01*
X11602Y10258D01*
X11648Y10370D01*
Y10491D01*
X11602Y10603D01*
X11516Y10689D01*
X11404Y10735D01*
D02*
G37*
G36*
X25897Y10585D02*
X25776D01*
X25663Y10539D01*
X25578Y10453D01*
X25531Y10341D01*
Y10220D01*
X25578Y10108D01*
X25663Y10022D01*
X25776Y9975D01*
X25897D01*
X26009Y10022D01*
X26095Y10108D01*
X26141Y10220D01*
Y10341D01*
X26095Y10453D01*
X26009Y10539D01*
X25897Y10585D01*
D02*
G37*
G36*
X24297D02*
X24176D01*
X24063Y10539D01*
X23978Y10453D01*
X23931Y10341D01*
Y10220D01*
X23978Y10108D01*
X24063Y10022D01*
X24176Y9975D01*
X24297D01*
X24409Y10022D01*
X24495Y10108D01*
X24541Y10220D01*
Y10341D01*
X24495Y10453D01*
X24409Y10539D01*
X24297Y10585D01*
D02*
G37*
G36*
X19949D02*
X19828D01*
X19716Y10539D01*
X19630Y10453D01*
X19583Y10341D01*
Y10220D01*
X19630Y10108D01*
X19716Y10022D01*
X19828Y9975D01*
X19949D01*
X20061Y10022D01*
X20147Y10108D01*
X20193Y10220D01*
Y10341D01*
X20147Y10453D01*
X20061Y10539D01*
X19949Y10585D01*
D02*
G37*
G36*
X6773Y11035D02*
X6651D01*
X6539Y10988D01*
X6454Y10903D01*
X6407Y10791D01*
Y10669D01*
X6454Y10557D01*
X6539Y10472D01*
X6588Y10452D01*
Y10314D01*
X6526Y10288D01*
X6440Y10203D01*
X6394Y10091D01*
Y9969D01*
X6440Y9857D01*
X6526Y9772D01*
X6638Y9725D01*
X6759D01*
X6871Y9772D01*
X6957Y9857D01*
X7003Y9969D01*
Y10091D01*
X6957Y10203D01*
X6871Y10288D01*
X6823Y10308D01*
Y10446D01*
X6885Y10472D01*
X6970Y10557D01*
X7017Y10669D01*
Y10791D01*
X6970Y10903D01*
X6885Y10988D01*
X6773Y11035D01*
D02*
G37*
G36*
X18785Y10134D02*
X18664D01*
X18552Y10088D01*
X18466Y10002D01*
X18419Y9890D01*
Y9769D01*
X18466Y9657D01*
X18552Y9571D01*
X18664Y9525D01*
X18785D01*
X18897Y9571D01*
X18983Y9657D01*
X19029Y9769D01*
Y9890D01*
X18983Y10002D01*
X18897Y10088D01*
X18785Y10134D01*
D02*
G37*
G36*
X25897Y9785D02*
X25776D01*
X25663Y9739D01*
X25578Y9653D01*
X25531Y9541D01*
Y9420D01*
X25578Y9308D01*
X25663Y9222D01*
X25776Y9175D01*
X25897D01*
X26009Y9222D01*
X26095Y9308D01*
X26141Y9420D01*
Y9541D01*
X26095Y9653D01*
X26009Y9739D01*
X25897Y9785D01*
D02*
G37*
G36*
X25097Y8985D02*
X24976D01*
X24864Y8939D01*
X24778Y8853D01*
X24731Y8741D01*
Y8620D01*
X24778Y8508D01*
X24864Y8422D01*
X24976Y8375D01*
X25097D01*
X25209Y8422D01*
X25295Y8508D01*
X25341Y8620D01*
Y8741D01*
X25295Y8853D01*
X25209Y8939D01*
X25097Y8985D01*
D02*
G37*
G36*
X3776Y9952D02*
X3636D01*
X3507Y9898D01*
X3408Y9799D01*
X3355Y9670D01*
Y9530D01*
X3408Y9401D01*
X3507Y9302D01*
X3636Y9248D01*
X3776D01*
X3780Y9250D01*
X3860Y9203D01*
X3899Y9162D01*
Y8780D01*
X3906Y8730D01*
X3899Y8680D01*
X3921Y8510D01*
X3987Y8351D01*
X4091Y8215D01*
X4228Y8111D01*
X4386Y8045D01*
X4556Y8023D01*
X5556D01*
X5726Y8045D01*
X5885Y8111D01*
X6021Y8215D01*
X6125Y8351D01*
X6191Y8510D01*
X6213Y8680D01*
X6191Y8850D01*
X6125Y9009D01*
X6021Y9145D01*
X5885Y9249D01*
X5726Y9315D01*
X5556Y9337D01*
X5193D01*
X5191Y9350D01*
X5125Y9509D01*
X5021Y9645D01*
X4885Y9749D01*
X4726Y9815D01*
X4556Y9837D01*
X4386Y9815D01*
X4228Y9749D01*
X4175Y9709D01*
X4024Y9753D01*
X4004Y9799D01*
X3905Y9898D01*
X3776Y9952D01*
D02*
G37*
G36*
X25097Y8185D02*
X24976D01*
X24864Y8139D01*
X24778Y8053D01*
X24731Y7941D01*
Y7820D01*
X24778Y7708D01*
X24864Y7622D01*
X24976Y7575D01*
X25097D01*
X25209Y7622D01*
X25295Y7708D01*
X25341Y7820D01*
Y7941D01*
X25295Y8053D01*
X25209Y8139D01*
X25097Y8185D01*
D02*
G37*
G36*
X17968Y7385D02*
X17846D01*
X17734Y7339D01*
X17649Y7253D01*
X17602Y7141D01*
Y7020D01*
X17649Y6908D01*
X17734Y6822D01*
X17846Y6775D01*
X17968D01*
X18080Y6822D01*
X18165Y6908D01*
X18212Y7020D01*
Y7141D01*
X18165Y7253D01*
X18080Y7339D01*
X17968Y7385D01*
D02*
G37*
G36*
X15376D02*
X15255D01*
X15143Y7339D01*
X15057Y7253D01*
X15011Y7141D01*
Y7020D01*
X15057Y6908D01*
X15143Y6822D01*
X15255Y6775D01*
X15376D01*
X15488Y6822D01*
X15574Y6908D01*
X15620Y7020D01*
Y7141D01*
X15574Y7253D01*
X15488Y7339D01*
X15376Y7385D01*
D02*
G37*
G36*
X11646Y7331D02*
X11525D01*
X11413Y7284D01*
X11327Y7199D01*
X11280Y7087D01*
Y6965D01*
X11327Y6853D01*
X11413Y6768D01*
X11525Y6721D01*
X11646D01*
X11758Y6768D01*
X11844Y6853D01*
X11890Y6965D01*
Y7087D01*
X11844Y7199D01*
X11758Y7284D01*
X11646Y7331D01*
D02*
G37*
G36*
X20406Y7315D02*
X20285D01*
X20173Y7269D01*
X20087Y7183D01*
X20041Y7071D01*
Y6950D01*
X20087Y6838D01*
X20173Y6752D01*
X20285Y6706D01*
X20406D01*
X20518Y6752D01*
X20604Y6838D01*
X20650Y6950D01*
Y7071D01*
X20604Y7183D01*
X20518Y7269D01*
X20406Y7315D01*
D02*
G37*
G36*
X18679Y7061D02*
X18558D01*
X18446Y7015D01*
X18360Y6929D01*
X18313Y6817D01*
Y6696D01*
X18360Y6584D01*
X18446Y6498D01*
X18558Y6452D01*
X18679D01*
X18791Y6498D01*
X18877Y6584D01*
X18923Y6696D01*
Y6817D01*
X18877Y6929D01*
X18791Y7015D01*
X18679Y7061D01*
D02*
G37*
G36*
X23352Y6883D02*
X23231D01*
X23119Y6837D01*
X23033Y6751D01*
X22987Y6639D01*
Y6518D01*
X23033Y6406D01*
X23119Y6320D01*
X23231Y6274D01*
X23352D01*
X23464Y6320D01*
X23550Y6406D01*
X23597Y6518D01*
Y6639D01*
X23550Y6751D01*
X23464Y6837D01*
X23352Y6883D01*
D02*
G37*
G36*
X623Y6105D02*
X502D01*
X390Y6058D01*
X304Y5973D01*
X258Y5861D01*
Y5739D01*
X304Y5627D01*
X390Y5542D01*
X502Y5495D01*
X623D01*
X735Y5542D01*
X821Y5627D01*
X867Y5739D01*
Y5861D01*
X821Y5973D01*
X735Y6058D01*
X623Y6105D01*
D02*
G37*
G36*
X7467Y5969D02*
X7345D01*
X7233Y5923D01*
X7148Y5837D01*
X7101Y5725D01*
Y5604D01*
X7148Y5492D01*
X7233Y5406D01*
X7345Y5359D01*
X7467D01*
X7579Y5406D01*
X7664Y5492D01*
X7711Y5604D01*
Y5725D01*
X7664Y5837D01*
X7579Y5923D01*
X7467Y5969D01*
D02*
G37*
G36*
X623Y5141D02*
X502D01*
X390Y5095D01*
X304Y5009D01*
X258Y4897D01*
Y4776D01*
X304Y4664D01*
X390Y4578D01*
X502Y4531D01*
X623D01*
X735Y4578D01*
X821Y4664D01*
X867Y4776D01*
Y4897D01*
X821Y5009D01*
X735Y5095D01*
X623Y5141D01*
D02*
G37*
G36*
X20146Y4699D02*
X20025D01*
X19913Y4652D01*
X19827Y4567D01*
X19781Y4455D01*
Y4333D01*
X19827Y4221D01*
X19913Y4136D01*
X20025Y4089D01*
X20146D01*
X20258Y4136D01*
X20344Y4221D01*
X20391Y4333D01*
Y4455D01*
X20344Y4567D01*
X20258Y4652D01*
X20146Y4699D01*
D02*
G37*
G36*
X7467Y4692D02*
X7345D01*
X7233Y4646D01*
X7148Y4560D01*
X7101Y4448D01*
Y4327D01*
X7148Y4215D01*
X7233Y4129D01*
X7345Y4083D01*
X7467D01*
X7579Y4129D01*
X7664Y4215D01*
X7711Y4327D01*
Y4448D01*
X7664Y4560D01*
X7579Y4646D01*
X7467Y4692D01*
D02*
G37*
G36*
X20983Y4367D02*
X20862D01*
X20749Y4321D01*
X20664Y4235D01*
X20617Y4123D01*
Y4002D01*
X20664Y3890D01*
X20749Y3804D01*
X20862Y3758D01*
X20983D01*
X21095Y3804D01*
X21181Y3890D01*
X21227Y4002D01*
Y4123D01*
X21181Y4235D01*
X21095Y4321D01*
X20983Y4367D01*
D02*
G37*
G36*
X623Y4177D02*
X502D01*
X390Y4131D01*
X304Y4045D01*
X258Y3933D01*
Y3812D01*
X304Y3700D01*
X390Y3614D01*
X502Y3568D01*
X623D01*
X735Y3614D01*
X821Y3700D01*
X867Y3812D01*
Y3933D01*
X821Y4045D01*
X735Y4131D01*
X623Y4177D01*
D02*
G37*
G36*
X2658Y3302D02*
X2342D01*
X2036Y3220D01*
X1762Y3062D01*
X1538Y2838D01*
X1380Y2564D01*
X1298Y2258D01*
Y1942D01*
X1380Y1636D01*
X1538Y1362D01*
X1762Y1138D01*
X2036Y980D01*
X2342Y898D01*
X2658D01*
X2964Y980D01*
X3238Y1138D01*
X3462Y1362D01*
X3620Y1636D01*
X3702Y1942D01*
Y2258D01*
X3620Y2564D01*
X3462Y2838D01*
X3238Y3062D01*
X2964Y3220D01*
X2658Y3302D01*
D02*
G37*
%LPD*%
D16*
X42833Y8454D02*
X45020D01*
X45512Y7962D01*
X42316Y8971D02*
X42833Y8454D01*
X42316Y8971D02*
Y10617D01*
X42912Y11212D01*
X31767Y14985D02*
X33131Y16349D01*
X28410Y14985D02*
X31767D01*
X33131Y16349D02*
Y23700D01*
X31373Y25458D02*
X33131Y23700D01*
X23894Y16015D02*
X27380D01*
X28410Y14985D01*
X23438Y16471D02*
X23894Y16015D01*
X21765Y16471D02*
X23438D01*
X57260Y5500D02*
G03*
X58260Y4500I1000J0D01*
G01*
X59260Y3500D02*
G03*
X58260Y4500I-1000J0D01*
G01*
Y0D02*
G03*
X59260Y1000I0J1000D01*
G01*
Y25000D02*
G03*
X58260Y26000I-1000J0D01*
G01*
Y21500D02*
G03*
X59260Y22500I0J1000D01*
G01*
X58260Y21500D02*
G03*
X57260Y20500I0J-1000D01*
G01*
X-1000Y1000D02*
G03*
X0Y0I1000J0D01*
G01*
Y26000D02*
G03*
X-1000Y25000I0J-1000D01*
G01*
X59260Y1000D02*
Y3500D01*
X56260Y0D02*
X58260D01*
X56260Y26000D02*
X58260D01*
X59260Y22500D02*
Y25000D01*
X57260Y5500D02*
Y20500D01*
X0Y0D02*
X56260D01*
X-1000Y1000D02*
Y25000D01*
X0Y26000D02*
X56260D01*
D97*
X22534Y13287D02*
D03*
X21920Y22733D02*
D03*
X18542Y23393D02*
D03*
X18313Y17907D02*
D03*
X53964Y5753D02*
D03*
X19444Y24289D02*
D03*
X16332Y19685D02*
D03*
X17607Y20437D02*
D03*
X23380Y18761D02*
D03*
X20831Y18756D02*
D03*
X23919Y25405D02*
D03*
X23292Y17348D02*
D03*
X22677Y16485D02*
D03*
X14453Y18567D02*
D03*
X15140Y18383D02*
D03*
X13233Y15691D02*
D03*
X14453Y19101D02*
D03*
X14046Y7473D02*
D03*
X35022Y16553D02*
D03*
X52516Y11801D02*
D03*
X13388Y7082D02*
D03*
X43887Y17348D02*
D03*
X38362Y4712D02*
D03*
X53055Y14321D02*
D03*
X48571Y1454D02*
D03*
X51871Y962D02*
D03*
X4953Y15869D02*
D03*
X5097Y10105D02*
D03*
X16332Y7080D02*
D03*
X3589Y21984D02*
D03*
X33914Y2947D02*
D03*
X44114Y457D02*
D03*
X7656Y17037D02*
D03*
X24379Y17085D02*
D03*
X21765Y16471D02*
D03*
X25786Y19101D02*
D03*
X32004Y25431D02*
D03*
X31373Y25458D02*
D03*
X32636Y25405D02*
D03*
X32085Y14321D02*
D03*
X27436Y10188D02*
D03*
X20523Y4877D02*
D03*
X45822Y24308D02*
D03*
X49128Y24353D02*
D03*
X24704Y13880D02*
D03*
X12472Y11009D02*
D03*
X55677Y20533D02*
D03*
X31677Y21525D02*
D03*
X50972Y8198D02*
D03*
X26364Y14901D02*
D03*
X8977Y20868D02*
D03*
X12226Y21782D02*
D03*
X4953Y457D02*
D03*
X4991Y25543D02*
D03*
X14453Y21800D02*
D03*
X17729Y3611D02*
D03*
Y4466D02*
D03*
Y5321D02*
D03*
Y6176D02*
D03*
X12950Y5664D02*
D03*
X15773Y4441D02*
D03*
X19437Y4907D02*
D03*
X18592Y4902D02*
D03*
X8528Y15240D02*
D03*
X7678D02*
D03*
X8528Y12538D02*
D03*
X7678D02*
D03*
X8534Y8026D02*
D03*
X11070Y12830D02*
D03*
Y14964D02*
D03*
Y14430D02*
D03*
Y13364D02*
D03*
Y13897D02*
D03*
X10147Y10030D02*
D03*
Y10730D02*
D03*
X7849Y10389D02*
D03*
X21491Y11320D02*
D03*
X19888Y11480D02*
D03*
X20244Y6213D02*
D03*
X20086Y5394D02*
D03*
X34327Y15418D02*
D03*
X34468Y16027D02*
D03*
X25324Y16485D02*
D03*
X26111Y15494D02*
D03*
X36043Y9912D02*
D03*
X24827Y24353D02*
D03*
X24342Y19003D02*
D03*
X24068Y19798D02*
D03*
Y20712D02*
D03*
X24334Y22200D02*
D03*
X36617Y24308D02*
D03*
X36017Y25208D02*
D03*
X35864Y24218D02*
D03*
X25146Y17094D02*
D03*
X31017Y14344D02*
D03*
X29032Y19685D02*
D03*
X29016Y21954D02*
D03*
X30121Y18400D02*
D03*
X30142Y17348D02*
D03*
X29642D02*
D03*
X30642Y24714D02*
D03*
X30142Y23342D02*
D03*
X30642Y24218D02*
D03*
X30142Y24613D02*
D03*
Y25405D02*
D03*
X31579Y20760D02*
D03*
X30946D02*
D03*
Y19939D02*
D03*
Y21801D02*
D03*
X28762Y20760D02*
D03*
X28143Y21525D02*
D03*
X47462Y8612D02*
D03*
X53868Y1995D02*
D03*
X50860Y4216D02*
D03*
X50022D02*
D03*
X55461Y6715D02*
D03*
X55982Y2981D02*
D03*
X50972Y8798D02*
D03*
X55541Y7302D02*
D03*
X35097Y1638D02*
D03*
X22949Y857D02*
D03*
X19609Y1781D02*
D03*
X4966Y3873D02*
D03*
X3429Y4479D02*
D03*
X3429Y5774D02*
D03*
X-390Y3873D02*
D03*
Y4836D02*
D03*
Y5800D02*
D03*
X8678Y3412D02*
D03*
X7428D02*
D03*
X6178D02*
D03*
X48053Y1017D02*
D03*
X48629Y503D02*
D03*
X29836Y1397D02*
D03*
X45624Y2102D02*
D03*
X48610Y23017D02*
D03*
X44610Y22217D02*
D03*
X45339Y19126D02*
D03*
X41612Y14905D02*
D03*
X41937Y14500D02*
D03*
X42912Y14462D02*
D03*
X47010Y18217D02*
D03*
X48760Y18867D02*
D03*
X43160D02*
D03*
X40760D02*
D03*
X36412Y5362D02*
D03*
X29036Y7080D02*
D03*
X28236D02*
D03*
Y7880D02*
D03*
X29036Y7880D02*
D03*
X29036Y11080D02*
D03*
X39662Y9262D02*
D03*
X33036Y13480D02*
D03*
X36412Y13162D02*
D03*
X37712D02*
D03*
X36412Y10562D02*
D03*
Y7962D02*
D03*
X37062D02*
D03*
X37712Y11212D02*
D03*
X38362Y11862D02*
D03*
X37712Y7312D02*
D03*
X38362Y11212D02*
D03*
X39012Y7312D02*
D03*
Y7962D02*
D03*
X48247Y2031D02*
D03*
X52974Y2003D02*
D03*
X51871Y1544D02*
D03*
X52425Y17715D02*
D03*
X55541Y15102D02*
D03*
Y16902D02*
D03*
Y18702D02*
D03*
X52598Y16027D02*
D03*
X47462Y11212D02*
D03*
X29836Y13480D02*
D03*
X26636Y11080D02*
D03*
X30636Y11880D02*
D03*
X25036Y7080D02*
D03*
X31436Y12680D02*
D03*
X29836Y11880D02*
D03*
X24236Y4680D02*
D03*
X30636Y12680D02*
D03*
X25836Y5480D02*
D03*
X31436D02*
D03*
X25036Y11080D02*
D03*
Y11880D02*
D03*
X30636Y6280D02*
D03*
X24236Y11080D02*
D03*
X29836Y10280D02*
D03*
X25036D02*
D03*
X26636Y7880D02*
D03*
X25836D02*
D03*
X25036Y5480D02*
D03*
X44862Y11212D02*
D03*
X45512Y9262D02*
D03*
X47462Y3412D02*
D03*
X47810Y17417D02*
D03*
X49410Y22217D02*
D03*
X47810Y22217D02*
D03*
X38210Y22217D02*
D03*
X37085Y21212D02*
D03*
X38685D02*
D03*
X40285D02*
D03*
X43485D02*
D03*
X49085Y21212D02*
D03*
X47485D02*
D03*
X42685D02*
D03*
X37885D02*
D03*
X36412Y4712D02*
D03*
X46812Y4062D02*
D03*
X37712Y4712D02*
D03*
X46162Y4062D02*
D03*
X37062Y6012D02*
D03*
X46162Y4712D02*
D03*
X41612Y13812D02*
D03*
X46812Y6012D02*
D03*
X45512Y4712D02*
D03*
X46812Y10562D02*
D03*
X37712Y6662D02*
D03*
X40962Y13162D02*
D03*
X46812Y9912D02*
D03*
X42912Y13162D02*
D03*
X41612D02*
D03*
X46162Y6012D02*
D03*
X44212Y12512D02*
D03*
X40312D02*
D03*
X43562D02*
D03*
X40962D02*
D03*
X45512Y6012D02*
D03*
X42912Y12512D02*
D03*
X46162Y7962D02*
D03*
X44862Y6012D02*
D03*
X45512Y7962D02*
D03*
X44212Y10562D02*
D03*
X42912Y11212D02*
D03*
X44212Y7312D02*
D03*
X42912Y10562D02*
D03*
X44212Y9262D02*
D03*
X41612Y6662D02*
D03*
X43562Y9912D02*
D03*
X41612D02*
D03*
X43562Y7962D02*
D03*
X42912Y7312D02*
D03*
Y9262D02*
D03*
X41612Y7962D02*
D03*
D115*
X39335Y4578D02*
Y6147D01*
X38688Y5039D02*
Y6147D01*
X38877Y6336D01*
X39146D01*
X39335Y6147D01*
X38362Y4712D02*
X38688Y5039D01*
X39146Y4389D02*
X39335Y4578D01*
X34722Y5080D02*
X35413Y4389D01*
X31836Y5080D02*
X34722D01*
X48984Y16265D02*
Y16732D01*
X48579Y15859D02*
X48984Y16265D01*
X48579Y15774D02*
Y15859D01*
Y15774D02*
X48601Y15752D01*
Y15667D02*
Y15752D01*
X48516Y15581D02*
X48601Y15667D01*
X48431Y15581D02*
X48516D01*
X48408Y15603D02*
X48431Y15581D01*
X48323Y15603D02*
X48408D01*
X48121Y15401D02*
X48323Y15603D01*
X48984Y16732D02*
Y16880D01*
X46207Y13487D02*
X48121Y15401D01*
X48984Y18553D02*
Y18616D01*
Y18553D02*
X49045Y18493D01*
X49407D01*
X49467Y18433D01*
Y18312D02*
Y18433D01*
X49407Y18252D02*
X49467Y18312D01*
X48611Y18252D02*
X49407D01*
X48550Y18191D02*
X48611Y18252D01*
X48550Y18071D02*
Y18191D01*
Y18071D02*
X48611Y18010D01*
X49171D01*
X49232Y17950D01*
Y17829D02*
Y17950D01*
X49171Y17769D02*
X49232Y17829D01*
X49045Y17769D02*
X49171D01*
X48984Y17709D02*
X49045Y17769D01*
X48984Y16940D02*
Y17709D01*
Y16880D02*
Y16940D01*
X48771Y18830D02*
X48984Y18616D01*
X46764Y15614D02*
X47295Y16145D01*
X46679Y15614D02*
X46764D01*
X46504Y15789D02*
X46679Y15614D01*
X46418Y15789D02*
X46504D01*
X46333Y15704D02*
X46418Y15789D01*
X46333Y15618D02*
Y15704D01*
Y15618D02*
X46508Y15443D01*
Y15358D02*
Y15443D01*
X46477Y15326D02*
X46508Y15358D01*
X47295Y16145D02*
X47384Y16234D01*
X46371Y15221D02*
X46477Y15326D01*
X46371Y14458D02*
Y15221D01*
X46311Y14398D02*
X46371Y14458D01*
X46190Y14398D02*
X46311D01*
X46130Y14458D02*
X46190Y14398D01*
X46130Y14458D02*
Y15266D01*
X46070Y15326D02*
X46130Y15266D01*
X45949Y15326D02*
X46070D01*
X45889Y15266D02*
X45949Y15326D01*
X45889Y14846D02*
Y15266D01*
X45828Y14786D02*
X45889Y14846D01*
X45708Y14786D02*
X45828D01*
X45647Y14846D02*
X45708Y14786D01*
X45647Y14846D02*
Y15215D01*
X45587Y15275D02*
X45647Y15215D01*
X45466Y15275D02*
X45587D01*
X45406Y15215D02*
X45466Y15275D01*
X45406Y14847D02*
Y15215D01*
X45346Y14786D02*
X45406Y14847D01*
X45225Y14786D02*
X45346D01*
X45165Y14847D02*
X45225Y14786D01*
X45165Y14847D02*
Y15192D01*
X45104Y15252D02*
X45165Y15192D01*
X44984Y15252D02*
X45104D01*
X44924Y15192D02*
X44984Y15252D01*
X44924Y14847D02*
Y15192D01*
X44863Y14786D02*
X44924Y14847D01*
X44743Y14786D02*
X44863D01*
X44682Y14847D02*
X44743Y14786D01*
X44682Y14847D02*
Y15192D01*
X44622Y15252D02*
X44682Y15192D01*
X44501Y15252D02*
X44622D01*
X44441Y15192D02*
X44501Y15252D01*
X44441Y14941D02*
Y15192D01*
X44381Y14881D02*
X44441Y14941D01*
X44336Y14881D02*
X44381D01*
X44091D02*
X44336D01*
X46286Y20222D02*
X46351Y20287D01*
X46286Y19659D02*
Y20222D01*
Y19659D02*
X46346Y19598D01*
X46420D01*
X46481Y19538D01*
Y19417D02*
Y19538D01*
X46420Y19357D02*
X46481Y19417D01*
X46098Y19357D02*
X46420D01*
X46037Y19297D02*
X46098Y19357D01*
X46037Y19176D02*
Y19297D01*
Y19176D02*
X46098Y19116D01*
X46309D01*
X46370Y19055D01*
Y18935D02*
Y19055D01*
X46309Y18874D02*
X46370Y18935D01*
X46098Y18874D02*
X46309D01*
X46037Y18814D02*
X46098Y18874D01*
X46037Y18693D02*
Y18814D01*
Y18693D02*
X46098Y18633D01*
X46225D01*
X46286Y18573D01*
Y18528D02*
Y18573D01*
X46351Y20287D02*
X46875Y20811D01*
X46286Y18355D02*
Y18528D01*
X45468Y18197D02*
X45822Y18551D01*
X45382Y18197D02*
X45468D01*
X45298Y18281D02*
X45382Y18197D01*
X45213Y18281D02*
X45298D01*
X45128Y18196D02*
X45213Y18281D01*
X45128Y18111D02*
Y18196D01*
Y18111D02*
X45212Y18027D01*
Y17941D02*
Y18027D01*
X45180Y17910D02*
X45212Y17941D01*
X44078Y18392D02*
Y18639D01*
X44018Y18331D02*
X44078Y18392D01*
X43854Y18331D02*
X44018D01*
X43793Y18271D02*
X43854Y18331D01*
X43793Y18150D02*
Y18271D01*
Y18150D02*
X43854Y18090D01*
X44018D01*
X44078Y18030D01*
Y17985D02*
Y18030D01*
Y18639D02*
Y18892D01*
Y17978D02*
Y17985D01*
Y18892D02*
X44203Y19017D01*
Y19309D01*
X42733Y16104D02*
X43120D01*
X42583Y16254D02*
X42733Y16104D01*
X42498Y16254D02*
X42583D01*
X42413Y16168D02*
X42498Y16254D01*
X42413Y16083D02*
Y16168D01*
Y16083D02*
X42456Y16040D01*
Y15954D02*
Y16040D01*
X42370Y15869D02*
X42456Y15954D01*
X42285Y15869D02*
X42370D01*
X42074Y16080D02*
X42285Y15869D01*
X41989Y16080D02*
X42074D01*
X41903Y15995D02*
X41989Y16080D01*
X41903Y15910D02*
Y15995D01*
Y15910D02*
X42161Y15653D01*
Y15567D02*
Y15653D01*
X42075Y15482D02*
X42161Y15567D01*
X41990Y15482D02*
X42075D01*
X41733Y15739D02*
X41990Y15482D01*
X41648Y15739D02*
X41733D01*
X41562Y15654D02*
X41648Y15739D01*
X41562Y15568D02*
Y15654D01*
Y15568D02*
X41687Y15443D01*
Y15358D02*
Y15443D01*
X41656Y15326D02*
X41687Y15358D01*
X43120Y16104D02*
X43688D01*
X40962Y16681D02*
Y16922D01*
Y16681D02*
X41022Y16621D01*
X41121D01*
X41182Y16560D01*
Y16440D02*
Y16560D01*
X41121Y16379D02*
X41182Y16440D01*
X40661Y16379D02*
X41121D01*
X40601Y16319D02*
X40661Y16379D01*
X40601Y16198D02*
Y16319D01*
Y16198D02*
X40661Y16138D01*
X41134D01*
X41195Y16078D01*
Y15957D02*
Y16078D01*
X41134Y15897D02*
X41195Y15957D01*
X40661Y15897D02*
X41134D01*
X40601Y15836D02*
X40661Y15897D01*
X40601Y15716D02*
Y15836D01*
Y15716D02*
X40661Y15655D01*
X40901D01*
X40962Y15595D01*
Y15551D02*
Y15595D01*
Y16922D02*
Y17089D01*
Y15426D02*
Y15551D01*
X40862Y15326D02*
X40962Y15426D01*
Y17089D02*
X41290Y17417D01*
X38734Y16073D02*
Y16187D01*
Y16073D02*
X38795Y16013D01*
X38795D01*
X38855Y15952D01*
Y15832D02*
Y15952D01*
X38795Y15771D02*
X38855Y15832D01*
X38319Y15771D02*
X38795D01*
X38259Y15711D02*
X38319Y15771D01*
X38259Y15590D02*
Y15711D01*
Y15590D02*
X38319Y15530D01*
X38674D01*
X38734Y15470D01*
Y15425D02*
Y15470D01*
Y16187D02*
Y16627D01*
Y14985D02*
Y15425D01*
X38038Y15227D02*
Y15326D01*
X37977Y15167D02*
X38038Y15227D01*
X37783Y15167D02*
X37977D01*
X37723Y15106D02*
X37783Y15167D01*
X37723Y14986D02*
Y15106D01*
Y14986D02*
X37783Y14926D01*
X37977D01*
X38038Y14865D01*
Y14821D02*
Y14865D01*
Y14723D02*
Y14821D01*
Y12381D02*
Y14723D01*
Y15326D02*
Y16104D01*
X37185Y16246D02*
Y16383D01*
X37125Y16186D02*
X37185Y16246D01*
X36904Y16186D02*
X37125D01*
X36844Y16125D02*
X36904Y16186D01*
X36844Y16005D02*
Y16125D01*
Y16005D02*
X36904Y15944D01*
X37607D01*
X37668Y15884D01*
Y15763D02*
Y15884D01*
X37607Y15703D02*
X37668Y15763D01*
X36763Y15703D02*
X37607D01*
X36703Y15643D02*
X36763Y15703D01*
X36703Y15522D02*
Y15643D01*
Y15522D02*
X36763Y15462D01*
X37125D01*
X37185Y15401D01*
Y15357D02*
Y15401D01*
X37769Y18389D02*
X37934Y18555D01*
X37769Y18304D02*
Y18389D01*
Y18304D02*
X37995Y18078D01*
Y17993D02*
Y18078D01*
X37909Y17908D02*
X37995Y17993D01*
X37824Y17908D02*
X37909D01*
X37370Y18362D02*
X37824Y17908D01*
X37285Y18362D02*
X37370D01*
X37200Y18276D02*
X37285Y18362D01*
X37200Y18191D02*
Y18276D01*
Y18191D02*
X37343Y18048D01*
Y17963D02*
Y18048D01*
X37311Y17931D02*
X37343Y17963D01*
X37185Y17805D02*
X37311Y17931D01*
X37185Y16383D02*
Y17805D01*
Y15326D02*
Y15357D01*
Y14849D02*
Y15326D01*
Y14849D02*
X37317Y14717D01*
X19851Y21426D02*
X19888Y21463D01*
Y21426D02*
X20343Y20972D01*
Y16253D02*
Y20972D01*
X21720Y23205D02*
X23919Y25405D01*
X21630Y23205D02*
X21720D01*
X14453Y21800D02*
X14826Y21426D01*
X19888D02*
Y21463D01*
X14826Y21426D02*
X19851D01*
X28676Y14462D02*
X28856Y14283D01*
X29262Y13880D02*
X31644D01*
X28856Y14283D02*
X28860D01*
X26802Y14462D02*
X28676D01*
X28860Y14283D02*
X29262Y13880D01*
X26364Y14901D02*
X26802Y14462D01*
X26325Y14940D02*
X26364Y14901D01*
X19888Y21463D02*
X21630Y23205D01*
X11557Y6147D02*
X16104D01*
X9850Y5182D02*
X10592D01*
X11557Y6147D01*
X41473Y1311D02*
X42246Y2083D01*
X40084Y1003D02*
X40391Y1311D01*
X41473D01*
X41229Y1671D02*
X41620Y2062D01*
X40218Y1671D02*
X41229D01*
X39810Y1263D02*
X40218Y1671D01*
X41620Y2062D02*
Y2733D01*
X38972Y1003D02*
X40084D01*
X40638Y978D02*
X43209D01*
X40371Y711D02*
X40638Y978D01*
X47138Y3003D02*
Y3736D01*
X46574Y2439D02*
X47138Y3003D01*
X44669Y2439D02*
X46574D01*
X42246Y2083D02*
X43249Y3086D01*
X46293D01*
X42625Y3737D02*
X45497D01*
X41620Y2733D02*
X42625Y3737D01*
X35733Y2218D02*
X39846D01*
X35725D02*
X35733D01*
X42666Y5038D02*
X46295D01*
X39846Y2218D02*
X42666Y5038D01*
X40361Y2083D02*
X42666Y4389D01*
X40297Y2019D02*
X40361Y2083D01*
X38972Y2019D02*
X40297D01*
X42666Y4389D02*
X45188D01*
X43209Y978D02*
X44669Y2439D01*
X45188Y4389D02*
X45512Y4712D01*
X25814Y3726D02*
X26370Y3170D01*
X32979D02*
X33385Y3576D01*
X26370Y3170D02*
X32979D01*
X23993Y4123D02*
X25418D01*
X23724Y4392D02*
X23993Y4123D01*
X23724Y4392D02*
Y4945D01*
X23188Y5480D02*
X23282Y5386D01*
X23724Y4945D01*
X20977Y5480D02*
X23188D01*
X26517Y3505D02*
X33005D01*
X25425Y4597D02*
X26517Y3505D01*
X25418Y4123D02*
X25814Y3726D01*
X15333Y2515D02*
X34147D01*
X34690Y1971D01*
X44203Y19309D02*
Y19667D01*
X44078Y17940D02*
Y17978D01*
X30867Y5029D02*
X31087Y5249D01*
Y5672D01*
X31295Y5880D01*
X29756Y5029D02*
X30867D01*
X29436Y5349D02*
X29756Y5029D01*
X29436Y5349D02*
Y6579D01*
X29573Y6715D01*
X30201D01*
X30636Y6280D01*
X44078Y17796D02*
Y17940D01*
X45339Y19126D02*
X45364Y19101D01*
X44679Y19787D02*
X45339Y19126D01*
X44203Y19667D02*
X44323Y19787D01*
X44679D01*
X42499Y18461D02*
X42628Y18332D01*
Y18053D02*
Y18332D01*
X42337Y18461D02*
X42499D01*
X42525Y17950D02*
X42628Y18053D01*
X45323Y15418D02*
X46031Y16126D01*
X45238Y15418D02*
X45323D01*
X45237Y15417D02*
X45238Y15418D01*
X42495Y14755D02*
X43066Y15326D01*
X43157Y15417D01*
X45237D01*
X42682Y15326D02*
X42989Y15633D01*
X42291Y14935D02*
X42682Y15326D01*
X45148Y15633D02*
X45835Y16320D01*
X42989Y15633D02*
X45148D01*
X42225Y15326D02*
X42776Y15878D01*
X41972Y15073D02*
X42225Y15326D01*
X44630Y15878D02*
X45035Y16282D01*
X42776Y15878D02*
X44630D01*
X42495Y14046D02*
Y14755D01*
X43875Y17361D02*
Y17618D01*
Y17361D02*
X43887Y17348D01*
X43697Y17796D02*
X43875Y17618D01*
X40936Y5039D02*
X41096D01*
X40827Y5036D02*
X40934D01*
X39987Y4195D02*
X40827Y5036D01*
X40934D02*
X40936Y5039D01*
X16253Y2184D02*
X34051D01*
X22579Y2851D02*
X32965D01*
X33474Y3360D01*
X21830Y3601D02*
X22579Y2851D01*
X35623Y2002D02*
X38972D01*
X33474Y3360D02*
X34265D01*
X35623Y2002D01*
X33385Y3576D02*
X34367D01*
X34404Y3844D02*
X35810Y2439D01*
X33348Y3844D02*
X34404D01*
X33151Y3647D02*
X33348Y3844D01*
X33005Y3505D02*
X33147Y3647D01*
X33151D01*
X33345Y4111D02*
X34548D01*
X33072Y3838D02*
X33345Y4111D01*
X27479Y3838D02*
X33072D01*
X33301Y4372D02*
X34710D01*
X32991Y4062D02*
X33301Y4372D01*
X29756Y4062D02*
X32991D01*
X34367Y3576D02*
X35725Y2218D01*
X34548Y4111D02*
X35199Y3460D01*
X34710Y4372D02*
X35344Y3739D01*
X48571Y1454D02*
X50311D01*
X50860Y2003D01*
X51386Y519D02*
X51871Y1003D01*
X50860Y519D02*
X51386D01*
X37388Y11728D02*
X37580Y11536D01*
X38038D01*
X37388Y11728D02*
Y11997D01*
X37577Y12186D01*
X37843D01*
X38038Y12381D01*
X38734Y16627D02*
Y17983D01*
X38688Y14938D02*
X38734Y14985D01*
X38688Y12189D02*
Y14938D01*
X37317Y14717D02*
X37385Y14648D01*
Y13489D02*
Y14648D01*
X36385Y15326D02*
Y17767D01*
Y15073D02*
X36735Y14723D01*
Y13486D02*
Y14723D01*
X36385Y15073D02*
Y15326D01*
X35537Y17955D02*
X36109Y18527D01*
Y20798D01*
X37154Y21843D01*
X37835D01*
X35537Y10418D02*
Y17955D01*
X36385Y18250D02*
Y20512D01*
X37085Y21212D01*
X35941Y17805D02*
X36385Y18250D01*
X37835Y21843D02*
X38210Y22217D01*
X49403Y22276D02*
X49459Y22219D01*
X43562Y12512D02*
X43603D01*
X48760Y18841D02*
X48771Y18830D01*
X48760Y18841D02*
Y18867D01*
X48214Y19304D02*
X48334Y19184D01*
Y18087D02*
Y19184D01*
X47716Y19304D02*
X48214D01*
X47582Y19170D02*
X47716Y19304D01*
X47582Y18618D02*
Y19170D01*
Y18618D02*
X47810Y18390D01*
Y17417D02*
Y18390D01*
X48205Y17958D02*
X48334Y18087D01*
X48205Y15933D02*
Y17958D01*
X46875Y20811D02*
X47231Y21168D01*
X47440D02*
X47485Y21212D01*
X47231Y21168D02*
X47440D01*
X47582Y17736D02*
Y18075D01*
X47066Y18274D02*
X47383D01*
X47582Y18075D01*
X47384Y17538D02*
X47582Y17736D01*
X47010Y18217D02*
X47066Y18274D01*
X47384Y16234D02*
Y17538D01*
X46286Y16126D02*
X46586Y16426D01*
X46031Y16126D02*
X46286D01*
X46408Y14136D02*
X48205Y15933D01*
X43427Y14136D02*
X46408D01*
X44078Y13487D02*
X46207D01*
X47582Y14149D02*
X48760Y15326D01*
X46812Y13741D02*
X47220Y14149D01*
X47582D01*
X48760Y15326D02*
X49860Y16427D01*
Y20138D01*
X44212Y12512D02*
X44535Y12836D01*
X46293D01*
X46812Y13354D01*
Y13741D01*
X49860Y20138D02*
Y20437D01*
X46586Y19157D02*
X47859Y20431D01*
X46586Y16426D02*
Y19157D01*
X47859Y20431D02*
Y22168D01*
X47810Y22217D02*
X47859Y22168D01*
X41612Y13162D02*
X42495Y14046D01*
X43137Y17334D02*
Y17425D01*
X42958Y17155D02*
X43137Y17334D01*
X42638Y17155D02*
X42958D01*
X42585Y17287D02*
X42761Y17462D01*
X42585Y17207D02*
Y17287D01*
Y17207D02*
X42638Y17155D01*
X43137Y17425D02*
X43508Y17796D01*
X41290Y17417D02*
X41934Y18062D01*
X40638Y15102D02*
X40862Y15326D01*
X40638Y14656D02*
Y15102D01*
X45035Y17765D02*
X45180Y17910D01*
X45822Y18551D02*
Y19263D01*
X44659Y20425D02*
X45822Y19263D01*
X45035Y16282D02*
Y17765D01*
X45835Y16320D02*
Y17904D01*
X42525Y17771D02*
Y17950D01*
Y17771D02*
X42761Y17536D01*
Y17462D02*
Y17536D01*
X42150Y18274D02*
X42337Y18461D01*
X42150Y17888D02*
Y18274D01*
X44659Y20425D02*
Y20873D01*
X44628Y22225D02*
X44659Y22193D01*
Y20904D02*
Y22193D01*
X43508Y17796D02*
X43697D01*
X41288Y15685D02*
X42215Y16612D01*
X41936Y16947D02*
X42697D01*
X41728Y17155D02*
Y17465D01*
X42150Y17888D01*
X41728Y17155D02*
X41936Y16947D01*
X42764Y16691D02*
Y16880D01*
X42697Y16947D02*
X42764Y16880D01*
X42685Y16612D02*
X42764Y16691D01*
X42215Y16612D02*
X42685D01*
X43010Y19406D02*
X43160Y19256D01*
Y18867D02*
Y19256D01*
X42120Y19406D02*
X43010D01*
X41934Y19221D02*
X42120Y19406D01*
X41934Y18062D02*
Y19221D01*
X41288Y13489D02*
Y15685D01*
X40638Y14656D02*
X40638Y14656D01*
X41185Y20225D02*
X41772Y20811D01*
X41185Y18763D02*
Y20225D01*
X41772Y20811D02*
X43084D01*
X40385Y17573D02*
X41075Y18263D01*
Y18653D02*
X41185Y18763D01*
X41075Y18263D02*
Y18653D01*
X40385Y14680D02*
Y17573D01*
X44078Y17796D02*
X44336Y17538D01*
Y17264D02*
Y17538D01*
X41612Y14905D02*
Y15282D01*
X41656Y15326D01*
X43084Y20811D02*
X43485Y21212D01*
X39988Y14283D02*
X40385Y14680D01*
X40760Y19552D02*
Y20759D01*
X40334Y18390D02*
Y19127D01*
X40760Y19552D01*
X40307Y21212D02*
X40760Y20759D01*
X40285Y21212D02*
X40307D01*
X38734Y20477D02*
Y21159D01*
Y18821D02*
Y19360D01*
X38419Y19675D02*
X38734Y19360D01*
X38419Y20161D02*
X38734Y20477D01*
X38419Y19675D02*
Y20161D01*
X49085Y21212D02*
X49860Y20437D01*
X38834Y711D02*
X40371D01*
X39143Y1263D02*
X39810D01*
X38972Y2002D02*
Y2019D01*
X45594Y2071D02*
X47179Y485D01*
X31644Y13880D02*
X32085Y14321D01*
X35941Y11225D02*
X36280Y10886D01*
X35941Y11225D02*
Y17805D01*
X36385Y17767D02*
X37185Y18567D01*
X36412Y13162D02*
X36735Y13486D01*
X37934Y16207D02*
Y17628D01*
Y16207D02*
X38038Y16104D01*
X20343Y16253D02*
X21656Y14940D01*
X26325D01*
X20244Y6213D02*
X20977Y5480D01*
X16104Y6147D02*
X16555Y5695D01*
X11649Y3622D02*
X17717D01*
X9906Y1238D02*
X10069Y1401D01*
Y2043D02*
X11649Y3622D01*
X10069Y1401D02*
Y2043D01*
X7406Y1488D02*
X9791Y3873D01*
X10443D02*
X11517Y4946D01*
X9791Y3873D02*
X10443D01*
X11517Y4946D02*
X17355D01*
X8656Y1488D02*
X11235Y4067D01*
X17330D01*
X6156Y1488D02*
X9850Y5182D01*
X16555Y5695D02*
X17249D01*
X17729Y6176D01*
X17355Y4946D02*
X17729Y5321D01*
X17717Y3622D02*
X17729Y3611D01*
X17330Y4067D02*
X17729Y4466D01*
X8656Y1238D02*
Y1488D01*
X7406Y1238D02*
Y1488D01*
X6156Y1238D02*
Y1488D01*
X20558Y5394D02*
X21830Y4123D01*
Y3601D02*
Y4123D01*
X20086Y5394D02*
X20558D01*
X35537Y10418D02*
X36043Y9912D01*
X35733Y9589D02*
X39335D01*
X33934Y11278D02*
X33990Y11222D01*
X35623Y9589D02*
X35733D01*
X33990Y11222D02*
X35623Y9589D01*
X33934Y11278D02*
Y12382D01*
X33990Y10257D02*
X35687Y8560D01*
X38405D01*
X32767Y11480D02*
X33990Y10257D01*
X31036Y11480D02*
X32767D01*
X33990Y10714D02*
X35733Y8971D01*
X33553Y11151D02*
X33990Y10714D01*
X35733Y8971D02*
X35879Y8825D01*
X33553Y11151D02*
Y11963D01*
X35879Y8825D02*
X38641D01*
X33990Y8885D02*
X35239Y7636D01*
X35733D01*
X33380Y9496D02*
X33990Y8885D01*
X29977Y9496D02*
X33380D01*
X35350Y7962D02*
X35733D01*
X33990Y9322D02*
X35350Y7962D01*
X33432Y9880D02*
X33990Y9322D01*
X30236Y9880D02*
X33432D01*
X35733Y8306D02*
X36718D01*
X33131Y10680D02*
X33990Y9821D01*
X35506Y8306D02*
X35733D01*
X33990Y9821D02*
X35506Y8306D01*
X31036Y10680D02*
X33131D01*
X35733Y7962D02*
X36412D01*
X37459Y20599D02*
Y21361D01*
X37185Y18567D02*
Y19023D01*
X37465Y19302D01*
Y20599D01*
X37897Y21260D02*
X37934Y21222D01*
Y18555D02*
Y21222D01*
Y17628D02*
X38735Y18428D01*
Y18821D01*
X38659Y21234D02*
X38734Y21159D01*
X40182Y18237D02*
X40334Y18390D01*
X38988Y18237D02*
X40182D01*
X38734Y17983D02*
X38988Y18237D01*
X40760Y18814D02*
X40818Y18872D01*
X40760Y18306D02*
Y18814D01*
X40335Y17882D02*
X40760Y18306D01*
X39534Y17642D02*
X39774Y17882D01*
X40335D01*
X41288Y4389D02*
X42585Y5686D01*
X39988Y3547D02*
X40830Y4389D01*
X41288D01*
X42585Y5686D02*
X45836D01*
X41096Y5039D02*
X41285Y5228D01*
X36356Y1126D02*
X38419D01*
X38834Y711D01*
X36225Y1342D02*
X38633D01*
X38972Y1003D01*
X38849Y1558D02*
X39143Y1263D01*
X36102Y1558D02*
X38849D01*
X27827Y711D02*
X35941D01*
X36356Y1126D01*
X34785Y1003D02*
X35886D01*
X36225Y1342D01*
X34831Y1263D02*
X35807D01*
X36102Y1558D01*
X27307Y1232D02*
X27827Y711D01*
X34690Y1403D02*
X34831Y1263D01*
X34690Y1403D02*
Y1971D01*
X35810Y2439D02*
X39146D01*
X34387Y1402D02*
X34785Y1003D01*
X34051Y2184D02*
X34387Y1849D01*
Y1402D02*
Y1849D01*
X15550Y1482D02*
X16253Y2184D01*
X14300Y1482D02*
X15333Y2515D01*
X39146Y2439D02*
X39338Y2631D01*
X25425Y6401D02*
X25836Y6812D01*
Y7880D01*
X25425Y4597D02*
Y6401D01*
X35199Y3460D02*
X36556D01*
X25836Y5480D02*
X27479Y3838D01*
X28742Y5076D02*
X29756Y4062D01*
X35344Y3739D02*
X39160D01*
X45822Y4372D02*
X46162Y4712D01*
X45822Y4062D02*
Y4372D01*
X45497Y3737D02*
X45822Y4062D01*
X46162D02*
X46162D01*
X46488Y3736D01*
X46293Y3086D02*
X46488Y3281D01*
Y3736D01*
X46812Y4062D02*
X47138Y3736D01*
X42526Y6336D02*
X44538D01*
X44862Y6012D01*
X45188Y6336D02*
X45512Y6012D01*
X45188Y6336D02*
Y6794D01*
X44996Y6986D02*
X45188Y6794D01*
X46488Y5231D02*
Y5689D01*
X46812Y6012D01*
X46295Y5038D02*
X46488Y5231D01*
X39338Y2897D02*
X39530Y3089D01*
X39796D01*
X39988Y3281D01*
Y3547D01*
X39338Y2631D02*
Y2897D01*
X45836Y5686D02*
X46162Y6012D01*
X36927Y3089D02*
X39160D01*
X41285Y5494D02*
X41480Y5689D01*
X41285Y5228D02*
Y5494D01*
X39987Y3929D02*
Y4195D01*
X39530Y3739D02*
X39796D01*
X39987Y3929D01*
X39338Y3547D02*
X39530Y3739D01*
X39338Y3266D02*
Y3547D01*
X41878Y5689D02*
X42526Y6336D01*
X39160Y3089D02*
X39338Y3266D01*
X41480Y5689D02*
X41878D01*
X41818Y6339D02*
X42465Y6986D01*
X41095Y5688D02*
X41286Y5879D01*
Y6145D01*
X41480Y6339D01*
X40829Y5688D02*
X41095D01*
X40636Y5229D02*
Y5495D01*
X40829Y5688D01*
X41480Y6339D02*
X41818D01*
X39796Y4389D02*
X40636Y5229D01*
X39338Y4197D02*
X39530Y4389D01*
X39796D01*
X39338Y3916D02*
Y4197D01*
X39160Y3739D02*
X39338Y3916D01*
X42465Y6986D02*
X44996D01*
X34270Y6700D02*
X35733Y5238D01*
X33990Y6700D02*
X34270D01*
X35733Y5238D02*
X35932Y5039D01*
X37385D01*
X35623Y4712D02*
X36412D01*
X31295Y5880D02*
X34455D01*
X35623Y4712D01*
X35413Y4389D02*
X39146D01*
X33236Y12280D02*
X33553Y11963D01*
X33236Y13080D02*
X33934Y12382D01*
X38688Y7636D02*
Y8277D01*
X38405Y8560D02*
X38688Y8277D01*
X35733Y7636D02*
X37388D01*
X26636Y7880D02*
X28742Y5774D01*
Y5076D02*
Y5774D01*
X36556Y3460D02*
X36927Y3089D01*
X18050Y1232D02*
X27307D01*
X15550D02*
Y1482D01*
X14300Y1232D02*
Y1482D01*
X48054Y1019D02*
X50360D01*
X48053Y1017D02*
X48054Y1019D01*
X50360D02*
X50860Y519D01*
X48611Y485D02*
X48629Y503D01*
X47179Y485D02*
X48611D01*
X30522Y6700D02*
X33990D01*
X28636Y7480D02*
X33990D01*
X34091D01*
X35733Y5839D01*
X36364Y5410D02*
X36412Y5362D01*
X35733Y5839D02*
X36161Y5410D01*
X36364D01*
X33757Y8280D02*
X33990Y8047D01*
X35701Y6336D01*
X36738D01*
X29436Y8280D02*
X33757D01*
X50860Y2003D02*
X51370D01*
X51871Y1503D01*
X39988Y12836D02*
Y14283D01*
X40638Y12836D02*
Y14656D01*
X43238Y13947D02*
X43427Y14136D01*
X42912Y13162D02*
X43238Y13489D01*
Y13947D01*
X44019Y16947D02*
X44336Y17264D01*
X39534Y15123D02*
Y17642D01*
X39335Y10428D02*
Y14924D01*
X39534Y15123D01*
X42310Y21587D02*
X42685Y21212D01*
X37685Y21587D02*
X42310D01*
X37459Y21361D02*
X37685Y21587D01*
X36735Y10239D02*
X39146D01*
X44019Y16435D02*
Y16947D01*
X45835Y17904D02*
X46286Y18355D01*
X37385Y13489D02*
X37712Y13162D01*
X38362Y11862D02*
X38688Y12189D01*
X38038Y11536D02*
X38362Y11212D01*
X39146Y10239D02*
X39335Y10428D01*
X36412Y10562D02*
X36735Y10239D01*
X36280Y10886D02*
X37385D01*
X37712Y11212D01*
X41955Y13812D02*
X42291Y14149D01*
Y14935D01*
X41972Y14535D02*
Y15073D01*
X43688Y16104D02*
X44019Y16435D01*
X43672Y14462D02*
X44091Y14881D01*
X41612Y13812D02*
X41955D01*
X41937Y14500D02*
X41972Y14535D01*
X39988Y12836D02*
X40312Y12512D01*
X40638Y12836D02*
X40962Y12512D01*
Y13162D02*
X41288Y13489D01*
X42912Y14462D02*
X43672D01*
X43887Y13295D02*
X44078Y13487D01*
X43887Y13029D02*
Y13295D01*
X43693Y12836D02*
X43887Y13029D01*
X43235Y12836D02*
X43693D01*
X42912Y12512D02*
X43235Y12836D01*
X31036Y12280D02*
X33236D01*
X31836Y13080D02*
X33236D01*
X35486Y6986D02*
X37388D01*
X33392Y9080D02*
X35486Y6986D01*
X28636Y9080D02*
X33392D01*
X36738Y6336D02*
X37062Y6012D01*
X37712Y6662D02*
Y6662D01*
X37388Y6986D02*
X37712Y6662D01*
X37388Y7636D02*
X37712Y7312D01*
X29836Y10280D02*
X30236Y9880D01*
X29487Y9986D02*
Y10629D01*
Y9986D02*
X29977Y9496D01*
X39012Y7962D02*
Y8454D01*
X38641Y8825D02*
X39012Y8454D01*
X38688Y7636D02*
X39012Y7312D01*
X36718Y8306D02*
X37062Y7962D01*
X39662Y9262D02*
X39662D01*
X39335Y9589D02*
X39662Y9262D01*
X37385Y5039D02*
X37712Y4712D01*
X31036Y10680D02*
X31036Y10680D01*
X30542Y10680D02*
X31036D01*
X30636Y12680D02*
X31036Y12280D01*
X30287Y10936D02*
Y11429D01*
Y10936D02*
X30542Y10680D01*
X29036Y11080D02*
X29487Y10629D01*
X28236Y7080D02*
X28636Y7480D01*
X28236Y7080D02*
X28236D01*
X28236Y8680D02*
X28636Y9080D01*
X28236Y7880D02*
Y8680D01*
X31436Y5480D02*
X31836Y5080D01*
X30142Y7080D02*
X30522Y6700D01*
X29036Y7080D02*
X30142D01*
X29036Y7880D02*
X29436Y8280D01*
X29836Y11880D02*
X30287Y11429D01*
X30636Y11880D02*
X31036Y11480D01*
X31436Y12680D02*
X31836Y13080D01*
D122*
X53858Y24557D02*
D03*
D125*
X18050Y1232D02*
D03*
X16800D02*
D03*
X15550D02*
D03*
X14300D02*
D03*
X6156Y1238D02*
D03*
X7406D02*
D03*
X8656D02*
D03*
X9906D02*
D03*
X11156D02*
D03*
X11223Y24714D02*
D03*
X9973D02*
D03*
M02*
